<?xml version="1.0" encoding="UTF-8"?>
<svg id="GRAPHIC" xmlns="http://www.w3.org/2000/svg" viewBox="0 0 1584 720">
  <defs>
    <style>
      .cls-1 {
        stroke-linecap: round;
        stroke-linejoin: round;
        stroke-width: 1.08px;
      }

      .cls-1, .cls-2 {
        fill: none;
        stroke: #000;
      }

      .cls-2 {
        stroke-miterlimit: 10;
        stroke-width: .54px;
      }
    </style>
  </defs>
  <g id="ARC">
    <path class="cls-1" d="M641.57,432.59c-.69.23-1.4.36-2.13.37"/>
  </g>
  <g id="LINE">
    <line class="cls-1" x1="589.23" y1="357.12" x2="303.65" y2="361.61"/>
  </g>
  <g id="LINE-2" data-name="LINE">
    <line class="cls-1" x1="304.85" y1="438.21" x2="639.45" y2="432.96"/>
  </g>
  <g id="ARC-2" data-name="ARC">
    <path class="cls-1" d="M140.11,335.01c1.63-.85,3.41-1.37,5.25-1.53"/>
  </g>
  <g id="LINE-3" data-name="LINE">
    <line class="cls-1" x1="109.08" y1="351.22" x2="53.87" y2="380.07"/>
  </g>
  <g id="LINE-4" data-name="LINE">
    <line class="cls-1" x1="140.11" y1="335.01" x2="109.08" y2="351.22"/>
  </g>
  <g id="SPLINE">
    <path class="cls-1" d="M451.62,297.62c1.21-.35,2.52-.54,3.84-.54"/>
  </g>
  <g id="LINE-5" data-name="LINE">
    <line class="cls-1" x1="533.15" y1="297.08" x2="455.46" y2="297.08"/>
  </g>
  <g id="LINE-6" data-name="LINE">
    <line class="cls-1" x1="648.38" y1="297.08" x2="533.15" y2="297.08"/>
  </g>
  <g id="LINE-7" data-name="LINE">
    <line class="cls-1" x1="753.11" y1="347.87" x2="745.84" y2="345.94"/>
  </g>
  <g id="ARC-3" data-name="ARC">
    <path class="cls-1" d="M359.9,342.8c59.94-5.21,118.54-20.67,173.25-45.72"/>
  </g>
  <g id="LINE-8" data-name="LINE">
    <line class="cls-1" x1="200.23" y1="356.67" x2="359.9" y2="342.8"/>
  </g>
  <g id="ARC-4" data-name="ARC">
    <path class="cls-1" d="M203.02,356.99c-.93-.1-1.86-.21-2.79-.32"/>
  </g>
  <g id="ARC-5" data-name="ARC">
    <path class="cls-1" d="M303.65,361.61c-33.61.53-67.21-1.01-100.63-4.62"/>
  </g>
  <g id="LINE-9" data-name="LINE">
    <line class="cls-1" x1="589.23" y1="357.12" x2="615.17" y2="358.37"/>
  </g>
  <g id="ARC-6" data-name="ARC">
    <path class="cls-1" d="M615.17,358.37c9.34.45,18.42,3.24,26.4,8.12"/>
  </g>
  <g id="CIRCLE">
    <circle class="cls-1" cx="615.41" cy="320.22" r="17.41"/>
  </g>
  <g id="CIRCLE-2" data-name="CIRCLE">
    <circle class="cls-1" cx="615.41" cy="320.22" r="13.93"/>
  </g>
  <g id="LINE-10" data-name="LINE">
    <line class="cls-2" x1="606.36" y1="320.23" x2="610.9" y2="328.06"/>
  </g>
  <g id="LINE-11" data-name="LINE">
    <line class="cls-2" x1="610.88" y1="312.39" x2="606.36" y2="320.23"/>
  </g>
  <g id="LINE-12" data-name="LINE">
    <line class="cls-2" x1="619.93" y1="312.38" x2="610.88" y2="312.39"/>
  </g>
  <g id="LINE-13" data-name="LINE">
    <line class="cls-2" x1="624.46" y1="320.21" x2="619.93" y2="312.38"/>
  </g>
  <g id="LINE-14" data-name="LINE">
    <line class="cls-2" x1="619.95" y1="328.05" x2="624.46" y2="320.21"/>
  </g>
  <g id="LINE-15" data-name="LINE">
    <line class="cls-2" x1="610.9" y1="328.06" x2="619.95" y2="328.05"/>
  </g>
  <g id="LINE-16" data-name="LINE">
    <line class="cls-1" x1="357.49" y1="315.05" x2="145.35" y2="333.48"/>
  </g>
  <g id="SPLINE-2" data-name="SPLINE">
    <path class="cls-1" d="M109.08,351.22c31.2,3.96,61.48,5.78,91.15,5.46"/>
  </g>
  <g id="ARC-7" data-name="ARC">
    <path class="cls-1" d="M451.62,297.62c-30.75,8.82-62.27,14.65-94.13,17.42"/>
  </g>
  <g id="ARC-8" data-name="ARC">
    <path class="cls-1" d="M53.87,380.07c41.72,29.36,90.22,47.63,140.94,53.1"/>
  </g>
  <g id="ARC-9" data-name="ARC">
    <path class="cls-1" d="M194.81,433.17c36.54,3.94,73.29,5.62,110.04,5.05"/>
  </g>
  <g id="SPLINE-3" data-name="SPLINE">
    <path class="cls-1" d="M656.9,476.29c.36-1.85.71-3.59,1.07-5.22"/>
  </g>
  <g id="ARC-10" data-name="ARC">
    <path class="cls-1" d="M657.97,471.07c-6.81-3.12-11.17-9.92-11.17-17.41"/>
  </g>
  <g id="ARC-11" data-name="ARC">
    <path class="cls-1" d="M641.57,453.65c0,9.97,6.07,18.94,15.33,22.64"/>
  </g>
  <g id="LINE-17" data-name="LINE">
    <line class="cls-1" x1="641.57" y1="313.98" x2="641.57" y2="453.65"/>
  </g>
  <g id="LINE-18" data-name="LINE">
    <line class="cls-1" x1="646.8" y1="453.65" x2="646.8" y2="313.98"/>
  </g>
  <g id="ARC-12" data-name="ARC">
    <path class="cls-1" d="M665.95,289.6c-13.46,0-24.38,10.91-24.38,24.38"/>
  </g>
  <g id="ARC-13" data-name="ARC">
    <path class="cls-1" d="M646.8,313.98c0-10.58,8.58-19.15,19.15-19.15"/>
  </g>
  <g id="LINE-19" data-name="LINE">
    <line class="cls-1" x1="1096.39" y1="289.6" x2="665.95" y2="289.6"/>
  </g>
  <g id="LINE-20" data-name="LINE">
    <line class="cls-1" x1="665.95" y1="294.83" x2="1096.39" y2="294.83"/>
  </g>
  <g id="ARC-14" data-name="ARC">
    <path class="cls-1" d="M1096.39,294.83c8.17,0,16.33-.14,24.49-.43"/>
  </g>
  <g id="ARC-15" data-name="ARC">
    <path class="cls-1" d="M1120.7,289.18c-8.1.28-16.2.42-24.31.42"/>
  </g>
  <g id="LINE-21" data-name="LINE">
    <line class="cls-1" x1="1503.5" y1="275.81" x2="1120.7" y2="289.18"/>
  </g>
  <g id="LINE-22" data-name="LINE">
    <line class="cls-1" x1="1120.88" y1="294.4" x2="1503.68" y2="281.03"/>
  </g>
  <g id="ARC-16" data-name="ARC">
    <path class="cls-1" d="M1507.63,394.04c32.65-1.14,58.19-28.53,57.05-61.18-1.14-32.65-28.53-58.19-61.18-57.05"/>
  </g>
  <g id="ARC-17" data-name="ARC">
    <path class="cls-1" d="M1503.68,281.03s.09,0,.13,0c29.77-.97,54.68,22.38,55.65,52.15.97,29.77-22.38,54.68-52.15,55.65"/>
  </g>
  <g id="SPLINE-4" data-name="SPLINE">
    <path class="cls-2" d="M1507.31,388.82c.1,1.74.21,3.48.32,5.22"/>
  </g>
  <g id="LINE-23" data-name="LINE">
    <line class="cls-1" x1="1507.31" y1="388.82" x2="1059.68" y2="427.99"/>
  </g>
  <g id="LINE-24" data-name="LINE">
    <line class="cls-1" x1="1060.13" y1="433.19" x2="1507.63" y2="394.04"/>
  </g>
  <g id="ARC-18" data-name="ARC">
    <path class="cls-1" d="M1059.68,427.99c-42.09,3.68-84.44,3.5-126.5-.55"/>
  </g>
  <g id="ARC-19" data-name="ARC">
    <path class="cls-1" d="M932.68,432.63c42.38,4.08,85.04,4.27,127.45.56"/>
  </g>
  <g id="LINE-25" data-name="LINE">
    <line class="cls-1" x1="858.34" y1="425.48" x2="932.68" y2="432.63"/>
  </g>
  <g id="LINE-26" data-name="LINE">
    <line class="cls-1" x1="933.18" y1="427.43" x2="858.84" y2="420.28"/>
  </g>
  <g id="ARC-20" data-name="ARC">
    <path class="cls-1" d="M742.21,470.11c29.55-32.3,72.56-48.83,116.13-44.63"/>
  </g>
  <g id="ARC-21" data-name="ARC">
    <path class="cls-1" d="M858.84,420.28c-45.21-4.35-89.83,12.8-120.48,46.31"/>
  </g>
  <g id="SPLINE-5" data-name="SPLINE">
    <path class="cls-1" d="M732.21,471.07c.36,1.63.71,3.37,1.07,5.22"/>
  </g>
  <g id="ARC-22" data-name="ARC">
    <path class="cls-1" d="M733.28,476.29c3.41-1.36,6.46-3.47,8.94-6.18"/>
  </g>
  <g id="ARC-23" data-name="ARC">
    <path class="cls-1" d="M738.36,466.58c-1.73,1.89-3.82,3.42-6.15,4.48"/>
  </g>
  <g id="ARC-24" data-name="ARC">
    <path class="cls-1" d="M665.95,478.03c-3.1,0-6.17-.59-9.05-1.74"/>
  </g>
  <g id="ARC-25" data-name="ARC">
    <path class="cls-1" d="M733.28,476.29c-2.88,1.15-5.95,1.74-9.05,1.74"/>
  </g>
  <g id="LINE-27" data-name="LINE">
    <line class="cls-1" x1="665.95" y1="478.03" x2="724.23" y2="478.03"/>
  </g>
  <g id="LINE-28" data-name="LINE">
    <line class="cls-1" x1="732.21" y1="471.07" x2="657.97" y2="471.07"/>
  </g>
  <g id="LINE-29" data-name="LINE">
    <line class="cls-1" x1="864.87" y1="305.53" x2="1096.39" y2="305.53"/>
  </g>
  <g id="ARC-26" data-name="ARC">
    <path class="cls-1" d="M1096.39,305.53c8.29,0,16.58-.14,24.86-.43"/>
  </g>
  <g id="LINE-30" data-name="LINE">
    <line class="cls-1" x1="1121.26" y1="305.09" x2="1504.05" y2="291.72"/>
  </g>
  <g id="ARC-27" data-name="ARC">
    <path class="cls-1" d="M1506.69,378.14c23.87-.62,42.71-20.47,42.09-44.34-.62-23.87-20.47-42.71-44.34-42.09-.13,0-.26,0-.38.01"/>
  </g>
  <g id="LINE-31" data-name="LINE">
    <line class="cls-1" x1="1506.69" y1="378.14" x2="1058.75" y2="417.33"/>
  </g>
  <g id="ARC-28" data-name="ARC">
    <path class="cls-1" d="M934.21,416.79c41.41,3.99,83.1,4.17,124.54.54"/>
  </g>
  <g id="LINE-32" data-name="LINE">
    <line class="cls-1" x1="934.21" y1="416.79" x2="859.87" y2="409.63"/>
  </g>
  <g id="ARC-29" data-name="ARC">
    <path class="cls-1" d="M864.87,305.53c-28.81,0-52.17,23.36-52.17,52.17,0,26.88,20.42,49.36,47.17,51.93"/>
  </g>
  <g id="CIRCLE-3" data-name="CIRCLE">
    <circle class="cls-1" cx="718.19" cy="380.96" r="20.9"/>
  </g>
  <g id="ARC-30" data-name="ARC">
    <path class="cls-1" d="M784.77,355.28c10.82,0,19.59-8.77,19.59-19.59s-8.77-19.59-19.59-19.59"/>
  </g>
  <g id="LINE-33" data-name="LINE">
    <line class="cls-1" x1="743.68" y1="355.28" x2="784.77" y2="355.28"/>
  </g>
  <g id="ARC-31" data-name="ARC">
    <path class="cls-1" d="M743.68,316.09c-10.82,0-19.59,8.77-19.59,19.59s8.77,19.59,19.59,19.59"/>
  </g>
  <g id="LINE-34" data-name="LINE">
    <line class="cls-1" x1="784.77" y1="316.09" x2="743.68" y2="316.09"/>
  </g>
  <g id="CIRCLE-4" data-name="CIRCLE">
    <circle class="cls-1" cx="1059.94" cy="322.52" r="8.71"/>
  </g>
  <g id="ARC-32" data-name="ARC">
    <path class="cls-1" d="M1360.13,352.37c2.03.56,4.19.37,6.09-.53"/>
  </g>
  <g id="ARC-33" data-name="ARC">
    <path class="cls-1" d="M1366.22,351.84c4.34-2.07,6.17-7.27,4.1-11.61-2.07-4.34-7.27-6.17-11.61-4.1-4.34,2.07-6.17,7.27-4.1,11.61,1.08,2.27,3.1,3.96,5.52,4.63"/>
  </g>
  <g id="ARC-34" data-name="ARC">
    <path class="cls-1" d="M1162.94,375.25c-3.75,6.72-1.34,15.2,5.38,18.95,6.72,3.75,15.2,1.34,18.95-5.38,2.78-4.98,2.24-11.16-1.36-15.59"/>
  </g>
  <g id="ARC-35" data-name="ARC">
    <path class="cls-1" d="M1185.91,373.24c-4.86-5.96-13.63-6.86-19.6-2-1.37,1.11-2.51,2.47-3.37,4.01"/>
  </g>
  <g id="CIRCLE-5" data-name="CIRCLE">
    <circle class="cls-1" cx="905.2" cy="358.28" r="13.93"/>
  </g>
  <g id="ARC-36" data-name="ARC">
    <path class="cls-2" d="M1505.17,345.31c.35,10.95.86,21.89,1.52,32.83"/>
  </g>
  <g id="LINE-35" data-name="LINE">
    <line class="cls-1" x1="845.56" y1="424.84" x2="844.42" y2="424.84"/>
  </g>
  <g id="ARC-37" data-name="ARC">
    <path class="cls-1" d="M753.02,319.32c-7.89,0-14.28,6.39-14.28,14.28s6.39,14.28,14.28,14.28"/>
  </g>
  <g id="LINE-36" data-name="LINE">
    <line class="cls-1" x1="753.02" y1="347.87" x2="771.42" y2="347.87"/>
  </g>
  <g id="ARC-38" data-name="ARC">
    <path class="cls-1" d="M793.71,350.82c-.52.95-.98,1.93-1.38,2.94"/>
  </g>
  <g id="LINE-37" data-name="LINE">
    <line class="cls-1" x1="795.54" y1="319.32" x2="791.33" y2="319.32"/>
  </g>
  <g id="LINE-38" data-name="LINE">
    <line class="cls-1" x1="777.41" y1="319.32" x2="753.02" y2="319.32"/>
  </g>
  <g id="CIRCLE-6" data-name="CIRCLE">
    <circle class="cls-2" cx="784.37" cy="335.68" r="9.14"/>
  </g>
  <g id="CIRCLE-7" data-name="CIRCLE">
    <circle class="cls-1" cx="784.37" cy="335.68" r="17.79"/>
  </g>
  <g id="CIRCLE-8" data-name="CIRCLE">
    <circle class="cls-1" cx="718.11" cy="380.96" r="17.42"/>
  </g>
  <g id="CIRCLE-9" data-name="CIRCLE">
    <circle class="cls-2" cx="718.11" cy="380.96" r="9.69"/>
  </g>
  <g id="ARC-39" data-name="ARC">
    <path class="cls-2" d="M721.82,389.91c-1.79-2.05-4.9-2.26-6.95-.47-.17.15-.32.3-.47.47"/>
  </g>
  <g id="ARC-40" data-name="ARC">
    <path class="cls-2" d="M714.4,372c1.79,2.05,4.9,2.26,6.95.47.17-.15.32-.3.47-.47"/>
  </g>
  <g id="ARC-41" data-name="ARC">
    <path class="cls-2" d="M727.72,382.22c-2.67.52-4.41,3.11-3.88,5.78.04.22.1.43.17.64"/>
  </g>
  <g id="ARC-42" data-name="ARC">
    <path class="cls-2" d="M712.21,388.65c.88-2.57-.49-5.37-3.07-6.25-.21-.07-.42-.13-.64-.17"/>
  </g>
  <g id="ARC-43" data-name="ARC">
    <path class="cls-2" d="M708.5,379.69c2.67-.52,4.41-3.11,3.88-5.78-.04-.22-.1-.43-.17-.64"/>
  </g>
  <g id="ARC-44" data-name="ARC">
    <path class="cls-2" d="M724.01,373.27c-.88,2.57.49,5.37,3.07,6.25.21.07.42.13.64.17"/>
  </g>
  <g id="CIRCLE-10" data-name="CIRCLE">
    <circle class="cls-2" cx="905.12" cy="358.52" r="7.75"/>
  </g>
  <g id="ARC-45" data-name="ARC">
    <path class="cls-2" d="M908.09,365.68c-1.43-1.64-3.92-1.81-5.56-.38-.13.12-.26.24-.38.38"/>
  </g>
  <g id="ARC-46" data-name="ARC">
    <path class="cls-2" d="M902.16,351.35c1.43,1.64,3.92,1.81,5.56.38.13-.12.26-.24.38-.38"/>
  </g>
  <g id="ARC-47" data-name="ARC">
    <path class="cls-2" d="M912.81,359.53c-2.13.42-3.52,2.49-3.1,4.63.03.17.08.35.14.51"/>
  </g>
  <g id="ARC-48" data-name="ARC">
    <path class="cls-2" d="M900.4,364.67c.7-2.06-.39-4.3-2.45-5-.17-.06-.34-.1-.51-.14"/>
  </g>
  <g id="ARC-49" data-name="ARC">
    <path class="cls-2" d="M897.44,357.51c2.13-.42,3.52-2.49,3.1-4.63-.03-.17-.08-.35-.14-.51"/>
  </g>
  <g id="ARC-50" data-name="ARC">
    <path class="cls-2" d="M909.84,352.37c-.7,2.06.39,4.3,2.45,5,.17.06.34.1.51.14"/>
  </g>
  <g id="CIRCLE-11" data-name="CIRCLE">
    <circle class="cls-2" cx="1175.02" cy="381.92" r="7.75"/>
  </g>
  <g id="ARC-51" data-name="ARC">
    <path class="cls-2" d="M1177.99,389.08c-1.43-1.64-3.92-1.81-5.56-.38-.13.12-.26.24-.38.38"/>
  </g>
  <g id="ARC-52" data-name="ARC">
    <path class="cls-2" d="M1172.05,374.76c1.43,1.64,3.92,1.81,5.56.38.13-.12.26-.24.38-.38"/>
  </g>
  <g id="ARC-53" data-name="ARC">
    <path class="cls-2" d="M1182.71,382.93c-2.13.42-3.52,2.49-3.1,4.63.03.17.08.35.14.51"/>
  </g>
  <g id="ARC-54" data-name="ARC">
    <path class="cls-2" d="M1170.3,388.07c.7-2.06-.39-4.3-2.45-5-.17-.06-.34-.1-.51-.14"/>
  </g>
  <g id="ARC-55" data-name="ARC">
    <path class="cls-2" d="M1167.33,380.91c2.13-.42,3.52-2.49,3.1-4.63-.03-.17-.08-.35-.14-.51"/>
  </g>
  <g id="ARC-56" data-name="ARC">
    <path class="cls-2" d="M1179.74,375.77c-.7,2.06.39,4.3,2.45,5,.17.06.34.1.51.14"/>
  </g>
  <g id="LINE-39" data-name="LINE">
    <line class="cls-2" x1="304.85" y1="438.21" x2="303.65" y2="361.61"/>
  </g>
  <g id="LINE-40" data-name="LINE">
    <line class="cls-2" x1="359.9" y1="342.8" x2="357.49" y2="315.05"/>
  </g>
  <g id="LINE-41" data-name="LINE">
    <line class="cls-2" x1="203.02" y1="356.99" x2="194.81" y2="433.17"/>
  </g>
  <g id="LINE-42" data-name="LINE">
    <line class="cls-2" x1="646.8" y1="453.65" x2="641.57" y2="453.65"/>
  </g>
  <g id="LINE-43" data-name="LINE">
    <line class="cls-2" x1="646.8" y1="313.98" x2="641.57" y2="313.98"/>
  </g>
  <g id="LINE-44" data-name="LINE">
    <line class="cls-2" x1="665.95" y1="294.83" x2="665.95" y2="289.6"/>
  </g>
  <g id="LINE-45" data-name="LINE">
    <line class="cls-2" x1="1096.39" y1="294.83" x2="1096.39" y2="289.6"/>
  </g>
  <g id="LINE-46" data-name="LINE">
    <line class="cls-2" x1="1120.88" y1="294.4" x2="1120.7" y2="289.18"/>
  </g>
  <g id="LINE-47" data-name="LINE">
    <line class="cls-2" x1="1503.68" y1="281.03" x2="1503.5" y2="275.81"/>
  </g>
  <g id="LINE-48" data-name="LINE">
    <line class="cls-2" x1="1059.68" y1="427.99" x2="1060.13" y2="433.19"/>
  </g>
  <g id="LINE-49" data-name="LINE">
    <line class="cls-2" x1="933.18" y1="427.43" x2="932.68" y2="432.63"/>
  </g>
  <g id="LINE-50" data-name="LINE">
    <line class="cls-2" x1="858.84" y1="420.28" x2="858.34" y2="425.48"/>
  </g>
  <g id="LINE-51" data-name="LINE">
    <line class="cls-2" x1="738.36" y1="466.58" x2="742.21" y2="470.11"/>
  </g>
  <g id="LINE-52" data-name="LINE">
    <line class="cls-2" x1="1366.22" y1="357.47" x2="1505.17" y2="345.31"/>
  </g>
  <g id="ARC-57" data-name="ARC">
    <path class="cls-2" d="M1505.17,345.31c5.74.22,10.56-4.26,10.78-9.99s-4.26-10.56-9.99-10.78c-.25,0-.5,0-.75,0"/>
  </g>
  <g id="LINE-53" data-name="LINE">
    <line class="cls-2" x1="1505.2" y1="324.54" x2="1122.4" y2="337.91"/>
  </g>
  <g id="ARC-58" data-name="ARC">
    <path class="cls-2" d="M1096.39,338.36c8.67,0,17.34-.15,26.01-.45"/>
  </g>
  <g id="LINE-54" data-name="LINE">
    <line class="cls-2" x1="1096.39" y1="338.36" x2="864.87" y2="338.36"/>
  </g>
  <g id="ARC-59" data-name="ARC">
    <path class="cls-2" d="M864.87,338.36c-6.93,0-13.34,3.71-16.78,9.73"/>
  </g>
  <g id="ARC-60" data-name="ARC">
    <path class="cls-2" d="M848.09,348.09c-5.31,9.27-2.09,21.08,7.18,26.39,2.38,1.36,5.02,2.2,7.75,2.47"/>
  </g>
  <g id="LINE-55" data-name="LINE">
    <line class="cls-2" x1="863.02" y1="376.95" x2="937.35" y2="384.1"/>
  </g>
  <g id="ARC-61" data-name="ARC">
    <path class="cls-2" d="M937.35,384.1c39.41,3.79,79.09,3.97,118.53.52"/>
  </g>
  <g id="LINE-56" data-name="LINE">
    <line class="cls-2" x1="1055.89" y1="384.62" x2="1162.94" y2="375.25"/>
  </g>
  <g id="LINE-57" data-name="LINE">
    <line class="cls-2" x1="1185.91" y1="373.24" x2="1366.22" y2="357.47"/>
  </g>
  <g id="LINE-58" data-name="LINE">
    <line class="cls-2" x1="864.87" y1="305.53" x2="864.87" y2="338.36"/>
  </g>
  <g id="LINE-59" data-name="LINE">
    <line class="cls-2" x1="1096.39" y1="338.36" x2="1096.39" y2="305.53"/>
  </g>
  <g id="LINE-60" data-name="LINE">
    <line class="cls-2" x1="1122.4" y1="337.91" x2="1121.26" y2="305.09"/>
  </g>
  <g id="LINE-61" data-name="LINE">
    <line class="cls-2" x1="1505.2" y1="324.54" x2="1504.05" y2="291.72"/>
  </g>
  <g id="LINE-62" data-name="LINE">
    <line class="cls-2" x1="1058.75" y1="417.33" x2="1055.89" y2="384.62"/>
  </g>
  <g id="LINE-63" data-name="LINE">
    <line class="cls-2" x1="934.21" y1="416.79" x2="937.35" y2="384.1"/>
  </g>
  <g id="LINE-64" data-name="LINE">
    <line class="cls-2" x1="859.87" y1="409.63" x2="863.02" y2="376.95"/>
  </g>
</svg>