<?xml version="1.0" encoding="UTF-8"?>
<svg id="Visible_Narrow" data-name="Visible Narrow" xmlns="http://www.w3.org/2000/svg" viewBox="0 0 792 612">
  <defs>
    <style>
      .cls-1 {
        stroke-width: .2px;
      }

      .cls-1, .cls-2 {
        fill: none;
        stroke: #000;
        stroke-linecap: round;
        stroke-linejoin: round;
      }

      .cls-2 {
        stroke-width: .07px;
      }
    </style>
  </defs>
  <g id="ELLIPSE">
    <path class="cls-1" d="M592.26,329.55c-1.97-1.31-5.29.47-7.41,3.97-2.12,3.5-2.24,7.4-.26,8.71.08.06.17.11.26.15"/>
  </g>
  <g id="LINE">
    <line class="cls-1" x1="578.2" y1="338.55" x2="578.2" y2="323.94"/>
  </g>
  <g id="ELLIPSE-2" data-name="ELLIPSE">
    <path class="cls-1" d="M578.2,323.94c-2.78,0-5.45.64-7.41,1.77"/>
  </g>
  <g id="ELLIPSE-3" data-name="ELLIPSE">
    <path class="cls-1" d="M571.68,317.67c-2.05-1.18-5.37.73-7.41,4.28-1.73,3-2.03,6.3-.72,7.94"/>
  </g>
  <g id="SPLINE">
    <path class="cls-1" d="M584.22,328.39c.02.13.07.26.16.37s.22.23.36.31.31.15.5.19.4.06.59.05.42-.04.62-.09.38-.13.53-.21.26-.18.33-.28.09-.21.08-.31-.07-.2-.16-.3-.22-.19-.36-.27-.31-.16-.5-.22-.4-.11-.59-.13-.42-.03-.62,0-.38.09-.53.17-.26.2-.33.32-.09.27-.08.4c0,0,0,0,0,.01Z"/>
  </g>
  <g id="SPLINE-2" data-name="SPLINE">
    <path class="cls-1" d="M569.02,319.61c.02.13.07.26.16.37s.22.23.36.31.31.15.5.19.4.06.59.05.42-.04.62-.09.38-.13.53-.21.26-.18.33-.28.09-.21.08-.31-.07-.2-.16-.3-.22-.19-.36-.27-.31-.16-.5-.22-.4-.11-.59-.13-.42-.03-.62,0-.38.09-.53.17-.26.2-.33.32-.09.27-.08.4c0,0,0,0,0,.01Z"/>
  </g>
  <g id="ELLIPSE-4" data-name="ELLIPSE">
    <path class="cls-1" d="M571.51,342.41c2.14-1.02,2.29-4.76.34-8.36-1.95-3.6-5.27-5.69-7.41-4.67-.09.04-.18.09-.27.15"/>
  </g>
  <g id="SPLINE-3" data-name="SPLINE">
    <path class="cls-1" d="M569.02,328.4s0,0,0,0c-.02.1,0,.21.08.31s.19.2.33.28.33.16.53.21.42.08.62.09.4,0,.59-.05.36-.11.5-.19.27-.19.36-.31.14-.26.16-.39,0-.28-.08-.4-.19-.24-.33-.32-.33-.14-.53-.17-.42-.02-.62,0-.4.07-.59.13-.36.14-.5.22-.27.18-.36.27-.14.2-.16.29Z"/>
  </g>
  <g id="ELLIPSE-5" data-name="ELLIPSE">
    <path class="cls-1" d="M588.55,330.07c-2.75,1.5-5.04,5.33-5.11,8.55,0,.1,0,.2,0,.3"/>
  </g>
  <g id="ELLIPSE-6" data-name="ELLIPSE">
    <path class="cls-1" d="M567.84,318.11c-2.75,1.5-5.04,5.33-5.11,8.55,0,.1,0,.2,0,.3"/>
  </g>
  <g id="ELLIPSE-7" data-name="ELLIPSE">
    <path class="cls-1" d="M572.95,339.03c.13-3.1-2-7.02-4.74-8.75-.12-.08-.24-.15-.36-.21"/>
  </g>
  <g id="ELLIPSE-8" data-name="ELLIPSE">
    <path class="cls-1" d="M586.91,329.04c.54-.35.49-.89-.12-1.21s-1.55-.28-2.09.07-.5.85.05,1.17"/>
  </g>
  <g id="ELLIPSE-9" data-name="ELLIPSE">
    <path class="cls-1" d="M571.56,329.13c.43-.31.34-.75-.19-1s-1.31-.2-1.73.11c-.35.25-.36.6-.04.86"/>
  </g>
  <g id="ELLIPSE-10" data-name="ELLIPSE">
    <path class="cls-1" d="M571.6,320.32c.4-.32.27-.76-.28-.99s-1.32-.16-1.72.16c-.32.26-.31.61.04.86"/>
  </g>
  <g id="LINE-2" data-name="LINE">
    <line class="cls-1" x1="571.68" y1="317.67" x2="592.13" y2="329.47"/>
  </g>
  <g id="LINE-3" data-name="LINE">
    <line class="cls-1" x1="578.2" y1="338.55" x2="584.72" y2="342.32"/>
  </g>
  <g id="LINE-4" data-name="LINE">
    <line class="cls-1" x1="578.2" y1="338.55" x2="571.68" y2="342.32"/>
  </g>
  <g id="LINE-5" data-name="LINE">
    <line class="cls-1" x1="570.79" y1="325.71" x2="564.27" y2="329.47"/>
  </g>
  <g id="ELLIPSE-11" data-name="ELLIPSE">
    <path class="cls-1" d="M328.13,177.05c-2.05-1.18-5.37.73-7.41,4.28-1.73,3-2.03,6.3-.72,7.94"/>
  </g>
  <g id="ELLIPSE-12" data-name="ELLIPSE">
    <path class="cls-1" d="M334.65,183.32c-2.78,0-5.45.64-7.41,1.77"/>
  </g>
  <g id="LINE-6" data-name="LINE">
    <line class="cls-1" x1="334.65" y1="197.94" x2="334.65" y2="183.32"/>
  </g>
  <g id="ELLIPSE-13" data-name="ELLIPSE">
    <path class="cls-1" d="M348.71,188.94c-1.97-1.31-5.29.47-7.41,3.97-2.12,3.5-2.24,7.4-.26,8.71.08.06.17.11.26.15"/>
  </g>
  <g id="SPLINE-4" data-name="SPLINE">
    <path class="cls-1" d="M327.06,179.91c-.19,0-.39-.01-.58-.05s-.36-.11-.5-.19-.27-.19-.36-.31-.14-.26-.16-.39,0-.28.08-.4.19-.24.33-.32.33-.14.53-.17.42-.02.62,0,.4.07.59.13.36.14.5.22.27.18.36.27.14.2.16.3,0,.21-.08.31-.19.2-.33.28-.33.16-.53.21-.42.08-.62.09c0,0-.01,0-.02,0Z"/>
  </g>
  <g id="SPLINE-5" data-name="SPLINE">
    <path class="cls-1" d="M342.26,188.69c-.19,0-.39-.01-.58-.05s-.36-.11-.5-.19-.27-.19-.36-.31-.14-.26-.16-.39,0-.28.08-.4.19-.24.33-.32.33-.14.53-.17.42-.02.62,0,.4.07.59.13.36.14.5.22.27.18.36.27.14.2.16.3,0,.21-.08.31-.19.2-.33.28-.33.16-.53.21-.42.08-.62.09c0,0-.01,0-.02,0Z"/>
  </g>
  <g id="ELLIPSE-14" data-name="ELLIPSE">
    <path class="cls-1" d="M320.62,188.92c.09-.05.18-.1.27-.15,2.14-1.02,5.45,1.07,7.41,4.67,1.95,3.6,1.8,7.34-.34,8.36"/>
  </g>
  <g id="SPLINE-6" data-name="SPLINE">
    <path class="cls-1" d="M327.03,188.69s-.01,0-.02,0c-.2,0-.42-.04-.62-.09s-.38-.13-.53-.21-.26-.18-.33-.28-.09-.21-.08-.31.07-.2.16-.3.22-.19.36-.27.31-.16.5-.22.4-.11.59-.13.42-.03.62,0,.38.09.53.17.26.2.33.32.09.27.08.4-.07.26-.16.39-.22.23-.36.31-.31.15-.5.19-.39.06-.58.05Z"/>
  </g>
  <g id="ELLIPSE-15" data-name="ELLIPSE">
    <path class="cls-1" d="M324.29,177.5c-2.75,1.5-5.04,5.33-5.11,8.55,0,.1,0,.2,0,.3"/>
  </g>
  <g id="ELLIPSE-16" data-name="ELLIPSE">
    <path class="cls-1" d="M345,189.46c-2.75,1.5-5.04,5.33-5.11,8.55,0,.1,0,.2,0,.3"/>
  </g>
  <g id="ELLIPSE-17" data-name="ELLIPSE">
    <path class="cls-1" d="M324.29,189.45c.12.07.24.14.36.21,2.75,1.73,4.87,5.65,4.74,8.75"/>
  </g>
  <g id="ELLIPSE-18" data-name="ELLIPSE">
    <path class="cls-1" d="M325.99,179.68c-.55-.32-.57-.83-.05-1.17.54-.35,1.48-.39,2.09-.07s.67.85.12,1.21"/>
  </g>
  <g id="ELLIPSE-19" data-name="ELLIPSE">
    <path class="cls-1" d="M326.05,188.48c-.32-.26-.31-.61.04-.86.43-.31,1.2-.35,1.73-.11s.61.69.19,1"/>
  </g>
  <g id="ELLIPSE-20" data-name="ELLIPSE">
    <path class="cls-1" d="M341.29,188.51c-.35-.25-.36-.6-.04-.86.4-.32,1.17-.39,1.72-.16s.68.67.28.99"/>
  </g>
  <g id="LINE-7" data-name="LINE">
    <line class="cls-1" x1="328.13" y1="177.05" x2="348.58" y2="188.86"/>
  </g>
  <g id="LINE-8" data-name="LINE">
    <line class="cls-1" x1="334.65" y1="197.94" x2="341.16" y2="201.7"/>
  </g>
  <g id="LINE-9" data-name="LINE">
    <line class="cls-1" x1="320.71" y1="188.86" x2="327.23" y2="185.1"/>
  </g>
  <g id="LINE-10" data-name="LINE">
    <line class="cls-1" x1="328.13" y1="201.7" x2="334.65" y2="197.94"/>
  </g>
  <g id="ELLIPSE-21" data-name="ELLIPSE">
    <path class="cls-1" d="M464.01,412.15c-.09-.05-.18-.1-.26-.15-1.97-1.31-1.86-5.2.26-8.71,2.12-3.5,5.44-5.28,7.41-3.97"/>
  </g>
  <g id="ELLIPSE-22" data-name="ELLIPSE">
    <path class="cls-1" d="M457.35,393.7c2.78,0,5.45.64,7.41,1.77"/>
  </g>
  <g id="LINE-11" data-name="LINE">
    <line class="cls-1" x1="457.35" y1="391.19" x2="457.35" y2="393.7"/>
  </g>
  <g id="ELLIPSE-23" data-name="ELLIPSE">
    <path class="cls-1" d="M443.42,400.27c-2.05-1.18-2.05-5.01,0-8.56,2.05-3.55,5.37-5.46,7.41-4.28"/>
  </g>
  <g id="SPLINE-7" data-name="SPLINE">
    <path class="cls-1" d="M464.94,397.24c.19.03.39.07.58.13s.36.14.5.22.27.18.36.27.14.2.16.3,0,.21-.08.31-.19.2-.33.28-.33.16-.53.21-.42.08-.62.09-.4,0-.59-.05-.36-.11-.5-.19-.27-.19-.36-.31-.14-.26-.16-.39,0-.28.08-.4.19-.24.33-.32.33-.14.53-.17.42-.02.62,0c0,0,.01,0,.02,0Z"/>
  </g>
  <g id="SPLINE-8" data-name="SPLINE">
    <path class="cls-1" d="M449.74,388.46c.19.03.39.07.58.13s.36.14.5.22.27.18.36.27.14.2.16.3,0,.21-.08.31-.19.2-.33.28-.33.16-.53.21-.42.08-.62.09-.4,0-.59-.05-.36-.11-.5-.19-.27-.19-.36-.31-.14-.26-.16-.39,0-.28.08-.4.19-.24.33-.32.33-.14.53-.17.42-.02.62,0c0,0,.01,0,.02,0Z"/>
  </g>
  <g id="ELLIPSE-24" data-name="ELLIPSE">
    <path class="cls-1" d="M472,399.65c1.55-1.93.83-6.08-1.61-9.29-2.07-2.72-4.78-3.94-6.52-2.93"/>
  </g>
  <g id="SPLINE-9" data-name="SPLINE">
    <path class="cls-1" d="M464.97,388.46s.01,0,.02,0c.2-.03.42-.03.62,0s.38.09.53.17.26.2.33.32.09.27.08.4-.07.26-.16.39-.22.23-.36.31-.31.15-.5.19-.4.06-.59.05-.42-.04-.62-.09-.38-.13-.53-.21-.26-.18-.33-.28-.09-.21-.08-.31.07-.2.16-.3.22-.19.36-.27.31-.16.5-.22.39-.11.58-.13Z"/>
  </g>
  <g id="ELLIPSE-25" data-name="ELLIPSE">
    <path class="cls-1" d="M462.6,408.68c0-.1,0-.2,0-.3.07-3.22,2.36-7.04,5.11-8.55"/>
  </g>
  <g id="ELLIPSE-26" data-name="ELLIPSE">
    <path class="cls-1" d="M441.89,396.72c0-.1,0-.2,0-.3.07-3.22,2.36-7.04,5.11-8.55"/>
  </g>
  <g id="ELLIPSE-27" data-name="ELLIPSE">
    <path class="cls-1" d="M472.82,396.72c.07-3.13-2.1-7.03-4.85-8.7-.09-.05-.17-.1-.26-.15"/>
  </g>
  <g id="ELLIPSE-28" data-name="ELLIPSE">
    <path class="cls-1" d="M463.9,398.83c-.55-.32-.57-.83-.05-1.17.54-.35,1.48-.39,2.09-.07s.67.85.12,1.21"/>
  </g>
  <g id="ELLIPSE-29" data-name="ELLIPSE">
    <path class="cls-1" d="M463.95,390.08c-.32-.26-.31-.61.04-.86.43-.31,1.2-.35,1.73-.11s.61.69.19,1"/>
  </g>
  <g id="ELLIPSE-30" data-name="ELLIPSE">
    <path class="cls-1" d="M448.79,390.11c-.35-.25-.36-.6-.04-.86.4-.32,1.17-.39,1.72-.16s.68.67.28.99"/>
  </g>
  <g id="LINE-12" data-name="LINE">
    <line class="cls-1" x1="463.87" y1="412.07" x2="443.42" y2="400.27"/>
  </g>
  <g id="LINE-13" data-name="LINE">
    <line class="cls-1" x1="471.29" y1="399.23" x2="464.77" y2="395.47"/>
  </g>
  <g id="LINE-14" data-name="LINE">
    <line class="cls-1" x1="457.35" y1="391.19" x2="450.84" y2="387.43"/>
  </g>
  <g id="LINE-15" data-name="LINE">
    <line class="cls-1" x1="463.87" y1="387.43" x2="457.35" y2="391.19"/>
  </g>
  <g id="ELLIPSE-31" data-name="ELLIPSE">
    <path class="cls-1" d="M199.87,259.65c-2.05-1.18-2.05-5.01,0-8.56s5.37-5.46,7.41-4.28"/>
  </g>
  <g id="LINE-16" data-name="LINE">
    <line class="cls-1" x1="213.8" y1="250.57" x2="213.8" y2="253.08"/>
  </g>
  <g id="ELLIPSE-32" data-name="ELLIPSE">
    <path class="cls-1" d="M213.8,253.08c2.78,0,5.45.64,7.41,1.77"/>
  </g>
  <g id="ELLIPSE-33" data-name="ELLIPSE">
    <path class="cls-1" d="M220.45,271.53c-.09-.05-.18-.1-.26-.15-1.97-1.31-1.86-5.2.26-8.71,2.12-3.5,5.44-5.28,7.41-3.97"/>
  </g>
  <g id="SPLINE-10" data-name="SPLINE">
    <path class="cls-1" d="M207.78,248.77c-.02-.1-.07-.2-.16-.29s-.22-.19-.36-.27-.31-.16-.5-.22-.4-.11-.59-.13-.42-.03-.62,0-.38.09-.53.17-.26.2-.33.32-.09.27-.08.4.07.26.16.39.22.23.36.31.31.15.5.19.4.06.59.05.42-.04.62-.09.38-.13.53-.21.26-.18.33-.28.09-.21.08-.31c0,0,0,0,0,0Z"/>
  </g>
  <g id="SPLINE-11" data-name="SPLINE">
    <path class="cls-1" d="M222.98,257.55c-.02-.1-.07-.2-.16-.29s-.22-.19-.36-.27-.31-.16-.5-.22-.4-.11-.59-.13-.42-.03-.62,0-.38.09-.53.17-.26.2-.33.32-.09.27-.08.4.07.26.16.39.22.23.36.31.31.15.5.19.4.06.59.05.42-.04.62-.09.38-.13.53-.21.26-.18.33-.28.09-.21.08-.31c0,0,0,0,0,0Z"/>
  </g>
  <g id="ELLIPSE-34" data-name="ELLIPSE">
    <path class="cls-1" d="M220.32,246.81c1.74-1,4.45.22,6.52,2.93,2.44,3.2,3.17,7.36,1.61,9.29"/>
  </g>
  <g id="SPLINE-12" data-name="SPLINE">
    <path class="cls-1" d="M222.98,248.75s0,0,0-.01c.02-.13,0-.28-.08-.4s-.19-.24-.33-.32-.33-.14-.53-.17-.42-.02-.62,0-.4.07-.59.13-.36.14-.5.22-.27.18-.36.27-.14.2-.16.3,0,.21.08.31.19.2.33.28.33.16.53.21.42.08.62.09.4,0,.59-.05.36-.11.5-.19.27-.19.36-.31.14-.25.16-.37Z"/>
  </g>
  <g id="ELLIPSE-35" data-name="ELLIPSE">
    <path class="cls-1" d="M198.33,256.1c0-.1,0-.2,0-.3.07-3.22,2.36-7.04,5.11-8.55"/>
  </g>
  <g id="ELLIPSE-36" data-name="ELLIPSE">
    <path class="cls-1" d="M219.05,268.06c0-.1,0-.2,0-.3.07-3.22,2.36-7.04,5.11-8.55"/>
  </g>
  <g id="ELLIPSE-37" data-name="ELLIPSE">
    <path class="cls-1" d="M224.16,247.26c.09.05.17.1.26.15,2.75,1.67,4.92,5.56,4.85,8.7"/>
  </g>
  <g id="ELLIPSE-38" data-name="ELLIPSE">
    <path class="cls-1" d="M207.31,249.41c.54-.35.49-.89-.12-1.21s-1.55-.28-2.09.07-.5.85.05,1.17"/>
  </g>
  <g id="ELLIPSE-39" data-name="ELLIPSE">
    <path class="cls-1" d="M222.36,249.49c.43-.31.34-.75-.19-1s-1.31-.2-1.73.11c-.35.25-.36.6-.04.86"/>
  </g>
  <g id="ELLIPSE-40" data-name="ELLIPSE">
    <path class="cls-1" d="M222.4,258.24c.4-.32.27-.76-.28-.99s-1.32-.16-1.72.16c-.32.26-.31.61.04.86"/>
  </g>
  <g id="LINE-17" data-name="LINE">
    <line class="cls-1" x1="220.32" y1="271.46" x2="199.87" y2="259.65"/>
  </g>
  <g id="LINE-18" data-name="LINE">
    <line class="cls-1" x1="227.73" y1="258.62" x2="221.21" y2="254.85"/>
  </g>
  <g id="LINE-19" data-name="LINE">
    <line class="cls-1" x1="213.8" y1="250.57" x2="207.28" y2="246.81"/>
  </g>
  <g id="LINE-20" data-name="LINE">
    <line class="cls-1" x1="213.8" y1="250.57" x2="220.32" y2="246.81"/>
  </g>
  <g id="ELLIPSE-41" data-name="ELLIPSE">
    <path class="cls-1" d="M737.82,430.5c-1.31-1.64-1.01-4.93.72-7.93,2.05-3.55,5.37-5.46,7.41-4.28"/>
  </g>
  <g id="ELLIPSE-42" data-name="ELLIPSE">
    <path class="cls-1" d="M752.48,424.56c-2.78,0-5.45.64-7.41,1.77"/>
  </g>
  <g id="SPLINE-13" data-name="SPLINE">
    <path class="cls-1" d="M744.87,419.33s-.01,0-.02,0c-.2-.03-.42-.03-.62,0s-.38.09-.53.17-.26.2-.33.32-.09.27-.08.4.07.26.16.39.22.23.36.31.31.15.5.19.4.06.59.05.42-.04.62-.09.38-.13.53-.21.26-.18.33-.28.09-.21.08-.31-.07-.2-.16-.3-.22-.19-.36-.27-.31-.16-.5-.22-.39-.11-.58-.13Z"/>
  </g>
  <g id="ELLIPSE-43" data-name="ELLIPSE">
    <path class="cls-1" d="M745.75,443.04c2.16-.98,2.34-4.7.41-8.31-1.93-3.61-5.24-5.73-7.4-4.75-.09.04-.18.09-.27.15"/>
  </g>
  <g id="SPLINE-14" data-name="SPLINE">
    <path class="cls-1" d="M744.89,428.1c-.19.03-.39.07-.58.13s-.36.14-.5.22-.27.18-.36.27-.14.2-.16.3,0,.21.08.31.19.2.33.28.33.16.53.21.42.08.62.09.4,0,.59-.05.36-.11.5-.19.27-.19.36-.31.14-.26.16-.39,0-.28-.08-.4-.19-.24-.33-.32-.33-.14-.53-.17-.42-.02-.62,0c0,0-.01,0-.02,0Z"/>
  </g>
  <g id="ELLIPSE-44" data-name="ELLIPSE">
    <path class="cls-1" d="M747.22,439.76c.18-3.06-1.9-7-4.64-8.8-.15-.1-.31-.19-.46-.28"/>
  </g>
  <g id="ELLIPSE-45" data-name="ELLIPSE">
    <path class="cls-1" d="M737.01,427.58c0-.1,0-.2,0-.3.07-3.22,2.36-7.04,5.11-8.55"/>
  </g>
  <g id="ELLIPSE-46" data-name="ELLIPSE">
    <path class="cls-1" d="M745.84,429.75c.43-.31.34-.75-.19-1s-1.31-.2-1.73.11c-.35.25-.36.6-.04.86"/>
  </g>
  <g id="ELLIPSE-47" data-name="ELLIPSE">
    <path class="cls-1" d="M745.88,420.94c.4-.32.27-.76-.28-.99s-1.32-.16-1.72.16c-.32.26-.31.61.04.86"/>
  </g>
  <g id="LINE-21" data-name="LINE">
    <line class="cls-1" x1="756.19" y1="424.19" x2="745.96" y2="418.29"/>
  </g>
  <g id="LINE-22" data-name="LINE">
    <line class="cls-1" x1="756.19" y1="437.03" x2="745.96" y2="442.94"/>
  </g>
  <g id="LINE-23" data-name="LINE">
    <line class="cls-1" x1="745.07" y1="426.33" x2="738.55" y2="430.09"/>
  </g>
  <g id="ARC">
    <path class="cls-1" d="M756.19,424.19c1.13.65,2.06,1.59,2.71,2.71,2.05,3.55.83,8.08-2.71,10.13"/>
  </g>
  <g id="ELLIPSE-48" data-name="ELLIPSE">
    <path class="cls-1" d="M625.12,488.05c-2.05-1.18-5.37.73-7.41,4.28-2.05,3.55-2.05,7.38,0,8.56"/>
  </g>
  <g id="LINE-24" data-name="LINE">
    <line class="cls-1" x1="631.63" y1="491.81" x2="631.63" y2="494.32"/>
  </g>
  <g id="SPLINE-15" data-name="SPLINE">
    <path class="cls-1" d="M622.45,489.99s0,0,0-.01c-.02-.13,0-.28.08-.4s.19-.24.33-.32.33-.14.53-.17.42-.02.62,0,.4.07.59.13.36.14.5.22.27.18.36.27.14.2.16.3,0,.21-.08.31-.19.2-.33.28-.33.16-.53.21-.42.08-.62.09-.4,0-.59-.05-.36-.11-.5-.19-.27-.19-.36-.31-.14-.25-.16-.37Z"/>
  </g>
  <g id="ELLIPSE-49" data-name="ELLIPSE">
    <path class="cls-1" d="M645.56,500.89c2.05-1.18,2.05-5.01,0-8.56-2.05-3.55-5.37-5.46-7.41-4.28"/>
  </g>
  <g id="SPLINE-16" data-name="SPLINE">
    <path class="cls-1" d="M637.65,490c.02-.1.07-.2.16-.29s.22-.19.36-.27.31-.16.5-.22.4-.11.59-.13.42-.03.62,0,.38.09.53.17.26.2.33.32.09.27.08.4-.07.26-.16.39-.22.23-.36.31-.31.15-.5.19-.4.06-.59.05-.42-.04-.62-.09-.38-.13-.53-.21-.26-.18-.33-.28-.09-.21-.08-.31c0,0,0,0,0,0Z"/>
  </g>
  <g id="ELLIPSE-50" data-name="ELLIPSE">
    <path class="cls-1" d="M647.1,497.34c.07-3.13-2.1-7.03-4.85-8.7-.09-.05-.17-.1-.26-.15"/>
  </g>
  <g id="ELLIPSE-51" data-name="ELLIPSE">
    <path class="cls-1" d="M621.28,488.49c-2.75,1.5-5.04,5.33-5.11,8.55,0,.1,0,.2,0,.3"/>
  </g>
  <g id="ELLIPSE-52" data-name="ELLIPSE">
    <path class="cls-1" d="M638.23,490.7c-.32-.26-.31-.61.04-.86.43-.31,1.2-.35,1.73-.11s.61.69.19,1"/>
  </g>
  <g id="ELLIPSE-53" data-name="ELLIPSE">
    <path class="cls-1" d="M623.07,490.73c-.35-.25-.36-.6-.04-.86.4-.32,1.17-.39,1.72-.16s.68.67.28.99"/>
  </g>
  <g id="LINE-25" data-name="LINE">
    <line class="cls-1" x1="625.12" y1="488.05" x2="631.63" y2="491.81"/>
  </g>
  <g id="LINE-26" data-name="LINE">
    <line class="cls-1" x1="617.7" y1="500.89" x2="627.93" y2="506.79"/>
  </g>
  <g id="LINE-27" data-name="LINE">
    <line class="cls-1" x1="645.56" y1="500.89" x2="635.34" y2="506.79"/>
  </g>
  <g id="LINE-28" data-name="LINE">
    <line class="cls-1" x1="638.15" y1="488.05" x2="631.63" y2="491.81"/>
  </g>
  <g id="ARC-2" data-name="ARC">
    <path class="cls-1" d="M635.34,506.79c-2.29,1.32-5.12,1.32-7.41,0"/>
  </g>
  <g id="ELLIPSE-54" data-name="ELLIPSE">
    <path class="cls-1" d="M745.73,418.17c-1.92-1.39-5.23.29-7.4,3.76-2.08,3.33-2.36,7.12-.64,8.65"/>
  </g>
  <g id="ELLIPSE-55" data-name="ELLIPSE">
    <path class="cls-1" d="M592.39,329.63c-2.05-1.18-5.37.73-7.41,4.28-2.05,3.55-2.05,7.38,0,8.56"/>
  </g>
  <g id="LINE-29" data-name="LINE">
    <line class="cls-1" x1="592.39" y1="329.63" x2="745.52" y2="418.03"/>
  </g>
  <g id="LINE-30" data-name="LINE">
    <line class="cls-1" x1="584.98" y1="342.47" x2="737.64" y2="430.61"/>
  </g>
  <g id="ELLIPSE-56" data-name="ELLIPSE">
    <path class="cls-1" d="M624.89,487.93c-1.92-1.39-5.23.29-7.4,3.76s-2.37,7.41-.45,8.8c.14.1.29.19.45.26"/>
  </g>
  <g id="ELLIPSE-57" data-name="ELLIPSE">
    <path class="cls-1" d="M471.55,399.38c-2.05-1.18-5.37.73-7.41,4.28-2.05,3.55-2.05,7.38,0,8.56"/>
  </g>
  <g id="LINE-31" data-name="LINE">
    <line class="cls-1" x1="471.55" y1="399.38" x2="624.67" y2="487.79"/>
  </g>
  <g id="LINE-32" data-name="LINE">
    <line class="cls-1" x1="464.13" y1="412.23" x2="617.26" y2="500.63"/>
  </g>
  <g id="ELLIPSE-58" data-name="ELLIPSE">
    <path class="cls-1" d="M167.11,101.2c-.16-.07-.31-.16-.45-.26-1.92-1.39-1.72-5.33.45-8.8,2.17-3.47,5.48-5.15,7.4-3.76"/>
  </g>
  <g id="LINE-33" data-name="LINE">
    <line class="cls-1" x1="160.37" y1="97.32" x2="160.37" y2="82.7"/>
  </g>
  <g id="SPLINE-17" data-name="SPLINE">
    <path class="cls-1" d="M169.55,87.17s0,0,0,0c.02.1,0,.21-.08.31s-.19.2-.33.28-.33.16-.53.21-.42.08-.62.09-.4,0-.59-.05-.36-.11-.5-.19-.27-.19-.36-.31-.14-.26-.16-.39,0-.28.08-.4.19-.24.33-.32.33-.14.53-.17.42-.02.62,0,.4.07.59.13.36.14.5.22.27.18.36.27.14.2.16.29Z"/>
  </g>
  <g id="ELLIPSE-59" data-name="ELLIPSE">
    <path class="cls-1" d="M146.31,88.32c.08-.06.17-.11.26-.15,2.12-1.06,5.44.99,7.41,4.58,1.97,3.59,1.86,7.35-.26,8.4"/>
  </g>
  <g id="SPLINE-18" data-name="SPLINE">
    <path class="cls-1" d="M154.35,87.15c-.02.13-.07.26-.16.37s-.22.23-.36.31-.31.15-.5.19-.4.06-.59.05-.42-.04-.62-.09-.38-.13-.53-.21-.26-.18-.33-.28-.09-.21-.08-.31.07-.2.16-.3.22-.19.36-.27.31-.16.5-.22.4-.11.59-.13.42-.03.62,0,.38.09.53.17.26.2.33.32.09.27.08.4c0,0,0,0,0,.01Z"/>
  </g>
  <g id="ELLIPSE-60" data-name="ELLIPSE">
    <path class="cls-1" d="M150.01,88.84c.09.05.17.1.26.15,2.75,1.67,4.92,5.56,4.85,8.7"/>
  </g>
  <g id="ELLIPSE-61" data-name="ELLIPSE">
    <path class="cls-1" d="M166.03,99.6c-.56-1.15-.56-2.82,0-4.62,1.1-3.55,4.04-6.57,6.56-6.74"/>
  </g>
  <g id="ELLIPSE-62" data-name="ELLIPSE">
    <path class="cls-1" d="M151.77,87.86c-.32-.26-.31-.61.04-.86.43-.31,1.2-.35,1.73-.11s.61.69.19,1"/>
  </g>
  <g id="ELLIPSE-63" data-name="ELLIPSE">
    <path class="cls-1" d="M167.01,87.89c-.35-.25-.36-.6-.04-.86.4-.32,1.17-.39,1.72-.16s.68.67.28.99"/>
  </g>
  <g id="LINE-34" data-name="LINE">
    <line class="cls-1" x1="166.88" y1="101.08" x2="160.37" y2="97.32"/>
  </g>
  <g id="LINE-35" data-name="LINE">
    <line class="cls-1" x1="174.3" y1="88.24" x2="164.07" y2="82.33"/>
  </g>
  <g id="LINE-36" data-name="LINE">
    <line class="cls-1" x1="146.44" y1="88.24" x2="156.66" y2="82.33"/>
  </g>
  <g id="LINE-37" data-name="LINE">
    <line class="cls-1" x1="153.85" y1="101.08" x2="160.37" y2="97.32"/>
  </g>
  <g id="ARC-3" data-name="ARC">
    <path class="cls-1" d="M156.66,82.33c2.29-1.32,5.12-1.32,7.41,0"/>
  </g>
  <g id="ELLIPSE-64" data-name="ELLIPSE">
    <path class="cls-1" d="M53.67,158.14c-1.92-1.39-5.23.29-7.4,3.76-2.17,3.47-2.37,7.41-.45,8.8.14.1.29.19.45.26"/>
  </g>
  <g id="ELLIPSE-65" data-name="ELLIPSE">
    <path class="cls-1" d="M39.52,152.46c2.78,0,5.45.64,7.41,1.77"/>
  </g>
  <g id="SPLINE-19" data-name="SPLINE">
    <path class="cls-1" d="M47.13,157.83s.01,0,.02,0c.2,0,.42-.04.62-.09s.38-.13.53-.21.26-.18.33-.28.09-.21.08-.31-.07-.2-.16-.3-.22-.19-.36-.27-.31-.16-.5-.22-.4-.11-.59-.13-.42-.03-.62,0-.38.09-.53.17-.26.2-.33.32-.09.27-.08.4.07.26.16.39.22.23.36.31.31.15.5.19.39.06.58.05Z"/>
  </g>
  <g id="ELLIPSE-66" data-name="ELLIPSE">
    <path class="cls-1" d="M46.04,146.19c1.74-1,4.45.22,6.52,2.93,2.44,3.2,3.17,7.36,1.61,9.29"/>
  </g>
  <g id="SPLINE-20" data-name="SPLINE">
    <path class="cls-1" d="M47.11,149.05c.19,0,.39-.01.58-.05s.36-.11.5-.19.27-.19.36-.31.14-.26.16-.39,0-.28-.08-.4-.19-.24-.33-.32-.33-.14-.53-.17-.42-.02-.62,0-.4.07-.59.13-.36.14-.5.22-.27.18-.36.27-.14.2-.16.3,0,.21.08.31.19.2.33.28.33.16.53.21.42.08.62.09c0,0,.01,0,.02,0Z"/>
  </g>
  <g id="ELLIPSE-67" data-name="ELLIPSE">
    <path class="cls-1" d="M49.88,146.64c.09.05.17.1.26.15,2.75,1.67,4.92,5.56,4.85,8.7"/>
  </g>
  <g id="ELLIPSE-68" data-name="ELLIPSE">
    <path class="cls-1" d="M51.74,158c-2.52.18-5.46,3.2-6.56,6.74-.56,1.79-.56,3.47,0,4.62"/>
  </g>
  <g id="ELLIPSE-69" data-name="ELLIPSE">
    <path class="cls-1" d="M48.08,148.87c.43-.31.34-.75-.19-1s-1.31-.2-1.73.11c-.35.25-.36.6-.04.86"/>
  </g>
  <g id="ELLIPSE-70" data-name="ELLIPSE">
    <path class="cls-1" d="M48.12,157.62c.4-.32.27-.76-.28-.99s-1.32-.16-1.72.16c-.32.26-.31.61.04.86"/>
  </g>
  <g id="LINE-38" data-name="LINE">
    <line class="cls-1" x1="46.93" y1="154.23" x2="53.45" y2="158"/>
  </g>
  <g id="LINE-39" data-name="LINE">
    <line class="cls-1" x1="35.81" y1="164.93" x2="46.04" y2="170.84"/>
  </g>
  <g id="LINE-40" data-name="LINE">
    <line class="cls-1" x1="35.81" y1="152.09" x2="46.04" y2="146.19"/>
  </g>
  <g id="ARC-4" data-name="ARC">
    <path class="cls-1" d="M35.81,164.93c-1.13-.65-2.06-1.59-2.71-2.71-2.05-3.55-.83-8.08,2.71-10.13"/>
  </g>
  <g id="ELLIPSE-71" data-name="ELLIPSE">
    <path class="cls-1" d="M174.74,88.5c-2.05-1.18-5.37.73-7.41,4.28-2.05,3.55-2.05,7.38,0,8.56"/>
  </g>
  <g id="ELLIPSE-72" data-name="ELLIPSE">
    <path class="cls-1" d="M327.99,176.98c-1.97-1.31-5.29.47-7.41,3.97-1.93,3.2-2.22,6.78-.68,8.36"/>
  </g>
  <g id="LINE-41" data-name="LINE">
    <line class="cls-1" x1="174.74" y1="88.5" x2="327.87" y2="176.9"/>
  </g>
  <g id="LINE-42" data-name="LINE">
    <line class="cls-1" x1="167.33" y1="101.34" x2="319.81" y2="189.37"/>
  </g>
  <g id="ELLIPSE-73" data-name="ELLIPSE">
    <path class="cls-1" d="M53.9,158.25c-2.05-1.18-5.37.73-7.41,4.28-2.05,3.55-2.05,7.38,0,8.56"/>
  </g>
  <g id="ELLIPSE-74" data-name="ELLIPSE">
    <path class="cls-1" d="M207.15,246.74c-1.97-1.31-5.29.47-7.41,3.97-2.12,3.5-2.24,7.4-.26,8.71.08.06.17.11.26.15"/>
  </g>
  <g id="LINE-43" data-name="LINE">
    <line class="cls-1" x1="53.9" y1="158.25" x2="207.02" y2="246.66"/>
  </g>
  <g id="LINE-44" data-name="LINE">
    <line class="cls-1" x1="46.48" y1="171.09" x2="199.61" y2="259.5"/>
  </g>
  <g id="ELLIPSE-75" data-name="ELLIPSE">
    <path class="cls-1" d="M341.43,201.85c-2.05-1.18-2.05-5.01,0-8.56,2.05-3.55,5.37-5.46,7.41-4.28"/>
  </g>
  <g id="ELLIPSE-76" data-name="ELLIPSE">
    <path class="cls-1" d="M571.55,317.6c-1.97-1.31-5.29.47-7.41,3.97-1.93,3.2-2.22,6.78-.68,8.36"/>
  </g>
  <g id="LINE-45" data-name="LINE">
    <line class="cls-1" x1="348.84" y1="189.01" x2="571.42" y2="317.52"/>
  </g>
  <g id="LINE-46" data-name="LINE">
    <line class="cls-1" x1="341.43" y1="201.85" x2="563.37" y2="329.99"/>
  </g>
  <g id="ELLIPSE-77" data-name="ELLIPSE">
    <path class="cls-1" d="M220.58,271.61c-2.05-1.18-2.05-5.01,0-8.56,2.05-3.55,5.37-5.46,7.41-4.28"/>
  </g>
  <g id="ELLIPSE-78" data-name="ELLIPSE">
    <path class="cls-1" d="M450.7,387.36c-1.97-1.31-5.29.47-7.41,3.97-2.12,3.5-2.24,7.4-.26,8.71.08.06.17.11.26.15"/>
  </g>
  <g id="LINE-47" data-name="LINE">
    <line class="cls-1" x1="227.99" y1="258.77" x2="450.57" y2="387.28"/>
  </g>
  <g id="LINE-48" data-name="LINE">
    <line class="cls-1" x1="220.58" y1="271.61" x2="443.16" y2="400.12"/>
  </g>
  <g id="ELLIPSE-79" data-name="ELLIPSE">
    <path class="cls-1" d="M320.45,189.01c2.05-1.18,5.37.73,7.41,4.28,2.05,3.55,2.05,7.38,0,8.56"/>
  </g>
  <g id="ELLIPSE-80" data-name="ELLIPSE">
    <path class="cls-1" d="M228.54,259.08c1.7-1.73,1.17-5.82-1.17-9.13-2.13-3.01-5.07-4.39-6.87-3.23"/>
  </g>
  <g id="LINE-49" data-name="LINE">
    <line class="cls-1" x1="327.86" y1="201.85" x2="322.15" y2="205.15"/>
  </g>
  <g id="LINE-50" data-name="LINE">
    <line class="cls-1" x1="302.31" y1="216.6" x2="265.04" y2="238.12"/>
  </g>
  <g id="LINE-51" data-name="LINE">
    <line class="cls-1" x1="244.6" y1="249.92" x2="228.63" y2="259.14"/>
  </g>
  <g id="LINE-52" data-name="LINE">
    <line class="cls-1" x1="320.45" y1="189.01" x2="296.96" y2="202.57"/>
  </g>
  <g id="LINE-53" data-name="LINE">
    <line class="cls-1" x1="288.01" y1="207.73" x2="250.36" y2="229.47"/>
  </g>
  <g id="LINE-54" data-name="LINE">
    <line class="cls-1" x1="241.41" y1="234.64" x2="220.58" y2="246.66"/>
  </g>
  <g id="ELLIPSE-81" data-name="ELLIPSE">
    <path class="cls-1" d="M564,329.62c2.05-1.18,5.37.73,7.41,4.28,2.05,3.55,2.05,7.38,0,8.56"/>
  </g>
  <g id="ELLIPSE-82" data-name="ELLIPSE">
    <path class="cls-1" d="M472.09,399.7c1.7-1.73,1.17-5.82-1.17-9.13-2.13-3.01-5.07-4.39-6.87-3.23"/>
  </g>
  <g id="LINE-55" data-name="LINE">
    <line class="cls-1" x1="571.42" y1="342.46" x2="547.93" y2="356.02"/>
  </g>
  <g id="LINE-56" data-name="LINE">
    <line class="cls-1" x1="539" y1="361.18" x2="501.33" y2="382.93"/>
  </g>
  <g id="LINE-57" data-name="LINE">
    <line class="cls-1" x1="492.4" y1="388.08" x2="472.19" y2="399.75"/>
  </g>
  <g id="LINE-58" data-name="LINE">
    <line class="cls-1" x1="564" y1="329.62" x2="540.51" y2="343.18"/>
  </g>
  <g id="LINE-59" data-name="LINE">
    <line class="cls-1" x1="531.54" y1="348.36" x2="493.91" y2="370.09"/>
  </g>
  <g id="LINE-60" data-name="LINE">
    <line class="cls-1" x1="484.94" y1="375.27" x2="464.14" y2="387.28"/>
  </g>
  <g id="ELLIPSE-83" data-name="ELLIPSE">
    <path class="cls-1" d="M738.28,430.24c2.05-1.18,5.37.73,7.41,4.28s2.05,7.38,0,8.56"/>
  </g>
  <g id="ELLIPSE-84" data-name="ELLIPSE">
    <path class="cls-1" d="M645.69,500.81c2.12-1.06,2.24-4.82.26-8.4-1.97-3.59-5.29-5.64-7.41-4.58-.09.05-.18.1-.26.15"/>
  </g>
  <g id="LINE-61" data-name="LINE">
    <line class="cls-1" x1="745.69" y1="443.08" x2="722.19" y2="456.65"/>
  </g>
  <g id="LINE-62" data-name="LINE">
    <line class="cls-1" x1="713.22" y1="461.83" x2="675.59" y2="483.55"/>
  </g>
  <g id="LINE-63" data-name="LINE">
    <line class="cls-1" x1="666.62" y1="488.73" x2="645.83" y2="500.74"/>
  </g>
  <g id="LINE-64" data-name="LINE">
    <line class="cls-1" x1="738.28" y1="430.24" x2="714.79" y2="443.8"/>
  </g>
  <g id="LINE-65" data-name="LINE">
    <line class="cls-1" x1="705.86" y1="448.96" x2="668.19" y2="470.71"/>
  </g>
  <g id="LINE-66" data-name="LINE">
    <line class="cls-1" x1="659.25" y1="475.86" x2="638.41" y2="487.9"/>
  </g>
  <g id="ELLIPSE-85" data-name="ELLIPSE">
    <path class="cls-1" d="M146.17,88.39c2.05-1.18,5.37.73,7.41,4.28,2.05,3.55,2.05,7.38,0,8.56"/>
  </g>
  <g id="ELLIPSE-86" data-name="ELLIPSE">
    <path class="cls-1" d="M54.26,158.47c1.7-1.73,1.17-5.82-1.17-9.13-2.11-2.98-5.03-4.37-6.84-3.25"/>
  </g>
  <g id="LINE-67" data-name="LINE">
    <line class="cls-1" x1="153.59" y1="101.23" x2="147.88" y2="104.52"/>
  </g>
  <g id="LINE-68" data-name="LINE">
    <line class="cls-1" x1="128.03" y1="115.99" x2="90.77" y2="137.5"/>
  </g>
  <g id="LINE-69" data-name="LINE">
    <line class="cls-1" x1="70.33" y1="149.3" x2="54.36" y2="158.52"/>
  </g>
  <g id="LINE-70" data-name="LINE">
    <line class="cls-1" x1="146.17" y1="88.39" x2="122.68" y2="101.95"/>
  </g>
  <g id="LINE-71" data-name="LINE">
    <line class="cls-1" x1="113.7" y1="107.14" x2="76.08" y2="128.86"/>
  </g>
  <g id="LINE-72" data-name="LINE">
    <line class="cls-1" x1="67.1" y1="134.04" x2="46.31" y2="146.04"/>
  </g>
  <g id="ELLIPSE-87" data-name="ELLIPSE">
    <path class="cls-1" d="M466.43,385.96c-1.04-.11-2.08-.43-3.05-.94-3.31-1.75-4.92-5.22-3.58-7.77"/>
  </g>
  <g id="LINE-73" data-name="LINE">
    <line class="cls-1" x1="459.8" y1="377.25" x2="459.52" y2="377.78"/>
  </g>
  <g id="ELLIPSE-88" data-name="ELLIPSE">
    <path class="cls-1" d="M491.31,389.21c-.1-.23-.07-.44.07-.48"/>
  </g>
  <g id="LINE-74" data-name="LINE">
    <line class="cls-1" x1="491.31" y1="389.21" x2="491.7" y2="390.06"/>
  </g>
  <g id="ELLIPSE-89" data-name="ELLIPSE">
    <path class="cls-1" d="M490.05,370.05c2.59-1.5,6.8.93,9.39,5.42,2.59,4.49,2.59,9.34,0,10.84"/>
  </g>
  <g id="ELLIPSE-90" data-name="ELLIPSE">
    <path class="cls-1" d="M492.18,390.42s0,0-.01,0c-.15.03-.36-.13-.46-.36"/>
  </g>
  <g id="ARC-5" data-name="ARC">
    <path class="cls-1" d="M485.4,372.73c.89-.49,1.77-1,2.65-1.53"/>
  </g>
  <g id="ELLIPSE-91" data-name="ELLIPSE">
    <path class="cls-1" d="M492.18,390.42c2.89-.94,3.4-5.46,1.14-10.1-2.26-4.64-6.43-7.64-9.32-6.7-1.38.45-2.28,1.76-2.5,3.63"/>
  </g>
  <g id="ELLIPSE-92" data-name="ELLIPSE">
    <path class="cls-1" d="M483.81,375.92c.28-.28.61-.48.98-.61,2.3-.78,5.64,1.6,7.46,5.3,1.82,3.7,1.43,7.34-.86,8.11"/>
  </g>
  <g id="ELLIPSE-93" data-name="ELLIPSE">
    <path class="cls-1" d="M479.86,372.78c-.38-.43.55-1.88,2.07-3.25,1.53-1.37,3.08-2.13,3.46-1.71"/>
  </g>
  <g id="LINE-75" data-name="LINE">
    <line class="cls-1" x1="491.35" y1="388.74" x2="492.26" y2="388.22"/>
  </g>
  <g id="LINE-76" data-name="LINE">
    <line class="cls-1" x1="499.44" y1="386.31" x2="492.78" y2="390.15"/>
  </g>
  <g id="LINE-77" data-name="LINE">
    <line class="cls-1" x1="490.05" y1="370.05" x2="488.04" y2="371.2"/>
  </g>
  <g id="LINE-78" data-name="LINE">
    <line class="cls-1" x1="485.4" y1="372.73" x2="483.39" y2="373.89"/>
  </g>
  <g id="LINE-79" data-name="LINE">
    <line class="cls-1" x1="482.09" y1="375.27" x2="479.86" y2="372.78"/>
  </g>
  <g id="LINE-80" data-name="LINE">
    <line class="cls-1" x1="488.3" y1="371.06" x2="485.4" y2="367.82"/>
  </g>
  <g id="ELLIPSE-94" data-name="ELLIPSE">
    <path class="cls-1" d="M471.94,364.94c-3.55-1.02-6.77.51-7.2,3.43-.43,2.91,2.11,6.1,5.66,7.12,3.55,1.02,6.77-.51,7.2-3.43.02-.13.03-.26.04-.4"/>
  </g>
  <g id="ELLIPSE-95" data-name="ELLIPSE">
    <path class="cls-1" d="M473.67,371.8c.43-1.19-.44-2.67-1.94-3.31-1.28-.55-2.65-.32-3.28.56"/>
  </g>
  <g id="ELLIPSE-96" data-name="ELLIPSE">
    <ellipse class="cls-1" cx="471.17" cy="370.21" rx="2.28" ry="2.97" transform="translate(-75.94 614.61) rotate(-62.23)"/>
  </g>
  <g id="LINE-81" data-name="LINE">
    <line class="cls-1" x1="476.05" y1="375.51" x2="480.17" y2="373.13"/>
  </g>
  <g id="ELLIPSE-97" data-name="ELLIPSE">
    <path class="cls-1" d="M485.33,367.76c-.24-.2-.84-.06-1.63.4"/>
  </g>
  <g id="LINE-82" data-name="LINE">
    <line class="cls-1" x1="483.71" y1="368.16" x2="477.64" y2="371.66"/>
  </g>
  <g id="LINE-83" data-name="LINE">
    <line class="cls-1" x1="477.79" y1="361.56" x2="471.94" y2="364.94"/>
  </g>
  <g id="ELLIPSE-98" data-name="ELLIPSE">
    <path class="cls-1" d="M477.79,361.56c.82-.48,1.44-.61,1.65-.37"/>
  </g>
  <g id="LINE-84" data-name="LINE">
    <line class="cls-1" x1="477.17" y1="373.37" x2="472.35" y2="382.54"/>
  </g>
  <g id="LINE-85" data-name="LINE">
    <line class="cls-1" x1="465.17" y1="367.05" x2="459.8" y2="377.25"/>
  </g>
  <g id="LINE-86" data-name="LINE">
    <line class="cls-1" x1="479.45" y1="361.19" x2="485.34" y2="367.77"/>
  </g>
  <g id="ELLIPSE-99" data-name="ELLIPSE">
    <path class="cls-1" d="M525.4,344.67c.48.83,1.16,1.58,1.97,2.22"/>
  </g>
  <g id="ELLIPSE-100" data-name="ELLIPSE">
    <path class="cls-1" d="M537.98,361.82c-.14.05-.17.26-.07.48"/>
  </g>
  <g id="LINE-87" data-name="LINE">
    <line class="cls-1" x1="538.3" y1="363.16" x2="537.92" y2="362.31"/>
  </g>
  <g id="ELLIPSE-101" data-name="ELLIPSE">
    <path class="cls-1" d="M538.3,363.16c.11.23.31.4.46.36,0,0,0,0,.01,0"/>
  </g>
  <g id="ELLIPSE-102" data-name="ELLIPSE">
    <path class="cls-1" d="M528.1,350.35c.22-1.88,1.12-3.19,2.5-3.63,2.89-.94,7.06,2.06,9.32,6.7,2.26,4.64,1.75,9.16-1.14,10.1"/>
  </g>
  <g id="ELLIPSE-103" data-name="ELLIPSE">
    <path class="cls-1" d="M537.98,361.82c2.3-.78,2.69-4.41.86-8.11-1.82-3.7-5.16-6.08-7.46-5.3-.37.12-.7.33-.98.61"/>
  </g>
  <g id="ARC-6" data-name="ARC">
    <path class="cls-1" d="M532,345.82c.89-.49,1.77-1,2.65-1.53"/>
  </g>
  <g id="ELLIPSE-104" data-name="ELLIPSE">
    <path class="cls-1" d="M546.04,359.4c2.59-1.5,2.59-6.35,0-10.84-2.59-4.49-6.8-6.92-9.39-5.42"/>
  </g>
  <g id="ELLIPSE-105" data-name="ELLIPSE">
    <path class="cls-1" d="M532,340.91c-.38-.43-1.93.34-3.46,1.71s-2.46,2.83-2.07,3.25"/>
  </g>
  <g id="LINE-88" data-name="LINE">
    <line class="cls-1" x1="537.95" y1="361.84" x2="538.86" y2="361.31"/>
  </g>
  <g id="LINE-89" data-name="LINE">
    <line class="cls-1" x1="546.04" y1="359.4" x2="539.38" y2="363.25"/>
  </g>
  <g id="LINE-90" data-name="LINE">
    <line class="cls-1" x1="536.65" y1="343.14" x2="534.64" y2="344.3"/>
  </g>
  <g id="LINE-91" data-name="LINE">
    <line class="cls-1" x1="532" y1="345.83" x2="529.99" y2="346.98"/>
  </g>
  <g id="LINE-92" data-name="LINE">
    <line class="cls-1" x1="532" y1="340.91" x2="534.9" y2="344.15"/>
  </g>
  <g id="LINE-93" data-name="LINE">
    <line class="cls-1" x1="526.46" y1="345.87" x2="528.69" y2="348.36"/>
  </g>
  <g id="ELLIPSE-106" data-name="ELLIPSE">
    <path class="cls-1" d="M530.25,331.28c0-.14,0-.27,0-.4.19-2.97,3.24-4.71,6.81-3.89,3.57.83,6.31,3.9,6.12,6.88-.19,2.97-3.24,4.71-6.81,3.89"/>
  </g>
  <g id="LINE-94" data-name="LINE">
    <line class="cls-1" x1="536.37" y1="337.75" x2="534.16" y2="341.96"/>
  </g>
  <g id="ELLIPSE-107" data-name="ELLIPSE">
    <path class="cls-1" d="M534,331.2c.63-.88,1.99-1.11,3.28-.56,1.5.64,2.37,2.12,1.94,3.31"/>
  </g>
  <g id="ELLIPSE-108" data-name="ELLIPSE">
    <ellipse class="cls-1" cx="536.72" cy="332.37" rx="2.28" ry="2.97" transform="translate(-7.45 652.39) rotate(-62.23)"/>
  </g>
  <g id="LINE-95" data-name="LINE">
    <line class="cls-1" x1="530.31" y1="341.25" x2="536.37" y2="337.75"/>
  </g>
  <g id="ELLIPSE-109" data-name="ELLIPSE">
    <path class="cls-1" d="M526.42,345.8c-.12-.18-.06-.5.16-.93.61-1.16,2.28-2.78,3.73-3.62"/>
  </g>
  <g id="LINE-96" data-name="LINE">
    <line class="cls-1" x1="534.16" y1="341.96" x2="533.35" y2="342.42"/>
  </g>
  <g id="ELLIPSE-110" data-name="ELLIPSE">
    <path class="cls-1" d="M524.4,334.66c-1.45.84-3.12,2.46-3.73,3.62-.24.46-.29.79-.14.96"/>
  </g>
  <g id="LINE-97" data-name="LINE">
    <line class="cls-1" x1="524.4" y1="334.66" x2="530.25" y2="331.28"/>
  </g>
  <g id="LINE-98" data-name="LINE">
    <line class="cls-1" x1="529.36" y1="331.79" x2="530.72" y2="329.21"/>
  </g>
  <g id="LINE-99" data-name="LINE">
    <line class="cls-1" x1="538.93" y1="342.74" x2="542.72" y2="335.53"/>
  </g>
  <g id="LINE-100" data-name="LINE">
    <line class="cls-1" x1="526.42" y1="345.81" x2="520.53" y2="339.23"/>
  </g>
  <g id="ELLIPSE-111" data-name="ELLIPSE">
    <path class="cls-1" d="M712.24,462.43c-.14.05-.17.26-.07.48"/>
  </g>
  <g id="LINE-101" data-name="LINE">
    <line class="cls-1" x1="712.56" y1="463.77" x2="712.18" y2="462.92"/>
  </g>
  <g id="ELLIPSE-112" data-name="ELLIPSE">
    <path class="cls-1" d="M712.56,463.77c.11.23.31.4.46.36,0,0,0,0,.01,0"/>
  </g>
  <g id="ELLIPSE-113" data-name="ELLIPSE">
    <path class="cls-1" d="M702.36,450.98c.22-1.89,1.11-3.2,2.5-3.65,2.89-.94,7.06,2.06,9.32,6.7s1.75,9.16-1.14,10.1"/>
  </g>
  <g id="ELLIPSE-114" data-name="ELLIPSE">
    <path class="cls-1" d="M712.24,462.43c2.3-.78,2.69-4.41.86-8.11-1.82-3.7-5.16-6.08-7.46-5.3-.39.13-.73.35-1.02.65"/>
  </g>
  <g id="ARC-7" data-name="ARC">
    <path class="cls-1" d="M706.26,446.43c.89-.49,1.77-1,2.65-1.53"/>
  </g>
  <g id="ELLIPSE-115" data-name="ELLIPSE">
    <path class="cls-1" d="M720.3,460.01c2.59-1.5,2.59-6.35,0-10.84-2.59-4.49-6.8-6.92-9.39-5.42"/>
  </g>
  <g id="ELLIPSE-116" data-name="ELLIPSE">
    <path class="cls-1" d="M706.26,441.52c-.38-.43-1.93.34-3.46,1.71-1.53,1.37-2.46,2.83-2.07,3.25"/>
  </g>
  <g id="LINE-102" data-name="LINE">
    <line class="cls-1" x1="712.21" y1="462.44" x2="713.12" y2="461.92"/>
  </g>
  <g id="LINE-103" data-name="LINE">
    <line class="cls-1" x1="720.3" y1="460.01" x2="713.64" y2="463.86"/>
  </g>
  <g id="LINE-104" data-name="LINE">
    <line class="cls-1" x1="710.91" y1="443.75" x2="708.9" y2="444.91"/>
  </g>
  <g id="LINE-105" data-name="LINE">
    <line class="cls-1" x1="706.26" y1="446.44" x2="704.25" y2="447.59"/>
  </g>
  <g id="LINE-106" data-name="LINE">
    <line class="cls-1" x1="706.26" y1="441.52" x2="709.16" y2="444.76"/>
  </g>
  <g id="LINE-107" data-name="LINE">
    <line class="cls-1" x1="700.72" y1="446.48" x2="702.95" y2="448.97"/>
  </g>
  <g id="ELLIPSE-117" data-name="ELLIPSE">
    <path class="cls-1" d="M704.51,431.89c0-.14,0-.27,0-.4.19-2.97,3.24-4.71,6.81-3.89s6.31,3.9,6.12,6.88c-.19,2.97-3.24,4.71-6.81,3.89"/>
  </g>
  <g id="LINE-108" data-name="LINE">
    <line class="cls-1" x1="710.63" y1="438.36" x2="708.42" y2="442.57"/>
  </g>
  <g id="ELLIPSE-118" data-name="ELLIPSE">
    <path class="cls-1" d="M708.26,431.81c.63-.88,1.99-1.11,3.28-.56,1.5.64,2.37,2.12,1.94,3.31"/>
  </g>
  <g id="ELLIPSE-119" data-name="ELLIPSE">
    <ellipse class="cls-1" cx="710.98" cy="432.98" rx="2.28" ry="2.97" transform="translate(-3.41 860.31) rotate(-62.23)"/>
  </g>
  <g id="LINE-109" data-name="LINE">
    <line class="cls-1" x1="704.57" y1="441.86" x2="710.63" y2="438.36"/>
  </g>
  <g id="ELLIPSE-120" data-name="ELLIPSE">
    <path class="cls-1" d="M700.68,446.41c-.12-.18-.06-.5.16-.93.61-1.16,2.28-2.78,3.73-3.62"/>
  </g>
  <g id="LINE-110" data-name="LINE">
    <line class="cls-1" x1="708.42" y1="442.57" x2="707.61" y2="443.03"/>
  </g>
  <g id="ELLIPSE-121" data-name="ELLIPSE">
    <path class="cls-1" d="M698.66,435.27c-1.45.84-3.12,2.46-3.73,3.62-.24.46-.29.79-.14.96"/>
  </g>
  <g id="LINE-111" data-name="LINE">
    <line class="cls-1" x1="698.66" y1="435.27" x2="704.51" y2="431.89"/>
  </g>
  <g id="LINE-112" data-name="LINE">
    <line class="cls-1" x1="703.62" y1="432.4" x2="704.98" y2="429.82"/>
  </g>
  <g id="LINE-113" data-name="LINE">
    <line class="cls-1" x1="713.19" y1="443.35" x2="716.98" y2="436.14"/>
  </g>
  <g id="LINE-114" data-name="LINE">
    <line class="cls-1" x1="700.68" y1="446.42" x2="694.79" y2="439.84"/>
  </g>
  <g id="ELLIPSE-122" data-name="ELLIPSE">
    <path class="cls-1" d="M699.66,445.27c.48.83,1.16,1.58,1.97,2.22"/>
  </g>
  <g id="ELLIPSE-123" data-name="ELLIPSE">
    <path class="cls-1" d="M665.57,489.82c-.1-.23-.07-.44.07-.48"/>
  </g>
  <g id="LINE-115" data-name="LINE">
    <line class="cls-1" x1="665.57" y1="489.82" x2="665.96" y2="490.67"/>
  </g>
  <g id="ELLIPSE-124" data-name="ELLIPSE">
    <path class="cls-1" d="M664.31,470.66c2.59-1.5,6.8.93,9.39,5.42,2.59,4.49,2.59,9.34,0,10.84"/>
  </g>
  <g id="ELLIPSE-125" data-name="ELLIPSE">
    <path class="cls-1" d="M666.44,491.03s0,0-.01,0c-.15.03-.36-.13-.46-.36"/>
  </g>
  <g id="ARC-8" data-name="ARC">
    <path class="cls-1" d="M659.66,473.34c.89-.49,1.77-1,2.65-1.53"/>
  </g>
  <g id="ELLIPSE-126" data-name="ELLIPSE">
    <path class="cls-1" d="M666.44,491.03c2.89-.94,3.4-5.46,1.14-10.1-2.26-4.64-6.43-7.64-9.32-6.7-1.38.45-2.28,1.76-2.5,3.65"/>
  </g>
  <g id="ELLIPSE-127" data-name="ELLIPSE">
    <path class="cls-1" d="M658.03,476.57c.29-.3.63-.52,1.02-.65,2.3-.78,5.64,1.6,7.46,5.3,1.82,3.7,1.43,7.34-.86,8.11"/>
  </g>
  <g id="ELLIPSE-128" data-name="ELLIPSE">
    <path class="cls-1" d="M654.12,473.39c-.38-.43.55-1.88,2.07-3.25s3.08-2.13,3.46-1.71"/>
  </g>
  <g id="LINE-116" data-name="LINE">
    <line class="cls-1" x1="665.61" y1="489.35" x2="666.52" y2="488.83"/>
  </g>
  <g id="LINE-117" data-name="LINE">
    <line class="cls-1" x1="673.7" y1="486.92" x2="667.04" y2="490.76"/>
  </g>
  <g id="LINE-118" data-name="LINE">
    <line class="cls-1" x1="664.31" y1="470.66" x2="662.3" y2="471.81"/>
  </g>
  <g id="LINE-119" data-name="LINE">
    <line class="cls-1" x1="659.66" y1="473.34" x2="657.65" y2="474.5"/>
  </g>
  <g id="LINE-120" data-name="LINE">
    <line class="cls-1" x1="656.35" y1="475.87" x2="654.12" y2="473.39"/>
  </g>
  <g id="LINE-121" data-name="LINE">
    <line class="cls-1" x1="662.56" y1="471.67" x2="659.66" y2="468.43"/>
  </g>
  <g id="ELLIPSE-129" data-name="ELLIPSE">
    <path class="cls-1" d="M640.71,486.57c-1.05-.11-2.1-.43-3.08-.94-3.31-1.75-4.92-5.22-3.58-7.77"/>
  </g>
  <g id="ELLIPSE-130" data-name="ELLIPSE">
    <path class="cls-1" d="M646.2,465.55c-3.55-1.02-6.77.51-7.2,3.43-.43,2.91,2.11,6.1,5.66,7.12s6.77-.51,7.2-3.43c.02-.13.03-.26.04-.4"/>
  </g>
  <g id="ELLIPSE-131" data-name="ELLIPSE">
    <path class="cls-1" d="M647.93,472.41c.43-1.19-.44-2.67-1.94-3.31-1.28-.55-2.65-.32-3.28.56"/>
  </g>
  <g id="ELLIPSE-132" data-name="ELLIPSE">
    <ellipse class="cls-1" cx="645.43" cy="470.82" rx="2.28" ry="2.97" transform="translate(-71.9 822.52) rotate(-62.23)"/>
  </g>
  <g id="LINE-122" data-name="LINE">
    <line class="cls-1" x1="650.31" y1="476.12" x2="654.43" y2="473.74"/>
  </g>
  <g id="ELLIPSE-133" data-name="ELLIPSE">
    <path class="cls-1" d="M659.59,468.37c-.24-.2-.84-.06-1.63.4"/>
  </g>
  <g id="LINE-123" data-name="LINE">
    <line class="cls-1" x1="657.97" y1="468.77" x2="651.9" y2="472.27"/>
  </g>
  <g id="LINE-124" data-name="LINE">
    <line class="cls-1" x1="652.05" y1="462.17" x2="646.2" y2="465.55"/>
  </g>
  <g id="ELLIPSE-134" data-name="ELLIPSE">
    <path class="cls-1" d="M652.05,462.17c.82-.48,1.44-.61,1.65-.37"/>
  </g>
  <g id="LINE-125" data-name="LINE">
    <line class="cls-1" x1="651.43" y1="473.98" x2="646.59" y2="483.17"/>
  </g>
  <g id="LINE-126" data-name="LINE">
    <line class="cls-1" x1="639.43" y1="467.66" x2="634.06" y2="477.86"/>
  </g>
  <g id="LINE-127" data-name="LINE">
    <line class="cls-1" x1="653.71" y1="461.8" x2="659.6" y2="468.38"/>
  </g>
  <g id="ELLIPSE-135" data-name="ELLIPSE">
    <path class="cls-1" d="M639.92,487.03c-.88-.15-1.75-.44-2.56-.87-3.31-1.75-4.92-5.22-3.58-7.77"/>
  </g>
  <g id="ELLIPSE-136" data-name="ELLIPSE">
    <path class="cls-1" d="M640.71,486.57c-1.05-.11-2.1-.43-3.08-.94-3.31-1.75-4.92-5.22-3.58-7.77"/>
  </g>
  <g id="LINE-128" data-name="LINE">
    <line class="cls-1" x1="634.06" y1="477.86" x2="633.78" y2="478.39"/>
  </g>
  <g id="ELLIPSE-137" data-name="ELLIPSE">
    <path class="cls-1" d="M248.35,261.39c.33.99,3.48.86,7.04-.31,3.56-1.17,6.18-2.92,5.86-3.91"/>
  </g>
  <g id="LINE-129" data-name="LINE">
    <line class="cls-1" x1="248.35" y1="261.39" x2="248.07" y2="260.54"/>
  </g>
  <g id="LINE-130" data-name="LINE">
    <line class="cls-1" x1="261.24" y1="257.17" x2="260.97" y2="256.32"/>
  </g>
  <g id="ELLIPSE-138" data-name="ELLIPSE">
    <path class="cls-1" d="M261.79,238.76c.38-.29.85-.27,1.21.05.52.46.64,1.38.28,2.06s-1.07.86-1.59.41"/>
  </g>
  <g id="LINE-131" data-name="LINE">
    <line class="cls-1" x1="262.28" y1="241.52" x2="261.93" y2="241.51"/>
  </g>
  <g id="LINE-132" data-name="LINE">
    <line class="cls-1" x1="262.4" y1="238.56" x2="262.05" y2="238.55"/>
  </g>
  <g id="ELLIPSE-139" data-name="ELLIPSE">
    <path class="cls-1" d="M256.52,236.1c-2.17-4.66-6.33-7.79-9.28-6.99-.27.07-.52.18-.76.31"/>
  </g>
  <g id="SPLINE-21" data-name="SPLINE">
    <path class="cls-1" d="M253.62,235.98c-.06,0-.12,0-.18,0-.43.01-.84.13-1.17.32s-.63.49-.85.85-.36.79-.43,1.23c-.04.23-.06.48-.07.74"/>
  </g>
  <g id="ELLIPSE-140" data-name="ELLIPSE">
    <path class="cls-1" d="M237.93,236.65c.22-1.91,1.14-3.23,2.54-3.66,2.91-.9,7.08,2.14,9.31,6.79"/>
  </g>
  <g id="ELLIPSE-141" data-name="ELLIPSE">
    <path class="cls-1" d="M248.76,240.16c-1.76-3.72-5.09-6.18-7.43-5.5-.42.12-.8.35-1.11.67"/>
  </g>
  <g id="ELLIPSE-142" data-name="ELLIPSE">
    <path class="cls-1" d="M255.22,236.64c.54-.41,1.16-.59,1.77-.51"/>
  </g>
  <g id="LINE-133" data-name="LINE">
    <line class="cls-1" x1="239.83" y1="233.27" x2="246.48" y2="229.42"/>
  </g>
  <g id="LINE-134" data-name="LINE">
    <line class="cls-1" x1="256.78" y1="236.11" x2="253.62" y2="235.98"/>
  </g>
  <g id="LINE-135" data-name="LINE">
    <line class="cls-1" x1="257.84" y1="246.81" x2="255.62" y2="240.05"/>
  </g>
  <g id="ELLIPSE-143" data-name="ELLIPSE">
    <path class="cls-1" d="M255.62,240.05s0,.1,0,.15c-.19,1.15-3.24,2.9-6.81,3.92-3.57,1.01-6.31.9-6.12-.26.19-1.15,3.24-2.9,6.81-3.92"/>
  </g>
  <g id="ELLIPSE-144" data-name="ELLIPSE">
    <path class="cls-1" d="M246.71,243.2c.22-.25.65-.54,1.21-.81,1.34-.65,3.08-1.03,3.88-.86"/>
  </g>
  <g id="ELLIPSE-145" data-name="ELLIPSE">
    <ellipse class="cls-1" cx="249.15" cy="242.03" rx="2.97" ry=".83" transform="translate(-62.95 89.56) rotate(-18.13)"/>
  </g>
  <g id="LINE-136" data-name="LINE">
    <line class="cls-1" x1="255.56" y1="236.44" x2="249.49" y2="239.94"/>
  </g>
  <g id="ELLIPSE-146" data-name="ELLIPSE">
    <path class="cls-1" d="M256.81,236.12c-.43-.02-.86.09-1.25.32"/>
  </g>
  <g id="LINE-137" data-name="LINE">
    <line class="cls-1" x1="257.84" y1="246.81" x2="263.69" y2="243.43"/>
  </g>
  <g id="ELLIPSE-147" data-name="ELLIPSE">
    <ellipse class="cls-1" cx="262.58" cy="240.05" rx="1.67" ry="1.28" transform="translate(12.5 493.1) rotate(-87.77)"/>
  </g>
  <g id="ELLIPSE-148" data-name="ELLIPSE">
    <path class="cls-1" d="M261.47,236.67c1.45-.84,3.12,0,3.73,1.87s-.07,4.06-1.51,4.9"/>
  </g>
  <g id="LINE-138" data-name="LINE">
    <line class="cls-1" x1="261.47" y1="236.67" x2="255.62" y2="240.05"/>
  </g>
  <g id="LINE-139" data-name="LINE">
    <line class="cls-1" x1="248.07" y1="260.54" x2="242.7" y2="244.14"/>
  </g>
  <g id="LINE-140" data-name="LINE">
    <line class="cls-1" x1="260.97" y1="256.32" x2="257.85" y2="246.8"/>
  </g>
  <g id="LINE-141" data-name="LINE">
    <line class="cls-1" x1="256.81" y1="236.12" x2="262.72" y2="236.35"/>
  </g>
  <g id="ELLIPSE-149" data-name="ELLIPSE">
    <path class="cls-1" d="M326.79,219.32c.33.99-2.3,2.75-5.86,3.91-3.56,1.17-6.71,1.31-7.04.31"/>
  </g>
  <g id="LINE-142" data-name="LINE">
    <line class="cls-1" x1="326.51" y1="218.48" x2="326.79" y2="219.32"/>
  </g>
  <g id="LINE-143" data-name="LINE">
    <line class="cls-1" x1="313.62" y1="222.7" x2="313.9" y2="223.54"/>
  </g>
  <g id="ELLIPSE-150" data-name="ELLIPSE">
    <path class="cls-1" d="M308.29,214.37c.52.46,1.22.27,1.59-.41s.23-1.6-.28-2.06c-.36-.32-.83-.33-1.21-.05"/>
  </g>
  <g id="LINE-144" data-name="LINE">
    <line class="cls-1" x1="308.65" y1="211.64" x2="309" y2="211.65"/>
  </g>
  <g id="LINE-145" data-name="LINE">
    <line class="cls-1" x1="308.54" y1="214.6" x2="308.89" y2="214.62"/>
  </g>
  <g id="ELLIPSE-151" data-name="ELLIPSE">
    <path class="cls-1" d="M286.82,208.42c1.03-1.05,2.7-1.04,4.45.03,2.93,1.79,5.24,5.94,5.16,9.28"/>
  </g>
  <g id="ELLIPSE-152" data-name="ELLIPSE">
    <path class="cls-1" d="M296.73,218.3c-.18-.12-.31-.37-.3-.57"/>
  </g>
  <g id="LINE-146" data-name="LINE">
    <line class="cls-1" x1="296.73" y1="218.3" x2="297.4" y2="218.75"/>
  </g>
  <g id="ELLIPSE-153" data-name="ELLIPSE">
    <path class="cls-1" d="M297.76,218.59s0,.01,0,.02c-.02.2-.18.27-.36.14"/>
  </g>
  <g id="ELLIPSE-154" data-name="ELLIPSE">
    <path class="cls-1" d="M297.76,218.59c.13-4.16-2.74-9.36-6.41-11.62-3.43-2.12-6.39-.92-6.82,2.78"/>
  </g>
  <g id="SPLINE-22" data-name="SPLINE">
    <path class="cls-1" d="M299.93,216.5c-.28-.01-.54-.1-.77-.24-.27-.16-.53-.42-.76-.76s-.42-.75-.56-1.18-.25-.93-.3-1.42-.03-.99.04-1.43.21-.87.43-1.23.52-.65.85-.85.74-.31,1.17-.32c.06,0,.12,0,.18,0"/>
  </g>
  <g id="ELLIPSE-155" data-name="ELLIPSE">
    <path class="cls-1" d="M293.09,202.52c.2-.12.42-.21.65-.28,2.91-.9,7.08,2.14,9.31,6.79"/>
  </g>
  <g id="ELLIPSE-156" data-name="ELLIPSE">
    <path class="cls-1" d="M302.45,209.36c-1.51.61-2.39,2.69-1.96,4.65.36,1.61,1.51,2.68,2.8,2.61"/>
  </g>
  <g id="LINE-147" data-name="LINE">
    <line class="cls-1" x1="286.43" y1="206.36" x2="293.09" y2="202.52"/>
  </g>
  <g id="LINE-148" data-name="LINE">
    <line class="cls-1" x1="297.66" y1="218.79" x2="301.52" y2="216.57"/>
  </g>
  <g id="LINE-149" data-name="LINE">
    <line class="cls-1" x1="300.22" y1="209.08" x2="302.78" y2="209.18"/>
  </g>
  <g id="LINE-150" data-name="LINE">
    <line class="cls-1" x1="299.93" y1="216.5" x2="303.09" y2="216.63"/>
  </g>
  <g id="LINE-151" data-name="LINE">
    <line class="cls-1" x1="316.14" y1="213.15" x2="313.92" y2="206.38"/>
  </g>
  <g id="ELLIPSE-157" data-name="ELLIPSE">
    <path class="cls-1" d="M313.92,206.38c3.55-.93,6.77-2.67,7.2-3.89s-2.11-1.45-5.66-.51-6.77,2.67-7.2,3.89c-.02.05-.03.11-.04.16"/>
  </g>
  <g id="ELLIPSE-158" data-name="ELLIPSE">
    <path class="cls-1" d="M317.35,203.69c-.8-.17-2.53.21-3.88.86-.56.27-.99.55-1.21.81"/>
  </g>
  <g id="ELLIPSE-159" data-name="ELLIPSE">
    <ellipse class="cls-1" cx="314.69" cy="204.18" rx="2.97" ry=".83" transform="translate(-47.92 108.08) rotate(-18.13)"/>
  </g>
  <g id="ELLIPSE-160" data-name="ELLIPSE">
    <path class="cls-1" d="M303.12,216.62c-1.09-.04-2.05-.89-2.48-2.19-.61-1.87.07-4.06,1.51-4.9"/>
  </g>
  <g id="LINE-152" data-name="LINE">
    <line class="cls-1" x1="302.16" y1="209.53" x2="308.23" y2="206.03"/>
  </g>
  <g id="LINE-153" data-name="LINE">
    <line class="cls-1" x1="316.14" y1="213.15" x2="310.29" y2="216.53"/>
  </g>
  <g id="ELLIPSE-161" data-name="ELLIPSE">
    <ellipse class="cls-1" cx="309.18" cy="213.15" rx="1.67" ry="1.28" transform="translate(84.18 513.81) rotate(-87.77)"/>
  </g>
  <g id="LINE-154" data-name="LINE">
    <line class="cls-1" x1="308.07" y1="209.76" x2="313.92" y2="206.38"/>
  </g>
  <g id="ELLIPSE-162" data-name="ELLIPSE">
    <path class="cls-1" d="M308.07,209.76c-1.45.84-2.13,3.03-1.51,4.9.61,1.87,2.28,2.7,3.73,1.87"/>
  </g>
  <g id="LINE-155" data-name="LINE">
    <line class="cls-1" x1="321.14" y1="202.07" x2="326.51" y2="218.48"/>
  </g>
  <g id="LINE-156" data-name="LINE">
    <line class="cls-1" x1="311.39" y1="215.89" x2="313.62" y2="222.7"/>
  </g>
  <g id="LINE-157" data-name="LINE">
    <line class="cls-1" x1="309.04" y1="216.85" x2="303.12" y2="216.62"/>
  </g>
  <g id="ELLIPSE-163" data-name="ELLIPSE">
    <path class="cls-1" d="M112.6,107.77c1.03-1.01,2.68-.98,4.41.07,2.93,1.79,5.24,5.94,5.16,9.28"/>
  </g>
  <g id="ELLIPSE-164" data-name="ELLIPSE">
    <path class="cls-1" d="M122.47,117.69c-.18-.12-.31-.37-.3-.57"/>
  </g>
  <g id="LINE-158" data-name="LINE">
    <line class="cls-1" x1="122.47" y1="117.69" x2="123.14" y2="118.14"/>
  </g>
  <g id="ELLIPSE-165" data-name="ELLIPSE">
    <path class="cls-1" d="M123.5,117.98s0,.01,0,.02c-.02.2-.18.27-.36.14"/>
  </g>
  <g id="ELLIPSE-166" data-name="ELLIPSE">
    <path class="cls-1" d="M123.5,117.98c.13-4.16-2.74-9.36-6.41-11.62-3.43-2.12-6.38-.92-6.81,2.76"/>
  </g>
  <g id="SPLINE-23" data-name="SPLINE">
    <path class="cls-1" d="M125.67,115.9c-.28-.01-.54-.1-.77-.24-.27-.16-.53-.42-.76-.76s-.42-.75-.56-1.18-.25-.93-.3-1.42c-.05-.5-.03-.99.04-1.43s.21-.87.43-1.23.52-.65.85-.85.74-.31,1.17-.32c.06,0,.12,0,.18,0"/>
  </g>
  <g id="ELLIPSE-167" data-name="ELLIPSE">
    <path class="cls-1" d="M118.83,101.91c.2-.12.42-.21.65-.28,2.91-.9,7.08,2.14,9.31,6.79"/>
  </g>
  <g id="ELLIPSE-168" data-name="ELLIPSE">
    <path class="cls-1" d="M128.19,108.76c-1.51.61-2.39,2.69-1.96,4.65.36,1.61,1.51,2.68,2.8,2.61"/>
  </g>
  <g id="LINE-159" data-name="LINE">
    <line class="cls-1" x1="112.17" y1="105.75" x2="118.83" y2="101.91"/>
  </g>
  <g id="LINE-160" data-name="LINE">
    <line class="cls-1" x1="123.4" y1="118.18" x2="127.26" y2="115.96"/>
  </g>
  <g id="LINE-161" data-name="LINE">
    <line class="cls-1" x1="125.96" y1="108.47" x2="128.52" y2="108.57"/>
  </g>
  <g id="LINE-162" data-name="LINE">
    <line class="cls-1" x1="125.67" y1="115.9" x2="128.83" y2="116.02"/>
  </g>
  <g id="LINE-163" data-name="LINE">
    <line class="cls-1" x1="141.88" y1="112.54" x2="139.66" y2="105.78"/>
  </g>
  <g id="ELLIPSE-169" data-name="ELLIPSE">
    <path class="cls-1" d="M139.66,105.78c3.55-.93,6.77-2.67,7.2-3.89s-2.11-1.45-5.66-.51-6.77,2.67-7.2,3.89c-.02.05-.03.11-.04.16"/>
  </g>
  <g id="ELLIPSE-170" data-name="ELLIPSE">
    <path class="cls-1" d="M143.09,103.08c-.8-.17-2.53.21-3.88.86-.56.27-.99.55-1.21.81"/>
  </g>
  <g id="ELLIPSE-171" data-name="ELLIPSE">
    <ellipse class="cls-1" cx="140.43" cy="103.57" rx="2.97" ry=".83" transform="translate(-25.26 48.85) rotate(-18.13)"/>
  </g>
  <g id="ELLIPSE-172" data-name="ELLIPSE">
    <path class="cls-1" d="M128.86,116.01c-1.09-.04-2.05-.89-2.48-2.19-.61-1.87.07-4.06,1.51-4.9"/>
  </g>
  <g id="LINE-164" data-name="LINE">
    <line class="cls-1" x1="127.9" y1="108.92" x2="133.97" y2="105.42"/>
  </g>
  <g id="LINE-165" data-name="LINE">
    <line class="cls-1" x1="141.88" y1="112.54" x2="136.03" y2="115.92"/>
  </g>
  <g id="ELLIPSE-173" data-name="ELLIPSE">
    <ellipse class="cls-1" cx="134.92" cy="112.54" rx="1.67" ry="1.28" transform="translate(17.22 242.98) rotate(-87.77)"/>
  </g>
  <g id="LINE-166" data-name="LINE">
    <line class="cls-1" x1="133.81" y1="109.15" x2="139.66" y2="105.78"/>
  </g>
  <g id="ELLIPSE-174" data-name="ELLIPSE">
    <path class="cls-1" d="M133.81,109.15c-1.45.84-2.13,3.03-1.51,4.9.61,1.87,2.28,2.7,3.73,1.87"/>
  </g>
  <g id="LINE-167" data-name="LINE">
    <line class="cls-1" x1="146.88" y1="101.46" x2="152.25" y2="117.87"/>
  </g>
  <g id="LINE-168" data-name="LINE">
    <line class="cls-1" x1="137.13" y1="115.28" x2="139.36" y2="122.09"/>
  </g>
  <g id="LINE-169" data-name="LINE">
    <line class="cls-1" x1="134.78" y1="116.24" x2="128.86" y2="116.01"/>
  </g>
  <g id="ELLIPSE-175" data-name="ELLIPSE">
    <path class="cls-1" d="M152.53,118.71c.33.99-2.3,2.75-5.86,3.91s-6.71,1.31-7.04.31"/>
  </g>
  <g id="LINE-170" data-name="LINE">
    <line class="cls-1" x1="152.25" y1="117.87" x2="152.53" y2="118.71"/>
  </g>
  <g id="LINE-171" data-name="LINE">
    <line class="cls-1" x1="139.36" y1="122.09" x2="139.64" y2="122.94"/>
  </g>
  <g id="ELLIPSE-176" data-name="ELLIPSE">
    <path class="cls-1" d="M134.03,113.76c.52.46,1.22.27,1.59-.41s.23-1.6-.28-2.06c-.36-.32-.83-.33-1.21-.05"/>
  </g>
  <g id="LINE-172" data-name="LINE">
    <line class="cls-1" x1="134.39" y1="111.03" x2="134.74" y2="111.05"/>
  </g>
  <g id="LINE-173" data-name="LINE">
    <line class="cls-1" x1="134.28" y1="113.99" x2="134.63" y2="114.01"/>
  </g>
  <g id="ELLIPSE-177" data-name="ELLIPSE">
    <path class="cls-1" d="M82.26,135.49c-2.17-4.66-6.33-7.79-9.28-6.99-.27.07-.52.18-.76.31"/>
  </g>
  <g id="SPLINE-24" data-name="SPLINE">
    <path class="cls-1" d="M79.36,135.37c-.06,0-.12,0-.18,0-.43.01-.84.13-1.17.32s-.63.49-.85.85-.36.79-.43,1.23c-.04.23-.06.48-.07.74"/>
  </g>
  <g id="ELLIPSE-178" data-name="ELLIPSE">
    <path class="cls-1" d="M63.68,136.02c.22-1.9,1.14-3.21,2.54-3.64,2.91-.9,7.08,2.14,9.31,6.79"/>
  </g>
  <g id="ELLIPSE-179" data-name="ELLIPSE">
    <path class="cls-1" d="M74.5,139.55c-1.76-3.72-5.09-6.18-7.43-5.5-.41.12-.77.33-1.07.63"/>
  </g>
  <g id="ELLIPSE-180" data-name="ELLIPSE">
    <path class="cls-1" d="M80.96,136.03c.54-.41,1.16-.59,1.77-.51"/>
  </g>
  <g id="LINE-174" data-name="LINE">
    <line class="cls-1" x1="65.57" y1="132.66" x2="72.22" y2="128.82"/>
  </g>
  <g id="LINE-175" data-name="LINE">
    <line class="cls-1" x1="82.52" y1="135.5" x2="79.36" y2="135.37"/>
  </g>
  <g id="LINE-176" data-name="LINE">
    <line class="cls-1" x1="83.58" y1="146.2" x2="81.36" y2="139.44"/>
  </g>
  <g id="ELLIPSE-181" data-name="ELLIPSE">
    <path class="cls-1" d="M81.36,139.44s0,.1,0,.15c-.19,1.15-3.24,2.9-6.81,3.92-3.57,1.01-6.31.9-6.12-.26s3.24-2.9,6.81-3.92"/>
  </g>
  <g id="ELLIPSE-182" data-name="ELLIPSE">
    <path class="cls-1" d="M72.45,142.59c.22-.25.65-.54,1.21-.81,1.34-.65,3.08-1.03,3.88-.86"/>
  </g>
  <g id="ELLIPSE-183" data-name="ELLIPSE">
    <ellipse class="cls-1" cx="74.89" cy="141.42" rx="2.97" ry=".83" transform="translate(-40.29 30.33) rotate(-18.13)"/>
  </g>
  <g id="LINE-177" data-name="LINE">
    <line class="cls-1" x1="81.3" y1="135.83" x2="75.23" y2="139.33"/>
  </g>
  <g id="ELLIPSE-184" data-name="ELLIPSE">
    <path class="cls-1" d="M82.55,135.51c-.43-.02-.86.09-1.25.32"/>
  </g>
  <g id="LINE-178" data-name="LINE">
    <line class="cls-1" x1="83.58" y1="146.2" x2="89.43" y2="142.82"/>
  </g>
  <g id="ELLIPSE-185" data-name="ELLIPSE">
    <ellipse class="cls-1" cx="88.32" cy="139.44" rx="1.67" ry="1.28" transform="translate(-54.45 222.27) rotate(-87.77)"/>
  </g>
  <g id="ELLIPSE-186" data-name="ELLIPSE">
    <path class="cls-1" d="M87.21,136.06c1.45-.84,3.12,0,3.73,1.87.61,1.87-.07,4.06-1.51,4.9"/>
  </g>
  <g id="LINE-179" data-name="LINE">
    <line class="cls-1" x1="87.21" y1="136.06" x2="81.36" y2="139.44"/>
  </g>
  <g id="LINE-180" data-name="LINE">
    <line class="cls-1" x1="73.81" y1="159.93" x2="68.44" y2="143.53"/>
  </g>
  <g id="LINE-181" data-name="LINE">
    <line class="cls-1" x1="86.71" y1="155.71" x2="83.59" y2="146.19"/>
  </g>
  <g id="LINE-182" data-name="LINE">
    <line class="cls-1" x1="82.55" y1="135.51" x2="88.46" y2="135.74"/>
  </g>
  <g id="ELLIPSE-187" data-name="ELLIPSE">
    <path class="cls-1" d="M87.53,138.15c.38-.29.85-.27,1.21.05.52.46.64,1.38.28,2.06s-1.07.86-1.59.41"/>
  </g>
  <g id="LINE-183" data-name="LINE">
    <line class="cls-1" x1="88.02" y1="140.91" x2="87.67" y2="140.9"/>
  </g>
  <g id="LINE-184" data-name="LINE">
    <line class="cls-1" x1="88.14" y1="137.95" x2="87.79" y2="137.94"/>
  </g>
  <g id="ELLIPSE-188" data-name="ELLIPSE">
    <path class="cls-1" d="M74.09,160.78c.33.99,3.48.86,7.04-.31s6.18-2.92,5.86-3.91"/>
  </g>
  <g id="LINE-185" data-name="LINE">
    <line class="cls-1" x1="74.09" y1="160.78" x2="73.81" y2="159.93"/>
  </g>
  <g id="LINE-186" data-name="LINE">
    <line class="cls-1" x1="86.98" y1="156.56" x2="86.71" y2="155.71"/>
  </g>
  <g id="ELLIPSE-189" data-name="ELLIPSE">
    <path class="cls-2" d="M752.48,424.56c1.39-.8,2.72-.93,3.71-.37"/>
  </g>
  <g id="ELLIPSE-190" data-name="ELLIPSE">
    <path class="cls-2" d="M756.19,437.03c2.05-1.18,2.05-5.01,0-8.56-.98-1.7-2.32-3.11-3.71-3.91"/>
  </g>
  <g id="ELLIPSE-191" data-name="ELLIPSE">
    <path class="cls-2" d="M631.63,494.32c-2.9,1.67-5.24,5.74-5.24,9.08,0,1.61.55,2.83,1.54,3.39"/>
  </g>
  <g id="ELLIPSE-192" data-name="ELLIPSE">
    <path class="cls-2" d="M635.34,506.79c2.05-1.18,2.05-5.01,0-8.56-.98-1.7-2.32-3.11-3.71-3.91"/>
  </g>
  <g id="ELLIPSE-193" data-name="ELLIPSE">
    <path class="cls-2" d="M160.37,82.7c1.39-.8,2.72-.93,3.71-.37"/>
  </g>
  <g id="ELLIPSE-194" data-name="ELLIPSE">
    <path class="cls-2" d="M156.66,82.33c.98-.57,2.32-.44,3.71.37"/>
  </g>
  <g id="ELLIPSE-195" data-name="ELLIPSE">
    <path class="cls-2" d="M39.52,152.46c-2.9,1.67-5.24,5.74-5.24,9.08,0,1.61.55,2.83,1.54,3.39"/>
  </g>
  <g id="ELLIPSE-196" data-name="ELLIPSE">
    <path class="cls-2" d="M35.81,152.09c.98-.57,2.32-.44,3.71.37"/>
  </g>
  <g id="LINE-187" data-name="LINE">
    <line class="cls-2" x1="491.38" y1="388.73" x2="492.25" y2="388.23"/>
  </g>
  <g id="LINE-188" data-name="LINE">
    <line class="cls-2" x1="477.79" y1="361.56" x2="483.71" y2="368.16"/>
  </g>
  <g id="LINE-189" data-name="LINE">
    <line class="cls-2" x1="538.85" y1="361.32" x2="537.98" y2="361.82"/>
  </g>
  <g id="LINE-190" data-name="LINE">
    <line class="cls-2" x1="524.4" y1="334.66" x2="530.31" y2="341.25"/>
  </g>
  <g id="LINE-191" data-name="LINE">
    <line class="cls-2" x1="713.11" y1="461.93" x2="712.24" y2="462.43"/>
  </g>
  <g id="LINE-192" data-name="LINE">
    <line class="cls-2" x1="698.66" y1="435.27" x2="704.57" y2="441.86"/>
  </g>
  <g id="LINE-193" data-name="LINE">
    <line class="cls-2" x1="665.64" y1="489.34" x2="666.51" y2="488.84"/>
  </g>
  <g id="LINE-194" data-name="LINE">
    <line class="cls-2" x1="652.05" y1="462.17" x2="657.97" y2="468.77"/>
  </g>
  <g id="LINE-195" data-name="LINE">
    <line class="cls-2" x1="261.47" y1="236.67" x2="255.56" y2="236.44"/>
  </g>
  <g id="LINE-196" data-name="LINE">
    <line class="cls-2" x1="301.28" y1="216.56" x2="297.76" y2="218.59"/>
  </g>
  <g id="LINE-197" data-name="LINE">
    <line class="cls-2" x1="308.07" y1="209.76" x2="302.16" y2="209.53"/>
  </g>
  <g id="LINE-198" data-name="LINE">
    <line class="cls-2" x1="127.02" y1="115.95" x2="123.5" y2="117.98"/>
  </g>
  <g id="LINE-199" data-name="LINE">
    <line class="cls-2" x1="133.81" y1="109.15" x2="127.9" y2="108.92"/>
  </g>
  <g id="LINE-200" data-name="LINE">
    <line class="cls-2" x1="87.21" y1="136.06" x2="81.3" y2="135.83"/>
  </g>
</svg>