<?xml version="1.0" encoding="UTF-8"?>
<svg id="GRAPHIC" xmlns="http://www.w3.org/2000/svg" viewBox="0 0 1584 720">
  <defs>
    <style>
      .cls-1 {
        fill: none;
        stroke: #000;
        stroke-linecap: round;
        stroke-linejoin: round;
        stroke-width: .4px;
      }
    </style>
  </defs>
  <path class="cls-1" d="M727.2,628.22l11.53-6.66M738.73,621.56h0M668.61,540.54c-14.91-16.52-30.34-32.57-46.24-48.13M657.22,548.4c-15.16-16.81-30.84-33.14-47.01-48.97M668.33,560.73c2.02-1.17,4.05-2.34,6.08-3.51,2.02-1.17,4.05-2.34,6.08-3.51M658.47,573.98l9.86-13.26M610.21,499.43c2.03-1.17,4.05-2.34,6.08-3.51,2.03-1.17,4.05-2.34,6.08-3.51M589.7,526.99l20.51-27.56M609.42,480.11c-23.56-22.69-49.68-42.56-77.83-59.2M598.33,488.13c-23.85-23.09-50.34-43.3-78.9-60.2M349.12,346.72l12.16-7.02M444.97,330.38c-2.02,1.17-4.05,2.34-6.08,3.51-2.02,1.17-4.05,2.34-6.08,3.51M444.97,330.38c12.68-1.13,25.38-1.99,38.09-2.57M361.28,339.7c20.96-2.67,45.16-5.59,68.55-7.9M499.61,327.36l-6.08,3.51c-2.02,1.17-4.05,2.34-6.08,3.51M499.61,327.36c7.91-.08,15.54.06,22.84.47,9.77.54,20.22,1.63,30.48,3.76,9.79,2.02,18.32,4.73,26.33,8.25,3.78,1.66,7.48,3.52,11.17,5.62M349.12,346.72c22.35-2.85,48.38-5.98,73.17-8.35M432.82,337.4l13.74,33.32M432.82,337.4c14.58-1.31,29.18-2.24,43.81-2.79M487.45,334.38l33.28,80.71M487.45,334.38c7.91-.08,15.54.06,22.84.47,9.77.54,20.22,1.63,30.48,3.76,9.79,2.02,18.32,4.73,26.33,8.25,3.78,1.66,7.48,3.52,11.17,5.62M584.72,405.51l.4,53.11M821.45,600.76c-22.58-28.34-48.88-61.15-73.92-91.8M809.29,607.78c-22.58-28.34-48.88-61.15-73.92-91.8M809.29,607.78l12.16-7.02M821.45,600.76h0M736.48,495.48c-14.42-17.56-29.02-34.96-43.8-52.22M724.74,503.01c-14.56-17.73-29.3-35.31-44.22-52.73M680.52,450.29c2.03-1.17,4.05-2.34,6.08-3.51,2.03-1.17,4.05-2.34,6.08-3.51M640.51,504.05l40-53.77M681.1,429.95c-7.75-8.82-15.22-17.12-22.38-24.81-9.84-10.58-20.36-21.39-30.68-30.94-9.84-9.11-18.4-16.1-26.43-21.68-3.78-2.63-7.49-4.97-11.18-7.07M669.59,437.72c-7.98-9.1-15.67-17.65-23.03-25.56-9.84-10.58-20.36-21.39-30.68-30.94-9.84-9.11-18.4-16.1-26.43-21.68-3.78-2.63-7.49-4.97-11.18-7.07M735.37,515.98c2.03-1.17,4.05-2.34,6.08-3.51,2.03-1.17,4.05-2.34,6.08-3.51M721.81,534.21l13.56-18.23M1057.53,91.36c-2.02,1.17-4.05,2.34-6.08,3.51-2.02,1.17-4.05,2.34-6.08,3.51M1280.26,255.25l-12.16,7.02M995.81,77.19c-2.03,1.17-4.05,2.34-6.08,3.51-1.07.61-2.14,1.23-3.21,1.85M1183.12,162.61c-19.77-16.03-40.78-30.47-62.84-43.17M1120.26,119.46c-19.93-11.41-40.95-20.82-62.73-28.1M1045.01,87.48c-16.12-4.64-32.57-8.08-49.2-10.29M979.48,75.35c1.61.15,3.23.3,4.85.47M1280.26,255.25h0M1280.26,255.25c-7.73-8.4-15.59-16.72-23.54-24.89M1183.53,179.98c2.03-1.17,4.05-2.34,6.08-3.51,2.03-1.17,4.05-2.34,6.08-3.51M1245.15,218.65c-15.83-15.93-32.33-31.17-49.46-45.68M1268.1,262.27c-7.73-8.4-15.59-16.72-23.54-24.89M1114.36,153.06l-.05-6.12M1045.37,98.37l4.6,11.15M1084.11,113.96c-12.58-5.99-25.52-11.2-38.74-15.59M1167.51,166.88c-16.93-13.47-34.75-25.79-53.32-36.89M1169.76,198.5l13.77-18.52M1230.82,223.5c-15.16-15.15-30.93-29.67-47.28-43.52M1256.72,230.35c-2.03,1.17-4.05,2.34-6.08,3.51-2.03,1.17-4.05,2.34-6.08,3.51M1244.56,237.37l-1.86,2.5M854.91,81.66l-12.16,7.02M854.91,81.66c14.79-1.08,29.32-1.8,43.49-2.01M1060.82,115.37c-22.47-12.84-46.74-22.24-72-27.86M842.75,88.68c9.55-.7,19-1.24,28.3-1.6M1021.75,109.02c-10.5-4.48-21.28-8.25-32.28-11.29M1267.98,316h0M1267.98,316c-19.98-24.01-39.49-46.84-58.25-67.85M1267.98,316l-12.16,7.02M1255.82,323.02c-19.98-24.01-39.49-46.84-58.25-67.86M1198.62,235.82c-15.16-16.81-30.84-33.14-47.01-48.98M1185.22,241.47c-14.77-16.33-30.03-32.2-45.76-47.6M1197.57,255.17c2.03-1.17,4.05-2.34,6.08-3.51,2.03-1.17,4.05-2.34,6.08-3.51M1187.71,268.42l9.86-13.26M1139.45,193.87c2.02-1.17,4.05-2.34,6.08-3.51,2.02-1.17,4.05-2.34,6.08-3.51M1118.94,221.43l20.51-27.56M1139.73,175.55c-23.85-23.09-50.33-43.29-78.9-60.2M1125.39,180.52c-21.61-20.58-45.28-38.88-70.64-54.61M784.13,120.89l-306.32,176.86M324.59,456.72c16.91-26.72,36.59-53.35,57.03-76.83,14.67-16.85,30.32-32.77,46.86-46.95,8.24-7.06,16.68-13.69,25.4-19.85,7.8-5.52,15.76-10.63,23.92-15.34M980,75.74c1.44.02,2.88.05,4.32.08M784.13,120.88c33.86-19.19,70.87-32.17,109.3-38.32M995.81,77.19c-3.82-.52-7.65-.97-11.49-1.37M333.97,461.52c-.88.25-1.76.5-2.64.75M324.59,456.72c1.82.19,3.65.39,5.48.61M330.08,457.33c.38,1.65.8,3.29,1.26,4.93M446.76,371.22l-.2-.5M395.98,425.71l-4.29-10.42M336.82,459.87l-2.84,1.64M395.98,425.71l-44.66,25.78M488.12,296.26c-12.66,7.31-24.72,15.61-36.42,24.93-14.96,11.93-29.07,25.33-42.43,39.71-24.13,25.97-47.44,56.91-67.12,87.55-2.75,4.27-5.48,8.64-8.18,13.07M488.12,296.26l306.32-176.86M794.44,119.39c29.38-16.68,61.36-28.29,94.6-34.33M995.81,77.19c-4.76-.18-9.56-.28-14.38-.31M385.28,468.37c4.16,1.2,8.33,2.49,12.52,3.88M1057.53,91.36c-4.19-1.39-8.36-2.68-12.52-3.88M836.09,113.74l4.35-.63M541.65,288.19l-10.31,1.49M1045.01,87.48c-19.14-1.95-38.36-3.09-57.6-3.42M836.88,113.28c7.27-4.19,14.64-7.81,22.19-10.93M836.88,113.28l-.79.46M531.34,289.68l-.79.46M385.28,468.37c11.16-20.31,22.51-39.13,32.48-54.75,14.46-22.63,31.17-46.6,48.25-66.92,10.49-12.48,21.65-24.23,33.69-34.56,9.81-8.43,19.99-15.73,30.86-22.01M385.28,468.37l10.91,26.46M407.96,501.51l1.79-.26M540.86,288.65l.79-.46M548.1,303.82l-6.44-15.62M1057.53,91.36c-22.95-2.75-46.02-4.46-69.13-5.12M468.92,467.1l-22.18,12.81M409.76,501.25l-11.96-29M540.86,288.65c-11.97,6.91-22.92,15.18-33.43,24.92-12.31,11.42-23.67,24.59-34.17,38.23-18.03,23.44-36.3,51.99-51.43,77.62-6.78,11.48-15.22,26.24-24.03,42.83M468.92,467.1l-8.59-20.83M989.54,105.82l.1,14.1M589.55,283.94l.1,13.5M975.92,139.05l-306.33,176.86M989.64,119.91c.05,7.15-4.89,14.04-13.72,19.14M975.82,124.95c9.09-5.25,14.04-12.39,13.7-19.74M669.5,301.81l306.32-176.86M594.81,309.55c-3.37-3.74-5.13-7.88-5.17-12.11M609.9,305.25c18.6,7.21,43.65,5.77,59.6-3.44M669.6,315.91c-15.95,9.2-40.99,10.65-59.59,3.44M609.9,305.25l.11,14.1M609.9,305.25h0M488.91,295.8l304.74-175.94M793.66,119.85l46.78-6.75M488.91,295.8l100.61-14.51M501.61,310.52l-6.25.9M589.66,297.82l-41.56,5.99M495.36,311.42l-6.44-15.62M1349.73,248.04l.11,14.05M348.69,610.31l-.11-14.07M1200.25,104.53l32.44-18.73M348.58,596.24c159.96,89.1,416.62,87.14,575.16-4.39M348.58,596.24l32.44-18.73M1200.25,104.53c139.15,80.6,137.97,210.87-2.64,292.06M1191.38,123.79c2.9-6.3,5.86-12.72,8.87-19.26M1230.06,415c158.53-91.53,159.7-238.43,2.62-329.19M923.74,591.85l306.33-176.86M923.84,605.89l306.33-176.86M348.69,610.31c8.29,4.62,17.06,9.1,26.26,13.4,10.18,4.75,20.88,9.28,32.04,13.51,11.16,4.23,22.76,8.18,34.73,11.8,11.97,3.62,24.29,6.9,36.88,9.82,12.58,2.92,25.43,5.48,38.43,7.65,13,2.18,26.16,3.98,39.35,5.39,13.19,1.41,26.42,2.44,39.55,3.09,13.13.65,26.18.94,39.01.87,12.82-.06,25.87-.48,39-1.27,13.14-.79,26.36-1.95,39.55-3.49,13.19-1.55,26.35-3.48,39.35-5.79,13-2.31,25.85-5,38.44-8.04,12.58-3.05,24.91-6.45,36.88-10.19,11.97-3.74,23.57-7.8,34.73-12.15,11.16-4.35,21.86-8.98,32.04-13.84,10.18-4.86,19.83-9.94,28.9-15.18M1247,361.12c75.48-77.9,52.84-174.48-55.63-237.34M1230.17,429.03c9.07-5.24,17.86-10.8,26.26-16.67,8.4-5.87,16.4-12.04,23.9-18.46,7.5-6.42,14.5-13.1,20.93-19.98,6.43-6.88,12.27-13.97,17.48-21.19,5.21-7.23,9.8-14.6,13.72-22.07,3.92-7.46,7.17-15.01,9.76-22.57,2.58-7.56,4.5-15.14,5.76-22.66,1.26-7.52,1.87-14.99,1.87-22.33,0-.33,0-.67,0-1.01M1197.61,396.59l-306.32,176.86M891.29,573.44c-140.61,81.18-368.22,83-510.26,4.07M1349.84,262.14l.11,14.1M226.39,445.12l.11,14.1M1230.27,443.19c77.05-44.49,120.13-104.59,119.67-166.95M226.5,459.22c.97,129.13,184.67,232.45,410.31,230.76,107.75-.81,210.95-25.94,287.14-69.93M923.95,620.05l306.33-176.86M546.35,526.33l-20.23-11.48M625.06,570.99l-50.68-28.75M726.21,628.38l-78.89-44.76M738.73,621.56l-11.53,6.66M738.73,621.56h0M678.65,533.67l-35.09-19.91M809.29,607.78l-102.81-58.33M821.45,600.76l-12.16,7.02M821.45,600.76h0M875.68,577.72l-110.03-62.42M887.83,570.7l-12.16,7.02M887.83,570.7h0M934.84,543.56l-110.03-62.42M947,536.54l-12.16,7.02M947,536.54h0M1109.1,442.96l-110.03-62.42M1121.25,435.94l-12.16,7.02M1121.25,435.94h0M1168.26,408.8l-110.03-62.42M1180.42,401.78l-12.16,7.02M1180.42,401.78h0M1220.21,370.54l-102.81-58.33M1232.36,363.52l-12.16,7.02M1232.36,363.52h0M1255.82,323.02l-79.26-44.96M1267.98,316l-12.16,7.02M1267.98,316h0M1212.05,230.46l-39.24-22.27M1268.11,262.27l-32.38-18.37M1280.26,255.25l-12.16,7.02M1280.26,255.25h0M1176.72,125.32l12.16,6.89M842.75,88.68l12.16-7.02M849.87,92.72l-7.12-4.04M760.03,109.48l12.16-7.02M781.43,121.62l-21.4-12.14M693.65,139.54l12.16-7.02M722.27,155.78l-28.62-16.24M634.48,173.7l12.16-7.02M663.82,190.35l-29.34-16.65M460.23,274.3l12.16-7.02M488.85,290.54l-28.62-16.24M401.06,308.47l12.16-7.02M434.83,327.62l-33.77-19.15M349.12,346.72l12.16-7.02M390.35,370.11l-41.23-23.39M313.51,394.24l12.16-7.02M352.38,416.29l-38.87-22.05M399.66,443.12l-17.06-9.68M467.08,481.36l-11.54-6.54M404.77,584.92l-12.16-6.89M1230.17,429.1l-306.32,176.86M923.85,605.95c-76.2,43.99-179.4,69.13-287.16,69.93-225.64,1.69-409.34-101.63-410.3-230.77M1349.84,262.12c.48,62.37-42.6,122.49-119.67,166.98M526.12,514.86l-10.72,6.19M632.69,629.12h0M632.69,629.12l-10.98,6.34M301.22,455l12.16-7.02"/>
  <path class="cls-1" d="M669.72,315.89l304.74-175.94M737.74,418.74l40.32,51.25M663.46,324.31l61.3,77.93M669.72,315.89l-6.26,8.42M786.89,464.84l-117.17-148.95M786.88,464.85h0M589.54,283.34l-.1-14.1M989.53,105.81l-.1-14.1M909.48,73.25l-306.33,176.86M603.15,250.11c-18.29,10.56-18.29,27.54,0,37.92,18.29,10.39,47.94,10.24,66.23-.32M609.89,305.25c-12.68-4.92-20.29-13.1-20.35-21.91M669.49,301.81c-15.94,9.2-40.99,10.65-59.59,3.45M669.39,287.71l306.32-176.86M975.81,124.95l-306.32,176.86M975.71,110.85c18.29-10.56,18.29-27.54,0-37.92-18.29-10.39-47.95-10.24-66.23.32M989.53,105.81c.05,7.15-4.89,14.04-13.72,19.14M708.38,224.82c2.37-.02,4.3,1.07,4.32,2.43,0,1.36-1.91,2.47-4.28,2.49-2.37.02-4.3-1.07-4.32-2.43,0-1.36,1.91-2.47,4.28-2.49ZM870.47,131.23c2.37-.02,4.3,1.07,4.32,2.43,0,1.36-1.91,2.47-4.28,2.49-2.37.02-4.3-1.07-4.32-2.43,0-1.36,1.91-2.47,4.28-2.49ZM989.55,107.52c.11.04.23.08.34.12M995.19,109.1c-1.8-.47-3.56-.95-5.3-1.46M995.19,109.1h0M995.19,109.1l-5.65-3.21M995.19,109.1l.43,57.75M1007.42,111.88c14.35,2.83,30.23,4.66,47.26,6.09M1054.68,117.96l-12.16-6.89M1054.68,117.96l.26,34.55M1114.13,122.05c-10.32-.73-20.81-1.37-31.25-2.05-5.44-.35-10.77-.71-15.98-1.09M1114.13,122.05l-12.15-6.9M1114.13,122.05l.19,24.9M1126.35,122.97c20.73,1.68,40.43,3.95,57.21,7.91M1183.56,130.88c1.81.43,3.58.87,5.32,1.34M1188.87,132.22l-12.16-6.89M404.76,584.92l-12.16-6.9M404.76,584.92c1.72-2.46,3.47-4.94,5.25-7.44M410.02,577.48c16.57-23.21,36.07-48.11,56.6-73.62M466.62,503.87l-12.16-6.9M466.62,503.87l.13,16.95M478.77,496.85l-.06-7.94M478.71,488.91l-12.15-6.89M525.5,431.49c-15.47,19.08-31.31,38.36-46.78,57.41M525.5,431.49l-12.16-6.89M525.5,431.49l.2,26.97M537.65,424.48l-.06-7.97M537.59,416.51l-12.16-6.9M537.59,416.51c16.8-20.91,32.54-41.01,46.76-60.37M584.35,356.14l-12.16-6.9M584.35,356.14l.37,49.37M596.51,349.12l-.07-9.79M596.43,339.33l-12.16-6.9M601.66,331.79c-1.73,2.52-3.47,5.04-5.23,7.54M601.66,331.79c1.29-1.88,2.25-4,2.77-6.08M605.95,320.03c-.54,1.88-1.04,3.78-1.52,5.68M609.01,309.04c-.98,3.67-2,7.34-3.06,10.99M609.9,305.25c-.27,1.25-.57,2.51-.89,3.79M643.89,371.35l-.36-47.77M702.75,296.77v.06M877,196.16v.05M936.17,162v.06M596.85,302.14c.33-1.28.62-2.54.89-3.79M596.85,302.14c-.98,3.68-2,7.34-3.06,10.99M593.79,313.13c-.54,1.89-1.04,3.78-1.52,5.68M589.51,324.89c1.29-1.88,2.25-4,2.77-6.07M584.28,332.43c1.76-2.5,3.5-5.02,5.23-7.54M584.35,342.22l-.07-9.79M525.43,409.61c16.8-20.91,32.54-41.01,46.76-60.37M525.5,417.58l-.06-7.97M466.56,482.01c15.47-19.06,31.32-38.34,46.78-57.41M466.62,489.95l-.06-7.94M397.86,570.59c16.57-23.21,36.07-48.11,56.6-73.62M392.61,578.02c1.72-2.46,3.47-4.94,5.25-7.44M1171.4,123.98c1.81.43,3.58.87,5.32,1.34M1114.19,116.07c20.73,1.68,40.43,3.95,57.21,7.91M1054.74,112.02c5.21.38,10.54.74,15.98,1.09,10.43.68,20.92,1.31,31.25,2.04M995.27,104.98c14.35,2.83,30.22,4.66,47.25,6.09M609.9,305.25h0M609.9,305.25h-.01M597.76,298.37h-.02M597.74,298.36h0M609.9,305.25h0M693.65,139.54l12.16-7.02M771.19,128.36l12.16-7.02M771.19,128.36l-77.54,11.18M705.81,132.52l77.54-11.18M1180.42,401.78h0M1180.42,401.78l-78.37-99.63M1168.26,408.8l12.16-7.02M1089.89,309.17l78.37,99.63M1089.89,309.17l12.16-7.02M1073.56,331.13l16.34-21.96M953.42,152.05l.03.04M965.6,145.07l-.03-.04M634.48,173.7l12.16-7.02M712.02,162.52l12.16-7.02M712.02,162.52l-77.54,11.18M646.64,166.68l77.54-11.18M1121.26,435.94h0M1121.26,435.94l-78.37-99.63M1109.09,442.95l12.16-7.02M1030.73,343.33l78.37,99.63M1030.73,343.33l12.16-7.02M1014.39,365.29l16.34-21.96M894.25,186.2l.03.04M906.44,179.22l-.03-.04M413.22,301.45l-12.16,7.02M478.6,297.29l12.16-7.02M548.1,303.82l12.15,29.47M589.66,297.82l-41.56,5.99M401.06,308.47l77.54-11.18M501.61,310.52l-6.26.9M490.76,290.27l-77.54,11.18M495.36,311.42h0M495.36,311.42l1.37,3.32M887.84,570.7h0M643.89,371.35l.14,18.4M809.47,471.07l78.37,99.63M887.84,570.7l-12.16,7.02M875.68,577.72l-78.37-99.63M737.74,418.74l40.32,51.25M797.31,478.09l12.16-7.02M780.97,500.05l16.34-21.96M660.17,320.12l64.59,82.12M673.02,313.99l-.03-.04M712.2,453.06l25.53-34.32M472.39,267.29l-12.16,7.02M537.77,263.12l12.16-7.02M460.23,274.3l77.54-11.18M934.84,543.56l-78.37-99.63M947,536.54l-12.16,7.02M856.48,443.93l12.16-7.02M840.14,465.89l16.34-21.96M720,286.81l.03.04M549.93,256.11l-77.54,11.18M947,536.54h0M868.63,436.92l78.37,99.63M732.18,279.83l-.03-.04M772.19,102.46l-12.16,7.02M855.89,93.14c7.36-.65,14.72-1.22,22.09-1.7M772.19,102.46c22.35-2.85,48.38-5.98,73.17-8.35M1001.34,108.21c-3.84-2.18-7.79-4.15-11.84-5.91M760.03,109.48c19.22-2.45,41.17-5.11,62.71-7.31M843.73,100.16c7.36-.65,14.72-1.22,22.09-1.7M855.89,93.14c-2.03,1.17-4.05,2.34-6.08,3.51-2.03,1.17-4.05,2.34-6.08,3.51M843.73,100.16l3.18,7.73M1232.36,363.52h0M1232.36,363.52c-22.58-28.34-48.88-61.15-73.92-91.8M1232.36,363.52l-12.16,7.02M1220.21,370.54c-22.59-28.34-48.88-61.15-73.92-91.8M1147.81,258.75c-14.56-17.73-29.3-35.31-44.22-52.73M1135.13,265.13c-14.38-17.51-28.95-34.88-43.69-52.09M1146.28,278.74c2.02-1.17,4.05-2.34,6.08-3.51,2.02-1.17,4.05-2.34,6.08-3.51M1132.72,296.97l13.56-18.23M1091.43,213.04c2.03-1.17,4.05-2.34,6.08-3.51,2.03-1.17,4.05-2.34,6.08-3.51M1062.52,251.9l28.91-38.85M1092.67,193.45c-7.98-9.09-15.67-17.65-23.03-25.56-9.84-10.58-20.36-21.39-30.68-30.94-9.84-9.11-18.4-16.1-26.43-21.68-3.79-2.63-7.49-4.97-11.18-7.07M1079.56,199.39c-7.64-8.69-15.01-16.88-22.08-24.48-9.84-10.58-20.36-21.39-30.68-30.94-9.84-9.11-18.4-16.1-26.43-21.68-1.72-1.19-3.42-2.33-5.1-3.4M301.22,455l12.16-7.02M409.95,465.23c-2.03,1.17-4.05,2.34-6.08,3.51-2.03,1.17-4.05,2.34-6.08,3.51M348.23,451.07c-2.02,1.17-4.05,2.34-6.08,3.51-2.02,1.17-4.05,2.34-6.08,3.51M535.96,553.86c2.02-1.17,4.05-2.34,6.08-3.51,2.02-1.17,4.05-2.34,6.08-3.51M621.71,635.46l10.98-6.34M596.52,591.47c-15.5-15.55-31.65-30.44-48.4-44.63M534.19,535.4c-19.37-15.61-39.93-29.68-61.49-42.08M472.69,493.33c-19.94-11.41-40.95-20.82-62.74-28.1M390.28,459.38c-13.83-3.65-27.87-6.43-42.05-8.31M313.38,447.98c5.33.24,10.72.58,16.16,1.04M632.69,629.12h0M632.69,629.12c-7.73-8.4-15.59-16.72-23.54-24.89M613.06,628.1c-5.31-5.67-10.67-11.3-16.08-16.85M466.74,520.82l.1,14.1M301.22,455c7.67.34,15.47.9,23.37,1.72M336.08,458.09l.74,1.78M385.28,468.37c-16.12-4.64-32.57-8.08-49.2-10.29M396.18,494.83l-10.91-26.46M409.76,501.25l-1.8.26M397.8,472.25l11.96,29M460.53,500.35c-19.94-11.41-40.95-20.82-62.74-28.1M523.39,543.5c-19.77-16.03-40.78-30.47-62.84-43.17M523.39,543.5l-11.62,15.62M511.76,559.13l1.81,2.3M525.36,568.11l10.6-14.25M585.42,599.54c-15.83-15.93-32.33-31.17-49.46-45.68M609.14,604.23c-2.03,1.17-4.05,2.34-6.08,3.51-2.03,1.17-4.05,2.34-6.08,3.51M596.99,611.25h0M586.52,602.81l-1.81-2.3M584.7,600.51l.72-.96M313.5,394.24l12.16-7.02M394.4,385.38c-2.02,1.17-4.05,2.34-6.08,3.51-2.02,1.17-4.05,2.34-6.08,3.51M434.37,388.58c-13.26-1.78-26.6-2.85-39.97-3.2M325.66,387.22c17.58-1.29,34.79-2.05,51.45-2.09M452.87,391.65c-2.03,1.17-4.05,2.34-6.08,3.51-2.03,1.17-4.05,2.34-6.08,3.51M531.57,420.93c-24.47-13.98-51.05-23.87-78.7-29.28M313.5,394.24c19.79-1.45,39.12-2.24,57.73-2.06M382.24,392.4l9.44,22.9M428.92,396.58c-15.45-2.39-31.05-3.79-46.68-4.18M440.71,398.67l19.62,47.59M519.41,427.95c-24.47-13.98-51.05-23.87-78.7-29.28M525.7,458.47l.42,56.39M738.73,621.56c-19.98-24.01-39.49-46.84-58.25-67.86M726.38,628.35c-19.91-23.93-39.36-46.67-58.06-67.62"/>
  <path class="cls-1" d="M226.29,431.02l.11,14.09M693.8,124.81l-306.32,176.86M684.7,105.6l-306.33,176.86M652.28,87.21l-306.32,176.86M684.7,105.6c.88-.51,1.77-1.01,2.66-1.52,143.09-80.94,372.72-80.75,512.89.44M345.96,264.07c-159.56,92.12-159.56,240.17-.01,330.69.88.5,1.76.99,2.64,1.48M1191.38,123.79c-135.22-78.36-356.81-78.58-494.94-.49-.88.5-1.76,1-2.64,1.51M1232.69,85.8c-158.09-91.35-416.77-91.39-577.77-.1-.88.5-1.76,1-2.64,1.51M226.4,445.11c.05,7.02.66,14.14,1.86,21.31,1.26,7.51,3.17,15.07,5.76,22.61,2.58,7.54,5.84,15.05,9.76,22.47,3.92,7.42,8.5,14.75,13.71,21.92,5.21,7.17,11.06,14.2,17.48,21.02,6.42,6.82,13.42,13.42,20.92,19.77,7.5,6.35,15.5,12.43,23.9,18.21,8.4,5.78,17.19,11.26,26.26,16.41.87.5,1.75.99,2.64,1.48M381.02,577.52c-.89-.5-1.77-.99-2.66-1.49-141.64-80.35-141.63-211.79,0-293.56M387.48,301.66c-111.41,64.33-134.65,162.94-56.77,240.93M1200.25,104.53l32.44-18.73M1191.38,123.79c2.9-6.3,5.86-12.72,8.87-19.26M348.58,596.24l32.44-18.73M348.69,610.31l-.11-14.07M422.33,560.62c-4.25,5.71-8.37,11.33-12.32,16.86M410.02,577.48c-1.79,2.5-3.54,4.98-5.25,7.44M534.28,627.9c-45.1-7.68-88.77-22.17-129.51-42.98M591.46,605.61c-26.12-1.83-51.75-5.58-76.23-11.19-34.41-7.9-65.89-19.34-92.9-33.8M422.33,560.62l44.52-25.7M613.07,628.1c2.27,2.43,4.54,4.87,6.81,7.33M613.07,628.1c-7.1-7.59-14.31-15.09-21.61-22.49M466.85,534.92l124.61,70.69M324.59,456.72c1.82.19,3.65.39,5.48.61M324.59,456.72c-7.9-.82-15.7-1.38-23.37-1.72M410.18,553.72c-24.57-14.77-44.29-31.94-58.32-50.75-10.88-14.59-18.17-29.95-21.78-45.65M335.7,460.52l101.78,57.74M301.22,454.99c1.66,21.88,9.83,43.43,24.23,63.7,15.68,22.05,38.45,42.17,67.15,59.33M397.86,570.58c4.05-5.66,8.15-11.28,12.32-16.86M410.18,553.72h0M397.86,570.58c-1.76,2.47-3.52,4.95-5.25,7.44M1171.09,128.32c4.3.77,8.47,1.61,12.46,2.56M1183.56,130.88c1.81.43,3.58.87,5.31,1.34M1188.87,132.22c27.06,16.17,48.87,35,64.43,55.62,16.09,21.32,25.2,44.17,26.96,67.41M1251.19,224.72c-3.43-14.93-10.2-29.56-20.23-43.53-14.1-19.63-34.37-37.54-59.87-52.87M1171.09,128.32l-19.12,11.04M1272.8,247.21c2.5,2.67,4.99,5.35,7.47,8.04M1280.26,255.25h0M984.32,75.82c-1.62-.17-3.24-.33-4.85-.47M984.32,75.82c1.82.19,3.65.39,5.48.61M1158.94,121.42c-26.01-13.93-56.2-25.07-89.18-32.93-25.59-6.1-52.48-10.14-79.95-12.06M978.57,74.71c32.19,1.61,63.82,5.87,93.89,12.7,38.67,8.78,74.02,21.63,104.25,37.91M1171.4,123.98c-4.13-.97-8.29-1.82-12.46-2.56M1171.4,123.98c1.78.42,3.56.87,5.32,1.34M1102.84,301.69l-306.33,176.86M1187.71,268.42l-4.17,5.61M1183.54,274.03l-15.78,9.11M1132.72,296.97l-8.35,11.22M1124.37,308.19l-12.08,6.97M1073.55,331.13l-8.35,11.22M1065.2,342.35l-12.08,6.97M1014.39,365.29l-8.35,11.22M1006.04,376.51l-127.17,73.42M840.13,465.89l-8.35,11.23M831.79,477.12l-12.08,6.97M780.97,500.05l-8.35,11.22M772.62,511.28l-15.78,9.11M721.81,534.21l-8.35,11.22M713.46,545.43l-26.65,15.39M658.47,573.98l-4.18,5.61M596.98,611.25h0M1242.7,239.88l-26.65,15.39M1102.85,301.71c48.85-28.73,100.38-52.63,153.86-71.38M1245.15,218.65c3.87,3.86,7.73,7.76,11.57,11.71M654.29,579.59l-44.26,25.55M586.52,602.81l-1.81-2.3M1092.44,288.48c48.38-28.46,99.55-51.86,152.71-69.85M786.1,465.3l306.32-176.86M585.42,599.54l-.72.96M585.45,599.58c64.47-48.26,131.44-93.09,200.62-134.32M597,611.28c64.2-47.61,130.78-91.93,199.48-132.79M596.98,611.25c-3.84-3.94-7.69-7.85-11.56-11.71M535.96,553.86c-4.18-3.53-8.36-6.99-12.57-10.36M1183.12,162.6c4.21,3.37,8.39,6.83,12.57,10.36M1048.74,234.38l-10.42-13.25M733.58,397.08l10.42,13.25M535.96,553.86l-10.6,14.25M536.05,553.97c66.4-51.47,135.53-99.3,207.1-143.29M744,410.32l-.79.46M744,410.32l-6.26,8.42M1049.54,233.92l-.79.46M1049.53,233.92c45.86-26.6,95-47.08,146.17-60.93M1169.76,198.49l-4.1,2.37M1118.94,221.43l-1.04,1.4M712.21,453.06l-5.21,7M640.51,504.05l-4.1,2.37M513.58,561.43l-1.81-2.31M581.35,538.21l-25.88,14.94M511.76,559.12l11.62-15.62M1039.09,220.64c45.08-25.94,93.56-45.45,144.04-57.98M1038.32,221.13l.79-.46M732.79,397.53l.79-.46M523.51,543.65c66.99-52.55,136.84-101.36,209.23-146.21M589.7,526.99l-8.35,11.22M1091.62,288.91h0M1091.63,288.9l-117.17-148.95M786.89,464.84l304.74-175.94"/>
</svg>