<?xml version="1.0" encoding="UTF-8"?>
<svg id="GRAPHIC" xmlns="http://www.w3.org/2000/svg" viewBox="0 0 1584 720">
  <defs>
    <style>
      .cls-1 {
        stroke-width: .42px;
      }

      .cls-1, .cls-2 {
        fill: none;
        stroke: #000;
        stroke-linecap: round;
        stroke-linejoin: round;
      }

      .cls-2 {
        stroke-width: .84px;
      }
    </style>
  </defs>
  <g>
    <g id="SPLINE">
      <path class="cls-2" d="M900.87,620.47c-26.93,15.55-58.16,28.55-92.13,38.36-33.95,9.81-70.62,16.44-108.16,19.56-37.52,3.12-75.91,2.73-113.22-1.14-37.32-3.87-73.55-11.23-106.88-21.72-33.35-10.49-63.78-24.1-89.76-40.18-25.99-16.08-47.52-34.63-63.48-54.74s-26.25-41.64-30.46-63.7c-4.15-21.78-2.28-43.99,5.48-65.4,7.79-21.49,21.5-42.18,40.36-61.05,19.08-19.09,43.43-36.33,71.81-50.9,28.44-14.6,60.93-26.52,95.82-35.17,34.87-8.64,72.14-14.02,109.93-15.87,37.77-1.85,76.05-.16,112.91,4.96,36.87,5.13,72.3,13.7,104.52,25.3,32.24,11.6,61.26,26.23,85.59,43.18,24.33,16.94,43.97,36.2,57.88,56.85,13.83,20.53,21.99,42.44,23.97,64.57,1.96,21.87-2.12,43.93-11.97,64.99-9.93,21.23-25.7,41.44-46.47,59.68-13.31,11.69-28.66,22.57-45.74,32.43Z"/>
    </g>
    <g id="ELLIPSE">
      <ellipse class="cls-1" cx="650.08" cy="472.73" rx="306.58" ry="177"/>
    </g>
    <g id="ELLIPSE-2" data-name="ELLIPSE">
      <ellipse class="cls-1" cx="650.08" cy="471.96" rx="312.27" ry="180.29"/>
    </g>
    <g id="ELLIPSE-3" data-name="ELLIPSE">
      <ellipse class="cls-1" cx="650.08" cy="511.82" rx="164.94" ry="95.23"/>
    </g>
    <g id="ELLIPSE-4" data-name="ELLIPSE">
      <ellipse class="cls-1" cx="650.08" cy="471.96" rx="352.79" ry="203.68"/>
    </g>
    <g id="ELLIPSE-5" data-name="ELLIPSE">
      <ellipse class="cls-1" cx="650.08" cy="512.59" rx="159.25" ry="91.94"/>
    </g>
  </g>
  <g>
    <g id="SPLINE-2" data-name="SPLINE">
      <path class="cls-2" d="M1216.52,259.95c-17.37,10.03-37.53,18.42-59.44,24.76-21.91,6.33-45.57,10.62-69.8,12.63s-48.99,1.77-73.08-.72c-24.09-2.5-47.48-7.24-68.99-14s-41.17-15.54-57.94-25.91c-16.78-10.37-30.68-22.32-40.98-35.29-10.27-12.92-16.96-26.84-19.69-41.06-2.7-14.06-1.51-28.39,3.5-42.21,5.02-13.87,13.86-27.22,26.05-39.41,12.31-12.31,28.02-23.44,46.33-32.84s39.31-17.11,61.83-22.7c22.51-5.58,46.56-9.06,70.95-10.25,24.38-1.2,49.09-.11,72.88,3.19,23.8,3.31,46.67,8.83,67.47,16.31,20.81,7.48,39.54,16.91,55.25,27.84,15.71,10.92,28.38,23.34,37.37,36.64,8.94,13.24,14.21,27.36,15.51,41.63,1.28,14.11-1.34,28.35-7.7,41.95-6.4,13.69-16.58,26.74-29.99,38.52-8.59,7.54-18.49,14.56-29.51,20.92Z"/>
    </g>
    <g id="ELLIPSE-6" data-name="ELLIPSE">
      <path class="cls-1" d="M1103.69,295.62c-32.15,4.99-66.01,4.99-98.16,0"/>
    </g>
    <g id="ELLIPSE-7" data-name="ELLIPSE">
      <ellipse class="cls-1" cx="1054.61" cy="165.21" rx="189.1" ry="109.18"/>
    </g>
    <g id="ELLIPSE-8" data-name="ELLIPSE">
      <ellipse class="cls-1" cx="1054.61" cy="164.34" rx="194.71" ry="112.42"/>
    </g>
    <g id="ELLIPSE-9" data-name="ELLIPSE">
      <ellipse class="cls-1" cx="1054.61" cy="188.44" rx="116.95" ry="67.52"/>
    </g>
    <g id="ELLIPSE-10" data-name="ELLIPSE">
      <ellipse class="cls-1" cx="1054.61" cy="164.34" rx="227.9" ry="131.58"/>
    </g>
    <g id="ELLIPSE-11" data-name="ELLIPSE">
      <ellipse class="cls-1" cx="1054.61" cy="189.31" rx="111.34" ry="64.28"/>
    </g>
  </g>
</svg>