<?xml version="1.0" encoding="UTF-8"?>
<svg id="TEXT" xmlns="http://www.w3.org/2000/svg" viewBox="0 0 743.83 602.94">
  <defs>
    <style>
      .cls-1 {
        fill: #ddd;
        stroke-width: 0px;
      }
    </style>
  </defs>
  <path class="cls-1" d="M581.03,337.12c-2.98-4.62-7.04-8.34-12.12-11.11,2.58-1.77,4.71-3.65,6.36-5.65,4.81-5.79,7.26-13.45,7.26-22.77s-2.38-16.84-7.06-23.36l-.02-.03c-7.75-10.55-20.88-16.03-39.04-16.3h-71.33v147.3h66.68c7.35,0,14.27-.67,20.57-1.98,6.55-1.37,12.34-3.95,17.18-7.65,4.29-3.22,7.91-7.24,10.77-11.96,4.48-7.11,6.75-15.22,6.75-24.13s-2.01-16.2-5.99-22.37ZM543.9,310.45c-3.3,2.01-7.77,3.03-13.28,3.03h-31.14v-24.82h27.54c6.32,0,11.55.67,15.55,2,2.41,1.03,5.54,3.21,5.54,10.07,0,4.8-1.38,7.98-4.22,9.71ZM543.49,372.26c-2.95,1.44-7.3,2.17-12.91,2.17h-31.1v-31.32h31.54c5.58.06,9.89.77,12.82,2.1,4.88,2.24,7.15,6.13,7.15,12.27,0,7.44-2.46,12.28-7.5,14.78Z"/>
  <path class="cls-1" d="M122.68,350.76c-1.9,6.8-4.27,11.91-7.04,15.17l-.03.03c-4.98,6.06-12.13,9-21.85,9s-17.07-3.51-23.21-10.71c-6.19-7.26-9.32-18.53-9.32-33.51s3-26.78,8.93-34.83c5.79-7.87,13.5-11.69,23.56-11.69s17.24,2.67,22.16,8.14c2.75,3.08,5.08,7.82,6.91,14.09l.66,2.26h36.61l-.17-3.31c-.5-9.37-4.11-18.79-10.74-28-11.97-16.35-31.01-24.63-56.6-24.63-19.18,0-35.23,6.16-47.71,18.3-14.28,13.89-21.53,33.79-21.53,59.18,0,23.48,6.37,42.29,18.93,55.91,12.62,13.62,30.11,20.52,51.99,20.52,17.74,0,32.53-5.13,43.97-15.23,11.4-10.07,18.57-23.3,21.34-39.33l.63-3.67h-36.85l-.64,2.29Z"/>
  <path class="cls-1" d="M301.26,268.45c-11.73-11.48-28.77-17.29-50.64-17.29s-38.92,5.81-50.64,17.29c-15.6,13.51-23.52,33.85-23.52,60.48s7.9,46.44,23.5,60.46c11.73,11.48,28.79,17.31,50.67,17.31s38.94-5.83,50.67-17.31c15.53-14.02,23.39-34.35,23.39-60.46s-7.88-46.98-23.41-60.48ZM284.92,348.94c-1.67,5.81-4.19,10.71-7.52,14.72-6.64,7.92-15.4,11.77-26.79,11.77s-20.21-3.85-26.94-11.79c-6.78-7.99-10.2-19.67-10.2-34.71s3.42-26.72,10.2-34.71c6.73-7.95,15.55-11.82,26.94-11.82s20.15,3.87,26.76,11.84c6.69,8.01,10.08,19.7,10.08,34.69,0,7.52-.86,14.2-2.54,20.01Z"/>
  <polygon class="cls-1" points="377.01 257.9 341.26 257.9 341.26 405.21 447.43 405.21 447.43 373.58 377.01 373.58 377.01 257.9"/>
  <polygon class="cls-1" points="654.31 315.04 627.08 257.9 585.04 257.9 636.02 350 636.02 405.21 671.77 405.21 671.77 349.98 721.04 257.9 680.39 257.9 654.31 315.04"/>
  <path class="cls-1" d="M46.17,227.78c5.37,4.23,12.8,6.38,22.08,6.38s16.28-2.19,21.33-6.5c5.09-4.36,7.68-9.91,7.68-16.5s-2.21-11.47-6.57-14.91c-2.76-2.18-6.91-3.93-12.34-5.21l-12.1-2.85c-4.55-1.06-7.54-1.99-8.89-2.75-1.88-1.02-2.8-2.52-2.8-4.58,0-2.32.96-4.08,2.93-5.38,2.08-1.37,4.95-2.07,8.53-2.07,3.24,0,5.96.54,8.1,1.62,3.12,1.58,4.75,4.18,4.98,7.96l.06,1h15.95l-.04-1.1c-.26-7.63-3.15-13.55-8.6-17.59-5.36-3.97-11.9-5.99-19.46-5.99-9.04,0-16.01,2.15-20.74,6.4-4.76,4.28-7.17,9.72-7.17,16.18,0,7.11,2.5,12.42,7.43,15.8,2.89,2,7.96,3.78,15.5,5.45l7.47,1.64c4.23.91,7.34,1.95,9.23,3.09,1.69,1.05,2.51,2.48,2.51,4.38,0,3.43-1.78,5.71-5.44,6.99-2.04.71-4.77,1.06-8.11,1.06-5.44,0-9.29-1.3-11.46-3.88-1.17-1.4-1.97-3.59-2.39-6.53l-.13-.92h-15.74v1.06c0,7.48,2.76,13.45,8.21,17.75Z"/>
  <polygon class="cls-1" points="182.95 232.39 199.58 232.39 199.58 175.65 220.2 175.65 220.2 161.31 162.22 161.31 162.22 175.65 182.95 175.65 182.95 232.39"/>
  <path class="cls-1" d="M318,234.16c12.28,0,20.75-3.96,25.17-11.77,2.35-4.23,3.54-10.16,3.54-17.64v-43.44h-16.77v43.41c0,4.54-.52,7.87-1.58,9.94-1.57,3.48-4.95,5.17-10.36,5.17s-8.84-1.69-10.43-5.22c-1.04-2.02-1.56-5.35-1.56-9.89v-43.41h-16.77v43.44c0,7.48,1.19,13.41,3.55,17.65,4.45,7.81,12.93,11.76,25.21,11.76Z"/>
  <path class="cls-1" d="M480.33,183.53c-.9-4.12-2.61-7.99-5.09-11.52-3.11-4.41-7.25-7.5-12.29-9.14-2.95-.97-6.62-1.49-10.98-1.55h-30.79v71.06h30.79c10.76,0,18.86-4.5,24.04-13.39,3.76-6.48,5.67-14.5,5.67-23.81,0-3.69-.45-7.61-1.35-11.64ZM462.78,208.9c-2.52,6.3-6.87,9.39-13.26,9.39h-12.22v-42.88h12.22c6.12,0,10.24,1.73,12.22,5.11,2.09,3.58,3.17,8.85,3.17,15.62,0,4.93-.72,9.23-2.14,12.76Z"/>
  <rect class="cls-1" x="551.93" y="161.31" width="16.44" height="71.08"/>
  <path class="cls-1" d="M697.38,167.57c-5.4-5.56-13.26-8.37-23.36-8.37s-17.96,2.81-23.3,8.33c-7.2,6.5-10.83,16.34-10.83,29.22s3.62,22.46,10.76,29.19c5.4,5.56,13.26,8.37,23.36,8.37s17.96-2.81,23.34-8.35c7.14-6.78,10.76-16.59,10.76-29.22s-3.65-22.71-10.74-29.17ZM686.78,214.05c-1.58,2-3.42,3.47-5.54,4.46-2.12.97-4.5,1.46-7.23,1.46-5.42,0-9.61-1.94-12.83-5.92-3.22-4.01-4.86-9.81-4.86-17.31s1.64-13.28,4.86-17.29c3.22-3.98,7.41-5.92,12.83-5.92s9.59,1.94,12.76,5.94c3.17,4.01,4.79,9.81,4.79,17.26s-1.62,13.3-4.79,17.31Z"/>
</svg>