<?xml version="1.0" encoding="UTF-8"?>
<svg id="GRAPHIC" xmlns="http://www.w3.org/2000/svg" viewBox="0 0 1584 720">
  <defs>
    <style>
      .cls-1 {
        stroke-width: .24px;
      }

      .cls-1, .cls-2 {
        fill: none;
        stroke: #000;
        stroke-linecap: round;
        stroke-linejoin: round;
      }

      .cls-2 {
        stroke-width: .58px;
      }
    </style>
  </defs>
  <g id="ELLIPSE">
    <path class="cls-1" d="M677.7,246.18c0,.33.09.56.25.61"/>
  </g>
  <g id="ELLIPSE-2" data-name="ELLIPSE">
    <path class="cls-1" d="M919.4,323.14c0,.33.09.56.25.61"/>
  </g>
  <g id="LINE">
    <line class="cls-2" x1="677.87" y1="235.43" x2="919.57" y2="312.39"/>
  </g>
  <g id="SPLINE">
    <path class="cls-2" d="M919.57,312.39c1.19.38,2.33.81,3.43,1.3,3.23,1.43,6.05,3.32,8.3,5.55,2.12,2.11,3.72,4.52,4.73,7.12.89,2.3,1.32,4.74,1.27,7.23-.03,1.58-.26,3.18-.68,4.77"/>
  </g>
  <g id="ELLIPSE-3" data-name="ELLIPSE">
    <path class="cls-1" d="M756.19,24.19s0,0,0,0"/>
  </g>
  <g id="LINE-2" data-name="LINE">
    <line class="cls-1" x1="756.18" y1="24.19" x2="997.87" y2="101.15"/>
  </g>
  <g id="ELLIPSE-4" data-name="ELLIPSE">
    <path class="cls-1" d="M997.87,101.15s0,0,0,0"/>
  </g>
  <g id="SPLINE-2" data-name="SPLINE">
    <path class="cls-1" d="M997.87,101.15c13.57,4.32,26.33,9.77,38.04,16.24,11.73,6.48,22.39,13.98,31.79,22.36,8.65,7.71,16.21,16.15,22.57,25.18,6.35,9.03,11.49,18.65,15.3,28.68,3.88,10.2,6.4,20.83,7.51,31.7,1.11,10.87.83,21.97-.85,33.11-1.6,10.59-4.45,21.21-8.52,31.69-4.95,12.76-11.71,25.31-20.1,37.34-7.37,10.56-16,20.71-25.73,30.27-9.73,9.56-20.56,18.53-32.27,26.75-12.67,8.88-26.38,16.88-40.83,23.81-12.86,6.17-26.31,11.5-40.12,15.87-9.21,2.92-18.57,5.41-28.02,7.46s-18.98,3.66-28.53,4.83c-19.09,2.34-38.21,2.9-56.78,1.67-10.98-.73-21.76-2.07-32.24-4.04-9.82-1.84-19.36-4.23-28.55-7.15"/>
  </g>
  <g id="ELLIPSE-5" data-name="ELLIPSE">
    <path class="cls-1" d="M770.54,426.91c-.08.48,0,.85.22.92"/>
  </g>
  <g id="ELLIPSE-6" data-name="ELLIPSE">
    <path class="cls-1" d="M528.85,349.96c-.08.48,0,.85.22.92"/>
  </g>
  <g id="LINE-3" data-name="LINE">
    <line class="cls-1" x1="770.54" y1="426.91" x2="528.85" y2="349.96"/>
  </g>
  <g id="SPLINE-3" data-name="SPLINE">
    <path class="cls-1" d="M528.85,349.96c-9.18-2.92-18-6.39-26.37-10.34-8.93-4.22-17.36-8.98-25.19-14.25-13.24-8.9-24.77-19.22-34.24-30.65-4.73-5.71-8.95-11.7-12.61-17.93-3.66-6.23-6.78-12.69-9.31-19.34-3.8-9.98-6.3-20.39-7.46-31.02-1.3-11.95-.92-24.19,1.15-36.45,1.91-11.34,5.26-22.69,9.98-33.84,4.72-11.16,10.82-22.11,18.19-32.67,5.11-7.32,10.83-14.46,17.1-21.33"/>
  </g>
  <g id="SPLINE-4" data-name="SPLINE">
    <path class="cls-1" d="M746.03,21.21c3.43.93,6.82,1.92,10.16,2.98"/>
  </g>
  <g id="LINE-4" data-name="LINE">
    <line class="cls-1" x1="997.87" y1="101.15" x2="994.94" y2="100.35"/>
  </g>
  <g id="SPLINE-5" data-name="SPLINE">
    <path class="cls-1" d="M771.65,420.29c9.36,2.98,19.09,5.41,29.11,7.27,9.08,1.69,18.4,2.9,27.87,3.64,20.38,1.58,41.48.93,62.48-1.92,11.19-1.52,22.35-3.67,33.36-6.42,19.15-4.78,37.83-11.38,55.43-19.59,11.32-5.28,22.2-11.22,32.48-17.75,15.39-9.77,29.44-20.85,41.7-32.89,9.54-9.37,18.01-19.33,25.24-29.68,7.23-10.35,13.22-21.1,17.87-32.05,5.97-14.07,9.7-28.45,11.09-42.71.93-9.52.81-18.99-.35-28.27-1.8-14.42-6.12-28.38-12.83-41.42-3.85-7.5-8.49-14.69-13.86-21.5-10.08-12.79-22.74-24.21-37.51-33.84-6.86-4.47-14.17-8.56-21.87-12.22-8.52-4.06-17.52-7.6-26.91-10.58"/>
  </g>
  <g id="LINE-5" data-name="LINE">
    <line class="cls-1" x1="756.18" y1="24.19" x2="753.25" y2="23.4"/>
  </g>
  <g id="LINE-6" data-name="LINE">
    <line class="cls-1" x1="994.94" y1="100.35" x2="753.25" y2="23.4"/>
  </g>
  <g id="SPLINE-6" data-name="SPLINE">
    <path class="cls-1" d="M882.91,361.5c2.36.75,4.87,1.29,7.46,1.61,2.37.29,4.82.39,7.28.3,4.9-.17,9.9-1.1,14.6-2.7,3.26-1.11,6.38-2.53,9.25-4.22,3.26-1.92,6.2-4.17,8.7-6.66,1.56-1.55,2.95-3.2,4.14-4.9s2.18-3.47,2.96-5.27c1.25-2.88,1.95-5.84,2.05-8.75.1-2.71-.31-5.38-1.23-7.89-1.04-2.85-2.73-5.51-4.99-7.82-2.4-2.46-5.44-4.53-8.94-6.09-1.19-.53-2.44-1-3.72-1.41"/>
  </g>
  <g id="SPLINE-7" data-name="SPLINE">
    <path class="cls-1" d="M992.37,103.18c9.18,2.92,17.99,6.39,26.33,10.36,7.53,3.59,14.68,7.59,21.39,11.97,14.45,9.43,26.83,20.63,36.67,33.15,5.25,6.67,9.77,13.73,13.53,21.07,6.54,12.78,10.75,26.46,12.5,40.57,1.12,9.09,1.23,18.35.31,27.67-1.37,13.96-5.03,28.03-10.87,41.78-4.54,10.7-10.4,21.21-17.47,31.33-7.06,10.12-15.34,19.84-24.66,29-11.98,11.77-25.71,22.59-40.75,32.13-10.04,6.37-20.67,12.18-31.74,17.34-17.2,8.02-35.47,14.47-54.19,19.14-10.77,2.69-21.68,4.79-32.63,6.28-20.54,2.8-41.19,3.43-61.13,1.88-9.27-.72-18.38-1.91-27.27-3.56-9.81-1.82-19.33-4.2-28.49-7.11"/>
  </g>
  <g id="SPLINE-8" data-name="SPLINE">
    <path class="cls-1" d="M641.22,284.54c.42-.21.82-.29,1.19-.23.07.01.14.03.21.05"/>
  </g>
  <g id="LINE-7" data-name="LINE">
    <line class="cls-1" x1="641.22" y1="284.54" x2="882.91" y2="361.5"/>
  </g>
  <g id="LINE-8" data-name="LINE">
    <line class="cls-1" x1="773.91" y1="416.19" x2="532.22" y2="339.23"/>
  </g>
  <g id="LINE-9" data-name="LINE">
    <line class="cls-1" x1="529.96" y1="343.33" x2="771.65" y2="420.29"/>
  </g>
  <g id="LINE-10" data-name="LINE">
    <line class="cls-1" x1="920.46" y1="307.7" x2="678.77" y2="230.74"/>
  </g>
  <g id="LINE-11" data-name="LINE">
    <line class="cls-1" x1="750.68" y1="26.22" x2="992.37" y2="103.18"/>
  </g>
  <g id="SPLINE-9" data-name="SPLINE">
    <path class="cls-1" d="M678.77,230.74c-1.29-.41-2.62-.76-3.98-1.04-4.01-.83-8.32-1.1-12.66-.79-4.09.29-8.21,1.1-12.14,2.37-3.47,1.12-6.78,2.6-9.82,4.37-3.26,1.9-6.21,4.15-8.7,6.63-1.56,1.55-2.95,3.19-4.14,4.9-1.19,1.71-2.18,3.47-2.96,5.28-1.25,2.88-1.94,5.85-2.05,8.77-.09,2.57.27,5.11,1.09,7.51,1.18,3.47,3.31,6.67,6.24,9.33,1.47,1.34,3.15,2.55,4.99,3.6,2.01,1.15,4.23,2.11,6.59,2.86"/>
  </g>
  <g id="SPLINE-10" data-name="SPLINE">
    <path class="cls-2" d="M631.35,277.68c-2.1-2.19-3.68-4.69-4.65-7.39-.81-2.23-1.2-4.59-1.16-6.99.05-2.72.65-5.5,1.79-8.19.71-1.68,1.63-3.33,2.73-4.92,1.11-1.59,2.4-3.11,3.87-4.54,2.34-2.29,5.11-4.34,8.16-6.06,2.85-1.6,5.95-2.92,9.18-3.91,3.66-1.12,7.47-1.8,11.25-2.03,4.01-.24,7.98.03,11.68.81,1.26.26,2.48.59,3.67.96"/>
  </g>
  <g id="SPLINE-11" data-name="SPLINE">
    <path class="cls-1" d="M532.22,339.23c-9.15-2.91-17.93-6.36-26.24-10.31-7.53-3.58-14.69-7.57-21.4-11.94-14.45-9.4-26.82-20.55-36.66-33.02-5.24-6.64-9.77-13.66-13.52-20.97-6.53-12.71-10.74-26.32-12.47-40.37-1.12-9.04-1.22-18.26-.3-27.54,1.37-13.9,5.04-27.92,10.87-41.64,4.54-10.68,10.4-21.17,17.46-31.29,7.06-10.12,15.32-19.86,24.64-29.05,11.97-11.8,25.67-22.68,40.7-32.28,10.03-6.42,20.65-12.27,31.71-17.48,17.18-8.09,35.43-14.62,54.14-19.36,10.76-2.72,21.66-4.86,32.6-6.38,20.53-2.86,41.17-3.54,61.11-2.02,9.26.71,18.37,1.88,27.26,3.52,9.84,1.82,19.4,4.2,28.58,7.12"/>
  </g>
  <g id="SPLINE-12" data-name="SPLINE">
    <path class="cls-1" d="M488.96,75.35c-6.4,5.14-12.45,10.52-18.13,16.11-9.54,9.39-18,19.35-25.22,29.71-7.22,10.35-13.21,21.1-17.85,32.03-5.96,14.05-9.69,28.41-11.08,42.65-.92,9.5-.81,18.95.35,28.2,1.8,14.39,6.13,28.31,12.83,41.32,3.85,7.48,8.49,14.66,13.86,21.45,10.08,12.75,22.75,24.16,37.52,33.77,6.86,4.46,14.18,8.54,21.88,12.2,8.5,4.04,17.47,7.56,26.83,10.54"/>
  </g>
  <g id="ELLIPSE-7" data-name="ELLIPSE">
    <path class="cls-1" d="M559.02,594.59c-.48.9,3.34,3.29,8.53,5.33,5.19,2.04,9.79,2.96,10.27,2.06.01-.02.02-.05.03-.07"/>
  </g>
  <g id="ELLIPSE-8" data-name="ELLIPSE">
    <path class="cls-1" d="M552.8,606.29c-.55,1.04,3.86,3.8,9.85,6.15,6,2.36,11.31,3.42,11.86,2.38.01-.03.03-.06.03-.09"/>
  </g>
  <g id="ELLIPSE-9" data-name="ELLIPSE">
    <path class="cls-1" d="M1050.64,504.22c3,3.52,8.67,3.24,12.65-.63s4.78-9.87,1.78-13.39c-.62-.73-1.37-1.31-2.23-1.73"/>
  </g>
  <g id="ELLIPSE-10" data-name="ELLIPSE">
    <path class="cls-1" d="M1055.53,509.95c3.47,4.07,10.01,3.74,14.61-.73,4.6-4.47,5.52-11.39,2.05-15.46-.72-.84-1.59-1.51-2.58-2"/>
  </g>
  <g id="ELLIPSE-11" data-name="ELLIPSE">
    <path class="cls-1" d="M828.24,683.06c-.09.35,4.33,1.21,9.87,1.91,5.54.7,10.1.99,10.18.64,0,0,0,0,0,0"/>
  </g>
  <g id="ELLIPSE-12" data-name="ELLIPSE">
    <path class="cls-1" d="M825.01,695.99c-.1.41,5,1.4,11.39,2.21s11.66,1.14,11.76.74c0,0,0,0,0-.01"/>
  </g>
  <g id="SPLINE-13" data-name="SPLINE">
    <path class="cls-2" d="M634.64,280.49s-.03-.05-.05-.08c-.65-1.04-1.18-2.14-1.57-3.27s-.67-2.32-.81-3.53c-.14-1.21-.14-2.44,0-3.68s.39-2.48.79-3.72.91-2.45,1.55-3.64,1.39-2.35,2.27-3.48,1.84-2.21,2.92-3.25,2.24-2.01,3.5-2.93,2.59-1.77,3.99-2.54c1.4-.77,2.87-1.47,4.38-2.08,1.51-.61,3.07-1.14,4.66-1.58s3.2-.78,4.82-1.03,3.24-.4,4.85-.45,3.2-.01,4.76.13c1.27.11,2.52.29,3.74.53s2.4.54,3.53.91"/>
  </g>
  <g id="SPLINE-14" data-name="SPLINE">
    <path class="cls-2" d="M934.71,343.15c0-.06.01-.12.02-.18.08-.93.08-1.85,0-2.76s-.22-1.8-.45-2.68-.52-1.74-.89-2.57-.81-1.65-1.33-2.43-1.1-1.53-1.75-2.25-1.37-1.4-2.15-2.03-1.62-1.24-2.52-1.79-1.85-1.06-2.86-1.51-2.06-.86-3.15-1.21"/>
  </g>
  <g id="LINE-12" data-name="LINE">
    <line class="cls-2" x1="677.95" y1="246.79" x2="919.64" y2="323.75"/>
  </g>
  <g id="LINE-13" data-name="LINE">
    <line class="cls-2" x1="756.19" y1="24.19" x2="997.88" y2="101.15"/>
  </g>
  <g id="ARC">
    <path class="cls-2" d="M770.7,428.04c49.69,14.42,102.21,15.44,152.25,3.09"/>
  </g>
  <g id="SPLINE-15" data-name="SPLINE">
    <path class="cls-2" d="M969.65,416.02c2.84-1.17,5.66-2.39,8.45-3.64,2.79-1.26,5.56-2.55,8.31-3.89,2.75-1.34,5.46-2.71,8.15-4.12s5.35-2.86,7.98-4.35,5.23-3.01,7.8-4.57c2.57-1.56,5.1-3.15,7.6-4.78,2.5-1.63,4.96-3.29,7.38-4.98,2.42-1.69,4.81-3.42,7.16-5.17s4.65-3.54,6.92-5.36c2.27-1.82,4.49-3.66,6.67-5.53,2.18-1.87,4.32-3.77,6.41-5.7,2.09-1.93,4.14-3.88,6.14-5.86,2-1.98,3.95-3.98,5.86-6.01s3.76-4.07,5.57-6.14c1.8-2.07,3.56-4.16,5.26-6.27,1.7-2.11,3.36-4.24,4.96-6.39s3.15-4.31,4.64-6.49,2.93-4.38,4.32-6.59c1.39-2.21,2.72-4.44,3.99-6.68,1.28-2.24,2.5-4.5,3.66-6.77,1.16-2.27,2.27-4.55,3.32-6.84s2.04-4.59,2.97-6.9c.93-2.31,1.81-4.62,2.63-6.94.82-2.32,1.57-4.65,2.27-6.98.7-2.33,1.34-4.66,1.91-7,.58-2.34,1.09-4.67,1.55-7.01.46-2.34.85-4.68,1.19-7.01s.61-4.67.82-7c.21-2.33.36-4.66.46-6.98s.12-4.63.09-6.94-.12-4.6-.28-6.89-.37-4.56-.64-6.83-.61-4.52-1.01-6.76-.85-4.47-1.37-6.68c-.52-2.21-1.09-4.41-1.73-6.58s-1.33-4.34-2.08-6.48c-.75-2.14-1.56-4.26-2.43-6.36-.87-2.1-1.8-4.19-2.78-6.25-.99-2.07-2.03-4.11-3.13-6.13s-2.26-4.03-3.48-6.01-2.49-3.94-3.82-5.87-2.72-3.84-4.16-5.72-2.94-3.74-4.49-5.57c-1.55-1.83-3.16-3.63-4.81-5.4s-3.37-3.51-5.13-5.22-3.57-3.39-5.43-5.03c-1.86-1.64-3.77-3.25-5.73-4.83s-3.96-3.12-6.02-4.62c-2.05-1.5-4.15-2.97-6.29-4.4-1.89-1.26-3.82-2.5-5.78-3.7-3.43-2.11-6.96-4.12-10.58-6.04-2.72-1.44-5.49-2.82-8.31-4.15-2.12-1-4.26-1.96-6.44-2.9-3.26-1.4-6.58-2.73-9.96-3.99-3.38-1.26-6.81-2.44-10.3-3.55"/>
  </g>
  <g id="LINE-14" data-name="LINE">
    <line class="cls-2" x1="529.07" y1="350.88" x2="770.7" y2="428.04"/>
  </g>
  <g id="SPLINE-16" data-name="SPLINE">
    <path class="cls-2" d="M529.07,350.88c-2.62-.83-5.2-1.71-7.76-2.63-2.57-.92-5.11-1.89-7.61-2.9-2.52-1.01-5-2.07-7.45-3.17s-4.88-2.25-7.27-3.43c-2.39-1.19-4.75-2.42-7.06-3.69-2.32-1.27-4.6-2.58-6.84-3.93-2.24-1.35-4.44-2.74-6.6-4.17s-4.27-2.89-6.34-4.4c-2.07-1.5-4.09-3.04-6.07-4.61-1.98-1.57-3.9-3.18-5.78-4.82-1.88-1.64-3.71-3.32-5.49-5.02-1.78-1.71-3.5-3.44-5.18-5.21s-3.29-3.56-4.86-5.39-3.08-3.68-4.54-5.56c-1.46-1.88-2.86-3.78-4.2-5.71s-2.63-3.88-3.86-5.86c-1.23-1.97-2.4-3.97-3.52-5.99-1.11-2.02-2.17-4.05-3.17-6.12-1-2.06-1.94-4.14-2.82-6.23-.88-2.1-1.7-4.21-2.47-6.35-.76-2.14-1.47-4.29-2.12-6.46-.65-2.18-1.24-4.37-1.77-6.57s-1-4.44-1.41-6.67c-.41-2.24-.76-4.5-1.05-6.76s-.52-4.55-.69-6.84-.28-4.59-.32-6.9c-.05-2.31-.03-4.63.04-6.95.08-2.32.21-4.65.41-6.98.2-2.33.46-4.67.78-7.01s.7-4.68,1.14-7.02.94-4.68,1.51-7.02c.56-2.34,1.19-4.68,1.87-7.01.68-2.33,1.43-4.66,2.23-6.99s1.66-4.64,2.58-6.95c.92-2.31,1.9-4.61,2.93-6.91,1-2.21,2.05-4.41,3.15-6.6.97-1.92,1.97-3.82,3.02-5.72,1.83-3.32,3.78-6.62,5.86-9.88,1.55-2.45,3.17-4.87,4.86-7.28,1.26-1.8,2.57-3.6,3.9-5.38,2.01-2.67,4.09-5.31,6.25-7.92,2.16-2.61,4.41-5.18,6.72-7.72"/>
  </g>
  <g id="ARC-2" data-name="ARC">
    <path class="cls-2" d="M756.19,24.19c-3.37-1.07-9.49-3.04-12.9-3.96"/>
  </g>
  <g id="SPLINE-17" data-name="SPLINE">
    <path class="cls-2" d="M884.31,361.32c2.94.94,6.22,1.54,9.66,1.74s7.19-.01,10.84-.65,7.25-1.69,10.64-3.11c3.36-1.4,6.51-3.16,9.27-5.16,2.73-1.98,5.09-4.19,6.97-6.49s3.28-4.68,4.18-6.98c.3-.77.55-1.54.75-2.29"/>
  </g>
  <g id="SPLINE-18" data-name="SPLINE">
    <path class="cls-2" d="M1096.18,308.04c-.12.24-.25.47-.37.71-4.16,7.99-9.05,15.85-14.6,23.45-5.61,7.68-11.91,15.13-18.81,22.26-6.91,7.14-14.44,14-22.48,20.47-8,6.44-16.54,12.53-25.5,18.17-8.88,5.6-18.21,10.79-27.85,15.48-9.76,4.75-19.9,9.02-30.27,12.73-8.01,2.86-16.18,5.39-24.43,7.58-2.75.73-5.51,1.42-8.27,2.07-.52.12-1.03.24-1.55.36"/>
  </g>
  <g id="LINE-15" data-name="LINE">
    <line class="cls-2" x1="642.62" y1="284.36" x2="884.31" y2="361.32"/>
  </g>
  <g id="ARC-3" data-name="ARC">
    <path class="cls-2" d="M631.35,277.69c3.15,3.12,7.02,5.41,11.27,6.66"/>
  </g>
  <g id="ARC-4" data-name="ARC">
    <path class="cls-2" d="M743.29,20.23c-88.75-21.52-182.46-1.22-254.35,55.09"/>
  </g>
  <g id="ARC-5" data-name="ARC">
    <path class="cls-2" d="M494.98,70.66c-12.59,9.38-24.27,19.92-34.89,31.48"/>
  </g>
  <g id="LINE-16" data-name="LINE">
    <line class="cls-2" x1="967.7" y1="416.98" x2="1063.53" y2="491.2"/>
  </g>
  <g id="LINE-17" data-name="LINE">
    <line class="cls-2" x1="949.46" y1="423.67" x2="1053.45" y2="504.21"/>
  </g>
  <g id="LINE-18" data-name="LINE">
    <line class="cls-2" x1="885.8" y1="361.75" x2="888.9" y2="352.93"/>
  </g>
  <g id="LINE-19" data-name="LINE">
    <line class="cls-2" x1="902.91" y1="362.7" x2="904.42" y2="358.39"/>
  </g>
  <g id="LINE-20" data-name="LINE">
    <line class="cls-2" x1="877.71" y1="438.47" x2="846.53" y2="684.63"/>
  </g>
  <g id="LINE-21" data-name="LINE">
    <line class="cls-2" x1="860.99" y1="439.49" x2="830.14" y2="682.63"/>
  </g>
  <g id="LINE-22" data-name="LINE">
    <line class="cls-2" x1="889" y1="352.65" x2="894.5" y2="337.03"/>
  </g>
  <g id="LINE-23" data-name="LINE">
    <line class="cls-2" x1="904.52" y1="358.11" x2="910.01" y2="342.48"/>
  </g>
  <g id="LINE-24" data-name="LINE">
    <line class="cls-2" x1="894.54" y1="336.89" x2="901.22" y2="317.89"/>
  </g>
  <g id="LINE-25" data-name="LINE">
    <line class="cls-2" x1="910.07" y1="342.35" x2="916.91" y2="322.88"/>
  </g>
  <g id="LINE-26" data-name="LINE">
    <line class="cls-2" x1="706.38" y1="295.02" x2="703.33" y2="303.69"/>
  </g>
  <g id="LINE-27" data-name="LINE">
    <line class="cls-2" x1="690.86" y1="289.57" x2="687.65" y2="298.7"/>
  </g>
  <g id="LINE-28" data-name="LINE">
    <line class="cls-2" x1="560.75" y1="595.31" x2="641.74" y2="386.75"/>
  </g>
  <g id="LINE-29" data-name="LINE">
    <line class="cls-2" x1="576.1" y1="601.27" x2="657.45" y2="391.76"/>
  </g>
  <g id="LINE-30" data-name="LINE">
    <line class="cls-2" x1="711.88" y1="279.4" x2="706.38" y2="295.02"/>
  </g>
  <g id="LINE-31" data-name="LINE">
    <line class="cls-2" x1="696.4" y1="273.8" x2="690.86" y2="289.57"/>
  </g>
  <g id="LINE-32" data-name="LINE">
    <line class="cls-2" x1="718.77" y1="259.79" x2="711.88" y2="279.4"/>
  </g>
  <g id="LINE-33" data-name="LINE">
    <line class="cls-2" x1="703.08" y1="254.8" x2="696.4" y2="273.8"/>
  </g>
  <g id="SPLINE-19" data-name="SPLINE">
    <path class="cls-2" d="M560.75,595.31s-.02-.02.07.09c.12.14.33.34.61.55.35.27.8.57,1.34.89.58.34,1.26.7,2,1.06s1.58.73,2.42,1.08,1.72.68,2.58.97,1.68.55,2.45.76,1.46.36,2.06.47,1.06.14,1.4.14c.3,0,.39-.03.41-.04"/>
  </g>
  <g id="SPLINE-20" data-name="SPLINE">
    <path class="cls-2" d="M577.86,601.9c.05-.2.03-.4-.03-.57-.1-.3-.28-.53-.51-.77-.2-.2-.43-.41-.71-.63"/>
  </g>
  <g id="SPLINE-21" data-name="SPLINE">
    <path class="cls-2" d="M561.27,593.98c-.29-.03-.56-.04-.8-.03-.3,0-.56.04-.8.13s-.5.23-.65.51"/>
  </g>
  <g id="LINE-34" data-name="LINE">
    <line class="cls-2" x1="577.86" y1="601.9" x2="574.55" y2="614.74"/>
  </g>
  <g id="LINE-35" data-name="LINE">
    <line class="cls-2" x1="559.02" y1="594.59" x2="552.8" y2="606.29"/>
  </g>
  <g id="ARC-6" data-name="ARC">
    <path class="cls-2" d="M574.55,614.74c-.23.9-.57,1.76-1,2.58-3.05,5.73-10.16,7.9-15.89,4.86s-7.9-10.16-4.86-15.89"/>
  </g>
  <g id="SPLINE-22" data-name="SPLINE">
    <path class="cls-2" d="M1052.81,503.78c.58.45,1.24.78,1.97.97s1.49.26,2.28.18,1.57-.28,2.34-.61,1.5-.77,2.18-1.32,1.28-1.19,1.8-1.9.94-1.49,1.25-2.29.5-1.63.57-2.44.01-1.61-.16-2.35-.47-1.44-.87-2.04c-.33-.5-.74-.94-1.21-1.3"/>
  </g>
  <g id="ARC-7" data-name="ARC">
    <path class="cls-2" d="M1062.84,488.47c-1.18-.56-2.48-.82-3.79-.74"/>
  </g>
  <g id="ARC-8" data-name="ARC">
    <path class="cls-2" d="M1048.97,500.74c.25,1.28.83,2.48,1.67,3.48"/>
  </g>
  <g id="LINE-36" data-name="LINE">
    <line class="cls-2" x1="1062.84" y1="488.47" x2="1069.61" y2="491.77"/>
  </g>
  <g id="LINE-37" data-name="LINE">
    <line class="cls-2" x1="1050.64" y1="504.22" x2="1055.53" y2="509.95"/>
  </g>
  <g id="ARC-9" data-name="ARC">
    <path class="cls-2" d="M1069.61,491.77c1.46.71,2.75,1.71,3.8,2.94,4.21,4.94,3.62,12.35-1.32,16.56-4.94,4.21-12.35,3.62-16.56-1.32"/>
  </g>
  <g id="ARC-10" data-name="ARC">
    <path class="cls-2" d="M830.14,682.63c5.55,1.33,10.68,1.9,16.39,2"/>
  </g>
  <g id="SPLINE-23" data-name="SPLINE">
    <path class="cls-2" d="M848.29,685.47c0-.09-.02-.18-.05-.25-.03-.08-.08-.14-.11-.18-.06-.07-.12-.11-.17-.15-.17-.11-.32-.17-.53-.23-.24-.08-.54-.16-.9-.24"/>
  </g>
  <g id="SPLINE-24" data-name="SPLINE">
    <path class="cls-2" d="M830.21,682.34c-.11,0-.21,0-.3,0-.53,0-.84,0-1.18.11-.06.02-.13.05-.22.11-.04.03-.08.06-.13.11-.05.06-.11.15-.14.26"/>
  </g>
  <g id="LINE-38" data-name="LINE">
    <line class="cls-2" x1="848.29" y1="685.47" x2="848.16" y2="698.92"/>
  </g>
  <g id="LINE-39" data-name="LINE">
    <line class="cls-2" x1="828.24" y1="682.93" x2="825.01" y2="695.99"/>
  </g>
  <g id="ARC-11" data-name="ARC">
    <path class="cls-2" d="M848.16,698.92c0,.91-.12,1.82-.34,2.71-1.56,6.3-7.93,10.14-14.23,8.58-6.3-1.56-10.14-7.93-8.58-14.23"/>
  </g>
</svg>