<?xml version="1.0" encoding="UTF-8"?>
<svg id="GRAPHIC" xmlns="http://www.w3.org/2000/svg" viewBox="0 0 1584 720">
  <defs>
    <style>
      .cls-1 {
        stroke-miterlimit: 10;
        stroke-width: .26px;
      }

      .cls-1, .cls-2, .cls-3 {
        fill: none;
        stroke: #000;
      }

      .cls-4 {
        stroke-width: 0px;
      }

      .cls-2 {
        stroke-width: .69px;
      }

      .cls-2, .cls-3 {
        stroke-linecap: round;
        stroke-linejoin: round;
      }

      .cls-3 {
        stroke-width: .43px;
      }
    </style>
  </defs>
  <g>
    <g id="ELLIPSE">
      <ellipse class="cls-1" cx="674.49" cy="144.89" rx="1.91" ry="4.08" transform="translate(525.5 818.48) rotate(-89.65)"/>
    </g>
    <g id="ELLIPSE-2" data-name="ELLIPSE">
      <ellipse class="cls-1" cx="1004.13" cy="253.03" rx="1.91" ry="4.08" transform="translate(744.99 1255.6) rotate(-89.65)"/>
    </g>
    <g id="ELLIPSE-3" data-name="ELLIPSE">
      <ellipse class="cls-1" cx="772.06" cy="345.21" rx="1.91" ry="4.08" transform="translate(422.16 1115.15) rotate(-89.65)"/>
    </g>
    <g id="ELLIPSE-4" data-name="ELLIPSE">
      <ellipse class="cls-1" cx="1081.49" cy="222.31" rx="1.91" ry="4.08" transform="translate(852.6 1302.42) rotate(-89.65)"/>
    </g>
    <g id="ELLIPSE-5" data-name="ELLIPSE">
      <ellipse class="cls-1" cx="751.85" cy="114.16" rx="1.91" ry="4.08" transform="translate(633.11 865.3) rotate(-89.65)"/>
    </g>
    <g id="ELLIPSE-6" data-name="ELLIPSE">
      <ellipse class="cls-1" cx="597.13" cy="175.61" rx="1.91" ry="4.08" transform="translate(417.89 771.67) rotate(-89.65)"/>
    </g>
    <g id="ELLIPSE-7" data-name="ELLIPSE">
      <ellipse class="cls-1" cx="926.78" cy="283.76" rx="1.91" ry="4.08" transform="translate(637.38 1208.79) rotate(-89.65)"/>
    </g>
    <g id="ELLIPSE-8" data-name="ELLIPSE">
      <ellipse class="cls-1" cx="849.42" cy="314.48" rx="1.91" ry="4.08" transform="translate(529.77 1161.97) rotate(-89.65)"/>
    </g>
    <g id="ELLIPSE-9" data-name="ELLIPSE">
      <ellipse class="cls-1" cx="519.78" cy="206.34" rx="1.91" ry="4.08" transform="translate(310.28 724.85) rotate(-89.65)"/>
    </g>
    <g id="ELLIPSE-10" data-name="ELLIPSE">
      <ellipse class="cls-1" cx="829.2" cy="83.44" rx="1.91" ry="4.08" transform="translate(740.71 912.12) rotate(-89.65)"/>
    </g>
    <g id="ELLIPSE-11" data-name="ELLIPSE">
      <path class="cls-1" d="M1120.07,221.5c.01-2.29-1.73-4.52-4.92-6.27"/>
    </g>
    <g id="LINE">
      <line class="cls-1" x1="1115.15" y1="215.23" x2="849.59" y2="69.05"/>
    </g>
    <g id="ELLIPSE-12" data-name="ELLIPSE">
      <path class="cls-1" d="M849.59,69.05c-7.33-4.04-20.2-4.56-28.75-1.16"/>
    </g>
    <g id="ELLIPSE-13" data-name="ELLIPSE">
      <path class="cls-1" d="M488.21,200c-4.5,1.79-7.09,4.41-7.11,7.18"/>
    </g>
    <g id="ELLIPSE-14" data-name="ELLIPSE">
      <path class="cls-1" d="M867.81,91.07c-6.9.09-13.5,1.27-18.74,3.35"/>
    </g>
    <g id="LINE-2" data-name="LINE">
      <line class="cls-1" x1="849.07" y1="94.42" x2="539.65" y2="217.32"/>
    </g>
    <g id="ELLIPSE-15" data-name="ELLIPSE">
      <path class="cls-1" d="M539.65,217.32c-5.24,2.08-8.8,4.94-10.11,8.11"/>
    </g>
    <g id="ELLIPSE-16" data-name="ELLIPSE">
      <path class="cls-1" d="M721.18,339.01c5.74,2.11,13.81,2.05,19.32-.14"/>
    </g>
    <g id="LINE-3" data-name="LINE">
      <line class="cls-1" x1="740.49" y1="338.87" x2="1073.13" y2="206.75"/>
    </g>
    <g id="ELLIPSE-17" data-name="ELLIPSE">
      <path class="cls-1" d="M1073.13,206.75c5.51-2.19,6.93-5.9,3.41-8.89"/>
    </g>
    <g id="LINE-4" data-name="LINE">
      <line class="cls-1" x1="488.21" y1="200" x2="820.84" y2="67.88"/>
    </g>
    <g id="ARC">
      <path class="cls-1" d="M1078.09,199.63c-.41-.67-.94-1.27-1.55-1.77"/>
    </g>
    <g id="ARC-2" data-name="ARC">
      <path class="cls-1" d="M864.31,90.85c1.16.17,2.33.24,3.51.21"/>
    </g>
    <g id="SPLINE">
      <path class="cls-1" d="M1078.09,199.63s.05.09.08.14c.4.77.4,1.5,0,2.17-.35.57-1,1.08-1.9,1.5-.77.35-1.71.64-2.81.84-.1.02-.2.04-.3.05"/>
    </g>
    <g id="SPLINE-2" data-name="SPLINE">
      <path class="cls-1" d="M1073.14,204.33c-3.44.59-6.87,1.13-10.29,1.63-8.94,1.3-13.78,1.73-18.66,2.26-9.51,1.04-19.21,2.42-28.98,4.15-46.75,8.26-90.02,23.4-125,38.39-45.17,19.36-84.37,41.94-118.09,64.79-5.56,3.77-8.54,5.89-14.48,9.86-5.69,3.79-11.41,7.47-17.14,11.04"/>
    </g>
    <g id="ARC-3" data-name="ARC">
      <path class="cls-1" d="M724.95,339.89c5.42.53,10.87-.68,15.56-3.43"/>
    </g>
    <g id="SPLINE-3" data-name="SPLINE">
      <path class="cls-1" d="M530.4,223.47c.27-.59.58-1.18.92-1.76,1.22-2.1,2.88-4.15,4.92-6.11,1.05-1.01,2.2-2,3.44-2.94"/>
    </g>
    <g id="SPLINE-4" data-name="SPLINE">
      <path class="cls-1" d="M849.1,89.76c-5.18.15-10.43.2-15.73.14-8.31-.09-13.65-.41-17.11-.53-5.35-.18-10.75-.18-16.19-.02-10.86.33-21.88,1.34-33.02,3.03-22.26,3.38-44.92,9.45-67.7,18.14-42.75,16.31-85.27,41.61-125.54,74.66-4.64,3.8-7.74,6.49-14.26,11.79-4.75,3.87-9.56,7.69-14.41,11.46-1.82,1.42-3.65,2.82-5.47,4.22"/>
    </g>
    <g id="ARC-4" data-name="ARC">
      <path class="cls-1" d="M849.1,89.76c5.09-.07,10.18.29,15.21,1.09"/>
    </g>
    <g id="ARC-5" data-name="ARC">
      <path class="cls-1" d="M530.4,223.47c-.3.65-.59,1.3-.87,1.95"/>
    </g>
    <g id="ARC-6" data-name="ARC">
      <path class="cls-1" d="M724.95,339.89c-1.29-.13-2.56-.43-3.77-.88"/>
    </g>
    <g id="LINE-5" data-name="LINE">
      <line class="cls-1" x1="670.41" y1="144.86" x2="670.74" y2="90.82"/>
    </g>
    <g id="LINE-6" data-name="LINE">
      <line class="cls-1" x1="678.57" y1="144.91" x2="678.9" y2="90.87"/>
    </g>
    <g id="LINE-7" data-name="LINE">
      <line class="cls-1" x1="1000.06" y1="253.01" x2="1000.39" y2="198.97"/>
    </g>
    <g id="LINE-8" data-name="LINE">
      <line class="cls-1" x1="1008.21" y1="253.06" x2="1008.54" y2="199.01"/>
    </g>
    <g id="LINE-9" data-name="LINE">
      <line class="cls-1" x1="767.99" y1="345.18" x2="768.32" y2="291.14"/>
    </g>
    <g id="LINE-10" data-name="LINE">
      <line class="cls-1" x1="776.14" y1="345.23" x2="776.47" y2="291.19"/>
    </g>
    <g id="LINE-11" data-name="LINE">
      <line class="cls-1" x1="1077.41" y1="222.28" x2="1077.74" y2="168.24"/>
    </g>
    <g id="LINE-12" data-name="LINE">
      <line class="cls-1" x1="1085.57" y1="222.33" x2="1085.9" y2="168.29"/>
    </g>
    <g id="LINE-13" data-name="LINE">
      <line class="cls-1" x1="747.77" y1="114.14" x2="748.1" y2="60.09"/>
    </g>
    <g id="LINE-14" data-name="LINE">
      <line class="cls-1" x1="755.92" y1="114.19" x2="756.25" y2="60.14"/>
    </g>
    <g id="LINE-15" data-name="LINE">
      <line class="cls-1" x1="593.06" y1="175.59" x2="593.39" y2="121.55"/>
    </g>
    <g id="LINE-16" data-name="LINE">
      <line class="cls-1" x1="601.21" y1="175.64" x2="601.54" y2="121.6"/>
    </g>
    <g id="LINE-17" data-name="LINE">
      <line class="cls-1" x1="922.7" y1="283.73" x2="923.03" y2="229.69"/>
    </g>
    <g id="LINE-18" data-name="LINE">
      <line class="cls-1" x1="930.85" y1="283.78" x2="931.18" y2="229.74"/>
    </g>
    <g id="LINE-19" data-name="LINE">
      <line class="cls-1" x1="845.34" y1="314.46" x2="845.67" y2="260.42"/>
    </g>
    <g id="LINE-20" data-name="LINE">
      <line class="cls-1" x1="853.5" y1="314.51" x2="853.83" y2="260.47"/>
    </g>
    <g id="LINE-21" data-name="LINE">
      <line class="cls-1" x1="515.7" y1="206.31" x2="516.03" y2="152.27"/>
    </g>
    <g id="LINE-22" data-name="LINE">
      <line class="cls-1" x1="523.86" y1="206.36" x2="524.18" y2="152.32"/>
    </g>
    <g id="LINE-23" data-name="LINE">
      <line class="cls-1" x1="825.13" y1="83.41" x2="825.46" y2="29.37"/>
    </g>
    <g id="LINE-24" data-name="LINE">
      <line class="cls-1" x1="833.28" y1="83.46" x2="833.61" y2="29.42"/>
    </g>
    <g id="LINE-25" data-name="LINE">
      <line class="cls-1" x1="1078.46" y1="201.37" x2="1078.46" y2="200.89"/>
    </g>
    <g id="LINE-26" data-name="LINE">
      <line class="cls-1" x1="571.93" y1="545.45" x2="848.35" y2="435.65"/>
    </g>
    <g id="LINE-27" data-name="LINE">
      <line class="cls-1" x1="839.78" y1="435.46" x2="580.53" y2="538.43"/>
    </g>
    <g id="ELLIPSE-18" data-name="ELLIPSE">
      <path class="cls-1" d="M735.81,686.04c.02-2.78,2.61-5.4,7.11-7.18"/>
    </g>
    <g id="ELLIPSE-19" data-name="ELLIPSE">
      <path class="cls-1" d="M865.29,416.34c3.19,1.75,4.93,3.98,4.92,6.27"/>
    </g>
    <g id="ELLIPSE-20" data-name="ELLIPSE">
      <ellipse class="cls-1" cx="754.29" cy="450.54" rx="1.91" ry="4.08" transform="translate(299.16 1202.07) rotate(-89.65)"/>
    </g>
    <g id="ELLIPSE-21" data-name="ELLIPSE">
      <ellipse class="cls-1" cx="676.94" cy="481.27" rx="1.91" ry="4.08" transform="translate(191.55 1155.26) rotate(-89.65)"/>
    </g>
    <g id="LINE-28" data-name="LINE">
      <line class="cls-1" x1="865.29" y1="416.34" x2="870.23" y2="419.06"/>
    </g>
    <g id="LINE-29" data-name="LINE">
      <line class="cls-1" x1="1091.78" y1="541.01" x2="1104.3" y2="547.9"/>
    </g>
    <g id="LINE-30" data-name="LINE">
      <line class="cls-1" x1="1117.52" y1="564.28" x2="851.96" y2="418.1"/>
    </g>
    <g id="ELLIPSE-22" data-name="ELLIPSE">
      <path class="cls-1" d="M1075.55,546.74c8.54-3.39,21.42-2.87,28.75,1.16"/>
    </g>
    <g id="LINE-31" data-name="LINE">
      <line class="cls-1" x1="742.92" y1="678.86" x2="1075.55" y2="546.74"/>
    </g>
    <g id="ELLIPSE-23" data-name="ELLIPSE">
      <ellipse class="cls-1" cx="676.86" cy="493.94" rx="1.91" ry="4.08" transform="translate(178.8 1167.78) rotate(-89.65)"/>
    </g>
    <g id="ELLIPSE-24" data-name="ELLIPSE">
      <ellipse class="cls-1" cx="1006.5" cy="602.09" rx="1.91" ry="4.08" transform="translate(398.29 1604.9) rotate(-89.65)"/>
    </g>
    <g id="ELLIPSE-25" data-name="ELLIPSE">
      <ellipse class="cls-1" cx="774.43" cy="694.26" rx="1.91" ry="4.08" transform="translate(75.46 1464.45) rotate(-89.65)"/>
    </g>
    <g id="ELLIPSE-26" data-name="ELLIPSE">
      <ellipse class="cls-1" cx="1083.86" cy="571.36" rx="1.91" ry="4.08" transform="translate(505.9 1651.72) rotate(-89.65)"/>
    </g>
    <g id="ELLIPSE-27" data-name="ELLIPSE">
      <ellipse class="cls-1" cx="754.21" cy="463.22" rx="1.91" ry="4.08" transform="translate(286.41 1214.59) rotate(-89.65)"/>
    </g>
    <g id="ELLIPSE-28" data-name="ELLIPSE">
      <ellipse class="cls-1" cx="599.5" cy="524.67" rx="1.91" ry="4.08" transform="translate(71.19 1120.96) rotate(-89.65)"/>
    </g>
    <g id="ELLIPSE-29" data-name="ELLIPSE">
      <ellipse class="cls-1" cx="929.14" cy="632.81" rx="1.91" ry="4.08" transform="translate(290.68 1558.08) rotate(-89.65)"/>
    </g>
    <g id="ELLIPSE-30" data-name="ELLIPSE">
      <ellipse class="cls-1" cx="851.79" cy="663.54" rx="1.91" ry="4.08" transform="translate(183.07 1511.27) rotate(-89.65)"/>
    </g>
    <g id="ELLIPSE-31" data-name="ELLIPSE">
      <ellipse class="cls-1" cx="522.14" cy="555.39" rx="1.91" ry="4.08" transform="translate(-36.42 1074.14) rotate(-89.65)"/>
    </g>
    <g id="ELLIPSE-32" data-name="ELLIPSE">
      <ellipse class="cls-1" cx="831.57" cy="432.49" rx="1.91" ry="4.08" transform="translate(394.02 1261.41) rotate(-89.65)"/>
    </g>
    <g id="ELLIPSE-33" data-name="ELLIPSE">
      <path class="cls-1" d="M1122.44,570.55c.01-2.29-1.73-4.52-4.92-6.27"/>
    </g>
    <g id="ELLIPSE-34" data-name="ELLIPSE">
      <path class="cls-1" d="M851.96,418.1c-7.33-4.04-20.2-4.56-28.75-1.16"/>
    </g>
    <g id="ELLIPSE-35" data-name="ELLIPSE">
      <path class="cls-1" d="M490.57,549.06c-4.5,1.79-7.09,4.41-7.11,7.18"/>
    </g>
    <g id="ELLIPSE-36" data-name="ELLIPSE">
      <path class="cls-1" d="M560.15,569.25c.03-4.16,3.92-8.1,10.66-10.78"/>
    </g>
    <g id="LINE-32" data-name="LINE">
      <line class="cls-1" x1="849.3" y1="447.86" x2="570.82" y2="558.47"/>
    </g>
    <g id="ELLIPSE-37" data-name="ELLIPSE">
      <path class="cls-1" d="M849.3,447.86c12.82-5.09,32.12-4.31,43.12,1.75"/>
    </g>
    <g id="LINE-33" data-name="LINE">
      <line class="cls-1" x1="1048.44" y1="535.48" x2="892.43" y2="449.6"/>
    </g>
    <g id="ELLIPSE-38" data-name="ELLIPSE">
      <path class="cls-1" d="M1048.44,535.48c2.39,1.32,3.7,2.98,3.69,4.7"/>
    </g>
    <g id="LINE-34" data-name="LINE">
      <line class="cls-1" x1="490.57" y1="549.06" x2="823.21" y2="416.94"/>
    </g>
    <g id="LINE-35" data-name="LINE">
      <line class="cls-1" x1="672.78" y1="493.92" x2="672.86" y2="481.24"/>
    </g>
    <g id="LINE-36" data-name="LINE">
      <line class="cls-1" x1="680.94" y1="493.97" x2="681.01" y2="481.29"/>
    </g>
    <g id="LINE-37" data-name="LINE">
      <line class="cls-1" x1="1002.42" y1="602.06" x2="1002.5" y2="589.39"/>
    </g>
    <g id="LINE-38" data-name="LINE">
      <line class="cls-1" x1="1010.58" y1="602.11" x2="1010.66" y2="589.44"/>
    </g>
    <g id="LINE-39" data-name="LINE">
      <line class="cls-1" x1="770.35" y1="694.24" x2="770.43" y2="681.56"/>
    </g>
    <g id="LINE-40" data-name="LINE">
      <line class="cls-1" x1="778.51" y1="694.29" x2="778.59" y2="681.61"/>
    </g>
    <g id="LINE-41" data-name="LINE">
      <line class="cls-1" x1="1079.78" y1="571.34" x2="1079.86" y2="558.66"/>
    </g>
    <g id="LINE-42" data-name="LINE">
      <line class="cls-1" x1="1087.93" y1="571.39" x2="1088.01" y2="558.71"/>
    </g>
    <g id="LINE-43" data-name="LINE">
      <line class="cls-1" x1="750.14" y1="463.19" x2="750.21" y2="450.52"/>
    </g>
    <g id="LINE-44" data-name="LINE">
      <line class="cls-1" x1="758.29" y1="463.24" x2="758.37" y2="450.57"/>
    </g>
    <g id="LINE-45" data-name="LINE">
      <line class="cls-1" x1="595.42" y1="524.64" x2="595.5" y2="511.97"/>
    </g>
    <g id="LINE-46" data-name="LINE">
      <line class="cls-1" x1="603.58" y1="524.69" x2="603.66" y2="512.02"/>
    </g>
    <g id="LINE-47" data-name="LINE">
      <line class="cls-1" x1="925.07" y1="632.79" x2="925.14" y2="620.11"/>
    </g>
    <g id="LINE-48" data-name="LINE">
      <line class="cls-1" x1="933.22" y1="632.84" x2="933.3" y2="620.16"/>
    </g>
    <g id="LINE-49" data-name="LINE">
      <line class="cls-1" x1="847.71" y1="663.51" x2="847.79" y2="650.84"/>
    </g>
    <g id="LINE-50" data-name="LINE">
      <line class="cls-1" x1="855.87" y1="663.56" x2="855.94" y2="650.89"/>
    </g>
    <g id="LINE-51" data-name="LINE">
      <line class="cls-1" x1="518.07" y1="555.37" x2="518.14" y2="542.69"/>
    </g>
    <g id="LINE-52" data-name="LINE">
      <line class="cls-1" x1="526.22" y1="555.42" x2="526.3" y2="542.74"/>
    </g>
    <g id="LINE-53" data-name="LINE">
      <line class="cls-1" x1="827.49" y1="432.47" x2="827.57" y2="419.79"/>
    </g>
    <g id="LINE-54" data-name="LINE">
      <line class="cls-1" x1="835.65" y1="432.52" x2="835.73" y2="419.84"/>
    </g>
    <g id="ELLIPSE-39" data-name="ELLIPSE">
      <ellipse class="cls-3" cx="674.82" cy="90.85" rx="1.91" ry="4.08" transform="translate(579.86 765.1) rotate(-89.65)"/>
    </g>
    <g id="ELLIPSE-40" data-name="ELLIPSE">
      <ellipse class="cls-3" cx="1004.46" cy="198.99" rx="1.91" ry="4.08" transform="translate(799.35 1202.22) rotate(-89.65)"/>
    </g>
    <g id="ELLIPSE-41" data-name="ELLIPSE">
      <ellipse class="cls-3" cx="772.39" cy="291.17" rx="1.91" ry="4.08" transform="translate(476.52 1061.77) rotate(-89.65)"/>
    </g>
    <g id="ELLIPSE-42" data-name="ELLIPSE">
      <ellipse class="cls-3" cx="1081.82" cy="168.26" rx="1.91" ry="4.08" transform="translate(906.96 1249.04) rotate(-89.65)"/>
    </g>
    <g id="ELLIPSE-43" data-name="ELLIPSE">
      <ellipse class="cls-3" cx="752.18" cy="60.12" rx="1.91" ry="4.08" transform="translate(687.47 811.92) rotate(-89.65)"/>
    </g>
    <g id="ELLIPSE-44" data-name="ELLIPSE">
      <ellipse class="cls-3" cx="597.46" cy="121.57" rx="1.91" ry="4.08" transform="translate(472.25 718.28) rotate(-89.65)"/>
    </g>
    <g id="ELLIPSE-45" data-name="ELLIPSE">
      <ellipse class="cls-3" cx="927.11" cy="229.72" rx="1.91" ry="4.08" transform="translate(691.74 1155.4) rotate(-89.65)"/>
    </g>
    <g id="ELLIPSE-46" data-name="ELLIPSE">
      <ellipse class="cls-3" cx="849.75" cy="260.44" rx="1.91" ry="4.08" transform="translate(584.13 1108.59) rotate(-89.65)"/>
    </g>
    <g id="ELLIPSE-47" data-name="ELLIPSE">
      <ellipse class="cls-3" cx="520.11" cy="152.3" rx="1.91" ry="4.08" transform="translate(364.64 671.46) rotate(-89.65)"/>
    </g>
    <g id="ELLIPSE-48" data-name="ELLIPSE">
      <ellipse class="cls-3" cx="829.53" cy="29.39" rx="1.91" ry="4.08" transform="translate(795.08 858.73) rotate(-89.65)"/>
    </g>
    <g id="ELLIPSE-49" data-name="ELLIPSE">
      <path class="cls-3" d="M1112.96,228.68c4.5-1.79,7.09-4.41,7.11-7.18"/>
    </g>
    <g id="ELLIPSE-50" data-name="ELLIPSE">
      <path class="cls-3" d="M1115.48,161.19h0c7.33,4.04,6.35,10.06-2.19,13.45"/>
    </g>
    <g id="LINE-55" data-name="LINE">
      <line class="cls-3" x1="849.92" y1="15.01" x2="1115.48" y2="161.19"/>
    </g>
    <g id="ELLIPSE-51" data-name="ELLIPSE">
      <path class="cls-3" d="M821.17,13.84c8.54-3.39,21.42-2.87,28.75,1.16"/>
    </g>
    <g id="ELLIPSE-52" data-name="ELLIPSE">
      <path class="cls-3" d="M751.58,359.64c7.33,4.04,20.2,4.56,28.75,1.16"/>
    </g>
    <g id="ELLIPSE-53" data-name="ELLIPSE">
      <path class="cls-3" d="M780.66,306.76c-8.54,3.39-21.42,2.87-28.75-1.16"/>
    </g>
    <g id="LINE-56" data-name="LINE">
      <line class="cls-3" x1="486.01" y1="213.46" x2="751.58" y2="359.64"/>
    </g>
    <g id="LINE-57" data-name="LINE">
      <line class="cls-3" x1="751.91" y1="305.59" x2="486.34" y2="159.41"/>
    </g>
    <g id="ELLIPSE-54" data-name="ELLIPSE">
      <path class="cls-3" d="M481.1,207.19c-.01,2.29,1.73,4.52,4.92,6.27"/>
    </g>
    <g id="ELLIPSE-55" data-name="ELLIPSE">
      <path class="cls-3" d="M486.34,159.41c-7.33-4.04-6.35-10.06,2.19-13.45"/>
    </g>
    <g id="LINE-58" data-name="LINE">
      <line class="cls-3" x1="1112.96" y1="228.68" x2="780.33" y2="360.8"/>
    </g>
    <g id="LINE-59" data-name="LINE">
      <line class="cls-3" x1="821.17" y1="13.84" x2="488.54" y2="145.96"/>
    </g>
    <g id="LINE-60" data-name="LINE">
      <line class="cls-3" x1="780.66" y1="306.76" x2="1113.29" y2="174.64"/>
    </g>
    <g id="LINE-61" data-name="LINE">
      <line class="cls-3" x1="1120.07" y1="221.5" x2="1120.4" y2="167.45"/>
    </g>
    <g id="LINE-62" data-name="LINE">
      <line class="cls-3" x1="481.1" y1="207.19" x2="481.43" y2="153.15"/>
    </g>
    <g id="ELLIPSE-56" data-name="ELLIPSE">
      <path class="cls-3" d="M530.49,558.31c-8.54,3.39-21.42,2.87-28.75-1.16"/>
    </g>
    <g id="ELLIPSE-57" data-name="ELLIPSE">
      <path class="cls-3" d="M530.46,561.91c-8.54,3.39-21.42,2.87-28.75-1.16"/>
    </g>
    <g id="LINE-63" data-name="LINE">
      <line class="cls-3" x1="530.46" y1="561.91" x2="571.93" y2="545.45"/>
    </g>
    <g id="LINE-64" data-name="LINE">
      <line class="cls-3" x1="848.35" y1="435.65" x2="863.1" y2="429.8"/>
    </g>
    <g id="LINE-65" data-name="LINE">
      <line class="cls-3" x1="863.12" y1="426.19" x2="839.78" y2="435.46"/>
    </g>
    <g id="LINE-66" data-name="LINE">
      <line class="cls-3" x1="580.53" y1="538.43" x2="530.49" y2="558.31"/>
    </g>
    <g id="ELLIPSE-58" data-name="ELLIPSE">
      <path class="cls-3" d="M740.75,688.71c-7.33-4.04-6.35-10.06,2.19-13.45"/>
    </g>
    <g id="ELLIPSE-59" data-name="ELLIPSE">
      <path class="cls-3" d="M740.72,692.31c-3.19-1.75-4.93-3.98-4.92-6.27"/>
    </g>
    <g id="LINE-67" data-name="LINE">
      <line class="cls-3" x1="501.74" y1="557.15" x2="488.46" y2="549.84"/>
    </g>
    <g id="LINE-68" data-name="LINE">
      <line class="cls-3" x1="488.38" y1="562.51" x2="753.95" y2="708.69"/>
    </g>
    <g id="LINE-69" data-name="LINE">
      <line class="cls-3" x1="754.02" y1="696.02" x2="740.75" y2="688.71"/>
    </g>
    <g id="LINE-70" data-name="LINE">
      <line class="cls-3" x1="740.72" y1="692.31" x2="501.72" y2="560.75"/>
    </g>
    <g id="ELLIPSE-60" data-name="ELLIPSE">
      <path class="cls-3" d="M865.31,412.74c7.33,4.04,6.35,10.06-2.19,13.45"/>
    </g>
    <g id="ELLIPSE-61" data-name="ELLIPSE">
      <path class="cls-3" d="M870.21,422.61c-.02,2.78-2.61,5.4-7.11,7.18"/>
    </g>
    <g id="LINE-71" data-name="LINE">
      <line class="cls-3" x1="852.03" y1="405.43" x2="865.31" y2="412.74"/>
    </g>
    <g id="ELLIPSE-62" data-name="ELLIPSE">
      <path class="cls-3" d="M823.29,404.27c8.54-3.39,21.42-2.87,28.75,1.16"/>
    </g>
    <g id="LINE-72" data-name="LINE">
      <line class="cls-3" x1="490.65" y1="536.38" x2="823.29" y2="404.27"/>
    </g>
    <g id="ELLIPSE-63" data-name="ELLIPSE">
      <path class="cls-3" d="M488.46,549.84c-7.33-4.04-6.35-10.06,2.19-13.45"/>
    </g>
    <g id="ELLIPSE-64" data-name="ELLIPSE">
      <ellipse class="cls-3" cx="831.65" cy="419.82" rx="1.91" ry="4.08" transform="translate(406.77 1248.89) rotate(-89.65)"/>
    </g>
    <g id="ELLIPSE-65" data-name="ELLIPSE">
      <ellipse class="cls-3" cx="522.22" cy="542.72" rx="1.91" ry="4.08" transform="translate(-23.67 1061.62) rotate(-89.65)"/>
    </g>
    <g id="ELLIPSE-66" data-name="ELLIPSE">
      <ellipse class="cls-3" cx="599.58" cy="511.99" rx="1.91" ry="4.08" transform="translate(83.94 1108.44) rotate(-89.65)"/>
    </g>
    <g id="LINE-73" data-name="LINE">
      <line class="cls-3" x1="870.23" y1="419.06" x2="1091.78" y2="541.01"/>
    </g>
    <g id="LINE-74" data-name="LINE">
      <line class="cls-3" x1="1104.32" y1="544.3" x2="1117.6" y2="551.61"/>
    </g>
    <g id="ELLIPSE-67" data-name="ELLIPSE">
      <path class="cls-3" d="M1075.57,543.14c8.54-3.39,21.42-2.87,28.75,1.16"/>
    </g>
    <g id="LINE-75" data-name="LINE">
      <line class="cls-3" x1="742.94" y1="675.25" x2="1075.57" y2="543.14"/>
    </g>
    <g id="ELLIPSE-68" data-name="ELLIPSE">
      <ellipse class="cls-3" cx="1006.58" cy="589.41" rx="1.91" ry="4.08" transform="translate(411.04 1592.38) rotate(-89.65)"/>
    </g>
    <g id="ELLIPSE-69" data-name="ELLIPSE">
      <ellipse class="cls-3" cx="774.51" cy="681.59" rx="1.91" ry="4.08" transform="translate(88.21 1451.93) rotate(-89.65)"/>
    </g>
    <g id="ELLIPSE-70" data-name="ELLIPSE">
      <ellipse class="cls-3" cx="1083.93" cy="558.69" rx="1.91" ry="4.08" transform="translate(518.65 1639.2) rotate(-89.65)"/>
    </g>
    <g id="ELLIPSE-71" data-name="ELLIPSE">
      <ellipse class="cls-3" cx="929.22" cy="620.14" rx="1.91" ry="4.08" transform="translate(303.43 1545.56) rotate(-89.65)"/>
    </g>
    <g id="ELLIPSE-72" data-name="ELLIPSE">
      <ellipse class="cls-3" cx="851.86" cy="650.86" rx="1.91" ry="4.08" transform="translate(195.82 1498.75) rotate(-89.65)"/>
    </g>
    <g id="ELLIPSE-73" data-name="ELLIPSE">
      <path class="cls-3" d="M1117.6,551.61c7.33,4.04,6.35,10.06-2.19,13.45"/>
    </g>
    <g id="ELLIPSE-74" data-name="ELLIPSE">
      <path class="cls-3" d="M1115.33,577.74c4.5-1.79,7.09-4.41,7.11-7.18"/>
    </g>
    <g id="ELLIPSE-75" data-name="ELLIPSE">
      <path class="cls-3" d="M782.77,697.18c-8.54,3.39-21.42,2.87-28.75-1.16"/>
    </g>
    <g id="ELLIPSE-76" data-name="ELLIPSE">
      <path class="cls-3" d="M753.95,708.69c7.33,4.04,20.2,4.56,28.75,1.16"/>
    </g>
    <g id="ELLIPSE-77" data-name="ELLIPSE">
      <path class="cls-3" d="M483.47,556.24c-.01,2.29,1.73,4.52,4.92,6.27"/>
    </g>
    <g id="LINE-76" data-name="LINE">
      <line class="cls-3" x1="1115.41" y1="565.06" x2="782.77" y2="697.18"/>
    </g>
    <g id="LINE-77" data-name="LINE">
      <line class="cls-3" x1="1115.33" y1="577.74" x2="782.7" y2="709.86"/>
    </g>
    <g id="ELLIPSE-78" data-name="ELLIPSE">
      <path class="cls-3" d="M745.11,665.4c-6.41,2.55-16.06,2.15-21.56-.87"/>
    </g>
    <g id="LINE-78" data-name="LINE">
      <line class="cls-3" x1="567.53" y1="578.65" x2="723.55" y2="664.53"/>
    </g>
    <g id="ELLIPSE-79" data-name="ELLIPSE">
      <path class="cls-3" d="M567.53,578.65c-4.78-2.63-7.4-5.97-7.37-9.4"/>
    </g>
    <g id="ELLIPSE-80" data-name="ELLIPSE">
      <path class="cls-3" d="M1052.13,540.19c-.01,2.08-1.96,4.05-5.33,5.39"/>
    </g>
    <g id="LINE-79" data-name="LINE">
      <line class="cls-3" x1="745.11" y1="665.4" x2="1046.8" y2="545.57"/>
    </g>
    <g id="SPLINE-5" data-name="SPLINE">
      <path class="cls-3" d="M745.16,657.63c-1.05.71-2.22,1.35-3.48,1.89-1.51.65-3.13,1.17-4.79,1.53-2,.43-4.03.62-5.98.57-1.91-.05-3.7-.34-5.26-.85-.75-.25-1.45-.54-2.07-.88"/>
    </g>
    <g id="SPLINE-6" data-name="SPLINE">
      <path class="cls-3" d="M1046.85,537.8c-3.56.42-7.11.78-10.64,1.09-5.13.45-10.27.99-15.44,1.63-20.63,2.55-41.55,6.63-62.62,12.19-20.56,5.43-41.27,12.28-61.99,20.51-21.23,8.43-42.46,18.31-63.56,29.56-20.59,10.98-41.05,23.28-61.25,36.81-5.18,3.47-10.35,7.02-15.5,10.66-3.55,2.51-7.11,4.97-10.68,7.38"/>
    </g>
    <g id="SPLINE-7" data-name="SPLINE">
      <path class="cls-3" d="M1048.47,530.83c.64.35,1.21.71,1.7,1.08.94.7,1.56,1.41,1.83,2.08.3.73.18,1.41-.33,1.99-.42.48-1.11.89-2.03,1.21-.78.27-1.72.47-2.8.6"/>
    </g>
    <g id="SPLINE-8" data-name="SPLINE">
      <path class="cls-3" d="M1048.47,530.83c-12.17-6.63-24.34-13.25-36.52-19.88-15.49-8.43-30.98-16.86-46.48-25.28-15.49-8.42-30.98-16.84-46.48-25.26-8.85-4.81-17.7-9.62-26.56-14.42"/>
    </g>
    <g id="SPLINE-9" data-name="SPLINE">
      <path class="cls-3" d="M849.38,435.66c1.1,0,2.28.05,3.51.13,2.53.15,5.29.44,8.22.86,3.56.52,7.31,1.23,11.06,2.12,3.9.93,7.73,2.04,11.26,3.3s6.49,2.55,9.02,3.92"/>
    </g>
    <g id="ARC-7" data-name="ARC">
      <path class="cls-3" d="M571.02,546.42c41.1-37.1,88.2-66.94,139.31-88.24"/>
    </g>
    <g id="ARC-8" data-name="ARC">
      <path class="cls-3" d="M710.33,458.18c44.01-18.06,91.59-25.73,139.04-22.42"/>
    </g>
    <g id="SPLINE-10" data-name="SPLINE">
      <path class="cls-3" d="M567.55,575.05c-1.31-.71-2.47-1.54-3.47-2.47-1.83-1.71-3.04-3.75-3.58-6.01-.58-2.46-.36-5.13.65-7.88.84-2.3,2.22-4.62,4.07-6.88,1.58-1.93,3.48-3.79,5.67-5.54"/>
    </g>
    <g id="SPLINE-11" data-name="SPLINE">
      <path class="cls-3" d="M723.58,659.88c-12.17-6.63-24.34-13.25-36.52-19.88-15.49-8.43-30.98-16.86-46.48-25.28-15.49-8.42-30.98-16.84-46.48-25.26-8.85-4.81-17.7-9.62-26.56-14.42"/>
    </g>
    <g id="LINE-80" data-name="LINE">
      <line class="cls-3" x1="735.83" y1="682.44" x2="735.81" y2="686.04"/>
    </g>
    <g id="LINE-81" data-name="LINE">
      <line class="cls-3" x1="870.23" y1="419.01" x2="870.21" y2="422.61"/>
    </g>
    <g id="LINE-82" data-name="LINE">
      <line class="cls-3" x1="1122.44" y1="570.55" x2="1122.52" y2="557.88"/>
    </g>
    <g id="LINE-83" data-name="LINE">
      <line class="cls-3" x1="483.47" y1="556.24" x2="483.54" y2="543.57"/>
    </g>
    <g id="LINE-84" data-name="LINE">
      <line class="cls-3" x1="1052.13" y1="540.19" x2="1052.17" y2="534.78"/>
    </g>
    <g id="LINE-85" data-name="LINE">
      <line class="cls-3" x1="560.19" y1="563.74" x2="560.15" y2="569.25"/>
    </g>
    <g id="LINE-86" data-name="LINE">
      <line class="cls-1" x1="1115.15" y1="215.23" x2="1115.48" y2="161.19"/>
    </g>
    <g id="LINE-87" data-name="LINE">
      <line class="cls-1" x1="849.59" y1="69.05" x2="849.92" y2="15.01"/>
    </g>
    <g id="LINE-88" data-name="LINE">
      <line class="cls-1" x1="820.84" y1="67.88" x2="821.17" y2="13.84"/>
    </g>
    <g id="LINE-89" data-name="LINE">
      <line class="cls-1" x1="488.21" y1="200" x2="488.54" y2="145.96"/>
    </g>
    <g id="ARC-9" data-name="ARC">
      <path class="cls-1" d="M721.21,338.95c-63.04-39.26-126.96-77.09-191.71-113.46"/>
    </g>
    <g id="ARC-10" data-name="ARC">
      <path class="cls-1" d="M1076.51,197.92c-70.27-34.22-139.84-69.87-208.67-106.91"/>
    </g>
    <g id="LINE-90" data-name="LINE">
      <line class="cls-1" x1="849.07" y1="94.42" x2="849.1" y2="89.76"/>
    </g>
    <g id="LINE-91" data-name="LINE">
      <line class="cls-1" x1="539.67" y1="212.67" x2="539.65" y2="217.32"/>
    </g>
    <g id="LINE-92" data-name="LINE">
      <line class="cls-1" x1="740.49" y1="338.87" x2="740.51" y2="336.45"/>
    </g>
    <g id="LINE-93" data-name="LINE">
      <line class="cls-1" x1="1073.14" y1="204.33" x2="1073.13" y2="206.75"/>
    </g>
    <g id="LINE-94" data-name="LINE">
      <line class="cls-1" x1="742.94" y1="675.25" x2="742.92" y2="678.86"/>
    </g>
    <g id="LINE-95" data-name="LINE">
      <line class="cls-1" x1="865.29" y1="416.34" x2="865.31" y2="412.74"/>
    </g>
    <g id="LINE-96" data-name="LINE">
      <line class="cls-1" x1="1104.32" y1="544.3" x2="1104.3" y2="547.9"/>
    </g>
    <g id="LINE-97" data-name="LINE">
      <line class="cls-1" x1="1117.52" y1="564.28" x2="1117.6" y2="551.61"/>
    </g>
    <g id="LINE-98" data-name="LINE">
      <line class="cls-1" x1="851.96" y1="418.1" x2="852.03" y2="405.43"/>
    </g>
    <g id="LINE-99" data-name="LINE">
      <line class="cls-1" x1="1075.55" y1="546.74" x2="1075.57" y2="543.14"/>
    </g>
    <g id="LINE-100" data-name="LINE">
      <line class="cls-1" x1="823.21" y1="416.94" x2="823.29" y2="404.27"/>
    </g>
    <g id="LINE-101" data-name="LINE">
      <line class="cls-1" x1="490.57" y1="549.06" x2="490.65" y2="536.38"/>
    </g>
    <g id="LINE-102" data-name="LINE">
      <line class="cls-1" x1="1048.44" y1="535.48" x2="1048.47" y2="530.84"/>
    </g>
    <g id="LINE-103" data-name="LINE">
      <line class="cls-1" x1="892.45" y1="446" x2="892.43" y2="449.6"/>
    </g>
    <g id="LINE-104" data-name="LINE">
      <line class="cls-1" x1="849.3" y1="447.86" x2="849.38" y2="435.66"/>
    </g>
    <g id="LINE-105" data-name="LINE">
      <line class="cls-1" x1="570.89" y1="546.28" x2="570.82" y2="558.47"/>
    </g>
    <g id="LINE-106" data-name="LINE">
      <line class="cls-1" x1="1112.96" y1="228.68" x2="1113.29" y2="174.64"/>
    </g>
    <g id="LINE-107" data-name="LINE">
      <line class="cls-1" x1="780.33" y1="360.8" x2="780.66" y2="306.76"/>
    </g>
    <g id="LINE-108" data-name="LINE">
      <line class="cls-1" x1="751.58" y1="359.64" x2="751.91" y2="305.59"/>
    </g>
    <g id="LINE-109" data-name="LINE">
      <line class="cls-1" x1="486.01" y1="213.46" x2="486.34" y2="159.41"/>
    </g>
    <g id="LINE-110" data-name="LINE">
      <line class="cls-1" x1="501.74" y1="557.15" x2="501.72" y2="560.75"/>
    </g>
    <g id="LINE-111" data-name="LINE">
      <line class="cls-1" x1="530.46" y1="561.91" x2="530.49" y2="558.31"/>
    </g>
    <g id="LINE-112" data-name="LINE">
      <line class="cls-1" x1="863.12" y1="426.19" x2="863.1" y2="429.8"/>
    </g>
    <g id="LINE-113" data-name="LINE">
      <line class="cls-1" x1="740.72" y1="692.31" x2="740.75" y2="688.71"/>
    </g>
    <g id="LINE-114" data-name="LINE">
      <line class="cls-1" x1="488.38" y1="562.51" x2="488.46" y2="549.84"/>
    </g>
    <g id="LINE-115" data-name="LINE">
      <line class="cls-1" x1="753.95" y1="708.69" x2="754.02" y2="696.02"/>
    </g>
    <g id="LINE-116" data-name="LINE">
      <line class="cls-1" x1="1115.33" y1="577.74" x2="1115.41" y2="565.06"/>
    </g>
    <g id="LINE-117" data-name="LINE">
      <line class="cls-1" x1="782.7" y1="709.86" x2="782.77" y2="697.18"/>
    </g>
    <g id="LINE-118" data-name="LINE">
      <line class="cls-1" x1="745.11" y1="665.4" x2="745.16" y2="657.63"/>
    </g>
    <g id="LINE-119" data-name="LINE">
      <line class="cls-1" x1="723.58" y1="659.88" x2="723.55" y2="664.53"/>
    </g>
    <g id="LINE-120" data-name="LINE">
      <line class="cls-1" x1="1046.85" y1="537.8" x2="1046.8" y2="545.57"/>
    </g>
    <g id="LINE-121" data-name="LINE">
      <line class="cls-1" x1="567.53" y1="578.65" x2="567.55" y2="575.05"/>
    </g>
  </g>
  <g>
    <line class="cls-2" x1="544.83" y1="333.89" x2="544.83" y2="456.03"/>
    <polygon class="cls-4" points="543.11 455.53 544.83 458.51 546.55 455.53 543.11 455.53"/>
  </g>
  <g>
    <line class="cls-2" x1="1037.75" y1="333.89" x2="1037.75" y2="456.03"/>
    <polygon class="cls-4" points="1036.02 455.53 1037.75 458.51 1039.47 455.53 1036.02 455.53"/>
  </g>
</svg>