<?xml version="1.0" encoding="UTF-8"?>
<svg id="GRAPHIC" xmlns="http://www.w3.org/2000/svg" viewBox="0 0 1584 720">
  <defs>
    <style>
      .cls-1 {
        stroke-width: .92px;
      }

      .cls-1, .cls-2, .cls-3 {
        fill: none;
        stroke: #000;
        stroke-linecap: round;
        stroke-linejoin: round;
      }

      .cls-2 {
        stroke-width: .58px;
      }

      .cls-3 {
        stroke-width: .58px;
      }
    </style>
  </defs>
  <g id="LINE">
    <line class="cls-1" x1="789.78" y1="580.56" x2="853.61" y2="596.55"/>
  </g>
  <g id="ELLIPSE">
    <path class="cls-1" d="M1178.9,471.32c.91-.52,1.37-1.12,1.27-1.62"/>
  </g>
  <g id="LINE-2" data-name="LINE">
    <line class="cls-1" x1="1064.37" y1="537.27" x2="1178.9" y2="471.32"/>
  </g>
  <g id="ELLIPSE-2" data-name="ELLIPSE">
    <path class="cls-1" d="M1058.45,538.28c1.6.4,4.25-.05,5.92-1.01"/>
  </g>
  <g id="LINE-3" data-name="LINE">
    <line class="cls-1" x1="1058.45" y1="538.28" x2="1045.18" y2="534.96"/>
  </g>
  <g id="SPLINE">
    <path class="cls-1" d="M926.99,419.95c-.34-.08-.63-.12-.9-.13s-.53,0-.78.03-.49.07-.73.12-.47.13-.71.22-.48.2-.73.34"/>
  </g>
  <g id="LINE-4" data-name="LINE">
    <line class="cls-1" x1="956.01" y1="427.21" x2="927" y2="419.95"/>
  </g>
  <g id="SPLINE-2" data-name="SPLINE">
    <path class="cls-1" d="M963.99,425.78c-.27.16-.6.32-.97.48-.41.18-.87.34-1.36.49-.52.15-1.06.29-1.6.39s-1.1.17-1.61.21-.96.04-1.37.02c-.37-.02-.68-.06-.92-.11-.05-.01-.1-.02-.14-.03"/>
  </g>
  <g id="LINE-5" data-name="LINE">
    <line class="cls-1" x1="991.14" y1="410.14" x2="963.99" y2="425.78"/>
  </g>
  <g id="LINE-6" data-name="LINE">
    <line class="cls-1" x1="994.99" y1="409.56" x2="1174.87" y2="454.63"/>
  </g>
  <g id="SPLINE-3" data-name="SPLINE">
    <path class="cls-1" d="M1174.87,454.63c.15.04.3.08.47.15s.35.15.54.26.4.26.61.45.42.44.6.74.33.66.41,1.04"/>
  </g>
  <g id="SPLINE-4" data-name="SPLINE">
    <path class="cls-1" d="M991.14,410.14c.25-.15.49-.25.73-.34s.47-.16.71-.22.48-.1.73-.12.5-.04.78-.03.57.04.9.13"/>
  </g>
  <g id="LINE-7" data-name="LINE">
    <line class="cls-1" x1="923.14" y1="420.53" x2="841.8" y2="467.37"/>
  </g>
  <g id="LINE-8" data-name="LINE">
    <line class="cls-1" x1="1180.16" y1="469.7" x2="1177.51" y2="457.27"/>
  </g>
  <g id="SPLINE-5" data-name="SPLINE">
    <path class="cls-1" d="M839.95,471.21c-.08-.35-.09-.72-.06-1.05.04-.36.13-.68.24-.96.14-.34.31-.61.48-.82s.34-.39.5-.52.31-.25.46-.35c.08-.05.15-.09.22-.14"/>
  </g>
  <g id="LINE-9" data-name="LINE">
    <line class="cls-1" x1="839.95" y1="471.21" x2="842" y2="480.82"/>
  </g>
  <g id="LINE-10" data-name="LINE">
    <line class="cls-1" x1="656.63" y1="448.58" x2="469.4" y2="160.46"/>
  </g>
  <g id="ELLIPSE-3" data-name="ELLIPSE">
    <path class="cls-1" d="M469.56,157.93c-.67.55-.74,1.63-.16,2.52"/>
  </g>
  <g id="ELLIPSE-4" data-name="ELLIPSE">
    <path class="cls-1" d="M706.77,525.74c1.28,1.97,3.67,2.79,5.33,1.83"/>
  </g>
  <g id="LINE-11" data-name="LINE">
    <line class="cls-1" x1="706.77" y1="525.74" x2="656.63" y2="448.58"/>
  </g>
  <g id="ELLIPSE-5" data-name="ELLIPSE">
    <path class="cls-1" d="M827,461.36c-.12.09-.24.18-.37.26"/>
  </g>
  <g id="LINE-12" data-name="LINE">
    <line class="cls-1" x1="826.63" y1="461.62" x2="712.1" y2="527.57"/>
  </g>
  <g id="ARC">
    <path class="cls-1" d="M596.68,85.73c-.66-1.02-2-1.35-3.05-.73"/>
  </g>
  <g id="LINE-13" data-name="LINE">
    <line class="cls-1" x1="593.62" y1="84.99" x2="476.09" y2="152.68"/>
  </g>
  <g id="ARC-2" data-name="ARC">
    <path class="cls-1" d="M475.76,152.9c.1-.08.21-.16.33-.23"/>
  </g>
  <g id="LINE-14" data-name="LINE">
    <line class="cls-1" x1="475.76" y1="152.9" x2="469.56" y2="157.93"/>
  </g>
  <g id="LINE-15" data-name="LINE">
    <line class="cls-1" x1="833.94" y1="450.85" x2="596.68" y2="85.73"/>
  </g>
  <g id="SPLINE-6" data-name="SPLINE">
    <path class="cls-1" d="M833.19,456.33c.33-.26.61-.58.83-.93s.39-.74.49-1.12c.11-.41.15-.82.14-1.21s-.08-.76-.19-1.11-.26-.68-.44-.98c-.03-.05-.06-.09-.08-.13"/>
  </g>
  <g id="LINE-16" data-name="LINE">
    <line class="cls-1" x1="827" y1="461.36" x2="833.19" y2="456.33"/>
  </g>
  <g id="ELLIPSE-6" data-name="ELLIPSE">
    <ellipse class="cls-1" cx="734.4" cy="572.62" rx="3.75" ry="6.48" transform="translate(-187.78 442.88) rotate(-29.94)"/>
  </g>
  <g id="LINE-17" data-name="LINE">
    <line class="cls-1" x1="738.11" y1="577.96" x2="737.63" y2="578.24"/>
  </g>
  <g id="LINE-18" data-name="LINE">
    <line class="cls-1" x1="731.64" y1="566.73" x2="731.16" y2="567.01"/>
  </g>
  <g id="LINE-19" data-name="LINE">
    <line class="cls-1" x1="784.16" y1="374.24" x2="793.02" y2="369.14"/>
  </g>
  <g id="LINE-20" data-name="LINE">
    <line class="cls-1" x1="733.21" y1="295.84" x2="742.07" y2="290.74"/>
  </g>
  <g id="LINE-21" data-name="LINE">
    <line class="cls-1" x1="789.47" y1="372.57" x2="784.82" y2="375.26"/>
  </g>
  <g id="ELLIPSE-7" data-name="ELLIPSE">
    <ellipse class="cls-1" cx="768.74" cy="625.52" rx="1.77" ry="3.07" transform="translate(-209.59 467.08) rotate(-29.94)"/>
  </g>
  <g id="LINE-22" data-name="LINE">
    <line class="cls-1" x1="738.41" y1="512.42" x2="758.87" y2="543.9"/>
  </g>
  <g id="LINE-23" data-name="LINE">
    <line class="cls-1" x1="781.31" y1="578.44" x2="850.52" y2="684.94"/>
  </g>
  <g id="SPLINE-7" data-name="SPLINE">
    <path class="cls-1" d="M850.27,690.32c.25-.2.46-.45.62-.7.19-.29.31-.59.39-.88.1-.38.13-.74.13-1.09,0-.37-.07-.73-.16-1.07s-.22-.68-.37-.99c-.11-.22-.23-.43-.36-.64"/>
  </g>
  <g id="LINE-24" data-name="LINE">
    <line class="cls-1" x1="850.27" y1="690.32" x2="840.62" y2="698.16"/>
  </g>
  <g id="ARC-3" data-name="ARC">
    <path class="cls-1" d="M837.39,700.5c1.11-.74,2.19-1.52,3.23-2.34"/>
  </g>
  <g id="ARC-4" data-name="ARC">
    <path class="cls-1" d="M837.04,700.72c.12-.07.24-.14.35-.22"/>
  </g>
  <g id="LINE-25" data-name="LINE">
    <line class="cls-1" x1="837.04" y1="700.72" x2="818.5" y2="711.39"/>
  </g>
  <g id="ARC-5" data-name="ARC">
    <path class="cls-1" d="M817.36,711.68c.4,0,.79-.09,1.14-.29"/>
  </g>
  <g id="ARC-6" data-name="ARC">
    <path class="cls-1" d="M817.36,711.68c-.73,0-1.41-.38-1.81-.99"/>
  </g>
  <g id="LINE-26" data-name="LINE">
    <line class="cls-1" x1="517.09" y1="251.38" x2="815.55" y2="710.69"/>
  </g>
  <g id="ARC-7" data-name="ARC">
    <path class="cls-1" d="M1034.37,586.72c.4,0,.79-.09,1.14-.29"/>
  </g>
  <g id="ARC-8" data-name="ARC">
    <path class="cls-1" d="M1034.37,586.72c-.73,0-1.41-.38-1.81-.99"/>
  </g>
  <g id="LINE-27" data-name="LINE">
    <line class="cls-1" x1="1035.51" y1="586.43" x2="1054.04" y2="575.75"/>
  </g>
  <g id="ARC-9" data-name="ARC">
    <path class="cls-1" d="M1054.04,575.75c.12-.07.24-.14.35-.22"/>
  </g>
  <g id="ARC-10" data-name="ARC">
    <path class="cls-1" d="M1054.39,575.53c1.11-.74,2.19-1.52,3.23-2.34"/>
  </g>
  <g id="LINE-28" data-name="LINE">
    <line class="cls-1" x1="1067.27" y1="565.36" x2="1057.62" y2="573.19"/>
  </g>
  <g id="SPLINE-8" data-name="SPLINE">
    <path class="cls-1" d="M1067.27,565.36c.25-.2.46-.45.62-.7.19-.29.31-.59.39-.88.1-.38.13-.74.13-1.09,0-.37-.07-.73-.16-1.07s-.22-.68-.37-.99c-.11-.22-.23-.43-.36-.64"/>
  </g>
  <g id="LINE-29" data-name="LINE">
    <line class="cls-1" x1="1067.52" y1="559.98" x2="1052.44" y2="536.78"/>
  </g>
  <g id="LINE-30" data-name="LINE">
    <line class="cls-1" x1="975.87" y1="418.94" x2="955.41" y2="387.45"/>
  </g>
  <g id="LINE-31" data-name="LINE">
    <line class="cls-1" x1="1032.56" y1="585.73" x2="1018.31" y2="563.8"/>
  </g>
  <g id="LINE-32" data-name="LINE">
    <line class="cls-1" x1="924.81" y1="419.92" x2="917.79" y2="409.12"/>
  </g>
  <g id="ELLIPSE-8" data-name="ELLIPSE">
    <path class="cls-1" d="M1046.28,547.69c.91-.52,1.37-1.12,1.27-1.62"/>
  </g>
  <g id="LINE-33" data-name="LINE">
    <line class="cls-1" x1="931.75" y1="613.64" x2="1046.28" y2="547.69"/>
  </g>
  <g id="ELLIPSE-9" data-name="ELLIPSE">
    <path class="cls-1" d="M925.84,614.65c1.6.4,4.25-.05,5.92-1.01"/>
  </g>
  <g id="LINE-34" data-name="LINE">
    <line class="cls-1" x1="745.96" y1="569.58" x2="789.78" y2="580.56"/>
  </g>
  <g id="LINE-35" data-name="LINE">
    <line class="cls-1" x1="925.84" y1="614.65" x2="853.61" y2="596.55"/>
  </g>
  <g id="ELLIPSE-10" data-name="ELLIPSE">
    <path class="cls-1" d="M744.8,568.73c.08.38.49.68,1.15.85"/>
  </g>
  <g id="SPLINE-9" data-name="SPLINE">
    <path class="cls-1" d="M1044.9,533.64c-.08-.35-.21-.69-.38-.98-.18-.31-.39-.56-.6-.76s-.42-.35-.61-.47-.38-.2-.55-.27-.33-.12-.47-.15c0,0-.02,0-.03,0"/>
  </g>
  <g id="LINE-36" data-name="LINE">
    <line class="cls-1" x1="771.15" y1="536.82" x2="744" y2="552.46"/>
  </g>
  <g id="SPLINE-10" data-name="SPLINE">
    <path class="cls-1" d="M742.15,556.3c-.08-.35-.09-.72-.06-1.05.04-.36.13-.68.24-.96.14-.34.31-.61.48-.82s.34-.39.5-.52.31-.25.46-.35c.08-.05.15-.09.22-.14"/>
  </g>
  <g id="LINE-37" data-name="LINE">
    <line class="cls-1" x1="1042.26" y1="531" x2="827.56" y2="477.2"/>
  </g>
  <g id="LINE-38" data-name="LINE">
    <line class="cls-1" x1="1047.55" y1="546.07" x2="1044.9" y2="533.64"/>
  </g>
  <g id="LINE-39" data-name="LINE">
    <line class="cls-1" x1="744.8" y1="568.73" x2="742.15" y2="556.3"/>
  </g>
  <g id="LINE-40" data-name="LINE">
    <line class="cls-1" x1="745.26" y1="522.96" x2="823.71" y2="477.79"/>
  </g>
  <g id="SPLINE-11" data-name="SPLINE">
    <path class="cls-1" d="M823.71,477.79c.25-.15.49-.25.73-.34s.47-.16.71-.22.48-.1.73-.12.5-.04.78-.03.57.04.9.13"/>
  </g>
  <g id="LINE-41" data-name="LINE">
    <line class="cls-1" x1="737.87" y1="293.16" x2="602.01" y2="84.09"/>
  </g>
  <g id="ELLIPSE-11" data-name="ELLIPSE">
    <path class="cls-1" d="M602.18,81.57c-.67.55-.74,1.63-.16,2.52"/>
  </g>
  <g id="LINE-42" data-name="LINE">
    <line class="cls-1" x1="742.07" y1="290.74" x2="793.02" y2="369.14"/>
  </g>
  <g id="LINE-43" data-name="LINE">
    <line class="cls-1" x1="793.02" y1="369.14" x2="789.24" y2="372.21"/>
  </g>
  <g id="LINE-44" data-name="LINE">
    <line class="cls-1" x1="839.38" y1="449.38" x2="789.24" y2="372.21"/>
  </g>
  <g id="LINE-45" data-name="LINE">
    <line class="cls-1" x1="959.24" y1="385.25" x2="844.71" y2="451.2"/>
  </g>
  <g id="ELLIPSE-12" data-name="ELLIPSE">
    <path class="cls-1" d="M844.71,451.2c-1.66.96-4.05.14-5.33-1.83"/>
  </g>
  <g id="ELLIPSE-13" data-name="ELLIPSE">
    <path class="cls-1" d="M959.24,385.25c.13-.08.25-.16.37-.26"/>
  </g>
  <g id="ARC-11" data-name="ARC">
    <path class="cls-1" d="M729.29,9.36c-.66-1.02-2-1.35-3.05-.73"/>
  </g>
  <g id="LINE-46" data-name="LINE">
    <line class="cls-1" x1="726.24" y1="8.63" x2="608.7" y2="76.31"/>
  </g>
  <g id="LINE-47" data-name="LINE">
    <line class="cls-1" x1="602.18" y1="81.57" x2="608.37" y2="76.54"/>
  </g>
  <g id="ARC-12" data-name="ARC">
    <path class="cls-1" d="M608.37,76.54c.1-.08.21-.16.33-.23"/>
  </g>
  <g id="LINE-48" data-name="LINE">
    <line class="cls-1" x1="966.55" y1="374.48" x2="729.29" y2="9.36"/>
  </g>
  <g id="SPLINE-12" data-name="SPLINE">
    <path class="cls-1" d="M966.55,374.48c.19.3.35.62.47.96s.2.71.23,1.09,0,.79-.08,1.2-.24.82-.47,1.2c-.22.36-.5.7-.84.98-.02.02-.04.03-.06.05"/>
  </g>
  <g id="LINE-49" data-name="LINE">
    <line class="cls-1" x1="959.61" y1="385" x2="965.8" y2="379.97"/>
  </g>
  <g id="LINE-50" data-name="LINE">
    <line class="cls-1" x1="683.95" y1="509.21" x2="553.88" y2="476.62"/>
  </g>
  <g id="LINE-51" data-name="LINE">
    <line class="cls-1" x1="700.23" y1="533.21" x2="517" y2="487.31"/>
  </g>
  <g id="ELLIPSE-14" data-name="ELLIPSE">
    <path class="cls-1" d="M909.99,612.06c-.08-.12.27-.51,1-1.13"/>
  </g>
  <g id="ELLIPSE-15" data-name="ELLIPSE">
    <path class="cls-1" d="M514.92,490.41c-.45-2.11.48-3.5,2.08-3.1"/>
  </g>
  <g id="ELLIPSE-16" data-name="ELLIPSE">
    <path class="cls-1" d="M519,509.53c.29,1.34.85,2.5,1.62,3.36"/>
  </g>
  <g id="LINE-52" data-name="LINE">
    <line class="cls-1" x1="514.92" y1="490.4" x2="519" y2="509.53"/>
  </g>
  <g id="SPLINE-13" data-name="SPLINE">
    <path class="cls-1" d="M520.62,512.89c.37.41.9.79,1.52,1.08.47.22.99.4,1.5.53"/>
  </g>
  <g id="ELLIPSE-17" data-name="ELLIPSE">
    <path class="cls-1" d="M908.91,610.41s.04.07.06.1"/>
  </g>
  <g id="SPLINE-14" data-name="SPLINE">
    <path class="cls-1" d="M607.34,486.85c.24,1.11.6,2.28,1.07,3.43"/>
  </g>
  <g id="LINE-53" data-name="LINE">
    <line class="cls-1" x1="607.34" y1="486.85" x2="605.85" y2="479.86"/>
  </g>
  <g id="SPLINE-15" data-name="SPLINE">
    <path class="cls-1" d="M602.19,478.02c.21-.12.44-.21.67-.25.24-.05.47-.06.68-.04.25.02.47.08.65.15.24.09.44.21.6.34.22.17.39.34.53.53s.26.38.35.6c.07.16.13.33.17.52"/>
  </g>
  <g id="LINE-54" data-name="LINE">
    <line class="cls-1" x1="561.28" y1="464.39" x2="558.62" y2="463.72"/>
  </g>
  <g id="ARC-13" data-name="ARC">
    <path class="cls-1" d="M556.38,464.01c.68-.38,1.48-.49,2.24-.28"/>
  </g>
  <g id="SPLINE-16" data-name="SPLINE">
    <path class="cls-1" d="M671.17,502.85c.24,1.11.6,2.28,1.07,3.43"/>
  </g>
  <g id="LINE-55" data-name="LINE">
    <line class="cls-1" x1="671.17" y1="502.85" x2="669.67" y2="495.85"/>
  </g>
  <g id="SPLINE-17" data-name="SPLINE">
    <path class="cls-1" d="M666.02,494.01c.21-.12.44-.21.67-.25.24-.05.47-.06.68-.04.25.02.47.08.65.15.24.09.44.21.6.34.22.17.39.34.53.53s.26.38.35.6c.07.16.13.33.17.52"/>
  </g>
  <g id="SPLINE-18" data-name="SPLINE">
    <path class="cls-1" d="M639.25,494.85c.24,1.11.6,2.28,1.07,3.43"/>
  </g>
  <g id="LINE-56" data-name="LINE">
    <line class="cls-1" x1="639.25" y1="494.85" x2="637.76" y2="487.86"/>
  </g>
  <g id="SPLINE-19" data-name="SPLINE">
    <path class="cls-1" d="M634.11,486.01c.21-.12.44-.21.67-.25.24-.05.47-.06.68-.04.25.02.47.08.65.15.24.09.44.21.6.34.22.17.39.34.53.53s.26.38.35.6c.07.16.13.33.17.52"/>
  </g>
  <g id="LINE-57" data-name="LINE">
    <line class="cls-1" x1="684.26" y1="508.65" x2="683.49" y2="509.1"/>
  </g>
  <g id="LINE-58" data-name="LINE">
    <line class="cls-1" x1="666.02" y1="494.01" x2="653.06" y2="501.47"/>
  </g>
  <g id="LINE-59" data-name="LINE">
    <line class="cls-1" x1="634.11" y1="486.01" x2="621.15" y2="493.48"/>
  </g>
  <g id="LINE-60" data-name="LINE">
    <line class="cls-1" x1="602.19" y1="478.02" x2="589.23" y2="485.48"/>
  </g>
  <g id="LINE-61" data-name="LINE">
    <line class="cls-1" x1="556.38" y1="464.01" x2="515.69" y2="487.44"/>
  </g>
  <g id="LINE-62" data-name="LINE">
    <line class="cls-1" x1="523.64" y1="514.5" x2="720.04" y2="563.7"/>
  </g>
  <g id="LINE-63" data-name="LINE">
    <line class="cls-1" x1="781.79" y1="579.18" x2="909.39" y2="611.15"/>
  </g>
  <g id="LINE-64" data-name="LINE">
    <line class="cls-1" x1="909.99" y1="612.06" x2="908.97" y2="610.51"/>
  </g>
  <g id="ELLIPSE-18" data-name="ELLIPSE">
    <path class="cls-1" d="M911,610.93c-.73.62-1.08,1.02-1,1.13"/>
  </g>
  <g id="LINE-65" data-name="LINE">
    <line class="cls-1" x1="1085.5" y1="525.1" x2="1108.47" y2="560.06"/>
  </g>
  <g id="LINE-66" data-name="LINE">
    <line class="cls-1" x1="952.16" y1="601.89" x2="973.63" y2="634.56"/>
  </g>
  <g id="SPLINE-20" data-name="SPLINE">
    <path class="cls-1" d="M1108.47,560.06c.46.7.84,1.44,1.12,2.16s.47,1.45.58,2.12.11,1.32.06,1.86"/>
  </g>
  <g id="SPLINE-21" data-name="SPLINE">
    <path class="cls-1" d="M973.63,634.56c.46.7,1,1.37,1.6,1.96s1.24,1.12,1.91,1.55,1.34.77,1.99,1.01,1.3.39,1.86.45c.61.07,1.15.04,1.58-.05s.78-.22,1.06-.38"/>
  </g>
  <g id="LINE-67" data-name="LINE">
    <line class="cls-1" x1="1116.25" y1="562.74" x2="983.64" y2="639.11"/>
  </g>
  <g id="ARC-14" data-name="ARC">
    <path class="cls-1" d="M1116.25,562.74c.14-.08.27-.17.4-.28"/>
  </g>
  <g id="SPLINE-22" data-name="SPLINE">
    <path class="cls-1" d="M1147.07,544.46c1.25,1.91,2.28,3.96,3.05,6.1.76,2.14,1.26,4.38,1.45,6.64.19,2.26.07,4.56-.39,6.79s-1.27,4.41-2.43,6.41-2.67,3.8-4.44,5.29"/>
  </g>
  <g id="SPLINE-23" data-name="SPLINE">
    <path class="cls-1" d="M977.12,674.32c-1.99,1.14-4.16,1.94-6.4,2.36-2.36.45-4.78.49-7.15.18-2.48-.33-4.9-1.05-7.17-2.08s-4.4-2.39-6.33-4c-1.92-1.61-3.64-3.47-5.1-5.51-.21-.3-.42-.6-.62-.91"/>
  </g>
  <g id="LINE-68" data-name="LINE">
    <line class="cls-1" x1="977.12" y1="674.32" x2="1133.85" y2="584.07"/>
  </g>
  <g id="ARC-15" data-name="ARC">
    <path class="cls-1" d="M1133.85,584.07c1-.58,1.95-1.24,2.83-1.98"/>
  </g>
  <g id="LINE-69" data-name="LINE">
    <line class="cls-1" x1="1136.68" y1="582.09" x2="1144.31" y2="575.69"/>
  </g>
  <g id="LINE-70" data-name="LINE">
    <line class="cls-1" x1="1120.94" y1="504.69" x2="1147.07" y2="544.46"/>
  </g>
  <g id="LINE-71" data-name="LINE">
    <line class="cls-1" x1="944.36" y1="664.35" x2="909.99" y2="612.06"/>
  </g>
  <g id="ELLIPSE-19" data-name="ELLIPSE">
    <path class="cls-3" d="M506.86,233.01c0,1.32.34,2.91.53,3.39"/>
  </g>
  <g id="LINE-72" data-name="LINE">
    <line class="cls-1" x1="517.09" y1="251.38" x2="507.54" y2="236.69"/>
  </g>
  <g id="LINE-73" data-name="LINE">
    <line class="cls-1" x1="630.58" y1="128.05" x2="625.92" y2="130.74"/>
  </g>
  <g id="LINE-74" data-name="LINE">
    <line class="cls-1" x1="464.86" y1="225.52" x2="507.54" y2="236.69"/>
  </g>
  <g id="SPLINE-24" data-name="SPLINE">
    <path class="cls-1" d="M454.03,215.52c.26,1.25.74,2.45,1.35,3.49s1.35,1.92,2.13,2.66,1.59,1.33,2.4,1.82,1.64.89,2.46,1.22,1.65.6,2.49.81"/>
  </g>
  <g id="LINE-75" data-name="LINE">
    <line class="cls-1" x1="450.87" y1="200.25" x2="454.03" y2="215.52"/>
  </g>
  <g id="LINE-76" data-name="LINE">
    <line class="cls-1" x1="610.89" y1="97.75" x2="606.24" y2="100.44"/>
  </g>
  <g id="LINE-77" data-name="LINE">
    <line class="cls-1" x1="478.28" y1="174.12" x2="460.03" y2="184.63"/>
  </g>
  <g id="SPLINE-25" data-name="SPLINE">
    <path class="cls-1" d="M450.87,200.25c-.28-1.35-.3-2.75-.11-4.03.21-1.43.67-2.71,1.24-3.81.61-1.19,1.33-2.19,2.11-3.08s1.61-1.66,2.48-2.36,1.79-1.34,2.75-1.92c.23-.14.45-.27.68-.4"/>
  </g>
  <g id="LINE-78" data-name="LINE">
    <line class="cls-1" x1="823.25" y1="424.56" x2="815.61" y2="422.64"/>
  </g>
  <g id="SPLINE-26" data-name="SPLINE">
    <path class="cls-1" d="M841.91,454.76c-.2-.05-.44-.17-.71-.37-.28-.21-.6-.52-.93-.89"/>
  </g>
  <g id="ELLIPSE-20" data-name="ELLIPSE">
    <path class="cls-1" d="M840.27,453.49c-.78-.86-1.34-2.02-1.62-3.36"/>
  </g>
  <g id="LINE-79" data-name="LINE">
    <line class="cls-1" x1="912.1" y1="426.89" x2="894.56" y2="422.5"/>
  </g>
  <g id="LINE-80" data-name="LINE">
    <line class="cls-1" x1="807.79" y1="400.75" x2="800.14" y2="398.84"/>
  </g>
  <g id="LINE-81" data-name="LINE">
    <line class="cls-1" x1="870.45" y1="436.38" x2="887.99" y2="440.77"/>
  </g>
  <g id="LINE-82" data-name="LINE">
    <line class="cls-1" x1="838.05" y1="447.32" x2="838.65" y2="450.13"/>
  </g>
  <g id="LINE-83" data-name="LINE">
    <line class="cls-1" x1="825.17" y1="427.51" x2="820.51" y2="430.19"/>
  </g>
  <g id="LINE-84" data-name="LINE">
    <line class="cls-1" x1="857.1" y1="458.56" x2="841.91" y2="454.76"/>
  </g>
  <g id="LINE-85" data-name="LINE">
    <line class="cls-1" x1="842.29" y1="454.85" x2="822.11" y2="466.47"/>
  </g>
  <g id="ARC-16" data-name="ARC">
    <path class="cls-1" d="M819.87,466.75c.75.2,1.56.1,2.24-.28"/>
  </g>
  <g id="LINE-86" data-name="LINE">
    <line class="cls-1" x1="818.36" y1="466.38" x2="819.87" y2="466.76"/>
  </g>
  <g id="SPLINE-27" data-name="SPLINE">
    <path class="cls-1" d="M559.65,465.65c-.85.66-1.55,1.51-2.08,2.48-.6,1.1-.81,2.31-.99,3.63-.1.75-.21,2.35-.2,3.15,0,0,.07,2.13.09,2.17"/>
  </g>
  <g id="LINE-87" data-name="LINE">
    <line class="cls-1" x1="561.61" y1="464.14" x2="559.65" y2="465.65"/>
  </g>
  <g id="ARC-17" data-name="ARC">
    <path class="cls-1" d="M561.61,464.14c.15-.12.31-.23.48-.32"/>
  </g>
  <g id="ARC-18" data-name="ARC">
    <path class="cls-1" d="M611.82,435.18c5.98-3.47,11.79-7.21,17.42-11.21"/>
  </g>
  <g id="LINE-88" data-name="LINE">
    <line class="cls-1" x1="611.82" y1="435.18" x2="562.09" y2="463.82"/>
  </g>
  <g id="LINE-89" data-name="LINE">
    <line class="cls-1" x1="648.57" y1="453.72" x2="605.26" y2="478.66"/>
  </g>
  <g id="ELLIPSE-21" data-name="ELLIPSE">
    <path class="cls-3" d="M1055.8,525.85c1.6.4,4.25-.05,5.92-1.01"/>
  </g>
  <g id="ELLIPSE-22" data-name="ELLIPSE">
    <path class="cls-3" d="M1176.24,458.89c.91-.52,1.37-1.12,1.27-1.62"/>
  </g>
  <g id="LINE-90" data-name="LINE">
    <line class="cls-3" x1="1061.71" y1="524.84" x2="1176.24" y2="458.89"/>
  </g>
  <g id="LINE-91" data-name="LINE">
    <line class="cls-3" x1="841.1" y1="472.06" x2="1055.8" y2="525.85"/>
  </g>
  <g id="ELLIPSE-23" data-name="ELLIPSE">
    <path class="cls-3" d="M839.95,471.21c.08.38.49.68,1.15.85"/>
  </g>
  <g id="ELLIPSE-24" data-name="ELLIPSE">
    <path class="cls-3" d="M475.76,152.9c-.67.55-.74,1.63-.16,2.52"/>
  </g>
  <g id="ELLIPSE-25" data-name="ELLIPSE">
    <path class="cls-3" d="M832.82,456.59c.13-.08.25-.16.37-.26"/>
  </g>
  <g id="LINE-92" data-name="LINE">
    <line class="cls-3" x1="718.29" y1="522.54" x2="832.82" y2="456.59"/>
  </g>
  <g id="LINE-93" data-name="LINE">
    <line class="cls-3" x1="475.59" y1="155.43" x2="712.96" y2="520.71"/>
  </g>
  <g id="ELLIPSE-26" data-name="ELLIPSE">
    <path class="cls-3" d="M712.96,520.71c1.28,1.97,3.67,2.79,5.33,1.83"/>
  </g>
  <g id="LINE-94" data-name="LINE">
    <line class="cls-3" x1="832.82" y1="456.59" x2="826.63" y2="461.62"/>
  </g>
  <g id="LINE-95" data-name="LINE">
    <line class="cls-3" x1="789.46" y1="372.56" x2="784.81" y2="375.24"/>
  </g>
  <g id="ELLIPSE-27" data-name="ELLIPSE">
    <path class="cls-3" d="M850.07,690.43c.07-.03.13-.07.19-.12"/>
  </g>
  <g id="ELLIPSE-28" data-name="ELLIPSE">
    <path class="cls-3" d="M840.42,698.26c.07-.03.13-.07.19-.12"/>
  </g>
  <g id="LINE-96" data-name="LINE">
    <line class="cls-3" x1="850.08" y1="690.45" x2="840.44" y2="698.28"/>
  </g>
  <g id="ELLIPSE-29" data-name="ELLIPSE">
    <path class="cls-3" d="M840.44,698.28c-.71.58-1.81,1.37-3.08,2.23"/>
  </g>
  <g id="SPLINE-28" data-name="SPLINE">
    <path class="cls-3" d="M837.36,700.51c-.1.07-.21.14-.32.2"/>
  </g>
  <g id="LINE-97" data-name="LINE">
    <line class="cls-3" x1="837.36" y1="700.51" x2="818.56" y2="711.34"/>
  </g>
  <g id="SPLINE-29" data-name="SPLINE">
    <path class="cls-3" d="M818.5,711.39s.04-.03.06-.05"/>
  </g>
  <g id="LINE-98" data-name="LINE">
    <line class="cls-3" x1="819.34" y1="710.43" x2="828.98" y2="702.6"/>
  </g>
  <g id="ELLIPSE-30" data-name="ELLIPSE">
    <path class="cls-3" d="M818.56,711.34c-.21,0,.07-.33.78-.9"/>
  </g>
  <g id="ELLIPSE-31" data-name="ELLIPSE">
    <path class="cls-3" d="M828.98,702.6c1.07-.87.89-3.16-.39-5.13"/>
  </g>
  <g id="LINE-99" data-name="LINE">
    <line class="cls-3" x1="828.6" y1="697.47" x2="745.34" y2="569.35"/>
  </g>
  <g id="LINE-100" data-name="LINE">
    <line class="cls-3" x1="744.74" y1="568.42" x2="716.53" y2="525.02"/>
  </g>
  <g id="ELLIPSE-32" data-name="ELLIPSE">
    <path class="cls-3" d="M818.56,711.34c-.36.24-.77.36-1.2.35"/>
  </g>
  <g id="LINE-101" data-name="LINE">
    <line class="cls-3" x1="826.32" y1="701.68" x2="816.67" y2="709.52"/>
  </g>
  <g id="ELLIPSE-33" data-name="ELLIPSE">
    <path class="cls-3" d="M826.12,699.12c.64.98.73,2.13.19,2.57"/>
  </g>
  <g id="LINE-102" data-name="LINE">
    <line class="cls-3" x1="713.96" y1="526.5" x2="826.12" y2="699.12"/>
  </g>
  <g id="LINE-103" data-name="LINE">
    <line class="cls-3" x1="816.67" y1="709.52" x2="518.21" y2="250.21"/>
  </g>
  <g id="ELLIPSE-34" data-name="ELLIPSE">
    <path class="cls-3" d="M1035.56,586.37c-.36.24-.77.36-1.2.35"/>
  </g>
  <g id="SPLINE-30" data-name="SPLINE">
    <path class="cls-3" d="M1035.51,586.43s.04-.03.06-.05"/>
  </g>
  <g id="ELLIPSE-35" data-name="ELLIPSE">
    <path class="cls-3" d="M1035.56,586.37c-.21,0,.07-.33.78-.9"/>
  </g>
  <g id="LINE-104" data-name="LINE">
    <line class="cls-3" x1="1036.34" y1="585.47" x2="1045.99" y2="577.63"/>
  </g>
  <g id="ELLIPSE-36" data-name="ELLIPSE">
    <path class="cls-3" d="M1045.99,577.63c1.07-.87.89-3.16-.39-5.13"/>
  </g>
  <g id="LINE-105" data-name="LINE">
    <line class="cls-3" x1="930.96" y1="401.54" x2="946.02" y2="424.71"/>
  </g>
  <g id="LINE-106" data-name="LINE">
    <line class="cls-3" x1="1045.6" y1="572.5" x2="1034.05" y2="554.73"/>
  </g>
  <g id="LINE-107" data-name="LINE">
    <line class="cls-3" x1="950.25" y1="425.77" x2="933.54" y2="400.05"/>
  </g>
  <g id="LINE-108" data-name="LINE">
    <line class="cls-2" x1="1050.58" y1="536.62" x2="1066.19" y2="560.64"/>
  </g>
  <g id="ELLIPSE-37" data-name="ELLIPSE">
    <path class="cls-2" d="M1066.19,560.64c1.29,1.98,1.46,4.29.39,5.16"/>
  </g>
  <g id="LINE-109" data-name="LINE">
    <line class="cls-3" x1="1054.36" y1="575.55" x2="1035.56" y2="586.37"/>
  </g>
  <g id="ELLIPSE-38" data-name="ELLIPSE">
    <path class="cls-3" d="M1057.44,573.32c-.71.58-1.81,1.37-3.08,2.23"/>
  </g>
  <g id="LINE-110" data-name="LINE">
    <line class="cls-3" x1="1067.08" y1="565.49" x2="1057.44" y2="573.32"/>
  </g>
  <g id="SPLINE-31" data-name="SPLINE">
    <path class="cls-3" d="M1054.36,575.55c-.1.07-.21.14-.32.2"/>
  </g>
  <g id="ELLIPSE-39" data-name="ELLIPSE">
    <path class="cls-3" d="M1057.62,573.18c-.06.04-.12.08-.19.12"/>
  </g>
  <g id="ELLIPSE-40" data-name="ELLIPSE">
    <path class="cls-3" d="M1067.26,565.35c-.06.04-.12.08-.19.12"/>
  </g>
  <g id="ELLIPSE-41" data-name="ELLIPSE">
    <path class="cls-3" d="M1043.63,535.26c.91-.52,1.37-1.12,1.27-1.62"/>
  </g>
  <g id="LINE-111" data-name="LINE">
    <line class="cls-3" x1="929.1" y1="601.21" x2="1043.63" y2="535.26"/>
  </g>
  <g id="LINE-112" data-name="LINE">
    <line class="cls-3" x1="743.31" y1="557.15" x2="923.19" y2="602.22"/>
  </g>
  <g id="LINE-113" data-name="LINE">
    <line class="cls-1" x1="772.34" y1="532.42" x2="747.33" y2="526.15"/>
  </g>
  <g id="LINE-114" data-name="LINE">
    <line class="cls-3" x1="755.8" y1="539.17" x2="763.63" y2="541.13"/>
  </g>
  <g id="ELLIPSE-42" data-name="ELLIPSE">
    <path class="cls-1" d="M771.23,536.78c3.22-1.79,3.47-3.77.67-4.47"/>
  </g>
  <g id="ELLIPSE-43" data-name="ELLIPSE">
    <path class="cls-3" d="M742.15,556.3c.08.38.49.68,1.15.85"/>
  </g>
  <g id="ELLIPSE-44" data-name="ELLIPSE">
    <path class="cls-3" d="M923.19,602.22c1.6.4,4.25-.05,5.92-1.01"/>
  </g>
  <g id="LINE-115" data-name="LINE">
    <line class="cls-3" x1="931.75" y1="613.64" x2="929.1" y2="601.21"/>
  </g>
  <g id="LINE-116" data-name="LINE">
    <line class="cls-3" x1="923.19" y1="602.22" x2="925.84" y2="614.65"/>
  </g>
  <g id="ELLIPSE-45" data-name="ELLIPSE">
    <path class="cls-3" d="M608.21,79.06c-.58-.89-.51-1.97.16-2.52"/>
  </g>
  <g id="LINE-117" data-name="LINE">
    <line class="cls-3" x1="608.21" y1="79.06" x2="845.57" y2="444.35"/>
  </g>
  <g id="ELLIPSE-46" data-name="ELLIPSE">
    <path class="cls-3" d="M845.57,444.35c1.28,1.97,3.67,2.79,5.33,1.83"/>
  </g>
  <g id="LINE-118" data-name="LINE">
    <line class="cls-3" x1="850.9" y1="446.18" x2="965.43" y2="380.22"/>
  </g>
  <g id="ELLIPSE-47" data-name="ELLIPSE">
    <path class="cls-3" d="M965.43,380.22c.13-.08.25-.16.37-.26"/>
  </g>
  <g id="LINE-119" data-name="LINE">
    <line class="cls-3" x1="965.43" y1="380.22" x2="959.24" y2="385.25"/>
  </g>
  <g id="ELLIPSE-48" data-name="ELLIPSE">
    <path class="cls-3" d="M607.34,486.85c.05.25-.18.55-.63.81"/>
  </g>
  <g id="ELLIPSE-49" data-name="ELLIPSE">
    <path class="cls-3" d="M606.7,487.66c.17.78.39,1.57.67,2.36"/>
  </g>
  <g id="ELLIPSE-50" data-name="ELLIPSE">
    <path class="cls-3" d="M605.85,479.86c.05.25-.18.55-.63.81"/>
  </g>
  <g id="LINE-120" data-name="LINE">
    <line class="cls-3" x1="605.21" y1="480.67" x2="606.7" y2="487.66"/>
  </g>
  <g id="ELLIPSE-51" data-name="ELLIPSE">
    <path class="cls-3" d="M602.19,478.02c.22-.13.49-.15.79-.08.96.24,1.96,1.46,2.23,2.73"/>
  </g>
  <g id="ELLIPSE-52" data-name="ELLIPSE">
    <path class="cls-3" d="M558.62,463.72c-.3-.07-.62-.02-.93.16"/>
  </g>
  <g id="LINE-121" data-name="LINE">
    <line class="cls-3" x1="557.69" y1="463.88" x2="560.9" y2="464.68"/>
  </g>
  <g id="ELLIPSE-53" data-name="ELLIPSE">
    <path class="cls-3" d="M556.38,464.01c.36-.21.82-.25,1.31-.13"/>
  </g>
  <g id="ELLIPSE-54" data-name="ELLIPSE">
    <path class="cls-3" d="M671.17,502.84c.05.25-.18.55-.63.81"/>
  </g>
  <g id="ELLIPSE-55" data-name="ELLIPSE">
    <path class="cls-3" d="M670.53,503.65c.17.78.39,1.57.67,2.36"/>
  </g>
  <g id="ELLIPSE-56" data-name="ELLIPSE">
    <path class="cls-3" d="M669.67,495.85c.05.25-.18.55-.63.81"/>
  </g>
  <g id="LINE-122" data-name="LINE">
    <line class="cls-3" x1="669.04" y1="496.66" x2="670.53" y2="503.65"/>
  </g>
  <g id="ELLIPSE-57" data-name="ELLIPSE">
    <path class="cls-3" d="M666.02,494.01c.22-.13.49-.15.79-.08.96.24,1.96,1.46,2.23,2.73"/>
  </g>
  <g id="ELLIPSE-58" data-name="ELLIPSE">
    <path class="cls-3" d="M639.25,494.85c.05.25-.18.55-.63.81"/>
  </g>
  <g id="ELLIPSE-59" data-name="ELLIPSE">
    <path class="cls-3" d="M638.62,495.66c.17.78.39,1.57.67,2.36"/>
  </g>
  <g id="ELLIPSE-60" data-name="ELLIPSE">
    <path class="cls-3" d="M637.76,487.86c.05.25-.18.55-.63.81"/>
  </g>
  <g id="LINE-123" data-name="LINE">
    <line class="cls-3" x1="637.13" y1="488.66" x2="638.62" y2="495.66"/>
  </g>
  <g id="ELLIPSE-61" data-name="ELLIPSE">
    <path class="cls-3" d="M634.11,486.01c.22-.13.49-.15.79-.08.96.24,1.96,1.46,2.23,2.73"/>
  </g>
  <g id="LINE-124" data-name="LINE">
    <line class="cls-3" x1="684.44" y1="508.92" x2="683.95" y2="509.21"/>
  </g>
  <g id="LINE-125" data-name="LINE">
    <line class="cls-1" x1="556.31" y1="475.22" x2="553.88" y2="476.62"/>
  </g>
  <g id="LINE-126" data-name="LINE">
    <line class="cls-3" x1="517" y1="487.31" x2="557.69" y2="463.88"/>
  </g>
  <g id="LINE-127" data-name="LINE">
    <line class="cls-3" x1="670.53" y1="503.65" x2="667.88" y2="505.18"/>
  </g>
  <g id="LINE-128" data-name="LINE">
    <line class="cls-3" x1="669.04" y1="496.66" x2="658.38" y2="502.8"/>
  </g>
  <g id="LINE-129" data-name="LINE">
    <line class="cls-3" x1="638.62" y1="495.66" x2="635.96" y2="497.19"/>
  </g>
  <g id="LINE-130" data-name="LINE">
    <line class="cls-3" x1="626.46" y1="494.81" x2="637.13" y2="488.66"/>
  </g>
  <g id="LINE-131" data-name="LINE">
    <line class="cls-3" x1="606.7" y1="487.66" x2="604.05" y2="489.19"/>
  </g>
  <g id="LINE-132" data-name="LINE">
    <line class="cls-3" x1="605.21" y1="480.67" x2="594.55" y2="486.81"/>
  </g>
  <g id="LINE-133" data-name="LINE">
    <line class="cls-3" x1="717.08" y1="559.16" x2="519" y2="509.53"/>
  </g>
  <g id="LINE-134" data-name="LINE">
    <line class="cls-1" x1="1095.46" y1="519.37" x2="1117.2" y2="552.46"/>
  </g>
  <g id="LINE-135" data-name="LINE">
    <line class="cls-3" x1="1127.05" y1="545.79" x2="1105.78" y2="513.43"/>
  </g>
  <g id="LINE-136" data-name="LINE">
    <line class="cls-3" x1="949.05" y1="603.68" x2="970.32" y2="636.04"/>
  </g>
  <g id="ELLIPSE-62" data-name="ELLIPSE">
    <path class="cls-1" d="M1117.2,552.46c2.32,3.53,2.08,7.8-.55,10.01"/>
  </g>
  <g id="ELLIPSE-63" data-name="ELLIPSE">
    <path class="cls-3" d="M970.32,636.04c5.15,7.84,14.73,11.09,21.39,7.26"/>
  </g>
  <g id="LINE-137" data-name="LINE">
    <line class="cls-3" x1="991.71" y1="643.3" x2="1124.32" y2="566.93"/>
  </g>
  <g id="ELLIPSE-64" data-name="ELLIPSE">
    <path class="cls-3" d="M1124.32,566.93c6.66-3.83,7.88-13.3,2.72-21.14"/>
  </g>
  <g id="ELLIPSE-65" data-name="ELLIPSE">
    <path class="cls-3" d="M1141.89,577.38c.86-.49,1.67-1.06,2.42-1.69"/>
  </g>
  <g id="ELLIPSE-66" data-name="ELLIPSE">
    <path class="cls-3" d="M1143.77,545.95c5.15,7.84,3.93,17.31-2.72,21.14"/>
  </g>
  <g id="LINE-138" data-name="LINE">
    <line class="cls-3" x1="985.17" y1="667.64" x2="1141.89" y2="577.38"/>
  </g>
  <g id="LINE-139" data-name="LINE">
    <line class="cls-3" x1="1141.04" y1="567.09" x2="984.32" y2="657.34"/>
  </g>
  <g id="ELLIPSE-67" data-name="ELLIPSE">
    <path class="cls-3" d="M953.09,656.75c7.73,11.76,22.09,16.64,32.08,10.89"/>
  </g>
  <g id="ELLIPSE-68" data-name="ELLIPSE">
    <path class="cls-3" d="M984.32,657.34c-6.66,3.83-16.23.59-21.39-7.26"/>
  </g>
  <g id="ELLIPSE-69" data-name="ELLIPSE">
    <path class="cls-3" d="M977.12,674.32c.14-.08.28-.18.41-.29"/>
  </g>
  <g id="ELLIPSE-70" data-name="ELLIPSE">
    <path class="cls-3" d="M977.53,674.03c-9.99,5.75-24.35.88-32.08-10.89"/>
  </g>
  <g id="ELLIPSE-71" data-name="ELLIPSE">
    <path class="cls-3" d="M1133.85,584.07c.14-.08.28-.18.41-.29"/>
  </g>
  <g id="LINE-140" data-name="LINE">
    <line class="cls-3" x1="1134.26" y1="583.78" x2="977.53" y2="674.03"/>
  </g>
  <g id="ELLIPSE-72" data-name="ELLIPSE">
    <path class="cls-3" d="M1136.68,582.09c-.76.63-1.57,1.2-2.42,1.69"/>
  </g>
  <g id="LINE-141" data-name="LINE">
    <line class="cls-3" x1="1117.83" y1="506.48" x2="1143.77" y2="545.95"/>
  </g>
  <g id="LINE-142" data-name="LINE">
    <line class="cls-3" x1="962.93" y1="650.08" x2="937" y2="610.62"/>
  </g>
  <g id="LINE-143" data-name="LINE">
    <line class="cls-3" x1="953.09" y1="656.75" x2="925.33" y2="614.52"/>
  </g>
  <g id="LINE-144" data-name="LINE">
    <line class="cls-3" x1="945.45" y1="663.14" x2="911.17" y2="610.97"/>
  </g>
  <g id="LINE-145" data-name="LINE">
    <line class="cls-3" x1="518.21" y1="250.21" x2="506.86" y2="232.75"/>
  </g>
  <g id="LINE-146" data-name="LINE">
    <line class="cls-3" x1="500.67" y1="216.68" x2="507.02" y2="218.34"/>
  </g>
  <g id="LINE-147" data-name="LINE">
    <line class="cls-3" x1="506.86" y1="232.75" x2="503.84" y2="231.96"/>
  </g>
  <g id="ELLIPSE-73" data-name="ELLIPSE">
    <path class="cls-3" d="M480.57,178.96c.37.1.75.24,1.13.43"/>
  </g>
  <g id="ELLIPSE-74" data-name="ELLIPSE">
    <path class="cls-3" d="M480.57,178.96c-6.66,3.83-6.85,8.3-.42,9.99"/>
  </g>
  <g id="LINE-148" data-name="LINE">
    <line class="cls-3" x1="613.81" y1="102.24" x2="609.15" y2="104.92"/>
  </g>
  <g id="LINE-149" data-name="LINE">
    <line class="cls-3" x1="481.19" y1="178.6" x2="480.57" y2="178.96"/>
  </g>
  <g id="LINE-150" data-name="LINE">
    <line class="cls-3" x1="615.49" y1="114.68" x2="620.15" y2="112"/>
  </g>
  <g id="LINE-151" data-name="LINE">
    <line class="cls-3" x1="480.15" y1="188.95" x2="489.51" y2="191.4"/>
  </g>
  <g id="LINE-152" data-name="LINE">
    <line class="cls-3" x1="488.25" y1="189.48" x2="488.25" y2="189.46"/>
  </g>
  <g id="LINE-153" data-name="LINE">
    <line class="cls-3" x1="628.23" y1="124.44" x2="623.58" y2="127.12"/>
  </g>
  <g id="LINE-154" data-name="LINE">
    <line class="cls-3" x1="462.7" y1="184.38" x2="478.89" y2="175.06"/>
  </g>
  <g id="ELLIPSE-75" data-name="ELLIPSE">
    <path class="cls-3" d="M462.28,194.37c-6.43-1.68-6.24-6.15.42-9.99"/>
  </g>
  <g id="LINE-155" data-name="LINE">
    <line class="cls-3" x1="497.41" y1="203.56" x2="462.28" y2="194.37"/>
  </g>
  <g id="LINE-156" data-name="LINE">
    <line class="cls-3" x1="503.84" y1="231.96" x2="460.99" y2="220.75"/>
  </g>
  <g id="ELLIPSE-76" data-name="ELLIPSE">
    <path class="cls-3" d="M460.99,220.75c-4.02-1.05-6.48-2.9-6.96-5.23"/>
  </g>
  <g id="ELLIPSE-77" data-name="ELLIPSE">
    <path class="cls-3" d="M450.87,200.25c.48,2.33,2.94,4.18,6.96,5.23"/>
  </g>
  <g id="LINE-157" data-name="LINE">
    <line class="cls-3" x1="457.83" y1="205.48" x2="500.67" y2="216.68"/>
  </g>
  <g id="LINE-158" data-name="LINE">
    <line class="cls-3" x1="825.35" y1="427.78" x2="820.69" y2="430.46"/>
  </g>
  <g id="LINE-159" data-name="LINE">
    <line class="cls-3" x1="824.32" y1="436.05" x2="828.98" y2="433.37"/>
  </g>
  <g id="LINE-160" data-name="LINE">
    <line class="cls-3" x1="821.79" y1="432.15" x2="826.45" y2="429.47"/>
  </g>
  <g id="LINE-161" data-name="LINE">
    <line class="cls-3" x1="861.7" y1="455.91" x2="844.04" y2="451.48"/>
  </g>
  <g id="LINE-162" data-name="LINE">
    <line class="cls-3" x1="827.96" y1="460.58" x2="840.27" y2="453.49"/>
  </g>
  <g id="ELLIPSE-78" data-name="ELLIPSE">
    <path class="cls-3" d="M819.87,466.76c-.36-.09-.66-.36-.85-.76"/>
  </g>
  <g id="ELLIPSE-79" data-name="ELLIPSE">
    <path class="cls-3" d="M556.53,474.62c.01-2.88,1.28-5.15,2.91-6.41"/>
  </g>
  <g id="LINE-163" data-name="LINE">
    <line class="cls-3" x1="559.44" y1="468.21" x2="561.4" y2="466.69"/>
  </g>
  <g id="ELLIPSE-80" data-name="ELLIPSE">
    <path class="cls-3" d="M570.27,468.17c-2.39-3.74-5.95-5.64-8.18-4.36"/>
  </g>
  <g id="ELLIPSE-81" data-name="ELLIPSE">
    <path class="cls-3" d="M561.4,466.69c1.63-1.26,4.48.14,6.37,3.11"/>
  </g>
  <g id="LINE-164" data-name="LINE">
    <line class="cls-3" x1="579.42" y1="482.52" x2="570.27" y2="468.17"/>
  </g>
  <g id="LINE-165" data-name="LINE">
    <line class="cls-3" x1="567.78" y1="469.8" x2="575.6" y2="482.06"/>
  </g>
  <g id="ELLIPSE-82" data-name="ELLIPSE">
    <path class="cls-3" d="M579.78,483.11c-.11-.2-.23-.4-.36-.59"/>
  </g>
  <g id="LINE-166" data-name="LINE">
    <line class="cls-3" x1="629.15" y1="453.88" x2="579.42" y2="482.52"/>
  </g>
  <g id="LINE-167" data-name="LINE">
    <line class="cls-3" x1="570.27" y1="468.17" x2="620" y2="439.54"/>
  </g>
  <g id="LINE-168" data-name="LINE">
    <line class="cls-3" x1="604.99" y1="478.37" x2="629.8" y2="464.08"/>
  </g>
  <g id="ELLIPSE-83" data-name="ELLIPSE">
    <path class="cls-3" d="M629.8,464.08c5.68-3.27,13.17-8.09,17.99-11.57"/>
  </g>
  <g id="LINE-169" data-name="LINE">
    <line class="cls-3" x1="648.54" y1="453.67" x2="605.23" y2="478.62"/>
  </g>
  <g id="ELLIPSE-84" data-name="ELLIPSE">
    <path class="cls-3" d="M647.35,451.84c-3.03.33-6.33-1.45-8.25-4.46"/>
  </g>
  <g id="ELLIPSE-85" data-name="ELLIPSE">
    <path class="cls-3" d="M639.1,447.38c-2.17,1.67-6.62,4.58-9.95,6.5"/>
  </g>
  <g id="LINE-170" data-name="LINE">
    <line class="cls-3" x1="642.66" y1="444.63" x2="639.1" y2="447.38"/>
  </g>
  <g id="ELLIPSE-86" data-name="ELLIPSE">
    <path class="cls-3" d="M629.44,424.28c-1.54,2.41-1.34,5.86.51,8.76"/>
  </g>
  <g id="LINE-171" data-name="LINE">
    <line class="cls-3" x1="629.95" y1="433.04" x2="633.4" y2="430.37"/>
  </g>
  <g id="ELLIPSE-87" data-name="ELLIPSE">
    <path class="cls-3" d="M620,439.54c3.33-1.92,7.78-4.83,9.95-6.5"/>
  </g>
  <g id="LINE-172" data-name="LINE">
    <line class="cls-3" x1="629.95" y1="433.04" x2="639.1" y2="447.38"/>
  </g>
</svg>