<?xml version="1.0" encoding="UTF-8"?>
<svg id="TEXT" xmlns="http://www.w3.org/2000/svg" viewBox="0 0 748.49 603.2">
  <defs>
    <style>
      .cls-1 {
        fill: #fff;
        stroke-width: 0px;
      }
    </style>
  </defs>
  <path class="cls-1" d="M445.69,501.45c-17.08,0-34.15-.18-51.22.09-6.08.1-10-2.22-13.19-7.26-7.05-11.11-14.47-21.98-21.76-32.94-5.54-8.32-12.42-14.62-22.15-18.34-15.72-6-27.64-17.51-38.98-29.58-9.48-10.08-17.53-21.22-24.47-33.16-5.99-10.3-15.34-16.81-25.25-22.64-8.01-4.71-16.49-8.67-24.37-13.58-4.15-2.59-8.23-5.96-11.01-9.92-4.26-6.09-1.27-14.86,5.86-20.11,6.97-5.13,14.86-6.44,23.23-5.21,18,2.65,32.57,11.83,45.61,23.97,3.06,2.85,6.26,5.62,9.68,8.01,3.52,2.47,5.85,1.49,6.31-2.74,1.79-16.33,2.57-32.69-5.03-47.97-8.58-17.27-17.65-34.3-26.31-51.54-7.05-14.01-14.02-28.06-20.6-42.3-2.63-5.7-3.19-11.95.11-17.86,7.68-13.77,26.71-15.38,35.79-2.53,9.82,13.87,18.91,28.27,28.16,42.53,6.08,9.38,11.86,18.95,17.86,28.38,1.31,2.05,2.81,4.06,4.59,5.7,3.01,2.79,6.71,1.97,8.08-1.91.99-2.81,1.71-5.91,1.62-8.86-.43-14.36-1.13-28.72-1.8-43.08-.47-9.91-.98-19.83-1.58-29.73-.64-10.6-1.36-21.2-2.14-31.79-1.34-18.04,18.8-27.38,32.55-21.37,7.99,3.5,11.18,10.17,11.69,18.38,1.04,16.77,1.94,33.56,2.89,50.34.92,16.2,1.7,32.41,2.85,48.6.33,4.58,1.52,9.14,2.78,13.58.78,2.75,2.73,5.02,6.01,5.06,3.37.04,5.03-2.4,5.84-5.15,3.15-10.68,6.54-21.31,9.02-32.15,4.98-21.84,9.43-43.8,14.07-65.71,2.58-12.18,13.39-17.95,25.64-15.37,9.16,1.93,16.32,6.95,18.13,16.65.79,4.26-.1,9.04-1.08,13.39-5.35,23.78-11.11,47.47-16.4,71.27-1.81,8.15-2.68,16.5-3.88,24.78-.21,1.48-.03,3.03.11,4.54.27,2.99,1.49,5.58,4.49,6.47,2.99.89,5.18-1,6.83-3.23,4.72-6.36,9.4-12.76,13.96-19.24,6.64-9.43,13.24-18.89,19.69-28.46,4.6-6.82,10.71-10.57,18.96-9.08,9.79,1.77,16.73,7.27,19.6,17.17,1.79,6.15-.38,11.6-3.56,16.55-6.92,10.78-14.2,21.32-21.29,31.99-5.16,7.76-10.03,15.72-15.42,23.31-6.74,9.49-8.19,20.55-10.26,31.49-4.05,21.44-7.76,43-15.49,63.52-2.4,6.37-5.97,12.32-9.26,18.32-2.58,4.72-2.65,6.42.53,10.79,14.41,19.79,28.82,39.58,43.2,59.39,1.16,1.59,2.11,3.34,3.11,5.03,4.38,7.39-1.1,13.4-8,13.45-6.78.05-13.57.03-20.35.03-11.34,0-22.69,0-34.03,0Z"/>
</svg>