<?xml version="1.0" encoding="UTF-8"?>
<svg id="GRAPHIC" xmlns="http://www.w3.org/2000/svg" viewBox="0 0 1584 720">
  <defs>
    <style>
      .cls-1 {
        stroke-width: .23px;
      }

      .cls-1, .cls-2 {
        fill: none;
        stroke: #000;
        stroke-linecap: round;
        stroke-linejoin: round;
      }

      .cls-2 {
        stroke-width: .65px;
      }
    </style>
  </defs>
  <g id="LINE">
    <line class="cls-2" x1="785.1" y1="253.02" x2="409.12" y2="216.38"/>
  </g>
  <g id="LINE-2" data-name="LINE">
    <line class="cls-2" x1="409.12" y1="212.87" x2="317.57" y2="203.95"/>
  </g>
  <g id="LINE-3" data-name="LINE">
    <line class="cls-2" x1="317.57" y1="203.95" x2="305.72" y2="206.3"/>
  </g>
  <g id="LINE-4" data-name="LINE">
    <line class="cls-2" x1="305.72" y1="206.3" x2="219.34" y2="197.88"/>
  </g>
  <g id="ELLIPSE">
    <path class="cls-2" d="M200.7,192.9c0,1.99,6.96,3.85,18.64,4.98"/>
  </g>
  <g id="ELLIPSE-2" data-name="ELLIPSE">
    <path class="cls-2" d="M1301.53,217.19c5.15-1.02,7.91-2.24,7.91-3.49"/>
  </g>
  <g id="LINE-5" data-name="LINE">
    <line class="cls-2" x1="1301.53" y1="217.19" x2="1241.04" y2="229.21"/>
  </g>
  <g id="LINE-6" data-name="LINE">
    <line class="cls-2" x1="1241.04" y1="229.21" x2="1224.12" y2="227.57"/>
  </g>
  <g id="LINE-7" data-name="LINE">
    <line class="cls-2" x1="1224.12" y1="227.57" x2="1096.25" y2="252.98"/>
  </g>
  <g id="LINE-8" data-name="LINE">
    <line class="cls-2" x1="1096.25" y1="257.99" x2="1035.76" y2="270.02"/>
  </g>
  <g id="ELLIPSE-3" data-name="ELLIPSE">
    <path class="cls-2" d="M974.87,271.51c19.78,1.93,47.04,1.26,60.89-1.49"/>
  </g>
  <g id="LINE-9" data-name="LINE">
    <line class="cls-2" x1="974.87" y1="271.51" x2="888.49" y2="263.09"/>
  </g>
  <g id="LINE-10" data-name="LINE">
    <line class="cls-2" x1="888.49" y1="259.58" x2="796.94" y2="250.66"/>
  </g>
  <g id="LINE-11" data-name="LINE">
    <line class="cls-2" x1="796.94" y1="250.66" x2="785.1" y2="253.02"/>
  </g>
  <g id="ELLIPSE-4" data-name="ELLIPSE">
    <path class="cls-2" d="M796.94,150.31c-7.37,9.36-11.85,24.16-11.85,39.13"/>
  </g>
  <g id="LINE-12" data-name="LINE">
    <line class="cls-2" x1="900.34" y1="160.38" x2="796.94" y2="150.31"/>
  </g>
  <g id="ELLIPSE-5" data-name="ELLIPSE">
    <path class="cls-2" d="M888.49,199.52c0-14.97,4.48-29.77,11.85-39.13"/>
  </g>
  <g id="ELLIPSE-6" data-name="ELLIPSE">
    <path class="cls-2" d="M317.57,103.59c-7.37,9.36-11.85,24.16-11.85,39.13"/>
  </g>
  <g id="LINE-13" data-name="LINE">
    <line class="cls-2" x1="420.96" y1="113.67" x2="317.57" y2="103.59"/>
  </g>
  <g id="ELLIPSE-7" data-name="ELLIPSE">
    <path class="cls-2" d="M409.12,152.8c0-14.97,4.48-29.77,11.85-39.13"/>
  </g>
  <g id="ELLIPSE-8" data-name="ELLIPSE">
    <path class="cls-2" d="M1241.04,165.64c0-14.97-6.4-29.5-16.92-38.43"/>
  </g>
  <g id="ELLIPSE-9" data-name="ELLIPSE">
    <path class="cls-2" d="M1079.33,155.99c10.52,8.92,16.92,23.46,16.92,38.43"/>
  </g>
  <g id="LINE-14" data-name="LINE">
    <line class="cls-2" x1="1224.12" y1="127.21" x2="1079.33" y2="155.99"/>
  </g>
  <g id="LINE-15" data-name="LINE">
    <line class="cls-2" x1="1224.12" y1="227.57" x2="1224.12" y2="127.21"/>
  </g>
  <g id="LINE-16" data-name="LINE">
    <line class="cls-2" x1="1241.04" y1="229.21" x2="1241.04" y2="165.64"/>
  </g>
  <g id="LINE-17" data-name="LINE">
    <line class="cls-2" x1="1096.25" y1="257.99" x2="1096.25" y2="194.42"/>
  </g>
  <g id="LINE-18" data-name="LINE">
    <line class="cls-2" x1="888.49" y1="263.09" x2="888.49" y2="199.52"/>
  </g>
  <g id="LINE-19" data-name="LINE">
    <line class="cls-2" x1="796.94" y1="150.31" x2="796.94" y2="250.66"/>
  </g>
  <g id="LINE-20" data-name="LINE">
    <line class="cls-2" x1="409.12" y1="216.38" x2="409.12" y2="152.8"/>
  </g>
  <g id="LINE-21" data-name="LINE">
    <line class="cls-2" x1="317.57" y1="203.95" x2="317.57" y2="103.59"/>
  </g>
  <g id="LINE-22" data-name="LINE">
    <line class="cls-2" x1="305.72" y1="206.3" x2="305.72" y2="142.72"/>
  </g>
  <g id="LINE-23" data-name="LINE">
    <line class="cls-2" x1="785.1" y1="253.02" x2="785.1" y2="189.44"/>
  </g>
  <g id="LINE-24" data-name="LINE">
    <line class="cls-2" x1="1269.96" y1="106.61" x2="514.42" y2="32.99"/>
  </g>
  <g id="ARC">
    <path class="cls-2" d="M501.66,33.62c4.2-.83,8.5-1.05,12.76-.63"/>
  </g>
  <g id="ARC-2" data-name="ARC">
    <path class="cls-2" d="M1269.96,106.61c22.4,2.18,39.48,21.01,39.48,43.51"/>
  </g>
  <g id="ARC-3" data-name="ARC">
    <path class="cls-2" d="M200.7,129.32c0-20.86,14.74-38.81,35.2-42.88"/>
  </g>
  <g id="LINE-25" data-name="LINE">
    <line class="cls-2" x1="501.66" y1="33.62" x2="235.89" y2="86.44"/>
  </g>
  <g id="LINE-26" data-name="LINE">
    <line class="cls-2" x1="1309.43" y1="213.7" x2="1309.43" y2="150.13"/>
  </g>
  <g id="LINE-27" data-name="LINE">
    <line class="cls-2" x1="200.7" y1="192.9" x2="200.7" y2="129.32"/>
  </g>
  <g id="LINE-28" data-name="LINE">
    <line class="cls-2" x1="1096.25" y1="267.28" x2="1064.89" y2="264.23"/>
  </g>
  <g id="LINE-29" data-name="LINE">
    <line class="cls-2" x1="1096.25" y1="267.28" x2="1096.25" y2="650.27"/>
  </g>
  <g id="ELLIPSE-10" data-name="ELLIPSE">
    <path class="cls-2" d="M1241.04,621.49c0-3.84-.42-7.7-1.26-11.49"/>
  </g>
  <g id="LINE-30" data-name="LINE">
    <line class="cls-2" x1="1241.04" y1="238.5" x2="1241.04" y2="621.49"/>
  </g>
  <g id="LINE-31" data-name="LINE">
    <line class="cls-2" x1="1209.08" y1="235.39" x2="1241.04" y2="238.5"/>
  </g>
  <g id="LINE-32" data-name="LINE">
    <line class="cls-2" x1="1209.08" y1="235.39" x2="1224.12" y2="350.48"/>
  </g>
  <g id="LINE-33" data-name="LINE">
    <line class="cls-2" x1="1224.12" y1="350.48" x2="1224.12" y2="608.48"/>
  </g>
  <g id="LINE-34" data-name="LINE">
    <line class="cls-2" x1="1224.12" y1="608.48" x2="1239.79" y2="610.01"/>
  </g>
  <g id="ELLIPSE-11" data-name="ELLIPSE">
    <path class="cls-2" d="M1091.45,671.45c-4.88,9.75-13.01,16.33-22.49,18.21"/>
  </g>
  <g id="LINE-35" data-name="LINE">
    <line class="cls-2" x1="1236.25" y1="642.67" x2="1091.45" y2="671.45"/>
  </g>
  <g id="ELLIPSE-12" data-name="ELLIPSE">
    <path class="cls-2" d="M1205.23,661.3c12.79,1.25,24.62-5.85,31.01-18.62"/>
  </g>
  <g id="LINE-36" data-name="LINE">
    <line class="cls-2" x1="1096.25" y1="638.54" x2="1239.79" y2="610.01"/>
  </g>
  <g id="LINE-37" data-name="LINE">
    <line class="cls-2" x1="1035.76" y1="279.3" x2="1096.25" y2="267.28"/>
  </g>
  <g id="LINE-38" data-name="LINE">
    <line class="cls-2" x1="785.1" y1="645.3" x2="785.1" y2="262.31"/>
  </g>
  <g id="ELLIPSE-13" data-name="ELLIPSE">
    <path class="cls-2" d="M785.1,645.3c0-3.84.3-7.72.88-11.54"/>
  </g>
  <g id="LINE-39" data-name="LINE">
    <line class="cls-2" x1="796.94" y1="631.58" x2="785.98" y2="633.76"/>
  </g>
  <g id="LINE-40" data-name="LINE">
    <line class="cls-2" x1="796.94" y1="259.95" x2="796.94" y2="631.58"/>
  </g>
  <g id="LINE-41" data-name="LINE">
    <line class="cls-2" x1="785.1" y1="262.31" x2="796.94" y2="259.95"/>
  </g>
  <g id="LINE-42" data-name="LINE">
    <line class="cls-2" x1="305.72" y1="598.58" x2="305.72" y2="215.59"/>
  </g>
  <g id="ELLIPSE-14" data-name="ELLIPSE">
    <path class="cls-2" d="M305.72,598.58c0-3.84.3-7.72.88-11.54"/>
  </g>
  <g id="LINE-43" data-name="LINE">
    <line class="cls-2" x1="317.57" y1="584.86" x2="306.6" y2="587.04"/>
  </g>
  <g id="LINE-44" data-name="LINE">
    <line class="cls-2" x1="317.57" y1="213.24" x2="317.57" y2="584.86"/>
  </g>
  <g id="LINE-45" data-name="LINE">
    <line class="cls-2" x1="305.72" y1="215.59" x2="317.57" y2="213.24"/>
  </g>
  <g id="LINE-46" data-name="LINE">
    <line class="cls-2" x1="409.12" y1="608.66" x2="409.12" y2="225.67"/>
  </g>
  <g id="LINE-47" data-name="LINE">
    <line class="cls-2" x1="420.96" y1="223.31" x2="409.12" y2="225.67"/>
  </g>
  <g id="LINE-48" data-name="LINE">
    <line class="cls-2" x1="888.49" y1="655.37" x2="888.49" y2="272.38"/>
  </g>
  <g id="LINE-49" data-name="LINE">
    <line class="cls-2" x1="900.34" y1="270.03" x2="888.49" y2="272.38"/>
  </g>
  <g id="LINE-50" data-name="LINE">
    <line class="cls-2" x1="306.6" y1="587.04" x2="409.12" y2="597.03"/>
  </g>
  <g id="ELLIPSE-15" data-name="ELLIPSE">
    <path class="cls-2" d="M309.08,619.56c4.48,12.5,12.76,19.11,21.72,17.33"/>
  </g>
  <g id="LINE-51" data-name="LINE">
    <line class="cls-2" x1="891.85" y1="676.35" x2="309.08" y2="619.56"/>
  </g>
  <g id="ELLIPSE-16" data-name="ELLIPSE">
    <path class="cls-2" d="M909.33,693.9c-7.35-.72-13.75-7.15-17.48-17.55"/>
  </g>
  <g id="LINE-52" data-name="LINE">
    <line class="cls-2" x1="785.98" y1="633.76" x2="888.49" y2="643.75"/>
  </g>
  <g id="LINE-53" data-name="LINE">
    <line class="cls-2" x1="219.34" y1="207.17" x2="305.72" y2="215.59"/>
  </g>
  <g id="LINE-54" data-name="LINE">
    <line class="cls-2" x1="409.12" y1="225.67" x2="785.1" y2="262.31"/>
  </g>
  <g id="LINE-55" data-name="LINE">
    <line class="cls-2" x1="1163.17" y1="657.2" x2="1205.23" y2="661.3"/>
  </g>
  <g id="ELLIPSE-17" data-name="ELLIPSE">
    <path class="cls-2" d="M366.21,629.85c5.15-1.02,7.91-2.24,7.91-3.49"/>
  </g>
  <g id="LINE-56" data-name="LINE">
    <line class="cls-2" x1="366.21" y1="629.85" x2="330.8" y2="636.89"/>
  </g>
  <g id="LINE-57" data-name="LINE">
    <line class="cls-2" x1="1026.95" y1="271.31" x2="1025.83" y2="271.53"/>
  </g>
  <g id="LINE-58" data-name="LINE">
    <line class="cls-2" x1="796.94" y1="259.95" x2="900.34" y2="270.03"/>
  </g>
  <g id="LINE-59" data-name="LINE">
    <line class="cls-2" x1="888.49" y1="272.38" x2="974.87" y2="280.8"/>
  </g>
  <g id="ELLIPSE-18" data-name="ELLIPSE">
    <path class="cls-2" d="M1035.76,279.3c-13.85,2.75-41.11,3.42-60.89,1.49"/>
  </g>
  <g id="LINE-60" data-name="LINE">
    <line class="cls-2" x1="1096.25" y1="257.82" x2="1209.08" y2="235.39"/>
  </g>
  <g id="LINE-61" data-name="LINE">
    <line class="cls-2" x1="1301.53" y1="226.48" x2="1241.04" y2="238.5"/>
  </g>
  <g id="ELLIPSE-19" data-name="ELLIPSE">
    <path class="cls-2" d="M1295.05,218.48c16.35,2.06,19.12,5.49,6.48,8"/>
  </g>
  <g id="LINE-62" data-name="LINE">
    <line class="cls-2" x1="215.08" y1="197.41" x2="208.6" y2="198.7"/>
  </g>
  <g id="ELLIPSE-20" data-name="ELLIPSE">
    <path class="cls-2" d="M219.34,207.17c-19.78-1.93-24.59-5.72-10.74-8.47"/>
  </g>
  <g id="LINE-63" data-name="LINE">
    <line class="cls-2" x1="317.57" y1="213.24" x2="420.96" y2="223.31"/>
  </g>
  <g id="LINE-64" data-name="LINE">
    <line class="cls-2" x1="888.49" y1="640.5" x2="796.94" y2="631.58"/>
  </g>
  <g id="LINE-65" data-name="LINE">
    <line class="cls-2" x1="409.12" y1="593.78" x2="317.57" y2="584.86"/>
  </g>
  <g id="LINE-66" data-name="LINE">
    <line class="cls-2" x1="1096.25" y1="633.9" x2="1224.12" y2="608.48"/>
  </g>
  <g id="LINE-67" data-name="LINE">
    <line class="cls-2" x1="1224.12" y1="350.48" x2="1096.25" y2="375.9"/>
  </g>
  <g id="LINE-68" data-name="LINE">
    <line class="cls-2" x1="1274.24" y1="648.86" x2="1213.75" y2="660.88"/>
  </g>
  <g id="LINE-69" data-name="LINE">
    <line class="cls-2" x1="1068.96" y1="689.66" x2="1008.47" y2="701.69"/>
  </g>
  <g id="LINE-70" data-name="LINE">
    <line class="cls-2" x1="995.71" y1="702.32" x2="909.33" y2="693.9"/>
  </g>
  <g id="LINE-71" data-name="LINE">
    <line class="cls-2" x1="326.56" y1="637.11" x2="240.17" y2="628.69"/>
  </g>
  <g id="LINE-72" data-name="LINE">
    <line class="cls-2" x1="374.11" y1="625.9" x2="374.11" y2="626.36"/>
  </g>
  <g id="ARC-4" data-name="ARC">
    <path class="cls-2" d="M240.17,628.69c-22.4-2.18-39.48-21.01-39.48-43.51"/>
  </g>
  <g id="ARC-5" data-name="ARC">
    <path class="cls-2" d="M1008.47,701.69c-4.2.83-8.5,1.05-12.76.63"/>
  </g>
  <g id="ARC-6" data-name="ARC">
    <path class="cls-2" d="M1309.43,605.98c0,20.86-14.74,38.81-35.2,42.88"/>
  </g>
  <g id="LINE-73" data-name="LINE">
    <line class="cls-2" x1="200.7" y1="585.18" x2="200.7" y2="202.19"/>
  </g>
  <g id="LINE-74" data-name="LINE">
    <line class="cls-2" x1="1309.43" y1="605.98" x2="1309.43" y2="222.99"/>
  </g>
  <g id="LINE-75" data-name="LINE">
    <line class="cls-1" x1="785.1" y1="189.44" x2="409.12" y2="152.8"/>
  </g>
  <g id="LINE-76" data-name="LINE">
    <line class="cls-1" x1="974.87" y1="207.93" x2="888.49" y2="199.52"/>
  </g>
  <g id="ELLIPSE-21" data-name="ELLIPSE">
    <path class="cls-1" d="M974.87,207.93c0-23.91,11.23-45.52,25.08-48.28"/>
  </g>
  <g id="LINE-77" data-name="LINE">
    <line class="cls-1" x1="999.95" y1="159.66" x2="244.42" y2="86.03"/>
  </g>
  <g id="ELLIPSE-22" data-name="ELLIPSE">
    <path class="cls-1" d="M219.34,134.31c0-23.91,11.23-45.52,25.08-48.28"/>
  </g>
  <g id="LINE-78" data-name="LINE">
    <line class="cls-1" x1="305.72" y1="142.72" x2="219.34" y2="134.31"/>
  </g>
  <g id="ELLIPSE-23" data-name="ELLIPSE">
    <path class="cls-1" d="M514.42,32.99c-1.4-.14-2.82-.06-4.24.22"/>
  </g>
  <g id="LINE-79" data-name="LINE">
    <line class="cls-1" x1="510.18" y1="33.21" x2="1265.72" y2="106.83"/>
  </g>
  <g id="ELLIPSE-24" data-name="ELLIPSE">
    <path class="cls-1" d="M1269.96,106.61c-1.4-.14-2.82-.06-4.24.22"/>
  </g>
  <g id="LINE-80" data-name="LINE">
    <line class="cls-1" x1="1301.53" y1="153.62" x2="1241.04" y2="165.64"/>
  </g>
  <g id="ELLIPSE-25" data-name="ELLIPSE">
    <path class="cls-1" d="M1301.53,153.62c0-23.91-16.03-44.86-35.81-46.78"/>
  </g>
  <g id="LINE-81" data-name="LINE">
    <line class="cls-1" x1="1265.72" y1="106.83" x2="999.95" y2="159.66"/>
  </g>
  <g id="ELLIPSE-26" data-name="ELLIPSE">
    <path class="cls-1" d="M1035.76,206.44c0-23.91-16.03-44.86-35.81-46.78"/>
  </g>
  <g id="LINE-82" data-name="LINE">
    <line class="cls-1" x1="1096.25" y1="194.42" x2="1035.76" y2="206.44"/>
  </g>
  <g id="ELLIPSE-27" data-name="ELLIPSE">
    <path class="cls-1" d="M501.66,33.62c2.79-.55,5.65-.69,8.52-.41"/>
  </g>
  <g id="ELLIPSE-28" data-name="ELLIPSE">
    <path class="cls-1" d="M1301.53,153.62c5.15-1.02,7.91-2.24,7.91-3.49"/>
  </g>
  <g id="ELLIPSE-29" data-name="ELLIPSE">
    <path class="cls-1" d="M974.87,207.93c19.78,1.93,47.04,1.26,60.89-1.49"/>
  </g>
  <g id="ELLIPSE-30" data-name="ELLIPSE">
    <path class="cls-1" d="M235.89,86.44c2.79-.55,5.65-.69,8.52-.41"/>
  </g>
  <g id="ELLIPSE-31" data-name="ELLIPSE">
    <path class="cls-1" d="M219.34,134.31c-11.68-1.14-18.64-3-18.64-4.98"/>
  </g>
  <g id="LINE-83" data-name="LINE">
    <line class="cls-1" x1="244.42" y1="86.03" x2="510.18" y2="33.21"/>
  </g>
  <g id="LINE-84" data-name="LINE">
    <line class="cls-1" x1="1301.53" y1="153.62" x2="1301.53" y2="217.19"/>
  </g>
  <g id="LINE-85" data-name="LINE">
    <line class="cls-1" x1="1035.76" y1="270.02" x2="1035.76" y2="206.44"/>
  </g>
  <g id="LINE-86" data-name="LINE">
    <line class="cls-1" x1="974.87" y1="207.93" x2="974.87" y2="271.51"/>
  </g>
  <g id="LINE-87" data-name="LINE">
    <line class="cls-1" x1="219.34" y1="197.88" x2="219.34" y2="134.31"/>
  </g>
  <g id="LINE-88" data-name="LINE">
    <line class="cls-1" x1="1035.76" y1="662.3" x2="1096.25" y2="650.27"/>
  </g>
  <g id="ELLIPSE-32" data-name="ELLIPSE">
    <path class="cls-1" d="M1035.76,662.3c0,19.94-11.27,36.21-27.29,39.39"/>
  </g>
  <g id="ELLIPSE-33" data-name="ELLIPSE">
    <path class="cls-1" d="M1301.53,609.47c0,19.94-11.27,36.21-27.29,39.39"/>
  </g>
  <g id="LINE-89" data-name="LINE">
    <line class="cls-1" x1="1241.04" y1="621.49" x2="1301.53" y2="609.47"/>
  </g>
  <g id="LINE-90" data-name="LINE">
    <line class="cls-1" x1="1035.76" y1="662.3" x2="1035.76" y2="279.3"/>
  </g>
  <g id="LINE-91" data-name="LINE">
    <line class="cls-1" x1="409.12" y1="608.66" x2="785.1" y2="645.3"/>
  </g>
  <g id="LINE-92" data-name="LINE">
    <line class="cls-1" x1="219.34" y1="590.16" x2="305.72" y2="598.58"/>
  </g>
  <g id="ELLIPSE-34" data-name="ELLIPSE">
    <path class="cls-1" d="M219.34,590.16c0,21.09,8.8,37.36,20.84,38.53"/>
  </g>
  <g id="ELLIPSE-35" data-name="ELLIPSE">
    <path class="cls-1" d="M974.87,663.79c0,21.09,8.8,37.36,20.84,38.53"/>
  </g>
  <g id="LINE-93" data-name="LINE">
    <line class="cls-1" x1="888.49" y1="655.37" x2="974.87" y2="663.79"/>
  </g>
  <g id="LINE-94" data-name="LINE">
    <line class="cls-1" x1="219.34" y1="207.17" x2="219.34" y2="590.16"/>
  </g>
  <g id="LINE-95" data-name="LINE">
    <line class="cls-1" x1="366.21" y1="625.13" x2="366.21" y2="629.85"/>
  </g>
  <g id="LINE-96" data-name="LINE">
    <line class="cls-1" x1="1025.83" y1="271.53" x2="1025.83" y2="271.43"/>
  </g>
  <g id="ELLIPSE-36" data-name="ELLIPSE">
    <path class="cls-1" d="M200.7,585.18c0,1.99,6.96,3.85,18.64,4.98"/>
  </g>
  <g id="ELLIPSE-37" data-name="ELLIPSE">
    <path class="cls-1" d="M974.87,663.79c19.78,1.93,47.04,1.26,60.89-1.49"/>
  </g>
  <g id="ELLIPSE-38" data-name="ELLIPSE">
    <path class="cls-1" d="M1301.53,609.47c5.15-1.02,7.91-2.24,7.91-3.49"/>
  </g>
  <g id="LINE-97" data-name="LINE">
    <line class="cls-1" x1="1301.53" y1="226.48" x2="1301.53" y2="609.47"/>
  </g>
  <g id="LINE-98" data-name="LINE">
    <line class="cls-1" x1="974.87" y1="280.8" x2="974.87" y2="663.79"/>
  </g>
</svg>