<?xml version="1.0" encoding="UTF-8"?>
<svg id="GRAPHIC" xmlns="http://www.w3.org/2000/svg" viewBox="0 0 1584 720">
  <defs>
    <style>
      .cls-1 {
        stroke-width: .33px;
      }

      .cls-1, .cls-2 {
        fill: none;
        stroke: #000;
        stroke-linecap: round;
        stroke-linejoin: round;
      }

      .cls-2 {
        stroke-width: .12px;
      }
    </style>
  </defs>
  <g id="ELLIPSE">
    <path class="cls-1" d="M1121.88,416.24c-3.26-2.16-8.75.78-12.26,6.58-3.5,5.79-3.7,12.24-.43,14.4.14.09.28.18.43.25"/>
  </g>
  <g id="LINE">
    <line class="cls-1" x1="1098.61" y1="431.13" x2="1098.61" y2="406.95"/>
  </g>
  <g id="ELLIPSE-2" data-name="ELLIPSE">
    <path class="cls-1" d="M1098.61,406.95c-4.6,0-9.01,1.06-12.26,2.93"/>
  </g>
  <g id="ELLIPSE-3" data-name="ELLIPSE">
    <path class="cls-1" d="M1087.83,396.58c-3.39-1.96-8.88,1.21-12.26,7.08-2.87,4.97-3.37,10.43-1.19,13.13"/>
  </g>
  <g id="SPLINE">
    <path class="cls-1" d="M1108.57,414.31c.03.21.12.42.26.62s.36.38.59.51.52.24.83.31.66.09.98.08.69-.06,1.02-.15.64-.21.87-.35.43-.3.54-.47.15-.35.13-.51-.11-.33-.26-.5-.36-.32-.59-.45-.52-.26-.83-.37-.66-.18-.98-.22-.69-.05-1.02,0-.64.14-.87.28-.43.32-.54.54-.15.45-.13.67c0,0,0,.01,0,.02Z"/>
  </g>
  <g id="SPLINE-2" data-name="SPLINE">
    <path class="cls-1" d="M1083.42,399.79c.03.21.12.42.26.62s.36.38.59.51.52.24.83.31.66.09.98.08.69-.06,1.02-.15.64-.21.87-.35.43-.3.54-.47.15-.35.13-.51-.11-.33-.26-.5-.36-.32-.59-.45-.52-.26-.83-.37-.66-.18-.98-.22-.69-.05-1.02,0-.64.14-.87.28-.43.32-.54.54-.15.45-.13.67c0,0,0,.01,0,.02Z"/>
  </g>
  <g id="ELLIPSE-4" data-name="ELLIPSE">
    <path class="cls-1" d="M1087.54,437.5c3.54-1.69,3.79-7.88.56-13.82-3.23-5.95-8.71-9.41-12.25-7.72-.15.07-.3.15-.44.25"/>
  </g>
  <g id="SPLINE-3" data-name="SPLINE">
    <path class="cls-1" d="M1083.42,414.34s0,0,0,.01c-.03.17.01.34.13.51s.31.33.54.47.54.26.87.35.69.14,1.02.15.67-.01.98-.08.6-.18.83-.31.44-.31.59-.51.24-.42.26-.64-.01-.46-.13-.67-.31-.4-.54-.54-.54-.24-.87-.28-.69-.04-1.02,0-.67.12-.98.22-.6.23-.83.37-.44.29-.59.45-.23.32-.26.48Z"/>
  </g>
  <g id="ELLIPSE-5" data-name="ELLIPSE">
    <path class="cls-1" d="M1115.74,417.1c-4.55,2.49-8.33,8.82-8.45,14.14,0,.17,0,.33,0,.49"/>
  </g>
  <g id="ELLIPSE-6" data-name="ELLIPSE">
    <path class="cls-1" d="M1081.48,397.31c-4.55,2.49-8.33,8.82-8.45,14.14,0,.17,0,.33,0,.49"/>
  </g>
  <g id="ELLIPSE-7" data-name="ELLIPSE">
    <path class="cls-1" d="M1089.93,431.92c.21-5.13-3.3-11.61-7.85-14.47-.2-.13-.4-.24-.6-.35"/>
  </g>
  <g id="ELLIPSE-8" data-name="ELLIPSE">
    <path class="cls-1" d="M1113.02,415.4c.9-.58.81-1.48-.21-2s-2.56-.47-3.46.12-.82,1.4.08,1.93"/>
  </g>
  <g id="ELLIPSE-9" data-name="ELLIPSE">
    <path class="cls-1" d="M1087.63,415.53c.71-.51.57-1.25-.31-1.65s-2.16-.33-2.87.18c-.58.41-.6,1-.07,1.43"/>
  </g>
  <g id="ELLIPSE-10" data-name="ELLIPSE">
    <path class="cls-1" d="M1087.69,400.96c.66-.53.45-1.26-.46-1.64s-2.19-.26-2.84.27c-.54.43-.51,1.01.07,1.43"/>
  </g>
  <g id="LINE-2" data-name="LINE">
    <line class="cls-1" x1="1087.83" y1="396.58" x2="1121.66" y2="416.11"/>
  </g>
  <g id="LINE-3" data-name="LINE">
    <line class="cls-1" x1="1098.61" y1="431.13" x2="1109.4" y2="437.35"/>
  </g>
  <g id="LINE-4" data-name="LINE">
    <line class="cls-1" x1="1098.61" y1="431.13" x2="1087.83" y2="437.35"/>
  </g>
  <g id="LINE-5" data-name="LINE">
    <line class="cls-1" x1="1086.35" y1="409.88" x2="1075.57" y2="416.11"/>
  </g>
  <g id="ELLIPSE-11" data-name="ELLIPSE">
    <path class="cls-1" d="M684.9,163.95c-3.39-1.96-8.88,1.21-12.26,7.08-2.87,4.97-3.37,10.43-1.19,13.13"/>
  </g>
  <g id="ELLIPSE-12" data-name="ELLIPSE">
    <path class="cls-1" d="M695.68,174.32c-4.6,0-9.01,1.06-12.26,2.93"/>
  </g>
  <g id="LINE-6" data-name="LINE">
    <line class="cls-1" x1="695.68" y1="198.5" x2="695.68" y2="174.32"/>
  </g>
  <g id="ELLIPSE-13" data-name="ELLIPSE">
    <path class="cls-1" d="M718.94,183.61c-3.26-2.16-8.75.78-12.26,6.58-3.5,5.79-3.7,12.24-.43,14.4.14.09.28.18.43.25"/>
  </g>
  <g id="SPLINE-4" data-name="SPLINE">
    <path class="cls-1" d="M683.13,168.68c-.32,0-.65-.02-.95-.08s-.6-.18-.83-.31-.44-.31-.59-.51-.24-.42-.26-.64.01-.46.13-.67.31-.4.54-.54.54-.24.87-.28.69-.04,1.02,0,.67.12.98.22.6.23.83.37.44.29.59.45.24.33.26.5-.01.34-.13.51-.31.33-.54.47-.54.26-.87.35-.69.14-1.02.15c0,0-.02,0-.03,0Z"/>
  </g>
  <g id="SPLINE-5" data-name="SPLINE">
    <path class="cls-1" d="M708.28,183.2c-.32,0-.65-.02-.95-.08s-.6-.18-.83-.31-.44-.31-.59-.51-.24-.42-.26-.64.01-.46.13-.67.31-.4.54-.54.54-.24.87-.28.69-.04,1.02,0,.67.12.98.22.6.23.83.37c.23.13.44.29.59.45s.24.33.26.5-.01.34-.13.51-.31.33-.54.47-.54.26-.87.35-.69.14-1.02.15c0,0-.02,0-.03,0Z"/>
  </g>
  <g id="ELLIPSE-14" data-name="ELLIPSE">
    <path class="cls-1" d="M672.48,183.57c.14-.09.29-.17.44-.25,3.54-1.69,9.02,1.77,12.25,7.72,3.23,5.95,2.98,12.14-.56,13.82"/>
  </g>
  <g id="SPLINE-6" data-name="SPLINE">
    <path class="cls-1" d="M683.09,183.2s-.02,0-.03,0c-.33-.01-.69-.06-1.02-.15s-.64-.21-.87-.35-.43-.3-.54-.47-.15-.35-.13-.51.11-.33.26-.5.36-.32.59-.45.52-.26.83-.37.66-.18.98-.22.69-.05,1.02,0,.64.14.87.28.43.32.54.54.15.45.13.67-.11.44-.26.64-.36.38-.59.51-.52.24-.83.31-.64.09-.95.08Z"/>
  </g>
  <g id="ELLIPSE-15" data-name="ELLIPSE">
    <path class="cls-1" d="M678.55,164.68c-4.55,2.49-8.33,8.82-8.45,14.14,0,.17,0,.33,0,.49"/>
  </g>
  <g id="ELLIPSE-16" data-name="ELLIPSE">
    <path class="cls-1" d="M712.81,184.47c-4.55,2.49-8.33,8.82-8.45,14.14,0,.17,0,.33,0,.49"/>
  </g>
  <g id="ELLIPSE-17" data-name="ELLIPSE">
    <path class="cls-1" d="M678.55,184.46c.2.11.4.23.6.35,4.55,2.87,8.06,9.35,7.85,14.47"/>
  </g>
  <g id="ELLIPSE-18" data-name="ELLIPSE">
    <path class="cls-1" d="M681.36,168.3c-.9-.53-.94-1.38-.08-1.93.9-.58,2.45-.64,3.46-.12s1.11,1.41.21,2"/>
  </g>
  <g id="ELLIPSE-19" data-name="ELLIPSE">
    <path class="cls-1" d="M681.45,182.85c-.54-.43-.51-1.01.07-1.43.71-.51,1.99-.59,2.87-.18.88.41,1.02,1.15.31,1.65"/>
  </g>
  <g id="ELLIPSE-20" data-name="ELLIPSE">
    <path class="cls-1" d="M706.67,182.9c-.58-.41-.6-1-.07-1.43.66-.53,1.93-.65,2.84-.27s1.12,1.11.46,1.64"/>
  </g>
  <g id="LINE-7" data-name="LINE">
    <line class="cls-1" x1="684.9" y1="163.95" x2="718.73" y2="183.48"/>
  </g>
  <g id="LINE-8" data-name="LINE">
    <line class="cls-1" x1="695.68" y1="198.5" x2="706.47" y2="204.72"/>
  </g>
  <g id="LINE-9" data-name="LINE">
    <line class="cls-1" x1="672.64" y1="183.48" x2="683.42" y2="177.25"/>
  </g>
  <g id="LINE-10" data-name="LINE">
    <line class="cls-1" x1="684.9" y1="204.72" x2="695.68" y2="198.5"/>
  </g>
  <g id="ELLIPSE-21" data-name="ELLIPSE">
    <path class="cls-1" d="M909.69,552.88c-.15-.07-.29-.16-.43-.25-3.26-2.16-3.07-8.61.43-14.4,3.5-5.79,8.99-8.74,12.26-6.58"/>
  </g>
  <g id="ELLIPSE-22" data-name="ELLIPSE">
    <path class="cls-1" d="M898.69,522.36c4.6,0,9.01,1.06,12.26,2.93"/>
  </g>
  <g id="LINE-11" data-name="LINE">
    <line class="cls-1" x1="898.69" y1="518.21" x2="898.69" y2="522.36"/>
  </g>
  <g id="ELLIPSE-23" data-name="ELLIPSE">
    <path class="cls-1" d="M875.64,533.23c-3.39-1.96-3.39-8.3,0-14.16,3.39-5.87,8.88-9.04,12.26-7.08"/>
  </g>
  <g id="SPLINE-7" data-name="SPLINE">
    <path class="cls-1" d="M911.24,528.22c.32.04.65.12.95.22s.6.23.83.37.44.29.59.45.24.33.26.5-.01.34-.13.51-.31.33-.54.47-.54.26-.87.35-.69.14-1.02.15-.67-.01-.98-.08-.6-.18-.83-.31-.44-.31-.59-.51-.24-.42-.26-.64.01-.46.13-.67.31-.4.54-.54.54-.24.87-.28.69-.04,1.02,0c0,0,.02,0,.03,0Z"/>
  </g>
  <g id="SPLINE-8" data-name="SPLINE">
    <path class="cls-1" d="M886.09,513.7c.32.04.65.12.95.22s.6.23.83.37.44.29.59.45.24.33.26.5-.01.34-.13.51-.31.33-.54.47-.54.26-.87.35-.69.14-1.02.15-.67-.01-.98-.08-.6-.18-.83-.31c-.23-.13-.44-.31-.59-.51s-.24-.42-.26-.64.01-.46.13-.67.31-.4.54-.54.54-.24.87-.28.69-.04,1.02,0c0,0,.02,0,.03,0Z"/>
  </g>
  <g id="ELLIPSE-24" data-name="ELLIPSE">
    <path class="cls-1" d="M922.92,532.2c2.57-3.19,1.37-10.06-2.67-15.36-3.43-4.5-7.91-6.51-10.78-4.85"/>
  </g>
  <g id="SPLINE-9" data-name="SPLINE">
    <path class="cls-1" d="M911.29,513.7s.02,0,.03,0c.33-.04.69-.05,1.02,0s.64.14.87.28.43.32.54.54.15.45.13.67-.11.44-.26.64-.36.38-.59.51c-.23.13-.52.24-.83.31s-.66.09-.98.08-.69-.06-1.02-.15-.64-.21-.87-.35-.43-.3-.54-.47-.15-.35-.13-.51.11-.33.26-.5.36-.32.59-.45.52-.26.83-.37.64-.18.95-.22Z"/>
  </g>
  <g id="ELLIPSE-25" data-name="ELLIPSE">
    <path class="cls-1" d="M907.37,547.14c0-.16,0-.33,0-.49.12-5.32,3.9-11.65,8.45-14.14"/>
  </g>
  <g id="ELLIPSE-26" data-name="ELLIPSE">
    <path class="cls-1" d="M873.1,527.36c0-.16,0-.33,0-.49.12-5.32,3.9-11.65,8.45-14.14"/>
  </g>
  <g id="ELLIPSE-27" data-name="ELLIPSE">
    <path class="cls-1" d="M924.27,527.36c.12-5.18-3.47-11.63-8.02-14.39-.14-.09-.29-.17-.43-.25"/>
  </g>
  <g id="ELLIPSE-28" data-name="ELLIPSE">
    <path class="cls-1" d="M909.51,530.86c-.9-.53-.94-1.38-.08-1.93.9-.58,2.45-.64,3.46-.12,1.01.52,1.11,1.41.21,2"/>
  </g>
  <g id="ELLIPSE-29" data-name="ELLIPSE">
    <path class="cls-1" d="M909.61,516.37c-.54-.43-.51-1.01.07-1.43.71-.51,1.99-.59,2.87-.18.88.41,1.02,1.15.31,1.65"/>
  </g>
  <g id="ELLIPSE-30" data-name="ELLIPSE">
    <path class="cls-1" d="M884.53,516.42c-.58-.41-.6-1-.07-1.43.66-.53,1.93-.65,2.84-.27.91.38,1.12,1.11.46,1.64"/>
  </g>
  <g id="LINE-12" data-name="LINE">
    <line class="cls-1" x1="909.47" y1="552.76" x2="875.64" y2="533.23"/>
  </g>
  <g id="LINE-13" data-name="LINE">
    <line class="cls-1" x1="921.74" y1="531.52" x2="910.95" y2="525.29"/>
  </g>
  <g id="LINE-14" data-name="LINE">
    <line class="cls-1" x1="898.69" y1="518.21" x2="887.91" y2="511.98"/>
  </g>
  <g id="LINE-15" data-name="LINE">
    <line class="cls-1" x1="909.47" y1="511.98" x2="898.69" y2="518.21"/>
  </g>
  <g id="ELLIPSE-31" data-name="ELLIPSE">
    <path class="cls-1" d="M472.71,300.6c-3.39-1.96-3.39-8.3,0-14.16,3.39-5.87,8.88-9.04,12.26-7.08"/>
  </g>
  <g id="LINE-16" data-name="LINE">
    <line class="cls-1" x1="495.76" y1="285.58" x2="495.76" y2="289.73"/>
  </g>
  <g id="ELLIPSE-32" data-name="ELLIPSE">
    <path class="cls-1" d="M495.76,289.73c4.6,0,9.01,1.06,12.26,2.93"/>
  </g>
  <g id="ELLIPSE-33" data-name="ELLIPSE">
    <path class="cls-1" d="M506.76,320.25c-.15-.07-.29-.16-.43-.25-3.26-2.16-3.07-8.61.43-14.4,3.5-5.79,8.99-8.74,12.26-6.58"/>
  </g>
  <g id="SPLINE-10" data-name="SPLINE">
    <path class="cls-1" d="M485.8,282.59c-.03-.16-.12-.32-.26-.48s-.36-.32-.59-.45-.52-.26-.83-.37-.66-.18-.98-.22-.69-.05-1.02,0-.64.14-.87.28-.43.32-.54.54-.15.45-.13.67.11.44.26.64.36.38.59.51.52.24.83.31.66.09.98.08.69-.06,1.02-.15.64-.21.87-.35.43-.3.54-.47.15-.35.13-.51c0,0,0,0,0-.01Z"/>
  </g>
  <g id="SPLINE-11" data-name="SPLINE">
    <path class="cls-1" d="M510.95,297.11c-.03-.16-.12-.32-.26-.48s-.36-.32-.59-.45-.52-.26-.83-.37-.66-.18-.98-.22-.69-.05-1.02,0-.64.14-.87.28-.43.32-.54.54-.15.45-.13.67.11.44.26.64.36.38.59.51.52.24.83.31.66.09.98.08.69-.06,1.02-.15.64-.21.87-.35.43-.3.54-.47.15-.35.13-.51c0,0,0,0,0-.01Z"/>
  </g>
  <g id="ELLIPSE-34" data-name="ELLIPSE">
    <path class="cls-1" d="M506.54,279.35c2.87-1.66,7.35.36,10.78,4.85,4.04,5.3,5.24,12.18,2.67,15.36"/>
  </g>
  <g id="SPLINE-12" data-name="SPLINE">
    <path class="cls-1" d="M510.95,282.57s0-.01,0-.02c.03-.22-.01-.46-.13-.67s-.31-.4-.54-.54-.54-.24-.87-.28-.69-.04-1.02,0-.67.12-.98.22-.6.23-.83.37-.44.29-.59.45-.24.33-.26.5.01.34.13.51.31.33.54.47.54.26.87.35.69.14,1.02.15.67-.01.98-.08.6-.18.83-.31.44-.31.59-.51.23-.41.26-.62Z"/>
  </g>
  <g id="ELLIPSE-35" data-name="ELLIPSE">
    <path class="cls-1" d="M470.17,294.73c0-.16,0-.33,0-.49.12-5.32,3.9-11.65,8.45-14.14"/>
  </g>
  <g id="ELLIPSE-36" data-name="ELLIPSE">
    <path class="cls-1" d="M504.44,314.51c0-.16,0-.33,0-.49.12-5.32,3.9-11.65,8.45-14.14"/>
  </g>
  <g id="ELLIPSE-37" data-name="ELLIPSE">
    <path class="cls-1" d="M512.89,280.09c.14.08.29.16.43.25,4.55,2.76,8.14,9.2,8.02,14.39"/>
  </g>
  <g id="ELLIPSE-38" data-name="ELLIPSE">
    <path class="cls-1" d="M485.02,283.65c.9-.58.81-1.48-.21-2s-2.56-.47-3.46.12c-.86.56-.82,1.4.08,1.93"/>
  </g>
  <g id="ELLIPSE-39" data-name="ELLIPSE">
    <path class="cls-1" d="M509.92,283.79c.71-.51.57-1.25-.31-1.65-.88-.41-2.16-.33-2.87.18-.58.41-.6,1-.07,1.43"/>
  </g>
  <g id="ELLIPSE-40" data-name="ELLIPSE">
    <path class="cls-1" d="M509.99,298.26c.66-.53.45-1.26-.46-1.64-.91-.38-2.19-.26-2.84.27-.54.43-.51,1.01.07,1.43"/>
  </g>
  <g id="LINE-17" data-name="LINE">
    <line class="cls-1" x1="506.54" y1="320.13" x2="472.71" y2="300.6"/>
  </g>
  <g id="LINE-18" data-name="LINE">
    <line class="cls-1" x1="518.81" y1="298.88" x2="508.02" y2="292.66"/>
  </g>
  <g id="LINE-19" data-name="LINE">
    <line class="cls-1" x1="495.76" y1="285.58" x2="484.97" y2="279.35"/>
  </g>
  <g id="LINE-20" data-name="LINE">
    <line class="cls-1" x1="495.76" y1="285.58" x2="506.54" y2="279.35"/>
  </g>
  <g id="ELLIPSE-41" data-name="ELLIPSE">
    <path class="cls-1" d="M1362.69,583.25c-2.17-2.71-1.67-8.16,1.2-13.12,3.39-5.87,8.88-9.04,12.26-7.08"/>
  </g>
  <g id="ELLIPSE-42" data-name="ELLIPSE">
    <path class="cls-1" d="M1386.94,573.41c-4.6,0-9.01,1.06-12.26,2.93"/>
  </g>
  <g id="SPLINE-13" data-name="SPLINE">
    <path class="cls-1" d="M1374.34,564.76s-.02,0-.03,0c-.33-.04-.69-.05-1.02,0s-.64.14-.87.28-.43.32-.54.54-.15.45-.13.67.11.44.26.64.36.38.59.51.52.24.83.31.66.09.98.08.69-.06,1.02-.15.64-.21.87-.35.43-.3.54-.47c.11-.17.15-.35.13-.51s-.11-.33-.26-.5-.36-.32-.59-.45-.52-.26-.83-.37-.64-.18-.95-.22Z"/>
  </g>
  <g id="ELLIPSE-43" data-name="ELLIPSE">
    <path class="cls-1" d="M1375.8,604c3.57-1.63,3.88-7.78.68-13.75-3.19-5.97-8.68-9.48-12.25-7.86-.16.07-.31.15-.45.24"/>
  </g>
  <g id="SPLINE-14" data-name="SPLINE">
    <path class="cls-1" d="M1374.38,579.28c-.32.04-.65.12-.95.22s-.6.23-.83.37-.44.29-.59.45-.24.33-.26.5.01.34.13.51.31.33.54.47.54.26.87.35.69.14,1.02.15.67-.01.98-.08.6-.18.83-.31c.23-.13.44-.31.59-.51s.24-.42.26-.64-.01-.46-.13-.67-.31-.4-.54-.54-.54-.24-.87-.28-.69-.04-1.02,0c0,0-.02,0-.03,0Z"/>
  </g>
  <g id="ELLIPSE-44" data-name="ELLIPSE">
    <path class="cls-1" d="M1378.24,598.57c.3-5.07-3.14-11.58-7.68-14.55-.26-.17-.51-.32-.77-.46"/>
  </g>
  <g id="ELLIPSE-45" data-name="ELLIPSE">
    <path class="cls-1" d="M1361.35,578.41c0-.16,0-.33,0-.49.12-5.32,3.9-11.65,8.45-14.14"/>
  </g>
  <g id="ELLIPSE-46" data-name="ELLIPSE">
    <path class="cls-1" d="M1375.95,582c.71-.51.57-1.25-.31-1.65-.88-.41-2.16-.33-2.87.18-.58.41-.6,1-.07,1.43"/>
  </g>
  <g id="ELLIPSE-47" data-name="ELLIPSE">
    <path class="cls-1" d="M1376.02,567.43c.66-.53.45-1.26-.46-1.64-.91-.38-2.19-.26-2.84.27-.54.43-.51,1.01.07,1.43"/>
  </g>
  <g id="LINE-21" data-name="LINE">
    <line class="cls-1" x1="1393.07" y1="572.81" x2="1376.15" y2="563.04"/>
  </g>
  <g id="LINE-22" data-name="LINE">
    <line class="cls-1" x1="1393.07" y1="594.05" x2="1376.15" y2="603.82"/>
  </g>
  <g id="LINE-23" data-name="LINE">
    <line class="cls-1" x1="1374.67" y1="576.35" x2="1363.89" y2="582.57"/>
  </g>
  <g id="ARC">
    <path class="cls-1" d="M1393.07,572.81c1.86,1.08,3.41,2.62,4.49,4.49,3.39,5.87,1.38,13.37-4.49,16.75"/>
  </g>
  <g id="ELLIPSE-48" data-name="ELLIPSE">
    <path class="cls-1" d="M1176.23,678.45c-3.39-1.96-8.88,1.21-12.26,7.08-3.39,5.87-3.39,12.21,0,14.16"/>
  </g>
  <g id="LINE-24" data-name="LINE">
    <line class="cls-1" x1="1187.01" y1="684.67" x2="1187.01" y2="688.82"/>
  </g>
  <g id="SPLINE-15" data-name="SPLINE">
    <path class="cls-1" d="M1171.82,681.66s0-.01,0-.02c-.03-.22.01-.46.13-.67s.31-.4.54-.54.54-.24.87-.28.69-.04,1.02,0,.67.12.98.22.6.23.83.37.44.29.59.45.24.33.26.5-.01.34-.13.51-.31.33-.54.47-.54.26-.87.35-.69.14-1.02.15-.67-.01-.98-.08-.6-.18-.83-.31c-.23-.13-.44-.31-.59-.51s-.23-.41-.26-.62Z"/>
  </g>
  <g id="ELLIPSE-49" data-name="ELLIPSE">
    <path class="cls-1" d="M1210.06,699.69c3.39-1.96,3.39-8.3,0-14.16-3.39-5.87-8.88-9.04-12.26-7.08"/>
  </g>
  <g id="SPLINE-16" data-name="SPLINE">
    <path class="cls-1" d="M1196.97,681.69c.03-.16.12-.32.26-.48s.36-.32.59-.45.52-.26.83-.37.66-.18.98-.22.69-.05,1.02,0,.64.14.87.28.43.32.54.54.15.45.13.67-.11.44-.26.64-.36.38-.59.51-.52.24-.83.31-.66.09-.98.08-.69-.06-1.02-.15-.64-.21-.87-.35-.43-.3-.54-.47-.15-.35-.13-.51c0,0,0,0,0-.01Z"/>
  </g>
  <g id="ELLIPSE-50" data-name="ELLIPSE">
    <path class="cls-1" d="M1212.6,693.82c.12-5.18-3.47-11.63-8.02-14.39-.14-.09-.29-.17-.43-.25"/>
  </g>
  <g id="ELLIPSE-51" data-name="ELLIPSE">
    <path class="cls-1" d="M1169.88,679.19c-4.55,2.49-8.33,8.82-8.45,14.14,0,.17,0,.33,0,.49"/>
  </g>
  <g id="ELLIPSE-52" data-name="ELLIPSE">
    <path class="cls-1" d="M1197.93,682.83c-.54-.43-.51-1.01.07-1.43.71-.51,1.99-.59,2.87-.18s1.02,1.15.31,1.65"/>
  </g>
  <g id="ELLIPSE-53" data-name="ELLIPSE">
    <path class="cls-1" d="M1172.85,682.88c-.58-.41-.6-1-.07-1.43.66-.53,1.93-.65,2.84-.27s1.12,1.11.46,1.64"/>
  </g>
  <g id="LINE-25" data-name="LINE">
    <line class="cls-1" x1="1176.23" y1="678.45" x2="1187.01" y2="684.67"/>
  </g>
  <g id="LINE-26" data-name="LINE">
    <line class="cls-1" x1="1163.96" y1="699.69" x2="1180.88" y2="709.46"/>
  </g>
  <g id="LINE-27" data-name="LINE">
    <line class="cls-1" x1="1210.06" y1="699.69" x2="1193.14" y2="709.46"/>
  </g>
  <g id="LINE-28" data-name="LINE">
    <line class="cls-1" x1="1197.8" y1="678.45" x2="1187.01" y2="684.67"/>
  </g>
  <g id="ARC-2" data-name="ARC">
    <path class="cls-1" d="M1193.14,709.46c-3.79,2.19-8.47,2.19-12.26,0"/>
  </g>
  <g id="ELLIPSE-54" data-name="ELLIPSE">
    <path class="cls-1" d="M1375.78,562.85c-3.18-2.3-8.66.48-12.24,6.22-3.44,5.51-3.9,11.78-1.06,14.31"/>
  </g>
  <g id="ELLIPSE-55" data-name="ELLIPSE">
    <path class="cls-1" d="M1122.1,416.36c-3.39-1.96-8.88,1.21-12.26,7.08-3.39,5.87-3.39,12.21,0,14.16"/>
  </g>
  <g id="LINE-29" data-name="LINE">
    <line class="cls-1" x1="1122.1" y1="416.36" x2="1375.42" y2="562.62"/>
  </g>
  <g id="LINE-30" data-name="LINE">
    <line class="cls-1" x1="1109.83" y1="437.6" x2="1362.39" y2="583.42"/>
  </g>
  <g id="ELLIPSE-56" data-name="ELLIPSE">
    <path class="cls-1" d="M1175.85,678.25c-3.18-2.3-8.66.48-12.24,6.22-3.58,5.74-3.91,12.26-.74,14.56.23.17.48.31.74.43"/>
  </g>
  <g id="ELLIPSE-57" data-name="ELLIPSE">
    <path class="cls-1" d="M922.17,531.77c-3.39-1.96-8.88,1.21-12.26,7.08-3.39,5.87-3.39,12.21,0,14.16"/>
  </g>
  <g id="LINE-31" data-name="LINE">
    <line class="cls-1" x1="922.17" y1="531.77" x2="1175.49" y2="678.02"/>
  </g>
  <g id="LINE-32" data-name="LINE">
    <line class="cls-1" x1="909.91" y1="553.01" x2="1163.23" y2="699.27"/>
  </g>
  <g id="ELLIPSE-58" data-name="ELLIPSE">
    <path class="cls-1" d="M418.52,38.45c-.26-.12-.51-.26-.74-.43-3.18-2.3-2.85-8.82.74-14.56,3.58-5.74,9.07-8.52,12.24-6.22"/>
  </g>
  <g id="LINE-33" data-name="LINE">
    <line class="cls-1" x1="407.36" y1="32.03" x2="407.36" y2="7.85"/>
  </g>
  <g id="SPLINE-17" data-name="SPLINE">
    <path class="cls-1" d="M422.55,15.24s0,0,0,.01c.03.17-.01.34-.13.51s-.31.33-.54.47-.54.26-.87.35-.69.14-1.02.15-.67-.01-.98-.08-.6-.18-.83-.31c-.23-.13-.44-.31-.59-.51s-.24-.42-.26-.64.01-.46.13-.67.31-.4.54-.54.54-.24.87-.28.69-.04,1.02,0,.67.12.98.22.6.23.83.37.44.29.59.45.23.32.26.48Z"/>
  </g>
  <g id="ELLIPSE-59" data-name="ELLIPSE">
    <path class="cls-1" d="M384.1,17.15c.14-.09.28-.18.43-.25,3.5-1.75,8.99,1.65,12.26,7.58,3.26,5.93,3.07,12.16-.43,13.9"/>
  </g>
  <g id="SPLINE-18" data-name="SPLINE">
    <path class="cls-1" d="M397.4,15.22c-.03.21-.12.42-.26.62s-.36.38-.59.51-.52.24-.83.31-.66.09-.98.08-.69-.06-1.02-.15-.64-.21-.87-.35-.43-.3-.54-.47-.15-.35-.13-.51.11-.33.26-.5.36-.32.59-.45.52-.26.83-.37.66-.18.98-.22.69-.05,1.02,0,.64.14.87.28c.24.14.43.32.54.54s.15.45.13.67c0,0,0,.01,0,.02Z"/>
  </g>
  <g id="ELLIPSE-60" data-name="ELLIPSE">
    <path class="cls-1" d="M390.23,18c.14.08.29.16.43.25,4.55,2.76,8.14,9.2,8.02,14.39"/>
  </g>
  <g id="ELLIPSE-61" data-name="ELLIPSE">
    <path class="cls-1" d="M416.73,35.81c-.92-1.9-.92-4.67,0-7.64,1.83-5.87,6.69-10.86,10.85-11.16"/>
  </g>
  <g id="ELLIPSE-62" data-name="ELLIPSE">
    <path class="cls-1" d="M393.13,16.39c-.54-.43-.51-1.01.07-1.43.71-.51,1.99-.59,2.87-.18.88.41,1.02,1.15.31,1.65"/>
  </g>
  <g id="ELLIPSE-63" data-name="ELLIPSE">
    <path class="cls-1" d="M418.35,16.44c-.58-.41-.6-1-.07-1.43.66-.53,1.93-.65,2.84-.27s1.12,1.11.46,1.64"/>
  </g>
  <g id="LINE-34" data-name="LINE">
    <line class="cls-1" x1="418.14" y1="38.26" x2="407.36" y2="32.03"/>
  </g>
  <g id="LINE-35" data-name="LINE">
    <line class="cls-1" x1="430.41" y1="17.01" x2="413.49" y2="7.25"/>
  </g>
  <g id="LINE-36" data-name="LINE">
    <line class="cls-1" x1="384.31" y1="17.01" x2="401.23" y2="7.25"/>
  </g>
  <g id="LINE-37" data-name="LINE">
    <line class="cls-1" x1="396.58" y1="38.26" x2="407.36" y2="32.03"/>
  </g>
  <g id="ARC-3" data-name="ARC">
    <path class="cls-1" d="M401.23,7.25c3.79-2.19,8.47-2.19,12.26,0"/>
  </g>
  <g id="ELLIPSE-64" data-name="ELLIPSE">
    <path class="cls-1" d="M230.84,132.65c-3.18-2.3-8.66.48-12.24,6.22-3.58,5.74-3.91,12.26-.74,14.56.23.17.48.31.74.43"/>
  </g>
  <g id="ELLIPSE-65" data-name="ELLIPSE">
    <path class="cls-1" d="M207.43,123.26c4.6,0,9.01,1.06,12.26,2.93"/>
  </g>
  <g id="SPLINE-19" data-name="SPLINE">
    <path class="cls-1" d="M220.03,132.14s.02,0,.03,0c.33-.01.69-.06,1.02-.15s.64-.21.87-.35.43-.3.54-.47.15-.35.13-.51-.11-.33-.26-.5-.36-.32-.59-.45-.52-.26-.83-.37-.66-.18-.98-.22-.69-.05-1.02,0-.64.14-.87.28-.43.32-.54.54-.15.45-.13.67.11.44.26.64.36.38.59.51.52.24.83.31.64.09.95.08Z"/>
  </g>
  <g id="ELLIPSE-66" data-name="ELLIPSE">
    <path class="cls-1" d="M218.22,112.89c2.87-1.66,7.35.36,10.78,4.85,4.04,5.3,5.24,12.18,2.67,15.36"/>
  </g>
  <g id="SPLINE-20" data-name="SPLINE">
    <path class="cls-1" d="M219.99,117.62c.32,0,.65-.02.95-.08s.6-.18.83-.31.44-.31.59-.51.24-.42.26-.64-.01-.46-.13-.67-.31-.4-.54-.54-.54-.24-.87-.28-.69-.04-1.02,0-.67.12-.98.22-.6.23-.83.37-.44.29-.59.45-.24.33-.26.5.01.34.13.51.31.33.54.47.54.26.87.35.69.14,1.02.15c0,0,.02,0,.03,0Z"/>
  </g>
  <g id="ELLIPSE-67" data-name="ELLIPSE">
    <path class="cls-1" d="M224.57,113.63c.14.08.29.16.43.25,4.55,2.76,8.14,9.2,8.02,14.39"/>
  </g>
  <g id="ELLIPSE-68" data-name="ELLIPSE">
    <path class="cls-1" d="M227.66,132.42c-4.17.3-9.03,5.29-10.85,11.16-.92,2.97-.92,5.74,0,7.64"/>
  </g>
  <g id="ELLIPSE-69" data-name="ELLIPSE">
    <path class="cls-1" d="M221.6,117.32c.71-.51.57-1.25-.31-1.65s-2.16-.33-2.87.18c-.58.41-.6,1-.07,1.43"/>
  </g>
  <g id="ELLIPSE-70" data-name="ELLIPSE">
    <path class="cls-1" d="M221.66,131.79c.66-.53.45-1.26-.46-1.64-.91-.38-2.19-.26-2.84.27-.54.43-.51,1.01.07,1.43"/>
  </g>
  <g id="LINE-38" data-name="LINE">
    <line class="cls-1" x1="219.7" y1="126.2" x2="230.48" y2="132.42"/>
  </g>
  <g id="LINE-39" data-name="LINE">
    <line class="cls-1" x1="201.3" y1="143.9" x2="218.22" y2="153.66"/>
  </g>
  <g id="LINE-40" data-name="LINE">
    <line class="cls-1" x1="201.3" y1="122.65" x2="218.22" y2="112.89"/>
  </g>
  <g id="ARC-4" data-name="ARC">
    <path class="cls-1" d="M201.3,143.9c-1.86-1.08-3.41-2.62-4.49-4.49-3.39-5.87-1.38-13.37,4.49-16.75"/>
  </g>
  <g id="ELLIPSE-71" data-name="ELLIPSE">
    <path class="cls-1" d="M431.14,17.44c-3.39-1.96-8.88,1.21-12.26,7.08-3.39,5.87-3.39,12.21,0,14.16"/>
  </g>
  <g id="ELLIPSE-72" data-name="ELLIPSE">
    <path class="cls-1" d="M684.68,163.83c-3.26-2.16-8.75.78-12.26,6.58-3.2,5.29-3.68,11.22-1.12,13.83"/>
  </g>
  <g id="LINE-41" data-name="LINE">
    <line class="cls-1" x1="431.14" y1="17.44" x2="684.47" y2="163.69"/>
  </g>
  <g id="LINE-42" data-name="LINE">
    <line class="cls-1" x1="418.88" y1="38.68" x2="671.15" y2="184.33"/>
  </g>
  <g id="ELLIPSE-73" data-name="ELLIPSE">
    <path class="cls-1" d="M231.22,132.85c-3.39-1.96-8.88,1.21-12.26,7.08-3.39,5.87-3.39,12.21,0,14.16"/>
  </g>
  <g id="ELLIPSE-74" data-name="ELLIPSE">
    <path class="cls-1" d="M484.75,279.23c-3.26-2.16-8.75.78-12.26,6.58-3.5,5.79-3.7,12.24-.43,14.4.14.09.28.18.43.25"/>
  </g>
  <g id="LINE-43" data-name="LINE">
    <line class="cls-1" x1="231.22" y1="132.85" x2="484.54" y2="279.1"/>
  </g>
  <g id="LINE-44" data-name="LINE">
    <line class="cls-1" x1="218.95" y1="154.09" x2="472.28" y2="300.35"/>
  </g>
  <g id="ELLIPSE-75" data-name="ELLIPSE">
    <path class="cls-1" d="M706.9,204.97c-3.39-1.96-3.39-8.3,0-14.16,3.39-5.87,8.88-9.04,12.26-7.08"/>
  </g>
  <g id="ELLIPSE-76" data-name="ELLIPSE">
    <path class="cls-1" d="M1087.61,396.46c-3.26-2.16-8.75.78-12.26,6.58-3.2,5.29-3.68,11.22-1.12,13.83"/>
  </g>
  <g id="LINE-45" data-name="LINE">
    <line class="cls-1" x1="719.17" y1="183.73" x2="1087.4" y2="396.33"/>
  </g>
  <g id="LINE-46" data-name="LINE">
    <line class="cls-1" x1="706.9" y1="204.97" x2="1074.08" y2="416.96"/>
  </g>
  <g id="ELLIPSE-77" data-name="ELLIPSE">
    <path class="cls-1" d="M506.97,320.38c-3.39-1.96-3.39-8.3,0-14.16,3.39-5.87,8.88-9.04,12.26-7.08"/>
  </g>
  <g id="ELLIPSE-78" data-name="ELLIPSE">
    <path class="cls-1" d="M887.68,511.87c-3.26-2.16-8.75.78-12.26,6.58-3.5,5.79-3.7,12.24-.43,14.4.14.09.28.18.43.25"/>
  </g>
  <g id="LINE-47" data-name="LINE">
    <line class="cls-1" x1="519.24" y1="299.14" x2="887.47" y2="511.73"/>
  </g>
  <g id="LINE-48" data-name="LINE">
    <line class="cls-1" x1="506.97" y1="320.38" x2="875.21" y2="532.98"/>
  </g>
  <g id="ELLIPSE-79" data-name="ELLIPSE">
    <path class="cls-1" d="M672.19,183.72c3.39-1.96,8.88,1.21,12.26,7.08,3.39,5.87,3.39,12.21,0,14.16"/>
  </g>
  <g id="ELLIPSE-80" data-name="ELLIPSE">
    <path class="cls-1" d="M520.14,299.66c2.81-2.86,1.94-9.62-1.94-15.1-3.52-4.97-8.38-7.26-11.37-5.35"/>
  </g>
  <g id="LINE-49" data-name="LINE">
    <line class="cls-1" x1="684.46" y1="204.97" x2="675.01" y2="210.42"/>
  </g>
  <g id="LINE-50" data-name="LINE">
    <line class="cls-1" x1="642.19" y1="229.37" x2="580.52" y2="264.97"/>
  </g>
  <g id="LINE-51" data-name="LINE">
    <line class="cls-1" x1="546.71" y1="284.5" x2="520.3" y2="299.75"/>
  </g>
  <g id="LINE-52" data-name="LINE">
    <line class="cls-1" x1="672.19" y1="183.72" x2="633.33" y2="206.16"/>
  </g>
  <g id="LINE-53" data-name="LINE">
    <line class="cls-1" x1="618.54" y1="214.7" x2="556.24" y2="250.67"/>
  </g>
  <g id="LINE-54" data-name="LINE">
    <line class="cls-1" x1="541.44" y1="259.21" x2="506.98" y2="279.11"/>
  </g>
  <g id="ELLIPSE-81" data-name="ELLIPSE">
    <path class="cls-1" d="M1075.12,416.35c3.39-1.96,8.88,1.21,12.26,7.08,3.39,5.87,3.39,12.21,0,14.16"/>
  </g>
  <g id="ELLIPSE-82" data-name="ELLIPSE">
    <path class="cls-1" d="M923.07,532.29c2.81-2.86,1.94-9.62-1.94-15.1-3.52-4.97-8.38-7.26-11.37-5.35"/>
  </g>
  <g id="LINE-55" data-name="LINE">
    <line class="cls-1" x1="1087.39" y1="437.6" x2="1048.54" y2="460.03"/>
  </g>
  <g id="LINE-56" data-name="LINE">
    <line class="cls-1" x1="1033.76" y1="468.56" x2="971.44" y2="504.54"/>
  </g>
  <g id="LINE-57" data-name="LINE">
    <line class="cls-1" x1="956.66" y1="513.07" x2="923.23" y2="532.38"/>
  </g>
  <g id="LINE-58" data-name="LINE">
    <line class="cls-1" x1="1075.12" y1="416.35" x2="1036.26" y2="438.79"/>
  </g>
  <g id="LINE-59" data-name="LINE">
    <line class="cls-1" x1="1021.43" y1="447.36" x2="959.16" y2="483.3"/>
  </g>
  <g id="LINE-60" data-name="LINE">
    <line class="cls-1" x1="944.33" y1="491.87" x2="909.91" y2="511.74"/>
  </g>
  <g id="ELLIPSE-83" data-name="ELLIPSE">
    <path class="cls-1" d="M1363.44,582.81c3.39-1.96,8.88,1.21,12.26,7.08,3.39,5.87,3.39,12.21,0,14.16"/>
  </g>
  <g id="ELLIPSE-84" data-name="ELLIPSE">
    <path class="cls-1" d="M1210.27,699.56c3.5-1.75,3.7-7.97.43-13.9-3.26-5.93-8.75-9.32-12.26-7.58-.15.07-.29.16-.43.25"/>
  </g>
  <g id="LINE-61" data-name="LINE">
    <line class="cls-1" x1="1375.7" y1="604.06" x2="1336.83" y2="626.5"/>
  </g>
  <g id="LINE-62" data-name="LINE">
    <line class="cls-1" x1="1321.99" y1="635.07" x2="1259.73" y2="671.01"/>
  </g>
  <g id="LINE-63" data-name="LINE">
    <line class="cls-1" x1="1244.89" y1="679.58" x2="1210.49" y2="699.44"/>
  </g>
  <g id="LINE-64" data-name="LINE">
    <line class="cls-1" x1="1363.44" y1="582.81" x2="1324.58" y2="605.25"/>
  </g>
  <g id="LINE-65" data-name="LINE">
    <line class="cls-1" x1="1309.8" y1="613.78" x2="1247.48" y2="649.76"/>
  </g>
  <g id="LINE-66" data-name="LINE">
    <line class="cls-1" x1="1232.71" y1="658.29" x2="1198.23" y2="678.2"/>
  </g>
  <g id="ELLIPSE-85" data-name="ELLIPSE">
    <path class="cls-1" d="M383.88,17.26c3.39-1.96,8.88,1.21,12.26,7.08,3.39,5.87,3.39,12.21,0,14.16"/>
  </g>
  <g id="ELLIPSE-86" data-name="ELLIPSE">
    <path class="cls-1" d="M231.83,133.2c2.81-2.86,1.94-9.62-1.94-15.1-3.49-4.94-8.32-7.23-11.32-5.38"/>
  </g>
  <g id="LINE-67" data-name="LINE">
    <line class="cls-1" x1="396.14" y1="38.51" x2="386.71" y2="43.95"/>
  </g>
  <g id="LINE-68" data-name="LINE">
    <line class="cls-1" x1="353.86" y1="62.92" x2="292.22" y2="98.51"/>
  </g>
  <g id="LINE-69" data-name="LINE">
    <line class="cls-1" x1="258.41" y1="118.03" x2="231.98" y2="133.29"/>
  </g>
  <g id="LINE-70" data-name="LINE">
    <line class="cls-1" x1="383.88" y1="17.26" x2="345.02" y2="39.7"/>
  </g>
  <g id="LINE-71" data-name="LINE">
    <line class="cls-1" x1="330.16" y1="48.28" x2="267.92" y2="84.21"/>
  </g>
  <g id="LINE-72" data-name="LINE">
    <line class="cls-1" x1="253.06" y1="92.79" x2="218.67" y2="112.65"/>
  </g>
  <g id="ELLIPSE-87" data-name="ELLIPSE">
    <path class="cls-1" d="M913.7,509.56c-1.72-.18-3.45-.71-5.05-1.55-5.48-2.89-8.13-8.64-5.92-12.85"/>
  </g>
  <g id="LINE-73" data-name="LINE">
    <line class="cls-1" x1="902.73" y1="495.15" x2="902.27" y2="496.02"/>
  </g>
  <g id="ELLIPSE-88" data-name="ELLIPSE">
    <path class="cls-1" d="M954.87,514.94c-.17-.37-.12-.72.11-.8"/>
  </g>
  <g id="LINE-74" data-name="LINE">
    <line class="cls-1" x1="954.87" y1="514.94" x2="955.51" y2="516.35"/>
  </g>
  <g id="ELLIPSE-89" data-name="ELLIPSE">
    <path class="cls-1" d="M952.78,483.23c4.29-2.48,11.24,1.54,15.53,8.97,4.29,7.43,4.29,15.46,0,17.94"/>
  </g>
  <g id="ELLIPSE-90" data-name="ELLIPSE">
    <path class="cls-1" d="M956.3,516.94s-.02,0-.02,0c-.25.06-.59-.21-.77-.6"/>
  </g>
  <g id="ARC-5" data-name="ARC">
    <path class="cls-1" d="M945.08,487.67c1.48-.81,2.94-1.65,4.38-2.52"/>
  </g>
  <g id="ELLIPSE-91" data-name="ELLIPSE">
    <path class="cls-1" d="M956.3,516.94c4.78-1.56,5.62-9.04,1.89-16.71-3.74-7.68-10.64-12.64-15.42-11.08-2.28.74-3.77,2.9-4.13,6.01"/>
  </g>
  <g id="ELLIPSE-92" data-name="ELLIPSE">
    <path class="cls-1" d="M942.46,492.95c.46-.46,1.01-.8,1.62-1,3.8-1.28,9.32,2.65,12.34,8.77,3.01,6.13,2.37,12.14-1.43,13.42"/>
  </g>
  <g id="ELLIPSE-93" data-name="ELLIPSE">
    <path class="cls-1" d="M935.92,487.75c-.63-.71.9-3.12,3.43-5.38,2.53-2.27,5.09-3.53,5.72-2.82"/>
  </g>
  <g id="LINE-75" data-name="LINE">
    <line class="cls-1" x1="954.93" y1="514.16" x2="956.43" y2="513.29"/>
  </g>
  <g id="LINE-76" data-name="LINE">
    <line class="cls-1" x1="968.31" y1="510.14" x2="957.3" y2="516.49"/>
  </g>
  <g id="LINE-77" data-name="LINE">
    <line class="cls-1" x1="952.78" y1="483.23" x2="949.46" y2="485.15"/>
  </g>
  <g id="LINE-78" data-name="LINE">
    <line class="cls-1" x1="945.08" y1="487.67" x2="941.76" y2="489.59"/>
  </g>
  <g id="LINE-79" data-name="LINE">
    <line class="cls-1" x1="939.61" y1="491.86" x2="935.92" y2="487.75"/>
  </g>
  <g id="LINE-80" data-name="LINE">
    <line class="cls-1" x1="949.88" y1="484.9" x2="945.08" y2="479.54"/>
  </g>
  <g id="ELLIPSE-94" data-name="ELLIPSE">
    <path class="cls-1" d="M922.82,474.78c-5.87-1.69-11.2.85-11.91,5.67-.7,4.82,3.49,10.09,9.36,11.78,5.87,1.69,11.2-.85,11.91-5.67.03-.22.05-.44.07-.66"/>
  </g>
  <g id="ELLIPSE-95" data-name="ELLIPSE">
    <path class="cls-1" d="M925.68,486.13c.71-1.96-.72-4.41-3.21-5.48-2.12-.91-4.39-.52-5.42.93"/>
  </g>
  <g id="ELLIPSE-96" data-name="ELLIPSE">
    <ellipse class="cls-1" cx="921.55" cy="483.51" rx="3.76" ry="4.91" transform="translate(64.34 1073.61) rotate(-62.23)"/>
  </g>
  <g id="LINE-81" data-name="LINE">
    <line class="cls-1" x1="929.62" y1="492.26" x2="936.44" y2="488.33"/>
  </g>
  <g id="ELLIPSE-97" data-name="ELLIPSE">
    <path class="cls-1" d="M944.97,479.45c-.39-.34-1.38-.1-2.69.66"/>
  </g>
  <g id="LINE-82" data-name="LINE">
    <line class="cls-1" x1="942.28" y1="480.11" x2="932.25" y2="485.9"/>
  </g>
  <g id="LINE-83" data-name="LINE">
    <line class="cls-1" x1="932.5" y1="469.2" x2="922.82" y2="474.78"/>
  </g>
  <g id="ELLIPSE-98" data-name="ELLIPSE">
    <path class="cls-1" d="M932.5,469.2c1.36-.79,2.38-1.01,2.73-.61"/>
  </g>
  <g id="LINE-84" data-name="LINE">
    <line class="cls-1" x1="931.48" y1="488.73" x2="923.49" y2="503.9"/>
  </g>
  <g id="LINE-85" data-name="LINE">
    <line class="cls-1" x1="911.62" y1="478.28" x2="902.73" y2="495.15"/>
  </g>
  <g id="LINE-86" data-name="LINE">
    <line class="cls-1" x1="935.24" y1="468.58" x2="944.99" y2="479.46"/>
  </g>
  <g id="ELLIPSE-99" data-name="ELLIPSE">
    <path class="cls-1" d="M1011.26,441.24c.79,1.37,1.91,2.62,3.27,3.67"/>
  </g>
  <g id="ELLIPSE-100" data-name="ELLIPSE">
    <path class="cls-1" d="M1032.08,469.63c-.23.08-.28.43-.11.8"/>
  </g>
  <g id="LINE-87" data-name="LINE">
    <line class="cls-1" x1="1032.6" y1="471.83" x2="1031.97" y2="470.43"/>
  </g>
  <g id="ELLIPSE-101" data-name="ELLIPSE">
    <path class="cls-1" d="M1032.6,471.83c.17.39.52.66.77.6,0,0,.02,0,.02,0"/>
  </g>
  <g id="ELLIPSE-102" data-name="ELLIPSE">
    <path class="cls-1" d="M1015.73,450.65c.36-3.11,1.85-5.27,4.13-6.01,4.78-1.56,11.68,3.4,15.42,11.08,3.74,7.68,2.89,15.16-1.89,16.71"/>
  </g>
  <g id="ELLIPSE-103" data-name="ELLIPSE">
    <path class="cls-1" d="M1032.08,469.63c3.8-1.28,4.44-7.29,1.43-13.42-3.01-6.13-8.53-10.06-12.34-8.77-.61.21-1.16.54-1.62,1"/>
  </g>
  <g id="ARC-6" data-name="ARC">
    <path class="cls-1" d="M1022.18,443.16c1.48-.81,2.94-1.65,4.38-2.52"/>
  </g>
  <g id="ELLIPSE-104" data-name="ELLIPSE">
    <path class="cls-1" d="M1045.41,465.62c4.29-2.48,4.29-10.51,0-17.94-4.29-7.43-11.24-11.44-15.53-8.97"/>
  </g>
  <g id="ELLIPSE-105" data-name="ELLIPSE">
    <path class="cls-1" d="M1022.18,435.03c-.63-.71-3.2.56-5.72,2.82-2.53,2.27-4.07,4.68-3.43,5.38"/>
  </g>
  <g id="LINE-88" data-name="LINE">
    <line class="cls-1" x1="1032.03" y1="469.65" x2="1033.53" y2="468.78"/>
  </g>
  <g id="LINE-89" data-name="LINE">
    <line class="cls-1" x1="1045.41" y1="465.62" x2="1034.39" y2="471.98"/>
  </g>
  <g id="LINE-90" data-name="LINE">
    <line class="cls-1" x1="1029.88" y1="438.72" x2="1026.56" y2="440.63"/>
  </g>
  <g id="LINE-91" data-name="LINE">
    <line class="cls-1" x1="1022.18" y1="443.16" x2="1018.86" y2="445.08"/>
  </g>
  <g id="LINE-92" data-name="LINE">
    <line class="cls-1" x1="1022.18" y1="435.03" x2="1026.98" y2="440.39"/>
  </g>
  <g id="LINE-93" data-name="LINE">
    <line class="cls-1" x1="1013.02" y1="443.24" x2="1016.71" y2="447.35"/>
  </g>
  <g id="ELLIPSE-106" data-name="ELLIPSE">
    <path class="cls-1" d="M1019.28,419.09c0-.22,0-.45.01-.67.31-4.92,5.36-7.8,11.26-6.43,5.91,1.37,10.44,6.46,10.12,11.38-.31,4.92-5.36,7.8-11.26,6.43"/>
  </g>
  <g id="LINE-94" data-name="LINE">
    <line class="cls-1" x1="1029.42" y1="429.8" x2="1025.75" y2="436.76"/>
  </g>
  <g id="ELLIPSE-107" data-name="ELLIPSE">
    <path class="cls-1" d="M1025.49,418.97c1.04-1.45,3.3-1.84,5.42-.93,2.49,1.06,3.92,3.52,3.21,5.48"/>
  </g>
  <g id="ELLIPSE-108" data-name="ELLIPSE">
    <ellipse class="cls-1" cx="1029.99" cy="420.9" rx="3.76" ry="4.91" transform="translate(177.65 1136.12) rotate(-62.23)"/>
  </g>
  <g id="LINE-95" data-name="LINE">
    <line class="cls-1" x1="1019.38" y1="435.6" x2="1029.42" y2="429.8"/>
  </g>
  <g id="ELLIPSE-109" data-name="ELLIPSE">
    <path class="cls-1" d="M1012.94,443.12c-.2-.29-.11-.83.27-1.54,1.01-1.92,3.77-4.6,6.17-5.98"/>
  </g>
  <g id="LINE-96" data-name="LINE">
    <line class="cls-1" x1="1025.75" y1="436.76" x2="1024.42" y2="437.53"/>
  </g>
  <g id="ELLIPSE-110" data-name="ELLIPSE">
    <path class="cls-1" d="M1009.6,424.68c-2.39,1.38-5.16,4.06-6.17,5.98-.4.75-.48,1.31-.23,1.59"/>
  </g>
  <g id="LINE-97" data-name="LINE">
    <line class="cls-1" x1="1009.6" y1="424.68" x2="1019.28" y2="419.09"/>
  </g>
  <g id="LINE-98" data-name="LINE">
    <line class="cls-1" x1="1017.81" y1="419.95" x2="1020.06" y2="415.67"/>
  </g>
  <g id="LINE-99" data-name="LINE">
    <line class="cls-1" x1="1033.64" y1="438.05" x2="1039.92" y2="426.13"/>
  </g>
  <g id="LINE-100" data-name="LINE">
    <line class="cls-1" x1="1012.95" y1="443.13" x2="1003.2" y2="432.26"/>
  </g>
  <g id="ELLIPSE-111" data-name="ELLIPSE">
    <path class="cls-1" d="M1320.37,636.07c-.23.08-.28.43-.11.8"/>
  </g>
  <g id="LINE-101" data-name="LINE">
    <line class="cls-1" x1="1320.89" y1="638.28" x2="1320.26" y2="636.87"/>
  </g>
  <g id="ELLIPSE-112" data-name="ELLIPSE">
    <path class="cls-1" d="M1320.89,638.28c.17.39.52.66.77.6,0,0,.02,0,.02,0"/>
  </g>
  <g id="ELLIPSE-113" data-name="ELLIPSE">
    <path class="cls-1" d="M1304.02,617.12c.36-3.12,1.84-5.3,4.13-6.04,4.78-1.56,11.68,3.4,15.42,11.08,3.74,7.68,2.89,15.16-1.89,16.71"/>
  </g>
  <g id="ELLIPSE-114" data-name="ELLIPSE">
    <path class="cls-1" d="M1320.37,636.07c3.8-1.28,4.44-7.29,1.43-13.42-3.01-6.13-8.53-10.06-12.34-8.77-.64.22-1.21.58-1.68,1.07"/>
  </g>
  <g id="ARC-7" data-name="ARC">
    <path class="cls-1" d="M1310.47,609.6c1.48-.81,2.94-1.65,4.38-2.52"/>
  </g>
  <g id="ELLIPSE-115" data-name="ELLIPSE">
    <path class="cls-1" d="M1333.7,632.07c4.29-2.48,4.29-10.51,0-17.94-4.29-7.43-11.24-11.44-15.53-8.97"/>
  </g>
  <g id="ELLIPSE-116" data-name="ELLIPSE">
    <path class="cls-1" d="M1310.47,601.47c-.63-.71-3.2.56-5.72,2.82-2.53,2.27-4.07,4.68-3.43,5.38"/>
  </g>
  <g id="LINE-102" data-name="LINE">
    <line class="cls-1" x1="1320.32" y1="636.09" x2="1321.82" y2="635.23"/>
  </g>
  <g id="LINE-103" data-name="LINE">
    <line class="cls-1" x1="1333.7" y1="632.07" x2="1322.69" y2="638.43"/>
  </g>
  <g id="LINE-104" data-name="LINE">
    <line class="cls-1" x1="1318.17" y1="605.16" x2="1314.85" y2="607.08"/>
  </g>
  <g id="LINE-105" data-name="LINE">
    <line class="cls-1" x1="1310.47" y1="609.61" x2="1307.15" y2="611.52"/>
  </g>
  <g id="LINE-106" data-name="LINE">
    <line class="cls-1" x1="1310.47" y1="601.47" x2="1315.27" y2="606.83"/>
  </g>
  <g id="LINE-107" data-name="LINE">
    <line class="cls-1" x1="1301.31" y1="609.68" x2="1305" y2="613.8"/>
  </g>
  <g id="ELLIPSE-117" data-name="ELLIPSE">
    <path class="cls-1" d="M1307.57,585.54c0-.22,0-.45.01-.67.31-4.92,5.36-7.8,11.26-6.43,5.91,1.37,10.44,6.46,10.12,11.38-.31,4.92-5.36,7.8-11.26,6.43"/>
  </g>
  <g id="LINE-108" data-name="LINE">
    <line class="cls-1" x1="1317.71" y1="596.25" x2="1314.04" y2="603.21"/>
  </g>
  <g id="ELLIPSE-118" data-name="ELLIPSE">
    <path class="cls-1" d="M1313.78,585.42c1.04-1.45,3.3-1.84,5.42-.93,2.49,1.06,3.92,3.52,3.21,5.48"/>
  </g>
  <g id="ELLIPSE-119" data-name="ELLIPSE">
    <ellipse class="cls-1" cx="1318.28" cy="587.34" rx="3.76" ry="4.91" transform="translate(184.33 1480.09) rotate(-62.23)"/>
  </g>
  <g id="LINE-109" data-name="LINE">
    <line class="cls-1" x1="1307.67" y1="602.04" x2="1317.71" y2="596.25"/>
  </g>
  <g id="ELLIPSE-120" data-name="ELLIPSE">
    <path class="cls-1" d="M1301.24,609.56c-.2-.29-.11-.83.27-1.54,1.01-1.92,3.77-4.6,6.17-5.98"/>
  </g>
  <g id="LINE-110" data-name="LINE">
    <line class="cls-1" x1="1314.04" y1="603.21" x2="1312.71" y2="603.98"/>
  </g>
  <g id="ELLIPSE-121" data-name="ELLIPSE">
    <path class="cls-1" d="M1297.89,591.13c-2.39,1.38-5.16,4.06-6.17,5.98-.4.75-.48,1.31-.23,1.59"/>
  </g>
  <g id="LINE-111" data-name="LINE">
    <line class="cls-1" x1="1297.89" y1="591.13" x2="1307.57" y2="585.54"/>
  </g>
  <g id="LINE-112" data-name="LINE">
    <line class="cls-1" x1="1306.1" y1="586.39" x2="1308.35" y2="582.11"/>
  </g>
  <g id="LINE-113" data-name="LINE">
    <line class="cls-1" x1="1321.93" y1="604.49" x2="1328.21" y2="592.57"/>
  </g>
  <g id="LINE-114" data-name="LINE">
    <line class="cls-1" x1="1301.24" y1="609.58" x2="1291.49" y2="598.7"/>
  </g>
  <g id="ELLIPSE-122" data-name="ELLIPSE">
    <path class="cls-1" d="M1299.55,607.69c.79,1.37,1.91,2.62,3.27,3.67"/>
  </g>
  <g id="ELLIPSE-123" data-name="ELLIPSE">
    <path class="cls-1" d="M1243.16,681.38c-.17-.37-.12-.72.11-.8"/>
  </g>
  <g id="LINE-115" data-name="LINE">
    <line class="cls-1" x1="1243.16" y1="681.38" x2="1243.8" y2="682.79"/>
  </g>
  <g id="ELLIPSE-124" data-name="ELLIPSE">
    <path class="cls-1" d="M1241.07,649.68c4.29-2.48,11.24,1.54,15.53,8.97s4.29,15.46,0,17.94"/>
  </g>
  <g id="ELLIPSE-125" data-name="ELLIPSE">
    <path class="cls-1" d="M1244.59,683.38s-.02,0-.02,0c-.25.06-.59-.21-.77-.6"/>
  </g>
  <g id="ARC-8" data-name="ARC">
    <path class="cls-1" d="M1233.37,654.12c1.48-.81,2.94-1.65,4.38-2.52"/>
  </g>
  <g id="ELLIPSE-126" data-name="ELLIPSE">
    <path class="cls-1" d="M1244.59,683.38c4.78-1.56,5.62-9.04,1.89-16.71-3.74-7.68-10.64-12.64-15.42-11.08-2.29.75-3.78,2.92-4.13,6.04"/>
  </g>
  <g id="ELLIPSE-127" data-name="ELLIPSE">
    <path class="cls-1" d="M1230.68,659.46c.48-.49,1.04-.85,1.68-1.07,3.8-1.28,9.32,2.65,12.34,8.77,3.01,6.13,2.37,12.14-1.43,13.42"/>
  </g>
  <g id="ELLIPSE-128" data-name="ELLIPSE">
    <path class="cls-1" d="M1224.21,654.19c-.63-.71.9-3.12,3.43-5.38,2.53-2.27,5.09-3.53,5.72-2.82"/>
  </g>
  <g id="LINE-116" data-name="LINE">
    <line class="cls-1" x1="1243.23" y1="680.6" x2="1244.72" y2="679.74"/>
  </g>
  <g id="LINE-117" data-name="LINE">
    <line class="cls-1" x1="1256.6" y1="676.58" x2="1245.59" y2="682.94"/>
  </g>
  <g id="LINE-118" data-name="LINE">
    <line class="cls-1" x1="1241.07" y1="649.68" x2="1237.75" y2="651.59"/>
  </g>
  <g id="LINE-119" data-name="LINE">
    <line class="cls-1" x1="1233.37" y1="654.12" x2="1230.05" y2="656.04"/>
  </g>
  <g id="LINE-120" data-name="LINE">
    <line class="cls-1" x1="1227.9" y1="658.31" x2="1224.21" y2="654.19"/>
  </g>
  <g id="LINE-121" data-name="LINE">
    <line class="cls-1" x1="1238.18" y1="651.35" x2="1233.37" y2="645.99"/>
  </g>
  <g id="ELLIPSE-129" data-name="ELLIPSE">
    <path class="cls-1" d="M1202.03,676c-1.73-.18-3.48-.71-5.09-1.56-5.48-2.89-8.13-8.64-5.92-12.85"/>
  </g>
  <g id="ELLIPSE-130" data-name="ELLIPSE">
    <path class="cls-1" d="M1211.12,641.23c-5.87-1.69-11.2.85-11.91,5.67-.7,4.82,3.49,10.09,9.36,11.78,5.87,1.69,11.2-.85,11.91-5.67.03-.22.05-.44.07-.66"/>
  </g>
  <g id="ELLIPSE-131" data-name="ELLIPSE">
    <path class="cls-1" d="M1213.97,652.57c.71-1.96-.72-4.41-3.21-5.48-2.12-.91-4.39-.52-5.42.93"/>
  </g>
  <g id="ELLIPSE-132" data-name="ELLIPSE">
    <ellipse class="cls-1" cx="1209.84" cy="649.95" rx="3.76" ry="4.91" transform="translate(71.03 1417.58) rotate(-62.23)"/>
  </g>
  <g id="LINE-122" data-name="LINE">
    <line class="cls-1" x1="1217.91" y1="658.71" x2="1224.73" y2="654.77"/>
  </g>
  <g id="ELLIPSE-133" data-name="ELLIPSE">
    <path class="cls-1" d="M1233.26,645.9c-.39-.34-1.38-.1-2.69.66"/>
  </g>
  <g id="LINE-123" data-name="LINE">
    <line class="cls-1" x1="1230.58" y1="646.55" x2="1220.54" y2="652.35"/>
  </g>
  <g id="LINE-124" data-name="LINE">
    <line class="cls-1" x1="1220.8" y1="635.64" x2="1211.12" y2="641.23"/>
  </g>
  <g id="ELLIPSE-134" data-name="ELLIPSE">
    <path class="cls-1" d="M1220.8,635.64c1.36-.79,2.38-1.01,2.73-.61"/>
  </g>
  <g id="LINE-125" data-name="LINE">
    <line class="cls-1" x1="1219.77" y1="655.18" x2="1211.76" y2="670.38"/>
  </g>
  <g id="LINE-126" data-name="LINE">
    <line class="cls-1" x1="1199.91" y1="644.72" x2="1191.02" y2="661.6"/>
  </g>
  <g id="LINE-127" data-name="LINE">
    <line class="cls-1" x1="1223.53" y1="635.03" x2="1233.28" y2="645.91"/>
  </g>
  <g id="ELLIPSE-135" data-name="ELLIPSE">
    <path class="cls-1" d="M1200.72,676.76c-1.45-.24-2.89-.74-4.24-1.44-5.48-2.89-8.13-8.64-5.92-12.85"/>
  </g>
  <g id="ELLIPSE-136" data-name="ELLIPSE">
    <path class="cls-1" d="M1202.03,676c-1.73-.18-3.48-.71-5.09-1.56-5.48-2.89-8.13-8.64-5.92-12.85"/>
  </g>
  <g id="LINE-128" data-name="LINE">
    <line class="cls-1" x1="1191.02" y1="661.6" x2="1190.56" y2="662.47"/>
  </g>
  <g id="ELLIPSE-137" data-name="ELLIPSE">
    <path class="cls-1" d="M552.92,303.47c.54,1.64,5.75,1.41,11.64-.51,5.89-1.93,10.23-4.83,9.69-6.47"/>
  </g>
  <g id="LINE-129" data-name="LINE">
    <line class="cls-1" x1="552.92" y1="303.47" x2="552.46" y2="302.07"/>
  </g>
  <g id="LINE-130" data-name="LINE">
    <line class="cls-1" x1="574.25" y1="296.48" x2="573.79" y2="295.09"/>
  </g>
  <g id="ELLIPSE-138" data-name="ELLIPSE">
    <path class="cls-1" d="M575.15,266.04c.63-.48,1.41-.44,2,.08.85.75,1.06,2.28.46,3.4-.6,1.13-1.77,1.43-2.62.67"/>
  </g>
  <g id="LINE-131" data-name="LINE">
    <line class="cls-1" x1="575.97" y1="270.61" x2="575.39" y2="270.58"/>
  </g>
  <g id="LINE-132" data-name="LINE">
    <line class="cls-1" x1="576.16" y1="265.7" x2="575.58" y2="265.68"/>
  </g>
  <g id="ELLIPSE-139" data-name="ELLIPSE">
    <path class="cls-1" d="M566.44,261.63c-3.6-7.72-10.47-12.89-15.36-11.56-.44.12-.86.3-1.25.52"/>
  </g>
  <g id="SPLINE-21" data-name="SPLINE">
    <path class="cls-1" d="M561.63,261.44c-.1,0-.2,0-.3,0-.71.02-1.39.21-1.94.53s-1.04.8-1.41,1.4c-.36.6-.59,1.31-.71,2.03-.06.38-.1.8-.11,1.23"/>
  </g>
  <g id="ELLIPSE-140" data-name="ELLIPSE">
    <path class="cls-1" d="M535.68,262.54c.36-3.15,1.88-5.34,4.21-6.06,4.81-1.49,11.71,3.54,15.4,11.23"/>
  </g>
  <g id="ELLIPSE-141" data-name="ELLIPSE">
    <path class="cls-1" d="M553.6,268.35c-2.92-6.16-8.42-10.23-12.3-9.1-.7.2-1.32.58-1.83,1.1"/>
  </g>
  <g id="ELLIPSE-142" data-name="ELLIPSE">
    <path class="cls-1" d="M564.28,262.52c.89-.68,1.91-.98,2.92-.85"/>
  </g>
  <g id="LINE-133" data-name="LINE">
    <line class="cls-1" x1="538.82" y1="256.95" x2="549.83" y2="250.59"/>
  </g>
  <g id="LINE-134" data-name="LINE">
    <line class="cls-1" x1="566.86" y1="261.64" x2="561.63" y2="261.44"/>
  </g>
  <g id="LINE-135" data-name="LINE">
    <line class="cls-1" x1="568.61" y1="279.35" x2="564.94" y2="268.16"/>
  </g>
  <g id="ELLIPSE-143" data-name="ELLIPSE">
    <path class="cls-1" d="M564.94,268.16c0,.08,0,.16-.01.25-.31,1.91-5.36,4.81-11.26,6.48-5.91,1.67-10.44,1.48-10.12-.42.31-1.91,5.36-4.81,11.26-6.48"/>
  </g>
  <g id="ELLIPSE-144" data-name="ELLIPSE">
    <path class="cls-1" d="M550.21,273.38c.37-.42,1.08-.89,2-1.34,2.22-1.07,5.1-1.71,6.42-1.42"/>
  </g>
  <g id="ELLIPSE-145" data-name="ELLIPSE">
    <ellipse class="cls-1" cx="554.24" cy="271.44" rx="4.91" ry="1.37" transform="translate(-56.95 185.97) rotate(-18.13)"/>
  </g>
  <g id="LINE-136" data-name="LINE">
    <line class="cls-1" x1="564.84" y1="262.19" x2="554.81" y2="267.99"/>
  </g>
  <g id="ELLIPSE-146" data-name="ELLIPSE">
    <path class="cls-1" d="M566.91,261.66c-.71-.03-1.42.15-2.07.53"/>
  </g>
  <g id="LINE-137" data-name="LINE">
    <line class="cls-1" x1="568.61" y1="279.35" x2="578.29" y2="273.77"/>
  </g>
  <g id="ELLIPSE-147" data-name="ELLIPSE">
    <ellipse class="cls-1" cx="576.46" cy="268.17" rx="2.76" ry="2.12" transform="translate(286.08 833.76) rotate(-87.77)"/>
  </g>
  <g id="ELLIPSE-148" data-name="ELLIPSE">
    <path class="cls-1" d="M574.62,262.57c2.39-1.38,5.16,0,6.17,3.09,1.01,3.09-.11,6.72-2.5,8.1"/>
  </g>
  <g id="LINE-138" data-name="LINE">
    <line class="cls-1" x1="574.62" y1="262.57" x2="564.94" y2="268.16"/>
  </g>
  <g id="LINE-139" data-name="LINE">
    <line class="cls-1" x1="552.46" y1="302.07" x2="543.57" y2="274.93"/>
  </g>
  <g id="LINE-140" data-name="LINE">
    <line class="cls-1" x1="573.79" y1="295.09" x2="568.63" y2="279.34"/>
  </g>
  <g id="LINE-141" data-name="LINE">
    <line class="cls-1" x1="566.91" y1="261.66" x2="576.69" y2="262.04"/>
  </g>
  <g id="ELLIPSE-149" data-name="ELLIPSE">
    <path class="cls-1" d="M682.69,233.88c.54,1.64-3.8,4.54-9.69,6.47-5.89,1.93-11.1,2.16-11.64.51"/>
  </g>
  <g id="LINE-142" data-name="LINE">
    <line class="cls-1" x1="682.23" y1="232.48" x2="682.69" y2="233.88"/>
  </g>
  <g id="LINE-143" data-name="LINE">
    <line class="cls-1" x1="660.9" y1="239.46" x2="661.36" y2="240.86"/>
  </g>
  <g id="ELLIPSE-150" data-name="ELLIPSE">
    <path class="cls-1" d="M652.08,225.68c.85.75,2.03.45,2.62-.67s.39-2.65-.46-3.4c-.59-.52-1.37-.55-2-.08"/>
  </g>
  <g id="LINE-144" data-name="LINE">
    <line class="cls-1" x1="652.68" y1="221.17" x2="653.26" y2="221.19"/>
  </g>
  <g id="LINE-145" data-name="LINE">
    <line class="cls-1" x1="652.49" y1="226.07" x2="653.07" y2="226.09"/>
  </g>
  <g id="ELLIPSE-151" data-name="ELLIPSE">
    <path class="cls-1" d="M616.57,215.84c1.7-1.74,4.46-1.71,7.36.06,4.85,2.96,8.67,9.83,8.53,15.35"/>
  </g>
  <g id="ELLIPSE-152" data-name="ELLIPSE">
    <path class="cls-1" d="M632.96,232.18c-.29-.2-.51-.61-.5-.94"/>
  </g>
  <g id="LINE-146" data-name="LINE">
    <line class="cls-1" x1="632.96" y1="232.18" x2="634.06" y2="232.93"/>
  </g>
  <g id="ELLIPSE-153" data-name="ELLIPSE">
    <path class="cls-1" d="M634.66,232.66s0,.02,0,.03c-.03.33-.29.44-.6.23"/>
  </g>
  <g id="ELLIPSE-154" data-name="ELLIPSE">
    <path class="cls-1" d="M634.66,232.66c.21-6.88-4.54-15.49-10.6-19.23-5.68-3.51-10.57-1.51-11.28,4.59"/>
  </g>
  <g id="SPLINE-22" data-name="SPLINE">
    <path class="cls-1" d="M638.25,229.21c-.46-.02-.9-.16-1.28-.39-.44-.27-.88-.7-1.25-1.26s-.69-1.25-.93-1.96-.41-1.53-.49-2.36-.06-1.64.06-2.36.35-1.43.71-2.03c.36-.6.85-1.08,1.41-1.4s1.23-.51,1.94-.53c.1,0,.2,0,.3,0"/>
  </g>
  <g id="ELLIPSE-155" data-name="ELLIPSE">
    <path class="cls-1" d="M626.93,206.08c.34-.2.7-.35,1.08-.47,4.81-1.49,11.71,3.54,15.4,11.23"/>
  </g>
  <g id="ELLIPSE-156" data-name="ELLIPSE">
    <path class="cls-1" d="M642.42,217.4c-2.51,1-3.95,4.45-3.24,7.69.59,2.67,2.5,4.44,4.64,4.32"/>
  </g>
  <g id="LINE-147" data-name="LINE">
    <line class="cls-1" x1="615.91" y1="212.44" x2="626.93" y2="206.08"/>
  </g>
  <g id="LINE-148" data-name="LINE">
    <line class="cls-1" x1="634.5" y1="233" x2="640.87" y2="229.32"/>
  </g>
  <g id="LINE-149" data-name="LINE">
    <line class="cls-1" x1="638.73" y1="216.93" x2="642.96" y2="217.09"/>
  </g>
  <g id="LINE-150" data-name="LINE">
    <line class="cls-1" x1="638.25" y1="229.21" x2="643.48" y2="229.42"/>
  </g>
  <g id="LINE-151" data-name="LINE">
    <line class="cls-1" x1="665.07" y1="223.66" x2="661.4" y2="212.47"/>
  </g>
  <g id="ELLIPSE-157" data-name="ELLIPSE">
    <path class="cls-1" d="M661.4,212.47c5.87-1.54,11.2-4.42,11.91-6.44.7-2.01-3.49-2.39-9.36-.85-5.87,1.54-11.2,4.42-11.91,6.44-.03.09-.05.18-.07.26"/>
  </g>
  <g id="ELLIPSE-158" data-name="ELLIPSE">
    <path class="cls-1" d="M667.07,208.01c-1.32-.29-4.19.35-6.42,1.42-.92.45-1.63.92-2,1.34"/>
  </g>
  <g id="ELLIPSE-159" data-name="ELLIPSE">
    <ellipse class="cls-1" cx="662.68" cy="208.83" rx="4.91" ry="1.37" transform="translate(-32.08 216.61) rotate(-18.13)"/>
  </g>
  <g id="ELLIPSE-160" data-name="ELLIPSE">
    <path class="cls-1" d="M643.54,229.4c-1.8-.07-3.4-1.48-4.1-3.62-1.01-3.09.11-6.72,2.5-8.1"/>
  </g>
  <g id="LINE-152" data-name="LINE">
    <line class="cls-1" x1="641.94" y1="217.68" x2="651.98" y2="211.89"/>
  </g>
  <g id="LINE-153" data-name="LINE">
    <line class="cls-1" x1="665.07" y1="223.66" x2="655.39" y2="229.25"/>
  </g>
  <g id="ELLIPSE-161" data-name="ELLIPSE">
    <ellipse class="cls-1" cx="653.55" cy="223.66" rx="2.76" ry="2.12" transform="translate(404.66 868.02) rotate(-87.77)"/>
  </g>
  <g id="LINE-154" data-name="LINE">
    <line class="cls-1" x1="651.72" y1="218.06" x2="661.4" y2="212.47"/>
  </g>
  <g id="ELLIPSE-162" data-name="ELLIPSE">
    <path class="cls-1" d="M651.72,218.06c-2.39,1.38-3.52,5.01-2.5,8.1,1.01,3.09,3.77,4.48,6.17,3.09"/>
  </g>
  <g id="LINE-155" data-name="LINE">
    <line class="cls-1" x1="673.34" y1="205.34" x2="682.23" y2="232.48"/>
  </g>
  <g id="LINE-156" data-name="LINE">
    <line class="cls-1" x1="657.21" y1="228.2" x2="660.9" y2="239.46"/>
  </g>
  <g id="LINE-157" data-name="LINE">
    <line class="cls-1" x1="653.32" y1="229.78" x2="643.54" y2="229.4"/>
  </g>
  <g id="ELLIPSE-163" data-name="ELLIPSE">
    <path class="cls-1" d="M328.34,49.33c1.71-1.67,4.43-1.63,7.3.12,4.85,2.96,8.67,9.83,8.53,15.35"/>
  </g>
  <g id="ELLIPSE-164" data-name="ELLIPSE">
    <path class="cls-1" d="M344.67,65.74c-.29-.2-.51-.61-.5-.94"/>
  </g>
  <g id="LINE-158" data-name="LINE">
    <line class="cls-1" x1="344.67" y1="65.74" x2="345.77" y2="66.48"/>
  </g>
  <g id="ELLIPSE-165" data-name="ELLIPSE">
    <path class="cls-1" d="M346.37,66.22s0,.02,0,.03c-.03.33-.29.44-.6.23"/>
  </g>
  <g id="ELLIPSE-166" data-name="ELLIPSE">
    <path class="cls-1" d="M346.37,66.22c.21-6.88-4.54-15.49-10.6-19.23-5.67-3.5-10.56-1.52-11.27,4.56"/>
  </g>
  <g id="SPLINE-23" data-name="SPLINE">
    <path class="cls-1" d="M349.96,62.77c-.46-.02-.9-.16-1.28-.39-.44-.27-.88-.7-1.25-1.26-.37-.56-.69-1.25-.93-1.96-.23-.71-.41-1.53-.49-2.36-.08-.82-.06-1.64.06-2.36.12-.72.35-1.43.71-2.03s.85-1.08,1.41-1.4c.55-.32,1.23-.51,1.94-.53.1,0,.2,0,.3,0"/>
  </g>
  <g id="ELLIPSE-167" data-name="ELLIPSE">
    <path class="cls-1" d="M338.64,39.63c.34-.2.7-.35,1.08-.47,4.81-1.49,11.71,3.54,15.4,11.23"/>
  </g>
  <g id="ELLIPSE-168" data-name="ELLIPSE">
    <path class="cls-1" d="M354.13,50.96c-2.51,1-3.95,4.45-3.24,7.69.59,2.67,2.5,4.44,4.64,4.32"/>
  </g>
  <g id="LINE-159" data-name="LINE">
    <line class="cls-1" x1="327.62" y1="45.99" x2="338.64" y2="39.63"/>
  </g>
  <g id="LINE-160" data-name="LINE">
    <line class="cls-1" x1="346.21" y1="66.55" x2="352.58" y2="62.87"/>
  </g>
  <g id="LINE-161" data-name="LINE">
    <line class="cls-1" x1="350.44" y1="50.48" x2="354.67" y2="50.65"/>
  </g>
  <g id="LINE-162" data-name="LINE">
    <line class="cls-1" x1="349.96" y1="62.77" x2="355.19" y2="62.97"/>
  </g>
  <g id="LINE-163" data-name="LINE">
    <line class="cls-1" x1="376.77" y1="57.22" x2="373.11" y2="46.03"/>
  </g>
  <g id="ELLIPSE-169" data-name="ELLIPSE">
    <path class="cls-1" d="M373.11,46.03c5.87-1.54,11.2-4.42,11.91-6.44.7-2.01-3.49-2.39-9.36-.85-5.87,1.54-11.2,4.42-11.91,6.44-.03.09-.05.18-.07.26"/>
  </g>
  <g id="ELLIPSE-170" data-name="ELLIPSE">
    <path class="cls-1" d="M378.78,41.57c-1.32-.29-4.19.35-6.42,1.42-.92.45-1.63.92-2,1.34"/>
  </g>
  <g id="ELLIPSE-171" data-name="ELLIPSE">
    <ellipse class="cls-1" cx="374.38" cy="42.38" rx="4.91" ry="1.37" transform="translate(5.4 118.62) rotate(-18.13)"/>
  </g>
  <g id="ELLIPSE-172" data-name="ELLIPSE">
    <path class="cls-1" d="M355.24,62.96c-1.8-.07-3.4-1.48-4.1-3.62-1.01-3.09.11-6.72,2.5-8.1"/>
  </g>
  <g id="LINE-164" data-name="LINE">
    <line class="cls-1" x1="353.65" y1="51.24" x2="363.69" y2="45.44"/>
  </g>
  <g id="LINE-165" data-name="LINE">
    <line class="cls-1" x1="376.77" y1="57.22" x2="367.1" y2="62.81"/>
  </g>
  <g id="ELLIPSE-173" data-name="ELLIPSE">
    <ellipse class="cls-1" cx="365.26" cy="57.21" rx="2.76" ry="2.12" transform="translate(293.89 419.97) rotate(-87.77)"/>
  </g>
  <g id="LINE-166" data-name="LINE">
    <line class="cls-1" x1="363.43" y1="51.62" x2="373.11" y2="46.03"/>
  </g>
  <g id="ELLIPSE-174" data-name="ELLIPSE">
    <path class="cls-1" d="M363.43,51.62c-2.39,1.38-3.52,5.01-2.5,8.1s3.77,4.48,6.17,3.09"/>
  </g>
  <g id="LINE-167" data-name="LINE">
    <line class="cls-1" x1="385.05" y1="38.89" x2="393.94" y2="66.03"/>
  </g>
  <g id="LINE-168" data-name="LINE">
    <line class="cls-1" x1="368.92" y1="61.75" x2="372.61" y2="73.02"/>
  </g>
  <g id="LINE-169" data-name="LINE">
    <line class="cls-1" x1="365.02" y1="63.34" x2="355.24" y2="62.96"/>
  </g>
  <g id="ELLIPSE-175" data-name="ELLIPSE">
    <path class="cls-1" d="M394.4,67.43c.54,1.64-3.8,4.54-9.69,6.47-5.89,1.93-11.1,2.16-11.64.51"/>
  </g>
  <g id="LINE-170" data-name="LINE">
    <line class="cls-1" x1="393.94" y1="66.03" x2="394.4" y2="67.43"/>
  </g>
  <g id="LINE-171" data-name="LINE">
    <line class="cls-1" x1="372.61" y1="73.02" x2="373.07" y2="74.42"/>
  </g>
  <g id="ELLIPSE-176" data-name="ELLIPSE">
    <path class="cls-1" d="M363.79,59.23c.85.75,2.03.45,2.62-.67.6-1.13.39-2.65-.46-3.4-.59-.52-1.37-.55-2-.08"/>
  </g>
  <g id="LINE-172" data-name="LINE">
    <line class="cls-1" x1="364.39" y1="54.72" x2="364.97" y2="54.75"/>
  </g>
  <g id="LINE-173" data-name="LINE">
    <line class="cls-1" x1="364.2" y1="59.63" x2="364.77" y2="59.65"/>
  </g>
  <g id="ELLIPSE-177" data-name="ELLIPSE">
    <path class="cls-1" d="M278.15,95.18c-3.6-7.72-10.47-12.89-15.36-11.56-.44.12-.86.3-1.25.52"/>
  </g>
  <g id="SPLINE-24" data-name="SPLINE">
    <path class="cls-1" d="M273.34,95c-.1,0-.2,0-.3,0-.71.02-1.39.21-1.94.53-.55.32-1.04.8-1.41,1.4s-.59,1.31-.71,2.03c-.06.38-.1.8-.11,1.23"/>
  </g>
  <g id="ELLIPSE-178" data-name="ELLIPSE">
    <path class="cls-1" d="M247.4,96.06c.37-3.14,1.88-5.31,4.21-6.03,4.81-1.49,11.71,3.54,15.4,11.23"/>
  </g>
  <g id="ELLIPSE-179" data-name="ELLIPSE">
    <path class="cls-1" d="M265.31,101.91c-2.92-6.16-8.42-10.23-12.3-9.1-.67.2-1.27.54-1.77,1.04"/>
  </g>
  <g id="ELLIPSE-180" data-name="ELLIPSE">
    <path class="cls-1" d="M275.99,96.07c.89-.68,1.91-.98,2.92-.85"/>
  </g>
  <g id="LINE-174" data-name="LINE">
    <line class="cls-1" x1="250.53" y1="90.5" x2="261.54" y2="84.14"/>
  </g>
  <g id="LINE-175" data-name="LINE">
    <line class="cls-1" x1="278.57" y1="95.2" x2="273.34" y2="94.99"/>
  </g>
  <g id="LINE-176" data-name="LINE">
    <line class="cls-1" x1="280.32" y1="112.91" x2="276.65" y2="101.72"/>
  </g>
  <g id="ELLIPSE-181" data-name="ELLIPSE">
    <path class="cls-1" d="M276.65,101.72c0,.08,0,.16-.01.25-.31,1.91-5.36,4.81-11.26,6.48-5.91,1.67-10.44,1.48-10.12-.42.31-1.91,5.36-4.81,11.26-6.48"/>
  </g>
  <g id="ELLIPSE-182" data-name="ELLIPSE">
    <path class="cls-1" d="M261.92,106.93c.37-.42,1.08-.89,2-1.34,2.22-1.07,5.1-1.71,6.42-1.42"/>
  </g>
  <g id="ELLIPSE-183" data-name="ELLIPSE">
    <ellipse class="cls-1" cx="265.95" cy="104.99" rx="4.91" ry="1.37" transform="translate(-19.47 87.98) rotate(-18.13)"/>
  </g>
  <g id="LINE-177" data-name="LINE">
    <line class="cls-1" x1="276.55" y1="95.75" x2="266.52" y2="101.54"/>
  </g>
  <g id="ELLIPSE-184" data-name="ELLIPSE">
    <path class="cls-1" d="M278.62,95.22c-.71-.03-1.42.15-2.07.53"/>
  </g>
  <g id="LINE-178" data-name="LINE">
    <line class="cls-1" x1="280.32" y1="112.91" x2="290" y2="107.32"/>
  </g>
  <g id="ELLIPSE-185" data-name="ELLIPSE">
    <ellipse class="cls-1" cx="288.16" cy="101.72" rx="2.76" ry="2.12" transform="translate(175.31 385.72) rotate(-87.77)"/>
  </g>
  <g id="ELLIPSE-186" data-name="ELLIPSE">
    <path class="cls-1" d="M286.33,96.13c2.39-1.38,5.16,0,6.17,3.09,1.01,3.09-.11,6.72-2.5,8.1"/>
  </g>
  <g id="LINE-179" data-name="LINE">
    <line class="cls-1" x1="286.33" y1="96.13" x2="276.65" y2="101.72"/>
  </g>
  <g id="LINE-180" data-name="LINE">
    <line class="cls-1" x1="264.17" y1="135.63" x2="255.28" y2="108.48"/>
  </g>
  <g id="LINE-181" data-name="LINE">
    <line class="cls-1" x1="285.5" y1="128.64" x2="280.34" y2="112.89"/>
  </g>
  <g id="LINE-182" data-name="LINE">
    <line class="cls-1" x1="278.62" y1="95.22" x2="288.4" y2="95.6"/>
  </g>
  <g id="ELLIPSE-187" data-name="ELLIPSE">
    <path class="cls-1" d="M286.85,99.59c.63-.48,1.41-.44,2,.08.85.75,1.06,2.28.46,3.4-.6,1.13-1.77,1.43-2.62.67"/>
  </g>
  <g id="LINE-183" data-name="LINE">
    <line class="cls-1" x1="287.68" y1="104.16" x2="287.1" y2="104.14"/>
  </g>
  <g id="LINE-184" data-name="LINE">
    <line class="cls-1" x1="287.87" y1="99.26" x2="287.29" y2="99.24"/>
  </g>
  <g id="ELLIPSE-188" data-name="ELLIPSE">
    <path class="cls-1" d="M264.63,137.02c.54,1.64,5.75,1.41,11.64-.51,5.89-1.93,10.23-4.83,9.69-6.47"/>
  </g>
  <g id="LINE-185" data-name="LINE">
    <line class="cls-1" x1="264.63" y1="137.02" x2="264.17" y2="135.63"/>
  </g>
  <g id="LINE-186" data-name="LINE">
    <line class="cls-1" x1="285.96" y1="130.04" x2="285.5" y2="128.64"/>
  </g>
  <g id="ELLIPSE-189" data-name="ELLIPSE">
    <path class="cls-2" d="M1386.94,573.41c2.3-1.33,4.51-1.55,6.13-.61"/>
  </g>
  <g id="ELLIPSE-190" data-name="ELLIPSE">
    <path class="cls-2" d="M1393.07,594.05c3.39-1.96,3.39-8.3,0-14.16-1.63-2.82-3.83-5.15-6.13-6.47"/>
  </g>
  <g id="ELLIPSE-191" data-name="ELLIPSE">
    <path class="cls-2" d="M1187.01,688.82c-4.79,2.77-8.67,9.49-8.67,15.02,0,2.66.91,4.68,2.54,5.61"/>
  </g>
  <g id="ELLIPSE-192" data-name="ELLIPSE">
    <path class="cls-2" d="M1193.14,709.46c3.39-1.96,3.39-8.3,0-14.16-1.63-2.82-3.83-5.15-6.13-6.47"/>
  </g>
  <g id="ELLIPSE-193" data-name="ELLIPSE">
    <path class="cls-2" d="M407.36,7.85c2.3-1.33,4.51-1.55,6.13-.61"/>
  </g>
  <g id="ELLIPSE-194" data-name="ELLIPSE">
    <path class="cls-2" d="M401.23,7.25c1.63-.94,3.83-.72,6.13.61"/>
  </g>
  <g id="ELLIPSE-195" data-name="ELLIPSE">
    <path class="cls-2" d="M207.43,123.26c-4.79,2.77-8.67,9.49-8.67,15.02,0,2.66.91,4.68,2.54,5.61"/>
  </g>
  <g id="ELLIPSE-196" data-name="ELLIPSE">
    <path class="cls-2" d="M201.3,122.65c1.63-.94,3.83-.72,6.13.61"/>
  </g>
  <g id="LINE-187" data-name="LINE">
    <line class="cls-2" x1="954.98" y1="514.14" x2="956.41" y2="513.31"/>
  </g>
  <g id="LINE-188" data-name="LINE">
    <line class="cls-2" x1="932.5" y1="469.2" x2="942.28" y2="480.11"/>
  </g>
  <g id="LINE-189" data-name="LINE">
    <line class="cls-2" x1="1033.51" y1="468.8" x2="1032.08" y2="469.63"/>
  </g>
  <g id="LINE-190" data-name="LINE">
    <line class="cls-2" x1="1009.6" y1="424.68" x2="1019.38" y2="435.6"/>
  </g>
  <g id="LINE-191" data-name="LINE">
    <line class="cls-2" x1="1321.8" y1="635.24" x2="1320.37" y2="636.07"/>
  </g>
  <g id="LINE-192" data-name="LINE">
    <line class="cls-2" x1="1297.89" y1="591.13" x2="1307.67" y2="602.04"/>
  </g>
  <g id="LINE-193" data-name="LINE">
    <line class="cls-2" x1="1243.27" y1="680.58" x2="1244.7" y2="679.76"/>
  </g>
  <g id="LINE-194" data-name="LINE">
    <line class="cls-2" x1="1220.8" y1="635.64" x2="1230.58" y2="646.55"/>
  </g>
  <g id="LINE-195" data-name="LINE">
    <line class="cls-2" x1="574.62" y1="262.57" x2="564.84" y2="262.19"/>
  </g>
  <g id="LINE-196" data-name="LINE">
    <line class="cls-2" x1="640.48" y1="229.3" x2="634.66" y2="232.66"/>
  </g>
  <g id="LINE-197" data-name="LINE">
    <line class="cls-2" x1="651.72" y1="218.06" x2="641.94" y2="217.68"/>
  </g>
  <g id="LINE-198" data-name="LINE">
    <line class="cls-2" x1="352.19" y1="62.86" x2="346.37" y2="66.22"/>
  </g>
  <g id="LINE-199" data-name="LINE">
    <line class="cls-2" x1="363.43" y1="51.62" x2="353.65" y2="51.24"/>
  </g>
  <g id="LINE-200" data-name="LINE">
    <line class="cls-2" x1="286.33" y1="96.13" x2="276.55" y2="95.75"/>
  </g>
</svg>