<?xml version="1.0" encoding="UTF-8"?>
<svg id="GRAPHIC" xmlns="http://www.w3.org/2000/svg" viewBox="0 0 1584 720">
  <defs>
    <style>
      .cls-1 {
        stroke-width: 0px;
      }

      .cls-2 {
        fill: none;
        stroke: #000;
        stroke-linecap: round;
        stroke-linejoin: round;
      }
    </style>
  </defs>
  <g>
    <path class="cls-1" d="M163.15,500.09l-.36-1.7.62-.14c.12.49.21.99.32,1.48l.04.22-.62.13Z"/>
    <path class="cls-1" d="M127.66,700.47h-.38c-.06,0-.09,0-.15-.01h-.05c-.06,0-.12,0-.18,0-.09,0-.21,0-.31-.02-.04,0-.09,0-.14-.01,0,0-.05,0-.1-.01l-.23-.03h0s-.08-.01-.14-.02l-.18-.05c-.07-.02-.15-.05-.22-.08-.07-.02-.15-.07-.23-.11-.06-.04-.12-.08-.18-.13-.05-.05-.1-.1-.15-.15-.06-.07-.12-.15-.17-.23-.03-.06-.07-.12-.1-.18-.04-.07-.07-.15-.1-.23-.06-.15-.11-.32-.15-.48-.04-.19-.07-.38-.09-.57-.03-.32-.04-.66-.02-1.01.02-.51.08-1.03.14-1.52l.05-.38c.1-.88.12-1.73.12-2.38,0-.65,0-1.24.1-1.83.04-.28.1-.55.19-.81.06-.16.11-.29.18-.42.05-.1.08-.16.12-.21.03-.06.07-.13.12-.19h0s.05-.07.05-.07l.08-.22c.08-.21.13-.35.19-.54l.07-.25c.02-.09.05-.2.07-.33.01-.07.03-.13.04-.2.03-.14.05-.26.07-.38l.09-.5c.02-.12.03-.19.04-.26l.03-.29.03-.98-.08-.73c-.04-.21-.08-.45-.14-.68-.13-.48-.25-.97-.34-1.46-.09-.54-.18-1.18-.26-1.93-.06-.55-.12-1.11-.18-1.66-.1-.98-.17-2-.22-3.32v-.57c-.03-.51-.04-1.01-.07-1.51-.04-.64-.11-1.25-.18-1.88-.04-.31-.07-.62-.1-.94-.1-1.06-.12-2.08-.12-2.94,0-.3,0-.6,0-.9,0-.44.01-.87.01-1.3v-1c-.01-.48-.02-.98,0-1.47.01-.79.05-1.39.11-1.95.05-.47.13-.94.2-1.41l.08-.53c.01-.08.02-.16.03-.23.03-.2.04-.37.05-.51,0-.12.01-.22.02-.33,0-.14,0-.21,0-.29v-.29c.01-.67.02-1.34.04-2.01v-.09c-.06-2.17.04-4.37.29-6.52.06-.72.12-1.38.19-2.05l.15-2.24c0-.18,0-.39.02-.59.02-.52.06-1.03.13-1.56.04-.34.1-.7.15-1.05l.37-2.26c.03-.26.05-.54.08-.82l.04-.46c.02-.22.03-.45.05-.67.05-.46.13-.93.27-1.43.04-.14.08-.28.12-.43l.1-.36,1.18-9.96c.03-.51.11-1.06.18-1.63.02-.08.02-.15.03-.22l.04-.3c.02-.17.03-.34.03-.51l.02-.56c.01-.5.05-.91.1-1.29.07-.41.17-.81.3-1.2l.45-1.22c.04-.12.1-.24.16-.37.1-.22.24-.46.38-.7l.09-.16-.14-.65s-.03-.07-.03-.1c-.05-.16-.12-.35-.19-.54l-.16-.43c-.11-.29-.21-.56-.31-.83l-.14-.35c-.1-.25-.21-.51-.3-.78-.17-.45-.31-.95-.42-1.4l-.15-.68c-.04-.2-.08-.4-.12-.61-.09-.46-.14-.87-.18-1.3-.03-.4-.03-.82-.03-1.2,0-.23,0-.46,0-.7l-.03-3.21c-.01-.55-.03-1.11-.07-1.68l-.02-.2c-.06-.79-.12-1.61-.1-2.37.01-.46.06-.99.13-1.61l.18-1.85.09-1.92c0-.38-.02-.76-.05-1.11,0-.1-.02-.2-.03-.3l-.03-.28c-.03-.21-.05-.43-.06-.64-.01-.18-.02-.34-.02-.5v-.19s.02-.07.02-.12l.02-.15c.01-.07.03-.14.05-.21.04-.13.08-.24.13-.35.04-.08.08-.15.11-.21l.04-.07c.07-.11.14-.2.21-.3.08-.11.12-.17.17-.24.03-.04.07-.09.11-.14.01-.02.05-.07.09-.12.01-.02.04-.05.06-.08l.32.11-.26-.18.35.07-.13-.09h-.13s0-.09,0-.09h0s-.04-4.25-.04-4.25c-.02-.54-.02-1.02.01-1.47,0-.2.03-.4.04-.6l.02-.3.04-1.15-1.26-5v-.05s-.04-.23-.04-.23c-.03-.14-.04-.24-.06-.33-.04-.22-.07-.42-.11-.63l-.05-.27h0c-.69-2.28-1.28-4.65-1.76-7.06l-.32-1.86c-.03-.14-.07-.24-.1-.34-.06-.19-.11-.34-.15-.46l-.07-.2c-.02-.06-.05-.13-.07-.19l-.1-.29c-.06-.18-.12-.4-.16-.63-.03-.19-.06-.38-.06-.57-.02-.48,0-.95.01-1.35,0-.27.03-.54.04-.78v-.17c.06-.45.15-.92.28-1.29.07-.2.15-.38.23-.54l.08-.18c.03-.07.06-.13.09-.2l.58-1.87-.03-.11.28-.2-.31.07-.02-.12c-.02-.12-.04-.24-.04-.37,0-.1-.02-.21-.02-.33,0-.07,0-.1,0-.13l.03-.25c0-.08.02-.16.03-.23.01-.06.02-.09.02-.14l.04-.31s.01-.11.02-.17c0-.07.03-.17.05-.27.03-.12.05-.24.09-.37.05-.17.11-.33.17-.49.08-.2.16-.4.24-.59l.18-.39c.13-.28.25-.55.36-.81l.22-.74-.12-.78c-.03-.11-.07-.25-.11-.39-.06-.21-.12-.41-.16-.63-.04-.2-.08-.42-.1-.63-.02-.2-.02-.4-.02-.6,0-.09,0-.19,0-.29.02-.27.04-.51.07-.74.04-.29.1-.56.17-.84-.21-.32-.4-.64-.6-.96l-.14-.22h0c-.63-1.08-1.21-2.19-1.78-3.27l-.54-1.03c-.45-.86-.9-1.62-1.37-2.31l-.15-.23c-.29-.42-.58-.86-.82-1.34-.27-.54-.45-1.17-.55-1.86-.08-.61-.1-1.22-.12-1.8,0-.39-.03-.76-.05-1.14-.05-.74-.15-1.51-.24-2.26-.05-.4-.1-.8-.14-1.19-.11-.99-.16-1.96-.21-2.96v-.32c-.04-.55-.06-1.11-.12-1.66-.04-.32-.09-.64-.15-.97l-.08-.44c-.04-.21-.08-.42-.11-.62-.07-.42-.12-.83-.15-1.22h-.01l-.02-.31-.07-3.53c-.11-.91-.2-1.81-.26-2.65l-.17-2.3c-.13-.97-.21-1.99-.23-3.01-.1-1.48-.17-3-.19-4.5l-.08-1.54c-.08-.2-.15-.39-.22-.6-.12-.4-.19-.78-.21-1.15,0-.04,0-.1,0-.16,0-.32.01-.66.03-.99v-.11c.01-.05.02-.09.02-.12,0-.09.01-.17.01-.23l.04-.98c0-.45.01-.85.04-1.26.02-.25.06-.65.14-1.05.08-.4.21-.78.32-1.09.35-.98.72-1.82,1.11-2.57.14-.27.29-.53.46-.78l.19-.29c.06-.15.14-.35.23-.55l.37-1.01c.3-.71.58-1.29.9-1.84.19-.33.41-.65.68-.97.14-.17.29-.34.43-.51l.58-.61c.08-.08.16-.16.24-.23.04-.04.08-.08.12-.13l.08-.08.29.16-.22-.22.07-.07s.04-.04.06-.07l.46-.47c.05-.05.11-.11.16-.17l1.05-1.21c.22-.27.47-.57.73-.88l.51-.57c.24-.26.47-.53.7-.79.21-.23.4-.46.6-.7l.44-.51c.28-.33.58-.66.89-.98.25-.24.53-.52.86-.75l.52-.31c.11-.06.15-.08.18-.1.07-.04.12-.06.17-.08.06-.03.11-.06.19-.11.07-.04.15-.08.24-.14l2.69-2.69,2.17-4.56-.95-5.59c-.07-.3-.15-.61-.24-.91l-2.36-5.51c-.09-.18-.19-.36-.28-.54-.2-.41-.35-.81-.45-1.2-.09-.31-.15-.64-.2-1.02-.05-.41-.08-.86-.08-1.29,0-.38.02-.77.05-1.15.05-.61.13-1.18.23-1.7.04-.2.08-.38.12-.56l.04-.15.34-.06-.31-.08.4-1.43c.07-.21.14-.42.22-.63.16-.44.32-.88.5-1.31l.16-.38c.45-1.13,1.01-2.21,1.67-3.2.42-.55.86-1.06,1.32-1.53l.07-.08c.72-.8,1.4-1.51,2.08-2.17.63-.59,1.35-1.06,2.13-1.41.16-.07.33-.14.5-.2l.27-.08c.15-.05.33-.09.51-.12.15-.03.32-.06.48-.08.51-.07.99-.12,1.46-.14.37-.02.75-.02,1.12-.01.41.02.83.05,1.23.09.29.03.56.05.84.07.41.03.85.06,1.28.12.34.05.68.11,1.01.19.38.09.75.19,1.12.3.36.11.7.22,1.03.33l.17.06c.39.12.78.25,1.13.36l1.66.47c.56.17,1.1.36,1.62.54.38.14.74.27,1.08.43.14.07.27.13.39.2.07.04.15.09.22.13l.1.07c.08.05.12.08.14.1l.42.25c.12.08.24.15.35.21l.27.16c.07.04.15.08.24.13.15.08.25.12.35.17.22.11.46.21.69.29l.62.24c.36.15.67.31.95.5.19.13.38.27.56.46.14.16.28.35.38.53.04.08.07.15.1.23.03.06.05.14.06.2.02.09.04.18.05.26.01.13.01.19.01.25v.18c0,.07,0,.16,0,.27-.01.21-.05.43-.11.63,0,.04-.03.1-.05.16l-.2.54c-.03.07-.05.14-.08.22-.03.08-.04.14-.06.21l-.02.57c0,.08.03.19.05.3l.08.37c.05.23.1.46.13.69.04.35.03.71-.04,1.05-.05.25-.13.49-.21.7l-.33.96c-.05.19-.09.39-.11.58l-.04,1.1c.06.61.07,1.25.03,1.88l-.05.29c-.05.25-.12.48-.22.69-.07.15-.15.31-.25.47-.11.16-.22.31-.34.47l-.1.13c-.09.11-.16.21-.23.31l-.39.68-.19,1.02.2.79.17.28c.1.17.2.34.3.51.07.12.14.24.2.36.25.45.41.82.51,1.17.06.21.09.41.1.59,0,.12,0,.24-.02.36-.01.07-.03.14-.05.2-.04.1-.08.18-.13.24l-1.31,1.52-.02.98c0,.09,0,.16,0,.23,0,.23-.03.47-.07.7-.04.26-.11.53-.19.79-.1.33-.21.65-.33.93l-.1.23c-.05.11-.1.21-.15.3l-.16.3c-.05.1-.1.19-.14.28-.07.14-.13.28-.2.47-.07.18-.13.36-.2.57l-.21.67c-.07.22-.15.43-.24.63-.09.21-.2.4-.32.57-.1.15-.22.28-.35.4-.17.16-.36.3-.61.44-.28.15-.57.28-.89.37-.35.1-.73.17-1.15.2-.43.03-.87.03-1.31-.01l-.75-.08c-.12-.02-.16-.02-.2-.03-.03,0-.07,0-.1-.01v-.04s-2.73,4.28-2.73,4.28l-.16,1.37c.16.08.32.16.48.23.36.17.77.32,1.12.45l.2.07c.15.05.31.1.48.17.26.09.54.2.83.32.33.14.66.29.96.42l.11.05c.19.09.36.17.54.25.21.09.44.19.67.31.37.19.72.4,1.01.61.24.17.45.35.67.53l.12.1c.55.47,1.09.97,1.65,1.48.29.26.58.54.86.84.31.32.57.64.77.96.17.26.33.56.48.93.12.31.23.63.31.97.05.21.1.42.15.62l.02.12c.01.06.02.12.03.17l.23,1.37c.07.41.14.85.21,1.32.11.69.16,1.36.15,1.99v.16c0,.12,0,.25-.02.37,0,.42-.03.84-.04,1.24v.12c0,.08,0,.15-.01.23l.4,1.34c.14.41.28.82.41,1.21l.43,1.32c.02.08.05.16.07.25l.05.2c.03.14.05.22.07.31l-.29.18.31-.05c.02.1.03.21.04.32v.08c.01.07.02.15.02.22,0,.08,0,.19,0,.29,0,.03,0,.08,0,.13v.02c.02.24.04.4.05.56l.02.25c.05.53.08,1.09.12,1.65.05.73.07,1.46.06,2.16h0s.05.31.05.31l-.31,10.87h-.05c-.03,1.18-.08,2.35-.14,3.35v.15c-.01.11-.02.23-.02.35l.59,3.85c.2,1.16.37,2.35.52,3.65.04.31.07.61.1.91l.29,2.85c.08.52.15,1.04.22,1.56v.09c.38,1.71.72,3.58,1,5.49.03.18.05.31.06.44.12.77.23,1.55.33,2.34.09.59.16,1.22.2,1.87v.21c.02.4.04.8.07,1.19l.02.38,1.67,14.24h-.02s.04.25.04.25c.04.3.08.58.13.87.03.21.06.42.1.63.04.25.08.5.12.76.11.69.13,1.42.07,2.23,0,.17-.02.34-.04.5l-.19,2.43c0,.15,0,.33,0,.51v.54c-.01.15-.02.32-.02.49-.01.28-.03.57-.05.86-.02.2-.04.35-.05.51l-.13.91c-.03.22-.06.44-.09.66-.03.25-.05.51-.07.77v.13s-.5,12.76-.5,12.76c-.02.98-.07,1.81-.16,2.58-.13,1.1-.3,2.21-.46,3.24l-.15.94c-.08.44-.15.86-.24,1.28l-1.72,11.27c-.17,1.23-.36,2.46-.56,3.68-.05.3-.09.59-.13.89l-.17,1.36c-.08.64-.18,1.29-.28,1.91l-.18,1.2c-.07.46-.13.92-.21,1.38-.08.49-.16.98-.24,1.46-.06.36-.12.72-.18,1.08-.08.53-.17,1.05-.26,1.57-.07.39-.14.78-.21,1.17-.06.33-.12.66-.18.98l-.02.12c-.05.32-.1.63-.15.94l-.22,1.43c-.11.73-.23,1.46-.37,2.19-.01.06-.02.13-.04.2l-.54,3.19c-.06.8-.12,1.66-.3,2.53-.13.65-.32,1.29-.48,1.83-.14.45-.28.92-.48,1.37-.1.24-.24.48-.4.7-.16.21-.35.41-.57.61-.31.25-.6.46-.88.62,0,0,0,0,0,0v.15h-.21c-.12.1-.25.2-.37.3l-.88,1.03-.05.47.17,2.11c.02.21.04.42.08.6l.02.1c.02.11.04.22.07.34l.06.33c.07.38.12.79.15,1.22.03.43.04.9.03,1.36-.01.49-.06.98-.1,1.39l-.05.41c-.05.44-.11.87-.15,1.32-.06.53-.12,1.06-.21,1.59-.06.41-.14.81-.21,1.21-.11.6-.22,1.22-.29,1.8-.07.59-.11,1.18-.14,1.75-.01.33-.02.68-.03,1.03-.01.48-.02.98-.05,1.48-.02.25-.04.5-.06.74l-.06.58c-.05.51-.11,1.01-.15,1.52-.06.67-.14,1.34-.22,2.04l-.02.18-1.68,19.98c0,.14,0,.31,0,.49v.36c0,.59.02,1.05.1,1.46.05.3.13.58.22.81.1.26.24.51.4.72.08.11.16.2.25.29.07.07.16.14.25.21.12.09.23.16.34.23.13.08.28.16.42.23l.27.14c.31.16.61.32.91.5.52.31.95.62,1.32.97.39.36.75.76,1.1,1.15.19.21.37.41.56.61l.43.45c.17.18.33.35.49.52.14.15.27.28.4.4.16.15.29.27.42.36.11.09.27.2.45.31.18.12.4.24.62.35.39.2.75.36,1.12.48.48.16,1.02.27,1.54.38.37.07.7.15,1.03.23l.84.21c.23.06.45.11.68.15.26.05.52.09.79.11.21.02.42.03.63.03.23,0,.46,0,.67,0,.21,0,.4-.01.58-.02l1.04-.06c.15,0,.31-.02.47-.02.19,0,.38,0,.57,0h.15c.56,0,1.12.07,1.67.22.1.03.19.06.28.1.09.04.19.09.29.15.1.06.2.13.28.21.1.09.21.2.31.33.08.11.15.23.22.39.06.14.1.29.13.48.01.07.02.14.02.22,0,.12,0,.23,0,.34,0,.1-.02.21-.04.31-.03.23-.09.45-.17.65-.05.14-.12.28-.21.41-.08.11-.15.19-.24.26l-.08.08c-.19.18-.33.32-.46.37-.04.02-.08.04-1.12.17-.07,0-1.08.03-2.3.06-1.88.04-4.27.1-4.42.1-.06,0-6.5.03-13.97.06-10.32.04-22.58.1-22.65.1-.26,0-.5.01-.75.01-.13,0-1.8.02-2.28.02ZM127.07,699.83h.58c.48.01,2.14,0,2.27,0,.26,0,.5,0,.72,0,.13,0,12.38-.05,22.69-.1,7.48-.03,13.94-.06,13.97-.06.15,0,2.54-.06,4.42-.1,1.22-.03,2.23-.05,2.27-.05,0,0,.83-.11.96-.14,0-.01.16-.16.23-.23l.11-.1s.09-.09.13-.15c.05-.07.1-.17.13-.27.07-.16.11-.33.14-.52.02-.09.02-.17.03-.25,0-.09,0-.17,0-.26,0-.05,0-.1-.02-.16h0c-.02-.14-.05-.24-.09-.33-.05-.11-.09-.19-.14-.26-.07-.09-.14-.17-.22-.24-.06-.06-.13-.1-.2-.15-.07-.04-.15-.08-.22-.11-.07-.03-.13-.05-.19-.07-.49-.13-1-.19-1.5-.19h-.16c-.19,0-.37,0-.55,0-.15,0-.3.01-.45.02l-1.04.07c-.18,0-.38.02-.59.02-.21.01-.46.02-.69,0h0c-.22,0-.45-.01-.67-.03-.29-.02-.58-.07-.85-.12-.24-.04-.47-.1-.71-.16l-.85-.21c-.32-.08-.65-.15-.98-.22-.56-.11-1.12-.23-1.63-.4-.4-.13-.8-.3-1.22-.52-.23-.12-.47-.26-.67-.38s-.36-.25-.49-.34c-.14-.11-.29-.24-.46-.4-.13-.13-.28-.27-.42-.43-.16-.16-.32-.34-.49-.52l-.42-.45c-.19-.2-.38-.41-.57-.62-.34-.38-.69-.77-1.06-1.11-.34-.32-.74-.61-1.21-.89-.29-.17-.58-.33-.88-.49l-.26-.14c-.15-.07-.3-.16-.45-.25-.14-.09-.27-.17-.39-.27-.1-.07-.21-.17-.31-.26-.12-.12-.22-.24-.32-.36-.19-.25-.36-.55-.48-.87-.11-.28-.19-.59-.25-.93-.08-.45-.12-.95-.12-1.58v-.36c0-.17,0-.33,0-.5l1.7-20.22c.08-.69.16-1.35.22-2.02.05-.51.1-1.01.15-1.53l.06-.56c.02-.25.04-.49.06-.73.03-.49.04-.98.05-1.45,0-.36.02-.71.03-1.04.03-.58.08-1.18.14-1.79.08-.6.19-1.23.3-1.84.07-.4.15-.8.21-1.2.08-.52.15-1.04.2-1.56.04-.45.1-.89.15-1.33l.05-.41c.04-.4.09-.87.1-1.33.01-.44,0-.89-.03-1.3-.03-.41-.07-.79-.14-1.15l-.06-.31c-.03-.12-.05-.24-.07-.36h0s-.01-.04-.02-.08c-.04-.21-.06-.43-.08-.66l-.06-.54h.02l-.13-1.65.07-.73,1.03-1.21c.15-.13.28-.24.4-.34v-.06l.28-.14c.29-.18.55-.36.83-.59.19-.16.34-.33.47-.5.13-.18.24-.37.33-.57.18-.41.31-.84.45-1.3.16-.53.34-1.14.47-1.77.17-.84.23-1.64.28-2.41v-.11s.55-3.21.55-3.21c.02-.08.03-.13.04-.18.14-.73.25-1.45.37-2.17l.22-1.43c.05-.31.1-.63.15-.95l.02-.13c.06-.33.12-.66.18-.99.07-.38.14-.77.21-1.16.09-.52.17-1.04.26-1.57.06-.36.12-.73.18-1.09.08-.49.16-.97.24-1.46.07-.46.14-.92.21-1.37l.18-1.21c.09-.62.19-1.26.27-1.9l.17-1.35c.04-.3.08-.61.13-.91.2-1.22.39-2.45.56-3.67l.14-1.03,1.58-10.26c.09-.43.16-.85.23-1.27l.15-.93c.16-1.03.33-2.13.46-3.22.1-.81.15-1.69.16-2.76l.02-.31.46-11.89h-.01l.02-.34c.03-.32.05-.63.08-.93.03-.23.06-.46.09-.68l.13-.9c.02-.15.03-.29.05-.44.03-.32.05-.6.05-.87,0-.16.01-.32.01-.48v-.54c.01-.19.02-.36.02-.54l.15-1.97h0l.03-.35c.02-.2.04-.41.05-.62.06-.76.03-1.45-.07-2.1-.03-.25-.08-.5-.12-.74-.04-.22-.07-.43-.1-.63-.05-.29-.09-.58-.13-.88l-.12-.84h.03s-1.65-14.13-1.65-14.13h.03c-.03-.38-.05-.77-.06-1.16v-.2c-.05-.62-.11-1.24-.2-1.82-.1-.79-.2-1.56-.33-2.33-.02-.13-.03-.25-.05-.37-.29-1.96-.63-3.82-1.01-5.58-.08-.59-.16-1.11-.23-1.62l-.09-.63h.02l-.22-2.24c-.03-.3-.06-.6-.1-.9-.15-1.29-.31-2.47-.51-3.62l-.6-3.89v-.09c0-.13.01-.25.02-.38v-.14c.07-1.08.13-2.36.15-3.64v-.31h.06l.28-9.97-.05-.29c.02-.78,0-1.59-.06-2.41-.03-.56-.07-1.11-.12-1.64l-.02-.25c-.02-.17-.03-.34-.04-.51v-.31c0-.08,0-.16,0-.23,0-.08,0-.14,0-.2-.01-.16-.03-.26-.04-.35l-.02-.14c-.01-.05-.03-.13-.05-.21l-.06-.24c-.02-.09-.05-.16-.06-.23l-.43-1.31c-.13-.39-.26-.8-.41-1.21l-.44-1.46v-.06c.01-.08.01-.17.02-.25v-.13c.02-.4.03-.81.04-1.23,0-.13,0-.25.01-.36v-.17c.01-.59-.04-1.22-.14-1.88-.07-.46-.14-.91-.21-1.31l-.23-1.38c0-.06-.02-.1-.03-.15l-.02-.12c-.04-.18-.08-.38-.14-.58-.08-.31-.17-.6-.29-.88-.14-.33-.27-.59-.42-.82-.19-.29-.42-.58-.7-.87-.27-.29-.55-.55-.83-.81-.56-.51-1.09-1-1.63-1.46l-.11-.09c-.2-.17-.41-.34-.64-.51-.26-.19-.58-.38-.92-.56-.22-.11-.44-.21-.64-.3-.19-.09-.36-.17-.56-.26l-.11-.05c-.29-.13-.61-.28-.94-.41-.27-.11-.54-.22-.79-.3-.17-.06-.33-.11-.47-.16l-.21-.07c-.36-.13-.8-.3-1.17-.47-.24-.11-.47-.23-.7-.34l-.2-.1.26-2.01,2.89-4.54.18-.07.36.03s.04,0,.08.01l.89.1c.42.04.83.04,1.22.01.38-.03.72-.09,1.03-.18.27-.08.52-.18.75-.31.19-.12.36-.23.48-.35.1-.09.19-.2.26-.31.09-.13.18-.29.25-.46.08-.18.15-.38.22-.58l.21-.67c.07-.22.14-.42.21-.6.07-.2.14-.35.21-.51.04-.1.09-.19.15-.3l.12-.23c.08-.15.12-.25.17-.35l.09-.21c.12-.28.22-.57.3-.87.07-.24.13-.48.17-.73.04-.2.06-.41.07-.62,0-.07,0-.12,0-.17l.02-1.24,1.44-1.68c.03-.08.04-.11.05-.15.01-.07.02-.15.01-.23,0-.14-.03-.29-.07-.45-.09-.3-.23-.63-.46-1.03-.06-.11-.13-.23-.2-.34-.1-.17-.2-.34-.3-.5l-.23-.41-.24-.97.26-1.31.43-.75c.09-.14.18-.25.27-.36l.09-.12c.11-.14.21-.28.31-.42.07-.12.15-.25.2-.39.11-.24.18-.51.21-.79v-.1c.05-.55.04-1.12-.02-1.7l.04-1.16c.02-.23.07-.47.13-.72l.18-.56.33.02-.3-.11.14-.36c.07-.18.14-.38.18-.59.05-.28.06-.58.03-.86-.02-.21-.07-.42-.12-.63l-.08-.4c-.02-.13-.05-.27-.06-.4l.03-.65c.02-.14.05-.24.08-.33.03-.09.06-.18.09-.27l.04-.1s.04-.1.06-.14l.09-.26s.03-.08.03-.11c.06-.22.08-.4.09-.52,0-.09,0-.17,0-.23v-.18s0-.09,0-.15c0-.07-.02-.13-.04-.21,0-.04-.02-.08-.04-.12-.02-.06-.04-.11-.07-.17-.08-.14-.17-.28-.28-.4-.13-.14-.29-.26-.45-.37-.24-.16-.51-.31-.83-.44l-.61-.23c-.25-.09-.51-.2-.74-.31-.1-.04-.2-.1-.3-.15l-.07-.04c-.09-.05-.18-.09-.25-.14l-.28-.16c-.12-.07-.25-.15-.37-.22-.12-.07-.24-.14-.31-.19-.07-.04-.09-.05-.12-.07l-.12-.08.08-.33-.17.27c-.1-.06-.16-.1-.23-.14-.12-.07-.22-.12-.33-.17-.33-.15-.68-.28-1.04-.41-.51-.18-1.05-.37-1.58-.53l-1.66-.47c-.36-.11-.76-.23-1.15-.36l-.17-.06c-.33-.11-.67-.22-1.01-.33-.35-.1-.71-.2-1.07-.28-.32-.07-.64-.13-.96-.18-.42-.06-.84-.09-1.24-.12-.29-.02-.57-.04-.86-.07-.39-.04-.8-.07-1.2-.09-.35-.01-.71,0-1.07.01-.45.02-.91.06-1.4.13-.15.02-.3.05-.45.08-.16.03-.32.06-.47.11l-.25.07c-.14.05-.29.11-.43.17-.72.32-1.37.75-1.95,1.29-.59.57-1.19,1.2-1.83,1.9h.01s-.23.25-.23.25c-.47.47-.92.99-1.34,1.53-.62.94-1.16,1.97-1.6,3.07l-.16.38c-.18.42-.34.85-.5,1.28-.07.2-.14.41-.21.61l-.3,1.06c-.01.06-.03.11-.05.16l-.11.45c-.04.18-.08.35-.11.53-.1.5-.17,1.06-.22,1.64-.03.36-.05.73-.05,1.1,0,.41.03.82.08,1.21.04.35.1.65.18.94.09.35.23.72.41,1.09.08.18.18.35.27.52l.04.09,2.35,5.5c.11.35.2.68.27,1.01l.99,5.8-2.34,4.88-2.86,2.83c-.09.06-.17.11-.24.15-.09.05-.15.08-.24.13-.05.02-.09.04-.13.06-.03.02-.08.05-.15.08l-.49.29c-.28.19-.54.45-.76.67-.3.31-.59.63-.86.95l-.44.51c-.2.24-.4.47-.61.7-.22.26-.46.53-.7.79l-.5.56c-.26.3-.5.59-.72.87l-1.06,1.22c-.07.08-.13.14-.19.2l-.3.31s-.06.06-.09.09c-.04.04-.06.06-.08.08.02,0-.02.04-.07.08l-.18.18s-.08.09-.14.15c-.08.07-.15.15-.23.23l-.56.59c-.13.15-.27.31-.41.48-.24.29-.45.59-.62.89-.31.52-.58,1.08-.86,1.75l-.37,1.02c-.1.21-.18.4-.26.6l-.22.35c-.15.24-.3.49-.43.74-.38.72-.74,1.53-1.08,2.49-.1.29-.22.64-.29,1.01-.08.37-.12.73-.13.97-.03.4-.04.78-.04,1.21l-.04,1c0,.07,0,.15-.01.24,0,.03,0,.09-.01.15v.1c-.02.31-.04.62-.04.94,0,.05,0,.09,0,.12.02.34.08.67.18,1,.07.2.13.39.22.59l.03.14.08,1.59c.02,1.49.09,3,.19,4.49.02,1.02.1,2.01.22,2.97l.18,2.32c.06.85.15,1.76.26,2.68l.04.36h-.04l.08,3.17c.02.46.07.94.16,1.44.03.2.07.4.11.61l.08.44c.06.34.12.68.16,1.01.06.57.09,1.14.11,1.7v.32c.06.99.11,1.96.22,2.93.04.39.09.79.14,1.18.09.76.19,1.54.25,2.29.03.39.04.77.05,1.16.02.56.05,1.16.12,1.74.09.62.25,1.18.49,1.66.21.44.48.84.77,1.26l.15.23c.48.71.95,1.49,1.41,2.37l.54,1.04c.6,1.15,1.22,2.33,1.89,3.45l.13.22h0c.17.29.35.57.53.85l.13.21-.12.13c-.07.27-.13.54-.17.82-.03.21-.05.43-.07.65,0,.11,0,.2,0,.28,0,.19,0,.37.02.55.01.19.05.37.09.55.04.21.1.4.15.6.04.15.08.29.12.44l.15.95-.27.9c-.12.3-.25.58-.38.87l-.18.39c-.08.18-.16.37-.23.56-.06.15-.11.29-.15.44-.03.1-.05.22-.08.33-.02.08-.03.16-.04.23-.01.07-.02.11-.02.15l-.02.11c-.02.13-.02.18-.03.21,0,.04,0,.08-.03.18,0,.04-.02.1-.02.15l-.33.08h.32s0,.08,0,.12c0,.05,0,.11,0,.16,0,.06,0,.15.02.25,0,.12.02.22.03.31l.07.33c.01.06.02.1.02.15v.09s-.63,1.99-.63,1.99c-.03.08-.06.15-.1.23l-.05.11c-.09.2-.17.37-.23.55-.11.33-.2.74-.24,1.15v.15c-.03.22-.04.48-.05.75-.03.54-.03.93-.01,1.29,0,.17.03.32.05.49.03.2.09.39.14.53l.1.28c.02.07.04.13.07.19l.07.21c.04.13.09.28.14.42.06.17.09.29.12.43l.33,1.9c.5,2.48,1.12,4.94,1.83,7.29l.09.29-.06.02c.02.12.04.25.07.38.01.09.03.17.04.27v.08s-.29.11-.29.11l.33.03.05.21,1.23,4.92-.06,1.57c-.01.19-.03.39-.04.59-.03.43-.03.9,0,1.42l.04,4.49-.1.11s-.02.02-.02.03l-.05.07c-.05.08-.09.12-.12.15,0,0-.03.05-.06.09-.04.04-.06.07-.08.1-.05.06-.08.1-.1.13-.05.06-.09.12-.13.18-.1.13-.16.22-.22.32-.06.1-.09.14-.11.2-.03.08-.07.16-.1.26-.01.04-.03.09-.03.14l-.33.09.31.06-.02.23c0,.12,0,.27.02.44.01.2.03.4.06.61l.03.28c.01.1.02.21.03.31.04.36.05.76.05,1.18l-.1,1.95-.18,1.87c-.07.61-.12,1.12-.13,1.56-.02.73.04,1.53.09,2.3l.02.21c.04.58.06,1.16.07,1.72l.03,3.21c0,.24,0,.48,0,.71,0,.36,0,.76.03,1.14.03.4.09.79.17,1.24.04.2.08.4.11.59l.03.13c.03.13.06.26.09.41l.03.13c.1.43.24.9.39,1.32.09.26.2.52.29.76l.14.35c.11.27.21.55.32.84l.16.44c.07.19.14.38.2.57l.05.15.16.83-.03.14-.13.25c-.16.26-.29.48-.38.69-.06.12-.1.22-.14.32l-.44,1.2c-.12.36-.21.73-.27,1.1-.05.34-.08.74-.1,1.21l-.02.5c0,.25-.02.44-.04.63l-.03.27c-.01.12-.02.2-.04.29-.08.54-.15,1.08-.18,1.58l-1.19,10.02-.11.41c-.04.14-.08.28-.11.42-.12.47-.21.9-.25,1.33-.02.22-.04.44-.05.66l-.04.47c-.02.28-.05.57-.08.85l-.37,2.28c-.06.34-.11.69-.15,1.02-.06.51-.1,1-.12,1.51,0,.2-.02.39-.02.59l-.15,2.28c-.07.68-.13,1.33-.18,1.98v.09c-.26,2.16-.35,4.36-.29,6.54v.33s-.01,0-.01,0c-.01.56-.02,1.13-.03,1.69v.29c0,.09,0,.18,0,.26,0,.17-.01.28-.02.4-.01.16-.03.34-.05.54,0,.07-.02.16-.03.25l-.08.54c-.07.47-.15.93-.2,1.39-.06.53-.09,1.12-.1,1.89-.01.48,0,.97,0,1.46v1.01c0,.44,0,.87,0,1.31,0,.29,0,.59,0,.89,0,.84.01,1.85.11,2.88.03.31.07.62.1.93.07.63.14,1.26.18,1.91.03.5.04,1.02.05,1.53l.02.57c.05,1.31.12,2.32.22,3.28.06.55.12,1.1.18,1.66.08.74.16,1.37.25,1.89.09.47.2.94.33,1.41.06.25.11.5.15.75l.08.79-.07,1.36c0,.08-.02.16-.04.24l-.1.55c-.02.13-.05.26-.08.39,0,.06-.02.14-.04.22-.03.13-.05.25-.08.36l-.07.26c-.06.21-.12.37-.19.55l-.1.34-.1.09c-.05.07-.08.12-.12.18-.03.05-.06.1-.08.13-.07.14-.11.25-.15.36-.08.23-.14.47-.17.71-.08.55-.09,1.11-.09,1.74,0,.67-.02,1.54-.13,2.45l-.05.39c-.06.48-.12.98-.14,1.47-.02.32,0,.63.02.93.02.17.04.32.08.48.03.14.08.28.12.4.02.06.04.11.07.16.03.06.06.11.08.15.03.05.06.09.1.12.03.04.07.07.1.1.03.02.06.05.09.06.04.02.08.05.14.07.07.03.12.05.18.07l.12.03s.08.02.12.02l.31.04s.05,0,.08,0c.12.01.22.02.31.02.07,0,.11,0,.15,0ZM153.44,474.06l.03.02v-.13s-.03.11-.03.11Z"/>
  </g>
  <path class="cls-1" d="M857.87,661.26c-1.06,0-9.89-.06-19.37-.12-2.06-.01-3.44-.02-3.49-.02h-1.78c-.43,0-.85-.02-1.25-.06l-.29-.05s-.05-.01-.07-.02l-.21-.04c-.13-.03-.26-.07-.38-.13-.12-.05-.24-.12-.35-.21-.09-.08-.17-.15-.22-.23-.13-.17-.22-.37-.29-.62-.04-.16-.08-.31-.11-.48-.05-.33-.08-.65-.09-.97-.01-.22-.01-.43-.01-.64,0-.38.02-.79.06-1.27.21-1.57.21-3.15,0-4.69-.02-.15-.03-.28-.06-.42-.04-.26-.1-.5-.17-.73-.03-.09-.05-.17-.09-.26-.03-.08-.05-.14-.08-.2l-.21-.51c-.06-.13-.11-.27-.16-.41-.08-.21-.16-.43-.21-.65-.05-.19-.1-.38-.13-.56l-.05-.27c-.1-.59-.15-1.16-.15-1.71,0-.23,0-.47,0-.72.02-.79.06-1.45.11-2.07.03-.39.07-.77.12-1.14.04-.37.07-.75.12-1.13.11-.89.25-1.76.39-2.62l.16-.97c.07-.49.16-.98.25-1.47.09-.51.18-1.02.25-1.51.08-.55.15-1.14.21-1.73v-.14c.08-.61.15-1.25.2-1.88.07-1.07.04-2.12.01-3.13l-.02-.54c-.03-.75-.05-1.53,0-2.33.03-.47.07-.94.12-1.4l.14-1.66c.03-.3.05-.6.07-.9.04-.48.07-.96.1-1.43.03-.53.06-1.1.09-1.65l.02-.34c.03-.41.06-.81.08-1.22.02-.38.02-.76.02-1.14v-.14c0-.46-.01-.92.01-1.37.03-.52.11-1.05.19-1.56l.07-.45c.09-.57.14-1.07.17-1.51.03-.4.05-.8.06-1.21v-.4c.03-.46.06-.93.09-1.38.04-.41.07-.82.11-1.23.04-.39.07-.78.11-1.17.07-.83.16-1.6.29-2.34.06-.36.13-.72.2-1.08.06-.33.13-.66.18-.99.04-.19.07-.38.1-.57l.13-.75c.03-.16.06-.29.08-.43.02-.14.04-.27.05-.43l.08-1.14c0-.15.02-.3.04-.44.02-.22.06-.45.09-.68.02-.15.04-.3.06-.45.02-.17.04-.3.05-.43.02-.14.03-.27.03-.39,0-.12,0-.23,0-.33,0-.15,0-.29,0-.43,0-.18-.02-.33-.04-.46-.02-.2-.04-.37-.07-.57l-.02-.11c-.06-.35-.12-.74-.17-1.15-.04-.3-.05-.63-.05-.93,0-.2.01-.4.02-.58v-.18c.02-.17.02-.32.02-.51,0-.17-.01-.36-.02-.56-.02-.18-.04-.37-.06-.57-.04-.31-.08-.62-.12-.92-.04-.36-.07-.72-.1-1.05l-.09-1.38c0-.16-.02-.32-.02-.49,0-.2,0-.41,0-.61,0-.15,0-.3.01-.45.01-.25.03-.48.04-.7l.02-.21c0-.08.02-.15.02-.22.01-.09.02-.17.03-.25l.02-.16c.03-.3.09-.63.15-.95.05-.3.12-.62.18-.95.08-.43.16-.87.22-1.31.06-.41.1-.83.15-1.24l.09-.77c.05-.42.09-.84.13-1.26.07-.74.15-1.48.25-2.21.05-.37.11-.74.15-1.11.02-.17.04-.35.06-.53.02-.16.03-.32.04-.47l.05-.8v-.19c0-.07,0-.11,0-.15l.31-.11-.32.02-.06-.64c-.01-.13-.04-.28-.06-.44l-.06-.38c-.05-.28-.09-.53-.15-.77-.08-.33-.17-.65-.27-.98-.21-.68-.36-1.31-.46-1.9-.06-.34-.11-.69-.14-1.03-.02-.27-.03-.58-.02-.91.01-.22.03-.43.04-.59v-.12c.02-.09.02-.17.02-.25l.02-.41c0-.12.02-.2.03-.26.01-.15.04-.33.07-.52l.08-.56c0-.07.01-.14.02-.21.01-.13.02-.28.03-.44.01-.17.02-.33.02-.48,0-.11,0-.2,0-.3,0-.01,0-.03,0-.04-.03.23-.06.46-.1.7-.06.37-.14.78-.25,1.2-.07.26-.14.51-.21.76-.1.34-.19.68-.27,1.01-.22.89-.38,1.79-.54,2.75l-.02.14c-.13.77-.29,1.43-.48,2.04-.08.27-.17.55-.27.82-.11.32-.21.63-.3.95-.14.5-.25,1.02-.35,1.52l-.3,1.48c-.07.36-.14.71-.19,1.02-.03.18-.07.37-.1.57-.05.29-.11.59-.17.89l-.06.26c-.07.31-.13.61-.2.92-.09.46-.17.93-.24,1.4-.05.33-.1.65-.15.96l-.17,1.07c-.09.58-.19,1.17-.26,1.74-.05.43-.1.8-.14,1.18l-.12,1.15c-.03.36-.06.71-.07,1.08-.11,1.97-.15,3.94-.14,5.86,0,.3,0,.58.02.87v.27c.03.33.04.66.06,1v.11c.03.36.03.73.03,1.09-.02.53-.07,1.05-.12,1.55l-.02.15c-.07.68-.11,1.37-.12,2.05,0,.46.02.93.07,1.48.02.27.05.54.07.81.04.48.09.98.1,1.46,0,.3,0,.61-.02.91-.02.21-.03.41-.05.6l-.05.45s0,.06,0,.09v.09c0,.51-.03,1.05-.12,1.58v.04c-.05.48-.09.95-.12,1.43l-.07.86c0,.1-.02.2-.04.31-.02.18-.05.38-.07.54-.02.14-.04.25-.07.35l-.13.53s-.02.1-.04.14c-.02.07-.03.15-.06.31l-.1.63c-.03.22-.07.46-.11.72l-.05.31c-.06.36-.11.72-.18,1.09l-.04.19c-.09.43-.17.84-.23,1.31-.05.33-.09.67-.12,1.02-.08.74-.13,1.49-.15,2.19-.01.48,0,.96.02,1.45.06,1.66.17,3.34.27,4.97.1,1.5.18,2.94.25,4.37.07,1.62.24,3.25.41,4.79.1.86.2,1.87.21,2.87.02.85-.02,1.8-.11,2.88-.08.85-.17,1.6-.28,2.32-.07.41-.14.83-.24,1.25l-.34,1.73c-.09.53-.18,1.07-.23,1.6-.04.34-.06.68-.07,1.02,0,.22-.02.44-.02.66,0,.29-.02.58-.03.86-.01.25-.03.52-.07.79-.05.33-.11.58-.19.81-.12.42-.3.82-.46,1.15-.15.31-.3.62-.47.94l-.12.23c-.12.24-.25.49-.37.74-.1.22-.21.44-.3.65-.07.16-.12.28-.17.4.02.25.25,1.32.43,1.82.08.19.18.39.29.58h.13v.2s0,.02,0,.02l.3.39c.29.38.6.77.89,1.1l.1.07c.13.1.26.22.37.33.13.13.24.28.34.44.23.35.39.76.46,1.18v.13s.02.12.02.21c0,.05,0,.1,0,.16v.08s0,0,0,0c0,0,0,.03,0,.06l-.07.25c-.02.06-.13.28-.16.33-.06.11-.23.36-.35.47-.07.07-.17.16-.28.22-.14.08-.27.12-.35.15-.21.06-.36.08-.49.09-.1.01-.2.02-.28.02-.63.05-1.1.06-1.6.06-.25,0-.51,0-.79.01-.99.04-5.46-.04-5.64-.05l-4.46.05h0c-.06-.01-.11-.02-.17-.02l-.92-.07c-.23-.03-.46-.09-.66-.16-.15-.05-.29-.12-.43-.2-.09-.05-.16-.1-.23-.15-.06-.04-.11-.08-.16-.12-.06-.05-.1-.1-.16-.15l-.06-.06s-.06-.06-.09-.1c-.02-.03-.06-.08-.1-.13-.08-.12-.11-.17-.14-.22-.07-.11-.12-.24-.16-.36-.09-.24-.15-.51-.2-.86-.03-.25-.05-.51-.06-.77,0-.29,0-.58.04-.87.02-.2.05-.39.08-.58l.12-.64c.06-.3.1-.52.12-.72.03-.23.04-.45.04-.7,0-.14,0-.27-.02-.39-.07-.55-.26-1.13-.44-1.62-.02-.05-.04-.09-.05-.14l-.1-.25c-.07-.19-.15-.38-.22-.58-.18-.47-.29-.89-.36-1.28-.08-.54-.09-1.09-.03-1.62.04-.34.11-.69.19-1.05.05-.23.09-.38.12-.54.08-.37.13-.71.18-1.09.06-.47.14-1.02.29-1.58.05-.18.1-.36.16-.54l.2-.66c.01-.06.03-.15.05-.26,0-.05.02-.12.02-.19.01-.1.02-.21.02-.32,0-.13,0-.25,0-.37,0-.22-.01-.44-.03-.67-.03-.58-.11-1.16-.16-1.54-.06-.44-.13-.87-.19-1.24-.03-.16-.05-.31-.08-.47l-.04-.21c-.06-.32-.11-.63-.16-.96-.17-1.1-.24-2.4-.3-3.63-.05-.96-.09-1.94-.13-2.93l-.04-.79c-.05-.95-.09-1.94-.07-2.91.02-.78.11-1.54.2-2.28l.04-.39c.08-.69.15-1.4.2-2.1.03-.51.05-1.02.06-1.52,0-.37,0-.72-.02-1.06-.02-.26-.03-.53-.05-.81l-.02-.27c-.06-.8-.13-1.62-.12-2.46,0-.39.02-.78.04-1.16l.06-1.55c.03-.73.06-1.48.11-2.22.03-.4.06-.8.09-1.2l.06-.8c.03-.47.05-.92.07-1.37l.03-.75c.01-.25.03-.51.07-.77.02-.18.05-.36.08-.54.03-.19.07-.37.11-.56l.07-.36c.05-.23.09-.45.13-.68v-.1c.04-.15.06-.29.07-.44.02-.18.03-.35.04-.52.02-.38,0-.77,0-1.16-.01-.34-.01-.67,0-1l.04-.31c.23-1.95.55-3.92.95-5.88l.02-.16c.07-.48.1-.95.07-1.42,0-.21-.02-.44-.03-.66l-.08-1.06c-.04-.37-.05-.74-.04-1.07l.02-.31c.05-.8.14-1.58.27-2.33h0s0-.06,0-.08l-.03-.19c0-.05-.01-.1-.02-.15-.02-.1-.02-.17-.04-.23l-.04-.35c-.02-.2-.04-.4-.04-.6,0-.34,0-.71.05-1.17.02-.18.03-.35.05-.53l.08-1.07c0-.2,0-.4-.01-.61-.01-.17-.03-.34-.05-.51-.02-.18-.05-.35-.07-.53-.07-.43-.15-.87-.22-1.26-.06-.3-.12-.6-.17-.89-.12-.61-.21-1.2-.3-1.86-.04-.31-.08-.63-.1-.94l-.07-.85c-.03-.35-.07-.64-.1-.93-.04-.34-.08-.69-.12-1.05-.06-.72-.07-1.44-.07-2.15,0-.28,0-.54,0-.79h-.01v-.34c.11-2.08.06-6.48,0-6.8-.13-.52-.3-1.04-.46-1.55-.19-.6-.35-1.3-.48-2.1l-.13-.78c-.06-.39-.12-.81-.16-1.24-.04-.39-.06-.77-.08-1.15,0-.21-.01-.41-.02-.6v-.15c0-.16-.01-.29-.01-.43,0-.2-.02-.44-.02-.67v-.36c-.01-.11-.01-.22-.01-.32l-.02-.52c0-.19-.01-.32-.02-.46-.01-.15-.03-.33-.04-.5-.05-.55-.12-1.08-.2-1.6-.05-.32-.12-.64-.18-.95l-.14-.71c-.05-.24-.09-.48-.13-.71-.04-.24-.07-.44-.09-.65-.07-.56-.06-1.13.03-1.68,0-.27.03-.51.1-.75.04-.51.04-.99,0-1.46l-.07-1.26c-.05-1.02-.1-2.12-.07-3.22.01-.38.04-.77.06-1.15.02-.28.04-.55.05-.83.02-.39.03-.78.03-1.18,0-.45-.02-.91-.04-1.32-.02-.22-.03-.44-.04-.66,0-.17-.01-.33,0-.49,0-.12,0-.24.02-.37.01-.13.03-.25.05-.37.06-.39.16-.75.24-1.08l.1-.42c.03-.14.06-.28.09-.44l.05-.3c.01-.1.03-.21.04-.32.02-.14.03-.27.04-.4.01-.18.02-.32.03-.45v-.08c0-.25,0-.49-.02-.76-.02-.27-.05-.55-.09-.81l-.06-.41c-.03-.2-.05-.39-.08-.59-.06-.57-.11-1.18-.03-1.79.05-.38.15-.76.25-1.14.06-.21.11-.43.15-.64.02-.15.04-.31.05-.46,0-.14,0-.29,0-.43-.01-.21-.04-.42-.07-.62-.02-.12-.03-.22-.05-.33l-.02-.13c-.01-.09-.03-.18-.03-.27-.02-.21-.03-.42-.03-.62,0-.69.1-1.32.21-2,.03-.19.05-.32.07-.45.02-.16.04-.32.06-.48.01-.13.03-.26.03-.39,0-.09,0-.16,0-.24,0-.1,0-.2,0-.3,0-.12-.01-.17-.02-.23-.01-.13-.03-.24-.05-.36l-.06-.31.29-.18-.3.09-.21-.57c-.12-.3-.25-.58-.37-.84-.05-.1-.11-.22-.16-.35-.04-.08-.09-.2-.14-.32l-.02-.06c-.07-.11-.14-.22-.21-.34l-.11-.17c-.33-.54-.66-1.1-.98-1.68-.12-.23-.25-.46-.37-.7l-.23-.44c-.27-.52-.56-1.03-.84-1.53-.3-.52-.59-1.05-.88-1.58-.48-.87-.92-1.75-1.28-2.51-.32-.64-.62-1.28-.93-1.92-.26-.54-.51-1.07-.77-1.6l-.51-1.05c-.29-.59-.57-1.17-.84-1.73-.2-.41-.38-.81-.56-1.24-.22-.55-.37-1.03-.46-1.48-.09-.47-.11-.96-.11-1.33v-.29c0-.5,0-.97-.05-1.44-.07-.82-.21-1.65-.35-2.46l-.03-.19c-.16-.94-.36-2.18-.42-3.46-.07-1.41-.11-2.83-.15-4.24l-.02-.74c0-.44-.02-.88-.04-1.33-.02-.29-.04-.57-.08-.85-.03-.19-.07-.38-.11-.57l-.1-.38c-.03-.09-.04-.12-.05-.15l-.04-.1c-.04-.09-.06-.13-.08-.17-.05-.11-.1-.19-.14-.27-.07-.13-.14-.25-.21-.35-.06-.1-.1-.18-.14-.23l-.14-.23c-.09-.16-.16-.27-.22-.4-.08-.17-.14-.34-.18-.5-.04-.14-.06-.25-.08-.41-.02-.14-.04-.33-.04-.53,0-.07,0-.15,0-.23l.03-.32s0-.05,0-.07c0-.05,0-.1.02-.14v-.12c.03-.16.05-.34.07-.49l.08-.59c.06-.53.1-.97.13-1.48.03-.39.06-.76.08-1.12l.06-.95c.1-3.56.36-7.15.78-10.66l.05-.28c.18-1.56.46-3.09.81-4.57v-.27c.06-1.09.3-2.12.48-2.81.12-.48.27-1,.48-1.62.14-.45.27-.83.35-1.15.05-.2.09-.4.13-.58h.33s-.31-.08-.31-.08c.02-.07.03-.15.05-.23.02-.09.05-.21.1-.34.04-.12.1-.26.17-.39.08-.14.17-.28.27-.41.17-.2.36-.39.64-.6.17-.13.35-.26.55-.39.12-.09.26-.18.4-.26.3-.18.58-.35.86-.5.85-.48,1.71-.9,2.62-1.34l.68-.33c.72-.35,1.54-.76,2.27-1.24.51-.33.94-.58,1.33-.76.34-.16.67-.28.99-.41l.22-.08c.46-.18.81-.34,1.19-.54.27-.15.54-.31.8-.48l.3-.19c.37-.24.76-.49,1.15-.71l.25-.15c.11-.06.22-.13.33-.2.47-.28.86-.55,1.24-.85l.11-.09c.21-.17.43-.36.67-.52.13-.09.27-.18.42-.26.14-.07.28-.13.41-.18.17-.06.33-.1.5-.13.17-.04.38-.07.58-.1.16-.02.3-.05.45-.07.29-.05.58-.14.85-.27.14-.07.28-.14.42-.23.25-.15.52-.34.78-.55.33-.27.63-.55.89-.84.29-.3.53-.6.75-.92.24-.35.46-.74.66-1.12.08-.17.17-.34.24-.52.15-.35.27-.68.37-.99.04-.16.09-.33.12-.5.05-.25.07-.45.07-.62,0-.47-.08-.91-.16-1.34-.07-.38-.13-.7-.17-1.02-.03-.25-.06-.51-.08-.76-.04-.38-.07-.73-.1-1.09-.07-.77-.17-1.56-.31-2.35-.03-.15-.06-.29-.11-.43l-.04-.1s0,0,0-.01l-.04-.08s0,0,0-.01h-.12v-.24c-.38-.71-.71-1.42-1-2.11l-.18-.44v-.02s-.07-.2-.07-.2c-.06-.14-.11-.3-.16-.44-.05-.15-.1-.31-.14-.47-.05-.19-.1-.38-.14-.58-.05-.26-.1-.51-.14-.76-.03-.18-.06-.39-.08-.59l-.1-.81c0-.09-.02-.18-.03-.28l-.02-.19s-.03-.16-.05-.28c-.11-.69-.22-1.39-.33-2.09-.1-.51-.16-.98-.18-1.44-.01-.3,0-.64.02-.99.02-.3.05-.6.1-.91.09-.58.27-1.2.51-1.77.47-1.12,1.03-2.18,1.73-3.23.07-.11.15-.23.23-.34.06-.16.17-.37.28-.57.14-.24.29-.49.47-.74.16-.21.34-.43.53-.63.21-.23.44-.44.67-.65.39-.34.75-.62,1.08-.84.22-.14.43-.27.67-.39.17-.09.37-.18.56-.25.29-.11.6-.2.88-.28.31-.09.62-.18.94-.28.32-.1.63-.19.95-.28.87-.26,1.75-.46,2.61-.6.62-.13,1.27-.2,1.9-.2.1,0,.21,0,.31,0,.37.02.71.05,1.03.11.35.06.74.15,1.16.28.33.1.65.21.98.34.15.06.3.12.45.18l.35.15c.19.08.38.16.57.25l.56.25c.16.07.31.14.43.2l.94.45c.22.11.45.21.67.3l.19.08c.92.39,1.78.89,2.57,1.5.51.42,1,.87,1.46,1.36.57.61,1.07,1.26,1.48,1.94l.31.5-.22.24.27-.17c.04.07.09.15.13.23.32.59.59,1.19.8,1.78.13.37.22.69.28,1,.07.35.09.73.08,1.11-.01.27-.04.52-.09.77-.04.21-.09.41-.16.61-.05.16-.12.34-.2.5-.07.15-.16.3-.25.46l-.38.67c-.07.15-.12.27-.16.41-.05.15-.09.31-.11.47-.02.16-.04.31-.04.47,0,.22,0,.43,0,.65,0,.13,0,.26,0,.39,0,.19,0,.39-.02.59-.01.12-.03.23-.05.35l-.02.13c-.04.21-.1.4-.16.57-.05.15-.1.28-.14.39l-.14.34c-.02.05-.04.12-.06.18l-.05.16c-.03.1-.06.23-.08.36v.09c-.03.1-.05.21-.06.32v.09c-.02.14-.04.29-.04.44,0,.12-.01.24-.01.36,0,.24,0,.48,0,.71,0,.19,0,.4,0,.59,0,.47-.02.85-.05,1.19-.03.35-.08.69-.15,1.02-.04.2-.08.4-.12.61-.06.25-.12.48-.18.71-.07.28-.14.54-.2.81-.06.27-.12.55-.17.84l-.05.25c-.08.42-.18.88-.3,1.33-.15.53-.33,1.05-.55,1.55-.15.35-.31.7-.47,1.04l-.19.4c-.13.28-.26.55-.4.82-.17.37-.36.74-.57,1.1-.18.31-.38.59-.58.81-.2.22-.42.41-.68.58-.04.02-.08.05-.12.07-.26.15-.55.26-.88.35v.02l-.26.05c-.45.08-.91.13-1.37.15-.05.37-.1.71-.14,1.05-.02.19-.05.39-.08.58l-.05.39c-.06.46-.12.9-.16,1.3,0,.09-.01.18-.02.26.04.01.11.05.18.08.11.05.24.11.38.18.09.04.19.1.29.15l.08.04c.17.1.35.2.51.3l.56.34c.18.11.34.21.54.34.18.12.36.24.53.36.31.23.6.44.94.65.24.15.51.3.79.44.3.16.6.32.89.45.46.21.97.41,1.49.61l.53.2c.53.21,1.07.41,1.6.6.62.23,1.25.46,1.86.71.69.28,1.4.63,2.12,1.04.66.38,1.18.71,1.65,1.04.47.33.94.74,1.41,1.22.26.26.49.51.72.75.27.3.52.58.75.86.23.29.48.62.7,1.01.21.38.39.81.53,1.27.1.32.17.65.24.98l.05.22c.09.4.19.8.3,1.21.21.78.48,1.57.73,2.34.18.54.36,1.07.52,1.61.14.47.28.93.41,1.4.37,1.24.66,2.56.88,3.92.11.69.25,1.35.4,1.98.08.36.17.71.26,1.07.05.21.09.41.14.61.06.27.12.54.18.8.06.25.14.51.21.77l.17.61c.1.36.19.72.27,1.08.06.24.12.49.18.75l.07.31c.11.49.22.98.34,1.46.32,1.4.6,2.56.94,3.75.12.41.24.84.34,1.26.06.27.12.53.14.8.02.16.01.34-.02.52-.02.15-.07.29-.14.43-.05.1-.11.2-.17.29-.04.05-.07.09-.11.12l-.06.07c-.09.08-.17.15-.27.21-.11.07-.22.13-.34.18-.16.06-.31.11-.47.14l-.13.02s-.02,0-.02,0c0,0,.03,0,.06-.02-.42.11-.77.21-1.12.31l-.51.14c-.31.08-.65.16-.98.23-.13.03-.26.06-.39.09l-.18.05c-.05.12-.08.25-.09.39-.02.26.03.55.08.86l.02.1c.06.35.11.71.15,1.06.09.71.17,1.39.28,2.06.16,1.05.35,2.09.55,3.11.15.77.33,1.54.51,2.28.21.87.4,1.68.53,2.56.04.26.07.51.11.76l.07.48c.05.38.11.77.16,1.17.12.85.24,1.72.33,2.57.06.62.11,1.26.15,1.89.03.57.07,1.09.11,1.61.06.93.08,1.77.05,2.5-.01.28-.03.55-.04.82-.03.51-.06,1.01-.06,1.51,0,.59-.03,1.19-.06,1.81-.02.4-.05.81-.08,1.22-.03.4-.08.81-.13,1.17l-.03.21c-.01.11-.03.21-.04.31-.03.31-.05.62-.07.96-.01.25-.03.53-.06.8-.04.4-.11.81-.17,1.2-.06.43-.12.87-.17,1.28-.05.41-.07.77-.1,1.18-.04.71-.09,1.4-.16,2.12-.03.3-.06.62-.09.93-.04.42-.09.84-.12,1.23-.04.51-.05,1.13-.03,1.8l.03.58c.01.27.03.53.04.77v.19c.01.38.02.76.02,1.2,0,.44-.03.8-.07,1.12-.07.59-.23,1.19-.36,1.65l-.26.92c-.24.87-.49,1.74-.73,2.62l-.21.75c-.17.6-.34,1.21-.49,1.82l-.04.18c-.29,1.38-.51,2.74-.65,4.04-.15,1.4-.29,2.87-.4,4.37-.16,2.52-.51,5.07-1.03,7.59l-.04.25c-.29,1.38-.59,2.75-.91,4.13l-.08.36c-.08.38-.17.8-.26,1.24-.06.26-.47,3.05-.63,4.26l-.24,1.75c-.08.58-.18,1.74-.18,1.74-1.21,9.28-3.13,18.54-5.72,27.54l.09.02-.07.3c-.03.12-.05.25-.07.37l-.09.66c-.02.13-.03.24-.04.35l-.15,1.66c-.03.3-.07.59-.11.87l-.18.9c-.08.38-.14.74-.17,1.12-.01.2-.02.39-.02.61,0,.28,0,.67-.02,1.05l-.03.39c.34.48.64.95.89,1.42.2.37.37.76.53,1.12.09.22.18.41.27.62l.14.32c.24.54.4,1.01.5,1.44.13.55.19,1.11.25,1.63.08.79.15,1.63.14,2.48,0,.85-.12,1.73-.21,2.43-.09.7-.21,1.52-.38,2.37-.13.67-.3,1.35-.46,2.02l-.27,1.11c-.14.58-.28,1.16-.43,1.75-.12.49-.24.98-.37,1.47l-.42,1.7c-.14.55-.27,1.1-.43,1.65-.12.42-.27.85-.45,1.28-.07.17-.14.34-.22.51-.03.08-.07.16-.1.23-.02.05-.04.09-.06.12h.01s-.02.15-.02.15c-.03.22-.04.4-.05.6-.01.18-.02.36-.02.54,0,.29,0,.54,0,.79.01.65.06,1.33.14,2.01.09.83.21,1.67.33,2.47.12.8.24,1.66.32,2.55.03.29.05.58.07.86.09,1.24.04,2.49,0,3.7-.01.34-.02.68-.03,1.02-.02.62-.05,1.34-.11,2.05-.06.61-.13,1.16-.21,1.66-.06.4-.14.76-.24,1.1-.08.27-.18.54-.29.8-.1.24-.21.48-.34.72-.09.17-.19.34-.29.51-.06.11-.11.19-.16.27l-.07.13c-.03.06-.06.1-.08.14l-.04.07h0s0,.06,0,.08c0,.05.01.1.03.15.01.04.03.08.08.16.06.11.13.22.23.35.09.11.19.23.3.35.08.08.16.17.24.25h.2s0,.13,0,.13c.09.05.16.08.22.12.06.03.14.07.21.12.1.06.21.13.31.21.36.27.72.64,1.08,1.11.18.25.35.51.51.76l.05.08c.16.25.32.5.49.74.15.22.33.52.51.82.19.31.37.63.53.85.21.29.44.59.7.87.13.14.26.26.4.38.08.07.16.13.23.19l.24.17c.12.06.86.34,1.18.38h.1c.36,0,.67,0,.93-.02.22,0,.4-.03.58-.05.12-.01.21-.03.34-.05l.47-.08c.18-.03.37-.05.58-.08.15-.01.3-.02.44-.03.77-.05,1.55.03,2.29.24.12.04.21.07.31.11.23.11.42.23.57.38.13.12.26.26.36.41.11.17.2.36.26.58.09.34.19,1.03.16,1.45-.02.17-.04.34-.08.5-.04.17-.09.3-.15.43-.07.15-.16.29-.27.4-.13.16-.31.27-.42.33-.08.04-.18.08-.26.11-.17.06-.36.08-.52.1-.12.01-.23.02-.34.02,0,0-.05,0-.11,0h-.25c-.07.01-.13.02-.22.02l-.67.03c-.16,0-.26.01-.36.01-.15,0-.28.01-.4.01,0,0-.04,0-.1,0ZM858.67,660.61l.14.31v-.32s.57-.02.57-.02c.06,0,.09,0,.11,0h.25s.1-.01.12-.01h.11c.09,0,.18-.01.28-.02.13-.01.27-.03.39-.07.06-.02.11-.04.16-.07.1-.05.19-.12.25-.19.07-.07.12-.15.16-.25.04-.09.08-.18.11-.31.03-.14.05-.28.07-.41.02-.29-.06-.91-.14-1.23-.04-.15-.1-.28-.17-.4-.07-.1-.16-.2-.25-.29-.11-.11-.25-.19-.4-.27-.07-.03-.15-.06-.24-.09-.66-.18-1.36-.25-2.07-.21-.15,0-.28.02-.42.03-.19.02-.38.05-.55.07l-.47.08c-.14.02-.25.04-.36.05-.19.03-.38.05-.62.06-.27.02-.59.02-.97.02h-.19c-.42-.07-1.31-.4-1.4-.46l-.32-.23c-.1-.08-.19-.15-.27-.22-.16-.13-.31-.27-.45-.42-.29-.3-.53-.62-.76-.93-.17-.23-.37-.57-.56-.9-.17-.29-.34-.58-.49-.78-.18-.25-.34-.51-.5-.76l-.06-.09c-.15-.24-.31-.49-.48-.72-.32-.42-.63-.75-.96-.99-.09-.07-.18-.13-.27-.19-.06-.04-.12-.07-.18-.1-.08-.05-.14-.08-.2-.11l-.15-.05h-.2l-.04-.16v-.05c-.07-.09-.16-.18-.24-.27-.11-.13-.23-.26-.33-.38-.13-.16-.22-.3-.29-.42-.06-.1-.11-.2-.14-.31-.03-.1-.04-.19-.05-.28,0-.06,0-.12,0-.17l.04-.17h0s.4-.7.4-.7c.1-.18.2-.35.29-.51.12-.22.22-.44.31-.66.1-.25.19-.49.26-.74.09-.31.17-.65.23-1.02.08-.48.15-1.02.21-1.61.06-.69.08-1.4.1-2.01,0-.34.02-.68.03-1.02.04-1.19.08-2.42,0-3.63-.02-.28-.05-.57-.07-.85-.08-.88-.2-1.72-.32-2.51-.12-.8-.24-1.65-.33-2.49-.08-.7-.13-1.39-.15-2.06-.01-.26-.01-.52,0-.78,0-.24.01-.43.03-.61.01-.2.03-.4.05-.58l.12-.5c.03-.07.07-.16.11-.25.07-.16.14-.33.21-.49.17-.41.31-.82.43-1.22.16-.54.29-1.08.43-1.62l.42-1.7c.12-.49.25-.98.36-1.46.14-.59.28-1.17.43-1.75l.27-1.11c.16-.66.33-1.33.46-1.99.17-.83.29-1.64.38-2.32.09-.72.2-1.54.2-2.36.01-.82-.06-1.64-.13-2.41-.05-.5-.12-1.04-.24-1.56-.09-.39-.24-.82-.46-1.32l-.14-.31c-.09-.21-.18-.41-.28-.63-.15-.34-.31-.71-.5-1.07-.25-.47-.56-.96-.92-1.44l-.07-.09.04-.61c.02-.37.02-.73.02-1.01,0-.24,0-.44.02-.66.03-.41.09-.8.18-1.2l.17-.86c.04-.27.08-.56.11-.84l.15-1.65c0-.12.02-.24.04-.36l.02-.19c0-.05.01-.1.02-.14,0-.03,0-.08.01-.13l.03-.18c.01-.06.02-.11.03-.16l-.12-.03.09-.31c2.62-9.07,4.57-18.4,5.79-27.75,0,0,.1-1.17.18-1.76l.24-1.75c.14-1.05.56-4,.64-4.32.09-.43.18-.85.26-1.23l.08-.37c.3-1.3.58-2.59.85-3.88l.04-.25c.54-2.57.9-5.18,1.07-7.75.11-1.51.25-2.99.4-4.39.15-1.39.39-2.83.7-4.29l.07-.25c.14-.54.29-1.07.44-1.6l.21-.75c.24-.88.49-1.76.73-2.63l.26-.92c.12-.44.27-1.01.34-1.56.04-.3.06-.63.07-1.05,0-.43,0-.81-.01-1.17v-.19c-.01-.24-.03-.49-.04-.76l-.03-.59c-.02-.69-.01-1.33.03-1.87.03-.4.07-.82.12-1.25.03-.31.07-.62.09-.92.06-.71.12-1.4.16-2.1.03-.42.05-.8.1-1.21.04-.42.11-.87.17-1.31.06-.38.13-.77.17-1.16.03-.26.05-.52.06-.77.02-.36.04-.68.08-.99,0-.1.02-.21.04-.33l.03-.21c.05-.35.09-.75.12-1.14.03-.4.06-.81.08-1.2.03-.61.05-1.2.06-1.79,0-.51.04-1.02.06-1.54.01-.26.03-.53.04-.81.03-.71,0-1.52-.05-2.42-.04-.52-.08-1.05-.11-1.62-.04-.63-.09-1.26-.15-1.87-.09-.84-.21-1.71-.33-2.55-.06-.4-.11-.79-.16-1.17l-.07-.48c-.03-.25-.07-.5-.11-.76-.12-.85-.32-1.65-.52-2.5-.18-.76-.36-1.54-.52-2.31-.21-1.03-.39-2.08-.55-3.14-.11-.68-.19-1.37-.28-2.05-.04-.39-.09-.73-.15-1.07l-.02-.09c-.06-.33-.12-.67-.09-1.02.02-.24.08-.46.18-.67.02-.04.05-.11.12-.17l.13-.08.26-.08c.2-.05.33-.08.46-.11.33-.07.66-.15.96-.22l.5-.14c.35-.1.71-.2,1.07-.29l.11-.02.14.3-.06-.31c.12-.02.23-.06.34-.1.08-.03.16-.07.23-.12.06-.04.12-.09.18-.15l.09-.11s.07-.11.1-.17c.04-.09.07-.18.09-.27.02-.12.03-.25.01-.36-.01-.24-.07-.45-.12-.69-.1-.43-.22-.84-.34-1.25-.35-1.2-.62-2.38-.95-3.78-.12-.48-.23-.97-.34-1.46l-.07-.3c-.06-.25-.12-.5-.18-.74-.09-.36-.17-.71-.27-1.07l-.16-.6c-.07-.26-.15-.53-.21-.79-.07-.27-.13-.55-.19-.82-.04-.2-.09-.4-.13-.6-.09-.36-.17-.71-.26-1.08-.15-.64-.29-1.33-.4-2.03-.21-1.33-.5-2.63-.86-3.85-.13-.46-.27-.93-.41-1.39-.16-.54-.34-1.07-.52-1.6-.26-.77-.52-1.58-.74-2.37-.12-.42-.22-.84-.31-1.24l-.05-.22c-.07-.31-.14-.62-.23-.93-.13-.41-.29-.81-.47-1.14-.19-.33-.39-.61-.64-.92-.22-.27-.46-.54-.69-.8-.25-.27-.47-.51-.73-.77-.44-.45-.88-.84-1.32-1.15-.45-.32-.96-.64-1.6-1.01-.69-.39-1.38-.73-2.04-1-.6-.25-1.22-.47-1.84-.7-.54-.2-1.09-.4-1.62-.61l-.52-.2c-.53-.21-1.06-.41-1.53-.63-.3-.14-.61-.3-.92-.47-.28-.15-.57-.31-.82-.46-.36-.22-.66-.44-.98-.67-.16-.11-.33-.23-.5-.34-.19-.13-.35-.22-.52-.33l-.56-.34c-.16-.09-.32-.19-.49-.29l-.07-.04c-.09-.05-.17-.1-.26-.14-.12-.06-.24-.12-.37-.17-.07-.04-.13-.06-.18-.08l-.15-.06s-.09-.04-.13-.07l-.11-.1v-.15c.01-.2.02-.35.03-.51.03-.41.1-.86.16-1.33l.05-.39c.03-.18.05-.38.07-.56.05-.45.12-.89.18-1.33v-.31l.3.03c.49-.01.99-.06,1.47-.14l.07-.02c.37-.08.68-.2.95-.35l.09-.05c.21-.13.39-.29.55-.47.17-.19.34-.43.5-.7.2-.35.38-.7.55-1.06.13-.27.26-.54.39-.82l.19-.4c.16-.33.32-.67.46-1.02.21-.48.38-.97.52-1.47.12-.44.21-.88.29-1.29l.05-.25c.06-.3.12-.59.18-.86.06-.27.13-.54.2-.83.06-.22.12-.45.17-.69.04-.19.08-.39.12-.59.06-.32.11-.64.14-.97.03-.33.05-.69.05-1.14,0-.19,0-.38,0-.58,0-.24,0-.49,0-.72,0-.12,0-.26.01-.38,0-.16.02-.33.03-.48v-.1c.03-.14.05-.25.06-.36l.02-.1c.03-.15.06-.3.1-.42l.06-.19c.02-.07.05-.15.07-.21l.14-.35c.04-.1.09-.22.13-.35.05-.14.1-.32.14-.5l.33-.04-.31-.05c.02-.1.03-.21.04-.31.01-.17.02-.35.01-.52,0-.13,0-.26,0-.38,0-.23,0-.46,0-.69,0-.18.02-.36.05-.54.03-.2.08-.39.13-.57.05-.16.11-.31.18-.46,0-.01.02-.05.04-.09l.25-.46s.05-.08.08-.12l.04-.07c.08-.13.16-.27.22-.41.07-.14.13-.28.17-.42.06-.18.11-.36.14-.53.04-.22.07-.45.08-.68.01-.33-.01-.67-.07-.97-.05-.28-.14-.57-.26-.91-.2-.56-.46-1.13-.77-1.69-.04-.07-.08-.14-.12-.2l-.05-.09s-.04-.07-.06-.1l-.08-.12.2-.28-.27.17-.1-.15c-.4-.65-.87-1.27-1.41-1.85-.44-.47-.91-.9-1.4-1.3-.79-.61-1.67-1.11-2.61-1.49l-.2-.09c-.17-.07-.33-.15-.49-.23l-.94-.45c-.12-.06-.26-.13-.42-.2l-.56-.25c-.19-.09-.37-.16-.56-.25l-.28-.12c-.2-.09-.35-.15-.5-.21-.31-.12-.62-.23-.93-.32-.39-.12-.76-.21-1.09-.26-.29-.05-.61-.08-.95-.1-.09,0-.18,0-.27,0-.59,0-1.19.07-1.79.19-.85.13-1.7.33-2.54.58-.31.09-.63.19-.94.28-.32.1-.64.19-.95.28-.27.08-.56.16-.84.26-.17.06-.33.14-.49.22-.21.11-.41.22-.6.35-.31.21-.65.47-1.02.79-.22.19-.43.4-.63.61-.18.19-.34.38-.48.57-.17.23-.31.45-.43.67-.1.18-.2.38-.29.58-.11.16-.18.26-.24.37-.68,1.02-1.23,2.04-1.68,3.13-.22.53-.38,1.1-.47,1.63-.05.29-.08.57-.1.85-.02.33-.03.64-.02.92.02.42.07.87.17,1.36.12.71.23,1.41.33,2.1.01.07.02.15.04.22l.02.02v.14s0,0,0,0c0,.04,0,.07,0,.08.02.12.03.22.04.33l.1.78c.03.2.05.39.08.57.04.24.08.48.13.73.04.18.09.36.14.55.04.15.08.28.12.42.05.14.1.28.15.41l.1.24s0,.02.01.04l.03.1s.04.1.07.18l.2.44h-.01c.23.54.49,1.08.78,1.62h.13v.25s.04.08.06.12l.3.64h-.08s.02.1.03.15c.14.81.25,1.62.31,2.39.03.37.06.72.09,1.04.03.3.05.54.08.79.04.31.1.61.16.91.1.53.18,1,.18,1.53,0,.21-.03.45-.08.74-.04.19-.09.38-.14.56-.1.34-.24.7-.39,1.07-.08.19-.17.37-.25.55-.21.42-.45.82-.7,1.2-.23.35-.5.67-.81,1-.28.31-.6.61-.96.9-.29.23-.58.43-.85.6-.16.09-.31.18-.47.26-.32.15-.66.25-1.01.32-.16.03-.31.05-.47.08-.19.03-.38.06-.55.1-.15.03-.29.06-.43.11-.11.04-.22.09-.32.14-.12.06-.24.14-.35.22-.22.15-.43.33-.63.49l-.11.09c-.41.32-.82.61-1.31.9-.11.07-.22.13-.34.2l-.25.15c-.39.22-.76.46-1.12.7l-.3.19c-.27.17-.55.34-.84.5-.41.22-.78.39-1.27.58l-.23.09c-.31.12-.63.24-.95.39-.36.16-.77.4-1.25.71-.76.49-1.6.92-2.34,1.27l-.68.33c-.9.44-1.75.85-2.59,1.32-.27.15-.55.31-.84.49-.13.08-.25.16-.37.24-.19.12-.36.24-.52.37-.24.18-.41.34-.54.5-.08.09-.15.2-.21.31-.06.1-.1.21-.13.3-.04.11-.06.2-.08.28l-.07.3c-.04.19-.08.39-.14.6-.08.33-.21.73-.35,1.18-.21.64-.36,1.14-.48,1.61-.17.65-.4,1.61-.45,2.62h.07l-.09.39c-.37,1.55-.66,3.18-.84,4.82l-.05.28c-.4,3.45-.65,6.98-.74,10.48l-.05.81c-.02.36-.05.74-.08,1.13-.04.52-.08.96-.13,1.43l-.08.68c-.02.15-.04.32-.06.48l-.04.33s0,.02,0,.08v.15c-.02.13-.02.2-.02.26h0c0,.17,0,.31.03.43.02.14.04.23.07.35.03.12.08.26.14.39.05.11.1.2.15.28l.17.28c.04.05.09.14.15.25.07.11.14.23.21.37.05.09.11.2.16.3.02.03.05.1.08.16l.06.16s.03.09.05.14l.13.48c.05.19.08.4.12.61.04.3.07.6.09.91.02.45.03.9.04,1.35l.02.74c.04,1.4.08,2.82.15,4.22.06,1.25.25,2.47.41,3.39l.03.19c.14.82.29,1.66.36,2.51.04.5.05,1,.05,1.49v.29c0,.35.02.8.1,1.22.08.41.22.85.42,1.36.18.42.35.81.55,1.21.26.56.55,1.13.84,1.72l.51,1.05c.26.53.52,1.06.77,1.6.3.63.61,1.27.93,1.91.36.75.8,1.62,1.27,2.48.29.53.58,1.06.88,1.57.29.51.58,1.03.85,1.55l.24.44c.12.23.25.46.37.69.31.57.63,1.12.96,1.65l.41.72c.03.06.06.16.11.24.05.13.1.23.15.33.13.28.26.57.39.88l.05.12c.03.06.05.12.07.17.04.09.05.14.06.2l.14.62c.02.13.04.26.05.39,0,.05.01.12.02.18v.09c0,.1.01.21.01.32,0,.09,0,.18,0,.27,0,.14-.02.28-.03.42-.02.16-.04.33-.06.49-.02.14-.04.26-.06.38v.08c-.12.65-.22,1.26-.22,1.89,0,.18,0,.36.02.56,0,.08.02.16.03.24l.02.12c.02.1.04.21.05.33.04.22.07.45.08.68.01.16.01.33,0,.5-.01.18-.03.36-.06.54-.04.24-.11.48-.17.7-.1.36-.19.72-.23,1.06-.08.54-.03,1.1.03,1.63.02.19.05.38.08.57l.06.41c.04.28.08.58.09.85.02.29.03.55.02.81v.09c0,.15-.01.3-.03.46-.01.17-.03.31-.04.45-.01.11-.03.24-.04.35l-.05.31c-.03.17-.06.33-.09.47l-.11.44c-.08.32-.18.67-.23,1.04-.02.11-.04.22-.05.32s-.01.21-.01.32c0,.16,0,.31,0,.46,0,.21.02.43.04.65.02.43.04.9.04,1.36,0,.4,0,.8-.03,1.2-.01.28-.03.56-.05.84-.02.38-.05.75-.06,1.13-.03,1.08.01,2.16.07,3.17l.07,1.25c.04.52.04,1.05,0,1.57-.06.27-.09.46-.09.65v.14c-.09.5-.1,1.01-.04,1.51.02.2.04.38.08.55.05.28.09.5.14.75l.14.71c.06.32.13.64.18.97.09.53.16,1.08.21,1.64.02.19.03.37.04.52,0,.15.01.28.02.41l.02.6c0,.09,0,.21,0,.32v.36c.01.24.02.47.03.67,0,.15,0,.27,0,.38v.19c0,.19.01.39.02.59.01.36.04.74.07,1.11.04.42.1.83.16,1.21l.13.76c.12.77.28,1.45.46,2.01.17.52.34,1.06.47,1.6.08.33.11,4.7.02,6.71v.26c0,.34,0,.7,0,1.05,0,.73.01,1.45.07,2.14.03.35.07.69.11,1.03.04.3.07.59.1.88l.08.93c.02.3.05.6.09.9.09.65.18,1.23.3,1.82.06.29.12.59.17.89.08.4.15.84.22,1.28.03.19.05.37.08.55.02.18.04.37.05.54.02.22.02.44.01.68l-.08,1.11c-.02.18-.04.34-.05.52-.04.43-.06.78-.05,1.09,0,.18.02.36.04.55l.04.32s.02.12.03.19c.01.08.03.15.03.21l.04.4c-.15.84-.25,1.71-.29,2.6v.17c0,.26,0,.54.03.82l.08,1.07c.01.23.02.47.03.67.02.38,0,.77-.03,1.17h.03l-.06.38c-.43,2.09-.77,4.21-1.01,6.28v.04c-.01.29-.01.58,0,.87.01.42.02.82,0,1.22,0,.18-.02.37-.04.56-.01.15-.04.31-.06.47l-.02.11c-.04.25-.09.48-.14.7l-.07.36c-.04.18-.07.35-.1.54-.03.17-.06.34-.08.51-.03.24-.05.49-.06.71l-.03.75c-.02.45-.04.9-.07,1.39l-.06.81c-.03.4-.06.8-.09,1.19-.05.74-.08,1.48-.11,2.2l-.07,1.56c-.02.37-.04.76-.04,1.14,0,.81.06,1.62.12,2.4l.02.27c.02.28.04.55.05.82.02.35.03.72.02,1.1,0,.5-.03,1.03-.06,1.55-.05.72-.12,1.44-.2,2.14l-.04.39c-.09.73-.17,1.48-.2,2.23-.03.95.02,1.92.07,2.86l.04.79c.04,1,.08,1.98.13,2.94.06,1.22.13,2.5.29,3.57.05.32.1.63.16.94l.04.2c.03.16.06.32.08.48.06.37.13.81.2,1.26.05.39.13.98.17,1.59.02.24.03.48.03.71,0,.14,0,.27,0,.39,0,.13-.01.26-.02.36,0,.08-.02.17-.03.25-.02.14-.05.24-.06.31,0,.03-.02.08-.04.14l-.17.56c-.05.17-.1.34-.15.51-.14.53-.21,1.05-.27,1.5-.05.39-.1.76-.18,1.14-.03.16-.07.32-.11.49-.09.41-.16.73-.2,1.05-.05.48-.04.97.03,1.45.06.35.16.73.33,1.16.07.2.14.39.21.57l.11.29-.26.21.29-.12c.21.55.41,1.17.49,1.79.02.14.03.3.03.46,0,.28,0,.52-.04.78-.02.21-.07.45-.12.69l-.13.7c-.03.18-.06.36-.08.54-.02.26-.04.52-.03.79,0,.24.02.47.05.7.04.3.09.54.17.73.03.09.07.18.12.26.02.04.05.08.07.13.05.07.08.11.1.13l.07.08c.08.08.12.12.16.16.03.03.08.06.12.1.05.04.11.07.17.11.1.06.21.11.32.15.17.06.35.1.54.13h.08c.05.01.1.02.14.03.06,0,.1,0,.13.01h.02s.03,0,.04,0h.09s.02,0,.03,0l.34.02c.07,0,.13,0,.17,0h.59s3.83-.04,3.83-.04c.06,0,4.64.09,5.62.05.3,0,.56-.01.81-.02.48,0,.94-.01,1.51-.06.12,0,.21-.01.3-.02.11-.01.22-.02.37-.07.05-.02.13-.04.21-.09.05-.03.11-.08.15-.12.07-.06.21-.26.24-.33.03-.05.11-.21.13-.26l.02-.06s.02-.08.03-.1v-.1c0-.11,0-.16,0-.22v-.12c-.06-.28-.19-.61-.37-.89-.08-.13-.17-.24-.26-.34-.09-.1-.19-.19-.3-.27l-.19-.15c-.3-.34-.61-.75-.91-1.14l-.28-.36h-.16v-.24c-.14-.24-.27-.49-.38-.74-.13-.35-.56-1.97-.46-2.24.05-.14.12-.28.18-.43.12-.27.22-.49.33-.72.12-.25.25-.5.37-.75l.12-.23c.16-.32.32-.62.46-.93.15-.31.32-.68.43-1.06.07-.21.12-.43.17-.72.03-.24.05-.49.06-.73.02-.28.02-.56.03-.85,0-.22.01-.44.02-.66.01-.35.03-.71.07-1.06.06-.54.15-1.09.24-1.64l.34-1.75c.09-.42.16-.82.23-1.22.11-.69.2-1.44.28-2.27.09-1.06.12-1.98.1-2.81-.02-.98-.11-1.97-.21-2.82-.17-1.55-.34-3.2-.41-4.83-.07-1.43-.15-2.87-.24-4.3-.11-1.69-.22-3.38-.28-5.05-.02-.5-.03-.99-.02-1.48.02-.72.07-1.49.15-2.25.04-.35.08-.7.13-1.04.07-.48.15-.9.24-1.34l.04-.18c.07-.36.12-.72.18-1.07l.04-.25c.05-.32.09-.56.13-.78l.1-.64c.04-.19.05-.29.08-.39l.15-.61c.02-.11.04-.21.06-.33.03-.15.05-.34.07-.52.01-.1.02-.2.03-.29l.07-.85c.02-.36.05-.73.09-1.09h-.03l.06-.37c.09-.51.13-1.03.12-1.53,0-.05,0-.1.02-.16,0,0,0,0,0,0,0,0,0-.05,0-.11l.05-.44c.02-.18.03-.37.05-.57.02-.27.03-.56.02-.84-.01-.47-.05-.95-.09-1.42-.03-.27-.05-.55-.07-.82-.05-.56-.07-1.06-.07-1.53.01-.71.05-1.41.13-2.11l.02-.15c.05-.52.11-1,.12-1.5,0-.35,0-.7-.02-1.04v-.11c-.03-.35-.04-.67-.06-1v-.25c-.02-.33-.03-.63-.03-.93-.02-1.93.03-3.91.14-5.89.02-.37.04-.73.07-1.11l.12-1.15c.04-.38.08-.76.13-1.13.08-.65.18-1.25.27-1.83l.17-1.07c.05-.32.1-.64.15-.96.07-.48.15-.97.25-1.44.06-.31.13-.62.2-.93l.06-.25c.06-.29.11-.59.17-.87.04-.2.07-.38.1-.56.05-.32.12-.68.2-1.04l.3-1.48c.1-.52.21-1.05.36-1.57.09-.33.2-.65.31-.98.09-.27.18-.53.26-.8.18-.58.33-1.22.46-1.96l.02-.14c.16-.93.32-1.89.55-2.8.08-.34.18-.69.28-1.03.07-.25.14-.49.2-.75.1-.4.18-.79.24-1.14.04-.29.08-.57.12-.86l.06-.44c.03-.23.06-.46.1-.68.02-.14.04-.27.07-.41.04-.2.08-.38.12-.55.03-.1.04-.15.06-.2l.42-1.02.19,1.09c.06.34.11.69.16,1.03.03.21.04.4.05.61,0,.13.02.28.02.44,0,.14,0,.28,0,.42,0,.09,0,.2,0,.31,0,.16-.01.33-.02.49,0,.15-.02.31-.03.45,0,.08-.01.16-.02.24l-.08.58c-.03.19-.05.35-.07.51,0,.07-.01.12-.02.17l-.02.44c0,.09-.01.17-.02.27v.12c-.02.16-.04.36-.05.56-.01.3,0,.58.02.83.03.33.08.66.13.98.1.57.24,1.16.44,1.82.1.34.2.67.28,1.02.06.25.11.51.15.77l.07.43c.02.17.04.32.06.46l.07.78c0,.05,0,.11,0,.19v.19s-.05.83-.05.83c-.01.16-.03.33-.04.49-.02.18-.04.37-.06.55-.05.37-.1.75-.15,1.12-.1.72-.18,1.45-.25,2.18-.04.43-.09.85-.13,1.27l-.09.77c-.05.42-.09.84-.15,1.26-.06.45-.14.9-.22,1.34-.06.32-.13.64-.18.94-.06.31-.11.62-.14.91l-.02.16c0,.09-.02.18-.03.26,0,.06-.01.14-.02.23l-.02.19c-.01.21-.03.44-.04.67,0,.14-.01.28-.01.43,0,.2,0,.4,0,.59,0,.16.01.32.02.47l.09,1.36c.03.33.05.68.09,1.03.04.29.08.6.12.91.03.21.05.41.07.61.01.21.02.41.02.59,0,.21,0,.38-.02.55v.18c-.02.17-.03.36-.03.55,0,.28,0,.57.04.85.05.4.11.78.17,1.12l.02.12c.03.22.06.41.08.61.02.14.03.31.04.49,0,.14.01.3.01.46,0,.11,0,.23,0,.35,0,.14-.02.29-.03.43,0,.13-.03.28-.05.42-.02.19-.05.34-.07.5-.03.22-.07.44-.09.65-.02.14-.03.28-.04.43l-.09,1.15c-.02.17-.03.31-.05.46-.02.14-.05.28-.08.45l-.13.74c-.03.19-.06.38-.1.58-.06.33-.12.66-.18,1-.07.36-.14.71-.2,1.06-.12.73-.21,1.47-.28,2.29-.03.39-.07.78-.11,1.18-.04.41-.08.81-.11,1.22-.04.45-.06.91-.08,1.35v.4c-.03.42-.04.83-.08,1.23-.03.45-.09.96-.18,1.55l-.07.46c-.08.49-.16,1-.19,1.49-.02.43-.02.88-.01,1.32v.15c0,.39,0,.79-.01,1.17-.02.41-.05.82-.08,1.24l-.02.33c-.04.54-.07,1.11-.09,1.64-.03.48-.06.97-.1,1.45-.02.29-.05.6-.07.9l-.14,1.67c-.05.45-.09.91-.12,1.38-.04.77-.02,1.54,0,2.28l.02.55c.03,1.03.05,2.09-.02,3.19-.05.64-.12,1.29-.18,1.91v.08c-.08.65-.15,1.25-.23,1.81-.07.49-.16,1.01-.26,1.53-.09.48-.17.97-.25,1.45l-.16.98c-.14.85-.28,1.71-.39,2.6-.05.38-.08.75-.12,1.12-.04.38-.08.75-.12,1.13-.05.61-.09,1.26-.11,2.04,0,.23,0,.46,0,.69,0,.52.05,1.06.14,1.61l.05.27c.03.16.07.34.12.51.05.2.12.39.19.58.05.14.1.27.16.4l.13.32c.04.09.06.14.08.19.03.06.06.15.08.23.03.08.07.18.1.29.08.25.14.51.18.8.03.14.04.29.06.45.22,1.59.22,3.22,0,4.84-.04.44-.06.84-.06,1.2,0,.2,0,.4,0,.61.02.29.04.6.09.9.02.14.05.27.09.41.05.18.11.31.19.41.03.04.07.08.12.12.05.04.13.09.2.12.09.04.19.07.27.09l.22.04s.08.02.12.03l.12.02h.32v.03c.29.02.58.03.89.03h1.78s1.43.01,3.49.03c6.23.04,19.21.12,19.46.12.12,0,.24,0,.37,0,.13,0,.23,0,.34,0ZM846.58,648.07h.03-.05s.02,0,.02,0ZM847.8,625.93l-.16.02.28.05-.12-.06Z"/>
  <g>
    <path class="cls-1" d="M1000.53,668.71h-283.83c-.14,0-.26-.12-.26-.26v-7.62c0-.14.12-.26.26-.26h283.83c.14,0,.26.12.26.26v7.62c0,.14-.12.26-.26.26ZM716.96,668.2h283.31v-7.1h-283.31v7.1Z"/>
    <g>
      <path class="cls-1" d="M710.99,659.19c-.14,0-.27-.12-.27-.26s.11-.26.25-.26h.02c.14,0,.26.12.26.26s-.12.26-.26.26Z"/>
      <path class="cls-1" d="M710.97,661.09c-.14,0-.26-.12-.26-.26v-1.91c0-.14.12-.26.26-.26s.26.12.26.26v1.91c0,.14-.12.26-.26.26Z"/>
      <path class="cls-1" d="M710.97,366.3c-.14,0-.26-.12-.26-.26,0-.07.01-.14.03-.2.04-.14.19-.21.33-.17.14.04.21.19.16.33,0,0,0,.02,0,.04,0,.14-.12.26-.26.26Z"/>
      <path class="cls-1" d="M710.97,366.3c-.14,0-.26-.12-.26-.26s.12-.26.26-.26.26.11.26.26h0c0,.15-.12.26-.26.26Z"/>
      <path class="cls-1" d="M710.97,367.83c-.14,0-.26-.12-.26-.26v-1.52c0-.14.12-.26.26-.26s.26.12.26.26v1.52c0,.14-.12.26-.26.26Z"/>
      <path class="cls-1" d="M710.98,367.9c-.1,0-.19-.05-.23-.15-.02-.05-.04-.1-.04-.17,0-.14.12-.26.26-.26s.25.11.26.24c.04.13-.03.28-.16.32-.03.01-.06.02-.1.02ZM711.23,367.57h0,0Z"/>
      <path class="cls-1" d="M710.97,369.53c-.14,0-.26-.12-.26-.27,0-.08.02-.14.04-.18.05-.13.21-.19.34-.14.13.05.2.2.14.34l-.24-.1.24.1c0,.14-.11.25-.26.25Z"/>
      <path class="cls-1" d="M710.97,373.54c-.14,0-.26-.12-.26-.26v-4.02c0-.14.12-.26.26-.26s.26.12.26.26v4.02c0,.14-.12.26-.26.26Z"/>
      <path class="cls-1" d="M710.99,373.63c-.09,0-.19-.05-.23-.14-.03-.06-.04-.13-.04-.2,0-.14.12-.26.26-.26s.25.11.26.25c.05.12,0,.27-.12.33-.04.02-.08.03-.12.03ZM711.23,373.29h0,0Z"/>
      <path class="cls-1" d="M710.97,375.24c-.14,0-.26-.12-.26-.26,0-.07.02-.14.04-.2.06-.13.22-.18.35-.12.12.06.17.2.12.33,0,.14-.12.25-.26.25Z"/>
      <path class="cls-1" d="M710.97,376.76c-.14,0-.26-.12-.26-.26v-1.52c0-.14.12-.26.26-.26s.26.12.26.26v1.52c0,.14-.12.26-.26.26Z"/>
      <path class="cls-1" d="M710.97,376.77c-.14,0-.26-.12-.26-.26s.12-.26.26-.26.26.11.26.25h0c0,.15-.12.27-.26.27Z"/>
      <path class="cls-1" d="M710.99,376.89c-.11,0-.22-.07-.25-.19-.02-.07-.03-.12-.03-.19,0-.14.12-.26.26-.26s.26.12.26.26c0,.01,0,.02,0,.05.04.14-.04.28-.18.32-.02,0-.05.01-.07.01Z"/>
      <path class="cls-1" d="M520.78,672.42c-.14,0-.26-.12-.26-.26v-.24c0-.14.12-.26.26-.26s.26.12.26.26v.24c0,.14-.12.26-.26.26Z"/>
      <path class="cls-1" d="M520.78,672.18c-.14,0-.26-.12-.26-.26v-.31c0-.14.12-.26.26-.26s.26.12.26.26v.31c0,.14-.12.26-.26.26Z"/>
      <path class="cls-1" d="M520.78,671.88c-.14,0-.26-.12-.26-.26v-.61c0-.14.12-.26.26-.26s.26.12.26.26v.61c0,.14-.12.26-.26.26Z"/>
      <path class="cls-1" d="M520.78,671.27c-.14,0-.26-.12-.26-.26v-.31c0-.14.12-.26.26-.26s.26.12.26.26v.31c0,.14-.12.26-.26.26Z"/>
      <path class="cls-1" d="M520.78,670.96c-.14,0-.26-.12-.26-.26v-.24c0-.14.12-.26.26-.26s.26.12.26.26v.24c0,.14-.12.26-.26.26Z"/>
      <path class="cls-1" d="M520.78,670.72c-.14,0-.26-.12-.26-.26v-1.54c0-.14.12-.26.26-.26s.26.12.26.26v1.54c0,.14-.12.26-.26.26Z"/>
      <path class="cls-1" d="M520.78,669.19c-.14,0-.26-.12-.26-.26v-.48c0-.14.12-.26.26-.26s.26.12.26.26v.48c0,.14-.12.26-.26.26Z"/>
      <path class="cls-1" d="M520.78,680.14c-.14,0-.26-.12-.26-.26v-2.01c0-.14.12-.26.26-.26s.26.12.26.26v2.01c0,.14-.12.26-.26.26Z"/>
      <path class="cls-1" d="M520.78,678.13c-.14,0-.26-.12-.26-.26v-.24c0-.14.12-.26.26-.26s.26.12.26.26v.24c0,.14-.12.26-.26.26Z"/>
      <path class="cls-1" d="M520.78,677.9c-.14,0-.26-.12-.26-.26v-.31c0-.14.12-.26.26-.26s.26.12.26.26v.31c0,.14-.12.26-.26.26Z"/>
      <path class="cls-1" d="M520.78,677.59c-.14,0-.26-.12-.26-.26v-.61c0-.14.12-.26.26-.26s.26.12.26.26v.61c0,.14-.12.26-.26.26Z"/>
      <path class="cls-1" d="M520.78,676.98c-.14,0-.26-.12-.26-.26v-.31c0-.14.12-.26.26-.26s.26.12.26.26v.31c0,.14-.12.26-.26.26Z"/>
      <path class="cls-1" d="M520.78,676.68c-.14,0-.26-.12-.26-.26v-.24c0-.14.12-.26.26-.26s.26.12.26.26v.24c0,.14-.12.26-.26.26Z"/>
      <path class="cls-1" d="M520.78,676.44c-.14,0-.26-.12-.26-.26v-4.02c0-.14.12-.26.26-.26s.26.12.26.26v4.02c0,.14-.12.26-.26.26Z"/>
      <path class="cls-1" d="M710.97,668.71h-3.81c-.14,0-.26-.12-.26-.26s.12-.26.26-.26h3.81c.14,0,.26.12.26.26s-.12.26-.26.26Z"/>
      <path class="cls-1" d="M521.25,680.14h-.48c-.14,0-.26-.12-.26-.26s.12-.26.26-.26h.48c.14,0,.26.12.26.26s-.12.26-.26.26Z"/>
      <path class="cls-1" d="M710.99,680.14h-177.74c-.14,0-.26-.12-.26-.26s.12-.26.26-.26h177.74c.14,0,.26.12.26.26s-.12.26-.26.26Z"/>
      <path class="cls-1" d="M724.69,680.14h-1.22c-.14,0-.26-.12-.26-.26s.12-.26.26-.26h1.22c.14,0,.26.12.26.26s-.12.26-.26.26Z"/>
      <path class="cls-1" d="M710.99,680.14c-.14,0-.26-.12-.26-.26v-.14c0-.14.12-.26.26-.26s.26.12.26.26v.14c0,.14-.12.26-.26.26Z"/>
      <path class="cls-1" d="M710.99,680.01c-.14,0-.26-.12-.26-.26v-.35c0-.14.12-.26.26-.26s.26.12.26.26v.35c0,.14-.12.26-.26.26Z"/>
      <path class="cls-1" d="M710.99,679.65c-.14,0-.26-.12-.26-.26v-.22c0-.14.12-.26.26-.26s.26.12.26.26v.22c0,.14-.12.26-.26.26Z"/>
      <path class="cls-1" d="M710.99,679.44c-.14,0-.26-.12-.26-.26v-.72c0-.14.12-.26.26-.26s.26.12.26.26v.72c0,.14-.12.26-.26.26Z"/>
      <path class="cls-1" d="M710.99,678.71c-.14,0-.26-.12-.26-.26v-.23c0-.14.12-.26.26-.26s.26.12.26.26v.23c0,.14-.12.26-.26.26Z"/>
      <path class="cls-1" d="M710.99,678.48c-.14,0-.26-.12-.26-.26v-.36c0-.14.12-.26.26-.26s.26.12.26.26v.36c0,.14-.12.26-.26.26Z"/>
      <path class="cls-1" d="M710.99,678.13c-.14,0-.26-.12-.26-.26v-.24c0-.14.12-.26.26-.26s.26.12.26.26v.24c0,.14-.12.26-.26.26Z"/>
      <path class="cls-1" d="M710.99,677.89c-.14,0-.26-.12-.26-.26v-.33c0-.14.12-.26.26-.26s.26.12.26.26v.33c0,.14-.12.26-.26.26Z"/>
      <path class="cls-1" d="M710.99,677.56c-.14,0-.26-.12-.26-.26v-.55c0-.14.12-.26.26-.26s.26.12.26.26v.55c0,.14-.12.26-.26.26Z"/>
      <path class="cls-1" d="M710.99,677.01c-.14,0-.26-.12-.26-.26v-.33c0-.14.12-.26.26-.26s.26.12.26.26v.33c0,.14-.12.26-.26.26Z"/>
      <path class="cls-1" d="M710.99,676.68c-.14,0-.26-.12-.26-.26v-.24c0-.14.12-.26.26-.26s.26.12.26.26v.24c0,.14-.12.26-.26.26Z"/>
      <path class="cls-1" d="M710.99,676.45c-.14,0-.26-.12-.26-.26v-4.04c0-.14.12-.26.26-.26s.26.12.26.26v4.04c0,.14-.12.26-.26.26Z"/>
      <path class="cls-1" d="M710.99,672.41c-.14,0-.26-.12-.26-.26v-.24c0-.14.12-.26.26-.26s.26.12.26.26v.24c0,.14-.12.26-.26.26Z"/>
      <path class="cls-1" d="M710.99,672.17c-.14,0-.26-.12-.26-.26v-.32c0-.14.12-.26.26-.26s.26.12.26.26v.32c0,.14-.12.26-.26.26Z"/>
      <path class="cls-1" d="M710.99,671.85c-.14,0-.26-.12-.26-.26v-.55c0-.14.12-.26.26-.26s.26.12.26.26v.55c0,.14-.12.26-.26.26Z"/>
      <path class="cls-1" d="M710.99,671.3c-.14,0-.26-.12-.26-.26v-.32c0-.14.12-.26.26-.26s.26.12.26.26v.32c0,.14-.12.26-.26.26Z"/>
      <path class="cls-1" d="M710.99,670.97c-.14,0-.26-.12-.26-.26v-.24c0-.14.12-.26.26-.26s.26.12.26.26v.24c0,.14-.12.26-.26.26Z"/>
      <path class="cls-1" d="M710.99,670.74c-.14,0-.26-.12-.26-.26v-.36c0-.14.12-.26.26-.26s.26.12.26.26v.36c0,.14-.12.26-.26.26Z"/>
      <path class="cls-1" d="M710.99,670.38c-.14,0-.26-.12-.26-.26v-.23c0-.14.12-.26.26-.26s.26.12.26.26v.23c0,.14-.12.26-.26.26Z"/>
      <path class="cls-1" d="M710.99,670.15c-.14,0-.26-.12-.26-.26v-.72c0-.14.12-.26.26-.26s.26.12.26.26v.72c0,.14-.12.26-.26.26Z"/>
      <path class="cls-1" d="M710.99,669.42c-.14,0-.26-.12-.26-.26v-.22c0-.14.12-.26.26-.26s.26.12.26.26v.22c0,.14-.12.26-.26.26Z"/>
      <path class="cls-1" d="M710.99,669.2c-.14,0-.26-.12-.26-.26v-.35c0-.14.12-.26.26-.26s.26.12.26.26v.35c0,.14-.12.26-.26.26Z"/>
      <path class="cls-1" d="M710.99,668.85c-.14,0-.26-.12-.26-.26v-.14c0-.14.12-.26.26-.26s.26.12.26.26v.14c0,.14-.12.26-.26.26Z"/>
      <path class="cls-1" d="M1082.46,670.74c-.14,0-.26-.12-.26-.26v-.36c0-.14.12-.26.26-.26s.26.12.26.26v.36c0,.14-.12.26-.26.26Z"/>
      <path class="cls-1" d="M1082.46,670.97c-.14,0-.26-.12-.26-.26v-.24c0-.14.12-.26.26-.26s.26.12.26.26v.24c0,.14-.12.26-.26.26Z"/>
      <path class="cls-1" d="M1082.46,671.3c-.14,0-.26-.12-.26-.26v-.32c0-.14.12-.26.26-.26s.26.12.26.26v.32c0,.14-.12.26-.26.26Z"/>
      <path class="cls-1" d="M1082.46,671.85c-.14,0-.26-.12-.26-.26v-.55c0-.14.12-.26.26-.26s.26.12.26.26v.55c0,.14-.12.26-.26.26Z"/>
      <path class="cls-1" d="M1082.46,672.17c-.14,0-.26-.12-.26-.26v-.32c0-.14.12-.26.26-.26s.26.12.26.26v.32c0,.14-.12.26-.26.26Z"/>
      <path class="cls-1" d="M1082.46,672.41c-.14,0-.26-.12-.26-.26v-.24c0-.14.12-.26.26-.26s.26.12.26.26v.24c0,.14-.12.26-.26.26Z"/>
      <path class="cls-1" d="M1082.46,676.45c-.14,0-.26-.12-.26-.26v-4.04c0-.14.12-.26.26-.26s.26.12.26.26v4.04c0,.14-.12.26-.26.26Z"/>
      <path class="cls-1" d="M1082.46,676.68c-.14,0-.26-.12-.26-.26v-.24c0-.14.12-.26.26-.26s.26.12.26.26v.24c0,.14-.12.26-.26.26Z"/>
      <path class="cls-1" d="M1082.46,677.01c-.14,0-.26-.12-.26-.26v-.33c0-.14.12-.26.26-.26s.26.12.26.26v.33c0,.14-.12.26-.26.26Z"/>
      <path class="cls-1" d="M1082.46,677.56c-.14,0-.26-.12-.26-.26v-.55c0-.14.12-.26.26-.26s.26.12.26.26v.55c0,.14-.12.26-.26.26Z"/>
      <path class="cls-1" d="M1082.46,677.89c-.14,0-.26-.12-.26-.26v-.33c0-.14.12-.26.26-.26s.26.12.26.26v.33c0,.14-.12.26-.26.26Z"/>
      <path class="cls-1" d="M1082.46,678.13c-.14,0-.26-.12-.26-.26v-.24c0-.14.12-.26.26-.26s.26.12.26.26v.24c0,.14-.12.26-.26.26Z"/>
      <path class="cls-1" d="M1082.46,678.48c-.14,0-.26-.12-.26-.26v-.36c0-.14.12-.26.26-.26s.26.12.26.26v.36c0,.14-.12.26-.26.26Z"/>
      <path class="cls-1" d="M1082.46,678.71c-.14,0-.26-.12-.26-.26v-.23c0-.14.12-.26.26-.26s.26.12.26.26v.23c0,.14-.12.26-.26.26Z"/>
      <path class="cls-1" d="M1082.46,679.44c-.14,0-.26-.12-.26-.26v-.72c0-.14.12-.26.26-.26s.26.12.26.26v.72c0,.14-.12.26-.26.26Z"/>
      <path class="cls-1" d="M1082.46,679.65c-.14,0-.26-.12-.26-.26v-.22c0-.14.12-.26.26-.26s.26.12.26.26v.22c0,.14-.12.26-.26.26Z"/>
      <path class="cls-1" d="M1082.46,680.01c-.14,0-.26-.12-.26-.26v-.35c0-.14.12-.26.26-.26s.26.12.26.26v.35c0,.14-.12.26-.26.26Z"/>
      <path class="cls-1" d="M1082.46,680.14c-.14,0-.26-.12-.26-.26v-.14c0-.14.12-.26.26-.26s.26.12.26.26v.14c0,.14-.12.26-.26.26Z"/>
      <path class="cls-1" d="M711.46,680.14h-.47c-.14,0-.26-.12-.26-.26s.12-.26.26-.26h.47c.14,0,.26.12.26.26s-.12.26-.26.26Z"/>
      <path class="cls-1" d="M1082.46,680.14h-.48c-.14,0-.26-.12-.26-.26s.12-.26.26-.26h.48c.14,0,.26.12.26.26s-.12.26-.26.26Z"/>
      <path class="cls-1" d="M1069.99,680.14h-345.3c-.14,0-.26-.12-.26-.26s.12-.26.26-.26h345.3c.14,0,.26.12.26.26s-.12.26-.26.26Z"/>
      <path class="cls-1" d="M714.46,668.71h-1.22c-.14,0-.26-.12-.26-.26s.12-.26.26-.26h1.22c.14,0,.26.12.26.26s-.12.26-.26.26Z"/>
      <path class="cls-1" d="M1076.75,668.71h-360.04c-.14,0-.26-.12-.26-.26s.12-.26.26-.26h360.04c.14,0,.26.12.26.26s-.12.26-.26.26Z"/>
      <path class="cls-1" d="M1080.22,668.71h-1.22c-.14,0-.26-.12-.26-.26s.12-.26.26-.26h1.22c.14,0,.26.12.26.26s-.12.26-.26.26Z"/>
      <path class="cls-1" d="M1082.46,668.85c-.14,0-.26-.12-.26-.26v-.14c0-.14.12-.26.26-.26s.26.12.26.26v.14c0,.14-.12.26-.26.26Z"/>
      <path class="cls-1" d="M1082.46,669.2c-.14,0-.26-.12-.26-.26v-.35c0-.14.12-.26.26-.26s.26.12.26.26v.35c0,.14-.12.26-.26.26Z"/>
      <path class="cls-1" d="M1082.46,669.42c-.14,0-.26-.12-.26-.26v-.22c0-.14.12-.26.26-.26s.26.12.26.26v.22c0,.14-.12.26-.26.26Z"/>
      <path class="cls-1" d="M1082.46,670.15c-.14,0-.26-.12-.26-.26v-.72c0-.14.12-.26.26-.26s.26.12.26.26v.72c0,.14-.12.26-.26.26Z"/>
      <path class="cls-1" d="M1082.46,670.38c-.14,0-.26-.12-.26-.26v-.23c0-.14.12-.26.26-.26s.26.12.26.26v.23c0,.14-.12.26-.26.26Z"/>
      <path class="cls-1" d="M1077.22,295.33h-.48c-.14,0-.26-.12-.26-.26s.12-.26.26-.26h.48c.14,0,.26.12.26.26s-.12.26-.26.26Z"/>
      <path class="cls-1" d="M1078.76,295.33h-1.54c-.14,0-.26-.12-.26-.26s.12-.26.26-.26h1.54c.14,0,.26.12.26.26s-.12.26-.26.26Z"/>
      <path class="cls-1" d="M1078.99,295.33h-.24c-.14,0-.26-.12-.26-.26s.12-.26.26-.26h.24c.14,0,.26.12.26.26s-.12.26-.26.26Z"/>
      <path class="cls-1" d="M1079.3,295.33h-.31c-.14,0-.26-.12-.26-.26s.12-.26.26-.26h.31c.14,0,.26.12.26.26s-.12.26-.26.26Z"/>
      <path class="cls-1" d="M1079.91,295.33h-.61c-.14,0-.26-.12-.26-.26s.12-.26.26-.26h.61c.14,0,.26.12.26.26s-.12.26-.26.26Z"/>
      <path class="cls-1" d="M1080.22,295.33h-.31c-.14,0-.26-.12-.26-.26s.12-.26.26-.26h.31c.14,0,.26.12.26.26s-.12.26-.26.26Z"/>
      <path class="cls-1" d="M1080.45,295.33h-.24c-.14,0-.26-.12-.26-.26s.12-.26.26-.26h.24c.14,0,.26.12.26.26s-.12.26-.26.26Z"/>
      <path class="cls-1" d="M1081.99,295.33h-1.54c-.14,0-.26-.12-.26-.26s.12-.26.26-.26h1.54c.14,0,.26.12.26.26s-.12.26-.26.26Z"/>
      <path class="cls-1" d="M1082.46,295.33h-.48c-.14,0-.26-.12-.26-.26s.12-.26.26-.26h.48c.14,0,.26.12.26.26s-.12.26-.26.26Z"/>
      <path class="cls-1" d="M1082.46,668.71c-.14,0-.26-.12-.26-.26v-373.38c0-.14.12-.26.26-.26s.26.12.26.26v373.38c0,.14-.12.26-.26.26Z"/>
      <path class="cls-1" d="M1082.46,668.71h-.48c-.14,0-.26-.12-.26-.26s.12-.26.26-.26h.48c.14,0,.26.12.26.26s-.12.26-.26.26Z"/>
      <path class="cls-1" d="M1081.99,668.71h-1.54c-.14,0-.26-.12-.26-.26s.12-.26.26-.26h1.54c.14,0,.26.12.26.26s-.12.26-.26.26Z"/>
      <path class="cls-1" d="M1080.45,668.71h-.24c-.14,0-.26-.12-.26-.26s.12-.26.26-.26h.24c.14,0,.26.12.26.26s-.12.26-.26.26Z"/>
      <path class="cls-1" d="M1078.99,668.71h-.24c-.14,0-.26-.12-.26-.26s.12-.26.26-.26h.24c.14,0,.26.12.26.26s-.12.26-.26.26Z"/>
      <path class="cls-1" d="M1078.76,668.71h-1.54c-.14,0-.26-.12-.26-.26s.12-.26.26-.26h1.54c.14,0,.26.12.26.26s-.12.26-.26.26Z"/>
      <path class="cls-1" d="M1076.75,668.71c-.14,0-.26-.12-.26-.26v-297.18c0-.14.12-.26.26-.26s.26.12.26.26v297.18c0,.14-.12.26-.26.26Z"/>
      <path class="cls-1" d="M1076.75,369.29c-.14,0-.26-.12-.26-.26v-1.22c0-.14.12-.26.26-.26s.26.12.26.26v1.22c0,.14-.12.26-.26.26Z"/>
      <path class="cls-1" d="M1076.75,365.82c-.14,0-.26-.12-.26-.26v-70.49c0-.14.12-.26.26-.26s.26.12.26.26v70.49c0,.14-.12.26-.26.26Z"/>
      <path class="cls-1" d="M1077.22,668.71h-.48c-.14,0-.26-.12-.26-.26s.12-.26.26-.26h.48c.14,0,.26.12.26.26s-.12.26-.26.26Z"/>
      <path class="cls-1" d="M711.46,371.53h-.47c-.14,0-.26-.12-.26-.26s.12-.26.26-.26h.47c.14,0,.26.12.26.26s-.12.26-.26.26Z"/>
      <path class="cls-1" d="M713,371.53h-1.54c-.14,0-.26-.12-.26-.26s.12-.26.26-.26h1.54c.14,0,.26.12.26.26s-.12.26-.26.26Z"/>
      <path class="cls-1" d="M713.24,371.53h-.24c-.14,0-.26-.12-.26-.26s.12-.26.26-.26h.24c.14,0,.26.12.26.26s-.12.26-.26.26Z"/>
      <path class="cls-1" d="M714.69,371.53h-.24c-.14,0-.26-.12-.26-.26s.12-.26.26-.26h.24c.14,0,.26.12.26.26s-.12.26-.26.26Z"/>
      <path class="cls-1" d="M716.23,371.53h-1.54c-.14,0-.26-.12-.26-.26s.12-.26.26-.26h1.54c.14,0,.26.12.26.26s-.12.26-.26.26Z"/>
      <path class="cls-1" d="M716.7,371.53h-.48c-.14,0-.26-.12-.26-.26s.12-.26.26-.26h.48c.14,0,.26.12.26.26s-.12.26-.26.26Z"/>
      <path class="cls-1" d="M716.7,668.71c-.14,0-.26-.12-.26-.26v-297.18c0-.14.12-.26.26-.26s.26.12.26.26v297.18c0,.14-.12.26-.26.26Z"/>
      <path class="cls-1" d="M716.7,668.71h-.48c-.14,0-.26-.12-.26-.26s.12-.26.26-.26h.48c.14,0,.26.12.26.26s-.12.26-.26.26Z"/>
      <path class="cls-1" d="M716.23,668.71h-1.54c-.14,0-.26-.12-.26-.26s.12-.26.26-.26h1.54c.14,0,.26.12.26.26s-.12.26-.26.26Z"/>
      <path class="cls-1" d="M714.69,668.71h-.24c-.14,0-.26-.12-.26-.26s.12-.26.26-.26h.24c.14,0,.26.12.26.26s-.12.26-.26.26Z"/>
      <path class="cls-1" d="M713.24,668.71h-.24c-.14,0-.26-.12-.26-.26s.12-.26.26-.26h.24c.14,0,.26.12.26.26s-.12.26-.26.26Z"/>
      <path class="cls-1" d="M713,668.71h-1.54c-.14,0-.26-.12-.26-.26s.12-.26.26-.26h1.54c.14,0,.26.12.26.26s-.12.26-.26.26Z"/>
      <path class="cls-1" d="M711.46,668.71h-.47c-.14,0-.26-.12-.26-.26s.12-.26.26-.26h.47c.14,0,.26.12.26.26s-.12.26-.26.26Z"/>
      <path class="cls-1" d="M710.99,668.71c-.14,0-.26-.12-.26-.26v-297.18c0-.14.12-.26.26-.26s.26.12.26.26v297.18c0,.14-.12.26-.26.26Z"/>
      <path class="cls-1" d="M723.94,680.62c-.14,0-.26-.12-.26-.26,0-.12-.1-.22-.22-.22-.14,0-.26-.12-.26-.26s.12-.26.26-.26c.41,0,.74.33.74.73,0,.14-.12.26-.26.26Z"/>
      <path class="cls-1" d="M710.99,680.62c-.14,0-.26-.12-.26-.26,0-.41.33-.73.73-.73.14,0,.26.12.26.26s-.12.26-.26.26c-.12,0-.21.1-.21.22,0,.14-.12.26-.26.26Z"/>
      <path class="cls-1" d="M723.47,680.14h-12.01c-.14,0-.26-.12-.26-.26s.12-.26.26-.26h12.01c.14,0,.26.12.26.26s-.12.26-.26.26Z"/>
      <path class="cls-1" d="M723.94,699.39c-.14,0-.26-.12-.26-.26v-18.77c0-.14.12-.26.26-.26s.26.12.26.26v18.77c0,.14-.12.26-.26.26Z"/>
      <path class="cls-1" d="M710.99,699.39c-.14,0-.26-.12-.26-.26v-18.77c0-.14.12-.26.26-.26s.26.12.26.26v18.77c0,.14-.12.26-.26.26Z"/>
      <path class="cls-1" d="M723.47,699.86h-12.01c-.14,0-.26-.12-.26-.26s.12-.26.26-.26h12.01c.14,0,.26.12.26.26s-.12.26-.26.26Z"/>
      <path class="cls-1" d="M711.46,699.86c-.4,0-.73-.33-.73-.73,0-.14.12-.26.26-.26s.26.12.26.26c0,.12.09.22.21.22.14,0,.26.12.26.26s-.12.26-.26.26Z"/>
      <path class="cls-1" d="M723.47,699.86c-.14,0-.26-.12-.26-.26s.12-.26.26-.26c.12,0,.22-.1.22-.22,0-.14.12-.26.26-.26s.26.12.26.26c0,.41-.33.73-.74.73Z"/>
      <path class="cls-1" d="M1069.51,680.62c-.14,0-.26-.12-.26-.26,0-.41.33-.73.74-.73.14,0,.26.12.26.26s-.12.26-.26.26c-.12,0-.22.1-.22.22,0,.14-.12.26-.26.26Z"/>
      <path class="cls-1" d="M1082.46,680.62c-.14,0-.26-.12-.26-.26,0-.12-.1-.22-.22-.22-.14,0-.26-.12-.26-.26s.12-.26.26-.26c.41,0,.74.33.74.73,0,.14-.12.26-.26.26Z"/>
      <path class="cls-1" d="M1081.99,680.14h-12c-.14,0-.26-.12-.26-.26s.12-.26.26-.26h12c.14,0,.26.12.26.26s-.12.26-.26.26Z"/>
      <path class="cls-1" d="M1069.51,699.39c-.14,0-.26-.12-.26-.26v-18.77c0-.14.12-.26.26-.26s.26.12.26.26v18.77c0,.14-.12.26-.26.26Z"/>
      <path class="cls-1" d="M1082.46,699.39c-.14,0-.26-.12-.26-.26v-18.77c0-.14.12-.26.26-.26s.26.12.26.26v18.77c0,.14-.12.26-.26.26Z"/>
      <path class="cls-1" d="M1081.99,699.86h-12c-.14,0-.26-.12-.26-.26s.12-.26.26-.26h12c.14,0,.26.12.26.26s-.12.26-.26.26Z"/>
      <path class="cls-1" d="M1081.99,699.86c-.14,0-.26-.12-.26-.26s.12-.26.26-.26c.12,0,.22-.1.22-.22,0-.14.12-.26.26-.26s.26.12.26.26c0,.41-.33.73-.74.73Z"/>
      <path class="cls-1" d="M1069.99,699.86c-.41,0-.74-.33-.74-.73,0-.14.12-.26.26-.26s.26.12.26.26c0,.12.1.22.22.22.14,0,.26.12.26.26s-.12.26-.26.26Z"/>
      <path class="cls-1" d="M533.73,680.62c-.14,0-.26-.12-.26-.26,0-.12-.1-.22-.22-.22-.14,0-.26-.12-.26-.26s.12-.26.26-.26c.41,0,.74.33.74.73,0,.14-.12.26-.26.26Z"/>
      <path class="cls-1" d="M520.78,680.62c-.14,0-.26-.12-.26-.26,0-.41.33-.73.74-.73.14,0,.26.12.26.26s-.12.26-.26.26c-.12,0-.22.1-.22.22,0,.14-.12.26-.26.26Z"/>
      <path class="cls-1" d="M533.25,680.14h-12c-.14,0-.26-.12-.26-.26s.12-.26.26-.26h12c.14,0,.26.12.26.26s-.12.26-.26.26Z"/>
      <path class="cls-1" d="M533.73,699.39c-.14,0-.26-.12-.26-.26v-18.77c0-.14.12-.26.26-.26s.26.12.26.26v18.77c0,.14-.12.26-.26.26Z"/>
      <path class="cls-1" d="M520.78,699.39c-.14,0-.26-.12-.26-.26v-18.77c0-.14.12-.26.26-.26s.26.12.26.26v18.77c0,.14-.12.26-.26.26Z"/>
      <path class="cls-1" d="M533.25,699.86h-12c-.14,0-.26-.12-.26-.26s.12-.26.26-.26h12c.14,0,.26.12.26.26s-.12.26-.26.26Z"/>
      <path class="cls-1" d="M521.25,699.86c-.41,0-.74-.33-.74-.73,0-.14.12-.26.26-.26s.26.12.26.26c0,.12.1.22.22.22.14,0,.26.12.26.26s-.12.26-.26.26Z"/>
      <path class="cls-1" d="M533.25,699.86c-.14,0-.26-.12-.26-.26s.12-.26.26-.26c.12,0,.22-.1.22-.22,0-.14.12-.26.26-.26s.26.12.26.26c0,.41-.33.73-.74.73Z"/>
      <path class="cls-1" d="M1076.75,366.3c-.14,0-.26-.12-.26-.26v-.48c0-.14.12-.26.26-.26s.26.12.26.26v.48c0,.14-.12.26-.26.26Z"/>
      <path class="cls-1" d="M1076.75,367.83c-.14,0-.26-.12-.26-.26v-1.54c0-.14.12-.26.26-.26s.26.12.26.26v1.54c0,.14-.12.26-.26.26Z"/>
      <path class="cls-1" d="M1076.75,368.07c-.14,0-.26-.12-.26-.26v-.24c0-.14.12-.26.26-.26s.26.12.26.26v.24c0,.14-.12.26-.26.26Z"/>
      <path class="cls-1" d="M1076.75,369.52c-.14,0-.26-.12-.26-.26v-.24c0-.14.12-.26.26-.26s.26.12.26.26v.24c0,.14-.12.26-.26.26Z"/>
      <path class="cls-1" d="M1076.75,371.06c-.14,0-.26-.12-.26-.26v-1.54c0-.14.12-.26.26-.26s.26.12.26.26v1.54c0,.14-.12.26-.26.26Z"/>
      <path class="cls-1" d="M1076.75,371.53c-.14,0-.26-.12-.26-.26v-.48c0-.14.12-.26.26-.26s.26.12.26.26v.48c0,.14-.12.26-.26.26Z"/>
      <path class="cls-1" d="M710.99,371.53c-.14,0-.26-.12-.26-.26v-.48c0-.14.12-.26.26-.26s.26.12.26.26v.48c0,.14-.12.26-.26.26Z"/>
      <path class="cls-1" d="M710.99,371.06c-.14,0-.26-.12-.26-.26v-1.54c0-.14.12-.26.26-.26s.26.12.26.26v1.54c0,.14-.12.26-.26.26Z"/>
      <path class="cls-1" d="M710.99,369.52c-.14,0-.26-.12-.26-.26v-.24c0-.14.12-.26.26-.26s.26.12.26.26v.24c0,.14-.12.26-.26.26Z"/>
      <path class="cls-1" d="M710.99,369.29c-.14,0-.26-.12-.26-.26v-.31c0-.14.12-.26.26-.26s.26.12.26.26v.31c0,.14-.12.26-.26.26Z"/>
      <path class="cls-1" d="M710.99,368.98c-.14,0-.26-.12-.26-.26v-.61c0-.14.12-.26.26-.26s.26.12.26.26v.61c0,.14-.12.26-.26.26Z"/>
      <path class="cls-1" d="M710.99,368.37c-.14,0-.26-.12-.26-.26v-.31c0-.14.12-.26.26-.26s.26.12.26.26v.31c0,.14-.12.26-.26.26Z"/>
      <path class="cls-1" d="M710.99,368.07c-.14,0-.26-.12-.26-.26v-.24c0-.14.12-.26.26-.26s.26.12.26.26v.24c0,.14-.12.26-.26.26Z"/>
      <path class="cls-1" d="M710.99,367.83c-.14,0-.26-.12-.26-.26v-1.54c0-.14.12-.26.26-.26s.26.12.26.26v1.54c0,.14-.12.26-.26.26Z"/>
      <path class="cls-1" d="M710.99,366.3c-.14,0-.26-.12-.26-.26v-.48c0-.14.12-.26.26-.26s.26.12.26.26v.48c0,.14-.12.26-.26.26Z"/>
      <path class="cls-1" d="M1076.75,365.82h-365.75c-.14,0-.26-.12-.26-.26s.12-.26.26-.26h365.75c.14,0,.26.12.26.26s-.12.26-.26.26Z"/>
      <path class="cls-1" d="M1076.75,371.53h-360.04c-.14,0-.26-.12-.26-.26s.12-.26.26-.26h360.04c.14,0,.26.12.26.26s-.12.26-.26.26Z"/>
      <path class="cls-1" d="M714.46,371.53h-1.22c-.14,0-.26-.12-.26-.26s.12-.26.26-.26h1.22c.14,0,.26.12.26.26s-.12.26-.26.26Z"/>
      <path class="cls-1" d="M341.41,668.71c-.14,0-.26-.12-.26-.26v-7.62c0-.14.12-.26.26-.26s.26.12.26.26v7.62c0,.14-.12.26-.26.26Z"/>
      <path class="cls-1" d="M710.97,661.09h-369.57c-.14,0-.26-.12-.26-.26s.12-.26.26-.26h369.57c.14,0,.26.12.26.26s-.12.26-.26.26Z"/>
      <path class="cls-1" d="M707.16,668.71h-365.75c-.14,0-.26-.12-.26-.26s.12-.26.26-.26h365.75c.14,0,.26.12.26.26s-.12.26-.26.26Z"/>
      <path class="cls-1" d="M1000.53,668.71c-.14,0-.26-.12-.26-.26v-7.62c0-.14.12-.26.26-.26s.26.12.26.26v7.62c0,.14-.12.26-.26.26Z"/>
      <path class="cls-1" d="M710.97,668.71c-.14,0-.26-.12-.26-.26v-7.62c0-.14.12-.26.26-.26s.26.12.26.26v7.62c0,.14-.12.26-.26.26Z"/>
      <path class="cls-1" d="M710.99,661.09c-.14,0-.27-.12-.27-.26s.11-.26.25-.26h.02c.14,0,.26.12.26.26s-.12.26-.26.26Z"/>
      <path class="cls-1" d="M1000.53,661.09h-283.83c-.14,0-.26-.12-.26-.26s.12-.26.26-.26h283.83c.14,0,.26.12.26.26s-.12.26-.26.26Z"/>
      <path class="cls-1" d="M710.99,668.71h-.02c-.14,0-.26-.12-.26-.26s.12-.26.26-.26.27.12.27.26-.11.26-.25.26Z"/>
      <path class="cls-1" d="M194.17,700.44c-.11,0-.22-.08-.25-.19-.04-.14.04-.28.18-.32l147.24-39.35c.14-.04.28.05.32.18.04.14-.04.28-.18.32l-147.24,39.35s-.04,0-.07,0Z"/>
      <path class="cls-1" d="M222.63,700.44h-28.47c-.14,0-.26-.12-.26-.26s.12-.26.26-.26h28.47c.14,0,.26.12.26.26s-.12.26-.26.26Z"/>
      <path class="cls-1" d="M222.63,700.44c-.11,0-.22-.08-.25-.19-.04-.14.04-.28.18-.32l118.77-31.73c.14-.04.28.05.32.18.04.14-.04.28-.18.32l-118.77,31.73s-.04,0-.07,0Z"/>
      <path class="cls-1" d="M1210.64,264.49c-.12,0-.23-.09-.25-.21l-3.07-15.6c-.03-.14.06-.28.2-.3.14-.03.28.06.3.2l3.07,15.6c.03.14-.06.28-.2.3-.02,0-.03,0-.05,0Z"/>
      <path class="cls-1" d="M492.89,405.75c-.12,0-.23-.09-.25-.21-.03-.14.06-.28.2-.3l717.75-141.26c.14-.03.28.06.3.2.03.14-.06.28-.2.3l-717.75,141.26s-.03,0-.05,0Z"/>
      <path class="cls-1" d="M492.89,405.75c-.12,0-.23-.09-.25-.21l-3.07-15.6c-.03-.14.06-.28.2-.3.14-.03.28.06.3.2l3.07,15.6c.03.14-.06.28-.2.3-.02,0-.03,0-.05,0Z"/>
      <path class="cls-1" d="M489.82,390.15c-.12,0-.23-.09-.25-.21-.03-.14.06-.28.2-.3l717.75-141.26c.14-.03.28.06.3.2.03.14-.06.28-.2.3l-717.75,141.26s-.03,0-.05,0Z"/>
    </g>
  </g>
  <g>
    <g id="_Radial_Repeat_" data-name="&amp;lt;Radial Repeat&amp;gt;">
      <polygon class="cls-1" points="1197.91 238.21 1196.93 238.41 1140.96 13.55 1141.99 13.55 1197.91 238.21"/>
    </g>
    <g id="_Radial_Repeat_-2" data-name="&amp;lt;Radial Repeat&amp;gt;">
      <polygon class="cls-1" points="1180.96 241.71 1179.97 241.91 1128.78 13.58 1129.81 13.58 1180.96 241.71"/>
    </g>
    <g id="_Radial_Repeat_-3" data-name="&amp;lt;Radial Repeat&amp;gt;">
      <polygon class="cls-1" points="1164.26 245.15 1163.28 245.35 1116.98 13.61 1118 13.61 1164.26 245.15"/>
    </g>
    <g id="_Radial_Repeat_-4" data-name="&amp;lt;Radial Repeat&amp;gt;">
      <polygon class="cls-1" points="1147.81 248.54 1146.83 248.74 1105.53 13.64 1106.54 13.64 1147.81 248.54"/>
    </g>
    <g id="_Radial_Repeat_-5" data-name="&amp;lt;Radial Repeat&amp;gt;">
      <polygon class="cls-1" points="1131.58 251.89 1130.6 252.09 1094.41 13.67 1095.43 13.67 1131.58 251.89"/>
    </g>
    <g id="_Radial_Repeat_-6" data-name="&amp;lt;Radial Repeat&amp;gt;">
      <polygon class="cls-1" points="1115.54 255.2 1114.56 255.4 1083.6 13.7 1084.61 13.7 1115.54 255.2"/>
    </g>
    <g id="_Radial_Repeat_-7" data-name="&amp;lt;Radial Repeat&amp;gt;">
      <polygon class="cls-1" points="1099.69 258.47 1098.7 258.67 1073.08 13.73 1074.09 13.72 1099.69 258.47"/>
    </g>
    <g id="_Radial_Repeat_-8" data-name="&amp;lt;Radial Repeat&amp;gt;">
      <polygon class="cls-1" points="1083.98 261.71 1083 261.91 1062.84 13.75 1063.85 13.75 1083.98 261.71"/>
    </g>
    <g id="_Radial_Repeat_-9" data-name="&amp;lt;Radial Repeat&amp;gt;">
      <polygon class="cls-1" points="1068.42 264.92 1067.43 265.12 1052.86 13.78 1053.86 13.77 1068.42 264.92"/>
    </g>
    <g id="_Radial_Repeat_-10" data-name="&amp;lt;Radial Repeat&amp;gt;">
      <polygon class="cls-1" points="1052.97 268.1 1051.97 268.31 1043.13 13.8 1044.13 13.8 1052.97 268.1"/>
    </g>
    <g id="_Radial_Repeat_-11" data-name="&amp;lt;Radial Repeat&amp;gt;">
      <polygon class="cls-1" points="1037.62 271.27 1036.62 271.47 1033.62 13.83 1034.62 13.82 1037.62 271.27"/>
    </g>
    <g id="_Radial_Repeat_-12" data-name="&amp;lt;Radial Repeat&amp;gt;">
      <polygon class="cls-1" points="1025.35 13.85 1022.36 274.42 1021.35 274.62 1024.35 13.85 1025.35 13.85"/>
    </g>
    <g id="_Radial_Repeat_-13" data-name="&amp;lt;Radial Repeat&amp;gt;">
      <polygon class="cls-1" points="1016.27 13.87 1007.15 277.55 1006.14 277.76 1015.27 13.87 1016.27 13.87"/>
    </g>
    <g id="_Radial_Repeat_-14" data-name="&amp;lt;Radial Repeat&amp;gt;">
      <polygon class="cls-1" points="1007.39 13.89 991.98 280.68 990.97 280.89 1006.39 13.9 1007.39 13.89"/>
    </g>
    <g id="_Radial_Repeat_-15" data-name="&amp;lt;Radial Repeat&amp;gt;">
      <polygon class="cls-1" points="998.7 13.91 976.84 283.8 975.81 284.01 997.7 13.92 998.7 13.91"/>
    </g>
    <g id="_Radial_Repeat_-16" data-name="&amp;lt;Radial Repeat&amp;gt;">
      <polygon class="cls-1" points="990.18 13.94 961.7 286.92 960.67 287.14 989.18 13.94 990.18 13.94"/>
    </g>
    <g id="_Radial_Repeat_-17" data-name="&amp;lt;Radial Repeat&amp;gt;">
      <polygon class="cls-1" points="981.83 13.96 946.54 290.05 945.51 290.26 980.83 13.96 981.83 13.96"/>
    </g>
    <g id="_Radial_Repeat_-18" data-name="&amp;lt;Radial Repeat&amp;gt;">
      <polygon class="cls-1" points="973.64 13.98 931.34 293.19 930.3 293.4 972.63 13.98 973.64 13.98"/>
    </g>
    <g id="_Radial_Repeat_-19" data-name="&amp;lt;Radial Repeat&amp;gt;">
      <polygon class="cls-1" points="965.59 14 916.08 296.33 915.03 296.55 964.57 14 965.59 14"/>
    </g>
    <g id="_Radial_Repeat_-20" data-name="&amp;lt;Radial Repeat&amp;gt;">
      <polygon class="cls-1" points="957.68 14.02 900.75 299.49 899.69 299.71 956.67 14.02 957.68 14.02"/>
    </g>
    <g id="_Radial_Repeat_-21" data-name="&amp;lt;Radial Repeat&amp;gt;">
      <polygon class="cls-1" points="949.91 14.04 885.31 302.68 884.23 302.9 948.88 14.04 949.91 14.04"/>
    </g>
    <g id="_Radial_Repeat_-22" data-name="&amp;lt;Radial Repeat&amp;gt;">
      <polygon class="cls-1" points="942.25 14.06 869.74 305.89 868.66 306.11 941.22 14.06 942.25 14.06"/>
    </g>
    <g id="_Radial_Repeat_-23" data-name="&amp;lt;Radial Repeat&amp;gt;">
      <polygon class="cls-1" points="934.71 14.08 854.02 309.13 852.92 309.36 933.68 14.08 934.71 14.08"/>
    </g>
    <g id="_Radial_Repeat_-24" data-name="&amp;lt;Radial Repeat&amp;gt;">
      <polygon class="cls-1" points="927.28 14.1 838.11 312.41 837 312.64 926.23 14.1 927.28 14.1"/>
    </g>
    <g id="_Radial_Repeat_-25" data-name="&amp;lt;Radial Repeat&amp;gt;">
      <polygon class="cls-1" points="919.95 14.12 822.01 315.73 820.87 315.97 918.9 14.12 919.95 14.12"/>
    </g>
    <g id="_Radial_Repeat_-26" data-name="&amp;lt;Radial Repeat&amp;gt;">
      <polygon class="cls-1" points="912.7 14.13 805.65 319.11 804.51 319.34 911.65 14.14 912.7 14.13"/>
    </g>
    <g id="_Radial_Repeat_-27" data-name="&amp;lt;Radial Repeat&amp;gt;">
      <polygon class="cls-1" points="905.55 14.15 789.02 322.53 787.87 322.77 904.48 14.15 905.55 14.15"/>
    </g>
    <g id="_Radial_Repeat_-28" data-name="&amp;lt;Radial Repeat&amp;gt;">
      <polygon class="cls-1" points="898.48 14.17 772.09 326.03 770.92 326.27 897.4 14.17 898.48 14.17"/>
    </g>
    <g id="_Radial_Repeat_-29" data-name="&amp;lt;Radial Repeat&amp;gt;">
      <polygon class="cls-1" points="891.48 14.19 754.81 329.59 753.61 329.84 890.39 14.19 891.48 14.19"/>
    </g>
    <g id="_Radial_Repeat_-30" data-name="&amp;lt;Radial Repeat&amp;gt;">
      <polygon class="cls-1" points="884.55 14.21 737.14 333.24 735.92 333.49 883.45 14.21 884.55 14.21"/>
    </g>
    <g id="_Radial_Repeat_-31" data-name="&amp;lt;Radial Repeat&amp;gt;">
      <polygon class="cls-1" points="877.68 14.22 719.03 336.97 717.78 337.23 876.56 14.23 877.68 14.22"/>
    </g>
    <g id="_Radial_Repeat_-32" data-name="&amp;lt;Radial Repeat&amp;gt;">
      <polygon class="cls-1" points="870.85 14.24 700.42 340.81 699.15 341.07 869.72 14.24 870.85 14.24"/>
    </g>
    <g id="_Radial_Repeat_-33" data-name="&amp;lt;Radial Repeat&amp;gt;">
      <polygon class="cls-1" points="864.08 14.26 681.27 344.76 679.98 345.02 862.93 14.26 864.08 14.26"/>
    </g>
    <g id="_Radial_Repeat_-34" data-name="&amp;lt;Radial Repeat&amp;gt;">
      <polygon class="cls-1" points="857.34 14.27 661.51 348.83 660.19 349.1 856.17 14.28 857.34 14.27"/>
    </g>
    <g id="_Radial_Repeat_-35" data-name="&amp;lt;Radial Repeat&amp;gt;">
      <polygon class="cls-1" points="850.64 14.29 641.07 353.05 639.72 353.33 849.46 14.29 850.64 14.29"/>
    </g>
    <g id="_Radial_Repeat_-36" data-name="&amp;lt;Radial Repeat&amp;gt;">
      <polygon class="cls-1" points="843.95 14.31 619.85 357.42 618.48 357.71 842.77 14.31 843.95 14.31"/>
    </g>
    <g id="_Radial_Repeat_-37" data-name="&amp;lt;Radial Repeat&amp;gt;">
      <polygon class="cls-1" points="837.29 14.33 597.79 361.97 596.38 362.26 836.09 14.33 837.29 14.33"/>
    </g>
    <g id="_Radial_Repeat_-38" data-name="&amp;lt;Radial Repeat&amp;gt;">
      <polygon class="cls-1" points="830.65 14.34 574.78 366.72 573.32 367.02 829.4 14.35 830.65 14.34"/>
    </g>
    <g id="_Radial_Repeat_-39" data-name="&amp;lt;Radial Repeat&amp;gt;">
      <polygon class="cls-1" points="824 14.36 550.67 371.69 549.18 372 822.73 14.36 824 14.36"/>
    </g>
    <g id="_Radial_Repeat_-40" data-name="&amp;lt;Radial Repeat&amp;gt;">
      <polygon class="cls-1" points="817.34 14.38 525.36 376.91 523.82 377.23 816.05 14.38 817.34 14.38"/>
    </g>
    <g id="_Radial_Repeat_-41" data-name="&amp;lt;Radial Repeat&amp;gt;">
      <polygon class="cls-1" points="810.65 14.39 498.68 382.41 497.09 382.74 809.35 14.4 810.65 14.39"/>
    </g>
  </g>
  <g>
    <g id="_Radial_Repeat_-42" data-name="&amp;lt;Radial Repeat&amp;gt;">
      <line class="cls-2" x1="701.98" y1="522.5" x2="682.77" y2="652.94"/>
    </g>
    <g id="_Radial_Repeat_-43" data-name="&amp;lt;Radial Repeat&amp;gt;">
      <line class="cls-2" x1="701.87" y1="439.11" x2="663.75" y2="652.94"/>
    </g>
    <g id="_Radial_Repeat_-44" data-name="&amp;lt;Radial Repeat&amp;gt;">
      <line class="cls-2" x1="701.84" y1="375.83" x2="643.74" y2="652.94"/>
    </g>
    <g id="_Radial_Repeat_-45" data-name="&amp;lt;Radial Repeat&amp;gt;">
      <line class="cls-2" x1="687.28" y1="378.48" x2="621.03" y2="652.94"/>
    </g>
    <g id="_Radial_Repeat_-46" data-name="&amp;lt;Radial Repeat&amp;gt;">
      <line class="cls-2" x1="672.63" y1="381.15" x2="598.27" y2="652.94"/>
    </g>
    <g id="_Radial_Repeat_-47" data-name="&amp;lt;Radial Repeat&amp;gt;">
      <line class="cls-2" x1="657.87" y1="383.83" x2="575.44" y2="652.94"/>
    </g>
    <g id="_Radial_Repeat_-48" data-name="&amp;lt;Radial Repeat&amp;gt;">
      <line class="cls-2" x1="642.98" y1="386.54" x2="552.49" y2="652.94"/>
    </g>
    <g id="_Radial_Repeat_-49" data-name="&amp;lt;Radial Repeat&amp;gt;">
      <line class="cls-2" x1="627.89" y1="389.28" x2="529.36" y2="652.94"/>
    </g>
    <g id="_Radial_Repeat_-50" data-name="&amp;lt;Radial Repeat&amp;gt;">
      <line class="cls-2" x1="612.6" y1="392.07" x2="506.02" y2="652.94"/>
    </g>
    <g id="_Radial_Repeat_-51" data-name="&amp;lt;Radial Repeat&amp;gt;">
      <line class="cls-2" x1="597.05" y1="394.89" x2="482.42" y2="652.94"/>
    </g>
    <g id="_Radial_Repeat_-52" data-name="&amp;lt;Radial Repeat&amp;gt;">
      <line class="cls-2" x1="581.19" y1="397.78" x2="458.48" y2="652.94"/>
    </g>
    <g id="_Radial_Repeat_-53" data-name="&amp;lt;Radial Repeat&amp;gt;">
      <line class="cls-2" x1="564.99" y1="400.73" x2="434.17" y2="652.94"/>
    </g>
    <g id="_Radial_Repeat_-54" data-name="&amp;lt;Radial Repeat&amp;gt;">
      <line class="cls-2" x1="548.37" y1="403.75" x2="409.42" y2="652.94"/>
    </g>
    <g id="_Radial_Repeat_-55" data-name="&amp;lt;Radial Repeat&amp;gt;">
      <line class="cls-2" x1="531.28" y1="406.86" x2="384.15" y2="652.94"/>
    </g>
    <g id="_Radial_Repeat_-56" data-name="&amp;lt;Radial Repeat&amp;gt;">
      <line class="cls-2" x1="513.65" y1="410.07" x2="358.29" y2="652.94"/>
    </g>
    <g id="_Radial_Repeat_-57" data-name="&amp;lt;Radial Repeat&amp;gt;">
      <line class="cls-2" x1="495.41" y1="413.38" x2="331.77" y2="652.94"/>
    </g>
    <g id="_Radial_Repeat_-58" data-name="&amp;lt;Radial Repeat&amp;gt;">
      <line class="cls-2" x1="297.93" y1="661.94" x2="482.67" y2="408.29"/>
    </g>
  </g>
  <g>
    <g id="_Radial_Repeat_-59" data-name="&amp;lt;Radial Repeat&amp;gt;">
      <polygon class="cls-1" points="1361.02 695.96 1359.95 695.96 1207.78 273.78 1208.77 273.57 1361.02 695.96"/>
    </g>
    <g id="_Radial_Repeat_-60" data-name="&amp;lt;Radial Repeat&amp;gt;">
      <polygon class="cls-1" points="1338.44 696 1337.39 696 1197.92 275.8 1198.91 275.6 1338.44 696"/>
    </g>
    <g id="_Radial_Repeat_-61" data-name="&amp;lt;Radial Repeat&amp;gt;">
      <path class="cls-1" d="M1315.56,694.95c-.05.01-.1.02-.14.02-.22,0-.42-.14-.48-.35l-126.62-416.84.98-.21,126.59,416.75c.08.27-.07.55-.33.63Z"/>
    </g>
    <g id="_Radial_Repeat_-62" data-name="&amp;lt;Radial Repeat&amp;gt;">
      <polygon class="cls-1" points="1294.92 696.08 1293.88 696.08 1178.95 279.7 1179.93 279.5 1294.92 696.08"/>
    </g>
    <g id="_Radial_Repeat_-63" data-name="&amp;lt;Radial Repeat&amp;gt;">
      <polygon class="cls-1" points="1273.91 696.11 1272.88 696.12 1169.8 281.58 1170.78 281.38 1273.91 696.11"/>
    </g>
    <g id="_Radial_Repeat_-64" data-name="&amp;lt;Radial Repeat&amp;gt;">
      <polygon class="cls-1" points="1253.36 696.15 1252.33 696.15 1160.86 283.42 1161.84 283.22 1253.36 696.15"/>
    </g>
    <g id="_Radial_Repeat_-65" data-name="&amp;lt;Radial Repeat&amp;gt;">
      <polygon class="cls-1" points="1233.22 696.18 1232.2 696.19 1152.12 285.22 1153.1 285.01 1233.22 696.18"/>
    </g>
    <g id="_Radial_Repeat_-66" data-name="&amp;lt;Radial Repeat&amp;gt;">
      <polygon class="cls-1" points="1213.47 696.22 1212.46 696.22 1143.57 286.97 1144.55 286.77 1213.47 696.22"/>
    </g>
    <g id="_Radial_Repeat_-67" data-name="&amp;lt;Radial Repeat&amp;gt;">
      <polygon class="cls-1" points="1194.09 696.25 1193.08 696.25 1135.2 288.69 1136.18 288.49 1194.09 696.25"/>
    </g>
    <g id="_Radial_Repeat_-68" data-name="&amp;lt;Radial Repeat&amp;gt;">
      <polygon class="cls-1" points="1175.04 696.29 1174.03 696.29 1127 290.38 1127.98 290.17 1175.04 696.29"/>
    </g>
    <g id="_Radial_Repeat_-69" data-name="&amp;lt;Radial Repeat&amp;gt;">
      <polygon class="cls-1" points="1156.31 696.32 1155.3 696.32 1118.96 292.03 1119.95 291.83 1156.31 696.32"/>
    </g>
    <g id="_Radial_Repeat_-70" data-name="&amp;lt;Radial Repeat&amp;gt;">
      <polygon class="cls-1" points="1137.85 696.35 1136.85 696.35 1111.08 293.65 1112.07 293.45 1137.85 696.35"/>
    </g>
    <g id="_Radial_Repeat_-71" data-name="&amp;lt;Radial Repeat&amp;gt;">
      <polygon class="cls-1" points="1119.66 696.38 1118.65 696.38 1103.34 295.24 1104.33 295.04 1119.66 696.38"/>
    </g>
    <g id="_Radial_Repeat_-72" data-name="&amp;lt;Radial Repeat&amp;gt;">
      <polygon class="cls-1" points="1101.7 696.41 1100.7 696.41 1095.73 296.8 1096.73 296.6 1101.7 696.41"/>
    </g>
  </g>
</svg>