<?xml version="1.0" encoding="utf-8"?>
<!-- Generator: Adobe Illustrator 28.2.0, SVG Export Plug-In . SVG Version: 6.00 Build 0)  -->
<svg version="1.1" id="GRAPHIC" xmlns="http://www.w3.org/2000/svg" xmlns:xlink="http://www.w3.org/1999/xlink" x="0px" y="0px"
	 viewBox="0 0 1584 720" style="enable-background:new 0 0 1584 720;" xml:space="preserve">
<style type="text/css">
	.st0{stroke:#000000;stroke-width:0.25;stroke-linecap:round;stroke-linejoin:round;stroke-miterlimit:10;}
</style>
<g>
	<g>
		<path class="st0" d="M163.1,500.1l-0.4-1.7l0.6-0.1c0.1,0.5,0.2,1,0.3,1.5l0,0.2L163.1,500.1z"/>
	</g>
	<g>
		<path class="st0" d="M127.7,700.5l-0.4,0c-0.1,0-0.1,0-0.2,0l-0.1,0c-0.1,0-0.1,0-0.2,0c-0.1,0-0.2,0-0.3,0c0,0-0.1,0-0.1,0
			c0,0-0.1,0-0.1,0l-0.2,0l0,0c0,0-0.1,0-0.1,0l-0.2,0c-0.1,0-0.1-0.1-0.2-0.1c-0.1,0-0.1-0.1-0.2-0.1c-0.1,0-0.1-0.1-0.2-0.1
			c-0.1,0-0.1-0.1-0.2-0.2c-0.1-0.1-0.1-0.1-0.2-0.2c0-0.1-0.1-0.1-0.1-0.2c0-0.1-0.1-0.1-0.1-0.2c-0.1-0.1-0.1-0.3-0.1-0.5
			c0-0.2-0.1-0.4-0.1-0.6c0-0.3,0-0.7,0-1c0-0.5,0.1-1,0.1-1.5l0-0.4c0.1-0.9,0.1-1.7,0.1-2.4c0-0.7,0-1.2,0.1-1.8
			c0-0.3,0.1-0.6,0.2-0.8c0.1-0.2,0.1-0.3,0.2-0.4c0.1-0.1,0.1-0.2,0.1-0.2c0-0.1,0.1-0.1,0.1-0.2v0l0-0.1l0.1-0.2
			c0.1-0.2,0.1-0.4,0.2-0.5l0.1-0.3c0-0.1,0-0.2,0.1-0.3c0-0.1,0-0.1,0-0.2c0-0.1,0.1-0.3,0.1-0.4l0.1-0.5c0-0.1,0-0.2,0-0.3l0-0.3
			l0-1l-0.1-0.7c0-0.2-0.1-0.4-0.1-0.7c-0.1-0.5-0.2-1-0.3-1.5c-0.1-0.5-0.2-1.2-0.3-1.9c-0.1-0.6-0.1-1.1-0.2-1.7
			c-0.1-1-0.2-2-0.2-3.3l0-0.6c0-0.5,0-1-0.1-1.5c0-0.6-0.1-1.3-0.2-1.9c0-0.3-0.1-0.6-0.1-0.9c-0.1-1.1-0.1-2.1-0.1-2.9
			c0-0.3,0-0.6,0-0.9c0-0.4,0-0.9,0-1.3l0-1c0-0.5,0-1,0-1.5c0-0.8,0-1.4,0.1-1.9c0.1-0.5,0.1-0.9,0.2-1.4l0.1-0.5
			c0-0.1,0-0.2,0-0.2c0-0.2,0-0.4,0.1-0.5c0-0.1,0-0.2,0-0.3c0-0.1,0-0.2,0-0.3l0-0.3c0-0.7,0-1.3,0-2l0-0.1c-0.1-2.2,0-4.4,0.3-6.5
			c0.1-0.7,0.1-1.4,0.2-2.1l0.2-2.2c0-0.2,0-0.4,0-0.6c0-0.5,0.1-1,0.1-1.6c0-0.3,0.1-0.7,0.2-1l0.4-2.3c0-0.3,0.1-0.5,0.1-0.8
			l0-0.5c0-0.2,0-0.4,0.1-0.7c0-0.5,0.1-0.9,0.3-1.4c0-0.1,0.1-0.3,0.1-0.4l0.1-0.4l1.2-10c0-0.5,0.1-1.1,0.2-1.6c0-0.1,0-0.2,0-0.2
			l0-0.3c0-0.2,0-0.3,0-0.5l0-0.6c0-0.5,0-0.9,0.1-1.3c0.1-0.4,0.2-0.8,0.3-1.2l0.4-1.2c0-0.1,0.1-0.2,0.2-0.4
			c0.1-0.2,0.2-0.5,0.4-0.7l0.1-0.2l-0.1-0.6c0,0,0-0.1,0-0.1c-0.1-0.2-0.1-0.4-0.2-0.5l-0.2-0.4c-0.1-0.3-0.2-0.6-0.3-0.8L129,614
			c-0.1-0.2-0.2-0.5-0.3-0.8c-0.2-0.4-0.3-0.9-0.4-1.4l-0.1-0.7c0-0.2-0.1-0.4-0.1-0.6c-0.1-0.5-0.1-0.9-0.2-1.3c0-0.4,0-0.8,0-1.2
			c0-0.2,0-0.5,0-0.7l0-3.2c0-0.5,0-1.1-0.1-1.7l0-0.2c-0.1-0.8-0.1-1.6-0.1-2.4c0-0.5,0.1-1,0.1-1.6l0.2-1.9l0.1-1.9
			c0-0.4,0-0.8-0.1-1.1c0-0.1,0-0.2,0-0.3l0-0.3c0-0.2,0-0.4-0.1-0.6c0-0.2,0-0.3,0-0.5l0-0.2c0,0,0-0.1,0-0.1l0-0.2
			c0-0.1,0-0.1,0-0.2c0-0.1,0.1-0.2,0.1-0.4c0-0.1,0.1-0.1,0.1-0.2l0-0.1c0.1-0.1,0.1-0.2,0.2-0.3c0.1-0.1,0.1-0.2,0.2-0.2
			c0,0,0.1-0.1,0.1-0.1c0,0,0-0.1,0.1-0.1c0,0,0,0,0.1-0.1l0.3,0.1l-0.3-0.2l0.3,0.1l-0.1-0.1l-0.1,0l0-0.1l0,0l0-4.2
			c0-0.5,0-1,0-1.5c0-0.2,0-0.4,0-0.6l0-0.3l0-1.1l-1.3-5l0,0l0-0.2c0-0.1,0-0.2-0.1-0.3c0-0.2-0.1-0.4-0.1-0.6l-0.1-0.3l0,0
			c-0.7-2.3-1.3-4.7-1.8-7.1l-0.3-1.9c0-0.1-0.1-0.2-0.1-0.3c-0.1-0.2-0.1-0.3-0.2-0.5l-0.1-0.2c0-0.1,0-0.1-0.1-0.2l-0.1-0.3
			c-0.1-0.2-0.1-0.4-0.2-0.6c0-0.2-0.1-0.4-0.1-0.6c0-0.5,0-0.9,0-1.3c0-0.3,0-0.5,0-0.8l0-0.2c0-0.5,0.1-0.9,0.3-1.3
			c0.1-0.2,0.2-0.4,0.2-0.5l0.1-0.2c0-0.1,0.1-0.1,0.1-0.2l0.6-1.9l0-0.1l0.3-0.2l-0.3,0.1l0-0.1c0-0.1,0-0.2,0-0.4
			c0-0.1,0-0.2,0-0.3c0-0.1,0-0.1,0-0.1l0-0.3c0-0.1,0-0.2,0-0.2c0-0.1,0-0.1,0-0.1l0-0.3c0,0,0-0.1,0-0.2c0-0.1,0-0.2,0-0.3
			c0-0.1,0.1-0.2,0.1-0.4c0.1-0.2,0.1-0.3,0.2-0.5c0.1-0.2,0.2-0.4,0.2-0.6l0.2-0.4c0.1-0.3,0.3-0.5,0.4-0.8l0.2-0.7l-0.1-0.8
			c0-0.1-0.1-0.3-0.1-0.4c-0.1-0.2-0.1-0.4-0.2-0.6c0-0.2-0.1-0.4-0.1-0.6c0-0.2,0-0.4,0-0.6c0-0.1,0-0.2,0-0.3c0-0.3,0-0.5,0.1-0.7
			c0-0.3,0.1-0.6,0.2-0.8c-0.2-0.3-0.4-0.6-0.6-1l-0.1-0.2l0,0c-0.6-1.1-1.2-2.2-1.8-3.3l-0.5-1c-0.5-0.9-0.9-1.6-1.4-2.3l-0.2-0.2
			c-0.3-0.4-0.6-0.9-0.8-1.3c-0.3-0.5-0.4-1.2-0.5-1.9c-0.1-0.6-0.1-1.2-0.1-1.8c0-0.4,0-0.8-0.1-1.1c-0.1-0.7-0.1-1.5-0.2-2.3
			c0-0.4-0.1-0.8-0.1-1.2c-0.1-1-0.2-2-0.2-3l0-0.3c0-0.5,0-1.1-0.1-1.7c0-0.3-0.1-0.6-0.1-1l-0.1-0.4c0-0.2-0.1-0.4-0.1-0.6
			c-0.1-0.4-0.1-0.8-0.2-1.2h0l0-0.3l-0.1-3.5c-0.1-0.9-0.2-1.8-0.3-2.7l-0.2-2.3c-0.1-1-0.2-2-0.2-3c-0.1-1.5-0.2-3-0.2-4.5
			l-0.1-1.5c-0.1-0.2-0.2-0.4-0.2-0.6c-0.1-0.4-0.2-0.8-0.2-1.2c0,0,0-0.1,0-0.2c0-0.3,0-0.7,0-1l0-0.1c0-0.1,0-0.1,0-0.1
			c0-0.1,0-0.2,0-0.2l0-1c0-0.5,0-0.9,0-1.3c0-0.3,0.1-0.6,0.1-1.1c0.1-0.4,0.2-0.8,0.3-1.1c0.4-1,0.7-1.8,1.1-2.6
			c0.1-0.3,0.3-0.5,0.5-0.8l0.2-0.3c0.1-0.2,0.1-0.3,0.2-0.5l0.4-1c0.3-0.7,0.6-1.3,0.9-1.8c0.2-0.3,0.4-0.7,0.7-1
			c0.1-0.2,0.3-0.3,0.4-0.5l0.6-0.6c0.1-0.1,0.2-0.2,0.2-0.2c0,0,0.1-0.1,0.1-0.1l0.1-0.1l0.3,0.2l-0.2-0.2l0.1-0.1c0,0,0,0,0.1-0.1
			l0.5-0.5c0.1-0.1,0.1-0.1,0.2-0.2l1-1.2c0.2-0.3,0.5-0.6,0.7-0.9l0.5-0.6c0.2-0.3,0.5-0.5,0.7-0.8c0.2-0.2,0.4-0.5,0.6-0.7
			l0.4-0.5c0.3-0.3,0.6-0.7,0.9-1c0.2-0.2,0.5-0.5,0.9-0.7l0.5-0.3c0.1-0.1,0.2-0.1,0.2-0.1c0.1,0,0.1-0.1,0.2-0.1
			c0.1,0,0.1-0.1,0.2-0.1c0.1,0,0.1-0.1,0.2-0.1l2.7-2.7l2.2-4.6l-1-5.6c-0.1-0.3-0.2-0.6-0.2-0.9l-2.4-5.5
			c-0.1-0.2-0.2-0.4-0.3-0.5c-0.2-0.4-0.3-0.8-0.5-1.2c-0.1-0.3-0.1-0.6-0.2-1c-0.1-0.4-0.1-0.9-0.1-1.3c0-0.4,0-0.8,0-1.1
			c0.1-0.6,0.1-1.2,0.2-1.7c0-0.2,0.1-0.4,0.1-0.6l0-0.1l0.3-0.1l-0.3-0.1l0.4-1.4c0.1-0.2,0.1-0.4,0.2-0.6c0.2-0.4,0.3-0.9,0.5-1.3
			l0.2-0.4c0.5-1.1,1-2.2,1.7-3.2c0.4-0.6,0.9-1.1,1.3-1.5l0.1-0.1c0.7-0.8,1.4-1.5,2.1-2.2c0.6-0.6,1.3-1.1,2.1-1.4
			c0.2-0.1,0.3-0.1,0.5-0.2l0.3-0.1c0.2,0,0.3-0.1,0.5-0.1c0.2,0,0.3-0.1,0.5-0.1c0.5-0.1,1-0.1,1.5-0.1c0.4,0,0.7,0,1.1,0
			c0.4,0,0.8,0.1,1.2,0.1c0.3,0,0.6,0,0.8,0.1c0.4,0,0.9,0.1,1.3,0.1c0.3,0,0.7,0.1,1,0.2c0.4,0.1,0.8,0.2,1.1,0.3
			c0.4,0.1,0.7,0.2,1,0.3l0.2,0.1c0.4,0.1,0.8,0.3,1.1,0.4l1.7,0.5c0.6,0.2,1.1,0.4,1.6,0.5c0.4,0.1,0.7,0.3,1.1,0.4
			c0.1,0.1,0.3,0.1,0.4,0.2c0.1,0,0.1,0.1,0.2,0.1l0.1,0.1c0.1,0,0.1,0.1,0.1,0.1l0.4,0.3c0.1,0.1,0.2,0.1,0.4,0.2l0.3,0.2
			c0.1,0,0.1,0.1,0.2,0.1c0.2,0.1,0.2,0.1,0.3,0.2c0.2,0.1,0.5,0.2,0.7,0.3l0.6,0.2c0.4,0.1,0.7,0.3,0.9,0.5
			c0.2,0.1,0.4,0.3,0.6,0.5c0.1,0.2,0.3,0.3,0.4,0.5c0,0.1,0.1,0.2,0.1,0.2c0,0.1,0,0.1,0.1,0.2c0,0.1,0,0.2,0,0.3
			c0,0.1,0,0.2,0,0.2v0.2c0,0.1,0,0.2,0,0.3c0,0.2-0.1,0.4-0.1,0.6c0,0,0,0.1,0,0.2l-0.2,0.5c0,0.1-0.1,0.1-0.1,0.2
			c0,0.1,0,0.1-0.1,0.2l0,0.6c0,0.1,0,0.2,0,0.3l0.1,0.4c0,0.2,0.1,0.5,0.1,0.7c0,0.3,0,0.7,0,1.1c0,0.3-0.1,0.5-0.2,0.7l-0.3,1
			c0,0.2-0.1,0.4-0.1,0.6l0,1.1c0.1,0.6,0.1,1.3,0,1.9l-0.1,0.3c0,0.2-0.1,0.5-0.2,0.7c-0.1,0.2-0.2,0.3-0.2,0.5
			c-0.1,0.2-0.2,0.3-0.3,0.5l-0.1,0.1c-0.1,0.1-0.2,0.2-0.2,0.3l-0.4,0.7l-0.2,1l0.2,0.8l0.2,0.3c0.1,0.2,0.2,0.3,0.3,0.5
			c0.1,0.1,0.1,0.2,0.2,0.4c0.2,0.4,0.4,0.8,0.5,1.2c0.1,0.2,0.1,0.4,0.1,0.6c0,0.1,0,0.2,0,0.4c0,0.1,0,0.1-0.1,0.2
			c0,0.1-0.1,0.2-0.1,0.2l-1.3,1.5l0,1c0,0.1,0,0.2,0,0.2c0,0.2,0,0.5-0.1,0.7c0,0.3-0.1,0.5-0.2,0.8c-0.1,0.3-0.2,0.6-0.3,0.9
			l-0.1,0.2c-0.1,0.1-0.1,0.2-0.1,0.3l-0.2,0.3c-0.1,0.1-0.1,0.2-0.1,0.3c-0.1,0.1-0.1,0.3-0.2,0.5c-0.1,0.2-0.1,0.4-0.2,0.6
			l-0.2,0.7c-0.1,0.2-0.1,0.4-0.2,0.6c-0.1,0.2-0.2,0.4-0.3,0.6c-0.1,0.1-0.2,0.3-0.3,0.4c-0.2,0.2-0.4,0.3-0.6,0.4
			c-0.3,0.2-0.6,0.3-0.9,0.4c-0.3,0.1-0.7,0.2-1.2,0.2c-0.4,0-0.9,0-1.3,0l-0.7-0.1c-0.1,0-0.2,0-0.2,0c0,0-0.1,0-0.1,0l0,0
			l-2.7,4.3l-0.2,1.4c0.2,0.1,0.3,0.2,0.5,0.2c0.4,0.2,0.8,0.3,1.1,0.4l0.2,0.1c0.1,0,0.3,0.1,0.5,0.2c0.3,0.1,0.5,0.2,0.8,0.3
			c0.3,0.1,0.7,0.3,1,0.4l0.1,0.1c0.2,0.1,0.4,0.2,0.5,0.3c0.2,0.1,0.4,0.2,0.7,0.3c0.4,0.2,0.7,0.4,1,0.6c0.2,0.2,0.5,0.4,0.7,0.5
			l0.1,0.1c0.6,0.5,1.1,1,1.7,1.5c0.3,0.3,0.6,0.5,0.9,0.8c0.3,0.3,0.6,0.6,0.8,1c0.2,0.3,0.3,0.6,0.5,0.9c0.1,0.3,0.2,0.6,0.3,1
			c0.1,0.2,0.1,0.4,0.1,0.6l0,0.1c0,0.1,0,0.1,0,0.2l0.2,1.4c0.1,0.4,0.1,0.9,0.2,1.3c0.1,0.7,0.2,1.4,0.2,2l0,0.2
			c0,0.1,0,0.2,0,0.4c0,0.4,0,0.8,0,1.2l0,0.1c0,0.1,0,0.2,0,0.2l0.4,1.3c0.1,0.4,0.3,0.8,0.4,1.2l0.4,1.3c0,0.1,0.1,0.2,0.1,0.3
			l0.1,0.2c0,0.1,0.1,0.2,0.1,0.3l-0.3,0.2l0.3-0.1c0,0.1,0,0.2,0,0.3l0,0.1c0,0.1,0,0.2,0,0.2c0,0.1,0,0.2,0,0.3c0,0,0,0.1,0,0.1
			l0,0c0,0.2,0,0.4,0,0.6l0,0.3c0,0.5,0.1,1.1,0.1,1.7c0,0.7,0.1,1.5,0.1,2.2l0,0l0.1,0.3l-0.3,10.9h0c0,1.2-0.1,2.4-0.1,3.4l0,0.1
			c0,0.1,0,0.2,0,0.4l0.6,3.9c0.2,1.2,0.4,2.4,0.5,3.7c0,0.3,0.1,0.6,0.1,0.9l0.3,2.8c0.1,0.5,0.2,1,0.2,1.6l0,0.1
			c0.4,1.7,0.7,3.6,1,5.5c0,0.2,0,0.3,0.1,0.4c0.1,0.8,0.2,1.6,0.3,2.3c0.1,0.6,0.2,1.2,0.2,1.9l0,0.2c0,0.4,0,0.8,0.1,1.2l0,0.4
			l1.7,14.2l0,0l0,0.2c0,0.3,0.1,0.6,0.1,0.9c0,0.2,0.1,0.4,0.1,0.6c0,0.3,0.1,0.5,0.1,0.8c0.1,0.7,0.1,1.4,0.1,2.2
			c0,0.2,0,0.3,0,0.5l-0.2,2.4c0,0.2,0,0.3,0,0.5l0,0.5c0,0.2,0,0.3,0,0.5c0,0.3,0,0.6-0.1,0.9c0,0.2,0,0.4-0.1,0.5l-0.1,0.9
			c0,0.2-0.1,0.4-0.1,0.7c0,0.2,0,0.5-0.1,0.8l0,0.1l-0.5,12.8c0,1-0.1,1.8-0.2,2.6c-0.1,1.1-0.3,2.2-0.5,3.2l-0.1,0.9
			c-0.1,0.4-0.2,0.9-0.2,1.3l-1.7,11.3c-0.2,1.2-0.4,2.5-0.6,3.7c0,0.3-0.1,0.6-0.1,0.9l-0.2,1.4c-0.1,0.6-0.2,1.3-0.3,1.9l-0.2,1.2
			c-0.1,0.5-0.1,0.9-0.2,1.4c-0.1,0.5-0.2,1-0.2,1.5c-0.1,0.4-0.1,0.7-0.2,1.1c-0.1,0.5-0.2,1.1-0.3,1.6c-0.1,0.4-0.1,0.8-0.2,1.2
			c-0.1,0.3-0.1,0.7-0.2,1l0,0.1c-0.1,0.3-0.1,0.6-0.1,0.9l-0.2,1.4c-0.1,0.7-0.2,1.5-0.4,2.2c0,0.1,0,0.1,0,0.2l-0.5,3.2
			c-0.1,0.8-0.1,1.7-0.3,2.5c-0.1,0.6-0.3,1.3-0.5,1.8c-0.1,0.5-0.3,0.9-0.5,1.4c-0.1,0.2-0.2,0.5-0.4,0.7c-0.2,0.2-0.3,0.4-0.6,0.6
			c-0.3,0.3-0.6,0.5-0.9,0.6c0,0,0,0,0,0v0.1h-0.2c-0.1,0.1-0.2,0.2-0.4,0.3l-0.9,1l-0.1,0.5l0.2,2.1c0,0.2,0,0.4,0.1,0.6l0,0.1
			c0,0.1,0,0.2,0.1,0.3l0.1,0.3c0.1,0.4,0.1,0.8,0.2,1.2c0,0.4,0,0.9,0,1.4c0,0.5-0.1,1-0.1,1.4l0,0.4c-0.1,0.4-0.1,0.9-0.2,1.3
			c-0.1,0.5-0.1,1.1-0.2,1.6c-0.1,0.4-0.1,0.8-0.2,1.2c-0.1,0.6-0.2,1.2-0.3,1.8c-0.1,0.6-0.1,1.2-0.1,1.7c0,0.3,0,0.7,0,1
			c0,0.5,0,1-0.1,1.5c0,0.2,0,0.5-0.1,0.7l-0.1,0.6c-0.1,0.5-0.1,1-0.2,1.5c-0.1,0.7-0.1,1.3-0.2,2l0,0.2l-1.7,20c0,0.1,0,0.3,0,0.5
			l0,0.4c0,0.6,0,1.1,0.1,1.5c0.1,0.3,0.1,0.6,0.2,0.8c0.1,0.3,0.2,0.5,0.4,0.7c0.1,0.1,0.2,0.2,0.3,0.3c0.1,0.1,0.2,0.1,0.2,0.2
			c0.1,0.1,0.2,0.2,0.3,0.2c0.1,0.1,0.3,0.2,0.4,0.2l0.3,0.1c0.3,0.2,0.6,0.3,0.9,0.5c0.5,0.3,0.9,0.6,1.3,1
			c0.4,0.4,0.7,0.8,1.1,1.2c0.2,0.2,0.4,0.4,0.6,0.6l0.4,0.5c0.2,0.2,0.3,0.4,0.5,0.5c0.1,0.1,0.3,0.3,0.4,0.4
			c0.2,0.1,0.3,0.3,0.4,0.4c0.1,0.1,0.3,0.2,0.4,0.3c0.2,0.1,0.4,0.2,0.6,0.4c0.4,0.2,0.8,0.4,1.1,0.5c0.5,0.2,1,0.3,1.5,0.4
			c0.4,0.1,0.7,0.1,1,0.2l0.8,0.2c0.2,0.1,0.5,0.1,0.7,0.2c0.3,0.1,0.5,0.1,0.8,0.1c0.2,0,0.4,0,0.6,0c0.2,0,0.5,0,0.7,0
			c0.2,0,0.4,0,0.6,0l1-0.1c0.1,0,0.3,0,0.5,0c0.2,0,0.4,0,0.6,0l0.2,0c0.6,0,1.1,0.1,1.7,0.2c0.1,0,0.2,0.1,0.3,0.1
			c0.1,0,0.2,0.1,0.3,0.2c0.1,0.1,0.2,0.1,0.3,0.2c0.1,0.1,0.2,0.2,0.3,0.3c0.1,0.1,0.2,0.2,0.2,0.4c0.1,0.1,0.1,0.3,0.1,0.5
			c0,0.1,0,0.1,0,0.2c0,0.1,0,0.2,0,0.3c0,0.1,0,0.2,0,0.3c0,0.2-0.1,0.5-0.2,0.7c-0.1,0.1-0.1,0.3-0.2,0.4
			c-0.1,0.1-0.2,0.2-0.2,0.3l-0.1,0.1c-0.2,0.2-0.3,0.3-0.5,0.4c0,0-0.1,0-1.1,0.2c-0.1,0-1.1,0-2.3,0.1c-1.9,0-4.3,0.1-4.4,0.1
			c-0.1,0-6.5,0-14,0.1c-10.3,0-22.6,0.1-22.6,0.1c-0.3,0-0.5,0-0.8,0C129.8,700.5,128.1,700.5,127.7,700.5z M127.1,699.8l0.6,0
			c0.5,0,2.1,0,2.3,0c0.3,0,0.5,0,0.7,0c0.1,0,12.4-0.1,22.7-0.1c7.5,0,13.9-0.1,14-0.1c0.2,0,2.5-0.1,4.4-0.1
			c1.2,0,2.2-0.1,2.3-0.1c0,0,0.8-0.1,1-0.1c0,0,0.2-0.2,0.2-0.2l0.1-0.1c0,0,0.1-0.1,0.1-0.1c0-0.1,0.1-0.2,0.1-0.3
			c0.1-0.2,0.1-0.3,0.1-0.5c0-0.1,0-0.2,0-0.3c0-0.1,0-0.2,0-0.3c0,0,0-0.1,0-0.2l0,0c0-0.1,0-0.2-0.1-0.3c0-0.1-0.1-0.2-0.1-0.3
			c-0.1-0.1-0.1-0.2-0.2-0.2c-0.1-0.1-0.1-0.1-0.2-0.1c-0.1,0-0.1-0.1-0.2-0.1c-0.1,0-0.1-0.1-0.2-0.1c-0.5-0.1-1-0.2-1.5-0.2H173
			c-0.2,0-0.4,0-0.5,0c-0.2,0-0.3,0-0.4,0l-1,0.1c-0.2,0-0.4,0-0.6,0c-0.2,0-0.5,0-0.7,0c0,0,0,0,0,0c-0.2,0-0.4,0-0.7,0
			c-0.3,0-0.6-0.1-0.9-0.1c-0.2,0-0.5-0.1-0.7-0.2l-0.8-0.2c-0.3-0.1-0.7-0.2-1-0.2c-0.6-0.1-1.1-0.2-1.6-0.4
			c-0.4-0.1-0.8-0.3-1.2-0.5c-0.2-0.1-0.5-0.3-0.7-0.4s-0.4-0.2-0.5-0.3c-0.1-0.1-0.3-0.2-0.5-0.4c-0.1-0.1-0.3-0.3-0.4-0.4
			c-0.2-0.2-0.3-0.3-0.5-0.5l-0.4-0.5c-0.2-0.2-0.4-0.4-0.6-0.6c-0.3-0.4-0.7-0.8-1.1-1.1c-0.3-0.3-0.7-0.6-1.2-0.9
			c-0.3-0.2-0.6-0.3-0.9-0.5l-0.3-0.1c-0.1-0.1-0.3-0.2-0.5-0.2c-0.1-0.1-0.3-0.2-0.4-0.3c-0.1-0.1-0.2-0.2-0.3-0.3
			c-0.1-0.1-0.2-0.2-0.3-0.4c-0.2-0.2-0.4-0.6-0.5-0.9c-0.1-0.3-0.2-0.6-0.3-0.9c-0.1-0.4-0.1-0.9-0.1-1.6l0-0.4c0-0.2,0-0.3,0-0.5
			l1.7-20.2c0.1-0.7,0.2-1.4,0.2-2c0-0.5,0.1-1,0.2-1.5l0.1-0.6c0-0.2,0-0.5,0.1-0.7c0-0.5,0-1,0.1-1.5c0-0.4,0-0.7,0-1
			c0-0.6,0.1-1.2,0.1-1.8c0.1-0.6,0.2-1.2,0.3-1.8c0.1-0.4,0.1-0.8,0.2-1.2c0.1-0.5,0.1-1,0.2-1.6c0-0.4,0.1-0.9,0.2-1.3l0-0.4
			c0-0.4,0.1-0.9,0.1-1.3c0-0.4,0-0.9,0-1.3c0-0.4-0.1-0.8-0.1-1.1l-0.1-0.3c0-0.1,0-0.2-0.1-0.4l0,0c0,0,0,0,0-0.1
			c0-0.2-0.1-0.4-0.1-0.7l-0.1-0.5h0l-0.1-1.6l0.1-0.7l1-1.2c0.1-0.1,0.3-0.2,0.4-0.3V638l0.3-0.1c0.3-0.2,0.6-0.4,0.8-0.6
			c0.2-0.2,0.3-0.3,0.5-0.5c0.1-0.2,0.2-0.4,0.3-0.6c0.2-0.4,0.3-0.8,0.5-1.3c0.2-0.5,0.3-1.1,0.5-1.8c0.2-0.8,0.2-1.6,0.3-2.4
			l0-0.1l0.5-3.2c0-0.1,0-0.1,0-0.2c0.1-0.7,0.3-1.4,0.4-2.2l0.2-1.4c0-0.3,0.1-0.6,0.1-0.9l0-0.1c0.1-0.3,0.1-0.7,0.2-1
			c0.1-0.4,0.1-0.8,0.2-1.2c0.1-0.5,0.2-1,0.3-1.6c0.1-0.4,0.1-0.7,0.2-1.1c0.1-0.5,0.2-1,0.2-1.5c0.1-0.5,0.1-0.9,0.2-1.4l0.2-1.2
			c0.1-0.6,0.2-1.3,0.3-1.9l0.2-1.4c0-0.3,0.1-0.6,0.1-0.9c0.2-1.2,0.4-2.4,0.6-3.7l0.1-1l1.6-10.3c0.1-0.4,0.2-0.8,0.2-1.3l0.1-0.9
			c0.2-1,0.3-2.1,0.5-3.2c0.1-0.8,0.1-1.7,0.2-2.8l0-0.3l0.5-11.9h0l0-0.3c0-0.3,0.1-0.6,0.1-0.9c0-0.2,0.1-0.5,0.1-0.7l0.1-0.9
			c0-0.1,0-0.3,0-0.4c0-0.3,0-0.6,0.1-0.9c0-0.2,0-0.3,0-0.5l0-0.5c0-0.2,0-0.4,0-0.5l0.2-2h0l0-0.3c0-0.2,0-0.4,0.1-0.6
			c0.1-0.8,0-1.4-0.1-2.1c0-0.3-0.1-0.5-0.1-0.7c0-0.2-0.1-0.4-0.1-0.6c0-0.3-0.1-0.6-0.1-0.9l-0.1-0.8l0,0l-1.7-14.1h0
			c0-0.4,0-0.8-0.1-1.2l0-0.2c0-0.6-0.1-1.2-0.2-1.8c-0.1-0.8-0.2-1.6-0.3-2.3c0-0.1,0-0.2-0.1-0.4c-0.3-2-0.6-3.8-1-5.6
			c-0.1-0.6-0.2-1.1-0.2-1.6l-0.1-0.6h0l-0.2-2.2c0-0.3-0.1-0.6-0.1-0.9c-0.1-1.3-0.3-2.5-0.5-3.6l-0.6-3.9l0-0.1c0-0.1,0-0.3,0-0.4
			l0-0.1c0.1-1.1,0.1-2.4,0.1-3.6l0-0.3h0.1l0.3-10l-0.1-0.3c0-0.8,0-1.6-0.1-2.4c0-0.6-0.1-1.1-0.1-1.6l0-0.3c0-0.2,0-0.3,0-0.5
			l0-0.3c0-0.1,0-0.2,0-0.2c0-0.1,0-0.1,0-0.2c0-0.2,0-0.3,0-0.3l0-0.1c0-0.1,0-0.1,0-0.2l-0.1-0.2c0-0.1,0-0.2-0.1-0.2l-0.4-1.3
			c-0.1-0.4-0.3-0.8-0.4-1.2l-0.4-1.5l0-0.1c0-0.1,0-0.2,0-0.3l0-0.1c0-0.4,0-0.8,0-1.2c0-0.1,0-0.2,0-0.4l0-0.2
			c0-0.6,0-1.2-0.1-1.9c-0.1-0.5-0.1-0.9-0.2-1.3l-0.2-1.4c0-0.1,0-0.1,0-0.1l0-0.1c0-0.2-0.1-0.4-0.1-0.6c-0.1-0.3-0.2-0.6-0.3-0.9
			c-0.1-0.3-0.3-0.6-0.4-0.8c-0.2-0.3-0.4-0.6-0.7-0.9c-0.3-0.3-0.6-0.6-0.8-0.8c-0.6-0.5-1.1-1-1.6-1.5l-0.1-0.1
			c-0.2-0.2-0.4-0.3-0.6-0.5c-0.3-0.2-0.6-0.4-0.9-0.6c-0.2-0.1-0.4-0.2-0.6-0.3c-0.2-0.1-0.4-0.2-0.6-0.3l-0.1,0
			c-0.3-0.1-0.6-0.3-0.9-0.4c-0.3-0.1-0.5-0.2-0.8-0.3c-0.2-0.1-0.3-0.1-0.5-0.2l-0.2-0.1c-0.4-0.1-0.8-0.3-1.2-0.5
			c-0.2-0.1-0.5-0.2-0.7-0.3l-0.2-0.1l0.3-2l2.9-4.5l0.2-0.1l0.4,0c0,0,0,0,0.1,0l0.9,0.1c0.4,0,0.8,0,1.2,0c0.4,0,0.7-0.1,1-0.2
			c0.3-0.1,0.5-0.2,0.8-0.3c0.2-0.1,0.4-0.2,0.5-0.4c0.1-0.1,0.2-0.2,0.3-0.3c0.1-0.1,0.2-0.3,0.3-0.5c0.1-0.2,0.2-0.4,0.2-0.6
			l0.2-0.7c0.1-0.2,0.1-0.4,0.2-0.6c0.1-0.2,0.1-0.4,0.2-0.5c0-0.1,0.1-0.2,0.1-0.3l0.1-0.2c0.1-0.2,0.1-0.2,0.2-0.3l0.1-0.2
			c0.1-0.3,0.2-0.6,0.3-0.9c0.1-0.2,0.1-0.5,0.2-0.7c0-0.2,0.1-0.4,0.1-0.6c0-0.1,0-0.1,0-0.2l0-1.2l1.4-1.7c0-0.1,0-0.1,0.1-0.2
			c0-0.1,0-0.1,0-0.2c0-0.1,0-0.3-0.1-0.4c-0.1-0.3-0.2-0.6-0.5-1c-0.1-0.1-0.1-0.2-0.2-0.3c-0.1-0.2-0.2-0.3-0.3-0.5l-0.2-0.4
			l-0.2-1l0.3-1.3l0.4-0.8c0.1-0.1,0.2-0.2,0.3-0.4l0.1-0.1c0.1-0.1,0.2-0.3,0.3-0.4c0.1-0.1,0.1-0.3,0.2-0.4
			c0.1-0.2,0.2-0.5,0.2-0.8l0-0.1c0-0.6,0-1.1,0-1.7l0-1.2c0-0.2,0.1-0.5,0.1-0.7l0.2-0.6l0.3,0l-0.3-0.1l0.1-0.4
			c0.1-0.2,0.1-0.4,0.2-0.6c0.1-0.3,0.1-0.6,0-0.9c0-0.2-0.1-0.4-0.1-0.6l-0.1-0.4c0-0.1,0-0.3-0.1-0.4l0-0.6c0-0.1,0-0.2,0.1-0.3
			c0-0.1,0.1-0.2,0.1-0.3l0-0.1c0,0,0-0.1,0.1-0.1l0.1-0.3c0,0,0-0.1,0-0.1c0.1-0.2,0.1-0.4,0.1-0.5c0-0.1,0-0.2,0-0.2v-0.2
			c0,0,0-0.1,0-0.2c0-0.1,0-0.1,0-0.2c0,0,0-0.1,0-0.1c0-0.1,0-0.1-0.1-0.2c-0.1-0.1-0.2-0.3-0.3-0.4c-0.1-0.1-0.3-0.3-0.4-0.4
			c-0.2-0.2-0.5-0.3-0.8-0.4l-0.6-0.2c-0.3-0.1-0.5-0.2-0.7-0.3c-0.1,0-0.2-0.1-0.3-0.1l-0.1,0c-0.1,0-0.2-0.1-0.3-0.1l-0.3-0.2
			c-0.1-0.1-0.2-0.1-0.4-0.2c-0.1-0.1-0.2-0.1-0.3-0.2c-0.1,0-0.1-0.1-0.1-0.1l-0.1-0.1l0.1-0.3l-0.2,0.3c-0.1-0.1-0.2-0.1-0.2-0.1
			c-0.1-0.1-0.2-0.1-0.3-0.2c-0.3-0.2-0.7-0.3-1-0.4c-0.5-0.2-1-0.4-1.6-0.5l-1.7-0.5c-0.4-0.1-0.8-0.2-1.1-0.4l-0.2-0.1
			c-0.3-0.1-0.7-0.2-1-0.3c-0.3-0.1-0.7-0.2-1.1-0.3c-0.3-0.1-0.6-0.1-1-0.2c-0.4-0.1-0.8-0.1-1.2-0.1c-0.3,0-0.6,0-0.9-0.1
			c-0.4,0-0.8-0.1-1.2-0.1c-0.4,0-0.7,0-1.1,0c-0.4,0-0.9,0.1-1.4,0.1c-0.2,0-0.3,0-0.4,0.1c-0.2,0-0.3,0.1-0.5,0.1l-0.3,0.1
			c-0.1,0-0.3,0.1-0.4,0.2c-0.7,0.3-1.4,0.8-1.9,1.3c-0.6,0.6-1.2,1.2-1.8,1.9l0,0l-0.2,0.2c-0.5,0.5-0.9,1-1.3,1.5
			c-0.6,0.9-1.2,2-1.6,3.1l-0.2,0.4c-0.2,0.4-0.3,0.8-0.5,1.3c-0.1,0.2-0.1,0.4-0.2,0.6l-0.3,1.1c0,0.1,0,0.1,0,0.2l-0.1,0.5
			c0,0.2-0.1,0.4-0.1,0.5c-0.1,0.5-0.2,1.1-0.2,1.6c0,0.4,0,0.7,0,1.1c0,0.4,0,0.8,0.1,1.2c0,0.4,0.1,0.7,0.2,0.9
			c0.1,0.4,0.2,0.7,0.4,1.1c0.1,0.2,0.2,0.3,0.3,0.5l0,0.1l2.4,5.5c0.1,0.4,0.2,0.7,0.3,1l1,5.8l-2.3,4.9l-2.9,2.8
			c-0.1,0.1-0.2,0.1-0.2,0.1c-0.1,0.1-0.1,0.1-0.2,0.1c-0.1,0-0.1,0-0.1,0.1c0,0-0.1,0-0.2,0.1l-0.5,0.3c-0.3,0.2-0.5,0.4-0.8,0.7
			c-0.3,0.3-0.6,0.6-0.9,1l-0.4,0.5c-0.2,0.2-0.4,0.5-0.6,0.7c-0.2,0.3-0.5,0.5-0.7,0.8l-0.5,0.6c-0.3,0.3-0.5,0.6-0.7,0.9l-1.1,1.2
			c-0.1,0.1-0.1,0.1-0.2,0.2l-0.3,0.3c0,0-0.1,0.1-0.1,0.1c0,0-0.1,0.1-0.1,0.1c0,0,0,0-0.1,0.1l-0.2,0.2c0,0-0.1,0.1-0.1,0.1
			c-0.1,0.1-0.1,0.1-0.2,0.2l-0.6,0.6c-0.1,0.1-0.3,0.3-0.4,0.5c-0.2,0.3-0.4,0.6-0.6,0.9c-0.3,0.5-0.6,1.1-0.9,1.8l-0.4,1
			c-0.1,0.2-0.2,0.4-0.3,0.6l-0.2,0.3c-0.2,0.2-0.3,0.5-0.4,0.7c-0.4,0.7-0.7,1.5-1.1,2.5c-0.1,0.3-0.2,0.6-0.3,1
			c-0.1,0.4-0.1,0.7-0.1,1c0,0.4,0,0.8,0,1.2l0,1c0,0.1,0,0.2,0,0.2c0,0,0,0.1,0,0.1l0,0.1c0,0.3,0,0.6,0,0.9c0,0.1,0,0.1,0,0.1
			c0,0.3,0.1,0.7,0.2,1c0.1,0.2,0.1,0.4,0.2,0.6l0,0.1l0.1,1.6c0,1.5,0.1,3,0.2,4.5c0,1,0.1,2,0.2,3l0.2,2.3
			c0.1,0.9,0.1,1.8,0.3,2.7l0,0.4h0l0.1,3.2c0,0.5,0.1,0.9,0.2,1.4c0,0.2,0.1,0.4,0.1,0.6l0.1,0.4c0.1,0.3,0.1,0.7,0.2,1
			c0.1,0.6,0.1,1.1,0.1,1.7l0,0.3c0,1,0.1,2,0.2,2.9c0,0.4,0.1,0.8,0.1,1.2c0.1,0.8,0.2,1.5,0.2,2.3c0,0.4,0,0.8,0.1,1.2
			c0,0.6,0,1.2,0.1,1.7c0.1,0.6,0.3,1.2,0.5,1.7c0.2,0.4,0.5,0.8,0.8,1.3l0.2,0.2c0.5,0.7,0.9,1.5,1.4,2.4l0.5,1
			c0.6,1.1,1.2,2.3,1.9,3.5l0.1,0.2l0,0c0.2,0.3,0.4,0.6,0.5,0.8l0.1,0.2l-0.1,0.1c-0.1,0.3-0.1,0.5-0.2,0.8c0,0.2,0,0.4-0.1,0.6
			c0,0.1,0,0.2,0,0.3c0,0.2,0,0.4,0,0.6c0,0.2,0,0.4,0.1,0.5c0,0.2,0.1,0.4,0.2,0.6c0,0.1,0.1,0.3,0.1,0.4l0.1,1l-0.3,0.9
			c-0.1,0.3-0.3,0.6-0.4,0.9l-0.2,0.4c-0.1,0.2-0.2,0.4-0.2,0.6c-0.1,0.1-0.1,0.3-0.2,0.4c0,0.1-0.1,0.2-0.1,0.3c0,0.1,0,0.2,0,0.2
			c0,0.1,0,0.1,0,0.2l0,0.1c0,0.1,0,0.2,0,0.2c0,0,0,0.1,0,0.2c0,0,0,0.1,0,0.2l-0.3,0.1h0.3c0,0,0,0.1,0,0.1c0,0.1,0,0.1,0,0.2
			c0,0.1,0,0.2,0,0.2c0,0.1,0,0.2,0,0.3l0.1,0.3c0,0.1,0,0.1,0,0.2l0,0.1l-0.6,2c0,0.1-0.1,0.1-0.1,0.2l-0.1,0.1
			c-0.1,0.2-0.2,0.4-0.2,0.5c-0.1,0.3-0.2,0.7-0.2,1.2l0,0.2c0,0.2,0,0.5,0,0.7c0,0.5,0,0.9,0,1.3c0,0.2,0,0.3,0.1,0.5
			c0,0.2,0.1,0.4,0.1,0.5l0.1,0.3c0,0.1,0,0.1,0.1,0.2l0.1,0.2c0,0.1,0.1,0.3,0.1,0.4c0.1,0.2,0.1,0.3,0.1,0.4l0.3,1.9
			c0.5,2.5,1.1,4.9,1.8,7.3l0.1,0.3l-0.1,0c0,0.1,0,0.2,0.1,0.4c0,0.1,0,0.2,0,0.3l0,0.1l-0.3,0.1l0.3,0l0.1,0.2l1.2,4.9l-0.1,1.6
			c0,0.2,0,0.4,0,0.6c0,0.4,0,0.9,0,1.4l0,4.5l-0.1,0.1c0,0,0,0,0,0l-0.1,0.1c-0.1,0.1-0.1,0.1-0.1,0.2c0,0,0,0-0.1,0.1
			c0,0-0.1,0.1-0.1,0.1c-0.1,0.1-0.1,0.1-0.1,0.1c-0.1,0.1-0.1,0.1-0.1,0.2c-0.1,0.1-0.2,0.2-0.2,0.3c-0.1,0.1-0.1,0.1-0.1,0.2
			c0,0.1-0.1,0.2-0.1,0.3c0,0,0,0.1,0,0.1l-0.3,0.1l0.3,0.1l0,0.2c0,0.1,0,0.3,0,0.4c0,0.2,0,0.4,0.1,0.6l0,0.3c0,0.1,0,0.2,0,0.3
			c0,0.4,0.1,0.8,0.1,1.2l-0.1,1.9l-0.2,1.9c-0.1,0.6-0.1,1.1-0.1,1.6c0,0.7,0,1.5,0.1,2.3l0,0.2c0,0.6,0.1,1.2,0.1,1.7l0,3.2
			c0,0.2,0,0.5,0,0.7c0,0.4,0,0.8,0,1.1c0,0.4,0.1,0.8,0.2,1.2c0,0.2,0.1,0.4,0.1,0.6l0,0.1c0,0.1,0.1,0.3,0.1,0.4l0,0.1
			c0.1,0.4,0.2,0.9,0.4,1.3c0.1,0.3,0.2,0.5,0.3,0.8l0.1,0.4c0.1,0.3,0.2,0.5,0.3,0.8l0.2,0.4c0.1,0.2,0.1,0.4,0.2,0.6l0,0.1
			l0.2,0.8l0,0.1l-0.1,0.2c-0.2,0.3-0.3,0.5-0.4,0.7c-0.1,0.1-0.1,0.2-0.1,0.3l-0.4,1.2c-0.1,0.4-0.2,0.7-0.3,1.1
			c-0.1,0.3-0.1,0.7-0.1,1.2l0,0.5c0,0.3,0,0.4,0,0.6l0,0.3c0,0.1,0,0.2,0,0.3c-0.1,0.5-0.1,1.1-0.2,1.6l-1.2,10l-0.1,0.4
			c0,0.1-0.1,0.3-0.1,0.4c-0.1,0.5-0.2,0.9-0.2,1.3c0,0.2,0,0.4-0.1,0.7l0,0.5c0,0.3,0,0.6-0.1,0.9l-0.4,2.3c-0.1,0.3-0.1,0.7-0.2,1
			c-0.1,0.5-0.1,1-0.1,1.5c0,0.2,0,0.4,0,0.6l-0.2,2.3c-0.1,0.7-0.1,1.3-0.2,2l0,0.1c-0.2,2.2-0.3,4.4-0.3,6.5l0,0.3h0
			c0,0.6,0,1.1,0,1.7l0,0.3c0,0.1,0,0.2,0,0.3c0,0.2,0,0.3,0,0.4c0,0.2,0,0.3-0.1,0.5c0,0.1,0,0.2,0,0.3l-0.1,0.5
			c-0.1,0.5-0.1,0.9-0.2,1.4c-0.1,0.5-0.1,1.1-0.1,1.9c0,0.5,0,1,0,1.5l0,1c0,0.4,0,0.9,0,1.3c0,0.3,0,0.6,0,0.9
			c0,0.8,0,1.8,0.1,2.9c0,0.3,0.1,0.6,0.1,0.9c0.1,0.6,0.1,1.3,0.2,1.9c0,0.5,0,1,0.1,1.5l0,0.6c0.1,1.3,0.1,2.3,0.2,3.3
			c0.1,0.6,0.1,1.1,0.2,1.7c0.1,0.7,0.2,1.4,0.2,1.9c0.1,0.5,0.2,0.9,0.3,1.4c0.1,0.3,0.1,0.5,0.2,0.8l0.1,0.8l-0.1,1.4
			c0,0.1,0,0.2,0,0.2l-0.1,0.5c0,0.1,0,0.3-0.1,0.4c0,0.1,0,0.1,0,0.2c0,0.1-0.1,0.2-0.1,0.4l-0.1,0.3c-0.1,0.2-0.1,0.4-0.2,0.6
			l-0.1,0.3l-0.1,0.1c0,0.1-0.1,0.1-0.1,0.2c0,0.1-0.1,0.1-0.1,0.1c-0.1,0.1-0.1,0.2-0.2,0.4c-0.1,0.2-0.1,0.5-0.2,0.7
			c-0.1,0.5-0.1,1.1-0.1,1.7c0,0.7,0,1.5-0.1,2.4l0,0.4c-0.1,0.5-0.1,1-0.1,1.5c0,0.3,0,0.6,0,0.9c0,0.2,0,0.3,0.1,0.5
			c0,0.1,0.1,0.3,0.1,0.4c0,0.1,0,0.1,0.1,0.2c0,0.1,0.1,0.1,0.1,0.2c0,0,0.1,0.1,0.1,0.1c0,0,0.1,0.1,0.1,0.1c0,0,0.1,0,0.1,0.1
			c0,0,0.1,0.1,0.1,0.1c0.1,0,0.1,0,0.2,0.1l0.1,0c0,0,0.1,0,0.1,0l0.3,0c0,0,0.1,0,0.1,0c0.1,0,0.2,0,0.3,0
			C127,699.8,127,699.8,127.1,699.8z M153.4,474.1L153.4,474.1l0-0.1L153.4,474.1z"/>
	</g>
</g>
<g>
	<g id="XMLID_00000074400569390069537590000009954619056164903334_">
		<g>
			<g>
				<path class="st0" d="M711,366.3c-0.1,0-0.3-0.1-0.3-0.3c0-0.1,0-0.1,0-0.2c0-0.1,0.2-0.2,0.3-0.2c0.1,0,0.2,0.2,0.2,0.3
					c0,0,0,0,0,0C711.2,366.2,711.1,366.3,711,366.3z"/>
			</g>
			<g>
				<path class="st0" d="M711,366.3c-0.1,0-0.3-0.1-0.3-0.3s0.1-0.3,0.3-0.3s0.3,0.1,0.3,0.3v0C711.2,366.2,711.1,366.3,711,366.3z"
					/>
			</g>
			<g>
				<path class="st0" d="M711,367.8c-0.1,0-0.3-0.1-0.3-0.3v-1.5c0-0.1,0.1-0.3,0.3-0.3s0.3,0.1,0.3,0.3v1.5
					C711.2,367.7,711.1,367.8,711,367.8z"/>
			</g>
			<g>
				<path class="st0" d="M711.2,367.6L711.2,367.6c0-0.1,0-0.1-0.1-0.2c0,0-0.1,0-0.1,0c0,0,0,0-0.1,0s-0.1,0-0.1,0
					c-0.1,0-0.1,0.1-0.1,0.1v0c0,0,0,0,0,0c0,0,0,0,0,0.1s0,0,0,0v0c0,0,0,0,0,0v0c0,0,0,0,0,0c0,0.1,0.1,0.1,0.1,0.1
					c0,0,0.1,0,0.1,0s0.1,0,0.1,0h0c0.1,0,0.1-0.1,0.1-0.2C711.2,367.7,711.2,367.7,711.2,367.6
					C711.2,367.6,711.2,367.6,711.2,367.6C711.2,367.6,711.2,367.6,711.2,367.6z"/>
			</g>
			<g>
				<path class="st0" d="M711,369.5c-0.1,0-0.3-0.1-0.3-0.3c0-0.1,0-0.1,0-0.2c0.1-0.1,0.2-0.2,0.3-0.1c0.1,0.1,0.2,0.2,0.1,0.3
					l-0.2-0.1l0.2,0.1C711.2,369.4,711.1,369.5,711,369.5z"/>
			</g>
			<g>
				<path class="st0" d="M711,373.5c-0.1,0-0.3-0.1-0.3-0.3v-4c0-0.1,0.1-0.3,0.3-0.3s0.3,0.1,0.3,0.3v4
					C711.2,373.4,711.1,373.5,711,373.5z"/>
			</g>
			<g>
				<path class="st0" d="M711.2,373.3L711.2,373.3c0-0.1-0.1-0.2-0.3-0.2c-0.1,0-0.2,0.1-0.2,0.2c0,0,0,0,0,0.1c0,0,0,0.1,0,0.1
					s0,0.1,0,0.1c0.1,0.1,0.1,0.1,0.2,0.1c0,0,0.1,0,0.1,0C711.2,373.6,711.2,373.5,711.2,373.3
					C711.2,373.3,711.2,373.3,711.2,373.3z"/>
			</g>
			<g>
				<path class="st0" d="M711,375.2c-0.1,0-0.3-0.1-0.3-0.3c0-0.1,0-0.1,0-0.2c0.1-0.1,0.2-0.2,0.3-0.1c0.1,0.1,0.2,0.2,0.1,0.3
					C711.2,375.1,711.1,375.2,711,375.2z"/>
			</g>
			<g>
				<path class="st0" d="M711,376.8c-0.1,0-0.3-0.1-0.3-0.3V375c0-0.1,0.1-0.3,0.3-0.3s0.3,0.1,0.3,0.3v1.5
					C711.2,376.6,711.1,376.8,711,376.8z"/>
			</g>
			<g>
				<path class="st0" d="M711,376.8c-0.1,0-0.3-0.1-0.3-0.3s0.1-0.3,0.3-0.3s0.3,0.1,0.3,0.3v0C711.2,376.7,711.1,376.8,711,376.8z"
					/>
			</g>
			<g>
				<path class="st0" d="M711.2,376.6c0,0.1-0.1,0.2-0.2,0.2c0,0,0,0-0.1,0c-0.1,0-0.2-0.1-0.2-0.2c0,0,0,0,0-0.1v-0.1c0,0,0,0,0,0
					v0c0,0,0,0,0,0c0,0,0-0.1,0.1-0.1c0,0,0.1-0.1,0.2-0.1s0.1,0,0.2,0.1c0,0,0.1,0.1,0.1,0.2v0
					C711.2,376.5,711.2,376.5,711.2,376.6C711.2,376.6,711.2,376.6,711.2,376.6z"/>
			</g>
			<g>
				<path class="st0" d="M1077.2,295.3h-0.5c-0.1,0-0.3-0.1-0.3-0.3s0.1-0.3,0.3-0.3h0.5c0.1,0,0.3,0.1,0.3,0.3
					S1077.4,295.3,1077.2,295.3z"/>
			</g>
			<g>
				<path class="st0" d="M1078.8,295.3h-1.5c-0.1,0-0.3-0.1-0.3-0.3s0.1-0.3,0.3-0.3h1.5c0.1,0,0.3,0.1,0.3,0.3
					S1078.9,295.3,1078.8,295.3z"/>
			</g>
			<g>
				<path class="st0" d="M1079,295.3h-0.2c-0.1,0-0.3-0.1-0.3-0.3s0.1-0.3,0.3-0.3h0.2c0.1,0,0.3,0.1,0.3,0.3
					S1079.1,295.3,1079,295.3z"/>
			</g>
			<g>
				<path class="st0" d="M1079.3,295.3h-0.3c-0.1,0-0.3-0.1-0.3-0.3s0.1-0.3,0.3-0.3h0.3c0.1,0,0.3,0.1,0.3,0.3
					S1079.4,295.3,1079.3,295.3z"/>
			</g>
			<g>
				<path class="st0" d="M1079.9,295.3h-0.6c-0.1,0-0.3-0.1-0.3-0.3s0.1-0.3,0.3-0.3h0.6c0.1,0,0.3,0.1,0.3,0.3
					S1080.1,295.3,1079.9,295.3z"/>
			</g>
			<g>
				<path class="st0" d="M1080.2,295.3h-0.3c-0.1,0-0.3-0.1-0.3-0.3s0.1-0.3,0.3-0.3h0.3c0.1,0,0.3,0.1,0.3,0.3
					S1080.4,295.3,1080.2,295.3z"/>
			</g>
			<g>
				<path class="st0" d="M1080.5,295.3h-0.2c-0.1,0-0.3-0.1-0.3-0.3s0.1-0.3,0.3-0.3h0.2c0.1,0,0.3,0.1,0.3,0.3
					S1080.6,295.3,1080.5,295.3z"/>
			</g>
			<g>
				<path class="st0" d="M1082,295.3h-1.5c-0.1,0-0.3-0.1-0.3-0.3s0.1-0.3,0.3-0.3h1.5c0.1,0,0.3,0.1,0.3,0.3
					S1082.1,295.3,1082,295.3z"/>
			</g>
			<g>
				<path class="st0" d="M1082.7,295.1c0,0.1-0.1,0.3-0.3,0.3h-0.5c-0.1,0-0.3-0.1-0.3-0.3c0-0.1,0.1-0.2,0.3-0.2h0.5
					C1082.6,294.8,1082.7,294.9,1082.7,295.1z"/>
			</g>
			<g>
				<path class="st0" d="M1082.7,295.1c0,0.1-0.1,0.3-0.3,0.3h-0.2v-0.3c0,0,0-0.1,0-0.1c0-0.1,0.1-0.1,0.2-0.1
					C1082.6,294.8,1082.7,294.9,1082.7,295.1z"/>
			</g>
			<g>
				<path class="st0" d="M1077,371.3c0,0.1-0.1,0.3-0.3,0.3h-0.3v-0.3c0-0.1,0.1-0.2,0.2-0.2c0,0,0.1,0,0.1,0c0,0,0.1,0,0.1,0
					C1076.9,371.1,1077,371.2,1077,371.3z"/>
			</g>
			<g>
				<path class="st0" d="M1076.7,369.3c-0.1,0-0.3-0.1-0.3-0.3v-1.2c0-0.1,0.1-0.3,0.3-0.3s0.3,0.1,0.3,0.3v1.2
					C1077,369.2,1076.9,369.3,1076.7,369.3z"/>
			</g>
			<g>
				<path class="st0" d="M1076.7,365.8c-0.1,0-0.3-0.1-0.3-0.3v-70.5c0-0.1,0.1-0.3,0.3-0.3s0.3,0.1,0.3,0.3v70.5
					C1077,365.7,1076.9,365.8,1076.7,365.8z"/>
			</g>
			<g>
				<path class="st0" d="M711.5,371.5H711c-0.1,0-0.3-0.1-0.3-0.3s0.1-0.3,0.3-0.3h0.5c0.1,0,0.3,0.1,0.3,0.3
					S711.6,371.5,711.5,371.5z"/>
			</g>
			<g>
				<path class="st0" d="M713,371.5h-1.5c-0.1,0-0.3-0.1-0.3-0.3s0.1-0.3,0.3-0.3h1.5c0.1,0,0.3,0.1,0.3,0.3S713.1,371.5,713,371.5z
					"/>
			</g>
			<g>
				<path class="st0" d="M713.2,371.5H713c-0.1,0-0.3-0.1-0.3-0.3s0.1-0.3,0.3-0.3h0.2c0.1,0,0.3,0.1,0.3,0.3
					S713.4,371.5,713.2,371.5z"/>
			</g>
			<g>
				<path class="st0" d="M714.7,371.5h-0.2c-0.1,0-0.3-0.1-0.3-0.3s0.1-0.3,0.3-0.3h0.2c0.1,0,0.3,0.1,0.3,0.3
					S714.8,371.5,714.7,371.5z"/>
			</g>
			<g>
				<path class="st0" d="M716.2,371.5h-1.5c-0.1,0-0.3-0.1-0.3-0.3s0.1-0.3,0.3-0.3h1.5c0.1,0,0.3,0.1,0.3,0.3
					S716.4,371.5,716.2,371.5z"/>
			</g>
			<g>
				<path class="st0" d="M717,371.3c0,0.1-0.1,0.3-0.3,0.3h-0.5c-0.1,0-0.3-0.1-0.3-0.3c0-0.1,0.1-0.3,0.3-0.3h0.5
					C716.8,371,717,371.1,717,371.3z"/>
			</g>
			<g>
				<path class="st0" d="M717,371.3v0.3h-0.5v-0.3c0,0,0-0.1,0-0.1v0c0,0,0,0,0.1-0.1s0,0,0.1-0.1c0,0,0.1,0,0.1,0
					C716.8,371,717,371.1,717,371.3z"/>
			</g>
			<g>
				<path class="st0" d="M711.2,371.3v5.4c0,0.1-0.1,0.2-0.2,0.2c0,0,0,0-0.1,0c-0.1,0-0.2-0.1-0.2-0.2c0,0,0,0,0-0.1v-5.4
					c0,0,0-0.1,0-0.1c0-0.1,0.1-0.1,0.1-0.1c0,0,0.1,0,0.1,0s0.1,0,0.1,0c0.1,0,0.1,0.1,0.1,0.1v0
					C711.2,371.2,711.2,371.2,711.2,371.3z"/>
			</g>
			<g>
				<path class="st0" d="M1076.7,366.3c-0.1,0-0.3-0.1-0.3-0.3v-0.5c0-0.1,0.1-0.3,0.3-0.3s0.3,0.1,0.3,0.3v0.5
					C1077,366.2,1076.9,366.3,1076.7,366.3z"/>
			</g>
			<g>
				<path class="st0" d="M1076.7,367.8c-0.1,0-0.3-0.1-0.3-0.3V366c0-0.1,0.1-0.3,0.3-0.3s0.3,0.1,0.3,0.3v1.5
					C1077,367.7,1076.9,367.8,1076.7,367.8z"/>
			</g>
			<g>
				<path class="st0" d="M1076.7,368.1c-0.1,0-0.3-0.1-0.3-0.3v-0.2c0-0.1,0.1-0.3,0.3-0.3s0.3,0.1,0.3,0.3v0.2
					C1077,368,1076.9,368.1,1076.7,368.1z"/>
			</g>
			<g>
				<path class="st0" d="M1076.7,369.5c-0.1,0-0.3-0.1-0.3-0.3V369c0-0.1,0.1-0.3,0.3-0.3s0.3,0.1,0.3,0.3v0.2
					C1077,369.4,1076.9,369.5,1076.7,369.5z"/>
			</g>
			<g>
				<path class="st0" d="M1076.7,371.1c-0.1,0-0.3-0.1-0.3-0.3v-1.5c0-0.1,0.1-0.3,0.3-0.3s0.3,0.1,0.3,0.3v1.5
					C1077,370.9,1076.9,371.1,1076.7,371.1z"/>
			</g>
			<g>
				<path class="st0" d="M1077,370.8v0.5c0,0.1-0.1,0.3-0.3,0.3c-0.2,0-0.3-0.1-0.3-0.3v-0.5c0-0.1,0.1-0.3,0.3-0.3
					C1076.9,370.5,1077,370.7,1077,370.8z"/>
			</g>
			<g>
				<path class="st0" d="M711,371.5c-0.1,0-0.3-0.1-0.3-0.3v-0.5c0-0.1,0.1-0.3,0.3-0.3s0.3,0.1,0.3,0.3v0.5
					C711.2,371.4,711.1,371.5,711,371.5z"/>
			</g>
			<g>
				<path class="st0" d="M711,371.1c-0.1,0-0.3-0.1-0.3-0.3v-1.5c0-0.1,0.1-0.3,0.3-0.3s0.3,0.1,0.3,0.3v1.5
					C711.2,370.9,711.1,371.1,711,371.1z"/>
			</g>
			<g>
				<path class="st0" d="M711,369.5c-0.1,0-0.3-0.1-0.3-0.3V369c0-0.1,0.1-0.3,0.3-0.3s0.3,0.1,0.3,0.3v0.2
					C711.2,369.4,711.1,369.5,711,369.5z"/>
			</g>
			<g>
				<path class="st0" d="M711,369.3c-0.1,0-0.3-0.1-0.3-0.3v-0.3c0-0.1,0.1-0.3,0.3-0.3s0.3,0.1,0.3,0.3v0.3
					C711.2,369.2,711.1,369.3,711,369.3z"/>
			</g>
			<g>
				<path class="st0" d="M711,369c-0.1,0-0.3-0.1-0.3-0.3v-0.6c0-0.1,0.1-0.3,0.3-0.3s0.3,0.1,0.3,0.3v0.6
					C711.2,368.9,711.1,369,711,369z"/>
			</g>
			<g>
				<path class="st0" d="M711,368.4c-0.1,0-0.3-0.1-0.3-0.3v-0.3c0-0.1,0.1-0.3,0.3-0.3s0.3,0.1,0.3,0.3v0.3
					C711.2,368.3,711.1,368.4,711,368.4z"/>
			</g>
			<g>
				<path class="st0" d="M711,368.1c-0.1,0-0.3-0.1-0.3-0.3v-0.2c0-0.1,0.1-0.3,0.3-0.3s0.3,0.1,0.3,0.3v0.2
					C711.2,368,711.1,368.1,711,368.1z"/>
			</g>
			<g>
				<path class="st0" d="M711,367.8c-0.1,0-0.3-0.1-0.3-0.3V366c0-0.1,0.1-0.3,0.3-0.3s0.3,0.1,0.3,0.3v1.5
					C711.2,367.7,711.1,367.8,711,367.8z"/>
			</g>
			<g>
				<path class="st0" d="M711,366.3c-0.1,0-0.3-0.1-0.3-0.3v-0.5c0-0.1,0.1-0.3,0.3-0.3s0.3,0.1,0.3,0.3v0.5
					C711.2,366.2,711.1,366.3,711,366.3z"/>
			</g>
			<g>
				<path class="st0" d="M1076.7,365.8H711c-0.1,0-0.3-0.1-0.3-0.3s0.1-0.3,0.3-0.3h365.8c0.1,0,0.3,0.1,0.3,0.3
					S1076.9,365.8,1076.7,365.8z"/>
			</g>
			<g>
				<path class="st0" d="M1077,371.3c0,0.1-0.1,0.3-0.3,0.3H716.7c-0.1,0-0.2-0.1-0.2-0.2v0c0,0,0-0.1,0-0.1s0-0.1,0-0.1v0
					c0,0,0,0,0.1-0.1s0,0,0.1-0.1c0,0,0.1,0,0.1,0h360.1c0,0,0.1,0,0.1,0C1076.9,371.1,1077,371.2,1077,371.3z"/>
			</g>
			<g>
				<path class="st0" d="M714.5,371.5h-1.2c-0.1,0-0.3-0.1-0.3-0.3s0.1-0.3,0.3-0.3h1.2c0.1,0,0.3,0.1,0.3,0.3
					S714.6,371.5,714.5,371.5z"/>
			</g>
			<g>
				<path class="st0" d="M341.5,660.6c0,0-0.1,0-0.1,0L341.5,660.6C341.5,660.6,341.5,660.6,341.5,660.6z"/>
			</g>
			<g>
				<path class="st0" d="M341.5,660.6c0,0-0.1,0-0.1,0L341.5,660.6C341.5,660.6,341.5,660.6,341.5,660.6z"/>
			</g>
			<g>
				<path class="st0" d="M1082.5,295.3h-0.2v372.9h-5.2V371.3c0,0.1-0.1,0.3-0.3,0.3h-0.3v296.7h-75.7v-7.4c0-0.1-0.1-0.2-0.2-0.2
					H861c0,0,0,0,0.1,0c0.1-0.1,0.3-0.2,0.4-0.3c0.1-0.1,0.2-0.3,0.3-0.4c0.1-0.1,0.1-0.2,0.1-0.4c0-0.2,0.1-0.3,0.1-0.5
					c0-0.4-0.1-1.1-0.2-1.4c-0.1-0.2-0.1-0.4-0.2-0.6c-0.1-0.1-0.2-0.3-0.4-0.4c-0.2-0.1-0.3-0.3-0.6-0.4c-0.1,0-0.2-0.1-0.3-0.1
					c-0.7-0.2-1.5-0.3-2.3-0.2c-0.1,0-0.3,0-0.4,0c-0.2,0-0.4,0-0.6,0.1l-0.5,0.1c-0.1,0-0.2,0-0.3,0c-0.2,0-0.4,0-0.6,0.1
					c-0.3,0-0.6,0-0.9,0h-0.1c-0.3,0-1.1-0.3-1.2-0.4l-0.2-0.2c-0.1-0.1-0.2-0.1-0.2-0.2c-0.1-0.1-0.3-0.2-0.4-0.4
					c-0.3-0.3-0.5-0.6-0.7-0.9c-0.1-0.2-0.3-0.5-0.5-0.8c-0.2-0.3-0.4-0.6-0.5-0.8c-0.2-0.2-0.3-0.5-0.5-0.7l0-0.1
					c-0.2-0.2-0.3-0.5-0.5-0.8c-0.4-0.5-0.7-0.8-1.1-1.1c-0.1-0.1-0.2-0.1-0.3-0.2c-0.1,0-0.1-0.1-0.2-0.1c-0.1,0-0.1-0.1-0.2-0.1
					v-0.1l-0.2,0c-0.1-0.1-0.2-0.2-0.2-0.3c-0.1-0.1-0.2-0.2-0.3-0.3c-0.1-0.1-0.2-0.2-0.2-0.4c0-0.1-0.1-0.1-0.1-0.2
					c0,0,0-0.1,0-0.1v-0.1h0l0-0.1c0,0,0.1-0.1,0.1-0.1l0.1-0.1c0-0.1,0.1-0.2,0.2-0.3c0.1-0.2,0.2-0.3,0.3-0.5
					c0.1-0.2,0.2-0.5,0.3-0.7c0.1-0.3,0.2-0.5,0.3-0.8c0.1-0.3,0.2-0.7,0.2-1.1c0.1-0.5,0.2-1,0.2-1.7c0.1-0.7,0.1-1.4,0.1-2
					c0-0.3,0-0.7,0-1c0-1.2,0.1-2.5,0-3.7c0-0.3-0.1-0.6-0.1-0.9c-0.1-0.9-0.2-1.8-0.3-2.5c-0.1-0.8-0.2-1.6-0.3-2.5
					c-0.1-0.7-0.1-1.4-0.1-2c0-0.2,0-0.5,0-0.8c0-0.2,0-0.4,0-0.5c0-0.2,0-0.4,0.1-0.6l0-0.1h0c0,0,0-0.1,0.1-0.1
					c0-0.1,0.1-0.2,0.1-0.2c0.1-0.2,0.2-0.3,0.2-0.5c0.2-0.4,0.3-0.9,0.4-1.3c0.2-0.5,0.3-1.1,0.4-1.6l0.4-1.7
					c0.1-0.5,0.2-1,0.4-1.5c0.1-0.6,0.3-1.2,0.4-1.8l0.3-1.1c0.2-0.7,0.3-1.3,0.5-2c0.2-0.9,0.3-1.7,0.4-2.4
					c0.1-0.7,0.2-1.6,0.2-2.4c0-0.8-0.1-1.7-0.1-2.5c-0.1-0.5-0.1-1.1-0.2-1.6c-0.1-0.4-0.3-0.9-0.5-1.4l-0.1-0.3
					c-0.1-0.2-0.2-0.4-0.3-0.6c-0.2-0.4-0.3-0.8-0.5-1.1c-0.2-0.5-0.6-1-0.9-1.4l0-0.4c0-0.4,0-0.8,0-1c0-0.2,0-0.4,0-0.6
					c0-0.4,0.1-0.7,0.2-1.1l0.2-0.9c0-0.3,0.1-0.6,0.1-0.9l0.1-1.7c0-0.1,0-0.2,0-0.4l0.1-0.7c0-0.1,0-0.2,0.1-0.4l0.1-0.3l-0.1,0
					c2.6-9,4.5-18.3,5.7-27.5c0,0,0.1-1.2,0.2-1.7l0.2-1.8c0.2-1.2,0.6-4,0.6-4.2c0.1-0.4,0.2-0.9,0.3-1.2l0.1-0.4
					c0.3-1.4,0.6-2.8,0.9-4.1l0-0.2c0.5-2.5,0.9-5.1,1-7.6c0.1-1.5,0.2-3,0.4-4.4c0.2-1.3,0.4-2.7,0.7-4l0.1-0.2
					c0.1-0.6,0.3-1.2,0.5-1.8l0.2-0.8c0.2-0.9,0.5-1.8,0.7-2.6l0.3-0.9c0.1-0.5,0.3-1.1,0.4-1.7c0-0.3,0.1-0.7,0.1-1.1
					c0-0.4,0-0.8,0-1.2l0-0.2c0-0.2,0-0.5,0-0.8l0-0.6c0-0.7,0-1.3,0-1.8c0-0.4,0.1-0.8,0.1-1.2c0-0.3,0.1-0.6,0.1-0.9
					c0.1-0.7,0.1-1.4,0.2-2.1c0-0.4,0.1-0.8,0.1-1.2c0-0.4,0.1-0.9,0.2-1.3c0.1-0.4,0.1-0.8,0.2-1.2c0-0.3,0.1-0.5,0.1-0.8
					c0-0.3,0-0.7,0.1-1c0-0.1,0-0.2,0-0.3l0-0.2c0.1-0.4,0.1-0.8,0.1-1.2c0-0.4,0.1-0.8,0.1-1.2c0-0.6,0.1-1.2,0.1-1.8
					c0-0.5,0-1,0.1-1.5c0-0.3,0-0.5,0-0.8c0-0.7,0-1.6-0.1-2.5c0-0.5-0.1-1-0.1-1.6c0-0.6-0.1-1.3-0.1-1.9c-0.1-0.9-0.2-1.7-0.3-2.6
					c-0.1-0.4-0.1-0.8-0.2-1.2l-0.1-0.5c0-0.2-0.1-0.5-0.1-0.8c-0.1-0.9-0.3-1.7-0.5-2.6c-0.2-0.8-0.4-1.5-0.5-2.3
					c-0.2-1-0.4-2.1-0.6-3.1c-0.1-0.7-0.2-1.4-0.3-2.1c0-0.4-0.1-0.7-0.1-1.1l0-0.1c-0.1-0.3-0.1-0.6-0.1-0.9c0-0.1,0-0.3,0.1-0.4
					l0.2-0.1c0.1,0,0.3-0.1,0.4-0.1c0.3-0.1,0.7-0.1,1-0.2l0.5-0.1c0.3-0.1,0.7-0.2,1.1-0.3c0,0,0,0,0,0l0.1,0
					c0.2,0,0.3-0.1,0.5-0.1c0.1,0,0.2-0.1,0.3-0.2c0.1-0.1,0.2-0.1,0.3-0.2l0.1-0.1c0,0,0.1-0.1,0.1-0.1c0.1-0.1,0.1-0.2,0.2-0.3
					c0.1-0.1,0.1-0.3,0.1-0.4c0-0.2,0-0.4,0-0.5c0-0.3-0.1-0.5-0.1-0.8c-0.1-0.4-0.2-0.9-0.3-1.3c-0.3-1.2-0.6-2.4-0.9-3.8
					c-0.1-0.5-0.2-1-0.3-1.5l-0.1-0.3c-0.1-0.3-0.1-0.5-0.2-0.8c-0.1-0.4-0.2-0.7-0.3-1.1l-0.2-0.6c-0.1-0.3-0.1-0.5-0.2-0.8
					c-0.1-0.3-0.1-0.5-0.2-0.8c0-0.2-0.1-0.4-0.1-0.6c-0.1-0.4-0.2-0.7-0.3-1.1c-0.1-0.6-0.3-1.3-0.4-2c-0.2-1.4-0.5-2.7-0.9-3.9
					c-0.1-0.5-0.3-0.9-0.4-1.4c-0.2-0.5-0.3-1.1-0.5-1.6c-0.2-0.8-0.5-1.6-0.7-2.3c-0.1-0.4-0.2-0.8-0.3-1.2l-0.1-0.2
					c-0.1-0.3-0.1-0.7-0.2-1c-0.1-0.5-0.3-0.9-0.5-1.3c-0.2-0.4-0.5-0.7-0.7-1c-0.2-0.3-0.5-0.6-0.8-0.9c-0.2-0.2-0.5-0.5-0.7-0.8
					c-0.5-0.5-0.9-0.9-1.4-1.2c-0.5-0.3-1-0.7-1.6-1c-0.7-0.4-1.4-0.8-2.1-1c-0.6-0.2-1.2-0.5-1.9-0.7c-0.5-0.2-1.1-0.4-1.6-0.6
					l-0.5-0.2c-0.5-0.2-1-0.4-1.5-0.6c-0.3-0.1-0.6-0.3-0.9-0.4c-0.3-0.2-0.5-0.3-0.8-0.5c-0.3-0.2-0.6-0.4-0.9-0.6
					c-0.2-0.1-0.3-0.2-0.5-0.4c-0.2-0.1-0.4-0.2-0.5-0.3L841,439c-0.2-0.1-0.3-0.2-0.5-0.3l-0.1,0c-0.1-0.1-0.2-0.1-0.3-0.1
					c-0.1-0.1-0.3-0.1-0.4-0.2c-0.1,0-0.1-0.1-0.2-0.1c0-0.1,0-0.2,0-0.3c0-0.4,0.1-0.9,0.2-1.3l0.1-0.4c0-0.2,0.1-0.4,0.1-0.6
					c0.1-0.3,0.1-0.7,0.1-1c0.5,0,0.9-0.1,1.4-0.2l0.3,0v0c0.3-0.1,0.6-0.2,0.9-0.4c0,0,0.1,0,0.1-0.1c0.3-0.2,0.5-0.3,0.7-0.6
					c0.2-0.2,0.4-0.5,0.6-0.8c0.2-0.4,0.4-0.7,0.6-1.1c0.1-0.3,0.3-0.5,0.4-0.8l0.2-0.4c0.2-0.3,0.3-0.7,0.5-1
					c0.2-0.5,0.4-1,0.6-1.6c0.1-0.5,0.2-0.9,0.3-1.3l0.1-0.3c0.1-0.3,0.1-0.6,0.2-0.8c0.1-0.3,0.1-0.5,0.2-0.8
					c0-0.2,0.1-0.5,0.2-0.7c0.1-0.2,0.1-0.4,0.1-0.6c0.1-0.3,0.1-0.7,0.1-1c0-0.3,0.1-0.7,0.1-1.2c0-0.2,0-0.4,0-0.6
					c0-0.2,0-0.5,0-0.7c0-0.1,0-0.2,0-0.4c0-0.2,0-0.3,0-0.4l0-0.1c0-0.1,0-0.2,0-0.3l0-0.1c0-0.1,0.1-0.3,0.1-0.4l0.1-0.2
					c0-0.1,0-0.1,0.1-0.2l0.1-0.3c0.1-0.1,0.1-0.2,0.1-0.4c0.1-0.2,0.1-0.4,0.2-0.6l0-0.1c0-0.1,0-0.2,0-0.4c0-0.2,0-0.4,0-0.6
					c0-0.1,0-0.3,0-0.4c0-0.2,0-0.4,0-0.6c0-0.2,0-0.3,0.1-0.5c0-0.2,0.1-0.3,0.1-0.5c0-0.1,0.1-0.3,0.2-0.4l0.4-0.7
					c0.1-0.1,0.2-0.3,0.2-0.5c0.1-0.2,0.1-0.3,0.2-0.5c0.1-0.2,0.1-0.4,0.2-0.6c0.1-0.2,0.1-0.5,0.1-0.8c0-0.4,0-0.8-0.1-1.1
					c-0.1-0.3-0.1-0.6-0.3-1c-0.2-0.6-0.5-1.2-0.8-1.8c0-0.1-0.1-0.1-0.1-0.2l-0.3,0.2l0.2-0.2l-0.3-0.5c-0.4-0.7-0.9-1.3-1.5-1.9
					c-0.5-0.5-0.9-0.9-1.5-1.4c-0.8-0.6-1.6-1.1-2.6-1.5l-0.2-0.1c-0.2-0.1-0.4-0.2-0.7-0.3l-0.9-0.4c-0.1-0.1-0.3-0.1-0.4-0.2
					l-0.6-0.2c-0.2-0.1-0.4-0.2-0.6-0.2l-0.4-0.2c-0.1-0.1-0.3-0.1-0.4-0.2c-0.3-0.1-0.7-0.2-1-0.3c-0.4-0.1-0.8-0.2-1.2-0.3
					c-0.3-0.1-0.7-0.1-1-0.1h-0.3c-0.6,0-1.3,0.1-1.9,0.2c-0.9,0.1-1.7,0.3-2.6,0.6c-0.3,0.1-0.6,0.2-0.9,0.3
					c-0.3,0.1-0.6,0.2-0.9,0.3c-0.3,0.1-0.6,0.2-0.9,0.3c-0.2,0.1-0.4,0.2-0.6,0.2c-0.2,0.1-0.4,0.2-0.7,0.4
					c-0.3,0.2-0.7,0.5-1.1,0.8c-0.2,0.2-0.5,0.4-0.7,0.7c-0.2,0.2-0.4,0.4-0.5,0.6c-0.2,0.2-0.3,0.5-0.5,0.7
					c-0.1,0.2-0.2,0.4-0.3,0.6c-0.1,0.1-0.2,0.2-0.2,0.3c-0.7,1-1.3,2.1-1.7,3.2c-0.2,0.6-0.4,1.2-0.5,1.8c0,0.3-0.1,0.6-0.1,0.9
					c0,0.4,0,0.7,0,1c0,0.5,0.1,0.9,0.2,1.4c0.1,0.7,0.2,1.4,0.3,2.1c0,0.1,0,0.2,0,0.3l0,0.2c0,0.1,0,0.2,0,0.3l0.1,0.8
					c0,0.2,0,0.4,0.1,0.6c0,0.2,0.1,0.5,0.1,0.8c0,0.2,0.1,0.4,0.1,0.6c0,0.2,0.1,0.3,0.1,0.5c0,0.1,0.1,0.3,0.2,0.4l0.1,0.2l0,0
					l0.2,0.4c0.3,0.7,0.6,1.4,1,2.1l0,0.2h0.1c0,0,0,0,0,0l0,0.1c0,0,0,0,0,0l0,0.1c0.1,0.1,0.1,0.3,0.1,0.4
					c0.1,0.8,0.2,1.6,0.3,2.4c0,0.4,0.1,0.7,0.1,1.1c0,0.2,0.1,0.5,0.1,0.8c0,0.3,0.1,0.6,0.2,1c0.1,0.4,0.2,0.9,0.2,1.3
					c0,0.2,0,0.4-0.1,0.6c0,0.2-0.1,0.3-0.1,0.5c-0.1,0.3-0.2,0.6-0.4,1c-0.1,0.2-0.2,0.3-0.2,0.5c-0.2,0.4-0.4,0.8-0.7,1.1
					c-0.2,0.3-0.5,0.6-0.8,0.9c-0.3,0.3-0.6,0.6-0.9,0.8c-0.3,0.2-0.5,0.4-0.8,0.5c-0.1,0.1-0.3,0.2-0.4,0.2
					c-0.3,0.1-0.6,0.2-0.9,0.3c-0.1,0-0.3,0.1-0.4,0.1c-0.2,0-0.4,0.1-0.6,0.1c-0.2,0-0.3,0.1-0.5,0.1c-0.1,0-0.3,0.1-0.4,0.2
					c-0.1,0.1-0.3,0.2-0.4,0.3c-0.2,0.2-0.5,0.4-0.7,0.5l-0.1,0.1c-0.4,0.3-0.8,0.6-1.2,0.9c-0.1,0.1-0.2,0.1-0.3,0.2l-0.3,0.1
					c-0.4,0.2-0.8,0.5-1.1,0.7l-0.3,0.2c-0.3,0.2-0.5,0.3-0.8,0.5c-0.4,0.2-0.7,0.4-1.2,0.5l-0.2,0.1c-0.3,0.1-0.6,0.2-1,0.4
					c-0.4,0.2-0.8,0.4-1.3,0.8c-0.7,0.5-1.6,0.9-2.3,1.2l-0.7,0.3c-0.9,0.4-1.8,0.9-2.6,1.3c-0.3,0.2-0.6,0.3-0.9,0.5
					c-0.1,0.1-0.3,0.2-0.4,0.3c-0.2,0.1-0.4,0.3-0.5,0.4c-0.3,0.2-0.5,0.4-0.6,0.6c-0.1,0.1-0.2,0.3-0.3,0.4
					c-0.1,0.1-0.1,0.3-0.2,0.4c0,0.1-0.1,0.2-0.1,0.3c0,0.1,0,0.2-0.1,0.2l0.3,0.1l-0.3,0c0,0.2-0.1,0.4-0.1,0.6
					c-0.1,0.3-0.2,0.7-0.4,1.1c-0.2,0.6-0.4,1.1-0.5,1.6c-0.2,0.7-0.4,1.7-0.5,2.8l0,0.3c-0.4,1.5-0.6,3-0.8,4.6l0,0.3
					c-0.4,3.5-0.7,7.1-0.8,10.7l-0.1,1c0,0.3-0.1,0.7-0.1,1.1c0,0.5-0.1,0.9-0.1,1.5l-0.1,0.6c0,0.2-0.1,0.3-0.1,0.5l0,0.1
					c0,0,0,0.1,0,0.1c0,0,0,0,0,0.1l0,0.3c0,0.1,0,0.2,0,0.2c0,0.2,0,0.4,0,0.5c0,0.2,0,0.3,0.1,0.4s0.1,0.3,0.2,0.5
					c0.1,0.1,0.1,0.2,0.2,0.4l0.1,0.2c0,0.1,0.1,0.1,0.1,0.2c0.1,0.1,0.1,0.2,0.2,0.4c0.1,0.1,0.1,0.2,0.1,0.3c0,0,0,0.1,0.1,0.2
					l0,0.1c0,0,0,0.1,0,0.1l0.1,0.4c0,0.2,0.1,0.4,0.1,0.6c0,0.3,0.1,0.6,0.1,0.9c0,0.4,0,0.9,0,1.3l0,0.7c0,1.4,0.1,2.8,0.1,4.2
					c0.1,1.3,0.2,2.5,0.4,3.5l0,0.2c0.1,0.8,0.3,1.6,0.4,2.5c0,0.5,0.1,0.9,0.1,1.4v0.3c0,0.4,0,0.9,0.1,1.3
					c0.1,0.4,0.2,0.9,0.5,1.5c0.2,0.4,0.4,0.8,0.6,1.2c0.3,0.6,0.5,1.1,0.8,1.7l0.5,1c0.3,0.5,0.5,1.1,0.8,1.6l0.9,1.9
					c0.4,0.8,0.8,1.6,1.3,2.5c0.3,0.5,0.6,1.1,0.9,1.6c0.3,0.5,0.6,1,0.8,1.5l0.2,0.4c0.1,0.2,0.2,0.5,0.4,0.7
					c0.3,0.6,0.6,1.1,1,1.7l0.1,0.2c0.1,0.1,0.1,0.2,0.2,0.3l0,0c0,0.1,0.1,0.2,0.1,0.3c0.1,0.1,0.1,0.2,0.2,0.4
					c0.1,0.3,0.2,0.5,0.4,0.8l0.2,0.6l0.3-0.1l-0.3,0.2l0.1,0.3c0,0.1,0,0.2,0,0.4c0,0.1,0,0.1,0,0.2c0,0.1,0,0.2,0,0.3v0.2
					c0,0.1,0,0.2,0,0.4c0,0.2,0,0.3-0.1,0.5c0,0.1,0,0.3-0.1,0.5c-0.1,0.7-0.2,1.3-0.2,2c0,0.2,0,0.4,0,0.6c0,0.1,0,0.2,0,0.3l0,0.1
					c0,0.1,0,0.2,0.1,0.3c0,0.2,0.1,0.4,0.1,0.6c0,0.1,0,0.3,0,0.4c0,0.1,0,0.3,0,0.5c0,0.2-0.1,0.4-0.2,0.6
					c-0.1,0.4-0.2,0.8-0.2,1.1c-0.1,0.6,0,1.2,0,1.8c0,0.2,0,0.4,0.1,0.6l0.1,0.4c0,0.3,0.1,0.5,0.1,0.8s0,0.5,0,0.8v0.1
					c0,0.1,0,0.3,0,0.4c0,0.1,0,0.3,0,0.4c0,0.1,0,0.2,0,0.3l0,0.3c0,0.2-0.1,0.3-0.1,0.4l-0.1,0.4c-0.1,0.3-0.2,0.7-0.2,1.1
					c0,0.1,0,0.2-0.1,0.4c0,0.1,0,0.2,0,0.4c0,0.2,0,0.3,0,0.5c0,0.2,0,0.4,0,0.7c0,0.4,0,0.9,0,1.3c0,0.4,0,0.8,0,1.2
					c0,0.3,0,0.6-0.1,0.8c0,0.4,0,0.8-0.1,1.1c0,1.1,0,2.2,0.1,3.2l0.1,1.2c0,0.5,0,1,0,1.5c-0.1,0.2-0.1,0.5-0.1,0.8
					c-0.1,0.6-0.1,1.1,0,1.7c0,0.2,0,0.4,0.1,0.6c0,0.2,0.1,0.5,0.1,0.7l0.1,0.7c0.1,0.3,0.1,0.6,0.2,1c0.1,0.5,0.2,1,0.2,1.6
					c0,0.2,0,0.4,0,0.5c0,0.1,0,0.3,0,0.5l0,0.5c0,0.1,0,0.2,0,0.3l0,0.4c0,0.2,0,0.5,0,0.7c0,0.1,0,0.3,0,0.4l0,0.1
					c0,0.2,0,0.4,0,0.6c0,0.4,0,0.8,0.1,1.1c0,0.4,0.1,0.9,0.2,1.2l0.1,0.8c0.1,0.8,0.3,1.5,0.5,2.1c0.2,0.5,0.3,1,0.5,1.6
					c0.1,0.3,0.1,4.7,0,6.8v0.3h0c0,0.2,0,0.5,0,0.8c0,0.7,0,1.4,0.1,2.1c0,0.4,0.1,0.7,0.1,1.1c0,0.3,0.1,0.6,0.1,0.9l0.1,0.9
					c0,0.3,0.1,0.6,0.1,0.9c0.1,0.7,0.2,1.2,0.3,1.9c0.1,0.3,0.1,0.6,0.2,0.9c0.1,0.4,0.2,0.8,0.2,1.3c0,0.2,0.1,0.4,0.1,0.5
					c0,0.2,0,0.3,0.1,0.5c0,0.2,0,0.4,0,0.6l-0.1,1.1c0,0.2,0,0.4-0.1,0.5c0,0.5-0.1,0.8-0.1,1.2c0,0.2,0,0.4,0,0.6l0.1,0.4
					c0,0.1,0,0.1,0,0.2c0,0,0,0.1,0,0.1l0,0.2c0,0,0,0,0,0.1v0c-0.1,0.8-0.2,1.5-0.3,2.3l0,0.3c0,0.3,0,0.7,0,1.1l0.1,1.1
					c0,0.2,0,0.5,0,0.7c0,0.5,0,0.9-0.1,1.4l0,0.2c-0.4,2-0.7,3.9-0.9,5.9l0,0.3c0,0.3,0,0.6,0,1c0,0.4,0,0.8,0,1.2
					c0,0.2,0,0.3,0,0.5c0,0.1,0,0.3-0.1,0.4l0,0.1c0,0.2-0.1,0.5-0.1,0.7l-0.1,0.4c0,0.2-0.1,0.4-0.1,0.6c0,0.2-0.1,0.4-0.1,0.5
					c0,0.2-0.1,0.5-0.1,0.8l0,0.8c0,0.5,0,0.9-0.1,1.4l-0.1,0.8c0,0.4-0.1,0.8-0.1,1.2c-0.1,0.7-0.1,1.5-0.1,2.2l-0.1,1.5
					c0,0.4,0,0.8,0,1.2c0,0.8,0,1.7,0.1,2.5l0,0.3c0,0.3,0,0.5,0.1,0.8c0,0.3,0,0.7,0,1.1c0,0.5,0,1-0.1,1.5c0,0.7-0.1,1.4-0.2,2.1
					l-0.1,0.4c-0.1,0.7-0.2,1.5-0.2,2.3c0,1,0,2,0.1,2.9l0,0.8c0,1,0.1,2,0.1,2.9c0.1,1.2,0.1,2.5,0.3,3.6c0,0.3,0.1,0.6,0.2,1
					l0,0.2c0,0.2,0.1,0.3,0.1,0.5c0.1,0.4,0.1,0.8,0.2,1.2c0,0.4,0.1,1,0.2,1.5c0,0.2,0,0.4,0,0.7v0.4c0,0.1,0,0.2,0,0.3
					c0,0.1,0,0.1,0,0.2c0,0.1,0,0.2-0.1,0.3l-0.2,0.7c-0.1,0.2-0.1,0.4-0.2,0.5c-0.1,0.6-0.2,1.1-0.3,1.6c-0.1,0.4-0.1,0.7-0.2,1.1
					c0,0.2-0.1,0.3-0.1,0.5c-0.1,0.4-0.1,0.7-0.2,1c-0.1,0.5-0.1,1.1,0,1.6c0.1,0.4,0.2,0.8,0.3,1.3c0.1,0.2,0.2,0.4,0.2,0.6
					l0.1,0.2c0,0,0,0.1,0.1,0.1c0.2,0.5,0.4,1.1,0.4,1.6c0,0.1,0,0.2,0,0.4c0,0.2,0,0.5,0,0.7c0,0.2-0.1,0.4-0.1,0.7l-0.1,0.6
					c0,0.2-0.1,0.4-0.1,0.6c0,0.3,0,0.6,0,0.9c0,0.3,0,0.5,0.1,0.8c0.1,0.4,0.1,0.6,0.2,0.9c0.1,0.1,0.1,0.2,0.2,0.4
					c0,0.1,0.1,0.1,0.1,0.2c0,0,0.1,0.1,0.1,0.1c0,0,0.1,0.1,0.1,0.1l0.2,0.2c0,0,0.1,0.1,0.2,0.1c0.1,0,0.2,0.1,0.2,0.1
					c0.1,0.1,0.3,0.1,0.4,0.2c0.1,0,0.2,0.1,0.3,0.1H717v-289h-0.5v296.7h-5.2V376.6c0,0.1-0.1,0.2-0.2,0.2c0,0,0,0-0.1,0
					c-0.1,0-0.2-0.1-0.2-0.2c0,0,0,0,0-0.1v283.9H341.5c0,0,0,0,0,0c0,0-0.1,0-0.1,0h-0.1l-147.2,39.4c0,0,0,0,0,0c0,0-0.1,0-0.1,0
					c0,0.1-0.1,0.1-0.1,0.2c0,0.1,0.1,0.3,0.3,0.3h28.5c0,0,0.1,0,0.1,0l0,0l118.7-31.7h179.1v30.4c0,0.4,0.3,0.7,0.7,0.7h12
					c0.4,0,0.7-0.3,0.7-0.7v-19h176.7v19c0,0.4,0.3,0.7,0.7,0.7h12c0.4,0,0.7-0.3,0.7-0.7v-19h345.1v19c0,0.4,0.3,0.7,0.7,0.7h12
					c0.4,0,0.7-0.3,0.7-0.7V295.1C1082.7,295.2,1082.6,295.3,1082.5,295.3z M341.1,668.3l-118.6,31.7h-26.5l145.1-38.8V668.3z
					 M341.7,668.2v-7.1h369.1v7.1H341.7z M533.5,699.1c0,0.1-0.1,0.2-0.2,0.2h-12c-0.1,0-0.2-0.1-0.2-0.2v-19h12.4V699.1z
					 M710.7,679.6H521v-10.9h189.7V679.6z M847.6,625.5l0.2,0l0.1,0.1L847.6,625.5z M811.5,659.9c-0.1,0-0.2-0.1-0.3-0.1
					c-0.1,0-0.1-0.1-0.2-0.1c0,0-0.1-0.1-0.1-0.1c0,0-0.1-0.1-0.2-0.2l-0.1-0.1c0,0,0-0.1-0.1-0.1c0,0,0-0.1-0.1-0.1
					c-0.1-0.1-0.1-0.2-0.1-0.3c-0.1-0.2-0.1-0.4-0.2-0.7c0-0.2,0-0.5-0.1-0.7c0-0.3,0-0.5,0-0.8c0-0.2,0-0.4,0.1-0.5l0.1-0.7
					c0.1-0.2,0.1-0.5,0.1-0.7c0-0.3,0-0.5,0-0.8c0-0.2,0-0.3,0-0.5c-0.1-0.6-0.3-1.2-0.5-1.8l-0.3,0.1l0.3-0.2l-0.1-0.3
					c-0.1-0.2-0.1-0.4-0.2-0.6c-0.2-0.4-0.3-0.8-0.3-1.2c-0.1-0.5-0.1-1,0-1.5c0-0.3,0.1-0.6,0.2-1c0-0.2,0.1-0.3,0.1-0.5
					c0.1-0.4,0.1-0.7,0.2-1.1c0.1-0.4,0.1-1,0.3-1.5c0-0.2,0.1-0.3,0.2-0.5l0.2-0.6c0-0.1,0-0.1,0-0.1c0-0.1,0-0.2,0.1-0.3
					c0-0.1,0-0.2,0-0.2c0-0.1,0-0.2,0-0.4c0-0.1,0-0.2,0-0.4c0-0.2,0-0.5,0-0.7c0-0.6-0.1-1.2-0.2-1.6c-0.1-0.4-0.1-0.9-0.2-1.3
					c0-0.2-0.1-0.3-0.1-0.5l0-0.2c-0.1-0.3-0.1-0.6-0.2-0.9c-0.2-1.1-0.2-2.3-0.3-3.6c0-0.9-0.1-1.9-0.1-2.9l0-0.8
					c0-0.9-0.1-1.9-0.1-2.9c0-0.8,0.1-1.5,0.2-2.2l0-0.4c0.1-0.7,0.2-1.4,0.2-2.1c0-0.5,0-1,0.1-1.5c0-0.4,0-0.8,0-1.1
					c0-0.3,0-0.5,0-0.8l0-0.3c-0.1-0.8-0.1-1.6-0.1-2.4c0-0.4,0-0.8,0-1.1l0.1-1.6c0-0.7,0.1-1.5,0.1-2.2c0-0.4,0.1-0.8,0.1-1.2
					l0.1-0.8c0-0.5,0-0.9,0.1-1.4l0-0.8c0-0.2,0-0.5,0.1-0.7c0-0.2,0-0.3,0.1-0.5c0-0.2,0.1-0.4,0.1-0.5l0.1-0.4
					c0.1-0.2,0.1-0.5,0.1-0.7l0-0.1c0-0.2,0.1-0.3,0.1-0.5c0-0.2,0-0.4,0-0.6c0-0.4,0-0.8,0-1.2c0-0.3,0-0.6,0-0.9l0,0
					c0.2-2.1,0.6-4.2,1-6.3l0.1-0.4h0c0-0.4,0.1-0.8,0-1.2c0-0.2,0-0.5,0-0.7l-0.1-1.1c0-0.3,0-0.6,0-0.8l0-0.2
					c0-0.9,0.1-1.8,0.3-2.6l0-0.4c0-0.1,0-0.1,0-0.2c0-0.1,0-0.1,0-0.2l0-0.3c0-0.2,0-0.4,0-0.5c0-0.3,0-0.7,0-1.1
					c0-0.2,0-0.3,0.1-0.5l0.1-1.1c0-0.2,0-0.4,0-0.7c0-0.2,0-0.4-0.1-0.5c0-0.2,0-0.4-0.1-0.6c-0.1-0.4-0.2-0.9-0.2-1.3
					c-0.1-0.3-0.1-0.6-0.2-0.9c-0.1-0.6-0.2-1.2-0.3-1.8c0-0.3-0.1-0.6-0.1-0.9l-0.1-0.9c0-0.3-0.1-0.6-0.1-0.9c0-0.3-0.1-0.7-0.1-1
					c-0.1-0.7-0.1-1.4-0.1-2.1c0-0.4,0-0.7,0-1.1l0-0.3c0.1-2,0.1-6.4,0-6.7c-0.1-0.6-0.3-1.1-0.5-1.6c-0.2-0.6-0.3-1.2-0.4-2
					l-0.1-0.8c-0.1-0.4-0.1-0.8-0.2-1.2c0-0.4-0.1-0.7-0.1-1.1c0-0.2,0-0.4,0-0.6l0-0.2c0-0.1,0-0.2,0-0.4c0-0.2,0-0.4,0-0.7l0-0.4
					c0-0.1,0-0.2,0-0.3l0-0.6c0-0.1,0-0.2,0-0.4c0-0.2,0-0.3-0.1-0.5c-0.1-0.5-0.1-1.1-0.2-1.6c-0.1-0.3-0.1-0.6-0.2-1l-0.1-0.7
					c-0.1-0.2-0.1-0.5-0.1-0.8c0-0.2-0.1-0.4-0.1-0.5c-0.1-0.5-0.1-1,0-1.5l0-0.1c0-0.2,0-0.4,0.1-0.6c0.1-0.5,0.1-1,0-1.6l-0.1-1.2
					c-0.1-1-0.1-2.1-0.1-3.2c0-0.4,0-0.8,0.1-1.1c0-0.3,0-0.5,0.1-0.8c0-0.4,0-0.8,0-1.2c0-0.5,0-0.9,0-1.4c0-0.2,0-0.4,0-0.6
					c0-0.2,0-0.3,0-0.5c0-0.1,0-0.2,0-0.3s0-0.2,0.1-0.3c0.1-0.4,0.1-0.7,0.2-1l0.1-0.4c0-0.2,0.1-0.3,0.1-0.5l0.1-0.3
					c0-0.1,0-0.2,0-0.4c0-0.1,0-0.3,0.1-0.4c0-0.2,0-0.3,0-0.5v-0.1c0-0.3,0-0.5,0-0.8c0-0.3-0.1-0.6-0.1-0.9l-0.1-0.4
					c0-0.2-0.1-0.4-0.1-0.6c-0.1-0.5-0.1-1.1,0-1.6c0-0.3,0.1-0.7,0.2-1.1c0.1-0.2,0.1-0.5,0.2-0.7c0-0.2,0-0.4,0.1-0.5
					c0-0.2,0-0.3,0-0.5c0-0.2,0-0.5-0.1-0.7c0-0.1,0-0.2-0.1-0.3l0-0.1c0-0.1,0-0.2,0-0.2c0-0.2,0-0.4,0-0.6c0-0.6,0.1-1.2,0.2-1.9
					l0-0.1c0-0.1,0-0.2,0.1-0.4c0-0.2,0-0.3,0.1-0.5c0-0.1,0-0.3,0-0.4c0-0.1,0-0.2,0-0.3c0-0.1,0-0.2,0-0.3l0-0.1
					c0-0.1,0-0.1,0-0.2c0-0.1,0-0.3-0.1-0.4l-0.1-0.6c0,0,0-0.1-0.1-0.2c0,0,0-0.1-0.1-0.2l-0.1-0.1c-0.1-0.3-0.3-0.6-0.4-0.9
					c-0.1-0.1-0.1-0.2-0.1-0.3c0-0.1-0.1-0.2-0.1-0.2l-0.4-0.7c-0.3-0.5-0.7-1.1-0.9-1.6c-0.1-0.2-0.2-0.5-0.4-0.7l-0.2-0.4
					c-0.3-0.5-0.6-1-0.9-1.5c-0.3-0.5-0.6-1-0.9-1.6c-0.5-0.9-0.9-1.7-1.3-2.5c-0.3-0.6-0.6-1.3-0.9-1.9c-0.2-0.5-0.5-1.1-0.8-1.6
					l-0.5-1c-0.3-0.6-0.6-1.2-0.8-1.7c-0.2-0.4-0.4-0.8-0.5-1.2c-0.2-0.5-0.3-0.9-0.4-1.4c-0.1-0.4-0.1-0.9-0.1-1.2v-0.3
					c0-0.5,0-1-0.1-1.5c-0.1-0.9-0.2-1.7-0.4-2.5l0-0.2c-0.2-0.9-0.3-2.1-0.4-3.4c-0.1-1.4-0.1-2.8-0.1-4.2l0-0.7c0-0.4,0-0.9,0-1.3
					c0-0.3,0-0.6-0.1-0.9c0-0.2-0.1-0.4-0.1-0.6l-0.1-0.5c0-0.1,0-0.1,0-0.1l-0.1-0.2c0-0.1,0-0.1-0.1-0.2c-0.1-0.1-0.1-0.2-0.2-0.3
					c-0.1-0.1-0.1-0.3-0.2-0.4c-0.1-0.1-0.1-0.2-0.1-0.2l-0.2-0.3c0-0.1-0.1-0.2-0.1-0.3c-0.1-0.1-0.1-0.3-0.1-0.4
					c0-0.1-0.1-0.2-0.1-0.3c0-0.1,0-0.3,0-0.4v0c0-0.1,0-0.1,0-0.3l0-0.1c0,0,0-0.1,0-0.1l0.1-0.3c0-0.2,0-0.3,0.1-0.5l0.1-0.7
					c0.1-0.5,0.1-0.9,0.1-1.4c0-0.4,0.1-0.8,0.1-1.1l0.1-0.8c0.1-3.5,0.4-7,0.8-10.5l0.1-0.3c0.2-1.6,0.5-3.3,0.8-4.8l0.1-0.4h-0.1
					c0-1,0.3-2,0.4-2.6c0.1-0.5,0.3-1,0.5-1.6c0.1-0.4,0.3-0.8,0.3-1.2c0.1-0.2,0.1-0.4,0.1-0.6l0.1-0.3c0-0.1,0-0.2,0.1-0.3
					c0-0.1,0.1-0.2,0.1-0.3c0.1-0.1,0.1-0.2,0.2-0.3c0.1-0.2,0.3-0.3,0.5-0.5c0.2-0.1,0.3-0.2,0.5-0.4c0.1-0.1,0.2-0.2,0.4-0.2
					c0.3-0.2,0.6-0.3,0.9-0.5c0.8-0.5,1.7-0.9,2.6-1.3l0.7-0.3c0.7-0.4,1.6-0.8,2.3-1.3c0.5-0.3,0.9-0.5,1.2-0.7
					c0.3-0.1,0.6-0.3,1-0.4l0.2-0.1c0.5-0.2,0.9-0.4,1.3-0.6c0.3-0.2,0.6-0.3,0.8-0.5l0.3-0.2c0.4-0.2,0.7-0.5,1.1-0.7l0.3-0.1
					c0.1-0.1,0.2-0.1,0.3-0.2c0.5-0.3,0.9-0.6,1.3-0.9l0.1-0.1c0.2-0.2,0.4-0.3,0.6-0.5c0.1-0.1,0.2-0.2,0.3-0.2
					c0.1-0.1,0.2-0.1,0.3-0.1c0.1,0,0.3-0.1,0.4-0.1c0.2,0,0.4-0.1,0.5-0.1c0.2,0,0.3,0,0.5-0.1c0.3-0.1,0.7-0.2,1-0.3
					c0.2-0.1,0.3-0.2,0.5-0.3c0.3-0.2,0.6-0.4,0.8-0.6c0.4-0.3,0.7-0.6,1-0.9c0.3-0.3,0.6-0.6,0.8-1c0.3-0.4,0.5-0.8,0.7-1.2
					c0.1-0.2,0.2-0.4,0.2-0.5c0.2-0.4,0.3-0.7,0.4-1.1c0.1-0.2,0.1-0.4,0.1-0.6c0.1-0.3,0.1-0.5,0.1-0.7c0-0.5-0.1-1-0.2-1.5
					c-0.1-0.3-0.1-0.6-0.2-0.9c0-0.2-0.1-0.5-0.1-0.8c0-0.3-0.1-0.7-0.1-1c-0.1-0.8-0.2-1.6-0.3-2.4c0-0.1,0-0.1,0-0.2h0.1l-0.3-0.6
					c0,0,0-0.1-0.1-0.1V421h-0.1c-0.3-0.5-0.5-1.1-0.8-1.6h0l-0.2-0.4c0-0.1-0.1-0.1-0.1-0.2l0-0.1c0,0,0,0,0,0l-0.1-0.2
					c-0.1-0.1-0.1-0.3-0.2-0.4s-0.1-0.3-0.1-0.4c-0.1-0.2-0.1-0.4-0.1-0.6c0-0.2-0.1-0.5-0.1-0.7c0-0.2-0.1-0.4-0.1-0.6l-0.1-0.8
					c0-0.1,0-0.2,0-0.3c0,0,0,0,0-0.1v-0.1l0,0c0-0.1,0-0.1,0-0.2c-0.1-0.7-0.2-1.4-0.3-2.1c-0.1-0.5-0.1-0.9-0.2-1.4
					c0-0.3,0-0.6,0-0.9c0-0.3,0.1-0.6,0.1-0.9c0.1-0.5,0.2-1.1,0.5-1.6c0.4-1.1,1-2.1,1.7-3.1c0.1-0.1,0.1-0.2,0.2-0.4
					c0.1-0.2,0.2-0.4,0.3-0.6c0.1-0.2,0.3-0.4,0.4-0.7c0.1-0.2,0.3-0.4,0.5-0.6c0.2-0.2,0.4-0.4,0.6-0.6c0.4-0.3,0.7-0.6,1-0.8
					c0.2-0.1,0.4-0.2,0.6-0.4c0.2-0.1,0.3-0.2,0.5-0.2c0.3-0.1,0.6-0.2,0.8-0.3c0.3-0.1,0.6-0.2,0.9-0.3c0.3-0.1,0.6-0.2,0.9-0.3
					c0.9-0.2,1.7-0.5,2.6-0.6c0.6-0.1,1.2-0.2,1.8-0.2c0.1,0,0.2,0,0.3,0c0.3,0,0.7,0.1,0.9,0.1c0.3,0,0.7,0.1,1.1,0.3
					c0.3,0.1,0.6,0.2,0.9,0.3c0.1,0.1,0.3,0.1,0.5,0.2l0.3,0.1c0.2,0.1,0.4,0.2,0.6,0.2l0.6,0.2c0.2,0.1,0.3,0.1,0.4,0.2l0.9,0.5
					c0.2,0.1,0.3,0.1,0.5,0.2l0.2,0.1c0.9,0.4,1.8,0.9,2.6,1.5c0.5,0.4,1,0.8,1.4,1.3c0.5,0.6,1,1.2,1.4,1.8l0.1,0.2l0.3-0.2
					l-0.2,0.3l0.1,0.1c0,0,0,0.1,0.1,0.1l0.1,0.1c0,0.1,0.1,0.1,0.1,0.2c0.3,0.6,0.6,1.1,0.8,1.7c0.1,0.3,0.2,0.6,0.2,0.9
					c0.1,0.3,0.1,0.6,0.1,1c0,0.2,0,0.5-0.1,0.7c0,0.2-0.1,0.3-0.1,0.5c0,0.1-0.1,0.3-0.2,0.4c-0.1,0.1-0.1,0.3-0.2,0.4l0,0.1
					c0,0-0.1,0.1-0.1,0.1l-0.2,0.5c0,0,0,0.1,0,0.1c-0.1,0.2-0.1,0.3-0.2,0.5c-0.1,0.2-0.1,0.4-0.1,0.6c0,0.2-0.1,0.4-0.1,0.5
					c0,0.2,0,0.5,0,0.7v0.4c0,0.2,0,0.4,0,0.5c0,0.1,0,0.2,0,0.3l0.3,0.1l-0.3,0c0,0.2-0.1,0.4-0.1,0.5c0,0.1-0.1,0.2-0.1,0.4
					l-0.1,0.4c0,0.1-0.1,0.1-0.1,0.2l-0.1,0.2c0,0.1-0.1,0.3-0.1,0.4l0,0.1c0,0.1,0,0.2-0.1,0.4l0,0.1c0,0.1,0,0.3,0,0.5
					c0,0.1,0,0.2,0,0.4c0,0.2,0,0.5,0,0.7c0,0.2,0,0.4,0,0.6c0,0.4,0,0.8-0.1,1.1s-0.1,0.6-0.1,1c0,0.2-0.1,0.4-0.1,0.6
					c0,0.2-0.1,0.5-0.2,0.7c-0.1,0.3-0.1,0.6-0.2,0.8s-0.1,0.6-0.2,0.9l-0.1,0.2c-0.1,0.4-0.2,0.9-0.3,1.3c-0.1,0.5-0.3,1-0.5,1.5
					c-0.1,0.3-0.3,0.7-0.5,1l-0.2,0.4c-0.1,0.3-0.3,0.6-0.4,0.8c-0.2,0.4-0.3,0.7-0.5,1.1c-0.2,0.3-0.3,0.5-0.5,0.7
					c-0.2,0.2-0.3,0.3-0.5,0.5l-0.1,0c-0.3,0.1-0.6,0.3-0.9,0.4l-0.1,0c-0.5,0.1-1,0.1-1.5,0.1l-0.3,0v0.3c-0.1,0.4-0.1,0.9-0.2,1.3
					c0,0.2,0,0.4-0.1,0.6l-0.1,0.4c-0.1,0.5-0.1,0.9-0.2,1.3c0,0.2,0,0.3,0,0.5v0.2l0.1,0.1c0,0,0.1,0.1,0.1,0.1l0.2,0.1
					c0,0,0.1,0,0.2,0.1c0.1,0.1,0.2,0.1,0.4,0.2c0.1,0,0.2,0.1,0.3,0.1l0.1,0c0.2,0.1,0.3,0.2,0.5,0.3l0.6,0.3
					c0.2,0.1,0.3,0.2,0.5,0.3c0.2,0.1,0.4,0.2,0.5,0.3c0.3,0.2,0.6,0.4,1,0.7c0.3,0.2,0.5,0.3,0.8,0.5c0.3,0.2,0.6,0.3,0.9,0.5
					c0.5,0.2,1,0.4,1.5,0.6l0.5,0.2c0.5,0.2,1.1,0.4,1.6,0.6c0.6,0.2,1.2,0.5,1.8,0.7c0.7,0.3,1.3,0.6,2,1c0.6,0.4,1.1,0.7,1.6,1
					c0.4,0.3,0.9,0.7,1.3,1.1c0.3,0.3,0.5,0.5,0.7,0.8c0.2,0.3,0.5,0.5,0.7,0.8c0.2,0.3,0.5,0.6,0.7,0.9c0.2,0.3,0.3,0.7,0.5,1.1
					c0.1,0.3,0.2,0.6,0.2,0.9l0.1,0.2c0.1,0.4,0.2,0.8,0.3,1.2c0.2,0.8,0.5,1.6,0.7,2.4c0.2,0.5,0.4,1.1,0.5,1.6
					c0.1,0.5,0.3,0.9,0.4,1.4c0.4,1.2,0.6,2.5,0.9,3.8c0.1,0.7,0.2,1.4,0.4,2c0.1,0.4,0.2,0.7,0.3,1.1c0,0.2,0.1,0.4,0.1,0.6
					c0.1,0.3,0.1,0.5,0.2,0.8c0.1,0.3,0.1,0.5,0.2,0.8l0.2,0.6c0.1,0.4,0.2,0.7,0.3,1.1c0.1,0.2,0.1,0.5,0.2,0.7l0.1,0.3
					c0.1,0.5,0.2,1,0.3,1.5c0.3,1.4,0.6,2.6,1,3.8c0.1,0.4,0.2,0.8,0.3,1.2c0.1,0.2,0.1,0.4,0.1,0.7c0,0.1,0,0.2,0,0.4
					c0,0.1-0.1,0.2-0.1,0.3c0,0.1-0.1,0.1-0.1,0.2l-0.1,0.1c-0.1,0.1-0.1,0.1-0.2,0.1c-0.1,0.1-0.1,0.1-0.2,0.1
					c-0.1,0.1-0.2,0.1-0.3,0.1l0.1,0.3l-0.1-0.3l-0.1,0c-0.4,0.1-0.7,0.2-1.1,0.3l-0.5,0.1c-0.3,0.1-0.6,0.1-0.9,0.2
					c-0.1,0-0.3,0.1-0.5,0.1l-0.3,0.1l-0.1,0.1c-0.1,0.1-0.1,0.1-0.1,0.2c-0.1,0.2-0.2,0.4-0.2,0.7c0,0.3,0,0.7,0.1,1l0,0.1
					c0.1,0.3,0.1,0.7,0.2,1.1c0.1,0.7,0.2,1.4,0.3,2c0.2,1.1,0.4,2.1,0.6,3.1c0.2,0.8,0.3,1.6,0.5,2.3c0.2,0.8,0.4,1.6,0.5,2.5
					c0,0.3,0.1,0.5,0.1,0.8l0.1,0.5c0,0.4,0.1,0.8,0.2,1.2c0.1,0.8,0.2,1.7,0.3,2.5c0.1,0.6,0.1,1.2,0.2,1.9c0,0.6,0.1,1.1,0.1,1.6
					c0.1,0.9,0.1,1.7,0,2.4c0,0.3,0,0.5,0,0.8c0,0.5-0.1,1-0.1,1.5c0,0.6,0,1.2-0.1,1.8c0,0.4-0.1,0.8-0.1,1.2
					c0,0.4-0.1,0.8-0.1,1.1l0,0.2c0,0.1,0,0.2,0,0.3c0,0.3-0.1,0.6-0.1,1c0,0.2,0,0.5-0.1,0.8c0,0.4-0.1,0.8-0.2,1.2
					c-0.1,0.4-0.1,0.9-0.2,1.3c-0.1,0.4-0.1,0.8-0.1,1.2c0,0.7-0.1,1.4-0.2,2.1c0,0.3-0.1,0.6-0.1,0.9c0,0.4-0.1,0.9-0.1,1.2
					c0,0.5-0.1,1.2,0,1.9l0,0.6c0,0.3,0,0.5,0,0.8v0.2c0,0.4,0,0.7,0,1.2c0,0.4,0,0.8-0.1,1.1c-0.1,0.6-0.2,1.1-0.3,1.6l-0.3,0.9
					c-0.2,0.9-0.5,1.8-0.7,2.6l-0.2,0.8c-0.1,0.5-0.3,1.1-0.4,1.6l-0.1,0.3c-0.3,1.5-0.6,2.9-0.7,4.3c-0.2,1.4-0.3,2.9-0.4,4.4
					c-0.2,2.6-0.5,5.2-1.1,7.8l0,0.2c-0.3,1.3-0.6,2.6-0.9,3.9l-0.1,0.4c-0.1,0.4-0.2,0.8-0.3,1.2c-0.1,0.3-0.5,3.3-0.6,4.3
					l-0.2,1.8c-0.1,0.6-0.2,1.8-0.2,1.8c-1.2,9.3-3.2,18.7-5.8,27.8l-0.1,0.3l0.1,0c0,0.1,0,0.1,0,0.2l0,0.2c0,0,0,0.1,0,0.1
					c0,0,0,0.1,0,0.1l0,0.2c0,0.1,0,0.2,0,0.4l-0.2,1.7c0,0.3-0.1,0.6-0.1,0.8l-0.2,0.9c-0.1,0.4-0.1,0.8-0.2,1.2c0,0.2,0,0.4,0,0.7
					c0,0.3,0,0.6,0,1l0,0.6l0.1,0.1c0.4,0.5,0.7,1,0.9,1.5c0.2,0.4,0.4,0.7,0.5,1.1c0.1,0.2,0.2,0.4,0.3,0.6l0.1,0.3
					c0.2,0.5,0.4,0.9,0.5,1.3c0.1,0.5,0.2,1,0.2,1.5c0.1,0.8,0.1,1.6,0.1,2.4c0,0.8-0.1,1.6-0.2,2.4c-0.1,0.7-0.2,1.5-0.4,2.3
					c-0.1,0.7-0.3,1.3-0.4,2l-0.3,1.1c-0.2,0.6-0.3,1.2-0.4,1.8c-0.1,0.5-0.2,1-0.4,1.5l-0.4,1.7c-0.1,0.6-0.3,1.1-0.4,1.6
					c-0.1,0.4-0.2,0.8-0.4,1.2c-0.1,0.2-0.1,0.3-0.2,0.5c0,0.1-0.1,0.2-0.1,0.2l-0.1,0.5c0,0.2,0,0.4,0,0.6c0,0.2,0,0.4,0,0.6
					c0,0.3,0,0.5,0,0.8c0,0.7,0.1,1.4,0.1,2.1c0.1,0.8,0.2,1.7,0.3,2.5c0.1,0.8,0.2,1.6,0.3,2.5c0,0.3,0.1,0.6,0.1,0.9
					c0.1,1.2,0,2.4,0,3.6c0,0.3,0,0.7,0,1c0,0.6,0,1.3-0.1,2c-0.1,0.6-0.1,1.1-0.2,1.6c-0.1,0.4-0.1,0.7-0.2,1
					c-0.1,0.2-0.2,0.5-0.3,0.7c-0.1,0.2-0.2,0.4-0.3,0.7c-0.1,0.2-0.2,0.3-0.3,0.5l-0.4,0.7l0,0.2v0.2c0,0.1,0,0.2,0.1,0.3
					c0,0.1,0.1,0.2,0.1,0.3c0.1,0.1,0.1,0.3,0.3,0.4c0.1,0.1,0.2,0.3,0.3,0.4c0.1,0.1,0.2,0.2,0.2,0.3l0,0l0.1,0.1h0.2l0.1,0.1
					c0.1,0,0.1,0.1,0.2,0.1c0.1,0,0.1,0.1,0.2,0.1c0.1,0.1,0.2,0.1,0.3,0.2c0.3,0.2,0.6,0.6,1,1c0.2,0.2,0.3,0.5,0.5,0.7l0.1,0.1
					c0.2,0.2,0.3,0.5,0.5,0.8c0.1,0.2,0.3,0.5,0.5,0.8c0.2,0.3,0.4,0.7,0.6,0.9c0.2,0.3,0.5,0.6,0.8,0.9c0.1,0.1,0.3,0.3,0.4,0.4
					c0.1,0.1,0.2,0.1,0.3,0.2l0.3,0.2c0.1,0,1,0.4,1.4,0.5h0.2c0.4,0,0.7,0,1,0c0.2,0,0.4,0,0.6-0.1c0.1,0,0.2,0,0.4-0.1l0.5-0.1
					c0.2,0,0.4-0.1,0.6-0.1c0.1,0,0.3,0,0.4,0c0.7,0,1.4,0,2.1,0.2c0.1,0,0.2,0.1,0.2,0.1c0.2,0.1,0.3,0.2,0.4,0.3
					c0.1,0.1,0.2,0.2,0.3,0.3c0.1,0.1,0.1,0.2,0.2,0.4c0.1,0.3,0.2,0.9,0.1,1.2c0,0.1,0,0.3-0.1,0.4c0,0.1-0.1,0.2-0.1,0.3
					c0,0.1-0.1,0.2-0.2,0.2c-0.1,0.1-0.1,0.1-0.2,0.2c0,0-0.1,0-0.2,0.1c-0.1,0-0.3,0.1-0.4,0.1c-0.1,0-0.2,0-0.3,0l-0.1,0h-0.1
					l-0.3,0h-0.1l-0.6,0l0,0.3l-0.1-0.3c-0.1,0-0.2,0-0.3,0c-0.1,0-0.2,0-0.4,0c-0.3,0-13.2-0.1-19.5-0.1c-2.1,0-3.4,0-3.5,0h-1.8
					c-0.3,0-0.6,0-0.9,0v0H832l-0.1,0c0,0-0.1,0-0.1,0l-0.2,0c-0.1,0-0.2-0.1-0.3-0.1c-0.1,0-0.1-0.1-0.2-0.1c0,0-0.1-0.1-0.1-0.1
					c-0.1-0.1-0.1-0.2-0.2-0.4c0-0.1-0.1-0.3-0.1-0.4c-0.1-0.3-0.1-0.6-0.1-0.9c0-0.2,0-0.4,0-0.6c0-0.4,0-0.8,0.1-1.2
					c0.2-1.6,0.2-3.2,0-4.8c0-0.1,0-0.3-0.1-0.4c0-0.3-0.1-0.6-0.2-0.8c0-0.1-0.1-0.2-0.1-0.3c0-0.1-0.1-0.2-0.1-0.2
					c0,0,0-0.1-0.1-0.2L830,649c-0.1-0.1-0.1-0.3-0.2-0.4c-0.1-0.2-0.1-0.4-0.2-0.6c-0.1-0.2-0.1-0.4-0.1-0.5l0-0.3
					c-0.1-0.5-0.1-1.1-0.1-1.6c0-0.2,0-0.5,0-0.7c0-0.8,0.1-1.4,0.1-2c0-0.4,0.1-0.8,0.1-1.1c0-0.4,0.1-0.7,0.1-1.1
					c0.1-0.9,0.2-1.8,0.4-2.6l0.2-1c0.1-0.5,0.2-1,0.2-1.5c0.1-0.5,0.2-1,0.2-1.5c0.1-0.6,0.1-1.2,0.2-1.8v-0.1
					c0.1-0.6,0.1-1.3,0.2-1.9c0.1-1.1,0-2.2,0-3.2l0-0.5c0-0.7-0.1-1.5,0-2.3c0-0.5,0.1-0.9,0.1-1.4l0.1-1.7c0-0.3,0.1-0.6,0.1-0.9
					c0-0.5,0.1-1,0.1-1.5c0-0.5,0.1-1.1,0.1-1.6l0-0.3c0-0.4,0.1-0.8,0.1-1.2c0-0.4,0-0.8,0-1.2v-0.1c0-0.4,0-0.9,0-1.3
					c0-0.5,0.1-1,0.2-1.5l0.1-0.5c0.1-0.6,0.1-1.1,0.2-1.5c0-0.4,0-0.8,0.1-1.2l0-0.4c0-0.4,0-0.9,0.1-1.4c0-0.4,0.1-0.8,0.1-1.2
					c0-0.4,0.1-0.8,0.1-1.2c0.1-0.8,0.2-1.6,0.3-2.3c0.1-0.4,0.1-0.7,0.2-1.1c0.1-0.3,0.1-0.7,0.2-1c0-0.2,0.1-0.4,0.1-0.6l0.1-0.7
					c0-0.2,0.1-0.3,0.1-0.4c0-0.1,0-0.3,0.1-0.5l0.1-1.1c0-0.1,0-0.3,0-0.4c0-0.2,0.1-0.4,0.1-0.6c0-0.2,0.1-0.3,0.1-0.5
					c0-0.1,0-0.3,0.1-0.4c0-0.1,0-0.3,0-0.4c0-0.1,0-0.2,0-0.4c0-0.2,0-0.3,0-0.5c0-0.2,0-0.4,0-0.5c0-0.2,0-0.4-0.1-0.6l0-0.1
					c-0.1-0.3-0.1-0.7-0.2-1.1c0-0.3-0.1-0.6,0-0.9c0-0.2,0-0.4,0-0.6l0-0.2c0-0.2,0-0.4,0-0.5c0-0.2,0-0.4,0-0.6
					c0-0.2,0-0.4-0.1-0.6c0-0.3-0.1-0.6-0.1-0.9c0-0.4-0.1-0.7-0.1-1l-0.1-1.4c0-0.1,0-0.3,0-0.5c0-0.2,0-0.4,0-0.6
					c0-0.1,0-0.3,0-0.4c0-0.2,0-0.5,0-0.7l0-0.2c0-0.1,0-0.2,0-0.2c0-0.1,0-0.2,0-0.3l0-0.1c0-0.3,0.1-0.6,0.1-0.9
					c0.1-0.3,0.1-0.6,0.2-0.9c0.1-0.4,0.2-0.9,0.2-1.3c0.1-0.4,0.1-0.8,0.1-1.3l0.1-0.8c0-0.4,0.1-0.9,0.1-1.3
					c0.1-0.7,0.2-1.5,0.2-2.2c0.1-0.4,0.1-0.8,0.2-1.1c0-0.2,0.1-0.4,0.1-0.6c0-0.2,0-0.3,0.1-0.5l0-0.8v-0.2c0-0.1,0-0.1,0-0.2
					l-0.1-0.8c0-0.1,0-0.3-0.1-0.5l-0.1-0.4c0-0.3-0.1-0.5-0.2-0.8c-0.1-0.4-0.2-0.7-0.3-1c-0.2-0.7-0.4-1.2-0.5-1.8
					c0-0.3-0.1-0.6-0.1-1c0-0.2,0-0.5,0-0.8c0-0.2,0-0.4,0-0.6l0-0.1c0-0.1,0-0.2,0-0.3l0-0.4c0-0.1,0-0.1,0-0.2
					c0-0.2,0-0.3,0.1-0.5l0.1-0.6c0-0.1,0-0.2,0-0.2c0-0.1,0-0.3,0-0.5c0-0.2,0-0.3,0-0.5v-0.3c0-0.1,0-0.3,0-0.4c0-0.2,0-0.3,0-0.4
					c0-0.2,0-0.4-0.1-0.6c-0.1-0.3-0.1-0.7-0.2-1l-0.2-1.1l-0.4,1c0,0,0,0.1-0.1,0.2c0,0.2-0.1,0.3-0.1,0.5c0,0.1-0.1,0.3-0.1,0.4
					c0,0.2-0.1,0.4-0.1,0.7l-0.1,0.4c0,0.3-0.1,0.6-0.1,0.9c-0.1,0.4-0.1,0.7-0.2,1.1c-0.1,0.2-0.1,0.5-0.2,0.8
					c-0.1,0.4-0.2,0.7-0.3,1c-0.2,0.9-0.4,1.9-0.6,2.8l0,0.1c-0.1,0.7-0.3,1.4-0.5,2c-0.1,0.3-0.2,0.5-0.3,0.8
					c-0.1,0.3-0.2,0.7-0.3,1c-0.1,0.5-0.3,1.1-0.4,1.6l-0.3,1.5c-0.1,0.4-0.1,0.7-0.2,1c0,0.2-0.1,0.4-0.1,0.6
					c0,0.3-0.1,0.6-0.2,0.9l-0.1,0.3c-0.1,0.3-0.1,0.6-0.2,0.9c-0.1,0.5-0.2,1-0.2,1.4c-0.1,0.3-0.1,0.6-0.2,1l-0.2,1.1
					c-0.1,0.6-0.2,1.2-0.3,1.8c0,0.4-0.1,0.8-0.1,1.1l-0.1,1.2c0,0.4,0,0.7-0.1,1.1c-0.1,2-0.2,4-0.1,5.9c0,0.3,0,0.6,0,0.9l0,0.2
					c0,0.3,0,0.7,0.1,1v0.1c0,0.3,0,0.7,0,1c0,0.5-0.1,1-0.1,1.5l0,0.1c-0.1,0.7-0.1,1.4-0.1,2.1c0,0.5,0,1,0.1,1.5
					c0,0.3,0.1,0.6,0.1,0.8c0,0.5,0.1,0.9,0.1,1.4c0,0.3,0,0.6,0,0.8c0,0.2,0,0.4-0.1,0.6l-0.1,0.4c0,0,0,0.1,0,0.1c0,0,0,0,0,0
					c0,0,0,0.1,0,0.2c0,0.5,0,1-0.1,1.5l-0.1,0.4h0c0,0.4-0.1,0.7-0.1,1.1l-0.1,0.9c0,0.1,0,0.2,0,0.3c0,0.2,0,0.4-0.1,0.5
					c0,0.1,0,0.2-0.1,0.3l-0.1,0.6c0,0.1-0.1,0.2-0.1,0.4l-0.1,0.6c0,0.2-0.1,0.4-0.1,0.8l0,0.2c-0.1,0.4-0.1,0.7-0.2,1.1l0,0.2
					c-0.1,0.4-0.2,0.9-0.2,1.4c0,0.3-0.1,0.7-0.1,1c-0.1,0.8-0.1,1.5-0.2,2.2c0,0.5,0,1,0,1.5c0.1,1.7,0.2,3.4,0.3,5
					c0.1,1.4,0.2,2.9,0.2,4.3c0.1,1.6,0.2,3.3,0.4,4.8c0.1,0.9,0.2,1.8,0.2,2.8c0,0.8,0,1.8-0.1,2.8c-0.1,0.8-0.2,1.6-0.3,2.3
					c-0.1,0.4-0.1,0.8-0.2,1.2l-0.3,1.8c-0.1,0.5-0.2,1.1-0.2,1.6c0,0.4-0.1,0.7-0.1,1.1c0,0.2,0,0.4,0,0.7c0,0.3,0,0.6,0,0.9
					c0,0.2,0,0.5-0.1,0.7c-0.1,0.3-0.1,0.5-0.2,0.7c-0.1,0.4-0.3,0.8-0.4,1.1c-0.1,0.3-0.3,0.6-0.5,0.9l-0.1,0.2
					c-0.1,0.2-0.2,0.5-0.4,0.8c-0.1,0.2-0.2,0.4-0.3,0.7c-0.1,0.2-0.1,0.3-0.2,0.4c-0.1,0.3,0.3,1.9,0.5,2.2
					c0.1,0.2,0.2,0.5,0.4,0.7v0.2h0.2l0.3,0.4c0.3,0.4,0.6,0.8,0.9,1.1l0.2,0.2c0.1,0.1,0.2,0.2,0.3,0.3c0.1,0.1,0.2,0.2,0.3,0.4
					c0.2,0.3,0.3,0.6,0.4,0.9l0,0.1c0,0.1,0,0.1,0,0.2v0.1c0,0,0,0.1,0,0.1l0,0c0,0.1-0.1,0.2-0.1,0.3c0,0.1-0.2,0.3-0.2,0.3
					c0,0.1-0.1,0.1-0.2,0.1c-0.1,0.1-0.2,0.1-0.2,0.1c-0.1,0-0.3,0.1-0.4,0.1c-0.1,0-0.2,0-0.3,0c-0.6,0.1-1,0.1-1.5,0.1
					c-0.2,0-0.5,0-0.8,0c-1,0-5.6,0-5.6-0.1l-3.8,0.1l-0.6,0h-0.2l-0.4,0h0l-0.1,0h-0.1c0,0-0.1,0-0.1,0c0,0-0.1,0-0.1,0l-0.1,0
					C811.9,660,811.7,660,811.5,659.9z M827.6,658.6l0-0.1c-0.1-0.4-0.2-0.8-0.5-1.2c-0.1-0.2-0.2-0.3-0.3-0.4
					c-0.1-0.1-0.2-0.2-0.4-0.3l-0.1-0.1c-0.3-0.3-0.6-0.7-0.9-1.1l-0.3-0.4v0l0-0.2h-0.1c-0.1-0.2-0.2-0.4-0.3-0.6
					c-0.2-0.5-0.4-1.6-0.4-1.8c0-0.1,0.1-0.2,0.2-0.4c0.1-0.2,0.2-0.4,0.3-0.6c0.1-0.2,0.2-0.5,0.4-0.7l0.1-0.2
					c0.2-0.3,0.3-0.6,0.5-0.9c0.2-0.3,0.3-0.7,0.5-1.2c0.1-0.2,0.1-0.5,0.2-0.8c0-0.3,0.1-0.5,0.1-0.8c0-0.3,0-0.6,0-0.9
					c0-0.2,0-0.4,0-0.7c0-0.3,0-0.7,0.1-1c0.1-0.5,0.1-1.1,0.2-1.6l0.3-1.7c0.1-0.4,0.2-0.8,0.2-1.2c0.1-0.7,0.2-1.5,0.3-2.3
					c0.1-1.1,0.1-2,0.1-2.9c0-1-0.1-2-0.2-2.9c-0.2-1.5-0.3-3.2-0.4-4.8c-0.1-1.4-0.2-2.9-0.2-4.4c-0.1-1.6-0.2-3.3-0.3-5
					c0-0.5,0-1,0-1.5c0-0.7,0.1-1.4,0.1-2.2c0-0.3,0.1-0.7,0.1-1c0.1-0.5,0.1-0.9,0.2-1.3l0-0.2c0.1-0.4,0.1-0.7,0.2-1.1l0-0.3
					c0-0.2,0.1-0.5,0.1-0.7l0.1-0.6c0-0.2,0-0.2,0.1-0.3c0,0,0-0.1,0-0.1l0.1-0.5c0-0.1,0-0.2,0.1-0.4c0-0.2,0-0.4,0.1-0.5
					c0-0.1,0-0.2,0-0.3l0.1-0.9c0-0.5,0.1-0.9,0.1-1.4v0c0.1-0.5,0.1-1.1,0.1-1.6l0-0.1c0,0,0-0.1,0-0.1l0-0.5c0-0.2,0-0.4,0.1-0.6
					c0-0.3,0-0.6,0-0.9c0-0.5-0.1-1-0.1-1.5c0-0.3-0.1-0.5-0.1-0.8c-0.1-0.6-0.1-1-0.1-1.5c0-0.7,0.1-1.4,0.1-2l0-0.1
					c0.1-0.5,0.1-1,0.1-1.6c0-0.4,0-0.7,0-1.1v-0.1c0-0.4,0-0.7-0.1-1l0-0.3c0-0.3,0-0.6,0-0.9c0-1.9,0-3.9,0.1-5.9
					c0-0.4,0-0.7,0.1-1.1l0.1-1.1c0-0.4,0.1-0.8,0.1-1.2c0.1-0.6,0.2-1.2,0.3-1.8l0.2-1.1c0-0.3,0.1-0.6,0.2-1
					c0.1-0.5,0.1-1,0.2-1.4c0.1-0.3,0.1-0.6,0.2-0.9l0.1-0.3c0.1-0.3,0.1-0.6,0.2-0.9c0-0.2,0.1-0.4,0.1-0.6c0.1-0.3,0.1-0.7,0.2-1
					l0.3-1.5c0.1-0.5,0.2-1,0.3-1.5c0.1-0.3,0.2-0.6,0.3-1c0.1-0.3,0.2-0.5,0.3-0.8c0.2-0.6,0.3-1.3,0.5-2l0-0.1
					c0.2-1,0.3-1.9,0.5-2.8c0.1-0.3,0.2-0.7,0.3-1c0.1-0.2,0.1-0.5,0.2-0.8c0.1-0.4,0.2-0.8,0.2-1.2c0-0.2,0.1-0.4,0.1-0.7
					c0,0.1,0,0.2,0,0.3c0,0.2,0,0.3,0,0.5c0,0.1,0,0.3,0,0.4c0,0.1,0,0.2,0,0.2l-0.1,0.6c0,0.2-0.1,0.4-0.1,0.5c0,0.1,0,0.1,0,0.3
					l0,0.4c0,0.1,0,0.1,0,0.2v0.1c0,0.2,0,0.4,0,0.6c0,0.3,0,0.6,0,0.9c0,0.4,0.1,0.7,0.1,1c0.1,0.6,0.2,1.2,0.5,1.9
					c0.1,0.3,0.2,0.7,0.3,1c0.1,0.2,0.1,0.5,0.2,0.8l0.1,0.4c0,0.2,0,0.3,0.1,0.4l0.1,0.6l0.3,0l-0.3,0.1v0.3l-0.1,0.8
					c0,0.1,0,0.3,0,0.5c0,0.2,0,0.4-0.1,0.5c0,0.4-0.1,0.7-0.1,1.1c-0.1,0.7-0.2,1.5-0.2,2.2c0,0.4-0.1,0.9-0.1,1.3l-0.1,0.8
					c-0.1,0.4-0.1,0.8-0.2,1.2c-0.1,0.4-0.1,0.9-0.2,1.3c-0.1,0.3-0.1,0.6-0.2,0.9c-0.1,0.3-0.1,0.7-0.2,1l0,0.2c0,0.1,0,0.2,0,0.2
					c0,0.1,0,0.1,0,0.2l0,0.2c0,0.2,0,0.4,0,0.7c0,0.1,0,0.3,0,0.5c0,0.2,0,0.4,0,0.6c0,0.2,0,0.3,0,0.5l0.1,1.4
					c0,0.3,0.1,0.7,0.1,1c0,0.3,0.1,0.6,0.1,0.9c0,0.2,0.1,0.4,0.1,0.6c0,0.2,0,0.4,0,0.6c0,0.2,0,0.3,0,0.5l0,0.2
					c0,0.2,0,0.4,0,0.6c0,0.3,0,0.6,0,0.9c0.1,0.4,0.1,0.8,0.2,1.1l0,0.1c0,0.2,0,0.4,0.1,0.6c0,0.1,0,0.3,0,0.5c0,0.1,0,0.3,0,0.4
					v0.3l0,0.4c0,0.1,0,0.3-0.1,0.4c0,0.1,0,0.3-0.1,0.4c0,0.2-0.1,0.5-0.1,0.7c0,0.1,0,0.3,0,0.4l-0.1,1.1c0,0.2,0,0.3-0.1,0.4
					c0,0.1,0,0.3-0.1,0.4l-0.1,0.8c0,0.2-0.1,0.4-0.1,0.6c-0.1,0.3-0.1,0.7-0.2,1c-0.1,0.4-0.1,0.7-0.2,1.1
					c-0.1,0.8-0.2,1.5-0.3,2.3c0,0.4-0.1,0.8-0.1,1.2c0,0.4-0.1,0.8-0.1,1.2c0,0.5-0.1,0.9-0.1,1.4l0,0.4c0,0.4,0,0.8-0.1,1.2
					c0,0.4-0.1,0.9-0.2,1.5l-0.1,0.4c-0.1,0.5-0.2,1-0.2,1.6c0,0.4,0,0.9,0,1.4l0,0.1c0,0.4,0,0.8,0,1.1c0,0.4-0.1,0.8-0.1,1.2
					l0,0.3c0,0.5-0.1,1.1-0.1,1.6c0,0.5-0.1,1-0.1,1.4c0,0.3-0.1,0.6-0.1,0.9l-0.1,1.7c-0.1,0.5-0.1,0.9-0.1,1.4
					c-0.1,0.8,0,1.6,0,2.3l0,0.5c0,1,0.1,2.1,0,3.1c0,0.6-0.1,1.3-0.2,1.9l0,0.1c-0.1,0.6-0.1,1.2-0.2,1.7c-0.1,0.5-0.2,1-0.3,1.5
					c-0.1,0.5-0.2,1-0.2,1.5l-0.2,1c-0.1,0.9-0.3,1.7-0.4,2.6c0,0.4-0.1,0.8-0.1,1.1c0,0.4-0.1,0.8-0.1,1.1
					c-0.1,0.6-0.1,1.3-0.1,2.1v0.7c0,0.5,0.1,1.1,0.1,1.7l0.1,0.3c0,0.2,0.1,0.4,0.1,0.6c0.1,0.2,0.1,0.4,0.2,0.6
					c0.1,0.1,0.1,0.3,0.2,0.4l0.2,0.5c0,0.1,0.1,0.1,0.1,0.2c0,0.1,0.1,0.2,0.1,0.2c0.1,0.2,0.1,0.5,0.2,0.7c0,0.1,0,0.3,0.1,0.4
					c0.2,1.5,0.2,3.1,0,4.7c0,0.5-0.1,0.9-0.1,1.3c0,0.2,0,0.4,0,0.6c0,0.3,0,0.6,0.1,1c0,0.2,0.1,0.3,0.1,0.5
					c0.1,0.2,0.2,0.5,0.3,0.6c0.1,0.1,0.1,0.1,0.2,0.2s0.2,0.2,0.4,0.2c0.1,0,0.2,0.1,0.4,0.1l0.2,0h-5.4c0,0,0.1,0,0.1,0
					c0.1,0,0.2-0.1,0.4-0.1c0.1-0.1,0.2-0.2,0.3-0.2c0.1-0.1,0.3-0.4,0.4-0.5c0,0,0.1-0.3,0.2-0.3l0.1-0.2c0,0,0-0.1,0-0.1l0-0.1
					c0-0.1,0-0.1,0-0.2C827.6,658.7,827.6,658.7,827.6,658.6z M717,661.1h283.3v7.1H717V661.1z M723.7,699.1c0,0.1-0.1,0.2-0.2,0.2
					h-12c-0.1,0-0.2-0.1-0.2-0.2v-19h12.4V699.1z M1082.2,699.1c0,0.1-0.1,0.2-0.2,0.2h-12c-0.1,0-0.2-0.1-0.2-0.2v-19h12.4V699.1z
					 M1082.2,679.6h-371v-10.9h371V679.6z"/>
			</g>
			<g>
				<path class="st0" d="M1210.6,264.5c-0.1,0-0.2-0.1-0.3-0.2l-3.1-15.6c0-0.1,0.1-0.3,0.2-0.3c0.1,0,0.3,0.1,0.3,0.2l3.1,15.6
					C1210.9,264.3,1210.8,264.5,1210.6,264.5C1210.7,264.5,1210.7,264.5,1210.6,264.5z"/>
			</g>
			<g>
				<path class="st0" d="M492.9,405.7c-0.1,0-0.2-0.1-0.3-0.2c0-0.1,0.1-0.3,0.2-0.3L1210.6,264c0.1,0,0.3,0.1,0.3,0.2
					c0,0.1-0.1,0.3-0.2,0.3L492.9,405.7C492.9,405.7,492.9,405.7,492.9,405.7z"/>
			</g>
			<g>
				<path class="st0" d="M492.9,405.7c-0.1,0-0.2-0.1-0.3-0.2l-3.1-15.6c0-0.1,0.1-0.3,0.2-0.3c0.1,0,0.3,0.1,0.3,0.2l3.1,15.6
					C493.2,405.6,493.1,405.7,492.9,405.7C492.9,405.7,492.9,405.7,492.9,405.7z"/>
			</g>
			<g>
				<path class="st0" d="M489.8,390.2c-0.1,0-0.2-0.1-0.3-0.2c0-0.1,0.1-0.3,0.2-0.3l717.7-141.3c0.1,0,0.3,0.1,0.3,0.2
					c0,0.1-0.1,0.3-0.2,0.3L489.8,390.2C489.9,390.2,489.8,390.2,489.8,390.2z"/>
			</g>
		</g>
	</g>
</g>
<g>
	<g id="_x3C_Radial_Repeat_x3E__00000113336708486771689260000014456446770035964048_">
		<g>
			<g>
				<polygon points="1197.9,236.2 1196.9,236.4 1141,11.5 1142,11.5 				"/>
			</g>
		</g>
	</g>
	<g id="_x3C_Radial_Repeat_x3E__00000011001767430094262290000004048214206988724362_">
		<g>
			<g>
				<polygon points="1181,239.7 1180,239.9 1128.8,11.6 1129.8,11.6 				"/>
			</g>
		</g>
	</g>
	<g id="_x3C_Radial_Repeat_x3E__00000004540615797296627780000014477810502399190965_">
		<g>
			<g>
				<polygon points="1164.3,243.1 1163.3,243.3 1117,11.6 1118,11.6 				"/>
			</g>
		</g>
	</g>
	<g id="_x3C_Radial_Repeat_x3E__00000181801485371239258320000005100341619872090759_">
		<g>
			<g>
				<polygon points="1147.8,246.5 1146.8,246.7 1105.5,11.6 1106.5,11.6 				"/>
			</g>
		</g>
	</g>
	<g id="_x3C_Radial_Repeat_x3E__00000055691620234134495680000006568759242335932299_">
		<g>
			<g>
				<polygon points="1131.6,249.9 1130.6,250.1 1094.4,11.7 1095.4,11.7 				"/>
			</g>
		</g>
	</g>
	<g id="_x3C_Radial_Repeat_x3E__00000173879263320414928390000013777467770630907812_">
		<g>
			<g>
				<polygon points="1115.5,253.2 1114.6,253.4 1083.6,11.7 1084.6,11.7 				"/>
			</g>
		</g>
	</g>
	<g id="_x3C_Radial_Repeat_x3E__00000168827324189602693510000003562973013564788105_">
		<g>
			<g>
				<polygon points="1099.7,256.5 1098.7,256.7 1073.1,11.7 1074.1,11.7 				"/>
			</g>
		</g>
	</g>
	<g id="_x3C_Radial_Repeat_x3E__00000158737019561163000870000012341071167072800443_">
		<g>
			<g>
				<polygon points="1084,259.7 1083,259.9 1062.8,11.7 1063.8,11.7 				"/>
			</g>
		</g>
	</g>
	<g id="_x3C_Radial_Repeat_x3E__00000061433797946871775470000006829204960456933814_">
		<g>
			<g>
				<polygon points="1068.4,262.9 1067.4,263.1 1052.9,11.8 1053.9,11.8 				"/>
			</g>
		</g>
	</g>
	<g id="_x3C_Radial_Repeat_x3E__00000162315521699376146020000012010954148918472867_">
		<g>
			<g>
				<polygon points="1053,266.1 1052,266.3 1043.1,11.8 1044.1,11.8 				"/>
			</g>
		</g>
	</g>
	<g id="_x3C_Radial_Repeat_x3E__00000032639067589493507550000010571491417576697746_">
		<g>
			<g>
				<polygon points="1037.6,269.3 1036.6,269.5 1033.6,11.8 1034.6,11.8 				"/>
			</g>
		</g>
	</g>
	<g id="_x3C_Radial_Repeat_x3E__00000147179303894787693520000008994203193379476891_">
		<g>
			<g>
				<polygon points="1025.3,11.8 1022.4,272.4 1021.3,272.6 1024.3,11.8 				"/>
			</g>
		</g>
	</g>
	<g id="_x3C_Radial_Repeat_x3E__00000088132898537441925860000010596589930413174918_">
		<g>
			<g>
				<polygon points="1016.3,11.9 1007.1,275.5 1006.1,275.8 1015.3,11.9 				"/>
			</g>
		</g>
	</g>
	<g id="_x3C_Radial_Repeat_x3E__00000092451168483815205690000002884953060907134104_">
		<g>
			<g>
				<polygon points="1007.4,11.9 992,278.7 991,278.9 1006.4,11.9 				"/>
			</g>
		</g>
	</g>
	<g id="_x3C_Radial_Repeat_x3E__00000078011588016209276190000008552448790370843069_">
		<g>
			<g>
				<polygon points="998.7,11.9 976.8,281.8 975.8,282 997.7,11.9 				"/>
			</g>
		</g>
	</g>
	<g id="_x3C_Radial_Repeat_x3E__00000140720846138271579020000007209851343269389975_">
		<g>
			<g>
				<polygon points="990.2,11.9 961.7,284.9 960.7,285.1 989.2,11.9 				"/>
			</g>
		</g>
	</g>
	<g id="_x3C_Radial_Repeat_x3E__00000095334284512004075130000016289771803427987613_">
		<g>
			<g>
				<polygon points="981.8,12 946.5,288 945.5,288.3 980.8,12 				"/>
			</g>
		</g>
	</g>
	<g id="_x3C_Radial_Repeat_x3E__00000078027058954921066700000005010883996832269466_">
		<g>
			<g>
				<polygon points="973.6,12 931.3,291.2 930.3,291.4 972.6,12 				"/>
			</g>
		</g>
	</g>
	<g id="_x3C_Radial_Repeat_x3E__00000033361634760257092540000016526428162197639870_">
		<g>
			<g>
				<polygon points="965.6,12 916.1,294.3 915,294.5 964.6,12 				"/>
			</g>
		</g>
	</g>
	<g id="_x3C_Radial_Repeat_x3E__00000146485506526889233120000005524100275969270696_">
		<g>
			<g>
				<polygon points="957.7,12 900.7,297.5 899.7,297.7 956.7,12 				"/>
			</g>
		</g>
	</g>
	<g id="_x3C_Radial_Repeat_x3E__00000086664991640217056920000014451466361169617059_">
		<g>
			<g>
				<polygon points="949.9,12 885.3,300.7 884.2,300.9 948.9,12 				"/>
			</g>
		</g>
	</g>
	<g id="_x3C_Radial_Repeat_x3E__00000056414779905067245600000007127007395936524471_">
		<g>
			<g>
				<polygon points="942.2,12.1 869.7,303.9 868.7,304.1 941.2,12.1 				"/>
			</g>
		</g>
	</g>
	<g id="_x3C_Radial_Repeat_x3E__00000044174909199637153130000005913288465597706941_">
		<g>
			<g>
				<polygon points="934.7,12.1 854,307.1 852.9,307.4 933.7,12.1 				"/>
			</g>
		</g>
	</g>
	<g id="_x3C_Radial_Repeat_x3E__00000011003658283886562460000009281351015519768765_">
		<g>
			<g>
				<polygon points="927.3,12.1 838.1,310.4 837,310.6 926.2,12.1 				"/>
			</g>
		</g>
	</g>
	<g id="_x3C_Radial_Repeat_x3E__00000080177034787483759810000007847813407533257610_">
		<g>
			<g>
				<polygon points="919.9,12.1 822,313.7 820.9,314 918.9,12.1 				"/>
			</g>
		</g>
	</g>
	<g id="_x3C_Radial_Repeat_x3E__00000063613879503877273820000009138296665714276508_">
		<g>
			<g>
				<polygon points="912.7,12.1 805.6,317.1 804.5,317.3 911.6,12.1 				"/>
			</g>
		</g>
	</g>
	<g id="_x3C_Radial_Repeat_x3E__00000060731669589617307630000009945252645984327326_">
		<g>
			<g>
				<polygon points="905.5,12.1 789,320.5 787.9,320.8 904.5,12.1 				"/>
			</g>
		</g>
	</g>
	<g id="_x3C_Radial_Repeat_x3E__00000015320023291387750170000008381236509126059167_">
		<g>
			<g>
				<polygon points="898.5,12.2 772.1,324 770.9,324.3 897.4,12.2 				"/>
			</g>
		</g>
	</g>
	<g id="_x3C_Radial_Repeat_x3E__00000037693814922070862810000005072400730072628152_">
		<g>
			<g>
				<polygon points="891.5,12.2 754.8,327.6 753.6,327.8 890.4,12.2 				"/>
			</g>
		</g>
	</g>
	<g id="_x3C_Radial_Repeat_x3E__00000083786145478496359080000017758923042666725248_">
		<g>
			<g>
				<polygon points="884.5,12.2 737.1,331.2 735.9,331.5 883.4,12.2 				"/>
			</g>
		</g>
	</g>
	<g id="_x3C_Radial_Repeat_x3E__00000183230508081761820480000005054085135909350817_">
		<g>
			<g>
				<polygon points="877.7,12.2 719,335 717.8,335.2 876.6,12.2 				"/>
			</g>
		</g>
	</g>
	<g id="_x3C_Radial_Repeat_x3E__00000047034615154532718930000004242959689191538562_">
		<g>
			<g>
				<polygon points="870.8,12.2 700.4,338.8 699.1,339.1 869.7,12.2 				"/>
			</g>
		</g>
	</g>
	<g id="_x3C_Radial_Repeat_x3E__00000042720177405899955830000003648474676881968257_">
		<g>
			<g>
				<polygon points="864.1,12.3 681.3,342.8 680,343 862.9,12.3 				"/>
			</g>
		</g>
	</g>
	<g id="_x3C_Radial_Repeat_x3E__00000169540969690693569260000002048006768588666005_">
		<g>
			<g>
				<polygon points="857.3,12.3 661.5,346.8 660.2,347.1 856.2,12.3 				"/>
			</g>
		</g>
	</g>
	<g id="_x3C_Radial_Repeat_x3E__00000078729761240262175530000004080945227577004694_">
		<g>
			<g>
				<polygon points="850.6,12.3 641.1,351 639.7,351.3 849.5,12.3 				"/>
			</g>
		</g>
	</g>
	<g id="_x3C_Radial_Repeat_x3E__00000140702922891056308700000014351244593331316368_">
		<g>
			<g>
				<polygon points="843.9,12.3 619.8,355.4 618.5,355.7 842.8,12.3 				"/>
			</g>
		</g>
	</g>
	<g id="_x3C_Radial_Repeat_x3E__00000113321220469558343830000017867445811501108907_">
		<g>
			<g>
				<polygon points="837.3,12.3 597.8,360 596.4,360.3 836.1,12.3 				"/>
			</g>
		</g>
	</g>
	<g id="_x3C_Radial_Repeat_x3E__00000072267421712817120390000012342970152043057795_">
		<g>
			<g>
				<polygon points="830.6,12.3 574.8,364.7 573.3,365 829.4,12.3 				"/>
			</g>
		</g>
	</g>
	<g id="_x3C_Radial_Repeat_x3E__00000060740535211497964820000003337595083696744635_">
		<g>
			<g>
				<polygon points="824,12.4 550.7,369.7 549.2,370 822.7,12.4 				"/>
			</g>
		</g>
	</g>
	<g id="_x3C_Radial_Repeat_x3E__00000133516942634821266970000009376506453921072299_">
		<g>
			<g>
				<polygon points="817.3,12.4 525.4,374.9 523.8,375.2 816,12.4 				"/>
			</g>
		</g>
	</g>
	<g id="_x3C_Radial_Repeat_x3E__00000088833989482843079360000002085185163111145370_">
		<g>
			<g>
				<polygon points="810.6,12.4 498.7,380.4 497.1,380.7 809.3,12.4 				"/>
			</g>
		</g>
	</g>
</g>
<g>
	<g id="_x3C_Radial_Repeat_x3E__00000116210953881555182400000010765493878748948397_">
		<g>
			<path d="M701.9,522l0,4.8v0l-18.5,125.6h-1l19.1-130C701.5,522.2,701.7,522,701.9,522z"/>
		</g>
	</g>
	<g id="_x3C_Radial_Repeat_x3E__00000016065182452412244380000011071393216536371082_">
		<g>
			<path d="M702.4,439.2l-38,213.2h-1l38-213.4c0-0.3,0.3-0.5,0.6-0.4C702.2,438.7,702.4,438.9,702.4,439.2z"/>
		</g>
	</g>
	<g id="_x3C_Radial_Repeat_x3E__00000039841742119858622140000007491436159052078488_">
		<g>
			<polygon points="702.2,376.6 644.4,652.4 643.3,652.4 701.1,376.8 			"/>
		</g>
	</g>
	<g id="_x3C_Radial_Repeat_x3E__00000023976170025092607280000012951927448462640522_">
		<g>
			<polygon points="687.6,379.4 621.7,652.4 620.6,652.4 686.5,379.6 			"/>
		</g>
	</g>
	<g id="_x3C_Radial_Repeat_x3E__00000102545408909465549640000001592687476924147891_">
		<g>
			<polygon points="672.9,382.2 598.9,652.4 597.9,652.4 671.8,382.4 			"/>
		</g>
	</g>
	<g id="_x3C_Radial_Repeat_x3E__00000092450123082233533430000005198034802523507604_">
		<g>
			<polygon points="658,385 576.1,652.3 575.1,652.3 656.9,385.2 			"/>
		</g>
	</g>
	<g id="_x3C_Radial_Repeat_x3E__00000148629039320859774260000017133732581808102569_">
		<g>
			<polygon points="643.1,387.8 553.2,652.3 552.2,652.3 641.9,388 			"/>
		</g>
	</g>
	<g id="_x3C_Radial_Repeat_x3E__00000155147403739616771870000009022265090822316453_">
		<g>
			<polygon points="627.9,390.7 530.1,652.3 529.1,652.3 626.8,390.9 			"/>
		</g>
	</g>
	<g id="_x3C_Radial_Repeat_x3E__00000033350661241080340990000005716900207529412012_">
		<g>
			<polygon points="612.5,393.6 506.8,652.3 505.7,652.3 611.4,393.8 			"/>
		</g>
	</g>
	<g id="_x3C_Radial_Repeat_x3E__00000054257528064616561080000008967906788631597452_">
		<g>
			<polygon points="596.9,396.5 483.3,652.3 482.2,652.3 595.7,396.8 			"/>
		</g>
	</g>
	<g id="_x3C_Radial_Repeat_x3E__00000127016447281581613780000010561187288949988256_">
		<g>
			<polygon points="580.9,399.6 459.4,652.3 458.3,652.3 579.7,399.8 			"/>
		</g>
	</g>
	<g id="_x3C_Radial_Repeat_x3E__00000057149009953716498160000000520950131544034207_">
		<g>
			<polygon points="564.6,402.6 435.1,652.2 434,652.2 563.3,402.9 			"/>
		</g>
	</g>
	<g id="_x3C_Radial_Repeat_x3E__00000079468439006594310180000004140972455365503161_">
		<g>
			<polygon points="547.8,405.8 410.4,652.2 409.2,652.2 546.5,406.1 			"/>
		</g>
	</g>
	<g id="_x3C_Radial_Repeat_x3E__00000029034202295154861610000006138672054080289967_">
		<g>
			<polygon points="530.5,409.1 385.2,652.2 384,652.2 529.2,409.3 			"/>
		</g>
	</g>
	<g id="_x3C_Radial_Repeat_x3E__00000139258642273917625320000010946003430887574949_">
		<g>
			<polygon points="512.7,412.5 359.4,652.2 358.2,652.2 511.4,412.7 			"/>
		</g>
	</g>
	<g id="_x3C_Radial_Repeat_x3E__00000052806800500913377330000005153346880863863721_">
		<g>
			<polygon points="494.3,415.9 332.9,652.2 331.7,652.2 492.9,416.2 			"/>
		</g>
	</g>
	<g id="_x3C_Radial_Repeat_x3E__00000175296182433378574970000007469914701954883978_">
		<g>
			<polygon points="482.1,409.9 299.7,660.3 298.2,660.7 480.8,410.1 			"/>
		</g>
	</g>
</g>
<g>
	<g id="_x3C_Radial_Repeat_x3E__00000025415447022602108750000002220217134373845933_">
		<g>
			<polygon points="1361,696 1359.9,696 1207.8,273.8 1208.8,273.6 			"/>
		</g>
	</g>
	<g id="_x3C_Radial_Repeat_x3E__00000072249534982834067130000008122144911998535868_">
		<g>
			<polygon points="1338.4,696 1337.4,696 1197.9,275.8 1198.9,275.6 			"/>
		</g>
	</g>
	<g id="_x3C_Radial_Repeat_x3E__00000130643382378955281120000006915191817063160739_">
		<g>
			<path d="M1315.6,694.9c-0.1,0-0.1,0-0.1,0c-0.2,0-0.4-0.1-0.5-0.4l-126.6-416.8l1-0.2l126.6,416.8
				C1316,694.6,1315.8,694.9,1315.6,694.9z"/>
		</g>
	</g>
	<g id="_x3C_Radial_Repeat_x3E__00000022522209895869704260000011495115155718236043_">
		<g>
			<polygon points="1294.9,696.1 1293.9,696.1 1178.9,279.7 1179.9,279.5 			"/>
		</g>
	</g>
	<g id="_x3C_Radial_Repeat_x3E__00000167384967604649922690000015528769427819204783_">
		<g>
			<polygon points="1273.9,696.1 1272.9,696.1 1169.8,281.6 1170.8,281.4 			"/>
		</g>
	</g>
	<g id="_x3C_Radial_Repeat_x3E__00000134245998941798701800000003083804835670251139_">
		<g>
			<polygon points="1253.4,696.1 1252.3,696.1 1160.9,283.4 1161.8,283.2 			"/>
		</g>
	</g>
	<g id="_x3C_Radial_Repeat_x3E__00000040543699523603761820000016072427468783166353_">
		<g>
			<polygon points="1233.2,696.2 1232.2,696.2 1152.1,285.2 1153.1,285 			"/>
		</g>
	</g>
	<g id="_x3C_Radial_Repeat_x3E__00000024700614419668327370000002987776263485834921_">
		<g>
			<polygon points="1213.5,696.2 1212.5,696.2 1143.6,287 1144.5,286.8 			"/>
		</g>
	</g>
	<g id="_x3C_Radial_Repeat_x3E__00000085933781173671229960000011646435641469110667_">
		<g>
			<polygon points="1194.1,696.2 1193.1,696.2 1135.2,288.7 1136.2,288.5 			"/>
		</g>
	</g>
	<g id="_x3C_Radial_Repeat_x3E__00000154417880317829910670000017601731457341262239_">
		<g>
			<polygon points="1175,696.3 1174,696.3 1127,290.4 1128,290.2 			"/>
		</g>
	</g>
	<g id="_x3C_Radial_Repeat_x3E__00000065765261837999021140000008315805670807745714_">
		<g>
			<polygon points="1156.3,696.3 1155.3,696.3 1119,292 1119.9,291.8 			"/>
		</g>
	</g>
	<g id="_x3C_Radial_Repeat_x3E__00000083050106778742727900000009559587813639273889_">
		<g>
			<polygon points="1137.8,696.3 1136.8,696.3 1111.1,293.6 1112.1,293.4 			"/>
		</g>
	</g>
	<g id="_x3C_Radial_Repeat_x3E__00000116226521689982407840000001970211010515760799_">
		<g>
			<polygon points="1119.7,696.4 1118.6,696.4 1103.3,295.2 1104.3,295 			"/>
		</g>
	</g>
	<g id="_x3C_Radial_Repeat_x3E__00000075849977768329036400000013381285614288052922_">
		<g>
			<polygon points="1101.7,696.4 1100.7,696.4 1095.7,296.8 1096.7,296.6 			"/>
		</g>
	</g>
</g>
<g>
	<path d="M701.9,522l0,4.8v0l-18.5,125.6h-1l19.1-130C701.5,522.2,701.7,522,701.9,522z"/>
	<polygon points="482.1,409.9 299.7,660.3 298.2,660.7 480.8,410.1 	"/>
	<polygon points="494.3,415.9 332.9,652.2 331.7,652.2 492.9,416.2 	"/>
	<polygon points="512.7,412.5 359.4,652.2 358.2,652.2 511.4,412.7 	"/>
	<polygon points="530.5,409.1 385.2,652.2 384,652.2 529.2,409.3 	"/>
	<polygon points="547.8,405.8 410.4,652.2 409.2,652.2 546.5,406.1 	"/>
	<polygon points="564.6,402.6 435.1,652.2 434,652.2 563.3,402.9 	"/>
	<polygon points="580.9,399.6 459.4,652.3 458.3,652.3 579.7,399.8 	"/>
	<polygon points="596.9,396.5 483.3,652.3 482.2,652.3 595.7,396.8 	"/>
	<polygon points="612.5,393.6 506.8,652.3 505.7,652.3 611.4,393.8 	"/>
	<polygon points="627.9,390.7 530.1,652.3 529.1,652.3 626.8,390.9 	"/>
	<polygon points="643.1,387.8 553.2,652.3 552.2,652.3 641.9,388 	"/>
	<polygon points="658,385 576.1,652.3 575.1,652.3 656.9,385.2 	"/>
	<polygon points="672.9,382.2 598.9,652.4 597.9,652.4 671.8,382.4 	"/>
	<polygon points="687.6,379.4 621.7,652.4 620.6,652.4 686.5,379.6 	"/>
	<polygon points="702.2,376.6 644.4,652.4 643.3,652.4 701.1,376.8 	"/>
	<path d="M702.4,439.2l-38,213.2h-1l38-213.4c0-0.3,0.3-0.5,0.6-0.4C702.2,438.7,702.4,438.9,702.4,439.2z"/>
</g>
</svg>
