<?xml version="1.0" encoding="UTF-8"?>
<svg id="GRAPHICS" xmlns="http://www.w3.org/2000/svg" viewBox="0 0 779.56 720">
  <defs>
    <style>
      .cls-1 {
        stroke-width: 0px;
      }
    </style>
  </defs>
  <g>
    <g id="DIMENSION">
      <g id="LINE">
        <path class="cls-1" d="M400.93,540.15h-44.72c-.07,0-.12-.06-.12-.12s.06-.12.12-.12h44.72c.07,0,.12.06.12.12s-.06.12-.12.12Z"/>
      </g>
      <g id="LINE-2" data-name="LINE">
        <path class="cls-1" d="M400.93,204.75h-44.72c-.07,0-.12-.06-.12-.12s.06-.12.12-.12h44.72c.07,0,.12.06.12.12s-.06.12-.12.12Z"/>
      </g>
      <g id="LINE-3" data-name="LINE">
        <g>
          <path class="cls-1" d="M396.58,530.9c-.07,0-.12-.06-.12-.12v-151.54c0-.07.06-.12.12-.12s.12.06.12.12v151.54c0,.07-.06.12-.12.12Z"/>
          <polygon class="cls-1" points="397.83 530.41 396.58 532.57 395.34 530.41 397.83 530.41"/>
        </g>
      </g>
      <g id="LINE-4" data-name="LINE">
        <g>
          <path class="cls-1" d="M396.58,365.54c-.07,0-.12-.06-.12-.12v-151.54c0-.07.06-.12.12-.12s.12.06.12.12v151.54c0,.07-.06.12-.12.12Z"/>
          <polygon class="cls-1" points="395.34 214.23 396.58 212.07 397.83 214.23 395.34 214.23"/>
        </g>
      </g>
      <g id="MTEXT">
        <g>
          <path class="cls-1" d="M394.38,375.99h-.92v-5.9c-.22.21-.52.42-.88.64-.36.21-.69.37-.97.48v-.89c.52-.24.97-.54,1.36-.88.39-.35.66-.68.82-1.01h.6v7.57Z"/>
          <path class="cls-1" d="M398.17,371.9c-.38-.14-.67-.34-.85-.6-.19-.26-.28-.57-.28-.94,0-.55.2-1.01.59-1.38.39-.37.92-.56,1.57-.56s1.19.19,1.59.57.6.85.6,1.4c0,.35-.09.65-.28.91s-.46.46-.83.6c.46.15.81.39,1.06.73.24.34.36.74.36,1.2,0,.64-.23,1.19-.68,1.62-.46.44-1.06.66-1.8.66s-1.34-.22-1.8-.66c-.46-.44-.68-.99-.68-1.65,0-.49.12-.9.37-1.23.25-.33.6-.56,1.06-.68ZM397.69,373.81c0,.26.06.52.19.77s.31.44.56.57.51.2.8.2c.44,0,.81-.14,1.09-.43s.43-.65.43-1.08-.15-.81-.44-1.1c-.3-.29-.67-.44-1.11-.44s-.8.14-1.08.43c-.29.29-.43.65-.43,1.08ZM397.98,370.33c0,.36.12.65.34.87s.53.34.89.34.65-.11.88-.34c.23-.22.34-.5.34-.83s-.12-.62-.35-.86c-.23-.23-.53-.35-.88-.35s-.65.11-.88.34c-.23.23-.35.5-.35.81Z"/>
        </g>
      </g>
    </g>
    <g id="DIMENSION-2" data-name="DIMENSION">
      <g id="LINE-5" data-name="LINE">
        <path class="cls-1" d="M351.86,200.4c-.07,0-.12-.06-.12-.12v-44.72c0-.07.06-.12.12-.12s.12.06.12.12v44.72c0,.07-.06.12-.12.12Z"/>
      </g>
      <g id="LINE-6" data-name="LINE">
        <path class="cls-1" d="M45.18,200.4c-.07,0-.12-.06-.12-.12v-44.72c0-.07.06-.12.12-.12s.12.06.12.12v44.72c0,.07-.06.12-.12.12Z"/>
      </g>
      <g id="LINE-7" data-name="LINE">
        <g>
          <path class="cls-1" d="M342.61,160.03h-128.76c-.07,0-.12-.06-.12-.12s.06-.12.12-.12h128.76c.07,0,.12.06.12.12s-.06.12-.12.12Z"/>
          <polygon class="cls-1" points="342.25 158.65 344.41 159.9 342.25 161.15 342.25 158.65"/>
        </g>
      </g>
      <g id="LINE-8" data-name="LINE">
        <g>
          <path class="cls-1" d="M183.2,160.03H54.43c-.07,0-.12-.06-.12-.12s.06-.12.12-.12h128.76c.07,0,.12.06.12.12s-.06.12-.12.12Z"/>
          <polygon class="cls-1" points="54.8 161.15 52.64 159.9 54.8 158.65 54.8 161.15"/>
        </g>
      </g>
      <g id="MTEXT-2" data-name="MTEXT">
        <g>
          <path class="cls-1" d="M194.92,163.56h-.92v-5.9c-.22.21-.52.42-.88.64-.36.21-.69.37-.97.48v-.89c.52-.24.97-.54,1.36-.88.39-.35.66-.68.82-1.01h.6v7.57Z"/>
          <path class="cls-1" d="M202.09,157.87l-.92.07c-.08-.36-.2-.63-.35-.79-.25-.26-.56-.4-.93-.4-.29,0-.55.08-.78.25-.29.21-.52.52-.69.93-.17.41-.25.99-.26,1.74.22-.34.5-.59.82-.76.32-.16.66-.25,1.01-.25.62,0,1.14.23,1.58.68s.65,1.04.65,1.76c0,.47-.1.91-.31,1.32-.2.41-.48.72-.84.93s-.76.32-1.21.32c-.77,0-1.4-.28-1.89-.85-.49-.57-.73-1.5-.73-2.8,0-1.46.27-2.51.81-3.18.47-.58,1.1-.86,1.9-.86.59,0,1.08.17,1.46.5.38.33.61.79.68,1.38ZM198.31,161.12c0,.32.07.62.2.92.13.29.32.51.57.67.24.15.5.23.77.23.39,0,.73-.16,1.01-.47.28-.32.42-.74.42-1.29s-.14-.93-.42-1.23c-.28-.3-.63-.45-1.05-.45s-.77.15-1.06.45c-.29.3-.44.69-.44,1.18Z"/>
        </g>
      </g>
    </g>
    <g id="LINE-9" data-name="LINE">
      <path class="cls-1" d="M66.15,486.74c-.07,0-.12-.06-.12-.12V197.97c0-.07.06-.12.12-.12s.12.06.12.12v288.64c0,.07-.06.12-.12.12Z"/>
    </g>
    <g id="LINE-10" data-name="LINE">
      <path class="cls-1" d="M66.15,198.1c-.07,0-.12-.06-.12-.12v-.92c0-.07.06-.12.12-.12s.12.06.12.12v.92c0,.07-.06.12-.12.12Z"/>
    </g>
    <g id="LINE-11" data-name="LINE">
      <path class="cls-1" d="M327.02,486.74H66.15c-.07,0-.12-.06-.12-.12s.06-.12.12-.12h260.87c.07,0,.12.06.12.12s-.06.12-.12.12Z"/>
    </g>
    <g id="LINE-12" data-name="LINE">
      <path class="cls-1" d="M327.02,486.74c-.07,0-.12-.06-.12-.12V197.97c0-.07.06-.12.12-.12s.12.06.12.12v288.64c0,.07-.06.12-.12.12Z"/>
    </g>
    <g id="LINE-13" data-name="LINE">
      <path class="cls-1" d="M327.02,198.1c-.07,0-.12-.06-.12-.12v-.92c0-.07.06-.12.12-.12s.12.06.12.12v.92c0,.07-.06.12-.12.12Z"/>
    </g>
    <g id="LINE-14" data-name="LINE">
      <path class="cls-1" d="M327.02,197.18H66.15c-.07,0-.12-.06-.12-.12s.06-.12.12-.12h260.87c.07,0,.12.06.12.12s-.06.12-.12.12Z"/>
    </g>
    <g id="LINE-15" data-name="LINE">
      <path class="cls-1" d="M66.15,209.79h-15.92c-.07,0-.12-.06-.12-.12s.06-.12.12-.12h15.92c.07,0,.12.06.12.12s-.06.12-.12.12Z"/>
    </g>
    <g id="LINE-16" data-name="LINE">
      <path class="cls-1" d="M346.82,209.79h-19.8c-.07,0-.12-.06-.12-.12s.06-.12.12-.12h19.8c.07,0,.12.06.12.12s-.06.12-.12.12Z"/>
    </g>
    <g id="LINE-17" data-name="LINE">
      <path class="cls-1" d="M50.23,209.79c-.07,0-.12-.06-.12-.12v-5.05c0-.07.06-.12.12-.12s.12.06.12.12v5.05c0,.07-.06.12-.12.12Z"/>
    </g>
    <g id="LINE-18" data-name="LINE">
      <path class="cls-1" d="M346.82,209.79c-.07,0-.12-.06-.12-.12v-5.05c0-.07.06-.12.12-.12s.12.06.12.12v5.05c0,.07-.06.12-.12.12Z"/>
    </g>
    <g id="LINE-19" data-name="LINE">
      <path class="cls-1" d="M66.15,204.75h-15.92c-.07,0-.12-.06-.12-.12s.06-.12.12-.12h15.92c.07,0,.12.06.12.12s-.06.12-.12.12Z"/>
    </g>
    <g id="LINE-20" data-name="LINE">
      <path class="cls-1" d="M346.82,204.75h-19.8c-.07,0-.12-.06-.12-.12s.06-.12.12-.12h19.8c.07,0,.12.06.12.12s-.06.12-.12.12Z"/>
    </g>
    <g id="LINE-21" data-name="LINE">
      <path class="cls-1" d="M50.23,535.1s-.07,0-.09-.03c-.02-.03-.04-.06-.04-.09,0-.04.02-.07.04-.09.05-.05.13-.05.18,0,.02.02.04.05.04.09,0,.03-.02.06-.04.09-.02.02-.05.03-.09.03Z"/>
    </g>
    <g id="LINE-22" data-name="LINE">
      <path class="cls-1" d="M50.23,209.79s-.06-.01-.09-.03c-.02-.03-.03-.06-.03-.09,0-.04.01-.07.03-.09.05-.05.13-.05.18,0,.02.02.04.06.04.09s-.02.06-.04.09c-.03.02-.06.03-.09.03Z"/>
    </g>
    <g id="LINE-23" data-name="LINE">
      <path class="cls-1" d="M50.23,535.1c-.07,0-.12-.06-.12-.12V209.67c0-.07.06-.12.12-.12s.12.06.12.12v325.31c0,.07-.06.12-.12.12Z"/>
    </g>
    <g id="LINE-24" data-name="LINE">
      <path class="cls-1" d="M50.23,209.79c-.07,0-.12-.06-.12-.12v-5.05c0-.07.06-.12.12-.12s.12.06.12.12v5.05c0,.07-.06.12-.12.12Z"/>
    </g>
    <g id="LINE-25" data-name="LINE">
      <path class="cls-1" d="M50.23,204.75h-5.05c-.07,0-.12-.06-.12-.12s.06-.12.12-.12h5.05c.07,0,.12.06.12.12s-.06.12-.12.12Z"/>
    </g>
    <g id="LINE-26" data-name="LINE">
      <path class="cls-1" d="M45.18,540.15c-.07,0-.12-.06-.12-.12V204.62c0-.07.06-.12.12-.12s.12.06.12.12v335.4c0,.07-.06.12-.12.12Z"/>
    </g>
    <g id="LINE-27" data-name="LINE">
      <path class="cls-1" d="M49.46,540.15h-4.27c-.07,0-.12-.06-.12-.12s.06-.12.12-.12h4.27c.07,0,.12.06.12.12s-.06.12-.12.12Z"/>
    </g>
    <g id="LINE-28" data-name="LINE">
      <path class="cls-1" d="M50.23,540.15c-.07,0-.12-.06-.12-.12v-5.05c0-.07.06-.12.12-.12s.12.06.12.12v5.05c0,.07-.06.12-.12.12Z"/>
    </g>
    <g id="LINE-29" data-name="LINE">
      <path class="cls-1" d="M346.81,535.1s-.06,0-.08-.03c-.03-.03-.04-.06-.04-.09,0-.04,0-.07.04-.09.04-.05.13-.05.17,0,.03.02.04.05.04.09,0,.03-.01.06-.04.09-.02.02-.05.03-.09.03Z"/>
    </g>
    <g id="LINE-30" data-name="LINE">
      <path class="cls-1" d="M346.82,535.1c-.07,0-.12-.06-.12-.12V209.67c0-.07.06-.12.12-.12s.12.06.12.12v325.31c0,.07-.06.12-.12.12Z"/>
    </g>
    <g id="LINE-31" data-name="LINE">
      <path class="cls-1" d="M346.82,540.15c-.07,0-.12-.06-.12-.12v-5.05c0-.07.06-.12.12-.12s.12.06.12.12v5.05c0,.07-.06.12-.12.12Z"/>
    </g>
    <g id="LINE-32" data-name="LINE">
      <path class="cls-1" d="M351.86,540.15h-5.05c-.07,0-.12-.06-.12-.12s.06-.12.12-.12h5.05c.07,0,.12.06.12.12s-.06.12-.12.12Z"/>
    </g>
    <g id="LINE-33" data-name="LINE">
      <path class="cls-1" d="M351.86,540.15c-.07,0-.12-.06-.12-.12V204.62c0-.07.06-.12.12-.12s.12.06.12.12v335.4c0,.07-.06.12-.12.12Z"/>
    </g>
    <g id="LINE-34" data-name="LINE">
      <path class="cls-1" d="M351.86,204.75h-5.05c-.07,0-.12-.06-.12-.12s.06-.12.12-.12h5.05c.07,0,.12.06.12.12s-.06.12-.12.12Z"/>
    </g>
    <g id="LINE-35" data-name="LINE">
      <path class="cls-1" d="M346.82,209.79c-.07,0-.12-.06-.12-.12v-5.05c0-.07.06-.12.12-.12s.12.06.12.12v5.05c0,.07-.06.12-.12.12Z"/>
    </g>
    <g id="LINE-36" data-name="LINE">
      <path class="cls-1" d="M346.82,209.79s-.07-.01-.09-.03c-.03-.03-.04-.06-.04-.09,0-.04,0-.07.04-.09.04-.05.13-.05.17,0,.03.02.04.05.04.09,0,.03-.01.06-.04.09-.02.02-.05.03-.08.03Z"/>
    </g>
    <g id="LINE-37" data-name="LINE">
      <path class="cls-1" d="M173.29,535.1H50.23c-.07,0-.12-.06-.12-.12s.06-.12.12-.12h123.06c.07,0,.12.06.12.12s-.06.12-.12.12Z"/>
    </g>
    <g id="LINE-38" data-name="LINE">
      <path class="cls-1" d="M346.82,535.1h-126.94c-.07,0-.12-.06-.12-.12s.06-.12.12-.12h126.94c.07,0,.12.06.12.12s-.06.12-.12.12Z"/>
    </g>
    <g id="LINE-39" data-name="LINE">
      <path class="cls-1" d="M50.23,540.15c-.07,0-.12-.06-.12-.12v-5.05c0-.07.06-.12.12-.12s.12.06.12.12v5.05c0,.07-.06.12-.12.12Z"/>
    </g>
    <g id="LINE-40" data-name="LINE">
      <path class="cls-1" d="M173.29,540.15H49.46c-.07,0-.12-.06-.12-.12s.06-.12.12-.12h123.84c.07,0,.12.06.12.12s-.06.12-.12.12Z"/>
    </g>
    <g id="LINE-41" data-name="LINE">
      <path class="cls-1" d="M346.82,540.15h-126.94c-.07,0-.12-.06-.12-.12s.06-.12.12-.12h126.94c.07,0,.12.06.12.12s-.06.12-.12.12Z"/>
    </g>
    <g id="LINE-42" data-name="LINE">
      <path class="cls-1" d="M346.82,540.15c-.07,0-.12-.06-.12-.12v-5.05c0-.07.06-.12.12-.12s.12.06.12.12v5.05c0,.07-.06.12-.12.12Z"/>
    </g>
    <g id="LINE-43" data-name="LINE">
      <path class="cls-1" d="M219.87,545.28h-46.58c-.07,0-.12-.06-.12-.12s.06-.12.12-.12h46.58c.07,0,.12.06.12.12s-.06.12-.12.12Z"/>
    </g>
    <g id="LINE-44" data-name="LINE">
      <path class="cls-1" d="M173.29,545.28c-.07,0-.12-.06-.12-.12v-58.54c0-.07.06-.12.12-.12s.12.06.12.12v58.54c0,.07-.06.12-.12.12Z"/>
    </g>
    <g id="LINE-45" data-name="LINE">
      <path class="cls-1" d="M219.87,545.28c-.07,0-.12-.06-.12-.12v-58.54c0-.07.06-.12.12-.12s.12.06.12.12v58.54c0,.07-.06.12-.12.12Z"/>
    </g>
    <g id="LINE-46" data-name="LINE">
      <path class="cls-1" d="M219.87,603.72h-46.58c-.07,0-.12-.06-.12-.12s.06-.12.12-.12h46.58c.07,0,.12.06.12.12s-.06.12-.12.12Z"/>
    </g>
    <g id="LINE-47" data-name="LINE">
      <path class="cls-1" d="M219.87,545.28h-46.58c-.07,0-.12-.06-.12-.12s.06-.12.12-.12h46.58c.07,0,.12.06.12.12s-.06.12-.12.12Z"/>
    </g>
    <g id="LINE-48" data-name="LINE">
      <path class="cls-1" d="M219.87,603.72c-.07,0-.12-.06-.12-.12v-58.44c0-.07.06-.12.12-.12s.12.06.12.12v58.44c0,.07-.06.12-.12.12Z"/>
    </g>
    <g id="LINE-49" data-name="LINE">
      <path class="cls-1" d="M173.29,603.72c-.07,0-.12-.06-.12-.12v-58.44c0-.07.06-.12.12-.12s.12.06.12.12v58.44c0,.07-.06.12-.12.12Z"/>
    </g>
  </g>
  <g>
    <g id="DIMENSION-3" data-name="DIMENSION">
      <g id="LINE-50" data-name="LINE">
        <path class="cls-1" d="M739.31,164.17h-44.33c-.07,0-.12-.06-.12-.12s.06-.12.12-.12h44.33c.07,0,.12.06.12.12s-.06.12-.12.12Z"/>
      </g>
      <g id="LINE-51" data-name="LINE">
        <path class="cls-1" d="M739.31,338.27h-23.71c-.07,0-.12-.06-.12-.12s.06-.12.12-.12h23.71c.07,0,.12.06.12.12s-.06.12-.12.12Z"/>
      </g>
      <g id="LINE-52" data-name="LINE">
        <g>
          <path class="cls-1" d="M735.76,244.57c-.07,0-.12-.06-.12-.12v-72.52c0-.07.06-.12.12-.12s.12.06.12.12v72.52c0,.07-.06.12-.12.12Z"/>
          <polygon class="cls-1" points="734.51 172.3 735.76 170.14 737 172.3 734.51 172.3"/>
        </g>
      </g>
      <g id="LINE-53" data-name="LINE">
        <g>
          <path class="cls-1" d="M735.76,330.39c-.07,0-.12-.06-.12-.12v-74.52c0-.07.06-.12.12-.12s.12.06.12.12v74.52c0,.07-.06.12-.12.12Z"/>
          <polygon class="cls-1" points="737 329.9 735.76 332.06 734.51 329.9 737 329.9"/>
        </g>
      </g>
      <g id="MTEXT-3" data-name="MTEXT">
        <g>
          <path class="cls-1" d="M734.14,253.09h-.76v-4.82c-.18.17-.42.35-.72.52-.3.17-.56.3-.8.39v-.73c.42-.2.79-.44,1.11-.72.32-.28.54-.56.67-.82h.49v6.18Z"/>
          <path class="cls-1" d="M738.29,253.09h-.76v-4.82c-.18.17-.42.35-.72.52-.3.17-.56.3-.8.39v-.73c.42-.2.79-.44,1.11-.72.32-.28.54-.56.67-.82h.49v6.18Z"/>
        </g>
      </g>
    </g>
    <g id="LINE-54" data-name="LINE">
      <path class="cls-1" d="M651.88,328.09c-.07,0-.12-.06-.12-.12v-100.04c0-.07.06-.12.12-.12s.12.06.12.12v100.04c0,.07-.06.12-.12.12Z"/>
    </g>
    <g id="LINE-55" data-name="LINE">
      <path class="cls-1" d="M653.38,328.09c-.07,0-.12-.06-.12-.12v-100.04c0-.07.06-.12.12-.12s.12.06.12.12v100.04c0,.07-.06.12-.12.12Z"/>
    </g>
    <g id="LINE-56" data-name="LINE">
      <path class="cls-1" d="M478.33,228.05c-.07,0-.12-.06-.12-.12v-2.9c0-.07.06-.12.12-.12s.12.06.12.12v2.9c0,.07-.06.12-.12.12Z"/>
    </g>
    <g id="LINE-57" data-name="LINE">
      <path class="cls-1" d="M478.33,225.15c-.07,0-.12-.06-.12-.12v-60.98c0-.07.06-.12.12-.12s.12.06.12.12v60.98c0,.07-.06.12-.12.12Z"/>
    </g>
    <g id="LINE-58" data-name="LINE">
      <path class="cls-1" d="M691.43,225.15h-213.1c-.07,0-.12-.06-.12-.12s.06-.12.12-.12h213.1c.07,0,.12.06.12.12s-.06.12-.12.12Z"/>
    </g>
    <g id="LINE-59" data-name="LINE">
      <path class="cls-1" d="M691.43,225.15c-.07,0-.12-.06-.12-.12v-60.98c0-.07.06-.12.12-.12s.12.06.12.12v60.98c0,.07-.06.12-.12.12Z"/>
    </g>
    <g id="LINE-60" data-name="LINE">
      <path class="cls-1" d="M691.43,164.17h-213.1c-.07,0-.12-.06-.12-.12s.06-.12.12-.12h213.1c.07,0,.12.06.12.12s-.06.12-.12.12Z"/>
    </g>
    <g id="LINE-61" data-name="LINE">
      <path class="cls-1" d="M691.43,228.05h-213.1c-.07,0-.12-.06-.12-.12s.06-.12.12-.12h213.1c.07,0,.12.06.12.12s-.06.12-.12.12Z"/>
    </g>
    <g id="LINE-62" data-name="LINE">
      <path class="cls-1" d="M691.43,228.05c-.07,0-.12-.06-.12-.12v-2.9c0-.07.06-.12.12-.12s.12.06.12.12v2.9c0,.07-.06.12-.12.12Z"/>
    </g>
    <g id="LINE-63" data-name="LINE">
      <path class="cls-1" d="M517.89,328.09c-.07,0-.12-.06-.12-.12v-100.04c0-.07.06-.12.12-.12s.12.06.12.12v100.04c0,.07-.06.12-.12.12Z"/>
    </g>
    <g id="LINE-64" data-name="LINE">
      <path class="cls-1" d="M516.39,328.09c-.07,0-.12-.06-.12-.12v-100.04c0-.07.06-.12.12-.12s.12.06.12.12v100.04c0,.07-.06.12-.12.12Z"/>
    </g>
    <g id="LINE-65" data-name="LINE">
      <path class="cls-1" d="M651.88,328.09c-.07,0-.12-.06-.12-.12v-100.04c0-.07.06-.12.12-.12s.12.06.12.12v100.04c0,.07-.06.12-.12.12Z"/>
    </g>
    <g id="LINE-66" data-name="LINE">
      <path class="cls-1" d="M517.89,328.09c-.07,0-.12-.06-.12-.12v-100.04c0-.07.06-.12.12-.12s.12.06.12.12v100.04c0,.07-.06.12-.12.12Z"/>
    </g>
    <g id="LINE-67" data-name="LINE">
      <path class="cls-1" d="M535.41,328.09c-.07,0-.12-.06-.12-.12v-62.27c0-.07.06-.12.12-.12s.12.06.12.12v62.27c0,.07-.06.12-.12.12Z"/>
    </g>
    <g id="LINE-68" data-name="LINE">
      <path class="cls-1" d="M634.35,265.82h-98.94c-.07,0-.12-.06-.12-.12s.06-.12.12-.12h98.94c.07,0,.12.06.12.12s-.06.12-.12.12Z"/>
    </g>
    <g id="LINE-69" data-name="LINE">
      <path class="cls-1" d="M634.35,328.09c-.07,0-.12-.06-.12-.12v-62.27c0-.07.06-.12.12-.12s.12.06.12.12v62.27c0,.07-.06.12-.12.12Z"/>
    </g>
    <g id="LINE-70" data-name="LINE">
      <path class="cls-1" d="M464.7,328.09h-3.49c-.07,0-.12-.06-.12-.12s.06-.12.12-.12h3.49c.07,0,.12.06.12.12s-.06.12-.12.12Z"/>
    </g>
    <g id="LINE-71" data-name="LINE">
      <path class="cls-1" d="M464.7,334.75c-.07,0-.12-.06-.12-.12v-6.66c0-.07.06-.12.12-.12s.12.06.12.12v6.66c0,.07-.06.12-.12.12Z"/>
    </g>
    <g id="LINE-72" data-name="LINE">
      <path class="cls-1" d="M461.21,334.75c-.07,0-.12-.06-.12-.12v-6.66c0-.07.06-.12.12-.12s.12.06.12.12v6.66c0,.07-.06.12-.12.12Z"/>
    </g>
    <g id="LINE-73" data-name="LINE">
      <path class="cls-1" d="M464.7,334.75h-3.49c-.07,0-.12-.06-.12-.12s.06-.12.12-.12h3.49c.07,0,.12.06.12.12s-.06.12-.12.12Z"/>
    </g>
    <g id="LINE-74" data-name="LINE">
      <path class="cls-1" d="M711.73,328.09h-3.49c-.07,0-.12-.06-.12-.12s.06-.12.12-.12h3.49c.07,0,.12.06.12.12s-.06.12-.12.12Z"/>
    </g>
    <g id="LINE-75" data-name="LINE">
      <path class="cls-1" d="M708.24,334.75c-.07,0-.12-.06-.12-.12v-6.66c0-.07.06-.12.12-.12s.12.06.12.12v6.66c0,.07-.06.12-.12.12Z"/>
    </g>
    <g id="LINE-76" data-name="LINE">
      <path class="cls-1" d="M711.73,334.75h-3.49c-.07,0-.12-.06-.12-.12s.06-.12.12-.12h3.49c.07,0,.12.06.12.12s-.06.12-.12.12Z"/>
    </g>
    <g id="LINE-77" data-name="LINE">
      <path class="cls-1" d="M711.73,334.75c-.07,0-.12-.06-.12-.12v-6.66c0-.07.06-.12.12-.12s.12.06.12.12v6.66c0,.07-.06.12-.12.12Z"/>
    </g>
    <g id="LINE-78" data-name="LINE">
      <path class="cls-1" d="M565.86,328.09h-101.16c-.07,0-.12-.06-.12-.12s.06-.12.12-.12h101.16c.07,0,.12.06.12.12s-.06.12-.12.12Z"/>
    </g>
    <g id="LINE-79" data-name="LINE">
      <path class="cls-1" d="M708.24,328.09h-104.33c-.07,0-.12-.06-.12-.12s.06-.12.12-.12h104.33c.07,0,.12.06.12.12s-.06.12-.12.12Z"/>
    </g>
    <g id="LINE-80" data-name="LINE">
      <path class="cls-1" d="M464.7,334.75c-.07,0-.12-.06-.12-.12v-6.66c0-.07.06-.12.12-.12s.12.06.12.12v6.66c0,.07-.06.12-.12.12Z"/>
    </g>
    <g id="LINE-81" data-name="LINE">
      <path class="cls-1" d="M565.86,334.75h-101.16c-.07,0-.12-.06-.12-.12s.06-.12.12-.12h101.16c.07,0,.12.06.12.12s-.06.12-.12.12Z"/>
    </g>
    <g id="LINE-82" data-name="LINE">
      <path class="cls-1" d="M708.24,334.75h-104.33c-.07,0-.12-.06-.12-.12s.06-.12.12-.12h104.33c.07,0,.12.06.12.12s-.06.12-.12.12Z"/>
    </g>
    <g id="LINE-83" data-name="LINE">
      <path class="cls-1" d="M708.24,334.75c-.07,0-.12-.06-.12-.12v-6.66c0-.07.06-.12.12-.12s.12.06.12.12v6.66c0,.07-.06.12-.12.12Z"/>
    </g>
    <g id="LINE-84" data-name="LINE">
      <path class="cls-1" d="M461.21,338.27c-.07,0-.12-.06-.12-.12v-3.52c0-.07.06-.12.12-.12s.12.06.12.12v3.52c0,.07-.06.12-.12.12Z"/>
    </g>
    <g id="LINE-85" data-name="LINE">
      <path class="cls-1" d="M711.73,334.75h-107.82c-.07,0-.12-.06-.12-.12s.06-.12.12-.12h107.82c.07,0,.12.06.12.12s-.06.12-.12.12Z"/>
    </g>
    <g id="LINE-86" data-name="LINE">
      <path class="cls-1" d="M565.86,334.75h-104.65c-.07,0-.12-.06-.12-.12s.06-.12.12-.12h104.65c.07,0,.12.06.12.12s-.06.12-.12.12Z"/>
    </g>
    <g id="LINE-87" data-name="LINE">
      <path class="cls-1" d="M711.73,338.27h-250.52c-.07,0-.12-.06-.12-.12s.06-.12.12-.12h250.52c.07,0,.12.06.12.12s-.06.12-.12.12Z"/>
    </g>
    <g id="LINE-88" data-name="LINE">
      <path class="cls-1" d="M711.73,338.27c-.07,0-.12-.06-.12-.12v-3.52c0-.07.06-.12.12-.12s.12.06.12.12v3.52c0,.07-.06.12-.12.12Z"/>
    </g>
    <g id="LINE-89" data-name="LINE">
      <path class="cls-1" d="M565.86,324.42h-30.44c-.07,0-.12-.06-.12-.12s.06-.12.12-.12h30.44c.07,0,.12.06.12.12s-.06.12-.12.12Z"/>
    </g>
    <g id="LINE-90" data-name="LINE">
      <path class="cls-1" d="M634.35,324.42h-30.44c-.07,0-.12-.06-.12-.12s.06-.12.12-.12h30.44c.07,0,.12.06.12.12s-.06.12-.12.12Z"/>
    </g>
    <g id="LINE-91" data-name="LINE">
      <path class="cls-1" d="M634.35,322.69h-30.44c-.07,0-.12-.06-.12-.12s.06-.12.12-.12h30.44c.07,0,.12.06.12.12s-.06.12-.12.12Z"/>
    </g>
    <g id="LINE-92" data-name="LINE">
      <path class="cls-1" d="M565.86,322.69h-30.44c-.07,0-.12-.06-.12-.12s.06-.12.12-.12h30.44c.07,0,.12.06.12.12s-.06.12-.12.12Z"/>
    </g>
    <g id="LINE-93" data-name="LINE">
      <path class="cls-1" d="M603.91,322.69h-38.05c-.07,0-.12-.06-.12-.12s.06-.12.12-.12h38.05c.07,0,.12.06.12.12s-.06.12-.12.12Z"/>
    </g>
    <g id="LINE-94" data-name="LINE">
      <path class="cls-1" d="M565.86,324.43h-30.44c-.07,0-.12-.06-.12-.12s.06-.12.12-.12h30.44c.07,0,.12.06.12.12s-.06.12-.12.12Z"/>
    </g>
    <g id="LINE-95" data-name="LINE">
      <path class="cls-1" d="M634.35,324.43h-30.44c-.07,0-.12-.06-.12-.12s.06-.12.12-.12h30.44c.07,0,.12.06.12.12s-.06.12-.12.12Z"/>
    </g>
    <g id="LINE-96" data-name="LINE">
      <path class="cls-1" d="M603.91,335.17h-38.05c-.07,0-.12-.06-.12-.12s.06-.12.12-.12h38.05c.07,0,.12.06.12.12s-.06.12-.12.12Z"/>
    </g>
    <g id="LINE-97" data-name="LINE">
      <path class="cls-1" d="M603.91,322.69h-38.05c-.07,0-.12-.06-.12-.12s.06-.12.12-.12h38.05c.07,0,.12.06.12.12s-.06.12-.12.12Z"/>
    </g>
    <g id="LINE-98" data-name="LINE">
      <path class="cls-1" d="M603.91,335.17c-.07,0-.12-.06-.12-.12v-12.48c0-.07.06-.12.12-.12s.12.06.12.12v12.48c0,.07-.06.12-.12.12Z"/>
    </g>
    <g id="LINE-99" data-name="LINE">
      <path class="cls-1" d="M565.86,335.17c-.07,0-.12-.06-.12-.12v-12.48c0-.07.06-.12.12-.12s.12.06.12.12v12.48c0,.07-.06.12-.12.12Z"/>
    </g>
  </g>
  <g>
    <g id="DIMENSION-4" data-name="DIMENSION">
      <g id="LINE-100" data-name="LINE">
        <path class="cls-1" d="M480.73,530.6c-.06,0-.11-.04-.12-.09l-13.72-53.05c-.02-.07.02-.13.09-.15.07-.02.14.02.15.09l13.72,53.05c.02.07-.02.13-.09.15-.01,0-.02,0-.03,0Z"/>
      </g>
      <g id="LINE-101" data-name="LINE">
        <path class="cls-1" d="M716.51,469.62c-.06,0-.11-.04-.12-.09l-13.72-53.05c-.02-.07.02-.13.09-.15.07-.02.13.02.15.09l13.72,53.05c.02.07-.02.13-.09.15-.01,0-.02,0-.03,0Z"/>
      </g>
      <g id="LINE-102" data-name="LINE">
        <g>
          <path class="cls-1" d="M475.53,479.01c-.06,0-.11-.04-.12-.09-.02-.07.02-.13.09-.15l103.65-26.81c.07-.02.14.02.15.09.02.07-.02.13-.09.15l-103.65,26.81s-.02,0-.03,0Z"/>
          <polygon class="cls-1" points="476.19 480 473.79 479.34 475.57 477.59 476.19 480"/>
        </g>
      </g>
      <g id="LINE-103" data-name="LINE">
        <g>
          <path class="cls-1" d="M592.4,448.79c-.06,0-.11-.04-.12-.09-.02-.07.02-.13.09-.15l103.65-26.81c.07-.02.13.02.15.09.02.07-.02.13-.09.15l-103.65,26.81s-.02,0-.03,0Z"/>
          <polygon class="cls-1" points="695.38 420.74 697.79 421.41 696.01 423.16 695.38 420.74"/>
        </g>
      </g>
      <g id="MTEXT-4" data-name="MTEXT">
        <g>
          <path class="cls-1" d="M583.99,453.36h-.76v-4.82c-.18.17-.42.35-.72.52-.3.17-.56.3-.8.39v-.73c.42-.2.79-.44,1.11-.72.32-.28.54-.56.67-.82h.49v6.18Z"/>
          <path class="cls-1" d="M589.85,448.72l-.75.06c-.07-.3-.16-.51-.29-.65-.2-.21-.46-.32-.76-.32-.24,0-.45.07-.63.2-.24.17-.43.43-.56.76s-.21.81-.21,1.42c.18-.28.4-.48.67-.62.26-.13.54-.2.83-.2.5,0,.93.19,1.29.56.35.37.53.85.53,1.44,0,.39-.08.75-.25,1.08-.17.33-.39.59-.69.76-.29.18-.62.26-.99.26-.63,0-1.14-.23-1.54-.69-.4-.46-.6-1.23-.6-2.29,0-1.19.22-2.05.66-2.59.38-.47.9-.71,1.55-.71.48,0,.88.14,1.19.41.31.27.49.65.56,1.12ZM586.77,451.37c0,.26.06.51.17.75s.27.42.46.54c.2.12.41.19.63.19.32,0,.59-.13.82-.39.23-.26.34-.61.34-1.05s-.11-.76-.34-1.01-.51-.37-.86-.37-.63.12-.87.37c-.24.25-.36.57-.36.96Z"/>
        </g>
      </g>
    </g>
    <g id="LINE-104" data-name="LINE">
      <path class="cls-1" d="M667.1,526.2h-141.43c-.07,0-.12-.06-.12-.12s.06-.12.12-.12h141.43c.07,0,.12.06.12.12s-.06.12-.12.12Z"/>
    </g>
    <g id="LINE-105" data-name="LINE">
      <path class="cls-1" d="M667.1,636.97c-.07,0-.12-.06-.12-.12v-110.78c0-.07.06-.12.12-.12s.12.06.12.12v110.78c0,.07-.06.12-.12.12Z"/>
    </g>
    <g id="LINE-106" data-name="LINE">
      <path class="cls-1" d="M525.67,636.97c-.07,0-.12-.06-.12-.12v-110.78c0-.07.06-.12.12-.12s.12.06.12.12v110.78c0,.07-.06.12-.12.12Z"/>
    </g>
    <g id="LINE-107" data-name="LINE">
      <path class="cls-1" d="M481.62,534.04c-.06,0-.11-.04-.12-.09-.02-.07.02-.13.09-.15l235.78-60.98c.07-.02.13.02.15.09.02.07-.02.13-.09.15l-235.78,60.98s-.02,0-.03,0Z"/>
    </g>
    <g id="LINE-108" data-name="LINE">
      <path class="cls-1" d="M718.15,475.96c-.06,0-.11-.04-.12-.09l-.75-2.9c-.02-.07.02-.13.09-.15.07-.02.13.02.15.09l.75,2.9c.02.07-.02.13-.09.15-.01,0-.02,0-.03,0Z"/>
    </g>
    <g id="LINE-109" data-name="LINE">
      <path class="cls-1" d="M482.37,536.94c-.06,0-.11-.04-.12-.09-.02-.07.02-.13.09-.15l235.78-60.98c.07-.02.13.02.15.09.02.07-.02.13-.09.15l-235.78,60.98s-.02,0-.03,0Z"/>
    </g>
    <g id="LINE-110" data-name="LINE">
      <path class="cls-1" d="M482.37,536.94c-.06,0-.11-.04-.12-.09l-.75-2.9c-.02-.07.02-.13.09-.15.07-.02.14.02.15.09l.75,2.9c.02.07-.02.13-.09.15-.01,0-.02,0-.03,0Z"/>
    </g>
    <g id="LINE-111" data-name="LINE">
      <path class="cls-1" d="M667.1,526.2h0c-.07,0-.12-.06-.12-.12s.06-.12.12-.12.13.06.13.12-.05.12-.12.12Z"/>
    </g>
    <g id="LINE-112" data-name="LINE">
      <path class="cls-1" d="M667.1,636.97c-.07,0-.12-.06-.12-.12v-110.78c0-.07.06-.12.12-.12s.12.06.12.12v110.78c0,.07-.06.12-.12.12Z"/>
    </g>
    <g id="LINE-113" data-name="LINE">
      <path class="cls-1" d="M527.17,526.2h-1.5c-.07,0-.12-.06-.12-.13s.06-.12.12-.12h1.5c.07,0,.12.06.12.13s-.06.12-.12.12Z"/>
    </g>
    <g id="LINE-114" data-name="LINE">
      <path class="cls-1" d="M525.67,526.2c-.07,0-.12-.06-.12-.12h0c0-.07.06-.13.12-.13s.12.06.12.12-.06.13-.12.13Z"/>
    </g>
    <g id="LINE-115" data-name="LINE">
      <path class="cls-1" d="M527.16,526.2s-.06-.02-.08-.04c-.03-.02-.04-.05-.04-.09,0-.03,0-.06.03-.09.05-.05.14-.04.18,0,.03.03.04.06.04.09,0,.04-.01.07-.04.09-.02.02-.05.04-.09.04Z"/>
    </g>
    <g id="LINE-116" data-name="LINE">
      <path class="cls-1" d="M711.97,636.97h-273.98c-.07,0-.12-.06-.12-.12s.06-.12.12-.12h273.98c.07,0,.12.06.12.12s-.06.12-.12.12Z"/>
    </g>
    <g id="LINE-117" data-name="LINE">
      <path class="cls-1" d="M437.99,643.63c-.07,0-.12-.06-.12-.12v-6.66c0-.07.06-.12.12-.12s.12.06.12.12v6.66c0,.07-.06.12-.12.12Z"/>
    </g>
    <g id="LINE-118" data-name="LINE">
      <path class="cls-1" d="M711.97,643.63c-.07,0-.12-.06-.12-.12v-6.66c0-.07.06-.12.12-.12s.12.06.12.12v6.66c0,.07-.06.12-.12.12Z"/>
    </g>
    <g id="LINE-119" data-name="LINE">
      <path class="cls-1" d="M437.99,648.16c-.07,0-.12-.06-.12-.12v-4.52c0-.07.06-.12.12-.12s.12.06.12.12v4.52c0,.07-.06.12-.12.12Z"/>
    </g>
    <g id="LINE-120" data-name="LINE">
      <path class="cls-1" d="M711.97,643.63h-273.98c-.07,0-.12-.06-.12-.12s.06-.12.12-.12h273.98c.07,0,.12.06.12.12s-.06.12-.12.12Z"/>
    </g>
    <g id="LINE-121" data-name="LINE">
      <path class="cls-1" d="M711.97,648.16h-273.98c-.07,0-.12-.06-.12-.12s.06-.12.12-.12h273.98c.07,0,.12.06.12.12s-.06.12-.12.12Z"/>
    </g>
    <g id="LINE-122" data-name="LINE">
      <path class="cls-1" d="M711.97,648.16c-.07,0-.12-.06-.12-.12v-4.52c0-.07.06-.12.12-.12s.12.06.12.12v4.52c0,.07-.06.12-.12.12Z"/>
    </g>
    <g id="LINE-123" data-name="LINE">
      <path class="cls-1" d="M525.12,631.57h-91.33c-.07,0-.12-.06-.12-.12s.06-.12.12-.12h91.33c.07,0,.12.06.12.12s-.06.12-.12.12Z"/>
    </g>
    <g id="LINE-124" data-name="LINE">
      <path class="cls-1" d="M525.12,633.31h-91.33c-.07,0-.12-.06-.12-.12s.06-.12.12-.12h91.33c.07,0,.12.06.12.12s-.06.12-.12.12Z"/>
    </g>
    <g id="LINE-125" data-name="LINE">
      <path class="cls-1" d="M525.12,633.31c-.07,0-.12-.06-.12-.12v-1.74c0-.07.06-.12.12-.12s.12.06.12.12v1.74c0,.07-.06.12-.12.12Z"/>
    </g>
    <g id="LINE-126" data-name="LINE">
      <path class="cls-1" d="M464.88,634.55c-.07,0-.12-.06-.12-.12v-.08c0-.07.06-.12.12-.12s.12.06.12.12v.08c0,.07-.06.12-.12.12Z"/>
    </g>
    <g id="LINE-127" data-name="LINE">
      <path class="cls-1" d="M464.88,634.47c-.07,0-.12-.06-.12-.12v-.1c0-.07.06-.12.12-.12s.12.06.12.12v.1c0,.07-.06.12-.12.12Z"/>
    </g>
    <g id="LINE-128" data-name="LINE">
      <path class="cls-1" d="M464.88,634.37c-.07,0-.12-.06-.12-.12v-.2c0-.07.06-.12.12-.12s.12.06.12.12v.2c0,.07-.06.12-.12.12Z"/>
    </g>
    <g id="LINE-129" data-name="LINE">
      <path class="cls-1" d="M464.88,634.17c-.07,0-.12-.06-.12-.12v-.1c0-.07.06-.12.12-.12s.12.06.12.12v.1c0,.07-.06.12-.12.12Z"/>
    </g>
    <g id="LINE-130" data-name="LINE">
      <path class="cls-1" d="M464.88,634.07c-.07,0-.12-.06-.12-.12v-.08c0-.07.06-.12.12-.12s.12.06.12.12v.08c0,.07-.06.12-.12.12Z"/>
    </g>
    <g id="LINE-131" data-name="LINE">
      <path class="cls-1" d="M464.88,633.99c-.07,0-.12-.06-.12-.12v-.51c0-.07.06-.12.12-.12s.12.06.12.12v.51c0,.07-.06.12-.12.12Z"/>
    </g>
    <g id="LINE-132" data-name="LINE">
      <path class="cls-1" d="M464.88,633.48c-.07,0-.12-.06-.12-.12v-.16c0-.07.06-.12.12-.12s.12.06.12.12v.16c0,.07-.06.12-.12.12Z"/>
    </g>
    <g id="LINE-133" data-name="LINE">
      <path class="cls-1" d="M464.88,636.87c-.07,0-.12-.06-.12-.12v-.42c0-.07.06-.12.12-.12s.12.06.12.12v.42c0,.07-.06.12-.12.12Z"/>
    </g>
    <g id="LINE-134" data-name="LINE">
      <path class="cls-1" d="M464.88,636.45c-.07,0-.12-.06-.12-.12v-.08c0-.07.06-.12.12-.12s.12.06.12.12v.08c0,.07-.06.12-.12.12Z"/>
    </g>
    <g id="LINE-135" data-name="LINE">
      <path class="cls-1" d="M464.88,636.37c-.07,0-.12-.06-.12-.12v-.1c0-.07.06-.12.12-.12s.12.06.12.12v.1c0,.07-.06.12-.12.12Z"/>
    </g>
    <g id="LINE-136" data-name="LINE">
      <path class="cls-1" d="M464.88,636.27c-.07,0-.12-.06-.12-.12v-.2c0-.07.06-.12.12-.12s.12.06.12.12v.2c0,.07-.06.12-.12.12Z"/>
    </g>
    <g id="LINE-137" data-name="LINE">
      <path class="cls-1" d="M464.88,636.07c-.07,0-.12-.06-.12-.12v-.1c0-.07.06-.12.12-.12s.12.06.12.12v.1c0,.07-.06.12-.12.12Z"/>
    </g>
    <g id="LINE-138" data-name="LINE">
      <path class="cls-1" d="M464.88,635.97c-.07,0-.12-.06-.12-.12v-.08c0-.07.06-.12.12-.12s.12.06.12.12v.08c0,.07-.06.12-.12.12Z"/>
    </g>
    <g id="LINE-139" data-name="LINE">
      <path class="cls-1" d="M464.88,635.89c-.07,0-.12-.06-.12-.12v-1.34c0-.07.06-.12.12-.12s.12.06.12.12v1.34c0,.07-.06.12-.12.12Z"/>
    </g>
    <g id="LINE-140" data-name="LINE">
      <path class="cls-1" d="M525.67,633.32h-60.78c-.07,0-.12-.06-.12-.12s.06-.12.12-.12h60.78c.07,0,.12.06.12.12s-.06.12-.12.12Z"/>
    </g>
    <g id="ARC">
      <path class="cls-1" d="M464.88,633.48c-.07,0-.12-.06-.12-.12s.06-.13.12-.13.12.06.12.12h0c0,.07-.06.13-.12.13Z"/>
    </g>
    <g id="ARC-2" data-name="ARC">
      <path class="cls-1" d="M465.02,633.32c-.06,0-.11-.04-.12-.1-.01-.07.03-.13.09-.15,0,0,.04,0,.05,0,.07,0,.12.06.12.12,0,.08-.07.12-.15.13Z"/>
    </g>
    <g id="LINE-141" data-name="LINE">
      <path class="cls-1" d="M465.55,633.31h-.51c-.07,0-.12-.06-.12-.12s.06-.12.12-.12h.51c.07,0,.12.06.12.12s-.06.12-.12.12Z"/>
    </g>
    <g id="ARC-3" data-name="ARC">
      <path class="cls-1" d="M465.57,633.32s-.02,0-.03,0c-.07,0-.12-.06-.12-.12s.06-.12.12-.12c.01,0,.04,0,.06,0,.07.02.1.09.09.15-.02.05-.07.09-.12.09Z"/>
    </g>
    <g id="ARC-4" data-name="ARC">
      <path class="cls-1" d="M466.1,633.32c-.05,0-.1-.04-.12-.09-.02-.07.02-.14.09-.15.01,0,.04,0,.06,0,.07,0,.12.06.12.12s-.05.12-.12.12c0,0-.02,0-.03,0Z"/>
    </g>
    <g id="LINE-142" data-name="LINE">
      <path class="cls-1" d="M467.46,633.31h-1.34c-.07,0-.12-.06-.12-.12s.06-.12.12-.12h1.34c.07,0,.12.06.12.12s-.06.12-.12.12Z"/>
    </g>
    <g id="ARC-5" data-name="ARC">
      <path class="cls-1" d="M467.48,633.32s-.02,0-.03,0c-.07,0-.12-.06-.12-.12s.06-.12.12-.12c.01,0,.04,0,.06,0,.07.02.1.09.09.15-.02.05-.07.09-.12.09Z"/>
    </g>
    <g id="ARC-6" data-name="ARC">
      <path class="cls-1" d="M468,633.32c-.05,0-.1-.04-.12-.09-.02-.07.02-.14.09-.15.01,0,.04,0,.06,0,.07,0,.12.06.12.12s-.05.12-.12.12c0,0-.02,0-.03,0Z"/>
    </g>
    <g id="LINE-143" data-name="LINE">
      <path class="cls-1" d="M468.53,633.31h-.51c-.07,0-.12-.06-.12-.12s.06-.12.12-.12h.51c.07,0,.12.06.12.12s-.06.12-.12.12Z"/>
    </g>
    <g id="ARC-7" data-name="ARC">
      <path class="cls-1" d="M468.56,633.32s-.02,0-.03,0c-.07,0-.12-.06-.12-.12s.06-.12.12-.12c0,0,.04,0,.05,0,.07.02.11.08.09.15-.01.06-.06.1-.12.1Z"/>
    </g>
    <g id="LINE-144" data-name="LINE">
      <path class="cls-1" d="M651.88,526.2c-.07,0-.12-.06-.12-.12v-33.07c0-.07.06-.12.12-.12s.12.06.12.12v33.07c0,.07-.06.12-.12.12Z"/>
    </g>
    <g id="LINE-145" data-name="LINE">
      <path class="cls-1" d="M392.7,644.06h-6.64c-.07,0-.12-.06-.12-.12s.06-.12.12-.12h6.64c.07,0,.12.06.12.12s-.06.12-.12.12Z"/>
    </g>
    <g id="LINE-146" data-name="LINE">
      <path class="cls-1" d="M392.7,644.06c-.06,0-.11-.04-.12-.09-.02-.07.02-.13.09-.15l41.1-10.75c.07-.02.14.02.15.09.02.07-.02.13-.09.15l-41.1,10.75s-.02,0-.03,0Z"/>
    </g>
    <g id="LINE-147" data-name="LINE">
      <path class="cls-1" d="M386.06,644.06c-.06,0-.11-.04-.12-.09-.02-.07.02-.13.09-.15l47.74-12.48c.07-.02.14.02.15.09.02.07-.02.13-.09.15l-47.74,12.48s-.02,0-.03,0Z"/>
    </g>
  </g>
  <rect class="cls-1" x="666.97" y="488.94" width=".26" height="43.19"/>
</svg>