<?xml version="1.0" encoding="UTF-8"?>
<svg id="GRAPHICS" xmlns="http://www.w3.org/2000/svg" viewBox="0 0 1584 720">
  <defs>
    <style>
      .cls-1 {
        stroke-width: 0px;
      }
    </style>
  </defs>
  <g>
    <g>
      <path class="cls-1" d="M40.98,237.14h-3.44l-.87,2.48h-1.13l3.19-8.65h1.07l3.19,8.65h-1.13l-.87-2.48ZM37.86,236.22h2.81l-1.39-3.95h-.04l-1.39,3.95Z"/>
      <path class="cls-1" d="M49.23,239.61h-5.25v-8.65h1.08v7.68h4.17v.97Z"/>
      <path class="cls-1" d="M51.07,236.51c0,1.31.86,2.26,2.36,2.26s2.36-.95,2.36-2.26v-5.55h1.08v5.62c0,1.85-1.29,3.18-3.44,3.18s-3.44-1.33-3.44-3.18v-5.62h1.08v5.55Z"/>
      <path class="cls-1" d="M66.06,239.61v-6.67h-.04l-2.76,6.61h-.91l-2.76-6.61h-.04v6.67h-1.01v-8.65h1.25l2.99,7.22h.05l2.99-7.22h1.25v8.65h-1.01Z"/>
      <path class="cls-1" d="M68.75,239.61v-8.65h1.08v8.65h-1.08Z"/>
      <path class="cls-1" d="M71.51,239.61v-8.65h1.05l4.74,6.79h.05v-6.79h1.07v8.65h-1.05l-4.74-6.77h-.05v6.77h-1.07Z"/>
      <path class="cls-1" d="M81.17,236.51c0,1.31.86,2.26,2.36,2.26s2.36-.95,2.36-2.26v-5.55h1.08v5.62c0,1.85-1.29,3.18-3.44,3.18s-3.44-1.33-3.44-3.18v-5.62h1.08v5.55Z"/>
      <path class="cls-1" d="M96.16,239.61v-6.67h-.04l-2.76,6.61h-.91l-2.76-6.61h-.04v6.67h-1.01v-8.65h1.25l2.99,7.22h.05l2.99-7.22h1.25v8.65h-1.01Z"/>
      <path class="cls-1" d="M106.73,239.61h-5.36v-8.65h5.36v.97h-4.28v2.78h4.06v.96h-4.06v2.97h4.28v.97Z"/>
      <path class="cls-1" d="M110.52,235.28v-.04l-2.91-4.28h1.3l2.31,3.48h.04l2.34-3.48h1.23l-2.99,4.33v.04l2.92,4.29h-1.3l-2.3-3.45h-.04l-2.33,3.45h-1.22l2.94-4.34Z"/>
      <path class="cls-1" d="M118.13,239.61v-7.68h-2.73v-.97h6.54v.97h-2.73v7.68h-1.08Z"/>
      <path class="cls-1" d="M124.15,239.61h-1.08v-8.65h3.24c1.67,0,2.76,1.02,2.76,2.58,0,1.21-.65,2.14-1.74,2.48l2,3.59h-1.27l-1.85-3.42h-2.07v3.42ZM124.15,235.24h2.07c1.11,0,1.74-.6,1.74-1.66s-.67-1.66-1.79-1.66h-2.02v3.32Z"/>
      <path class="cls-1" d="M131.51,236.51c0,1.31.86,2.26,2.36,2.26s2.36-.95,2.36-2.26v-5.55h1.08v5.62c0,1.85-1.29,3.18-3.44,3.18s-3.44-1.33-3.44-3.18v-5.62h1.08v5.55Z"/>
      <path class="cls-1" d="M139.65,237.23c.1.94.99,1.55,2.22,1.55,1.17,0,2.02-.62,2.02-1.47,0-.73-.51-1.18-1.67-1.48l-1.11-.29c-1.59-.41-2.3-1.11-2.3-2.29,0-1.44,1.26-2.45,3.06-2.45s2.97,1.02,3.02,2.47h-1.08c-.1-.93-.85-1.5-1.97-1.5s-1.9.58-1.9,1.43c0,.65.48,1.04,1.66,1.35l.91.24c1.79.45,2.52,1.14,2.52,2.38,0,1.58-1.25,2.57-3.24,2.57-1.83,0-3.11-1-3.21-2.52h1.09Z"/>
      <path class="cls-1" d="M146.27,239.61v-8.65h1.08v8.65h-1.08Z"/>
      <path class="cls-1" d="M156.67,235.29c0,2.75-1.54,4.47-3.99,4.47s-3.99-1.72-3.99-4.47,1.54-4.47,3.99-4.47,3.99,1.73,3.99,4.47ZM149.8,235.29c0,2.13,1.11,3.47,2.88,3.47s2.88-1.34,2.88-3.47-1.11-3.48-2.88-3.48-2.88,1.34-2.88,3.48Z"/>
      <path class="cls-1" d="M158.01,239.61v-8.65h1.05l4.74,6.79h.05v-6.79h1.07v8.65h-1.05l-4.74-6.77h-.05v6.77h-1.07Z"/>
      <path class="cls-1" d="M36.23,254.35v-8.65h5.25v.97h-4.17v2.97h3.83v.96h-3.83v3.75h-1.08Z"/>
      <path class="cls-1" d="M43.79,254.35h-1.08v-8.65h3.24c1.67,0,2.76,1.02,2.76,2.58,0,1.21-.65,2.14-1.74,2.48l2,3.59h-1.27l-1.85-3.42h-2.07v3.42ZM43.79,249.97h2.07c1.11,0,1.74-.6,1.74-1.66s-.67-1.65-1.79-1.65h-2.02v3.32Z"/>
      <path class="cls-1" d="M54.82,251.87h-3.44l-.87,2.48h-1.13l3.19-8.65h1.07l3.19,8.65h-1.13l-.87-2.48ZM51.7,250.95h2.81l-1.39-3.95h-.04l-1.39,3.95Z"/>
      <path class="cls-1" d="M65.33,254.35v-6.67h-.04l-2.76,6.61h-.91l-2.76-6.61h-.04v6.67h-1.01v-8.65h1.25l2.99,7.22h.05l2.99-7.22h1.25v8.65h-1.01Z"/>
      <path class="cls-1" d="M68.02,254.35v-8.65h1.08v8.65h-1.08Z"/>
      <path class="cls-1" d="M70.77,254.35v-8.65h1.05l4.74,6.79h.05v-6.79h1.07v8.65h-1.05l-4.74-6.77h-.05v6.77h-1.07Z"/>
      <path class="cls-1" d="M82.99,254.49c-2.42,0-3.96-1.76-3.96-4.52s1.54-4.43,3.96-4.43c1.87,0,3.29,1.11,3.62,2.83h-1.13c-.36-1.17-1.27-1.83-2.48-1.83-1.78,0-2.85,1.28-2.85,3.42s1.09,3.53,2.85,3.53c1.54,0,2.59-1,2.59-2.45v-.16h-2.44v-.95h3.52v.82c0,2.34-1.36,3.72-3.67,3.72Z"/>
      <path class="cls-1" d="M91.23,251.97c.1.94.99,1.55,2.22,1.55,1.17,0,2.02-.62,2.02-1.47,0-.73-.51-1.18-1.67-1.48l-1.11-.29c-1.6-.41-2.3-1.11-2.3-2.28,0-1.44,1.26-2.45,3.06-2.45s2.97,1.02,3.02,2.47h-1.08c-.1-.93-.85-1.5-1.97-1.5s-1.9.58-1.9,1.43c0,.65.48,1.04,1.66,1.35l.91.24c1.79.45,2.52,1.14,2.52,2.38,0,1.58-1.25,2.57-3.24,2.57-1.83,0-3.11-1-3.21-2.53h1.09Z"/>
      <path class="cls-1" d="M100.23,254.35v-3.72l-3.07-4.93h1.23l2.36,3.89h.04l2.36-3.89h1.23l-3.07,4.93v3.72h-1.08Z"/>
      <path class="cls-1" d="M106.04,251.97c.1.94.99,1.55,2.22,1.55,1.17,0,2.02-.62,2.02-1.47,0-.73-.51-1.18-1.67-1.48l-1.11-.29c-1.59-.41-2.3-1.11-2.3-2.28,0-1.44,1.26-2.45,3.06-2.45s2.97,1.02,3.02,2.47h-1.08c-.1-.93-.85-1.5-1.97-1.5s-1.9.58-1.9,1.43c0,.65.48,1.04,1.66,1.35l.91.24c1.79.45,2.52,1.14,2.52,2.38,0,1.58-1.25,2.57-3.24,2.57-1.83,0-3.11-1-3.21-2.53h1.09Z"/>
      <path class="cls-1" d="M114.84,254.35v-7.68h-2.73v-.97h6.54v.97h-2.73v7.68h-1.08Z"/>
      <path class="cls-1" d="M125.15,254.35h-5.36v-8.65h5.36v.97h-4.28v2.78h4.06v.96h-4.06v2.97h4.28v.97Z"/>
      <path class="cls-1" d="M134.09,254.35v-6.67h-.04l-2.76,6.61h-.91l-2.76-6.61h-.04v6.67h-1.01v-8.65h1.25l2.99,7.22h.05l2.99-7.22h1.25v8.65h-1.01Z"/>
    </g>
    <g>
      <path class="cls-1" d="M48.67,640.59h-1.02l-2.36-8.65h1.13l1.73,7.06h.05l1.95-7.06h1.09l1.95,7.06h.05l1.73-7.06h1.13l-2.36,8.65h-1.02l-2-6.87h-.06l-2,6.87Z"/>
      <path class="cls-1" d="M61.18,638.11h-3.44l-.87,2.48h-1.13l3.19-8.65h1.07l3.19,8.65h-1.13l-.87-2.48ZM58.05,637.19h2.81l-1.39-3.95h-.04l-1.39,3.95Z"/>
      <path class="cls-1" d="M65.16,640.59v-7.68h-2.73v-.97h6.54v.97h-2.73v7.68h-1.08Z"/>
      <path class="cls-1" d="M75.47,640.59h-5.36v-8.65h5.36v.97h-4.28v2.78h4.06v.96h-4.06v2.97h4.28v.97Z"/>
      <path class="cls-1" d="M77.97,640.59h-1.08v-8.65h3.24c1.67,0,2.76,1.02,2.76,2.58,0,1.21-.65,2.14-1.74,2.48l2,3.59h-1.27l-1.85-3.42h-2.07v3.42ZM77.97,636.21h2.07c1.11,0,1.74-.6,1.74-1.66s-.67-1.66-1.79-1.66h-2.02v3.32Z"/>
      <path class="cls-1" d="M86.43,636.26c0-2.72,1.53-4.47,3.9-4.47,1.88,0,3.32,1.15,3.59,2.87h-1.09c-.28-1.13-1.27-1.88-2.5-1.88-1.69,0-2.79,1.37-2.79,3.47s1.09,3.48,2.79,3.48c1.27,0,2.18-.61,2.49-1.67h1.09c-.4,1.71-1.68,2.66-3.59,2.66-2.39,0-3.9-1.73-3.9-4.47Z"/>
      <path class="cls-1" d="M102.83,636.26c0,2.75-1.54,4.47-3.99,4.47s-3.99-1.72-3.99-4.47,1.54-4.47,3.99-4.47,3.99,1.73,3.99,4.47ZM95.96,636.26c0,2.13,1.11,3.47,2.88,3.47s2.88-1.34,2.88-3.47-1.11-3.48-2.88-3.48-2.88,1.34-2.88,3.48Z"/>
      <path class="cls-1" d="M109.42,640.59h-5.25v-8.65h1.08v7.68h4.17v.97Z"/>
      <path class="cls-1" d="M115.86,640.59h-5.25v-8.65h1.08v7.68h4.17v.97Z"/>
      <path class="cls-1" d="M122.41,640.59h-5.36v-8.65h5.36v.97h-4.28v2.78h4.06v.96h-4.06v2.97h4.28v.97Z"/>
      <path class="cls-1" d="M123.49,636.26c0-2.72,1.53-4.47,3.9-4.47,1.88,0,3.32,1.15,3.59,2.87h-1.09c-.28-1.13-1.27-1.88-2.5-1.88-1.69,0-2.79,1.37-2.79,3.47s1.09,3.48,2.79,3.48c1.27,0,2.18-.61,2.49-1.67h1.09c-.4,1.71-1.68,2.66-3.59,2.66-2.39,0-3.9-1.73-3.9-4.47Z"/>
      <path class="cls-1" d="M134.02,640.59v-7.68h-2.73v-.97h6.54v.97h-2.73v7.68h-1.08Z"/>
      <path class="cls-1" d="M138.97,640.59v-8.65h1.08v8.65h-1.08Z"/>
      <path class="cls-1" d="M149.36,636.26c0,2.75-1.54,4.47-3.99,4.47s-3.99-1.72-3.99-4.47,1.54-4.47,3.99-4.47,3.99,1.73,3.99,4.47ZM142.5,636.26c0,2.13,1.11,3.47,2.88,3.47s2.88-1.34,2.88-3.47-1.11-3.48-2.88-3.48-2.88,1.34-2.88,3.48Z"/>
      <path class="cls-1" d="M150.71,640.59v-8.65h1.05l4.74,6.79h.05v-6.79h1.07v8.65h-1.05l-4.74-6.77h-.05v6.77h-1.07Z"/>
      <path class="cls-1" d="M162.48,638.21c.1.94.99,1.55,2.22,1.55,1.17,0,2.02-.62,2.02-1.47,0-.73-.51-1.18-1.67-1.48l-1.11-.29c-1.59-.41-2.3-1.11-2.3-2.29,0-1.44,1.26-2.45,3.06-2.45s2.97,1.02,3.02,2.47h-1.08c-.1-.93-.85-1.5-1.97-1.5s-1.9.58-1.9,1.43c0,.65.48,1.04,1.66,1.35l.91.24c1.79.45,2.52,1.14,2.52,2.38,0,1.58-1.25,2.57-3.24,2.57-1.83,0-3.11-1-3.21-2.52h1.09Z"/>
      <path class="cls-1" d="M171.48,640.59v-3.72l-3.07-4.93h1.23l2.36,3.89h.04l2.36-3.89h1.23l-3.07,4.93v3.72h-1.08Z"/>
      <path class="cls-1" d="M177.29,638.21c.1.94.99,1.55,2.22,1.55,1.17,0,2.02-.62,2.02-1.47,0-.73-.51-1.18-1.67-1.48l-1.11-.29c-1.59-.41-2.3-1.11-2.3-2.29,0-1.44,1.26-2.45,3.06-2.45s2.97,1.02,3.02,2.47h-1.08c-.1-.93-.85-1.5-1.97-1.5s-1.9.58-1.9,1.43c0,.65.48,1.04,1.66,1.35l.91.24c1.79.45,2.52,1.14,2.52,2.38,0,1.58-1.25,2.57-3.24,2.57-1.83,0-3.11-1-3.21-2.52h1.09Z"/>
      <path class="cls-1" d="M186.1,640.59v-7.68h-2.73v-.97h6.54v.97h-2.73v7.68h-1.08Z"/>
      <path class="cls-1" d="M196.41,640.59h-5.36v-8.65h5.36v.97h-4.28v2.78h4.06v.96h-4.06v2.97h4.28v.97Z"/>
      <path class="cls-1" d="M205.35,640.59v-6.67h-.04l-2.76,6.61h-.91l-2.76-6.61h-.04v6.67h-1.01v-8.65h1.25l2.99,7.22h.05l2.99-7.22h1.25v8.65h-1.01Z"/>
    </g>
    <g>
      <path class="cls-1" d="M241.45,189.56h-1.08v-8.65h3.24c1.67,0,2.76,1.02,2.76,2.58,0,1.21-.65,2.14-1.74,2.48l2,3.59h-1.27l-1.85-3.42h-2.07v3.42ZM241.45,185.18h2.07c1.11,0,1.74-.6,1.74-1.66s-.67-1.66-1.79-1.66h-2.02v3.32Z"/>
      <path class="cls-1" d="M255.37,185.23c0,2.75-1.54,4.47-3.99,4.47s-3.99-1.72-3.99-4.47,1.54-4.47,3.99-4.47,3.99,1.73,3.99,4.47ZM248.5,185.23c0,2.13,1.11,3.47,2.88,3.47s2.88-1.34,2.88-3.47-1.11-3.48-2.88-3.48-2.88,1.34-2.88,3.48Z"/>
      <path class="cls-1" d="M264.35,185.23c0,2.75-1.54,4.47-3.99,4.47s-3.99-1.72-3.99-4.47,1.54-4.47,3.99-4.47,3.99,1.73,3.99,4.47ZM257.49,185.23c0,2.13,1.11,3.47,2.88,3.47s2.88-1.34,2.88-3.47-1.11-3.48-2.88-3.48-2.88,1.34-2.88,3.48Z"/>
      <path class="cls-1" d="M265.69,189.56v-8.65h5.25v.97h-4.17v2.97h3.83v.96h-3.83v3.75h-1.08Z"/>
      <path class="cls-1" d="M275.37,187.18c.1.94.99,1.55,2.22,1.55,1.17,0,2.02-.62,2.02-1.47,0-.73-.51-1.18-1.67-1.48l-1.11-.29c-1.59-.41-2.3-1.11-2.3-2.29,0-1.44,1.26-2.45,3.06-2.45s2.97,1.02,3.02,2.47h-1.08c-.1-.93-.85-1.5-1.97-1.5s-1.9.58-1.9,1.43c0,.65.48,1.04,1.66,1.35l.91.24c1.79.45,2.52,1.14,2.52,2.38,0,1.58-1.25,2.57-3.24,2.57-1.83,0-3.11-1-3.21-2.52h1.09Z"/>
      <path class="cls-1" d="M284.17,189.56v-7.68h-2.73v-.97h6.54v.97h-2.73v7.68h-1.08Z"/>
      <path class="cls-1" d="M290.2,189.56h-1.08v-8.65h3.24c1.67,0,2.76,1.02,2.76,2.58,0,1.21-.65,2.14-1.74,2.48l2,3.59h-1.27l-1.85-3.42h-2.07v3.42ZM290.2,185.18h2.07c1.11,0,1.74-.6,1.74-1.66s-.67-1.66-1.79-1.66h-2.02v3.32Z"/>
      <path class="cls-1" d="M297.56,186.45c0,1.31.86,2.26,2.36,2.26s2.36-.95,2.36-2.26v-5.55h1.08v5.62c0,1.85-1.29,3.18-3.44,3.18s-3.44-1.33-3.44-3.18v-5.62h1.08v5.55Z"/>
      <path class="cls-1" d="M304.69,185.23c0-2.72,1.53-4.47,3.9-4.47,1.88,0,3.32,1.15,3.59,2.87h-1.09c-.28-1.13-1.27-1.88-2.5-1.88-1.69,0-2.79,1.37-2.79,3.47s1.09,3.48,2.79,3.48c1.27,0,2.18-.61,2.49-1.67h1.09c-.4,1.71-1.68,2.66-3.59,2.66-2.39,0-3.9-1.73-3.9-4.47Z"/>
      <path class="cls-1" d="M315.22,189.56v-7.68h-2.73v-.97h6.54v.97h-2.73v7.68h-1.08Z"/>
      <path class="cls-1" d="M321.24,186.45c0,1.31.86,2.26,2.36,2.26s2.36-.95,2.36-2.26v-5.55h1.08v5.62c0,1.85-1.29,3.18-3.44,3.18s-3.44-1.33-3.44-3.18v-5.62h1.08v5.55Z"/>
      <path class="cls-1" d="M329.79,189.56h-1.08v-8.65h3.24c1.67,0,2.76,1.02,2.76,2.58,0,1.21-.65,2.14-1.74,2.48l2,3.59h-1.27l-1.85-3.42h-2.07v3.42ZM329.79,185.18h2.07c1.11,0,1.74-.6,1.74-1.66s-.67-1.66-1.79-1.66h-2.02v3.32Z"/>
      <path class="cls-1" d="M341.43,189.56h-5.36v-8.65h5.36v.97h-4.28v2.78h4.06v.96h-4.06v2.97h4.28v.97Z"/>
    </g>
    <g>
      <path class="cls-1" d="M79.82,360.55h-5.36v-8.65h5.36v.97h-4.28v2.78h4.06v.96h-4.06v2.97h4.28v.97Z"/>
      <path class="cls-1" d="M86.49,360.55h-5.25v-8.65h1.08v7.68h4.17v.97Z"/>
      <path class="cls-1" d="M93.04,360.55h-5.36v-8.65h5.36v.97h-4.28v2.78h4.06v.96h-4.06v2.97h4.28v.97Z"/>
      <path class="cls-1" d="M96.96,360.55l-3.19-8.65h1.13l2.57,7.34h.04l2.57-7.34h1.13l-3.19,8.65h-1.07Z"/>
      <path class="cls-1" d="M106.18,358.07h-3.44l-.87,2.48h-1.13l3.19-8.65h1.07l3.19,8.65h-1.13l-.87-2.48ZM103.05,357.15h2.81l-1.39-3.95h-.04l-1.39,3.95Z"/>
      <path class="cls-1" d="M110.16,360.55v-7.68h-2.73v-.97h6.54v.97h-2.73v7.68h-1.08Z"/>
      <path class="cls-1" d="M120.47,360.55h-5.36v-8.65h5.36v.97h-4.28v2.78h4.06v.96h-4.06v2.97h4.28v.97Z"/>
      <path class="cls-1" d="M124.8,351.89c2.57,0,4.08,1.6,4.08,4.32s-1.51,4.33-4.08,4.33h-2.91v-8.65h2.91ZM122.97,359.57h1.76c1.96,0,3.05-1.2,3.05-3.35s-1.09-3.36-3.05-3.36h-1.76v6.71Z"/>
      <path class="cls-1" d="M135.82,351.89c1.62,0,2.77,1.14,2.77,2.78s-1.16,2.79-2.78,2.79h-2v3.09h-1.08v-8.65h3.09ZM133.81,356.5h1.73c1.24,0,1.94-.68,1.94-1.83s-.7-1.82-1.94-1.82h-1.73v3.65Z"/>
      <path class="cls-1" d="M145.08,360.55h-5.25v-8.65h1.08v7.68h4.17v.97Z"/>
      <path class="cls-1" d="M151.02,358.07h-3.44l-.87,2.48h-1.13l3.19-8.65h1.07l3.19,8.65h-1.13l-.87-2.48ZM147.9,357.15h2.81l-1.39-3.95h-.04l-1.39,3.95Z"/>
      <path class="cls-1" d="M155,360.55v-7.68h-2.73v-.97h6.54v.97h-2.73v7.68h-1.08Z"/>
      <path class="cls-1" d="M159.95,360.55v-8.65h5.25v.97h-4.17v2.97h3.83v.96h-3.83v3.75h-1.08Z"/>
      <path class="cls-1" d="M174.07,356.22c0,2.75-1.54,4.47-3.99,4.47s-3.99-1.72-3.99-4.47,1.54-4.47,3.99-4.47,3.99,1.73,3.99,4.47ZM167.2,356.22c0,2.13,1.11,3.47,2.88,3.47s2.88-1.34,2.88-3.47-1.11-3.48-2.88-3.48-2.88,1.34-2.88,3.48Z"/>
      <path class="cls-1" d="M176.49,360.55h-1.08v-8.65h3.24c1.67,0,2.76,1.02,2.76,2.58,0,1.21-.65,2.14-1.74,2.48l2,3.59h-1.27l-1.85-3.42h-2.07v3.42ZM176.49,356.17h2.07c1.11,0,1.74-.6,1.74-1.66s-.67-1.66-1.79-1.66h-2.02v3.32Z"/>
      <path class="cls-1" d="M190.29,360.55v-6.67h-.04l-2.76,6.61h-.91l-2.76-6.61h-.04v6.67h-1.01v-8.65h1.25l2.99,7.22h.05l2.99-7.22h1.25v8.65h-1.01Z"/>
    </g>
    <g>
      <g id="LINE">
        <path class="cls-1" d="M500.37,690.39s-.05,0-.08-.02l-166.04-106.04c-.07-.04-.09-.13-.04-.2.04-.07.13-.09.2-.04l166.04,106.04c.07.04.09.13.04.2-.03.04-.07.07-.12.07Z"/>
      </g>
      <g id="LINE-2" data-name="LINE">
        <path class="cls-1" d="M334.24,588.8h0c-.08,0-.14-.07-.14-.14l.09-4.46c0-.08.06-.14.14-.14h0c.08,0,.14.07.14.14l-.09,4.46c0,.08-.06.14-.14.14Z"/>
      </g>
      <g id="LINE-3" data-name="LINE">
        <path class="cls-1" d="M500.27,694.84s-.05,0-.08-.02l-166.03-106.04c-.07-.04-.09-.13-.04-.2.04-.07.13-.09.2-.04l166.03,106.04c.07.04.09.13.04.2-.03.04-.07.07-.12.07Z"/>
      </g>
      <g id="LINE-4" data-name="LINE">
        <path class="cls-1" d="M500.27,694.84h0c-.08,0-.14-.07-.14-.14l.09-4.46c0-.08.06-.14.14-.14h0c.08,0,.14.07.14.14l-.09,4.46c0,.08-.06.14-.14.14Z"/>
      </g>
      <g id="LINE-5" data-name="LINE">
        <path class="cls-1" d="M500.37,690.39c-.06,0-.12-.04-.14-.1-.02-.08.02-.15.1-.17l302.97-83.29c.08-.02.15.02.17.1.02.08-.02.15-.1.17l-302.97,83.29s-.03,0-.04,0Z"/>
      </g>
      <g id="LINE-6" data-name="LINE">
        <path class="cls-1" d="M500.27,694.84c-.06,0-.12-.04-.14-.1-.02-.08.02-.15.1-.17l302.97-83.29c.08-.02.15.02.17.1.02.08-.02.15-.1.17l-302.97,83.29s-.03,0-.04,0Z"/>
      </g>
      <g id="LINE-7" data-name="LINE">
        <path class="cls-1" d="M803.24,611.55h0c-.08,0-.14-.07-.14-.14l.09-4.46c0-.08.07-.15.14-.14.08,0,.14.07.14.14l-.09,4.46c0,.08-.06.14-.14.14Z"/>
      </g>
      <g>
        <g id="LINE-8" data-name="LINE">
          <path class="cls-1" d="M569.64,237.57c-.05,0-.1-.03-.13-.08-.03-.07,0-.16.07-.19l224.66-104.79c.07-.03.16,0,.19.07.03.07,0,.16-.07.19l-224.66,104.79s-.04.01-.06.01Z"/>
        </g>
        <g id="LINE-9" data-name="LINE">
          <path class="cls-1" d="M570.12,240.83c-.07,0-.13-.05-.14-.12l-.48-3.26c-.01-.08.04-.15.12-.16.08-.01.15.04.16.12l.48,3.26c.01.08-.04.15-.12.16,0,0-.01,0-.02,0Z"/>
        </g>
        <g id="LINE-10" data-name="LINE">
          <path class="cls-1" d="M570.12,240.83c-.05,0-.1-.03-.13-.08-.03-.07,0-.16.07-.19l224.66-104.79c.07-.03.16,0,.19.07.03.07,0,.16-.07.19l-224.66,104.79s-.04.01-.06.01Z"/>
        </g>
        <g id="LINE-11" data-name="LINE">
          <path class="cls-1" d="M794.78,136.03c-.07,0-.13-.05-.14-.12l-.48-3.26c-.01-.08.04-.15.12-.16s.15.04.16.12l.48,3.26c.01.08-.04.15-.12.16,0,0-.01,0-.02,0Z"/>
        </g>
        <g id="LINE-12" data-name="LINE">
          <path class="cls-1" d="M794.31,132.77s-.05,0-.08-.02l-145.28-92.79c-.07-.04-.09-.13-.04-.2s.13-.09.2-.04l145.28,92.79c.07.04.09.13.04.2-.03.04-.07.07-.12.07Z"/>
        </g>
        <g id="LINE-13" data-name="LINE">
          <path class="cls-1" d="M424.36,144.78c-.05,0-.1-.03-.13-.08-.03-.07,0-.16.07-.19l224.66-104.79c.07-.03.16,0,.19.07.03.07,0,.16-.07.19l-224.66,104.79s-.04.01-.06.01Z"/>
        </g>
        <g id="LINE-14" data-name="LINE">
          <path class="cls-1" d="M424.84,148.04c-.07,0-.13-.05-.14-.12l-.48-3.26c-.01-.08.04-.15.12-.16.08,0,.15.04.16.12l.48,3.26c.01.08-.04.15-.12.16,0,0-.01,0-.02,0Z"/>
        </g>
        <g id="LINE-15" data-name="LINE">
          <path class="cls-1" d="M569.64,237.57s-.05,0-.08-.02l-145.28-92.79c-.07-.04-.09-.13-.04-.2.04-.07.13-.09.2-.04l145.28,92.79c.07.04.09.13.04.2-.03.04-.07.07-.12.07Z"/>
        </g>
        <g id="LINE-16" data-name="LINE">
          <path class="cls-1" d="M570.12,240.83s-.05,0-.08-.02l-145.28-92.79c-.07-.04-.09-.13-.04-.2.04-.07.13-.09.2-.04l145.28,92.79c.07.04.09.13.04.2-.03.04-.07.07-.12.07Z"/>
        </g>
      </g>
      <g id="LINE-17" data-name="LINE">
        <path class="cls-1" d="M789.55,602.9s-.05,0-.08-.02l-153.84-98.25c-.07-.04-.09-.13-.04-.2.04-.07.13-.09.2-.04l153.84,98.25c.07.04.09.13.04.2-.03.04-.07.07-.12.07Z"/>
      </g>
      <g id="LINE-18" data-name="LINE">
        <path class="cls-1" d="M798.28,608.48c-.06,0-.12-.04-.14-.1-.02-.08.02-.15.1-.17l5.05-1.39c.08-.02.15.02.17.1.02.08-.02.15-.1.17l-5.05,1.39s-.03,0-.04,0Z"/>
      </g>
      <g id="LINE-19" data-name="LINE">
        <path class="cls-1" d="M803.43,602.25s-.05,0-.08-.02l-166.04-106.04c-.07-.04-.09-.13-.04-.2.04-.07.13-.09.2-.04l166.04,106.04c.07.04.09.13.04.2-.03.04-.07.07-.12.07Z"/>
      </g>
      <g id="LINE-20" data-name="LINE">
        <path class="cls-1" d="M803.33,607.09h0c-.08,0-.14-.07-.14-.14l.1-4.85c0-.08.06-.14.14-.14h0c.08,0,.14.07.14.14l-.1,4.85c0,.08-.06.14-.14.14Z"/>
      </g>
      <g id="LINE-21" data-name="LINE">
        <path class="cls-1" d="M632.35,497.59c-.06,0-.12-.04-.14-.1-.02-.08.02-.15.1-.17l5.05-1.39c.08-.02.15.02.17.1.02.08-.02.15-.1.17l-5.05,1.39s-.03,0-.04,0Z"/>
      </g>
      <g id="LINE-22" data-name="LINE">
        <path class="cls-1" d="M798.28,608.48h0c-.08,0-.14-.07-.14-.14l.1-4.85c0-.08.06-.13.14-.14.08,0,.14.07.14.14l-.1,4.85c0,.08-.06.14-.14.14Z"/>
      </g>
      <g id="LINE-23" data-name="LINE">
        <path class="cls-1" d="M798.38,603.64s-.05,0-.08-.02l-166.04-106.04c-.07-.04-.09-.13-.04-.2.04-.07.13-.09.2-.04l166.04,106.04c.07.04.09.13.04.2-.03.04-.07.07-.12.07Z"/>
      </g>
      <g id="LINE-24" data-name="LINE">
        <path class="cls-1" d="M798.38,603.64c-.06,0-.12-.04-.14-.1-.02-.08.02-.15.1-.17l5.05-1.39c.08-.02.15.02.17.1.02.08-.02.15-.1.17l-5.05,1.39s-.03,0-.04,0Z"/>
      </g>
      <g>
        <g id="LINE-25" data-name="LINE">
          <path class="cls-1" d="M467.86,414.91s-.05,0-.08-.02l-70.56-45.07c-.07-.04-.09-.13-.04-.2.04-.07.13-.09.2-.04l70.56,45.07c.07.04.09.13.04.2-.03.04-.07.07-.12.07Z"/>
        </g>
        <g id="LINE-26" data-name="LINE">
          <path class="cls-1" d="M467.78,418.37h0c-.08,0-.14-.07-.14-.14l.07-3.46c0-.08.07-.16.14-.14.08,0,.14.07.14.14l-.07,3.46c0,.08-.06.14-.14.14Z"/>
        </g>
        <g id="LINE-27" data-name="LINE">
          <path class="cls-1" d="M296.3,397.6c-.06,0-.12-.04-.14-.1-.02-.08.02-.15.1-.17l100.99-27.76c.08-.02.15.02.17.1.02.08-.02.15-.1.17l-100.99,27.76s-.03,0-.04,0Z"/>
        </g>
        <g id="LINE-28" data-name="LINE">
          <path class="cls-1" d="M366.87,442.67s-.05,0-.08-.02l-70.56-45.07c-.07-.04-.09-.13-.04-.2.04-.07.13-.09.2-.04l70.56,45.07c.07.04.09.13.04.2-.03.04-.07.07-.12.07Z"/>
        </g>
        <g id="LINE-29" data-name="LINE">
          <path class="cls-1" d="M366.87,442.67c-.06,0-.12-.04-.14-.1-.02-.08.02-.15.1-.17l100.99-27.76c.08-.02.15.02.17.1.02.08-.02.15-.1.17l-100.99,27.76s-.03,0-.04,0Z"/>
        </g>
        <g id="LINE-30" data-name="LINE">
          <path class="cls-1" d="M296.23,401.07h0c-.08,0-.14-.07-.14-.14l.07-3.46c0-.08.06-.14.14-.14h0c.08,0,.14.07.14.14l-.07,3.46c0,.08-.06.14-.14.14Z"/>
        </g>
        <g id="LINE-31" data-name="LINE">
          <path class="cls-1" d="M366.8,446.13s-.05,0-.08-.02l-20.86-13.32c-.07-.04-.09-.13-.04-.2.04-.07.13-.09.2-.04l20.86,13.32c.07.04.09.13.04.2-.03.04-.07.07-.12.07Z"/>
        </g>
        <g id="LINE-32" data-name="LINE">
          <path class="cls-1" d="M312.18,411.25s-.05,0-.08-.02l-15.95-10.19c-.07-.04-.09-.13-.04-.2.04-.07.13-.09.2-.04l15.95,10.19c.07.04.09.13.04.2-.03.04-.07.07-.12.07Z"/>
        </g>
        <g id="LINE-33" data-name="LINE">
          <path class="cls-1" d="M366.8,446.13h0c-.08,0-.14-.07-.14-.14l.07-3.46c0-.08.06-.14.14-.14h0c.08,0,.14.07.14.14l-.07,3.46c0,.08-.06.14-.14.14Z"/>
        </g>
        <g id="LINE-34" data-name="LINE">
          <path class="cls-1" d="M366.8,446.13c-.06,0-.12-.04-.14-.1-.02-.08.02-.15.1-.17l100.99-27.76c.08-.02.15.02.17.1.02.08-.02.15-.1.17l-100.99,27.76s-.03,0-.04,0Z"/>
        </g>
        <g id="LINE-35" data-name="LINE">
          <path class="cls-1" d="M345.98,430.4s-.05,0-.08-.02l-31.13-19.88c-.07-.04-.09-.13-.04-.2.04-.07.13-.09.2-.04l31.13,19.88c.07.04.09.13.04.2-.03.04-.07.07-.12.07Z"/>
        </g>
        <g id="LINE-36" data-name="LINE">
          <path class="cls-1" d="M345.91,433.86h0c-.08,0-.14-.07-.14-.14l.07-3.46c0-.08.06-.14.14-.14h0c.08,0,.14.07.14.14l-.07,3.46c0,.08-.06.14-.14.14Z"/>
        </g>
        <g id="LINE-37" data-name="LINE">
          <path class="cls-1" d="M246.83,461.1c-.06,0-.12-.04-.14-.1-.02-.08.02-.15.1-.17l99.08-27.24c.08-.02.15.02.17.1.02.08-.02.15-.1.17l-99.08,27.24s-.03,0-.04,0Z"/>
        </g>
        <g id="LINE-38" data-name="LINE">
          <path class="cls-1" d="M196.89,485.46c-.06,0-.12-.04-.14-.1-.02-.08.02-.15.1-.17l12.47-3.43c.08-.02.15.02.17.1.02.08-.02.15-.1.17l-12.47,3.43s-.03,0-.04,0Z"/>
        </g>
        <g id="LINE-39" data-name="LINE">
          <path class="cls-1" d="M196.89,485.46s-.05,0-.08-.02l-31.13-19.88c-.07-.04-.09-.13-.04-.2.04-.07.13-.09.2-.04l31.13,19.88c.07.04.09.13.04.2-.03.04-.07.07-.12.07Z"/>
        </g>
        <g id="LINE-40" data-name="LINE">
          <path class="cls-1" d="M209.36,482.03s-.1-.03-.12-.07c-.04-.07-.01-.16.05-.19l37.48-20.93c.07-.04.16-.01.19.05.04.07.01.16-.05.19l-37.48,20.93s-.05.02-.07.02Z"/>
        </g>
        <g id="LINE-41" data-name="LINE">
          <path class="cls-1" d="M246.5,457.75c-.06,0-.12-.04-.14-.1-.02-.08.02-.15.1-.17l99.48-27.35c.08-.02.15.02.17.1.02.08-.02.15-.1.17l-99.48,27.35s-.03,0-.04,0Z"/>
        </g>
        <g id="LINE-42" data-name="LINE">
          <path class="cls-1" d="M215.37,437.87c-.06,0-.12-.04-.14-.1-.02-.08.02-.15.1-.17l99.48-27.35c.08-.02.15.02.17.1.02.08-.02.15-.1.17l-99.48,27.35s-.03,0-.04,0Z"/>
        </g>
        <g id="LINE-43" data-name="LINE">
          <path class="cls-1" d="M246.5,457.75s-.05,0-.08-.02l-31.13-19.88c-.07-.04-.09-.13-.04-.2.04-.07.13-.09.2-.04l31.13,19.88c.07.04.09.13.04.2-.03.04-.07.07-.12.07Z"/>
        </g>
        <g id="LINE-44" data-name="LINE">
          <path class="cls-1" d="M196.89,485.46s-.1-.03-.12-.07c-.04-.07-.01-.16.05-.19l49.61-27.71c.07-.04.16-.01.19.05.04.07.01.16-.05.19l-49.61,27.71s-.05.02-.07.02Z"/>
        </g>
        <g id="LINE-45" data-name="LINE">
          <path class="cls-1" d="M165.75,465.57s-.1-.03-.12-.07c-.04-.07-.01-.16.05-.19l49.61-27.71c.07-.04.15-.01.19.05.04.07.01.16-.05.19l-49.61,27.71s-.05.02-.07.02Z"/>
        </g>
      </g>
      <g id="LINE-46" data-name="LINE">
        <path class="cls-1" d="M505.52,684.15s-.05,0-.08-.02l-166.03-106.04c-.07-.04-.09-.13-.04-.2.04-.07.13-.09.2-.04l166.03,106.04c.07.04.09.13.04.2-.03.04-.07.07-.12.07Z"/>
      </g>
      <g id="LINE-47" data-name="LINE">
        <path class="cls-1" d="M334.43,579.5c-.06,0-.12-.04-.14-.1-.02-.08.02-.15.1-.17l5.05-1.39c.08-.02.15.02.17.1.02.08-.02.15-.1.17l-5.05,1.39s-.03,0-.04,0Z"/>
      </g>
      <g id="LINE-48" data-name="LINE">
        <path class="cls-1" d="M500.47,685.54s-.05,0-.08-.02l-166.03-106.04c-.07-.04-.09-.13-.04-.2.04-.07.13-.09.2-.04l166.03,106.04c.07.04.09.13.04.2-.03.04-.07.07-.12.07Z"/>
      </g>
      <g id="LINE-49" data-name="LINE">
        <path class="cls-1" d="M500.47,685.54c-.06,0-.12-.04-.14-.1-.02-.08.02-.15.1-.17l5.05-1.39c.08-.02.15.02.17.1.02.08-.02.15-.1.17l-5.05,1.39s-.03,0-.04,0Z"/>
      </g>
      <g id="LINE-50" data-name="LINE">
        <path class="cls-1" d="M505.42,689h0c-.08,0-.14-.07-.14-.14l.1-4.85c0-.08.06-.14.14-.14h0c.08,0,.14.07.14.14l-.1,4.85c0,.08-.06.14-.14.14Z"/>
      </g>
      <g id="LINE-51" data-name="LINE">
        <path class="cls-1" d="M500.37,690.39h0c-.08,0-.14-.07-.14-.14l.1-4.84c0-.08.06-.14.14-.14h0c.08,0,.14.07.14.14l-.1,4.84c0,.08-.06.14-.14.14Z"/>
      </g>
      <g id="LINE-52" data-name="LINE">
        <path class="cls-1" d="M500.37,690.39c-.06,0-.12-.04-.14-.1-.02-.08.02-.15.1-.17l5.05-1.39c.08-.02.15.02.17.1.02.08-.02.15-.1.17l-5.05,1.39s-.03,0-.04,0Z"/>
      </g>
      <g id="LINE-53" data-name="LINE">
        <path class="cls-1" d="M500.37,690.39s-.05,0-.08-.02l-166.04-106.04c-.07-.04-.09-.13-.04-.2.04-.07.13-.09.2-.04l166.04,106.04c.07.04.09.13.04.2-.03.04-.07.07-.12.07Z"/>
      </g>
      <g id="LINE-54" data-name="LINE">
        <path class="cls-1" d="M334.33,584.34h0c-.08,0-.14-.07-.14-.14l.1-4.85c0-.08.06-.14.14-.14.08,0,.14.07.14.14l-.1,4.85c0,.08-.06.14-.14.14Z"/>
      </g>
      <g id="LINE-55" data-name="LINE">
        <path class="cls-1" d="M342.94,580.32s-.05,0-.08-.02l-3.46-2.21c-.07-.04-.09-.13-.04-.2.04-.07.13-.09.2-.04l3.46,2.21c.07.04.09.13.04.2-.03.04-.07.07-.12.07Z"/>
      </g>
      <g id="LINE-56" data-name="LINE">
        <path class="cls-1" d="M342.94,580.32c-.06,0-.12-.04-.14-.1-.02-.08.02-.15.1-.17l292.87-80.52c.08-.02.15.02.17.1.02.08-.02.15-.1.17l-292.87,80.52s-.03,0-.04,0Z"/>
      </g>
      <g id="LINE-57" data-name="LINE">
        <path class="cls-1" d="M635.81,499.8s-.05,0-.08-.02l-3.46-2.21c-.07-.04-.09-.13-.04-.2.04-.07.13-.09.2-.04l3.46,2.21c.07.04.09.13.04.2-.03.04-.07.07-.12.07Z"/>
      </g>
      <g id="LINE-58" data-name="LINE">
        <path class="cls-1" d="M339.48,578.11c-.06,0-.12-.04-.14-.1-.02-.08.02-.15.1-.17l292.87-80.52c.08-.02.15.02.17.1.02.08-.02.15-.1.17l-292.87,80.52s-.03,0-.04,0Z"/>
      </g>
      <g id="LINE-59" data-name="LINE">
        <path class="cls-1" d="M635.71,504.65h0c-.08,0-.14-.07-.14-.14l.1-4.85c0-.08.05-.13.14-.14.08,0,.14.07.14.14l-.1,4.85c0,.08-.06.14-.14.14Z"/>
      </g>
      <g id="LINE-60" data-name="LINE">
        <path class="cls-1" d="M348.21,583.69c-.06,0-.12-.04-.14-.1-.02-.08.02-.15.1-.17l287.49-79.04c.08-.02.15.02.17.1.02.08-.02.15-.1.17l-287.49,79.04s-.03,0-.04,0Z"/>
      </g>
      <g id="LINE-61" data-name="LINE">
        <path class="cls-1" d="M505.42,689h0c-.08,0-.14-.07-.14-.14l.1-4.85c0-.08.06-.14.14-.14h0c.08,0,.14.07.14.14l-.1,4.85c0,.08-.06.14-.14.14Z"/>
      </g>
      <g id="LINE-62" data-name="LINE">
        <path class="cls-1" d="M505.52,684.15s-.05,0-.08-.02l-3.46-2.21c-.07-.04-.09-.13-.04-.2.04-.07.13-.09.2-.04l3.46,2.21c.07.04.09.13.04.2-.03.04-.07.07-.12.07Z"/>
      </g>
      <g id="LINE-63" data-name="LINE">
        <path class="cls-1" d="M505.52,684.15c-.06,0-.12-.04-.14-.1-.02-.08.02-.15.1-.17l292.87-80.52c.08-.02.15.02.17.1.02.08-.02.15-.1.17l-292.87,80.52s-.03,0-.04,0Z"/>
      </g>
      <g id="LINE-64" data-name="LINE">
        <path class="cls-1" d="M798.38,603.64s-.05,0-.08-.02l-3.46-2.21c-.07-.04-.09-.13-.04-.2.04-.07.13-.09.2-.04l3.46,2.21c.07.04.09.13.04.2-.03.04-.07.07-.12.07Z"/>
      </g>
      <g id="LINE-65" data-name="LINE">
        <path class="cls-1" d="M502.06,681.94c-.06,0-.12-.04-.14-.1-.02-.08.02-.15.1-.17l292.87-80.52c.08-.02.15.02.17.1.02.08-.02.15-.1.17l-292.87,80.52s-.03,0-.04,0Z"/>
      </g>
      <g id="LINE-66" data-name="LINE">
        <path class="cls-1" d="M505.42,689c-.06,0-.12-.04-.14-.1-.02-.08.02-.15.1-.17l292.87-80.52c.08-.02.15.02.17.1.02.08-.02.15-.1.17l-292.87,80.52s-.03,0-.04,0Z"/>
      </g>
      <g id="LINE-67" data-name="LINE">
        <path class="cls-1" d="M798.28,608.48h0c-.08,0-.14-.07-.14-.14l.1-4.85c0-.08.06-.13.14-.14.08,0,.14.07.14.14l-.1,4.85c0,.08-.06.14-.14.14Z"/>
      </g>
      <g>
        <g id="LINE-68" data-name="LINE">
          <path class="cls-1" d="M597.88,470.98h0c-.08,0-.14-.07-.14-.14l.11-5.54c0-.08.05-.15.14-.14.08,0,.14.07.14.14l-.11,5.54c0,.08-.06.14-.14.14Z"/>
        </g>
        <g id="LINE-69" data-name="LINE">
          <path class="cls-1" d="M606.57,463.09c-.06,0-.12-.04-.14-.1-.02-.08.02-.15.1-.17l112.61-30.96c.08-.02.15.02.17.1.02.08-.02.15-.1.17l-112.61,30.96s-.03,0-.04,0Z"/>
        </g>
        <g id="LINE-70" data-name="LINE">
          <path class="cls-1" d="M601.45,467.66s-.05,0-.08-.02l-3.46-2.21c-.07-.04-.09-.13-.04-.2.04-.07.13-.09.2-.04l3.46,2.21c.07.04.09.13.04.2-.03.04-.07.07-.12.07Z"/>
        </g>
        <g id="LINE-71" data-name="LINE">
          <path class="cls-1" d="M601.45,467.66c-.06,0-.12-.04-.14-.1-.02-.08.02-.15.1-.17l126.23-34.7c.08-.02.15.02.17.1.02.08-.02.15-.1.17l-126.23,34.7s-.03,0-.04,0Z"/>
        </g>
        <g id="LINE-72" data-name="LINE">
          <path class="cls-1" d="M727.57,438.49h0c-.08,0-.14-.07-.14-.14l.11-5.54c0-.08.06-.14.14-.14h0c.08,0,.14.07.14.14l-.11,5.54c0,.08-.06.14-.14.14Z"/>
        </g>
        <g id="LINE-73" data-name="LINE">
          <path class="cls-1" d="M601.34,473.19h0c-.08,0-.14-.07-.14-.14l.11-5.54c0-.08.06-.14.14-.14h0c.08,0,.14.07.14.14l-.11,5.54c0,.08-.06.14-.14.14Z"/>
        </g>
        <g id="LINE-74" data-name="LINE">
          <path class="cls-1" d="M601.34,473.19c-.06,0-.12-.04-.14-.1-.02-.08.02-.15.1-.17l126.23-34.7c.08-.02.15.02.17.1.02.08-.02.15-.1.17l-126.23,34.7s-.03,0-.04,0Z"/>
        </g>
        <g id="LINE-75" data-name="LINE">
          <path class="cls-1" d="M601.34,473.19s-.05,0-.08-.02l-3.46-2.21c-.07-.04-.09-.13-.04-.2.04-.07.13-.09.2-.04l3.46,2.21c.07.04.09.13.04.2-.03.04-.07.07-.12.07Z"/>
        </g>
        <g id="LINE-76" data-name="LINE">
          <path class="cls-1" d="M644.55,385.47h0c-.08,0-.14-.07-.14-.14l.11-5.54c0-.08.06-.14.14-.14h0c.08,0,.14.07.14.14l-.11,5.54c0,.08-.06.14-.14.14Z"/>
        </g>
        <g id="LINE-77" data-name="LINE">
          <path class="cls-1" d="M608.07,389.99c-.06,0-.12-.04-.14-.1-.02-.08.02-.15.1-.17l36.59-10.06c.08-.02.15.02.17.1.02.08-.02.15-.1.17l-36.59,10.06s-.03,0-.04,0Z"/>
        </g>
        <g id="LINE-78" data-name="LINE">
          <path class="cls-1" d="M518.44,414.63c-.06,0-.12-.04-.14-.1-.02-.08.02-.15.1-.17l81.07-22.29c.08-.02.15.02.17.1.02.08-.02.15-.1.17l-81.07,22.29s-.03,0-.04,0Z"/>
        </g>
        <g id="LINE-79" data-name="LINE">
          <path class="cls-1" d="M518.32,420.17h0c-.08,0-.14-.07-.14-.14l.11-5.54c0-.08.06-.14.14-.14h0c.08,0,.14.07.14.14l-.11,5.54c0,.08-.06.14-.14.14Z"/>
        </g>
        <g id="LINE-80" data-name="LINE">
          <path class="cls-1" d="M622.93,391.41c-.06,0-.12-.04-.14-.1-.02-.08.02-.15.1-.17l21.63-5.95c.08-.02.15.02.17.1.02.08-.02.15-.1.17l-21.63,5.95s-.03,0-.04,0Z"/>
        </g>
        <g id="LINE-81" data-name="LINE">
          <path class="cls-1" d="M607.96,395.53c-.06,0-.12-.04-.14-.1-.02-.08.02-.15.1-.17l3.77-1.04c.08-.02.15.02.17.1.02.08-.02.15-.1.17l-3.77,1.04s-.03,0-.04,0Z"/>
        </g>
        <g id="LINE-82" data-name="LINE">
          <path class="cls-1" d="M539.61,414.32c-.06,0-.12-.04-.14-.1-.02-.08.02-.15.1-.17l59.78-16.43c.08-.02.15.02.17.1.02.08-.02.15-.1.17l-59.78,16.43s-.03,0-.04,0Z"/>
        </g>
        <g id="LINE-83" data-name="LINE">
          <path class="cls-1" d="M518.32,420.17c-.06,0-.12-.04-.14-.1-.02-.08.02-.15.1-.17l10.1-2.78c.08-.02.15.02.17.1.02.08-.02.15-.1.17l-10.1,2.78s-.03,0-.04,0Z"/>
        </g>
        <g id="LINE-84" data-name="LINE">
          <path class="cls-1" d="M608.14,386.81c-.06,0-.12-.04-.14-.1-.02-.08.02-.15.1-.17l28.02-7.7c.08-.02.15.02.17.1.02.08-.02.15-.1.17l-28.02,7.7s-.03,0-.04,0Z"/>
        </g>
        <g id="LINE-85" data-name="LINE">
          <path class="cls-1" d="M523.55,410.07c-.06,0-.12-.04-.14-.1-.02-.08.02-.15.1-.17l76.02-20.9c.08-.02.15.02.17.1.02.08-.02.15-.1.17l-76.02,20.9s-.03,0-.04,0Z"/>
        </g>
        <g id="LINE-86" data-name="LINE">
          <path class="cls-1" d="M518.44,414.63s-.05,0-.08-.02l-3.46-2.21c-.07-.04-.09-.13-.04-.2.04-.07.13-.09.2-.04l3.46,2.21c.07.04.09.13.04.2-.03.04-.07.07-.12.07Z"/>
        </g>
        <g id="LINE-87" data-name="LINE">
          <path class="cls-1" d="M514.86,417.96h0c-.08,0-.14-.07-.14-.14l.11-5.54c0-.08.06-.14.14-.14h0c.08,0,.14.07.14.14l-.11,5.54c0,.08-.06.14-.14.14Z"/>
        </g>
        <g id="LINE-88" data-name="LINE">
          <path class="cls-1" d="M518.32,420.17s-.05,0-.08-.02l-3.46-2.21c-.07-.04-.09-.13-.04-.2.04-.07.13-.09.2-.04l3.46,2.21c.07.04.09.13.04.2-.03.04-.07.07-.12.07Z"/>
        </g>
        <g id="LINE-89" data-name="LINE">
          <path class="cls-1" d="M639.62,381.32s-.05,0-.08-.02l-3.46-2.21c-.07-.04-.09-.13-.04-.2.04-.07.13-.09.2-.04l3.46,2.21c.07.04.09.13.04.2-.03.04-.07.07-.12.07Z"/>
        </g>
        <g id="LINE-90" data-name="LINE">
          <path class="cls-1" d="M639.62,381.32c-.06,0-.12-.04-.14-.1-.02-.08.02-.15.1-.17l5.05-1.39c.08-.02.15.02.17.1.02.08-.02.15-.1.17l-5.05,1.39s-.03,0-.04,0Z"/>
        </g>
        <g id="LINE-91" data-name="LINE">
          <path class="cls-1" d="M642.37,247.72s-.05,0-.08-.02l-3.46-2.21c-.07-.04-.09-.13-.04-.2.04-.07.13-.09.2-.04l3.46,2.21c.07.04.09.13.04.2-.03.04-.07.07-.12.07Z"/>
        </g>
        <g id="LINE-92" data-name="LINE">
          <path class="cls-1" d="M642.37,247.72c-.06,0-.12-.04-.14-.1-.02-.08.02-.15.1-.17l5.05-1.39c.08-.02.15.02.17.1.02.08-.02.15-.1.17l-5.05,1.39s-.03,0-.04,0Z"/>
        </g>
        <g id="LINE-93" data-name="LINE">
          <path class="cls-1" d="M647.42,246.34s-.05,0-.08-.02l-3.46-2.21c-.07-.04-.09-.13-.04-.2.04-.07.13-.09.2-.04l3.46,2.21c.07.04.09.13.04.2-.03.04-.07.07-.12.07Z"/>
        </g>
        <g id="LINE-94" data-name="LINE">
          <path class="cls-1" d="M638.91,245.52c-.06,0-.12-.04-.14-.1-.02-.08.02-.15.1-.17l5.05-1.39c.08-.02.15.02.17.1.02.08-.02.15-.1.17l-5.05,1.39s-.03,0-.04,0Z"/>
        </g>
        <g id="LINE-95" data-name="LINE">
          <path class="cls-1" d="M639.62,381.32h0c-.08,0-.14-.07-.14-.14l.47-22.71c0-.08.06-.14.14-.14h0c.08,0,.14.07.14.14l-.47,22.71c0,.08-.06.14-.14.14Z"/>
        </g>
        <g id="LINE-96" data-name="LINE">
          <path class="cls-1" d="M640.27,349.89h0c-.08,0-.14-.07-.14-.14l2.11-102.17c0-.08.06-.14.14-.14h0c.08,0,.14.07.14.14l-2.11,102.17c0,.08-.06.14-.14.14Z"/>
        </g>
        <g id="LINE-97" data-name="LINE">
          <path class="cls-1" d="M644.67,379.93h0c-.08,0-.14-.07-.14-.14l.47-22.71c0-.08.06-.14.14-.14h0c.08,0,.14.07.14.14l-.47,22.71c0,.08-.06.14-.14.14Z"/>
        </g>
        <g id="LINE-98" data-name="LINE">
          <path class="cls-1" d="M645.31,348.5h0c-.08,0-.14-.07-.14-.14l2.11-102.17c0-.08.06-.14.14-.14h0c.08,0,.14.07.14.14l-2.11,102.17c0,.08-.06.14-.14.14Z"/>
        </g>
        <g id="LINE-99" data-name="LINE">
          <path class="cls-1" d="M638.31,274.58h0c-.08,0-.14-.07-.14-.14l.6-29.07c0-.08.07-.14.14-.14.08,0,.14.07.14.14l-.6,29.07c0,.08-.06.14-.14.14Z"/>
        </g>
        <g id="LINE-100" data-name="LINE">
          <path class="cls-1" d="M636.74,350.86h0c-.08,0-.14-.07-.14-.14l1.39-67.56c0-.08.06-.14.14-.14h0c.08,0,.14.07.14.14l-1.39,67.56c0,.08-.06.14-.14.14Z"/>
        </g>
        <g id="LINE-101" data-name="LINE">
          <path class="cls-1" d="M636.16,379.11h0c-.08,0-.14-.07-.14-.14l.4-19.53c0-.08.06-.14.14-.14h0c.08,0,.14.07.14.14l-.4,19.53c0,.08-.06.14-.14.14Z"/>
        </g>
        <g id="LINE-102" data-name="LINE">
          <path class="cls-1" d="M722.63,434.34s-.05,0-.08-.02l-3.46-2.21c-.07-.04-.09-.13-.04-.2.04-.07.13-.09.2-.04l3.46,2.21c.07.04.09.13.04.2-.03.04-.07.07-.12.07Z"/>
        </g>
        <g id="LINE-103" data-name="LINE">
          <path class="cls-1" d="M722.63,434.34c-.06,0-.12-.04-.14-.1-.02-.08.02-.15.1-.17l5.05-1.39c.08-.02.15.02.17.1.02.08-.02.15-.1.17l-5.05,1.39s-.03,0-.04,0Z"/>
        </g>
        <g id="LINE-104" data-name="LINE">
          <path class="cls-1" d="M725.39,300.75s-.05,0-.08-.02l-3.46-2.21c-.07-.04-.09-.13-.04-.2.04-.07.13-.09.2-.04l3.46,2.21c.07.04.09.13.04.2-.03.04-.07.07-.12.07Z"/>
        </g>
        <g id="LINE-105" data-name="LINE">
          <path class="cls-1" d="M725.39,300.75c-.06,0-.12-.04-.14-.1-.02-.08.02-.15.1-.17l5.05-1.39c.08-.02.15.02.17.1.02.08-.02.15-.1.17l-5.05,1.39s-.03,0-.04,0Z"/>
        </g>
        <g id="LINE-106" data-name="LINE">
          <path class="cls-1" d="M730.44,299.36s-.05,0-.08-.02l-3.46-2.21c-.07-.04-.09-.13-.04-.2.04-.07.13-.09.2-.04l3.46,2.21c.07.04.09.13.04.2-.03.04-.07.07-.12.07Z"/>
        </g>
        <g id="LINE-107" data-name="LINE">
          <path class="cls-1" d="M721.93,298.54c-.06,0-.12-.04-.14-.1-.02-.08.02-.15.1-.17l5.05-1.39c.08-.02.15.02.17.1.02.08-.02.15-.1.17l-5.05,1.39s-.03,0-.04,0Z"/>
        </g>
        <g id="LINE-108" data-name="LINE">
          <path class="cls-1" d="M722.63,434.34h0c-.08,0-.14-.07-.14-.14l2.75-133.59c0-.08.06-.14.14-.14h0c.08,0,.14.07.14.14l-2.75,133.59c0,.08-.06.14-.14.14Z"/>
        </g>
        <g id="LINE-109" data-name="LINE">
          <path class="cls-1" d="M727.68,432.95h0c-.08,0-.14-.07-.14-.14l2.75-133.59c0-.08.07-.15.14-.14.08,0,.14.07.14.14l-2.75,133.59c0,.08-.06.14-.14.14Z"/>
        </g>
        <g id="LINE-110" data-name="LINE">
          <path class="cls-1" d="M721.33,327.6h0c-.08,0-.14-.07-.14-.14l.6-29.07c0-.08.06-.14.14-.14h0c.08,0,.14.07.14.14l-.6,29.07c0,.08-.06.14-.14.14Z"/>
        </g>
        <g id="LINE-111" data-name="LINE">
          <path class="cls-1" d="M719.18,432.13h0c-.08,0-.14-.07-.14-.14l1.98-95.81c0-.08.06-.14.14-.14h0c.08,0,.14.07.14.14l-1.98,95.81c0,.08-.06.14-.14.14Z"/>
        </g>
        <g id="LINE-112" data-name="LINE">
          <path class="cls-1" d="M518.44,414.63c-.06,0-.12-.04-.14-.1-.02-.08.02-.15.1-.17l5.05-1.39c.08-.02.15.02.17.1.02.08-.02.15-.1.17l-5.05,1.39s-.03,0-.04,0Z"/>
        </g>
        <g id="LINE-113" data-name="LINE">
          <path class="cls-1" d="M523.48,413.25h0c-.08,0-.14-.07-.14-.14l1.95-94.43c0-.08.08-.15.14-.14.08,0,.14.07.14.14l-1.95,94.43c0,.08-.06.14-.14.14Z"/>
        </g>
        <g id="LINE-114" data-name="LINE">
          <path class="cls-1" d="M520.48,315.65c-.06,0-.11-.04-.13-.1-.02-.07.02-.15.09-.18.08-.02.16.01.18.09.02.07-.01.15-.09.18h0s-.03,0-.04,0Z"/>
        </g>
        <g id="LINE-115" data-name="LINE">
          <path class="cls-1" d="M518.44,414.63h0c-.08,0-.14-.07-.14-.14l2.04-98.98c0-.08.06-.14.14-.14h0c.08,0,.14.07.14.14l-2.04,98.98c0,.08-.06.14-.14.14Z"/>
        </g>
        <g id="LINE-116" data-name="LINE">
          <path class="cls-1" d="M514.98,412.42h0c-.08,0-.14-.07-.14-.14l2.04-98.98c0-.08.06-.14.14-.14h0c.08,0,.14.07.14.14l-2.04,98.98c0,.08-.06.14-.14.14Z"/>
        </g>
        <g id="LINE-117" data-name="LINE">
          <path class="cls-1" d="M517.02,313.44c-.06,0-.12-.04-.14-.1-.02-.07.01-.15.09-.18h0c.08-.03.15.01.18.09.02.07-.02.15-.09.18-.02,0-.03,0-.05,0Z"/>
        </g>
        <g id="LINE-118" data-name="LINE">
          <path class="cls-1" d="M518.44,414.63s-.05,0-.08-.02l-3.46-2.21c-.07-.04-.09-.13-.04-.2.04-.07.13-.09.2-.04l3.46,2.21c.07.04.09.13.04.2-.03.04-.07.07-.12.07Z"/>
        </g>
        <g id="LINE-119" data-name="LINE">
          <path class="cls-1" d="M520.48,315.65s-.05,0-.08-.02l-3.46-2.21c-.07-.04-.09-.13-.04-.2.04-.07.13-.09.2-.04l3.46,2.21c.07.04.09.13.04.2-.03.04-.07.07-.12.07Z"/>
        </g>
        <g id="LINE-120" data-name="LINE">
          <path class="cls-1" d="M597.99,465.45h0c-.08,0-.14-.07-.14-.14l2.04-98.98c0-.08.06-.14.14-.14h0c.08,0,.14.07.14.14l-2.04,98.98c0,.08-.06.14-.14.14Z"/>
        </g>
        <g id="LINE-121" data-name="LINE">
          <path class="cls-1" d="M600.03,366.46c-.06,0-.12-.04-.14-.1-.02-.08.02-.15.09-.18.07-.02.16.02.18.09.02.08-.02.15-.09.18h0s-.03,0-.04,0Z"/>
        </g>
        <g id="LINE-122" data-name="LINE">
          <path class="cls-1" d="M608.54,367.28s-.05,0-.08-.02h0c-.06-.05-.08-.14-.04-.2.04-.06.13-.08.2-.04.06.04.09.13.04.2-.03.04-.07.06-.12.06Z"/>
        </g>
        <g id="LINE-123" data-name="LINE">
          <path class="cls-1" d="M606.5,466.27h0c-.08,0-.14-.07-.14-.14l2.04-98.98c0-.08.06-.14.14-.14h0c.08,0,.14.07.14.14l-2.04,98.98c0,.08-.06.14-.14.14Z"/>
        </g>
        <g id="LINE-124" data-name="LINE">
          <path class="cls-1" d="M601.45,467.66c-.06,0-.12-.04-.14-.1-.02-.08.02-.15.1-.17l5.05-1.39c.08-.02.15.02.17.1.02.08-.02.15-.1.17l-5.05,1.39s-.03,0-.04,0Z"/>
        </g>
        <g id="LINE-125" data-name="LINE">
          <path class="cls-1" d="M603.49,368.67c-.06,0-.12-.04-.14-.1-.02-.08.02-.15.1-.17l5.05-1.39c.08-.02.15.02.17.1.02.08-.02.15-.1.17l-5.05,1.39s-.03,0-.04,0Z"/>
        </g>
        <g id="LINE-126" data-name="LINE">
          <path class="cls-1" d="M601.45,467.66h0c-.08,0-.14-.07-.14-.14l2.04-98.98c0-.08.06-.14.14-.14h0c.08,0,.14.07.14.14l-2.04,98.98c0,.08-.06.14-.14.14Z"/>
        </g>
        <g id="LINE-127" data-name="LINE">
          <path class="cls-1" d="M601.45,467.66s-.05,0-.08-.02l-3.46-2.21c-.07-.04-.09-.13-.04-.2.04-.07.13-.09.2-.04l3.46,2.21c.07.04.09.13.04.2-.03.04-.07.07-.12.07Z"/>
        </g>
        <g id="LINE-128" data-name="LINE">
          <path class="cls-1" d="M603.49,368.67s-.05,0-.08-.02l-3.46-2.21c-.07-.04-.09-.13-.04-.2.04-.07.13-.09.2-.04l3.46,2.21c.07.04.09.13.04.2-.03.04-.07.07-.12.07Z"/>
        </g>
        <g id="LINE-129" data-name="LINE">
          <path class="cls-1" d="M598.07,461.88s-.05,0-.08-.02l-18.26-11.66c-.07-.04-.09-.13-.04-.2.04-.07.13-.09.2-.04l18.26,11.66c.07.04.09.13.04.2-.03.04-.07.07-.12.07Z"/>
        </g>
        <g id="LINE-130" data-name="LINE">
          <path class="cls-1" d="M570.32,444.16s-.05,0-.08-.02l-10.27-6.56c-.07-.04-.09-.13-.04-.2.04-.07.13-.09.2-.04l10.27,6.56c.07.04.09.13.04.2-.03.04-.07.07-.12.07Z"/>
        </g>
        <g id="LINE-131" data-name="LINE">
          <path class="cls-1" d="M550.57,431.54s-.05,0-.08-.02l-22.15-14.14c-.07-.04-.09-.13-.04-.2.04-.07.13-.09.2-.04l22.15,14.14c.07.04.09.13.04.2-.03.04-.07.07-.12.07Z"/>
        </g>
        <g id="LINE-132" data-name="LINE">
          <path class="cls-1" d="M613.14,461.28s-.05,0-.08-.02l-6.45-4.12c-.07-.04-.09-.13-.04-.2.04-.07.13-.09.2-.04l6.45,4.12c.07.04.09.13.04.2-.03.04-.07.07-.12.07Z"/>
        </g>
        <g id="LINE-133" data-name="LINE">
          <path class="cls-1" d="M598.28,451.79s-.05,0-.08-.02l-64.69-41.32c-.07-.04-.09-.13-.04-.2.04-.07.13-.09.2-.04l64.69,41.32c.07.04.09.13.04.2-.03.04-.07.07-.12.07Z"/>
        </g>
        <g id="LINE-134" data-name="LINE">
          <path class="cls-1" d="M608.09,462.67c-.06,0-.12-.04-.14-.1-.02-.08.02-.15.1-.17l5.05-1.39c.08-.02.15.02.17.1.02.08-.02.15-.1.17l-5.05,1.39s-.03,0-.04,0Z"/>
        </g>
        <g id="LINE-135" data-name="LINE">
          <path class="cls-1" d="M528.53,411.86c-.06,0-.12-.04-.14-.1-.02-.08.02-.15.1-.17l5.05-1.39c.08-.02.15.02.17.1.02.08-.02.15-.1.17l-5.05,1.39s-.03,0-.04,0Z"/>
        </g>
        <g id="LINE-136" data-name="LINE">
          <path class="cls-1" d="M608.09,462.67s-.05,0-.08-.02l-1.5-.96c-.07-.04-.09-.13-.04-.2.04-.07.13-.09.2-.04l1.5.96c.07.04.09.13.04.2-.03.04-.07.07-.12.07Z"/>
        </g>
        <g id="LINE-137" data-name="LINE">
          <path class="cls-1" d="M598.18,456.34s-.05,0-.08-.02l-69.65-44.48c-.07-.04-.09-.13-.04-.2.04-.07.13-.09.2-.04l69.65,44.48c.07.04.09.13.04.2-.03.04-.07.07-.12.07Z"/>
        </g>
        <g id="LINE-138" data-name="LINE">
          <path class="cls-1" d="M528.42,417.4h0c-.08,0-.14-.07-.14-.14l.11-5.54c0-.08.06-.15.14-.14.08,0,.14.07.14.14l-.11,5.54c0,.08-.06.14-.14.14Z"/>
        </g>
        <g id="LINE-139" data-name="LINE">
          <path class="cls-1" d="M685.27,441.45s-.05,0-.08-.02l-73.53-46.96c-.07-.04-.09-.13-.04-.2.04-.07.13-.09.2-.04l73.53,46.96c.07.04.09.13.04.2-.03.04-.07.07-.12.07Z"/>
        </g>
        <g id="LINE-140" data-name="LINE">
          <path class="cls-1" d="M696.46,438.38s-.05,0-.08-.02l-79.56-50.81c-.07-.04-.09-.13-.04-.2.04-.07.13-.09.2-.04l79.56,50.81c.07.04.09.13.04.2-.03.04-.07.07-.12.07Z"/>
        </g>
        <g id="LINE-141" data-name="LINE">
          <path class="cls-1" d="M691.41,439.76c-.06,0-.12-.04-.14-.1-.02-.08.02-.15.1-.17l5.05-1.39c.08-.02.15.02.17.1.02.08-.02.15-.1.17l-5.05,1.39s-.03,0-.04,0Z"/>
        </g>
        <g id="LINE-142" data-name="LINE">
          <path class="cls-1" d="M611.85,388.95c-.06,0-.12-.04-.14-.1-.02-.08.02-.15.1-.17l5.05-1.39c.08-.02.15.02.17.1.02.08-.02.15-.1.17l-5.05,1.39s-.03,0-.04,0Z"/>
        </g>
        <g id="LINE-143" data-name="LINE">
          <path class="cls-1" d="M691.41,439.76s-.05,0-.08-.02l-79.56-50.81c-.07-.04-.09-.13-.04-.2.04-.07.13-.09.2-.04l79.56,50.81c.07.04.09.13.04.2-.03.04-.07.07-.12.07Z"/>
        </g>
        <g id="LINE-144" data-name="LINE">
          <path class="cls-1" d="M611.74,394.49h0c-.08,0-.14-.07-.14-.14l.11-5.54c0-.08.06-.14.14-.14.08,0,.14.07.14.14l-.11,5.54c0,.08-.06.14-.14.14Z"/>
        </g>
        <g id="LINE-145" data-name="LINE">
          <path class="cls-1" d="M600.03,366.46s-.05,0-.08-.02l-79.56-50.81c-.07-.04-.09-.13-.04-.2.04-.07.13-.09.2-.04l79.56,50.81c.07.04.09.13.04.2-.03.04-.07.07-.12.07Z"/>
        </g>
        <g id="LINE-146" data-name="LINE">
          <path class="cls-1" d="M605.2,359.53s-.05,0-.08-.02l-79.56-50.81c-.07-.04-.09-.13-.04-.2.04-.07.13-.09.2-.04l79.56,50.81c.07.04.09.13.04.2-.03.04-.07.07-.12.07Z"/>
        </g>
        <g id="LINE-147" data-name="LINE">
          <path class="cls-1" d="M600.15,360.92c-.06,0-.12-.04-.14-.1-.02-.08.02-.15.1-.17l5.05-1.39c.08-.02.15.02.17.1.02.08-.02.15-.1.17l-5.05,1.39s-.03,0-.04,0Z"/>
        </g>
        <g id="LINE-148" data-name="LINE">
          <path class="cls-1" d="M520.59,310.11c-.06,0-.12-.04-.14-.1-.02-.08.02-.15.1-.17l5.05-1.39c.08-.02.15.02.17.1.02.08-.02.15-.1.17l-5.05,1.39s-.03,0-.04,0Z"/>
        </g>
        <g id="LINE-149" data-name="LINE">
          <path class="cls-1" d="M600.15,360.92s-.05,0-.08-.02l-79.56-50.81c-.07-.04-.09-.13-.04-.2.04-.07.13-.09.2-.04l79.56,50.81c.07.04.09.13.04.2-.03.04-.07.07-.12.07Z"/>
        </g>
        <g id="LINE-150" data-name="LINE">
          <path class="cls-1" d="M600.03,366.46h0c-.08,0-.14-.07-.14-.14l.11-5.54c0-.08.06-.14.14-.14h0c.08,0,.14.07.14.14l-.11,5.54c0,.08-.06.14-.14.14Z"/>
        </g>
        <g id="LINE-151" data-name="LINE">
          <path class="cls-1" d="M520.48,315.65h0c-.08,0-.14-.07-.14-.14l.11-5.54c0-.08.06-.14.14-.14h0c.08,0,.14.07.14.14l-.11,5.54c0,.08-.06.14-.14.14Z"/>
        </g>
        <g id="LINE-152" data-name="LINE">
          <path class="cls-1" d="M504.18,465.5s-.05,0-.08-.02l-3.46-2.21c-.07-.04-.09-.13-.04-.2.04-.07.13-.09.2-.04l3.46,2.21c.07.04.09.13.04.2-.03.04-.07.07-.12.07Z"/>
        </g>
        <g id="LINE-153" data-name="LINE">
          <path class="cls-1" d="M500.6,468.83h0c-.08,0-.14-.07-.14-.14l.11-5.54c0-.08.06-.14.14-.14h0c.08,0,.14.07.14.14l-.11,5.54c0,.08-.06.14-.14.14Z"/>
        </g>
        <g id="LINE-154" data-name="LINE">
          <path class="cls-1" d="M504.06,471.04s-.05,0-.08-.02l-3.46-2.21c-.07-.04-.09-.13-.04-.2.04-.07.13-.09.2-.04l3.46,2.21c.07.04.09.13.04.2-.03.04-.07.07-.12.07Z"/>
        </g>
        <g id="LINE-155" data-name="LINE">
          <path class="cls-1" d="M504.06,471.04h0c-.08,0-.14-.07-.14-.14l.11-5.54c0-.08.06-.14.14-.14h0c.08,0,.14.07.14.14l-.11,5.54c0,.08-.06.14-.14.14Z"/>
        </g>
        <g id="LINE-156" data-name="LINE">
          <path class="cls-1" d="M500.72,463.29c-.06,0-.12-.04-.14-.1-.02-.08.02-.15.1-.17l75.74-20.82c.08-.02.15.02.17.1.02.08-.02.15-.1.17l-75.74,20.82s-.03,0-.04,0Z"/>
        </g>
        <g id="LINE-157" data-name="LINE">
          <path class="cls-1" d="M504.18,465.5c-.06,0-.12-.04-.14-.1-.02-.08.02-.15.1-.17l75.74-20.82c.08-.02.15.02.17.1.02.08-.02.15-.1.17l-75.74,20.82s-.03,0-.04,0Z"/>
        </g>
        <g id="LINE-158" data-name="LINE">
          <path class="cls-1" d="M579.92,444.68s-.05,0-.08-.02l-3.46-2.21c-.07-.04-.09-.13-.04-.2.04-.07.13-.09.2-.04l3.46,2.21c.07.04.09.13.04.2-.03.04-.07.07-.12.07Z"/>
        </g>
        <g id="LINE-159" data-name="LINE">
          <path class="cls-1" d="M504.06,471.04c-.06,0-.12-.04-.14-.1-.02-.08.02-.15.1-.17l75.74-20.82c.08-.02.15.02.17.1.02.08-.02.15-.1.17l-75.74,20.82s-.03,0-.04,0Z"/>
        </g>
        <g id="LINE-160" data-name="LINE">
          <path class="cls-1" d="M579.81,450.21h0c-.08,0-.14-.07-.14-.14l.11-5.54c0-.08.06-.14.14-.14h0c.08,0,.14.07.14.14l-.11,5.54c0,.08-.06.14-.14.14Z"/>
        </g>
        <g id="LINE-161" data-name="LINE">
          <path class="cls-1" d="M484.42,452.88s-.05,0-.08-.02l-3.46-2.21c-.07-.04-.09-.13-.04-.2.04-.07.13-.09.2-.04l3.46,2.21c.07.04.09.13.04.2-.03.04-.07.07-.12.07Z"/>
        </g>
        <g id="LINE-162" data-name="LINE">
          <path class="cls-1" d="M480.85,456.21h0c-.08,0-.14-.07-.14-.14l.11-5.54c0-.08.05-.14.14-.14.08,0,.14.07.14.14l-.11,5.54c0,.08-.06.14-.14.14Z"/>
        </g>
        <g id="LINE-163" data-name="LINE">
          <path class="cls-1" d="M484.31,458.42s-.05,0-.08-.02l-3.46-2.21c-.07-.04-.09-.13-.04-.2.04-.07.13-.09.2-.04l3.46,2.21c.07.04.09.13.04.2-.03.04-.07.07-.12.07Z"/>
        </g>
        <g id="LINE-164" data-name="LINE">
          <path class="cls-1" d="M484.31,458.42h0c-.08,0-.14-.07-.14-.14l.11-5.54c0-.08.06-.14.14-.14h0c.08,0,.14.07.14.14l-.11,5.54c0,.08-.06.14-.14.14Z"/>
        </g>
        <g id="LINE-165" data-name="LINE">
          <path class="cls-1" d="M480.97,450.67c-.06,0-.12-.04-.14-.1-.02-.08.02-.15.1-.17l75.74-20.82c.08-.02.15.02.17.1.02.08-.02.15-.1.17l-75.74,20.82s-.03,0-.04,0Z"/>
        </g>
        <g id="LINE-166" data-name="LINE">
          <path class="cls-1" d="M484.42,452.88c-.06,0-.12-.04-.14-.1-.02-.08.02-.15.1-.17l75.74-20.82c.08-.02.15.02.17.1.02.08-.02.15-.1.17l-75.74,20.82s-.03,0-.04,0Z"/>
        </g>
        <g id="LINE-167" data-name="LINE">
          <path class="cls-1" d="M560.17,432.06s-.05,0-.08-.02l-3.46-2.21c-.07-.04-.09-.13-.04-.2.04-.07.13-.09.2-.04l3.46,2.21c.07.04.09.13.04.2-.03.04-.07.07-.12.07Z"/>
        </g>
        <g id="LINE-168" data-name="LINE">
          <path class="cls-1" d="M495.5,455.34c-.06,0-.12-.04-.14-.1-.02-.08.02-.15.1-.17l64.55-17.75c.08-.02.15.02.17.1.02.08-.02.15-.1.17l-64.55,17.75s-.03,0-.04,0Z"/>
        </g>
        <g id="LINE-169" data-name="LINE">
          <path class="cls-1" d="M484.31,458.42c-.06,0-.11-.03-.13-.09-.03-.07,0-.16.08-.18.07-.03.16,0,.19.08.03.07,0,.15-.08.18h0s-.04.01-.05.01Z"/>
        </g>
        <g id="LINE-170" data-name="LINE">
          <path class="cls-1" d="M560.05,437.6h0c-.08,0-.14-.07-.14-.14l.11-5.54c0-.08.06-.14.14-.14h0c.08,0,.14.07.14.14l-.11,5.54c0,.08-.06.14-.14.14Z"/>
        </g>
        <g id="LINE-171" data-name="LINE">
          <path class="cls-1" d="M610.4,472.36h0c-.08,0-.14-.07-.14-.14l.03-1.67c0-.08.07-.16.14-.14.08,0,.14.07.14.14l-.03,1.67c0,.08-.06.14-.14.14Z"/>
        </g>
        <g id="LINE-172" data-name="LINE">
          <path class="cls-1" d="M613.86,474.57s-.05,0-.08-.02l-3.46-2.21c-.07-.04-.09-.13-.04-.2.04-.07.13-.09.2-.04l3.46,2.21c.07.04.09.13.04.2-.03.04-.07.07-.12.07Z"/>
        </g>
        <g id="LINE-173" data-name="LINE">
          <path class="cls-1" d="M613.86,474.57h0c-.08,0-.14-.07-.14-.14l.1-4.84c0-.08.06-.13.14-.14.08,0,.14.07.14.14l-.1,4.84c0,.08-.06.14-.14.14Z"/>
        </g>
        <g id="LINE-174" data-name="LINE">
          <path class="cls-1" d="M613.96,469.72c-.06,0-.12-.04-.14-.1-.02-.08.02-.15.1-.17l5.05-1.39c.08-.02.15.02.17.1.02.08-.02.15-.1.17l-5.05,1.39s-.03,0-.04,0Z"/>
        </g>
        <g id="LINE-175" data-name="LINE">
          <path class="cls-1" d="M613.86,474.57c-.06,0-.12-.04-.14-.1-.02-.08.02-.15.1-.17l5.05-1.39c.08-.02.15.02.17.1.02.08-.02.15-.1.17l-5.05,1.39s-.03,0-.04,0Z"/>
        </g>
        <g id="LINE-176" data-name="LINE">
          <path class="cls-1" d="M618.91,473.18h0c-.08,0-.14-.07-.14-.14l.1-4.85c0-.08.05-.14.14-.14.08,0,.14.07.14.14l-.1,4.85c0,.08-.06.14-.14.14Z"/>
        </g>
        <g id="LINE-177" data-name="LINE">
          <path class="cls-1" d="M717.37,446.11h0c-.08,0-.14-.07-.14-.14l.1-4.85c0-.08.06-.14.14-.14h0c.08,0,.14.07.14.14l-.1,4.85c0,.08-.06.14-.14.14Z"/>
        </g>
        <g id="LINE-178" data-name="LINE">
          <path class="cls-1" d="M708.86,445.29h0c-.08,0-.14-.07-.14-.14l.03-1.67c0-.08.06-.14.14-.14h0c.08,0,.14.07.14.14l-.03,1.67c0,.08-.06.14-.14.14Z"/>
        </g>
        <g id="LINE-179" data-name="LINE">
          <path class="cls-1" d="M712.32,447.5s-.05,0-.08-.02l-3.46-2.21c-.07-.04-.09-.13-.04-.2s.13-.09.2-.04l3.46,2.21c.07.04.09.13.04.2-.03.04-.07.07-.12.07Z"/>
        </g>
        <g id="LINE-180" data-name="LINE">
          <path class="cls-1" d="M712.32,447.5h0c-.08,0-.14-.07-.14-.14l.1-4.85c0-.08.06-.14.14-.14h0c.08,0,.14.07.14.14l-.1,4.85c0,.08-.06.14-.14.14Z"/>
        </g>
        <g id="LINE-181" data-name="LINE">
          <path class="cls-1" d="M712.42,442.65c-.06,0-.12-.04-.14-.1-.02-.08.02-.15.1-.17l5.05-1.39c.08-.02.15.02.17.1.02.08-.02.15-.1.17l-5.05,1.39s-.03,0-.04,0Z"/>
        </g>
        <g id="LINE-182" data-name="LINE">
          <path class="cls-1" d="M712.32,447.5c-.06,0-.12-.04-.14-.1-.02-.08.02-.15.1-.17l5.05-1.39c.08-.02.15.02.17.1.02.08-.02.15-.1.17l-5.05,1.39s-.03,0-.04,0Z"/>
        </g>
        <g id="LINE-183" data-name="LINE">
          <path class="cls-1" d="M527.39,419.34h0c-.08,0-.14-.07-.14-.14l.03-1.67c0-.08.06-.14.14-.14h0c.08,0,.14.07.14.14l-.03,1.67c0,.08-.06.14-.14.14Z"/>
        </g>
        <g id="LINE-184" data-name="LINE">
          <path class="cls-1" d="M530.85,421.55s-.05,0-.08-.02l-3.46-2.21c-.07-.04-.09-.13-.04-.2.04-.07.13-.09.2-.04l3.46,2.21c.07.04.09.13.04.2-.03.04-.07.07-.12.07Z"/>
        </g>
        <g id="LINE-185" data-name="LINE">
          <path class="cls-1" d="M530.85,421.55h0c-.08,0-.14-.07-.14-.14l.05-2.57c0-.08.06-.14.14-.14h0c.08,0,.14.07.14.14l-.05,2.57c0,.08-.06.14-.14.14Z"/>
        </g>
        <g id="LINE-186" data-name="LINE">
          <path class="cls-1" d="M530.85,421.55c-.06,0-.12-.04-.14-.1-.02-.08.02-.15.1-.17l2.85-.78c.08-.02.15.02.17.1.02.08-.02.15-.1.17l-2.85.78s-.03,0-.04,0Z"/>
        </g>
        <g id="LINE-187" data-name="LINE">
          <path class="cls-1" d="M634.35,393.09h0c-.08,0-.14-.07-.14-.14l.1-4.85c0-.08.08-.13.14-.14.08,0,.14.07.14.14l-.1,4.85c0,.08-.06.14-.14.14Z"/>
        </g>
        <g id="LINE-188" data-name="LINE">
          <path class="cls-1" d="M629.4,389.63c-.06,0-.12-.04-.14-.1-.02-.08.02-.15.1-.17l5.05-1.39c.08-.02.15.02.17.1.02.08-.02.15-.1.17l-5.05,1.39s-.03,0-.04,0Z"/>
        </g>
        <g id="LINE-189" data-name="LINE">
          <path class="cls-1" d="M629.3,394.48h0c-.08,0-.14-.07-.14-.14l.1-4.84c0-.08.06-.14.14-.14h0c.08,0,.14.07.14.14l-.1,4.84c0,.08-.06.14-.14.14Z"/>
        </g>
        <g id="LINE-190" data-name="LINE">
          <path class="cls-1" d="M629.3,394.48c-.06,0-.12-.04-.14-.1-.02-.08.02-.15.1-.17l5.05-1.39c.08-.02.15.02.17.1.02.08-.02.15-.1.17l-5.05,1.39s-.03,0-.04,0Z"/>
        </g>
        <g id="LINE-191" data-name="LINE">
          <path class="cls-1" d="M625.85,392.27h0c-.08,0-.14-.07-.14-.14l.03-1.67c0-.08.06-.15.14-.14.08,0,.14.07.14.14l-.03,1.67c0,.08-.06.14-.14.14Z"/>
        </g>
        <g id="LINE-192" data-name="LINE">
          <path class="cls-1" d="M629.3,394.48s-.05,0-.08-.02l-3.46-2.21c-.07-.04-.09-.13-.04-.2.04-.07.13-.09.2-.04l3.46,2.21c.07.04.09.13.04.2-.03.04-.07.07-.12.07Z"/>
        </g>
        <g id="LINE-193" data-name="LINE">
          <path class="cls-1" d="M504.06,471.04s-.05,0-.08-.02l-3.46-2.21c-.07-.04-.09-.13-.04-.2.04-.07.13-.09.2-.04l3.46,2.21c.07.04.09.13.04.2-.03.04-.07.07-.12.07Z"/>
        </g>
        <g id="LINE-194" data-name="LINE">
          <path class="cls-1" d="M500.51,473.67h0c-.08,0-.14-.07-.14-.14l.1-4.85c0-.08.06-.14.14-.14h0c.08,0,.14.07.14.14l-.1,4.85c0,.08-.06.14-.14.14Z"/>
        </g>
        <g id="LINE-195" data-name="LINE">
          <path class="cls-1" d="M503.96,475.88s-.05,0-.08-.02l-3.46-2.21c-.07-.04-.09-.13-.04-.2.04-.07.13-.09.2-.04l3.46,2.21c.07.04.09.13.04.2-.03.04-.07.07-.12.07Z"/>
        </g>
        <g id="LINE-196" data-name="LINE">
          <path class="cls-1" d="M503.96,475.88h0c-.08,0-.14-.07-.14-.14l.1-4.85c0-.08.06-.14.14-.14h0c.08,0,.14.07.14.14l-.1,4.85c0,.08-.06.14-.14.14Z"/>
        </g>
        <g id="LINE-197" data-name="LINE">
          <path class="cls-1" d="M509.01,474.49h0c-.08,0-.14-.07-.14-.14l.1-4.85c0-.08.07-.13.14-.14.08,0,.14.07.14.14l-.1,4.85c0,.08-.06.14-.14.14Z"/>
        </g>
        <g id="LINE-198" data-name="LINE">
          <path class="cls-1" d="M504.06,471.04c-.06,0-.12-.04-.14-.1-.02-.08.02-.15.1-.17l5.05-1.39c.08-.02.15.02.17.1.02.08-.02.15-.1.17l-5.05,1.39s-.03,0-.04,0Z"/>
        </g>
        <g id="LINE-199" data-name="LINE">
          <path class="cls-1" d="M503.96,475.88c-.06,0-.12-.04-.14-.1-.02-.08.02-.15.1-.17l5.05-1.39c.08-.02.15.02.17.1.02.08-.02.15-.1.17l-5.05,1.39s-.03,0-.04,0Z"/>
        </g>
        <g id="LINE-200" data-name="LINE">
          <path class="cls-1" d="M484.31,458.42s-.05,0-.08-.02l-3.46-2.21c-.07-.04-.09-.13-.04-.2.04-.07.13-.09.2-.04l3.46,2.21c.07.04.09.13.04.2-.03.04-.07.07-.12.07Z"/>
        </g>
        <g id="LINE-201" data-name="LINE">
          <path class="cls-1" d="M480.75,461.06h0c-.08,0-.14-.07-.14-.14l.1-4.85c0-.08.06-.14.14-.14h0c.08,0,.14.07.14.14l-.1,4.85c0,.08-.06.14-.14.14Z"/>
        </g>
        <g id="LINE-202" data-name="LINE">
          <path class="cls-1" d="M484.21,463.27s-.05,0-.08-.02l-3.46-2.21c-.07-.04-.09-.13-.04-.2.04-.07.13-.09.2-.04l3.46,2.21c.07.04.09.13.04.2-.03.04-.07.07-.12.07Z"/>
        </g>
        <g id="LINE-203" data-name="LINE">
          <path class="cls-1" d="M484.21,463.27h0c-.08,0-.14-.07-.14-.14l.1-4.85c0-.08.06-.15.14-.14.08,0,.14.07.14.14l-.1,4.85c0,.08-.06.14-.14.14Z"/>
        </g>
        <g id="LINE-204" data-name="LINE">
          <path class="cls-1" d="M489.26,461.88h0c-.08,0-.14-.07-.14-.14v-.29c0-.08.07-.14.15-.14h0c.08,0,.14.07.14.14v.29c0,.08-.07.14-.15.14Z"/>
        </g>
        <g id="LINE-205" data-name="LINE">
          <path class="cls-1" d="M484.31,458.42c-.06,0-.11-.03-.13-.09-.03-.07,0-.16.08-.18.07-.03.16,0,.19.08.03.07,0,.15-.08.18h0s-.04.01-.05.01Z"/>
        </g>
        <g id="LINE-206" data-name="LINE">
          <path class="cls-1" d="M484.21,463.27c-.06,0-.12-.04-.14-.1-.02-.08.02-.15.1-.17l5.05-1.39c.08-.02.15.02.17.1.02.08-.02.15-.1.17l-5.05,1.39s-.03,0-.04,0Z"/>
        </g>
        <g id="LINE-207" data-name="LINE">
          <path class="cls-1" d="M724.67,335.35h0c-.08,0-.14-.07-.14-.14l.11-5.54c0-.08.06-.14.14-.14.08,0,.14.07.14.14l-.11,5.54c0,.08-.06.14-.14.14Z"/>
        </g>
        <g id="LINE-208" data-name="LINE">
          <path class="cls-1" d="M724.79,329.81s-.05,0-.08-.02l-3.46-2.21c-.07-.04-.09-.13-.04-.2.04-.07.13-.09.2-.04l3.46,2.21c.07.04.09.13.04.2-.03.04-.07.07-.12.07Z"/>
        </g>
        <g id="LINE-209" data-name="LINE">
          <path class="cls-1" d="M600.03,366.46h0c-.08,0-.14-.07-.14-.14l.11-5.54c0-.08.06-.14.14-.14h0c.08,0,.14.07.14.14l-.11,5.54c0,.08-.06.14-.14.14Z"/>
        </g>
        <g id="LINE-210" data-name="LINE">
          <path class="cls-1" d="M600.15,360.92c-.06,0-.12-.04-.14-.1-.02-.08.02-.15.1-.17l121.18-33.32c.08-.02.15.02.17.1.02.08-.02.15-.1.17l-121.18,33.32s-.03,0-.04,0Z"/>
        </g>
        <g id="LINE-211" data-name="LINE">
          <path class="cls-1" d="M603.61,363.13s-.05,0-.08-.02l-3.46-2.21c-.07-.04-.09-.13-.04-.2.04-.07.13-.09.2-.04l3.46,2.21c.07.04.09.13.04.2-.03.04-.07.07-.12.07Z"/>
        </g>
        <g id="LINE-212" data-name="LINE">
          <path class="cls-1" d="M603.61,363.13c-.06,0-.12-.04-.14-.1-.02-.08.02-.15.1-.17l121.18-33.32c.08-.02.15.02.17.1.02.08-.02.15-.1.17l-121.18,33.32s-.03,0-.04,0Z"/>
        </g>
        <g id="LINE-213" data-name="LINE">
          <path class="cls-1" d="M603.49,368.67h0c-.08,0-.14-.07-.14-.14l.11-5.54c0-.08.06-.14.14-.14h0c.08,0,.14.07.14.14l-.11,5.54c0,.08-.06.14-.14.14Z"/>
        </g>
        <g id="LINE-214" data-name="LINE">
          <path class="cls-1" d="M603.49,368.67c-.06,0-.12-.04-.14-.1-.02-.08.02-.15.1-.17l121.18-33.32c.08-.02.15.02.17.1.02.08-.02.15-.1.17l-121.18,33.32s-.03,0-.04,0Z"/>
        </g>
        <g id="LINE-215" data-name="LINE">
          <path class="cls-1" d="M603.49,368.67s-.05,0-.08-.02l-3.46-2.21c-.07-.04-.09-.13-.04-.2.04-.07.13-.09.2-.04l3.46,2.21c.07.04.09.13.04.2-.03.04-.07.07-.12.07Z"/>
        </g>
        <g id="LINE-216" data-name="LINE">
          <path class="cls-1" d="M641.77,276.79s-.05,0-.08-.02l-3.46-2.21c-.07-.04-.09-.13-.04-.2.04-.07.13-.09.2-.04l3.46,2.21c.07.04.09.13.04.2-.03.04-.07.07-.12.07Z"/>
        </g>
        <g id="LINE-217" data-name="LINE">
          <path class="cls-1" d="M641.66,282.33h0c-.08,0-.14-.07-.14-.14l.11-5.54c0-.08.06-.14.14-.14h0c.08,0,.14.07.14.14l-.11,5.54c0,.08-.06.14-.14.14Z"/>
        </g>
        <g id="LINE-218" data-name="LINE">
          <path class="cls-1" d="M517.02,313.44h0c-.08,0-.14-.07-.14-.14l.11-5.54c0-.08.06-.14.14-.14h0c.08,0,.14.07.14.14l-.11,5.54c0,.08-.06.14-.14.14Z"/>
        </g>
        <g id="LINE-219" data-name="LINE">
          <path class="cls-1" d="M517.13,307.9c-.06,0-.12-.04-.14-.1-.02-.08.02-.15.1-.17l121.18-33.32c.08-.02.15.02.17.1.02.08-.02.15-.1.17l-121.18,33.32s-.03,0-.04,0Z"/>
        </g>
        <g id="LINE-220" data-name="LINE">
          <path class="cls-1" d="M531.67,312.57c-.06,0-.12-.04-.14-.1-.02-.08.02-.15.1-.17l109.99-30.24c.08-.02.15.02.17.1.02.08-.02.15-.1.17l-109.99,30.24s-.03,0-.04,0Z"/>
        </g>
        <g id="LINE-221" data-name="LINE">
          <path class="cls-1" d="M520.48,315.65s-.05,0-.08-.02l-3.46-2.21c-.07-.04-.09-.13-.04-.2.04-.07.13-.09.2-.04l3.46,2.21c.07.04.09.13.04.2-.03.04-.07.07-.12.07Z"/>
        </g>
        <g id="LINE-222" data-name="LINE">
          <path class="cls-1" d="M520.59,310.11c-.06,0-.12-.04-.14-.1-.02-.08.02-.15.1-.17l121.18-33.32c.08-.02.15.02.17.1.02.08-.02.15-.1.17l-121.18,33.32s-.03,0-.04,0Z"/>
        </g>
        <g id="LINE-223" data-name="LINE">
          <path class="cls-1" d="M520.48,315.65h0c-.08,0-.14-.07-.14-.14l.11-5.54c0-.08.06-.14.14-.14h0c.08,0,.14.07.14.14l-.11,5.54c0,.08-.06.14-.14.14Z"/>
        </g>
        <g id="LINE-224" data-name="LINE">
          <path class="cls-1" d="M520.59,310.11s-.05,0-.08-.02l-3.46-2.21c-.07-.04-.09-.13-.04-.2.04-.07.13-.09.2-.04l3.46,2.21c.07.04.09.13.04.2-.03.04-.07.07-.12.07Z"/>
        </g>
        <g id="LINE-225" data-name="LINE">
          <path class="cls-1" d="M484.31,458.42h0c-.08,0-.14-.07-.14-.14l.11-5.54c0-.08.06-.14.14-.14h0c.08,0,.14.07.14.14l-.11,5.54c0,.08-.06.14-.14.14Z"/>
        </g>
        <g id="LINE-226" data-name="LINE">
          <path class="cls-1" d="M484.43,452.88c-.06,0-.12-.04-.14-.1-.02-.08.02-.15.1-.17l5.05-1.39c.08-.02.15.02.17.1.02.08-.02.15-.1.17l-5.05,1.39s-.03,0-.04,0Z"/>
        </g>
        <g id="LINE-227" data-name="LINE">
          <path class="cls-1" d="M500.6,468.83s-.05,0-.08-.02l-16.29-10.41c-.07-.04-.09-.13-.04-.2s.13-.09.2-.04l16.29,10.41c.07.04.09.13.04.2-.03.04-.07.07-.12.07Z"/>
        </g>
        <g id="LINE-228" data-name="LINE">
          <path class="cls-1" d="M500.6,468.83h0c-.08,0-.14-.07-.14-.14l.11-5.54c0-.08.06-.14.14-.14h0c.08,0,.14.07.14.14l-.11,5.54c0,.08-.06.14-.14.14Z"/>
        </g>
        <g id="LINE-229" data-name="LINE">
          <path class="cls-1" d="M500.72,463.29c-.06,0-.12-.04-.14-.1-.02-.08.02-.15.1-.17l5.05-1.39c.08-.02.15.02.17.1.02.08-.02.15-.1.17l-5.05,1.39s-.03,0-.04,0Z"/>
        </g>
        <g id="LINE-230" data-name="LINE">
          <path class="cls-1" d="M500.72,463.29s-.05,0-.08-.02l-16.29-10.41c-.07-.04-.09-.13-.04-.2.04-.07.13-.09.2-.04l16.29,10.41c.07.04.09.13.04.2-.03.04-.07.07-.12.07Z"/>
        </g>
        <g id="LINE-231" data-name="LINE">
          <path class="cls-1" d="M505.77,461.9s-.05,0-.08-.02l-16.29-10.41c-.07-.04-.09-.13-.04-.2.04-.07.13-.09.2-.04l16.29,10.41c.07.04.09.13.04.2-.03.04-.07.07-.12.07Z"/>
        </g>
      </g>
    </g>
    <path class="cls-1" d="M349.35,187.63c-.07,0-.13-.05-.14-.12-.01-.08.04-.15.11-.17l93.48-17.61c.08,0,.15.04.17.11s-.04.15-.11.17l-93.48,17.61s-.02,0-.03,0Z"/>
    <path class="cls-1" d="M303.23,384.8s-.03,0-.04,0l-100.05-27.86c-.08-.02-.12-.1-.1-.17.02-.08.1-.12.17-.1l100.05,27.86c.08.02.12.1.1.17-.02.06-.07.1-.14.1Z"/>
    <path class="cls-1" d="M215.37,635.58c-.07,0-.13-.05-.14-.12-.01-.08.04-.15.12-.16l135.48-19.57c.09,0,.15.04.16.12.01.08-.04.15-.12.16l-135.48,19.57s-.01,0-.02,0Z"/>
    <path class="cls-1" d="M486.95,329.81s-.03,0-.04,0l-312.45-89.1c-.08-.02-.12-.1-.1-.18s.1-.11.18-.1l312.45,89.1c.08.02.12.1.1.18-.02.06-.07.1-.14.1Z"/>
  </g>
  <g>
    <g id="DIMENSION">
      <g id="LINE-232" data-name="LINE">
        <path class="cls-1" d="M1185.37,540.15h-44.72c-.07,0-.12-.06-.12-.12s.06-.12.12-.12h44.72c.07,0,.12.06.12.12s-.06.12-.12.12Z"/>
      </g>
      <g id="LINE-233" data-name="LINE">
        <path class="cls-1" d="M1185.37,204.75h-44.72c-.07,0-.12-.06-.12-.12s.06-.12.12-.12h44.72c.07,0,.12.06.12.12s-.06.12-.12.12Z"/>
      </g>
      <g id="LINE-234" data-name="LINE">
        <g>
          <path class="cls-1" d="M1181.02,530.9c-.07,0-.12-.06-.12-.12v-151.54c0-.07.06-.12.12-.12s.12.06.12.12v151.54c0,.07-.06.12-.12.12Z"/>
          <polygon class="cls-1" points="1182.27 530.41 1181.02 532.57 1179.78 530.41 1182.27 530.41"/>
        </g>
      </g>
      <g id="LINE-235" data-name="LINE">
        <g>
          <path class="cls-1" d="M1181.02,365.54c-.07,0-.12-.06-.12-.12v-151.54c0-.07.06-.12.12-.12s.12.06.12.12v151.54c0,.07-.06.12-.12.12Z"/>
          <polygon class="cls-1" points="1179.78 214.23 1181.02 212.07 1182.27 214.23 1179.78 214.23"/>
        </g>
      </g>
      <g id="MTEXT">
        <g>
          <path class="cls-1" d="M1178.82,375.99h-.92v-5.9c-.22.21-.52.42-.88.64-.36.21-.69.37-.97.48v-.89c.52-.24.97-.54,1.36-.88.39-.35.66-.68.82-1.01h.6v7.57Z"/>
          <path class="cls-1" d="M1182.61,371.9c-.38-.14-.67-.34-.85-.6-.19-.26-.28-.57-.28-.94,0-.55.2-1.01.59-1.38.39-.37.92-.56,1.57-.56s1.19.19,1.59.57.6.85.6,1.4c0,.35-.09.65-.28.91s-.46.46-.83.6c.46.15.81.39,1.06.73.24.34.36.74.36,1.2,0,.64-.23,1.19-.68,1.62-.46.44-1.06.66-1.8.66s-1.34-.22-1.8-.66c-.46-.44-.68-.99-.68-1.65,0-.49.12-.9.37-1.23.25-.33.6-.56,1.06-.68ZM1182.13,373.81c0,.26.06.52.19.77s.31.44.56.57.51.2.8.2c.44,0,.81-.14,1.09-.43s.43-.65.43-1.08-.15-.81-.44-1.1c-.3-.29-.67-.44-1.11-.44s-.8.14-1.08.43c-.29.29-.43.65-.43,1.08ZM1182.42,370.33c0,.36.12.65.34.87s.53.34.89.34.65-.11.88-.34c.23-.22.34-.5.34-.83s-.12-.62-.35-.86c-.23-.23-.53-.35-.88-.35s-.65.11-.88.34c-.23.23-.35.5-.35.81Z"/>
        </g>
      </g>
    </g>
    <g id="DIMENSION-2" data-name="DIMENSION">
      <g id="LINE-236" data-name="LINE">
        <path class="cls-1" d="M1136.3,200.4c-.07,0-.12-.06-.12-.12v-44.72c0-.07.06-.12.12-.12s.12.06.12.12v44.72c0,.07-.06.12-.12.12Z"/>
      </g>
      <g id="LINE-237" data-name="LINE">
        <path class="cls-1" d="M829.62,200.4c-.07,0-.12-.06-.12-.12v-44.72c0-.07.06-.12.12-.12s.12.06.12.12v44.72c0,.07-.06.12-.12.12Z"/>
      </g>
      <g id="LINE-238" data-name="LINE">
        <g>
          <path class="cls-1" d="M1127.05,160.03h-128.76c-.07,0-.12-.06-.12-.12s.06-.12.12-.12h128.76c.07,0,.12.06.12.12s-.06.12-.12.12Z"/>
          <polygon class="cls-1" points="1126.69 158.65 1128.85 159.9 1126.69 161.15 1126.69 158.65"/>
        </g>
      </g>
      <g id="LINE-239" data-name="LINE">
        <g>
          <path class="cls-1" d="M967.63,160.03h-128.76c-.07,0-.12-.06-.12-.12s.06-.12.12-.12h128.76c.07,0,.12.06.12.12s-.06.12-.12.12Z"/>
          <polygon class="cls-1" points="839.24 161.15 837.08 159.9 839.24 158.65 839.24 161.15"/>
        </g>
      </g>
      <g id="MTEXT-2" data-name="MTEXT">
        <g>
          <path class="cls-1" d="M979.36,163.56h-.92v-5.9c-.22.21-.52.42-.88.64-.36.21-.69.37-.97.48v-.89c.52-.24.97-.54,1.36-.88.39-.35.66-.68.82-1.01h.6v7.57Z"/>
          <path class="cls-1" d="M986.53,157.87l-.92.07c-.08-.36-.2-.63-.35-.79-.25-.26-.56-.4-.93-.4-.29,0-.55.08-.78.25-.29.21-.52.52-.69.93-.17.41-.25.99-.26,1.74.22-.34.5-.59.82-.76.32-.16.66-.25,1.01-.25.62,0,1.14.23,1.58.68s.65,1.04.65,1.76c0,.47-.1.91-.31,1.32-.2.41-.48.72-.84.93s-.76.32-1.21.32c-.77,0-1.4-.28-1.89-.85-.49-.57-.73-1.5-.73-2.8,0-1.46.27-2.51.81-3.18.47-.58,1.1-.86,1.9-.86.59,0,1.08.17,1.46.5.38.33.61.79.68,1.38ZM982.75,161.12c0,.32.07.62.2.92.13.29.32.51.57.67.24.15.5.23.77.23.39,0,.73-.16,1.01-.47.28-.32.42-.74.42-1.29s-.14-.93-.42-1.23c-.28-.3-.63-.45-1.05-.45s-.77.15-1.06.45c-.29.3-.44.69-.44,1.18Z"/>
        </g>
      </g>
    </g>
    <g id="LINE-240" data-name="LINE">
      <path class="cls-1" d="M850.59,486.74c-.07,0-.12-.06-.12-.12V197.97c0-.07.06-.12.12-.12s.12.06.12.12v288.64c0,.07-.06.12-.12.12Z"/>
    </g>
    <g id="LINE-241" data-name="LINE">
      <path class="cls-1" d="M850.59,198.1c-.07,0-.12-.06-.12-.12v-.92c0-.07.06-.12.12-.12s.12.06.12.12v.92c0,.07-.06.12-.12.12Z"/>
    </g>
    <g id="LINE-242" data-name="LINE">
      <path class="cls-1" d="M1111.46,486.74h-260.87c-.07,0-.12-.06-.12-.12s.06-.12.12-.12h260.87c.07,0,.12.06.12.12s-.06.12-.12.12Z"/>
    </g>
    <g id="LINE-243" data-name="LINE">
      <path class="cls-1" d="M1111.46,486.74c-.07,0-.12-.06-.12-.12V197.97c0-.07.06-.12.12-.12s.12.06.12.12v288.64c0,.07-.06.12-.12.12Z"/>
    </g>
    <g id="LINE-244" data-name="LINE">
      <path class="cls-1" d="M1111.46,198.1c-.07,0-.12-.06-.12-.12v-.92c0-.07.06-.12.12-.12s.12.06.12.12v.92c0,.07-.06.12-.12.12Z"/>
    </g>
    <g id="LINE-245" data-name="LINE">
      <path class="cls-1" d="M1111.46,197.18h-260.87c-.07,0-.12-.06-.12-.12s.06-.12.12-.12h260.87c.07,0,.12.06.12.12s-.06.12-.12.12Z"/>
    </g>
    <g id="LINE-246" data-name="LINE">
      <path class="cls-1" d="M850.59,209.79h-15.92c-.07,0-.12-.06-.12-.12s.06-.12.12-.12h15.92c.07,0,.12.06.12.12s-.06.12-.12.12Z"/>
    </g>
    <g id="LINE-247" data-name="LINE">
      <path class="cls-1" d="M1131.25,209.79h-19.8c-.07,0-.12-.06-.12-.12s.06-.12.12-.12h19.8c.07,0,.12.06.12.12s-.06.12-.12.12Z"/>
    </g>
    <g id="LINE-248" data-name="LINE">
      <path class="cls-1" d="M834.67,209.79c-.07,0-.12-.06-.12-.12v-5.05c0-.07.06-.12.12-.12s.12.06.12.12v5.05c0,.07-.06.12-.12.12Z"/>
    </g>
    <g id="LINE-249" data-name="LINE">
      <path class="cls-1" d="M1131.25,209.79c-.07,0-.12-.06-.12-.12v-5.05c0-.07.06-.12.12-.12s.12.06.12.12v5.05c0,.07-.06.12-.12.12Z"/>
    </g>
    <g id="LINE-250" data-name="LINE">
      <path class="cls-1" d="M850.59,204.75h-15.92c-.07,0-.12-.06-.12-.12s.06-.12.12-.12h15.92c.07,0,.12.06.12.12s-.06.12-.12.12Z"/>
    </g>
    <g id="LINE-251" data-name="LINE">
      <path class="cls-1" d="M1131.25,204.75h-19.8c-.07,0-.12-.06-.12-.12s.06-.12.12-.12h19.8c.07,0,.12.06.12.12s-.06.12-.12.12Z"/>
    </g>
    <g id="LINE-252" data-name="LINE">
      <path class="cls-1" d="M834.67,535.1s-.07,0-.09-.03c-.02-.03-.04-.06-.04-.09,0-.04.02-.07.04-.09.05-.05.13-.05.18,0,.02.02.04.05.04.09,0,.03-.02.06-.04.09-.02.02-.05.03-.09.03Z"/>
    </g>
    <g id="LINE-253" data-name="LINE">
      <path class="cls-1" d="M834.67,209.79s-.06-.01-.09-.03c-.02-.03-.03-.06-.03-.09,0-.04.01-.07.03-.09.05-.05.13-.05.18,0,.02.02.04.06.04.09s-.02.06-.04.09c-.03.02-.06.03-.09.03Z"/>
    </g>
    <g id="LINE-254" data-name="LINE">
      <path class="cls-1" d="M834.67,535.1c-.07,0-.12-.06-.12-.12V209.67c0-.07.06-.12.12-.12s.12.06.12.12v325.31c0,.07-.06.12-.12.12Z"/>
    </g>
    <g id="LINE-255" data-name="LINE">
      <path class="cls-1" d="M834.67,209.79c-.07,0-.12-.06-.12-.12v-5.05c0-.07.06-.12.12-.12s.12.06.12.12v5.05c0,.07-.06.12-.12.12Z"/>
    </g>
    <g id="LINE-256" data-name="LINE">
      <path class="cls-1" d="M834.67,204.75h-5.05c-.07,0-.12-.06-.12-.12s.06-.12.12-.12h5.05c.07,0,.12.06.12.12s-.06.12-.12.12Z"/>
    </g>
    <g id="LINE-257" data-name="LINE">
      <path class="cls-1" d="M829.62,540.15c-.07,0-.12-.06-.12-.12V204.62c0-.07.06-.12.12-.12s.12.06.12.12v335.4c0,.07-.06.12-.12.12Z"/>
    </g>
    <g id="LINE-258" data-name="LINE">
      <path class="cls-1" d="M833.89,540.15h-4.27c-.07,0-.12-.06-.12-.12s.06-.12.12-.12h4.27c.07,0,.12.06.12.12s-.06.12-.12.12Z"/>
    </g>
    <g id="LINE-259" data-name="LINE">
      <path class="cls-1" d="M834.67,540.15c-.07,0-.12-.06-.12-.12v-5.05c0-.07.06-.12.12-.12s.12.06.12.12v5.05c0,.07-.06.12-.12.12Z"/>
    </g>
    <g id="LINE-260" data-name="LINE">
      <path class="cls-1" d="M1131.25,535.1s-.06,0-.08-.03c-.03-.03-.04-.06-.04-.09,0-.04,0-.07.04-.09.04-.05.13-.05.17,0,.03.02.04.05.04.09,0,.03-.01.06-.04.09-.02.02-.05.03-.09.03Z"/>
    </g>
    <g id="LINE-261" data-name="LINE">
      <path class="cls-1" d="M1131.25,535.1c-.07,0-.12-.06-.12-.12V209.67c0-.07.06-.12.12-.12s.12.06.12.12v325.31c0,.07-.06.12-.12.12Z"/>
    </g>
    <g id="LINE-262" data-name="LINE">
      <path class="cls-1" d="M1131.25,540.15c-.07,0-.12-.06-.12-.12v-5.05c0-.07.06-.12.12-.12s.12.06.12.12v5.05c0,.07-.06.12-.12.12Z"/>
    </g>
    <g id="LINE-263" data-name="LINE">
      <path class="cls-1" d="M1136.3,540.15h-5.05c-.07,0-.12-.06-.12-.12s.06-.12.12-.12h5.05c.07,0,.12.06.12.12s-.06.12-.12.12Z"/>
    </g>
    <g id="LINE-264" data-name="LINE">
      <path class="cls-1" d="M1136.3,540.15c-.07,0-.12-.06-.12-.12V204.62c0-.07.06-.12.12-.12s.12.06.12.12v335.4c0,.07-.06.12-.12.12Z"/>
    </g>
    <g id="LINE-265" data-name="LINE">
      <path class="cls-1" d="M1136.3,204.75h-5.05c-.07,0-.12-.06-.12-.12s.06-.12.12-.12h5.05c.07,0,.12.06.12.12s-.06.12-.12.12Z"/>
    </g>
    <g id="LINE-266" data-name="LINE">
      <path class="cls-1" d="M1131.25,209.79c-.07,0-.12-.06-.12-.12v-5.05c0-.07.06-.12.12-.12s.12.06.12.12v5.05c0,.07-.06.12-.12.12Z"/>
    </g>
    <g id="LINE-267" data-name="LINE">
      <path class="cls-1" d="M1131.26,209.79s-.07-.01-.09-.03c-.03-.03-.04-.06-.04-.09,0-.04,0-.07.04-.09.04-.05.13-.05.17,0,.03.02.04.05.04.09,0,.03-.01.06-.04.09-.02.02-.05.03-.08.03Z"/>
    </g>
    <g id="LINE-268" data-name="LINE">
      <path class="cls-1" d="M957.73,535.1h-123.06c-.07,0-.12-.06-.12-.12s.06-.12.12-.12h123.06c.07,0,.12.06.12.12s-.06.12-.12.12Z"/>
    </g>
    <g id="LINE-269" data-name="LINE">
      <path class="cls-1" d="M1131.25,535.1h-126.94c-.07,0-.12-.06-.12-.12s.06-.12.12-.12h126.94c.07,0,.12.06.12.12s-.06.12-.12.12Z"/>
    </g>
    <g id="LINE-270" data-name="LINE">
      <path class="cls-1" d="M834.67,540.15c-.07,0-.12-.06-.12-.12v-5.05c0-.07.06-.12.12-.12s.12.06.12.12v5.05c0,.07-.06.12-.12.12Z"/>
    </g>
    <g id="LINE-271" data-name="LINE">
      <path class="cls-1" d="M957.73,540.15h-123.84c-.07,0-.12-.06-.12-.12s.06-.12.12-.12h123.84c.07,0,.12.06.12.12s-.06.12-.12.12Z"/>
    </g>
    <g id="LINE-272" data-name="LINE">
      <path class="cls-1" d="M1131.25,540.15h-126.94c-.07,0-.12-.06-.12-.12s.06-.12.12-.12h126.94c.07,0,.12.06.12.12s-.06.12-.12.12Z"/>
    </g>
    <g id="LINE-273" data-name="LINE">
      <path class="cls-1" d="M1131.25,540.15c-.07,0-.12-.06-.12-.12v-5.05c0-.07.06-.12.12-.12s.12.06.12.12v5.05c0,.07-.06.12-.12.12Z"/>
    </g>
    <g id="LINE-274" data-name="LINE">
      <path class="cls-1" d="M1004.31,545.28h-46.58c-.07,0-.12-.06-.12-.12s.06-.12.12-.12h46.58c.07,0,.12.06.12.12s-.06.12-.12.12Z"/>
    </g>
    <g id="LINE-275" data-name="LINE">
      <path class="cls-1" d="M957.73,545.28c-.07,0-.12-.06-.12-.12v-58.54c0-.07.06-.12.12-.12s.12.06.12.12v58.54c0,.07-.06.12-.12.12Z"/>
    </g>
    <g id="LINE-276" data-name="LINE">
      <path class="cls-1" d="M1004.31,545.28c-.07,0-.12-.06-.12-.12v-58.54c0-.07.06-.12.12-.12s.12.06.12.12v58.54c0,.07-.06.12-.12.12Z"/>
    </g>
    <g id="LINE-277" data-name="LINE">
      <path class="cls-1" d="M1004.31,603.72h-46.58c-.07,0-.12-.06-.12-.12s.06-.12.12-.12h46.58c.07,0,.12.06.12.12s-.06.12-.12.12Z"/>
    </g>
    <g id="LINE-278" data-name="LINE">
      <path class="cls-1" d="M1004.31,545.28h-46.58c-.07,0-.12-.06-.12-.12s.06-.12.12-.12h46.58c.07,0,.12.06.12.12s-.06.12-.12.12Z"/>
    </g>
    <g id="LINE-279" data-name="LINE">
      <path class="cls-1" d="M1004.31,603.72c-.07,0-.12-.06-.12-.12v-58.44c0-.07.06-.12.12-.12s.12.06.12.12v58.44c0,.07-.06.12-.12.12Z"/>
    </g>
    <g id="LINE-280" data-name="LINE">
      <path class="cls-1" d="M957.73,603.72c-.07,0-.12-.06-.12-.12v-58.44c0-.07.06-.12.12-.12s.12.06.12.12v58.44c0,.07-.06.12-.12.12Z"/>
    </g>
  </g>
  <g>
    <g id="DIMENSION-3" data-name="DIMENSION">
      <g id="LINE-281" data-name="LINE">
        <path class="cls-1" d="M1523.75,164.17h-44.33c-.07,0-.12-.06-.12-.12s.06-.12.12-.12h44.33c.07,0,.12.06.12.12s-.06.12-.12.12Z"/>
      </g>
      <g id="LINE-282" data-name="LINE">
        <path class="cls-1" d="M1523.75,336.27h-23.71c-.07,0-.12-.06-.12-.12s.06-.12.12-.12h23.71c.07,0,.12.06.12.12s-.06.12-.12.12Z"/>
      </g>
      <g id="LINE-283" data-name="LINE">
        <g>
          <path class="cls-1" d="M1520.2,244.57c-.07,0-.12-.06-.12-.12v-72.52c0-.07.06-.12.12-.12s.12.06.12.12v72.52c0,.07-.06.12-.12.12Z"/>
          <polygon class="cls-1" points="1518.95 172.3 1520.2 170.14 1521.44 172.3 1518.95 172.3"/>
        </g>
      </g>
      <g id="LINE-284" data-name="LINE">
        <g>
          <path class="cls-1" d="M1520.2,328.39c-.07,0-.12-.06-.12-.12v-72.52c0-.07.06-.12.12-.12s.12.06.12.12v72.52c0,.07-.06.12-.12.12Z"/>
          <polygon class="cls-1" points="1521.44 327.9 1520.2 330.06 1518.95 327.9 1521.44 327.9"/>
        </g>
      </g>
      <g id="MTEXT-3" data-name="MTEXT">
        <g>
          <path class="cls-1" d="M1518.58,253.09h-.76v-4.82c-.18.17-.42.35-.72.52-.3.17-.56.3-.8.39v-.73c.42-.2.79-.44,1.11-.72.32-.28.54-.56.67-.82h.49v6.18Z"/>
          <path class="cls-1" d="M1522.73,253.09h-.76v-4.82c-.18.17-.42.35-.72.52-.3.17-.56.3-.8.39v-.73c.42-.2.79-.44,1.11-.72.32-.28.54-.56.67-.82h.49v6.18Z"/>
        </g>
      </g>
    </g>
    <g id="LINE-285" data-name="LINE">
      <path class="cls-1" d="M1436.32,328.09c-.07,0-.12-.06-.12-.12v-100.04c0-.07.06-.12.12-.12s.12.06.12.12v100.04c0,.07-.06.12-.12.12Z"/>
    </g>
    <g id="LINE-286" data-name="LINE">
      <path class="cls-1" d="M1437.82,328.09c-.07,0-.12-.06-.12-.12v-100.04c0-.07.06-.12.12-.12s.12.06.12.12v100.04c0,.07-.06.12-.12.12Z"/>
    </g>
    <g id="LINE-287" data-name="LINE">
      <path class="cls-1" d="M1262.77,228.05c-.07,0-.12-.06-.12-.12v-2.9c0-.07.06-.12.12-.12s.12.06.12.12v2.9c0,.07-.06.12-.12.12Z"/>
    </g>
    <g id="LINE-288" data-name="LINE">
      <path class="cls-1" d="M1262.77,225.15c-.07,0-.12-.06-.12-.12v-60.98c0-.07.06-.12.12-.12s.12.06.12.12v60.98c0,.07-.06.12-.12.12Z"/>
    </g>
    <g id="LINE-289" data-name="LINE">
      <path class="cls-1" d="M1475.87,225.15h-213.1c-.07,0-.12-.06-.12-.12s.06-.12.12-.12h213.1c.07,0,.12.06.12.12s-.06.12-.12.12Z"/>
    </g>
    <g id="LINE-290" data-name="LINE">
      <path class="cls-1" d="M1475.87,225.15c-.07,0-.12-.06-.12-.12v-60.98c0-.07.06-.12.12-.12s.12.06.12.12v60.98c0,.07-.06.12-.12.12Z"/>
    </g>
    <g id="LINE-291" data-name="LINE">
      <path class="cls-1" d="M1475.87,164.17h-213.1c-.07,0-.12-.06-.12-.12s.06-.12.12-.12h213.1c.07,0,.12.06.12.12s-.06.12-.12.12Z"/>
    </g>
    <g id="LINE-292" data-name="LINE">
      <path class="cls-1" d="M1475.87,228.05h-213.1c-.07,0-.12-.06-.12-.12s.06-.12.12-.12h213.1c.07,0,.12.06.12.12s-.06.12-.12.12Z"/>
    </g>
    <g id="LINE-293" data-name="LINE">
      <path class="cls-1" d="M1475.87,228.05c-.07,0-.12-.06-.12-.12v-2.9c0-.07.06-.12.12-.12s.12.06.12.12v2.9c0,.07-.06.12-.12.12Z"/>
    </g>
    <g id="LINE-294" data-name="LINE">
      <path class="cls-1" d="M1302.32,328.09c-.07,0-.12-.06-.12-.12v-100.04c0-.07.06-.12.12-.12s.12.06.12.12v100.04c0,.07-.06.12-.12.12Z"/>
    </g>
    <g id="LINE-295" data-name="LINE">
      <path class="cls-1" d="M1300.83,328.09c-.07,0-.12-.06-.12-.12v-100.04c0-.07.06-.12.12-.12s.12.06.12.12v100.04c0,.07-.06.12-.12.12Z"/>
    </g>
    <g id="LINE-296" data-name="LINE">
      <path class="cls-1" d="M1436.32,328.09c-.07,0-.12-.06-.12-.12v-100.04c0-.07.06-.12.12-.12s.12.06.12.12v100.04c0,.07-.06.12-.12.12Z"/>
    </g>
    <g id="LINE-297" data-name="LINE">
      <path class="cls-1" d="M1302.32,328.09c-.07,0-.12-.06-.12-.12v-100.04c0-.07.06-.12.12-.12s.12.06.12.12v100.04c0,.07-.06.12-.12.12Z"/>
    </g>
    <g id="LINE-298" data-name="LINE">
      <path class="cls-1" d="M1319.85,328.09c-.07,0-.12-.06-.12-.12v-62.27c0-.07.06-.12.12-.12s.12.06.12.12v62.27c0,.07-.06.12-.12.12Z"/>
    </g>
    <g id="LINE-299" data-name="LINE">
      <path class="cls-1" d="M1418.79,265.82h-98.94c-.07,0-.12-.06-.12-.12s.06-.12.12-.12h98.94c.07,0,.12.06.12.12s-.06.12-.12.12Z"/>
    </g>
    <g id="LINE-300" data-name="LINE">
      <path class="cls-1" d="M1418.79,328.09c-.07,0-.12-.06-.12-.12v-62.27c0-.07.06-.12.12-.12s.12.06.12.12v62.27c0,.07-.06.12-.12.12Z"/>
    </g>
    <g id="LINE-301" data-name="LINE">
      <path class="cls-1" d="M1249.14,328.09h-3.49c-.07,0-.12-.06-.12-.12s.06-.12.12-.12h3.49c.07,0,.12.06.12.12s-.06.12-.12.12Z"/>
    </g>
    <g id="LINE-302" data-name="LINE">
      <path class="cls-1" d="M1249.14,334.75c-.07,0-.12-.06-.12-.12v-6.66c0-.07.06-.12.12-.12s.12.06.12.12v6.66c0,.07-.06.12-.12.12Z"/>
    </g>
    <g id="LINE-303" data-name="LINE">
      <path class="cls-1" d="M1245.65,334.75c-.07,0-.12-.06-.12-.12v-6.66c0-.07.06-.12.12-.12s.12.06.12.12v6.66c0,.07-.06.12-.12.12Z"/>
    </g>
    <g id="LINE-304" data-name="LINE">
      <path class="cls-1" d="M1249.14,334.75h-3.49c-.07,0-.12-.06-.12-.12s.06-.12.12-.12h3.49c.07,0,.12.06.12.12s-.06.12-.12.12Z"/>
    </g>
    <g id="LINE-305" data-name="LINE">
      <path class="cls-1" d="M1496.17,328.09h-3.49c-.07,0-.12-.06-.12-.12s.06-.12.12-.12h3.49c.07,0,.12.06.12.12s-.06.12-.12.12Z"/>
    </g>
    <g id="LINE-306" data-name="LINE">
      <path class="cls-1" d="M1492.68,334.75c-.07,0-.12-.06-.12-.12v-6.66c0-.07.06-.12.12-.12s.12.06.12.12v6.66c0,.07-.06.12-.12.12Z"/>
    </g>
    <g id="LINE-307" data-name="LINE">
      <path class="cls-1" d="M1496.17,334.75h-3.49c-.07,0-.12-.06-.12-.12s.06-.12.12-.12h3.49c.07,0,.12.06.12.12s-.06.12-.12.12Z"/>
    </g>
    <g id="LINE-308" data-name="LINE">
      <path class="cls-1" d="M1496.17,334.75c-.07,0-.12-.06-.12-.12v-6.66c0-.07.06-.12.12-.12s.12.06.12.12v6.66c0,.07-.06.12-.12.12Z"/>
    </g>
    <g id="LINE-309" data-name="LINE">
      <path class="cls-1" d="M1350.3,328.09h-101.16c-.07,0-.12-.06-.12-.12s.06-.12.12-.12h101.16c.07,0,.12.06.12.12s-.06.12-.12.12Z"/>
    </g>
    <g id="LINE-310" data-name="LINE">
      <path class="cls-1" d="M1492.68,328.09h-104.33c-.07,0-.12-.06-.12-.12s.06-.12.12-.12h104.33c.07,0,.12.06.12.12s-.06.12-.12.12Z"/>
    </g>
    <g id="LINE-311" data-name="LINE">
      <path class="cls-1" d="M1249.14,334.75c-.07,0-.12-.06-.12-.12v-6.66c0-.07.06-.12.12-.12s.12.06.12.12v6.66c0,.07-.06.12-.12.12Z"/>
    </g>
    <g id="LINE-312" data-name="LINE">
      <path class="cls-1" d="M1350.3,334.75h-101.16c-.07,0-.12-.06-.12-.12s.06-.12.12-.12h101.16c.07,0,.12.06.12.12s-.06.12-.12.12Z"/>
    </g>
    <g id="LINE-313" data-name="LINE">
      <path class="cls-1" d="M1492.68,334.75h-104.33c-.07,0-.12-.06-.12-.12s.06-.12.12-.12h104.33c.07,0,.12.06.12.12s-.06.12-.12.12Z"/>
    </g>
    <g id="LINE-314" data-name="LINE">
      <path class="cls-1" d="M1492.68,334.75c-.07,0-.12-.06-.12-.12v-6.66c0-.07.06-.12.12-.12s.12.06.12.12v6.66c0,.07-.06.12-.12.12Z"/>
    </g>
    <g id="LINE-315" data-name="LINE">
      <path class="cls-1" d="M1245.65,336.27c-.07,0-.12-.06-.12-.12v-1.52c0-.07.06-.12.12-.12s.12.06.12.12v1.52c0,.07-.06.12-.12.12Z"/>
    </g>
    <g id="LINE-316" data-name="LINE">
      <path class="cls-1" d="M1496.17,334.75h-107.82c-.07,0-.12-.06-.12-.12s.06-.12.12-.12h107.82c.07,0,.12.06.12.12s-.06.12-.12.12Z"/>
    </g>
    <g id="LINE-317" data-name="LINE">
      <path class="cls-1" d="M1350.3,334.75h-104.65c-.07,0-.12-.06-.12-.12s.06-.12.12-.12h104.65c.07,0,.12.06.12.12s-.06.12-.12.12Z"/>
    </g>
    <g id="LINE-318" data-name="LINE">
      <path class="cls-1" d="M1496.17,336.27h-250.52c-.07,0-.12-.06-.12-.12s.06-.12.12-.12h250.52c.07,0,.12.06.12.12s-.06.12-.12.12Z"/>
    </g>
    <g id="LINE-319" data-name="LINE">
      <path class="cls-1" d="M1496.17,336.27c-.07,0-.12-.06-.12-.12v-1.52c0-.07.06-.12.12-.12s.12.06.12.12v1.52c0,.07-.06.12-.12.12Z"/>
    </g>
    <g id="LINE-320" data-name="LINE">
      <path class="cls-1" d="M1350.3,324.42h-30.44c-.07,0-.12-.06-.12-.12s.06-.12.12-.12h30.44c.07,0,.12.06.12.12s-.06.12-.12.12Z"/>
    </g>
    <g id="LINE-321" data-name="LINE">
      <path class="cls-1" d="M1418.79,324.42h-30.44c-.07,0-.12-.06-.12-.12s.06-.12.12-.12h30.44c.07,0,.12.06.12.12s-.06.12-.12.12Z"/>
    </g>
    <g id="LINE-322" data-name="LINE">
      <path class="cls-1" d="M1418.79,322.69h-30.44c-.07,0-.12-.06-.12-.12s.06-.12.12-.12h30.44c.07,0,.12.06.12.12s-.06.12-.12.12Z"/>
    </g>
    <g id="LINE-323" data-name="LINE">
      <path class="cls-1" d="M1350.3,322.69h-30.44c-.07,0-.12-.06-.12-.12s.06-.12.12-.12h30.44c.07,0,.12.06.12.12s-.06.12-.12.12Z"/>
    </g>
    <g id="LINE-324" data-name="LINE">
      <path class="cls-1" d="M1388.35,322.69h-38.05c-.07,0-.12-.06-.12-.12s.06-.12.12-.12h38.05c.07,0,.12.06.12.12s-.06.12-.12.12Z"/>
    </g>
    <g id="LINE-325" data-name="LINE">
      <path class="cls-1" d="M1350.3,324.43h-30.44c-.07,0-.12-.06-.12-.12s.06-.12.12-.12h30.44c.07,0,.12.06.12.12s-.06.12-.12.12Z"/>
    </g>
    <g id="LINE-326" data-name="LINE">
      <path class="cls-1" d="M1418.79,324.43h-30.44c-.07,0-.12-.06-.12-.12s.06-.12.12-.12h30.44c.07,0,.12.06.12.12s-.06.12-.12.12Z"/>
    </g>
    <g id="LINE-327" data-name="LINE">
      <path class="cls-1" d="M1388.35,335.17h-38.05c-.07,0-.12-.06-.12-.12s.06-.12.12-.12h38.05c.07,0,.12.06.12.12s-.06.12-.12.12Z"/>
    </g>
    <g id="LINE-328" data-name="LINE">
      <path class="cls-1" d="M1388.35,322.69h-38.05c-.07,0-.12-.06-.12-.12s.06-.12.12-.12h38.05c.07,0,.12.06.12.12s-.06.12-.12.12Z"/>
    </g>
    <g id="LINE-329" data-name="LINE">
      <path class="cls-1" d="M1388.35,335.17c-.07,0-.12-.06-.12-.12v-12.48c0-.07.06-.12.12-.12s.12.06.12.12v12.48c0,.07-.06.12-.12.12Z"/>
    </g>
    <g id="LINE-330" data-name="LINE">
      <path class="cls-1" d="M1350.3,335.17c-.07,0-.12-.06-.12-.12v-12.48c0-.07.06-.12.12-.12s.12.06.12.12v12.48c0,.07-.06.12-.12.12Z"/>
    </g>
  </g>
  <g>
    <g id="DIMENSION-4" data-name="DIMENSION">
      <g id="LINE-331" data-name="LINE">
        <path class="cls-1" d="M1265.17,530.6c-.06,0-.11-.04-.12-.09l-13.72-53.05c-.02-.07.02-.13.09-.15.07-.02.14.02.15.09l13.72,53.05c.02.07-.02.13-.09.15-.01,0-.02,0-.03,0Z"/>
      </g>
      <g id="LINE-332" data-name="LINE">
        <path class="cls-1" d="M1500.95,469.62c-.06,0-.11-.04-.12-.09l-13.72-53.05c-.02-.07.02-.13.09-.15.07-.02.13.02.15.09l13.72,53.05c.02.07-.02.13-.09.15-.01,0-.02,0-.03,0Z"/>
      </g>
      <g id="LINE-333" data-name="LINE">
        <g>
          <path class="cls-1" d="M1259.97,479.01c-.06,0-.11-.04-.12-.09-.02-.07.02-.13.09-.15l103.65-26.81c.07-.02.14.02.15.09.02.07-.02.13-.09.15l-103.65,26.81s-.02,0-.03,0Z"/>
          <polygon class="cls-1" points="1260.63 480 1258.23 479.34 1260.01 477.59 1260.63 480"/>
        </g>
      </g>
      <g id="LINE-334" data-name="LINE">
        <g>
          <path class="cls-1" d="M1376.84,448.79c-.06,0-.11-.04-.12-.09-.02-.07.02-.13.09-.15l103.65-26.81c.07-.02.13.02.15.09.02.07-.02.13-.09.15l-103.65,26.81s-.02,0-.03,0Z"/>
          <polygon class="cls-1" points="1479.82 420.74 1482.23 421.41 1480.45 423.16 1479.82 420.74"/>
        </g>
      </g>
      <g id="MTEXT-4" data-name="MTEXT">
        <g>
          <path class="cls-1" d="M1368.43,453.36h-.76v-4.82c-.18.17-.42.35-.72.52-.3.17-.56.3-.8.39v-.73c.42-.2.79-.44,1.11-.72.32-.28.54-.56.67-.82h.49v6.18Z"/>
          <path class="cls-1" d="M1374.29,448.72l-.75.06c-.07-.3-.16-.51-.29-.65-.2-.21-.46-.32-.76-.32-.24,0-.45.07-.63.2-.24.17-.43.43-.56.76s-.21.81-.21,1.42c.18-.28.4-.48.67-.62.26-.13.54-.2.83-.2.5,0,.93.19,1.29.56.35.37.53.85.53,1.44,0,.39-.08.75-.25,1.08-.17.33-.39.59-.69.76-.29.18-.62.26-.99.26-.63,0-1.14-.23-1.54-.69-.4-.46-.6-1.23-.6-2.29,0-1.19.22-2.05.66-2.59.38-.47.9-.71,1.55-.71.48,0,.88.14,1.19.41.31.27.49.65.56,1.12ZM1371.2,451.37c0,.26.06.51.17.75s.27.42.46.54c.2.12.41.19.63.19.32,0,.59-.13.82-.39.23-.26.34-.61.34-1.05s-.11-.76-.34-1.01-.51-.37-.86-.37-.63.12-.87.37c-.24.25-.36.57-.36.96Z"/>
        </g>
      </g>
    </g>
    <g id="LINE-335" data-name="LINE">
      <path class="cls-1" d="M1451.54,526.2h-141.43c-.07,0-.12-.06-.12-.12s.06-.12.12-.12h141.43c.07,0,.12.06.12.12s-.06.12-.12.12Z"/>
    </g>
    <g id="LINE-336" data-name="LINE">
      <path class="cls-1" d="M1451.54,636.97c-.07,0-.12-.06-.12-.12v-110.78c0-.07.06-.12.12-.12s.12.06.12.12v110.78c0,.07-.06.12-.12.12Z"/>
    </g>
    <g id="LINE-337" data-name="LINE">
      <path class="cls-1" d="M1310.11,636.97c-.07,0-.12-.06-.12-.12v-110.78c0-.07.06-.12.12-.12s.12.06.12.12v110.78c0,.07-.06.12-.12.12Z"/>
    </g>
    <g id="LINE-338" data-name="LINE">
      <path class="cls-1" d="M1266.06,534.04c-.06,0-.11-.04-.12-.09-.02-.07.02-.13.09-.15l235.78-60.98c.07-.02.13.02.15.09.02.07-.02.13-.09.15l-235.78,60.98s-.02,0-.03,0Z"/>
    </g>
    <g id="LINE-339" data-name="LINE">
      <path class="cls-1" d="M1502.59,475.96c-.06,0-.11-.04-.12-.09l-.75-2.9c-.02-.07.02-.13.09-.15.07-.02.13.02.15.09l.75,2.9c.02.07-.02.13-.09.15-.01,0-.02,0-.03,0Z"/>
    </g>
    <g id="LINE-340" data-name="LINE">
      <path class="cls-1" d="M1266.81,536.94c-.06,0-.11-.04-.12-.09-.02-.07.02-.13.09-.15l235.78-60.98c.07-.02.13.02.15.09.02.07-.02.13-.09.15l-235.78,60.98s-.02,0-.03,0Z"/>
    </g>
    <g id="LINE-341" data-name="LINE">
      <path class="cls-1" d="M1266.81,536.94c-.06,0-.11-.04-.12-.09l-.75-2.9c-.02-.07.02-.13.09-.15.07-.02.14.02.15.09l.75,2.9c.02.07-.02.13-.09.15-.01,0-.02,0-.03,0Z"/>
    </g>
    <g id="LINE-342" data-name="LINE">
      <path class="cls-1" d="M1451.54,526.2h0c-.07,0-.12-.06-.12-.12s.06-.12.12-.12.13.06.13.12-.05.12-.12.12Z"/>
    </g>
    <g id="LINE-343" data-name="LINE">
      <path class="cls-1" d="M1451.54,636.97c-.07,0-.12-.06-.12-.12v-110.78c0-.07.06-.12.12-.12s.12.06.12.12v110.78c0,.07-.06.12-.12.12Z"/>
    </g>
    <g id="LINE-344" data-name="LINE">
      <path class="cls-1" d="M1311.6,526.2h-1.5c-.07,0-.12-.06-.12-.13s.06-.12.12-.12h1.5c.07,0,.12.06.12.13s-.06.12-.12.12Z"/>
    </g>
    <g id="LINE-345" data-name="LINE">
      <path class="cls-1" d="M1310.11,526.2c-.07,0-.12-.06-.12-.12h0c0-.07.06-.13.12-.13s.12.06.12.12-.06.13-.12.13Z"/>
    </g>
    <g id="LINE-346" data-name="LINE">
      <path class="cls-1" d="M1311.6,526.2s-.06-.02-.08-.04c-.03-.02-.04-.05-.04-.09,0-.03,0-.06.03-.09.05-.05.14-.04.18,0,.03.03.04.06.04.09,0,.04-.01.07-.04.09-.02.02-.05.04-.09.04Z"/>
    </g>
    <g id="LINE-347" data-name="LINE">
      <path class="cls-1" d="M1496.41,636.97h-273.98c-.07,0-.12-.06-.12-.12s.06-.12.12-.12h273.98c.07,0,.12.06.12.12s-.06.12-.12.12Z"/>
    </g>
    <g id="LINE-348" data-name="LINE">
      <path class="cls-1" d="M1222.43,643.63c-.07,0-.12-.06-.12-.12v-6.66c0-.07.06-.12.12-.12s.12.06.12.12v6.66c0,.07-.06.12-.12.12Z"/>
    </g>
    <g id="LINE-349" data-name="LINE">
      <path class="cls-1" d="M1496.41,643.63c-.07,0-.12-.06-.12-.12v-6.66c0-.07.06-.12.12-.12s.12.06.12.12v6.66c0,.07-.06.12-.12.12Z"/>
    </g>
    <g id="LINE-350" data-name="LINE">
      <path class="cls-1" d="M1222.43,645.16c-.07,0-.12-.06-.12-.12v-1.52c0-.07.06-.12.12-.12s.12.06.12.12v1.52c0,.07-.06.12-.12.12Z"/>
    </g>
    <g id="LINE-351" data-name="LINE">
      <path class="cls-1" d="M1496.41,643.63h-273.98c-.07,0-.12-.06-.12-.12s.06-.12.12-.12h273.98c.07,0,.12.06.12.12s-.06.12-.12.12Z"/>
    </g>
    <g id="LINE-352" data-name="LINE">
      <path class="cls-1" d="M1496.41,645.16h-273.98c-.07,0-.12-.06-.12-.12s.06-.12.12-.12h273.98c.07,0,.12.06.12.12s-.06.12-.12.12Z"/>
    </g>
    <g id="LINE-353" data-name="LINE">
      <path class="cls-1" d="M1496.41,645.16c-.07,0-.12-.06-.12-.12v-1.52c0-.07.06-.12.12-.12s.12.06.12.12v1.52c0,.07-.06.12-.12.12Z"/>
    </g>
    <g id="LINE-354" data-name="LINE">
      <path class="cls-1" d="M1309.56,631.57h-91.33c-.07,0-.12-.06-.12-.12s.06-.12.12-.12h91.33c.07,0,.12.06.12.12s-.06.12-.12.12Z"/>
    </g>
    <g id="LINE-355" data-name="LINE">
      <path class="cls-1" d="M1309.56,633.31h-91.33c-.07,0-.12-.06-.12-.12s.06-.12.12-.12h91.33c.07,0,.12.06.12.12s-.06.12-.12.12Z"/>
    </g>
    <g id="LINE-356" data-name="LINE">
      <path class="cls-1" d="M1309.56,633.31c-.07,0-.12-.06-.12-.12v-1.74c0-.07.06-.12.12-.12s.12.06.12.12v1.74c0,.07-.06.12-.12.12Z"/>
    </g>
    <g id="LINE-357" data-name="LINE">
      <path class="cls-1" d="M1249.32,634.55c-.07,0-.12-.06-.12-.12v-.08c0-.07.06-.12.12-.12s.12.06.12.12v.08c0,.07-.06.12-.12.12Z"/>
    </g>
    <g id="LINE-358" data-name="LINE">
      <path class="cls-1" d="M1249.32,634.47c-.07,0-.12-.06-.12-.12v-.1c0-.07.06-.12.12-.12s.12.06.12.12v.1c0,.07-.06.12-.12.12Z"/>
    </g>
    <g id="LINE-359" data-name="LINE">
      <path class="cls-1" d="M1249.32,634.37c-.07,0-.12-.06-.12-.12v-.2c0-.07.06-.12.12-.12s.12.06.12.12v.2c0,.07-.06.12-.12.12Z"/>
    </g>
    <g id="LINE-360" data-name="LINE">
      <path class="cls-1" d="M1249.32,634.17c-.07,0-.12-.06-.12-.12v-.1c0-.07.06-.12.12-.12s.12.06.12.12v.1c0,.07-.06.12-.12.12Z"/>
    </g>
    <g id="LINE-361" data-name="LINE">
      <path class="cls-1" d="M1249.32,634.07c-.07,0-.12-.06-.12-.12v-.08c0-.07.06-.12.12-.12s.12.06.12.12v.08c0,.07-.06.12-.12.12Z"/>
    </g>
    <g id="LINE-362" data-name="LINE">
      <path class="cls-1" d="M1249.32,633.99c-.07,0-.12-.06-.12-.12v-.51c0-.07.06-.12.12-.12s.12.06.12.12v.51c0,.07-.06.12-.12.12Z"/>
    </g>
    <g id="LINE-363" data-name="LINE">
      <path class="cls-1" d="M1249.32,633.48c-.07,0-.12-.06-.12-.12v-.16c0-.07.06-.12.12-.12s.12.06.12.12v.16c0,.07-.06.12-.12.12Z"/>
    </g>
    <g id="LINE-364" data-name="LINE">
      <path class="cls-1" d="M1249.32,636.87c-.07,0-.12-.06-.12-.12v-.42c0-.07.06-.12.12-.12s.12.06.12.12v.42c0,.07-.06.12-.12.12Z"/>
    </g>
    <g id="LINE-365" data-name="LINE">
      <path class="cls-1" d="M1249.32,636.45c-.07,0-.12-.06-.12-.12v-.08c0-.07.06-.12.12-.12s.12.06.12.12v.08c0,.07-.06.12-.12.12Z"/>
    </g>
    <g id="LINE-366" data-name="LINE">
      <path class="cls-1" d="M1249.32,636.37c-.07,0-.12-.06-.12-.12v-.1c0-.07.06-.12.12-.12s.12.06.12.12v.1c0,.07-.06.12-.12.12Z"/>
    </g>
    <g id="LINE-367" data-name="LINE">
      <path class="cls-1" d="M1249.32,636.27c-.07,0-.12-.06-.12-.12v-.2c0-.07.06-.12.12-.12s.12.06.12.12v.2c0,.07-.06.12-.12.12Z"/>
    </g>
    <g id="LINE-368" data-name="LINE">
      <path class="cls-1" d="M1249.32,636.07c-.07,0-.12-.06-.12-.12v-.1c0-.07.06-.12.12-.12s.12.06.12.12v.1c0,.07-.06.12-.12.12Z"/>
    </g>
    <g id="LINE-369" data-name="LINE">
      <path class="cls-1" d="M1249.32,635.97c-.07,0-.12-.06-.12-.12v-.08c0-.07.06-.12.12-.12s.12.06.12.12v.08c0,.07-.06.12-.12.12Z"/>
    </g>
    <g id="LINE-370" data-name="LINE">
      <path class="cls-1" d="M1249.32,635.89c-.07,0-.12-.06-.12-.12v-1.34c0-.07.06-.12.12-.12s.12.06.12.12v1.34c0,.07-.06.12-.12.12Z"/>
    </g>
    <g id="LINE-371" data-name="LINE">
      <path class="cls-1" d="M1310.11,633.32h-60.78c-.07,0-.12-.06-.12-.12s.06-.12.12-.12h60.78c.07,0,.12.06.12.12s-.06.12-.12.12Z"/>
    </g>
    <g id="ARC">
      <path class="cls-1" d="M1249.32,633.48c-.07,0-.12-.06-.12-.12s.06-.13.12-.13.12.06.12.12h0c0,.07-.06.13-.12.13Z"/>
    </g>
    <g id="ARC-2" data-name="ARC">
      <path class="cls-1" d="M1249.46,633.32c-.06,0-.11-.04-.12-.1-.01-.07.03-.13.09-.15,0,0,.04,0,.05,0,.07,0,.12.06.12.12,0,.08-.07.12-.15.13Z"/>
    </g>
    <g id="LINE-372" data-name="LINE">
      <path class="cls-1" d="M1249.99,633.31h-.51c-.07,0-.12-.06-.12-.12s.06-.12.12-.12h.51c.07,0,.12.06.12.12s-.06.12-.12.12Z"/>
    </g>
    <g id="ARC-3" data-name="ARC">
      <path class="cls-1" d="M1250.01,633.32s-.02,0-.03,0c-.07,0-.12-.06-.12-.12s.06-.12.12-.12c.01,0,.04,0,.06,0,.07.02.1.09.09.15-.02.05-.07.09-.12.09Z"/>
    </g>
    <g id="ARC-4" data-name="ARC">
      <path class="cls-1" d="M1250.53,633.32c-.05,0-.1-.04-.12-.09-.02-.07.02-.14.09-.15.01,0,.04,0,.06,0,.07,0,.12.06.12.12s-.05.12-.12.12c0,0-.02,0-.03,0Z"/>
    </g>
    <g id="LINE-373" data-name="LINE">
      <path class="cls-1" d="M1251.9,633.31h-1.34c-.07,0-.12-.06-.12-.12s.06-.12.12-.12h1.34c.07,0,.12.06.12.12s-.06.12-.12.12Z"/>
    </g>
    <g id="ARC-5" data-name="ARC">
      <path class="cls-1" d="M1251.92,633.32s-.02,0-.03,0c-.07,0-.12-.06-.12-.12s.06-.12.12-.12c.01,0,.04,0,.06,0,.07.02.1.09.09.15-.02.05-.07.09-.12.09Z"/>
    </g>
    <g id="ARC-6" data-name="ARC">
      <path class="cls-1" d="M1252.44,633.32c-.05,0-.1-.04-.12-.09-.02-.07.02-.14.09-.15.01,0,.04,0,.06,0,.07,0,.12.06.12.12s-.05.12-.12.12c0,0-.02,0-.03,0Z"/>
    </g>
    <g id="LINE-374" data-name="LINE">
      <path class="cls-1" d="M1252.97,633.31h-.51c-.07,0-.12-.06-.12-.12s.06-.12.12-.12h.51c.07,0,.12.06.12.12s-.06.12-.12.12Z"/>
    </g>
    <g id="ARC-7" data-name="ARC">
      <path class="cls-1" d="M1253,633.32s-.02,0-.03,0c-.07,0-.12-.06-.12-.12s.06-.12.12-.12c0,0,.04,0,.05,0,.07.02.11.08.09.15-.01.06-.06.1-.12.1Z"/>
    </g>
    <g id="LINE-375" data-name="LINE">
      <path class="cls-1" d="M1436.32,526.2c-.07,0-.12-.06-.12-.12v-33.07c0-.07.06-.12.12-.12s.12.06.12.12v33.07c0,.07-.06.12-.12.12Z"/>
    </g>
    <g id="LINE-376" data-name="LINE">
      <path class="cls-1" d="M1177.13,644.06h-6.64c-.07,0-.12-.06-.12-.12s.06-.12.12-.12h6.64c.07,0,.12.06.12.12s-.06.12-.12.12Z"/>
    </g>
    <g id="LINE-377" data-name="LINE">
      <path class="cls-1" d="M1177.13,644.06c-.06,0-.11-.04-.12-.09-.02-.07.02-.13.09-.15l41.1-10.75c.07-.02.14.02.15.09.02.07-.02.13-.09.15l-41.1,10.75s-.02,0-.03,0Z"/>
    </g>
    <g id="LINE-378" data-name="LINE">
      <path class="cls-1" d="M1170.5,644.06c-.06,0-.11-.04-.12-.09-.02-.07.02-.13.09-.15l47.74-12.48c.07-.02.14.02.15.09.02.07-.02.13-.09.15l-47.74,12.48s-.02,0-.03,0Z"/>
    </g>
  </g>
</svg>