<?xml version="1.0" encoding="UTF-8"?>
<svg id="GRAPHIC" xmlns="http://www.w3.org/2000/svg" viewBox="0 0 1584 720">
  <defs>
    <style>
      .cls-1 {
        stroke-linecap: round;
        stroke-linejoin: round;
        stroke-width: .92px;
      }

      .cls-1, .cls-2 {
        fill: none;
        stroke: #000;
      }

      .cls-2 {
        stroke-miterlimit: 10;
        stroke-width: .74px;
      }
    </style>
  </defs>
  <g id="ELLIPSE">
    <path class="cls-1" d="M710.21,536.49c2.67,1.69,4.51,5.03,4.99,9.06.87,7.25-2.84,14.6-8.28,16.42"/>
  </g>
  <g id="ELLIPSE-2" data-name="ELLIPSE">
    <path class="cls-1" d="M705.55,543.64c1.75-6.46,5.13-12.04,9.49-15.69"/>
  </g>
  <g id="ELLIPSE-3" data-name="ELLIPSE">
    <path class="cls-1" d="M743.67,539.07c.85,2.92,1.3,6.07,1.33,9.3.14,15.21-8.87,28.79-20.13,30.33-11.26,1.54-20.51-9.55-20.65-24.76"/>
  </g>
  <g id="ELLIPSE-4" data-name="ELLIPSE">
    <path class="cls-1" d="M713.06,527.15c-11,14.74-11.86,37.78-1.93,51.46,9.93,13.68,26.89,12.83,37.89-1.91,6.53-8.75,9.75-20.92,8.63-32.58"/>
  </g>
  <g id="LINE">
    <line class="cls-1" x1="547.24" y1="464.87" x2="683.71" y2="451.25"/>
  </g>
  <g id="LINE-2" data-name="LINE">
    <line class="cls-1" x1="546.91" y1="495.98" x2="547.24" y2="464.87"/>
  </g>
  <g id="LINE-3" data-name="LINE">
    <line class="cls-1" x1="592.76" y1="516.86" x2="546.91" y2="495.98"/>
  </g>
  <g id="ELLIPSE-5" data-name="ELLIPSE">
    <path class="cls-1" d="M608.79,527.96c-4.87-4.74-10.26-8.48-16.03-11.1"/>
  </g>
  <g id="LINE-4" data-name="LINE">
    <line class="cls-1" x1="696.68" y1="613.52" x2="608.79" y2="527.96"/>
  </g>
  <g id="ELLIPSE-6" data-name="ELLIPSE">
    <path class="cls-1" d="M785.37,553.46c-1.14,14.22-5.24,28.05-11.83,39.85-18.98,34.02-53.39,43.06-76.87,20.21"/>
  </g>
  <g id="ELLIPSE-7" data-name="ELLIPSE">
    <path class="cls-1" d="M729.39,533.61c1.3,2.86,2.17,6.07,2.55,9.47,1.69,14.86-5.98,29.83-17.11,33.43"/>
  </g>
  <g id="ELLIPSE-8" data-name="ELLIPSE">
    <path class="cls-1" d="M698.49,627.5c-9.64-1.16-18.68-5.65-26.29-13.06"/>
  </g>
  <g id="LINE-5" data-name="LINE">
    <line class="cls-1" x1="672.19" y1="614.45" x2="646.07" y2="589.01"/>
  </g>
  <g id="LINE-6" data-name="LINE">
    <line class="cls-1" x1="601.14" y1="583.63" x2="646.07" y2="589.01"/>
  </g>
  <g id="LINE-7" data-name="LINE">
    <line class="cls-1" x1="603.55" y1="531.2" x2="691.45" y2="616.75"/>
  </g>
  <g id="LINE-8" data-name="LINE">
    <line class="cls-1" x1="608.01" y1="606.75" x2="520.12" y2="521.2"/>
  </g>
  <g id="LINE-9" data-name="LINE">
    <line class="cls-1" x1="601.14" y1="583.63" x2="627.27" y2="609.06"/>
  </g>
  <g id="ELLIPSE-9" data-name="ELLIPSE">
    <path class="cls-1" d="M691.45,616.75c24.86,24.2,61.3,14.62,81.39-21.4,4.15-7.43,7.38-15.66,9.57-24.33"/>
  </g>
  <g id="LINE-10" data-name="LINE">
    <line class="cls-1" x1="662" y1="406.16" x2="648.7" y2="404.57"/>
  </g>
  <g id="ELLIPSE-10" data-name="ELLIPSE">
    <path class="cls-1" d="M662,406.16c10.6,9.28,23.46,18.77,36.91,27.27"/>
  </g>
  <g id="LINE-11" data-name="LINE">
    <line class="cls-1" x1="698.92" y1="433.43" x2="700.56" y2="434.47"/>
  </g>
  <g id="LINE-12" data-name="LINE">
    <line class="cls-1" x1="632.5" y1="605.82" x2="610.9" y2="584.8"/>
  </g>
  <g id="ELLIPSE-11" data-name="ELLIPSE">
    <path class="cls-1" d="M674.45,616.52c-14.99,4.63-30.18.76-41.95-10.7"/>
  </g>
  <g id="ELLIPSE-12" data-name="ELLIPSE">
    <path class="cls-1" d="M627.27,609.06c13.89,13.52,32.19,16.99,49.57,9.41"/>
  </g>
  <g id="ELLIPSE-13" data-name="ELLIPSE">
    <path class="cls-1" d="M634.31,619.81c-9.64-1.16-18.68-5.65-26.29-13.06"/>
  </g>
  <g id="LINE-13" data-name="LINE">
    <line class="cls-1" x1="546.85" y1="495.97" x2="459.12" y2="461.61"/>
  </g>
  <g id="LINE-14" data-name="LINE">
    <line class="cls-1" x1="455.14" y1="465.65" x2="543.97" y2="500.44"/>
  </g>
  <g id="LINE-15" data-name="LINE">
    <line class="cls-1" x1="543.97" y1="500.44" x2="546.85" y2="495.97"/>
  </g>
  <g id="ELLIPSE-14" data-name="ELLIPSE">
    <path class="cls-1" d="M588.29,520.63c5.49,2.5,10.63,6.06,15.26,10.57"/>
  </g>
  <g id="LINE-16" data-name="LINE">
    <line class="cls-1" x1="543.97" y1="500.44" x2="588.29" y2="520.63"/>
  </g>
  <g id="LINE-17" data-name="LINE">
    <line class="cls-1" x1="546.91" y1="495.98" x2="546.85" y2="495.97"/>
  </g>
  <g id="ARC">
    <path class="cls-1" d="M457.71,461.06c-7.22-2.69-14.73-4.59-22.38-5.68"/>
  </g>
  <g id="ARC-2" data-name="ARC">
    <path class="cls-1" d="M454.03,465.23c-5.09-1.93-10.39-3.31-15.79-4.14"/>
  </g>
  <g id="LINE-18" data-name="LINE">
    <line class="cls-1" x1="407.26" y1="457.38" x2="438.24" y2="461.09"/>
  </g>
  <g id="LINE-19" data-name="LINE">
    <line class="cls-1" x1="435.32" y1="455.39" x2="404.35" y2="451.68"/>
  </g>
  <g id="SPLINE">
    <path class="cls-1" d="M404.82,459.32c-.64-.4-1.08-.75-1.3-1.05-.21-.27-.23-.5-.09-.66s.47-.28.94-.34c.67-.08,1.66-.04,2.89.11"/>
  </g>
  <g id="SPLINE-2" data-name="SPLINE">
    <path class="cls-1" d="M404.35,451.68c-1.86-.22-3.3-.28-4.2-.17-.63.08-1,.24-1.1.48-.07.16,0,.36.16.59"/>
  </g>
  <g id="ARC-3" data-name="ARC">
    <path class="cls-1" d="M455.14,465.65c-.37-.15-.74-.29-1.12-.43"/>
  </g>
  <g id="ARC-4" data-name="ARC">
    <path class="cls-1" d="M457.71,461.06c.47.18.95.36,1.42.55"/>
  </g>
  <g id="ELLIPSE-15" data-name="ELLIPSE">
    <path class="cls-1" d="M520.12,521.2c-4.64-4.51-9.78-8.07-15.26-10.57"/>
  </g>
  <g id="LINE-20" data-name="LINE">
    <line class="cls-1" x1="504.86" y1="510.63" x2="460.53" y2="490.44"/>
  </g>
  <g id="LINE-21" data-name="LINE">
    <line class="cls-1" x1="460.53" y1="490.44" x2="405.44" y2="459.69"/>
  </g>
  <g id="ARC-5" data-name="ARC">
    <path class="cls-1" d="M404.82,459.32c.2.13.41.25.62.37"/>
  </g>
  <g id="ELLIPSE-16" data-name="ELLIPSE">
    <path class="cls-1" d="M704.81,560.08c3.93,4.74,10.25,3.89,14.1-1.89,3.85-5.78,3.78-14.31-.15-19.04-2.94-3.53-7.33-4.06-11.07-1.33"/>
  </g>
  <g id="LINE-22" data-name="LINE">
    <line class="cls-1" x1="424.36" y1="423.56" x2="424.15" y2="443.5"/>
  </g>
  <g id="LINE-23" data-name="LINE">
    <line class="cls-1" x1="427.58" y1="423.24" x2="424.36" y2="423.56"/>
  </g>
  <g id="LINE-24" data-name="LINE">
    <line class="cls-1" x1="424.36" y1="423.56" x2="435.65" y2="424.92"/>
  </g>
  <g id="ELLIPSE-17" data-name="ELLIPSE">
    <path class="cls-1" d="M447.36,425.62c-4.42-.07-8.58-.32-11.71-.7"/>
  </g>
  <g id="LINE-25" data-name="LINE">
    <line class="cls-1" x1="447.36" y1="425.62" x2="427.58" y2="423.24"/>
  </g>
  <g id="ELLIPSE-18" data-name="ELLIPSE">
    <path class="cls-1" d="M455.49,434.25c-2.56-3.25-5.35-6.2-8.14-8.63"/>
  </g>
  <g id="ELLIPSE-19" data-name="ELLIPSE">
    <path class="cls-1" d="M458.03,430.7c-.81,1.22-1.66,2.4-2.54,3.55"/>
  </g>
  <g id="LINE-26" data-name="LINE">
    <line class="cls-1" x1="461.69" y1="425.21" x2="458.03" y2="430.7"/>
  </g>
  <g id="LINE-27" data-name="LINE">
    <line class="cls-1" x1="461.69" y1="425.21" x2="459.05" y2="424.9"/>
  </g>
  <g id="LINE-28" data-name="LINE">
    <line class="cls-1" x1="467.54" y1="433.57" x2="461.69" y2="425.21"/>
  </g>
  <g id="LINE-29" data-name="LINE">
    <line class="cls-1" x1="473.58" y1="424.52" x2="467.54" y2="433.57"/>
  </g>
  <g id="LINE-30" data-name="LINE">
    <line class="cls-1" x1="470.94" y1="424.2" x2="473.58" y2="424.52"/>
  </g>
  <g id="LINE-31" data-name="LINE">
    <line class="cls-1" x1="479.44" y1="432.88" x2="473.58" y2="424.52"/>
  </g>
  <g id="LINE-32" data-name="LINE">
    <line class="cls-1" x1="484.1" y1="425.9" x2="479.44" y2="432.88"/>
  </g>
  <g id="ELLIPSE-20" data-name="ELLIPSE">
    <path class="cls-1" d="M484.1,425.9c.38-.7.78-1.4,1.18-2.09"/>
  </g>
  <g id="LINE-33" data-name="LINE">
    <line class="cls-1" x1="482.83" y1="423.51" x2="485.28" y2="423.8"/>
  </g>
  <g id="ELLIPSE-21" data-name="ELLIPSE">
    <path class="cls-1" d="M485.28,423.8c1.46,2.73,3.09,5.49,4.9,8.25"/>
  </g>
  <g id="ELLIPSE-22" data-name="ELLIPSE">
    <path class="cls-1" d="M490.18,432.05c1.4-3.08,2.98-6.16,4.75-9.21"/>
  </g>
  <g id="LINE-34" data-name="LINE">
    <line class="cls-1" x1="494.92" y1="422.84" x2="492.8" y2="422.59"/>
  </g>
  <g id="LINE-35" data-name="LINE">
    <line class="cls-1" x1="502.44" y1="421.62" x2="504.57" y2="421.88"/>
  </g>
  <g id="ELLIPSE-23" data-name="ELLIPSE">
    <path class="cls-1" d="M504.57,421.88c1.46,2.73,3.09,5.49,4.9,8.25"/>
  </g>
  <g id="ELLIPSE-24" data-name="ELLIPSE">
    <path class="cls-1" d="M494.92,422.84c1.46,2.73,3.09,5.49,4.9,8.25"/>
  </g>
  <g id="ELLIPSE-25" data-name="ELLIPSE">
    <path class="cls-1" d="M499.82,431.09c1.4-3.08,2.98-6.16,4.75-9.21"/>
  </g>
  <g id="ELLIPSE-26" data-name="ELLIPSE">
    <path class="cls-1" d="M706.93,561.97c5.44-1.82,9.14-9.17,8.28-16.42-.48-4.03-2.32-7.37-4.99-9.06"/>
  </g>
  <g id="ELLIPSE-27" data-name="ELLIPSE">
    <path class="cls-1" d="M512.68,452.02c-19.5-7.25-29.41-16.3-28.58-26.12"/>
  </g>
  <g id="LINE-36" data-name="LINE">
    <line class="cls-1" x1="649.24" y1="407.44" x2="662" y2="406.16"/>
  </g>
  <g id="ELLIPSE-28" data-name="ELLIPSE">
    <path class="cls-1" d="M644.5,416.65c1.4-3.08,2.98-6.16,4.75-9.21"/>
  </g>
  <g id="ELLIPSE-29" data-name="ELLIPSE">
    <path class="cls-1" d="M639.6,408.4c1.46,2.73,3.09,5.49,4.9,8.25"/>
  </g>
  <g id="ELLIPSE-30" data-name="ELLIPSE">
    <path class="cls-1" d="M634.85,417.61c1.4-3.08,2.98-6.16,4.75-9.21"/>
  </g>
  <g id="ELLIPSE-31" data-name="ELLIPSE">
    <path class="cls-1" d="M629.95,409.36c1.46,2.73,3.09,5.49,4.9,8.25"/>
  </g>
  <g id="ELLIPSE-32" data-name="ELLIPSE">
    <path class="cls-1" d="M625.21,418.57c1.4-3.08,2.98-6.16,4.75-9.21"/>
  </g>
  <g id="ELLIPSE-33" data-name="ELLIPSE">
    <path class="cls-1" d="M620.31,410.33c1.46,2.73,3.09,5.49,4.9,8.25"/>
  </g>
  <g id="ELLIPSE-34" data-name="ELLIPSE">
    <path class="cls-1" d="M615.56,419.53c1.4-3.08,2.98-6.16,4.75-9.21"/>
  </g>
  <g id="ELLIPSE-35" data-name="ELLIPSE">
    <path class="cls-1" d="M610.66,411.29c1.46,2.73,3.09,5.49,4.9,8.25"/>
  </g>
  <g id="ELLIPSE-36" data-name="ELLIPSE">
    <path class="cls-1" d="M605.92,420.5c1.4-3.08,2.98-6.16,4.75-9.21"/>
  </g>
  <g id="ELLIPSE-37" data-name="ELLIPSE">
    <path class="cls-1" d="M601.02,412.25c1.46,2.73,3.09,5.49,4.9,8.25"/>
  </g>
  <g id="ELLIPSE-38" data-name="ELLIPSE">
    <path class="cls-1" d="M596.27,421.46c1.4-3.08,2.98-6.16,4.75-9.21"/>
  </g>
  <g id="ELLIPSE-39" data-name="ELLIPSE">
    <path class="cls-1" d="M591.37,413.21c1.46,2.73,3.09,5.49,4.9,8.25"/>
  </g>
  <g id="ELLIPSE-40" data-name="ELLIPSE">
    <path class="cls-1" d="M586.63,422.42c1.4-3.08,2.98-6.16,4.75-9.21"/>
  </g>
  <g id="ELLIPSE-41" data-name="ELLIPSE">
    <path class="cls-1" d="M581.73,414.18c1.46,2.73,3.09,5.49,4.9,8.25"/>
  </g>
  <g id="ELLIPSE-42" data-name="ELLIPSE">
    <path class="cls-1" d="M576.98,423.38c1.4-3.08,2.98-6.16,4.75-9.21"/>
  </g>
  <g id="ELLIPSE-43" data-name="ELLIPSE">
    <path class="cls-1" d="M572.08,415.14c1.46,2.73,3.09,5.49,4.9,8.25"/>
  </g>
  <g id="ELLIPSE-44" data-name="ELLIPSE">
    <path class="cls-1" d="M567.34,424.35c1.4-3.08,2.98-6.16,4.75-9.21"/>
  </g>
  <g id="ELLIPSE-45" data-name="ELLIPSE">
    <path class="cls-1" d="M562.44,416.1c1.46,2.73,3.09,5.49,4.9,8.25"/>
  </g>
  <g id="ELLIPSE-46" data-name="ELLIPSE">
    <path class="cls-1" d="M557.69,425.31c1.4-3.08,2.98-6.16,4.75-9.21"/>
  </g>
  <g id="ELLIPSE-47" data-name="ELLIPSE">
    <path class="cls-1" d="M552.79,417.07c1.46,2.73,3.09,5.49,4.9,8.25"/>
  </g>
  <g id="ELLIPSE-48" data-name="ELLIPSE">
    <path class="cls-1" d="M548.05,426.27c1.4-3.08,2.98-6.16,4.75-9.21"/>
  </g>
  <g id="ELLIPSE-49" data-name="ELLIPSE">
    <path class="cls-1" d="M543.15,418.03c1.46,2.73,3.09,5.49,4.9,8.25"/>
  </g>
  <g id="ELLIPSE-50" data-name="ELLIPSE">
    <path class="cls-1" d="M538.4,427.24c1.4-3.08,2.98-6.16,4.75-9.21"/>
  </g>
  <g id="ELLIPSE-51" data-name="ELLIPSE">
    <path class="cls-1" d="M533.5,418.99c1.46,2.73,3.09,5.49,4.9,8.25"/>
  </g>
  <g id="ELLIPSE-52" data-name="ELLIPSE">
    <path class="cls-1" d="M528.76,428.2c1.4-3.08,2.98-6.16,4.75-9.21"/>
  </g>
  <g id="ELLIPSE-53" data-name="ELLIPSE">
    <path class="cls-1" d="M523.86,419.95c1.46,2.73,3.09,5.49,4.9,8.25"/>
  </g>
  <g id="ELLIPSE-54" data-name="ELLIPSE">
    <path class="cls-1" d="M519.11,429.16c1.4-3.08,2.98-6.16,4.75-9.21"/>
  </g>
  <g id="ELLIPSE-55" data-name="ELLIPSE">
    <path class="cls-1" d="M514.21,420.92c1.46,2.73,3.09,5.49,4.9,8.25"/>
  </g>
  <g id="ELLIPSE-56" data-name="ELLIPSE">
    <path class="cls-1" d="M509.47,430.12c1.4-3.08,2.98-6.16,4.75-9.21"/>
  </g>
  <g id="LINE-37" data-name="LINE">
    <line class="cls-1" x1="547.24" y1="464.87" x2="512.68" y2="452.02"/>
  </g>
  <g id="LINE-38" data-name="LINE">
    <line class="cls-1" x1="610.66" y1="411.29" x2="608.54" y2="411.03"/>
  </g>
  <g id="LINE-39" data-name="LINE">
    <line class="cls-1" x1="620.31" y1="410.33" x2="618.19" y2="410.07"/>
  </g>
  <g id="LINE-40" data-name="LINE">
    <line class="cls-1" x1="601.02" y1="412.25" x2="598.9" y2="412"/>
  </g>
  <g id="LINE-41" data-name="LINE">
    <line class="cls-1" x1="629.95" y1="409.36" x2="627.83" y2="409.11"/>
  </g>
  <g id="LINE-42" data-name="LINE">
    <line class="cls-1" x1="591.37" y1="413.21" x2="589.25" y2="412.96"/>
  </g>
  <g id="LINE-43" data-name="LINE">
    <line class="cls-1" x1="639.6" y1="408.4" x2="637.48" y2="408.15"/>
  </g>
  <g id="LINE-44" data-name="LINE">
    <line class="cls-1" x1="581.73" y1="414.18" x2="579.6" y2="413.92"/>
  </g>
  <g id="LINE-45" data-name="LINE">
    <line class="cls-1" x1="647.12" y1="407.18" x2="649.24" y2="407.44"/>
  </g>
  <g id="LINE-46" data-name="LINE">
    <line class="cls-1" x1="572.08" y1="415.14" x2="569.96" y2="414.89"/>
  </g>
  <g id="LINE-47" data-name="LINE">
    <line class="cls-1" x1="562.44" y1="416.1" x2="560.31" y2="415.85"/>
  </g>
  <g id="LINE-48" data-name="LINE">
    <line class="cls-1" x1="533.5" y1="418.99" x2="531.38" y2="418.74"/>
  </g>
  <g id="LINE-49" data-name="LINE">
    <line class="cls-1" x1="550.67" y1="416.81" x2="552.79" y2="417.07"/>
  </g>
  <g id="LINE-50" data-name="LINE">
    <line class="cls-1" x1="543.15" y1="418.03" x2="541.02" y2="417.77"/>
  </g>
  <g id="LINE-51" data-name="LINE">
    <line class="cls-1" x1="523.86" y1="419.95" x2="521.73" y2="419.7"/>
  </g>
  <g id="LINE-52" data-name="LINE">
    <line class="cls-1" x1="514.21" y1="420.92" x2="512.09" y2="420.66"/>
  </g>
  <g id="LINE-53" data-name="LINE">
    <line class="cls-1" x1="734.89" y1="403.98" x2="741.01" y2="394"/>
  </g>
  <g id="LINE-54" data-name="LINE">
    <line class="cls-1" x1="698.49" y1="627.5" x2="717.74" y2="629.81"/>
  </g>
  <g id="LINE-55" data-name="LINE">
    <line class="cls-1" x1="634.31" y1="619.81" x2="653.56" y2="622.12"/>
  </g>
  <g id="LINE-56" data-name="LINE">
    <line class="cls-1" x1="782.59" y1="570.33" x2="782.41" y2="571.02"/>
  </g>
  <g id="SPLINE-3" data-name="SPLINE">
    <path class="cls-1" d="M403.51,458.26c-1.42-1.91-2.86-3.8-4.3-5.69"/>
  </g>
  <g id="LINE-57" data-name="LINE">
    <line class="cls-1" x1="399.11" y1="443.44" x2="399.02" y2="452.13"/>
  </g>
  <g id="SPLINE-4" data-name="SPLINE">
    <path class="cls-1" d="M759.48,329.62c-.57.46-1.13.93-1.69,1.42-5.2,4.5-9.82,9.97-13.11,15.42-2.93,4.86-4.79,9.7-5.29,13.81-.41,3.38.11,6.27,1.55,8.33,1.11,1.59,2.78,2.68,4.9,3.17,1.33.31,2.83.38,4.47.22,1.64-.16,3.41-.57,5.25-1.19,2.95-1,6.08-2.57,9.17-4.58,4.02-2.61,7.96-5.94,11.45-9.63,4.24-4.49,7.8-9.49,10.2-14.3,2.69-5.39,3.9-10.52,3.35-14.45-.06-.42-.14-.83-.24-1.22"/>
  </g>
  <g id="SPLINE-5" data-name="SPLINE">
    <path class="cls-1" d="M781.92,327.47c.1.28.19.58.26.9.67,2.91.03,7.03-1.96,11.7-1.78,4.17-4.62,8.75-8.19,13.01-2.94,3.5-6.36,6.78-9.94,9.38-2.75,2-5.6,3.6-8.3,4.61-1.69.63-3.32,1.03-4.83,1.18-1.51.15-2.9.05-4.11-.29-1.94-.54-3.43-1.71-4.36-3.34-.64-1.12-1.02-2.46-1.14-3.95"/>
  </g>
  <g id="SPLINE-6" data-name="SPLINE">
    <path class="cls-1" d="M761.95,327.78c.3-.18.6-.36.91-.54,2.12-1.23,4.29-2.27,6.32-2.97,1.58-.54,3.09-.88,4.43-1.01,1.03-.1,2.02-.09,2.93.05,1.46.22,2.7.76,3.63,1.55.36.31.66.65.92,1.02"/>
  </g>
  <g id="SPLINE-7" data-name="SPLINE">
    <path class="cls-1" d="M788.56,324.32c-.33-.57-.72-1.1-1.19-1.58-1.21-1.25-2.89-2.14-4.88-2.53-1.24-.24-2.6-.28-4.01-.15-1.83.18-3.87.69-5.99,1.51-2.72,1.06-5.57,2.65-8.25,4.48-.39.26-.77.53-1.15.8"/>
  </g>
  <g id="SPLINE-8" data-name="SPLINE">
    <path class="cls-1" d="M781.1,325.86c.33.47.61,1.01.82,1.61"/>
  </g>
  <g id="SPLINE-9" data-name="SPLINE">
    <path class="cls-1" d="M789.49,326.62c-.21-.83-.52-1.6-.92-2.3"/>
  </g>
  <g id="SPLINE-10" data-name="SPLINE">
    <path class="cls-1" d="M761.35,328.15c.2-.13.4-.25.6-.37"/>
  </g>
  <g id="SPLINE-11" data-name="SPLINE">
    <path class="cls-1" d="M763.09,326.86c-1.21.87-2.42,1.79-3.61,2.76"/>
  </g>
  <g id="ARC-6" data-name="ARC">
    <path class="cls-1" d="M963.23,293.45c-24.56,6.84-48.85,14.55-72.83,23.1"/>
  </g>
  <g id="LINE-58" data-name="LINE">
    <line class="cls-1" x1="684.54" y1="321.26" x2="963.23" y2="293.45"/>
  </g>
  <g id="ELLIPSE-57" data-name="ELLIPSE">
    <path class="cls-1" d="M646.66,340.88c14.76-6.34,27.45-12.91,37.89-19.61"/>
  </g>
  <g id="ELLIPSE-58" data-name="ELLIPSE">
    <path class="cls-1" d="M753.64,334.95c2.34,12.41-3.3,25.96-12.65,30.41"/>
  </g>
  <g id="SPLINE-12" data-name="SPLINE">
    <path class="cls-1" d="M684.67,264.56c23.45-9.12,44.5-18.11,61.41-26.22,11.89-5.71,21.76-10.98,29.21-15.63,3.64-2.27,6.71-4.4,9.17-6.37"/>
  </g>
  <g id="ARC-7" data-name="ARC">
    <path class="cls-1" d="M673.2,256.44c33.13-11.84,65.05-26.65,95.32-44.22"/>
  </g>
  <g id="ARC-8" data-name="ARC">
    <path class="cls-1" d="M673.21,256.45c3.74,2.8,7.56,5.5,11.46,8.1"/>
  </g>
  <g id="LINE-59" data-name="LINE">
    <line class="cls-1" x1="673.21" y1="256.45" x2="610.27" y2="273.92"/>
  </g>
  <g id="LINE-60" data-name="LINE">
    <line class="cls-1" x1="616.5" y1="283.65" x2="684.31" y2="264.83"/>
  </g>
  <g id="ELLIPSE-59" data-name="ELLIPSE">
    <path class="cls-1" d="M684.31,264.83c.12-.09.24-.19.35-.28"/>
  </g>
  <g id="SPLINE-13" data-name="SPLINE">
    <path class="cls-1" d="M791.55,210.5c.29-.24.57-.48.85-.72,5.76-4.94,9.57-9.28,11.31-12.98,1.25-2.65,1.45-4.98.44-6.95-.92-1.81-2.88-3.32-6.02-4.43-1.97-.69-4.4-1.22-7.26-1.57s-6.14-.5-9.74-.47c-5.76.04-12.29.54-19.39,1.38-7.76.92-16.24,2.26-25.47,3.95-12.88,2.36-27.23,5.44-43.1,9.17-.77.18-1.54.36-2.32.55"/>
  </g>
  <g id="SPLINE-14" data-name="SPLINE">
    <path class="cls-1" d="M696.32,197.82c.74-.16,1.48-.32,2.22-.47,15.15-3.2,28.53-5.7,39.84-7.47,8.1-1.27,15.13-2.16,20.98-2.7,5.35-.49,9.69-.69,13.15-.66,2.17.02,4,.13,5.61.32,1.61.19,2.99.47,4.17.85,1.9.61,3.29,1.5,4.01,2.72.78,1.33.72,3.06-.33,5.18-1.46,2.95-4.84,6.65-10.19,11.03-.26.21-.52.43-.79.64"/>
  </g>
  <g id="ARC-9" data-name="ARC">
    <path class="cls-1" d="M768.48,212.14c2.22-1.57,4.38-3.2,6.5-4.89"/>
  </g>
  <g id="ARC-10" data-name="ARC">
    <path class="cls-1" d="M784.46,216.33c2.39-1.91,4.76-3.86,7.1-5.83"/>
  </g>
  <g id="LINE-61" data-name="LINE">
    <line class="cls-1" x1="508.02" y1="261.66" x2="547.23" y2="241.35"/>
  </g>
  <g id="ARC-11" data-name="ARC">
    <path class="cls-1" d="M679.64,201.44c-44.79,11.19-88.98,24.52-132.4,39.94"/>
  </g>
  <g id="ARC-12" data-name="ARC">
    <path class="cls-1" d="M696.32,197.82c-5.56,1.19-11.12,2.41-16.66,3.67"/>
  </g>
  <g id="ARC-13" data-name="ARC">
    <path class="cls-1" d="M690.84,198.43c-4.81,1.15-9.6,2.41-14.34,3.79"/>
  </g>
  <g id="ARC-14" data-name="ARC">
    <path class="cls-1" d="M506.94,262.22c-3.64,1.95-6.93,4.45-9.75,7.41"/>
  </g>
  <g id="SPLINE-15" data-name="SPLINE">
    <path class="cls-1" d="M506.94,262.22c.18-.09.36-.19.54-.28s.36-.19.54-.28"/>
  </g>
  <g id="LINE-62" data-name="LINE">
    <line class="cls-1" x1="410.15" y1="363.61" x2="496.28" y2="270.57"/>
  </g>
  <g id="ARC-15" data-name="ARC">
    <path class="cls-1" d="M497.18,269.62c-.3.31-.61.63-.9.95"/>
  </g>
  <g id="SPLINE-16" data-name="SPLINE">
    <path class="cls-1" d="M401.44,374.79c-.22.28-.42.55-.6.82-.58.87-.93,1.7-1.01,2.47s.11,1.46.6,2.05c.8.96,2.42,1.63,4.67,1.9"/>
  </g>
  <g id="SPLINE-17" data-name="SPLINE">
    <path class="cls-1" d="M410.93,368.71c-.78-.09-1.4-.32-1.82-.68-.26-.22-.44-.5-.53-.84s-.08-.72.05-1.16c.1-.35.27-.72.51-1.11"/>
  </g>
  <g id="LINE-63" data-name="LINE">
    <line class="cls-1" x1="405.09" y1="382.03" x2="436.07" y2="385.74"/>
  </g>
  <g id="LINE-64" data-name="LINE">
    <line class="cls-1" x1="441.9" y1="372.43" x2="410.93" y2="368.71"/>
  </g>
  <g id="SPLINE-18" data-name="SPLINE">
    <path class="cls-1" d="M451.46,370c-.67.34-1.36.65-2.03.93-.85.35-1.69.64-2.48.87s-1.53.4-2.21.51c-1.11.18-2.05.22-2.83.13"/>
  </g>
  <g id="SPLINE-19" data-name="SPLINE">
    <path class="cls-1" d="M436.07,385.74c2.25.27,5.1.14,8.09-.37,1.82-.31,3.69-.76,5.51-1.31,1.82-.56,3.59-1.22,5.23-1.96,1.3-.59,2.53-1.22,3.66-1.89"/>
  </g>
  <g id="ARC-16" data-name="ARC">
    <path class="cls-1" d="M410.15,363.61c-.38.41-.72.85-1.02,1.31"/>
  </g>
  <g id="LINE-65" data-name="LINE">
    <line class="cls-1" x1="591.51" y1="281.98" x2="453.55" y2="368.81"/>
  </g>
  <g id="LINE-66" data-name="LINE">
    <line class="cls-1" x1="462.1" y1="378.05" x2="600.06" y2="291.22"/>
  </g>
  <g id="ARC-17" data-name="ARC">
    <path class="cls-1" d="M451.46,370c.72-.36,1.42-.76,2.1-1.18"/>
  </g>
  <g id="ARC-18" data-name="ARC">
    <path class="cls-1" d="M458.57,380.21c1.19-.7,2.36-1.42,3.53-2.16"/>
  </g>
  <g id="ARC-19" data-name="ARC">
    <path class="cls-1" d="M608.53,274.4c-5.48,1.54-10.73,3.79-15.57,6.7"/>
  </g>
  <g id="ARC-20" data-name="ARC">
    <path class="cls-1" d="M614.98,284.09c-4.76,1.48-9.3,3.58-13.49,6.23"/>
  </g>
  <g id="ARC-21" data-name="ARC">
    <path class="cls-1" d="M591.51,281.98c.48-.3.96-.59,1.44-.88"/>
  </g>
  <g id="SPLINE-20" data-name="SPLINE">
    <path class="cls-1" d="M600.06,291.22l.72-.45.72-.45"/>
  </g>
  <g id="SPLINE-21" data-name="SPLINE">
    <path class="cls-1" d="M610.27,273.92c-.29.08-.58.16-.87.24s-.58.16-.87.24"/>
  </g>
  <g id="ARC-22" data-name="ARC">
    <path class="cls-1" d="M616.5,283.65c-.51.14-1.02.29-1.52.45"/>
  </g>
  <g id="ELLIPSE-60" data-name="ELLIPSE">
    <path class="cls-1" d="M1521.12,137.68c-21.22-16.6-45.21-24.25-68.7-21.9"/>
  </g>
  <g id="ELLIPSE-61" data-name="ELLIPSE">
    <path class="cls-1" d="M685.1,269.33c.02-1.52-.24-3.02-.78-4.5"/>
  </g>
  <g id="ELLIPSE-62" data-name="ELLIPSE">
    <path class="cls-1" d="M1540.9,183.91c.2-18.66-7.48-36.62-19.77-46.23"/>
  </g>
  <g id="LINE-67" data-name="LINE">
    <line class="cls-1" x1="424.62" y1="399.27" x2="424.41" y2="419.21"/>
  </g>
  <g id="LINE-68" data-name="LINE">
    <line class="cls-1" x1="428.06" y1="419.65" x2="430.31" y2="423.57"/>
  </g>
  <g id="LINE-69" data-name="LINE">
    <line class="cls-1" x1="417.85" y1="398.46" x2="424.62" y2="399.27"/>
  </g>
  <g id="ELLIPSE-63" data-name="ELLIPSE">
    <path class="cls-1" d="M417.59,398.46c.09,0,.17,0,.26,0"/>
  </g>
  <g id="LINE-70" data-name="LINE">
    <line class="cls-1" x1="455.54" y1="429.9" x2="451.28" y2="429.38"/>
  </g>
  <g id="ELLIPSE-64" data-name="ELLIPSE">
    <path class="cls-1" d="M447.4,421.26c2.79,2.43,5.58,5.39,8.14,8.63"/>
  </g>
  <g id="LINE-71" data-name="LINE">
    <line class="cls-1" x1="458.08" y1="426.35" x2="461.74" y2="420.86"/>
  </g>
  <g id="ELLIPSE-65" data-name="ELLIPSE">
    <path class="cls-1" d="M455.54,429.9c.88-1.14,1.73-2.33,2.54-3.55"/>
  </g>
  <g id="LINE-72" data-name="LINE">
    <line class="cls-1" x1="467.59" y1="429.22" x2="464.21" y2="428.82"/>
  </g>
  <g id="LINE-73" data-name="LINE">
    <line class="cls-1" x1="461.74" y1="420.86" x2="467.59" y2="429.22"/>
  </g>
  <g id="LINE-74" data-name="LINE">
    <line class="cls-1" x1="467.59" y1="429.22" x2="473.63" y2="420.17"/>
  </g>
  <g id="LINE-75" data-name="LINE">
    <line class="cls-1" x1="479.48" y1="428.53" x2="476.11" y2="428.12"/>
  </g>
  <g id="LINE-76" data-name="LINE">
    <line class="cls-1" x1="473.63" y1="420.17" x2="479.48" y2="428.53"/>
  </g>
  <g id="LINE-77" data-name="LINE">
    <line class="cls-1" x1="479.48" y1="428.53" x2="485.52" y2="419.48"/>
  </g>
  <g id="LINE-78" data-name="LINE">
    <line class="cls-1" x1="490" y1="427.67" x2="487.26" y2="427.34"/>
  </g>
  <g id="ELLIPSE-66" data-name="ELLIPSE">
    <path class="cls-1" d="M490,427.67c-1.54-2.59-2.92-5.17-4.14-7.71"/>
  </g>
  <g id="LINE-79" data-name="LINE">
    <line class="cls-1" x1="485.52" y1="419.48" x2="485.87" y2="419.96"/>
  </g>
  <g id="ELLIPSE-67" data-name="ELLIPSE">
    <path class="cls-1" d="M495.29,418.53c-1.93,3.01-3.7,6.06-5.28,9.14"/>
  </g>
  <g id="LINE-80" data-name="LINE">
    <line class="cls-1" x1="499.65" y1="426.71" x2="496.9" y2="426.38"/>
  </g>
  <g id="ELLIPSE-68" data-name="ELLIPSE">
    <path class="cls-1" d="M499.65,426.71c-1.64-2.76-3.1-5.49-4.36-8.18"/>
  </g>
  <g id="ELLIPSE-69" data-name="ELLIPSE">
    <path class="cls-1" d="M504.93,417.56c-1.93,3.01-3.7,6.06-5.28,9.14"/>
  </g>
  <g id="LINE-81" data-name="LINE">
    <line class="cls-1" x1="509.29" y1="425.74" x2="506.55" y2="425.42"/>
  </g>
  <g id="ELLIPSE-70" data-name="ELLIPSE">
    <path class="cls-1" d="M509.29,425.74c-1.64-2.76-3.1-5.49-4.36-8.18"/>
  </g>
  <g id="ELLIPSE-71" data-name="ELLIPSE">
    <path class="cls-1" d="M514.58,416.6c-1.93,3.01-3.7,6.06-5.28,9.14"/>
  </g>
  <g id="LINE-82" data-name="LINE">
    <line class="cls-1" x1="518.94" y1="424.78" x2="516.19" y2="424.45"/>
  </g>
  <g id="ELLIPSE-72" data-name="ELLIPSE">
    <path class="cls-1" d="M518.94,424.78c-1.64-2.76-3.1-5.49-4.36-8.18"/>
  </g>
  <g id="ELLIPSE-73" data-name="ELLIPSE">
    <path class="cls-1" d="M524.22,415.64c-1.93,3.01-3.7,6.06-5.28,9.14"/>
  </g>
  <g id="LINE-83" data-name="LINE">
    <line class="cls-1" x1="528.58" y1="423.82" x2="525.84" y2="423.49"/>
  </g>
  <g id="ELLIPSE-74" data-name="ELLIPSE">
    <path class="cls-1" d="M528.58,423.82c-1.64-2.76-3.1-5.49-4.36-8.18"/>
  </g>
  <g id="ELLIPSE-75" data-name="ELLIPSE">
    <path class="cls-1" d="M562.8,411.79c-1.93,3.01-3.7,6.06-5.28,9.14"/>
  </g>
  <g id="LINE-84" data-name="LINE">
    <line class="cls-1" x1="557.52" y1="420.93" x2="554.77" y2="420.6"/>
  </g>
  <g id="ELLIPSE-76" data-name="ELLIPSE">
    <path class="cls-1" d="M533.87,414.68c-1.93,3.01-3.7,6.06-5.28,9.14"/>
  </g>
  <g id="LINE-85" data-name="LINE">
    <line class="cls-1" x1="538.23" y1="422.86" x2="535.48" y2="422.53"/>
  </g>
  <g id="ELLIPSE-77" data-name="ELLIPSE">
    <path class="cls-1" d="M538.23,422.86c-1.64-2.76-3.1-5.49-4.36-8.18"/>
  </g>
  <g id="ELLIPSE-78" data-name="ELLIPSE">
    <path class="cls-1" d="M543.51,413.71c-1.93,3.01-3.7,6.06-5.28,9.14"/>
  </g>
  <g id="LINE-86" data-name="LINE">
    <line class="cls-1" x1="547.87" y1="421.89" x2="545.13" y2="421.56"/>
  </g>
  <g id="ELLIPSE-79" data-name="ELLIPSE">
    <path class="cls-1" d="M547.87,421.89c-1.64-2.76-3.1-5.49-4.36-8.18"/>
  </g>
  <g id="ELLIPSE-80" data-name="ELLIPSE">
    <path class="cls-1" d="M557.52,420.93c-1.64-2.76-3.1-5.49-4.36-8.18"/>
  </g>
  <g id="ELLIPSE-81" data-name="ELLIPSE">
    <path class="cls-1" d="M553.16,412.75c-1.93,3.01-3.7,6.06-5.28,9.14"/>
  </g>
  <g id="LINE-87" data-name="LINE">
    <line class="cls-1" x1="520.2" y1="395.21" x2="646.66" y2="340.88"/>
  </g>
  <g id="LINE-88" data-name="LINE">
    <line class="cls-1" x1="787.33" y1="359.34" x2="798.2" y2="358.25"/>
  </g>
  <g id="SPLINE-22" data-name="SPLINE">
    <path class="cls-1" d="M890.4,316.55c-33.88,11.98-68.36,26.27-103.07,42.79"/>
  </g>
  <g id="LINE-89" data-name="LINE">
    <line class="cls-1" x1="1533.03" y1="252.41" x2="1532.33" y2="253.67"/>
  </g>
  <g id="SPLINE-23" data-name="SPLINE">
    <path class="cls-1" d="M1287.11,286.85c-12.49-1.39-25.55-3.57-39.95-5.9"/>
  </g>
  <g id="LINE-90" data-name="LINE">
    <line class="cls-1" x1="1369.92" y1="278.58" x2="1287.11" y2="286.85"/>
  </g>
  <g id="ARC-23" data-name="ARC">
    <path class="cls-1" d="M1369.92,278.58c10.85-3.56,21.55-7.53,32.08-11.9"/>
  </g>
  <g id="LINE-91" data-name="LINE">
    <line class="cls-1" x1="1532.33" y1="253.67" x2="1402" y2="266.68"/>
  </g>
  <g id="ELLIPSE-82" data-name="ELLIPSE">
    <path class="cls-1" d="M485.87,419.96c4.28-8.42,16.05-16.9,34.33-24.76"/>
  </g>
  <g id="ELLIPSE-83" data-name="ELLIPSE">
    <path class="cls-1" d="M567.16,419.97c-1.64-2.76-3.1-5.49-4.36-8.18"/>
  </g>
  <g id="ELLIPSE-84" data-name="ELLIPSE">
    <path class="cls-1" d="M572.45,410.82c-1.93,3.01-3.7,6.06-5.28,9.14"/>
  </g>
  <g id="ELLIPSE-85" data-name="ELLIPSE">
    <path class="cls-1" d="M576.81,419.01c-1.64-2.76-3.1-5.49-4.36-8.18"/>
  </g>
  <g id="ELLIPSE-86" data-name="ELLIPSE">
    <path class="cls-1" d="M582.09,409.86c-1.93,3.01-3.7,6.06-5.28,9.14"/>
  </g>
  <g id="ELLIPSE-87" data-name="ELLIPSE">
    <path class="cls-1" d="M586.46,418.04c-1.64-2.76-3.1-5.49-4.36-8.18"/>
  </g>
  <g id="ELLIPSE-88" data-name="ELLIPSE">
    <path class="cls-1" d="M591.74,408.9c-1.93,3.01-3.7,6.06-5.28,9.14"/>
  </g>
  <g id="ELLIPSE-89" data-name="ELLIPSE">
    <path class="cls-1" d="M596.1,417.08c-1.64-2.76-3.1-5.49-4.36-8.18"/>
  </g>
  <g id="ELLIPSE-90" data-name="ELLIPSE">
    <path class="cls-1" d="M601.38,407.94c-1.93,3.01-3.7,6.06-5.28,9.14"/>
  </g>
  <g id="ELLIPSE-91" data-name="ELLIPSE">
    <path class="cls-1" d="M605.75,416.12c-1.64-2.76-3.1-5.49-4.36-8.18"/>
  </g>
  <g id="ELLIPSE-92" data-name="ELLIPSE">
    <path class="cls-1" d="M611.03,406.97c-1.93,3.01-3.7,6.06-5.28,9.14"/>
  </g>
  <g id="ELLIPSE-93" data-name="ELLIPSE">
    <path class="cls-1" d="M615.39,415.15c-1.64-2.76-3.1-5.49-4.36-8.18"/>
  </g>
  <g id="ELLIPSE-94" data-name="ELLIPSE">
    <path class="cls-1" d="M620.67,406.01c-1.93,3.01-3.7,6.06-5.28,9.14"/>
  </g>
  <g id="ELLIPSE-95" data-name="ELLIPSE">
    <path class="cls-1" d="M625.04,414.19c-1.64-2.76-3.1-5.49-4.36-8.18"/>
  </g>
  <g id="ELLIPSE-96" data-name="ELLIPSE">
    <path class="cls-1" d="M630.32,405.05c-1.93,3.01-3.7,6.06-5.28,9.14"/>
  </g>
  <g id="ELLIPSE-97" data-name="ELLIPSE">
    <path class="cls-1" d="M634.68,413.23c-1.64-2.76-3.1-5.49-4.36-8.18"/>
  </g>
  <g id="ELLIPSE-98" data-name="ELLIPSE">
    <path class="cls-1" d="M639.96,404.09c-1.93,3.01-3.7,6.06-5.28,9.14"/>
  </g>
  <g id="ELLIPSE-99" data-name="ELLIPSE">
    <path class="cls-1" d="M644.33,412.27c-1.64-2.76-3.1-5.49-4.36-8.18"/>
  </g>
  <g id="ELLIPSE-100" data-name="ELLIPSE">
    <path class="cls-1" d="M649.61,403.12c-1.93,3.01-3.7,6.06-5.28,9.14"/>
  </g>
  <g id="LINE-92" data-name="LINE">
    <line class="cls-1" x1="748.27" y1="393.28" x2="649.61" y2="403.12"/>
  </g>
  <g id="ELLIPSE-101" data-name="ELLIPSE">
    <path class="cls-1" d="M1533.03,252.41c2.84-5.15,5.28-10.7,7.31-16.56"/>
  </g>
  <g id="LINE-93" data-name="LINE">
    <line class="cls-1" x1="1177.7" y1="272.04" x2="1540.34" y2="235.85"/>
  </g>
  <g id="ARC-24" data-name="ARC">
    <path class="cls-1" d="M1247.16,280.94c-23.02-3.86-46.19-6.83-69.46-8.9"/>
  </g>
  <g id="LINE-94" data-name="LINE">
    <line class="cls-1" x1="684.54" y1="321.26" x2="685.1" y2="269.33"/>
  </g>
  <g id="LINE-95" data-name="LINE">
    <line class="cls-1" x1="644.33" y1="412.27" x2="641.58" y2="411.94"/>
  </g>
  <g id="ARC-25" data-name="ARC">
    <path class="cls-1" d="M1177.7,272.04c-72.26-6.51-145.13.77-214.48,21.41"/>
  </g>
  <g id="LINE-96" data-name="LINE">
    <line class="cls-1" x1="1514.36" y1="261.33" x2="1513.05" y2="261.46"/>
  </g>
  <g id="LINE-97" data-name="LINE">
    <line class="cls-1" x1="1382.42" y1="274.5" x2="1381.61" y2="274.58"/>
  </g>
  <g id="LINE-98" data-name="LINE">
    <line class="cls-1" x1="1514.42" y1="255.46" x2="1514.36" y2="261.33"/>
  </g>
  <g id="LINE-99" data-name="LINE">
    <line class="cls-1" x1="1540.9" y1="183.91" x2="1540.34" y2="235.85"/>
  </g>
  <g id="ELLIPSE-102" data-name="ELLIPSE">
    <path class="cls-1" d="M435.7,420.57c3.13.37,7.29.62,11.71.7"/>
  </g>
  <g id="LINE-100" data-name="LINE">
    <line class="cls-1" x1="435.7" y1="420.57" x2="424.41" y2="419.21"/>
  </g>
  <g id="LINE-101" data-name="LINE">
    <line class="cls-1" x1="567.16" y1="419.97" x2="564.42" y2="419.64"/>
  </g>
  <g id="LINE-102" data-name="LINE">
    <line class="cls-1" x1="576.81" y1="419.01" x2="574.06" y2="418.68"/>
  </g>
  <g id="LINE-103" data-name="LINE">
    <line class="cls-1" x1="586.46" y1="418.04" x2="583.71" y2="417.71"/>
  </g>
  <g id="LINE-104" data-name="LINE">
    <line class="cls-1" x1="596.1" y1="417.08" x2="593.35" y2="416.75"/>
  </g>
  <g id="LINE-105" data-name="LINE">
    <line class="cls-1" x1="605.75" y1="416.12" x2="603" y2="415.79"/>
  </g>
  <g id="LINE-106" data-name="LINE">
    <line class="cls-1" x1="615.39" y1="415.15" x2="612.64" y2="414.83"/>
  </g>
  <g id="LINE-107" data-name="LINE">
    <line class="cls-1" x1="625.04" y1="414.19" x2="622.29" y2="413.86"/>
  </g>
  <g id="LINE-108" data-name="LINE">
    <line class="cls-1" x1="634.68" y1="413.23" x2="631.93" y2="412.9"/>
  </g>
  <g id="ELLIPSE-103" data-name="ELLIPSE">
    <path class="cls-1" d="M745.88,344.55c-.61,3.71-2.35,7.02-4.76,9.1"/>
  </g>
  <g id="SPLINE-24" data-name="SPLINE">
    <path class="cls-1" d="M401.44,374.79c2.01-2.51,4.01-5.04,5.96-7.6"/>
  </g>
  <g id="ARC-26" data-name="ARC">
    <path class="cls-1" d="M409.45,364.44c-.68.92-1.36,1.84-2.06,2.76"/>
  </g>
  <g id="LINE-109" data-name="LINE">
    <line class="cls-1" x1="766.41" y1="184.25" x2="1452.42" y2="115.77"/>
  </g>
  <g id="LINE-110" data-name="LINE">
    <line class="cls-1" x1="1284.12" y1="286.5" x2="1282.4" y2="286.29"/>
  </g>
  <g id="LINE-111" data-name="LINE">
    <line class="cls-1" x1="399.81" y1="378.38" x2="399.6" y2="397.83"/>
  </g>
  <g id="ELLIPSE-104" data-name="ELLIPSE">
    <path class="cls-1" d="M1455.01,423.85c2.88-10.59,10.1-18.28,18.21-19.39,10.91-1.5,19.88,9.23,20.03,23.97.15,14.74-8.58,27.91-19.5,29.41s-19.88-9.23-20.03-23.97"/>
  </g>
  <g id="ELLIPSE-105" data-name="ELLIPSE">
    <ellipse class="cls-1" cx="1479.9" cy="431.92" rx="35.72" ry="25.98" transform="translate(848.42 1838.3) rotate(-82.09)"/>
  </g>
  <g id="SPLINE-25" data-name="SPLINE">
    <path class="cls-1" d="M770.12,544.05c12.44-11.66,25.62-22.78,39.32-33.18,33.24-25.26,69.41-46.13,105.68-61.8,36.27-15.67,72.63-26.21,107.17-32.47,34.54-6.25,67.25-8.27,97.3-7.75,30.05.52,57.41,3.55,82.79,7.18,25.38,3.63,48.77,7.96,73.06,10.71,12.14,1.38,24.56,2.34,37.54,2.34,12.98,0,26.54-1.01,40.31-3.47,13.77-2.46,27.66-6.4,41.01-11.42,13.34-5.03,26.1-11.06,38.41-17.48,4.56-2.38,9.13-4.76,13.69-7.14,12.49-6.51,24.99-13.02,37.48-19.54,15.71-8.19,31.43-16.38,47.14-24.57"/>
  </g>
  <g id="SPLINE-26" data-name="SPLINE">
    <polyline class="cls-1" points="770.12 544.05 771.07 544.39 772.03 544.73 772.99 545.06 773.94 545.4 774.89 545.73 775.85 546.07 776.8 546.4 777.75 546.73 778.7 547.06 779.64 547.38 780.59 547.71 781.53 548.04 782.48 548.36 783.42 548.69 784.36 549.01 785.3 549.33 786.24 549.65 787.18 549.97 788.12 550.29 789.05 550.6 789.99 550.92 790.92 551.23 791.85 551.55 792.78 551.86 793.71 552.17 794.64 552.48 795.57 552.79 796.5 553.1 797.42 553.4 798.35 553.71 799.27 554.01 800.19 554.32 801.11 554.62 802.03 554.92 802.95 555.22 803.87 555.52 804.78 555.82 805.7 556.11 806.61 556.41 807.53 556.7 808.44 556.99 809.35 557.29 810.26 557.58 811.17 557.87 812.08 558.16 812.98 558.44 813.89 558.73 814.8 559.02 815.7 559.3 816.6 559.58 817.5 559.87 818.4 560.15 819.3 560.43 820.2 560.71 821.1 560.98 821.99 561.26 822.89 561.54 823.78 561.81 824.68 562.08 825.57 562.36 826.46 562.63 827.35 562.9 828.24 563.17 829.13 563.43 830.01 563.7 830.9 563.97 831.78 564.23 832.67 564.5 833.55 564.76 834.43 565.02 835.31 565.28 836.19 565.54 837.07 565.8 837.95 566.06 838.83 566.31 839.7 566.57 840.58 566.82 841.45 567.08 842.33 567.33 843.2 567.58 844.07 567.83 844.94 568.08 845.81 568.33 846.68 568.57 847.54 568.82 848.41 569.06 849.27 569.31 850.14 569.55 851 569.79 851.87 570.03 852.73 570.27 853.59 570.51 854.45 570.75 855.31 570.98 856.16 571.22 857.02 571.45 857.88 571.69 858.73 571.92 859.58 572.15 860.44 572.38 861.29 572.61 862.14 572.84 862.99 573.06 863.84 573.29 864.69 573.52 865.54 573.74 866.38 573.96 867.23 574.18 868.07 574.41 868.92 574.63 869.76 574.85 870.6 575.06 871.44 575.28 872.29 575.5 873.12 575.71 873.96 575.93 874.8 576.14 875.64 576.35 876.47 576.56 877.31 576.77 878.14 576.98 878.98 577.19 879.81 577.4 880.64 577.6 881.47 577.81 882.3 578.01 883.13 578.21 883.96 578.42 884.79 578.62 885.61 578.82 886.44 579.02 887.26 579.21 888.09 579.41 888.91 579.61 889.73 579.8 890.56 580 891.38 580.19 892.2 580.38 893.02 580.57 893.83 580.77 894.65 580.95 895.47 581.14 896.28 581.33 897.1 581.52 897.91 581.7 898.73 581.89 899.54 582.07 900.35 582.25 901.16 582.44 901.97 582.62 902.78 582.8 903.59 582.98 904.4 583.15 905.2 583.33 906.01 583.51 906.81 583.68 907.62 583.86 908.42 584.03 909.23 584.2 910.03 584.37 910.83 584.54 911.63 584.71 912.43 584.88 913.23 585.05 914.03 585.22 914.82 585.38 915.62 585.55 916.42 585.71 917.21 585.87 918.01 586.04 918.8 586.2 919.59 586.36 920.39 586.52 921.18 586.67 921.97 586.83 922.76 586.99 923.55 587.14 924.34 587.3 925.12 587.45 925.91 587.61 926.7 587.76 927.48 587.91 928.27 588.06 929.05 588.21 929.83 588.36 930.62 588.5 931.4 588.65 932.18 588.8 932.96 588.94 933.74 589.09 934.52 589.23 935.3 589.37 936.08 589.51 936.85 589.65 937.63 589.79 938.4 589.93 939.18 590.07 939.95 590.2 940.73 590.34 941.5 590.48 942.27 590.61 943.04 590.74 943.81 590.88 944.58 591.01 945.35 591.14 946.12 591.27 946.89 591.4 947.65 591.52 948.42 591.65 949.19 591.78 949.95 591.9 950.72 592.03 951.48 592.15 952.24 592.28 953 592.4 953.77 592.52 954.53 592.64 955.29 592.76 956.05 592.88 956.81 592.99 957.56 593.11 958.32 593.23 959.08 593.34 959.83 593.46 960.59 593.57 961.35 593.68 962.1 593.8 962.85 593.91 963.61 594.02 964.36 594.13 965.11 594.23 965.86 594.34 966.61 594.45 967.36 594.56 968.11 594.66 968.86 594.77 969.61 594.87 970.35 594.97 971.1 595.07 971.85 595.17 972.59 595.28 973.34 595.37 974.08 595.47 974.82 595.57 975.57 595.67 976.31 595.76 977.05 595.86 977.79 595.95 978.53 596.05 979.27 596.14 980.01 596.23 980.75 596.33 981.49 596.42 982.22 596.51 982.96 596.59 983.7 596.68 984.43 596.77 985.17 596.86 985.9 596.94 986.63 597.03 987.37 597.11 988.1 597.2 988.83 597.28 989.56 597.36 991.02 597.52 992.48 597.68 993.94 597.84 995.39 597.99 996.84 598.14 998.29 598.28 999.74 598.43 1001.18 598.57 1002.62 598.7 1004.06 598.84 1005.5 598.97 1006.93 599.1 1008.37 599.22 1009.8 599.34 1011.22 599.46 1012.65 599.58 1014.07 599.69 1015.49 599.8 1016.91 599.91 1018.33 600.01 1019.75 600.12 1021.16 600.21 1022.57 600.31 1023.98 600.4 1025.38 600.49 1026.79 600.58 1028.19 600.67 1029.59 600.75 1030.98 600.83 1032.38 600.9 1033.77 600.98 1035.16 601.05 1036.55 601.11 1037.94 601.18 1039.32 601.24 1040.71 601.3 1042.09 601.36 1043.46 601.41 1044.84 601.47 1046.21 601.52 1047.59 601.56 1048.96 601.61 1050.33 601.65 1051.69 601.69 1053.06 601.72 1054.42 601.76 1055.78 601.79 1057.13 601.82 1058.49 601.84 1059.84 601.87 1061.2 601.89 1062.55 601.91 1063.89 601.92 1065.24 601.94 1066.58 601.95 1067.92 601.96 1069.26 601.96 1070.6 601.97 1071.94 601.97 1073.27 601.97 1074.6 601.96 1075.93 601.96 1077.26 601.95 1078.59 601.94 1079.91 601.93 1081.23 601.91 1082.55 601.89 1083.87 601.87 1085.19 601.85 1086.5 601.83 1087.82 601.8 1089.13 601.77 1090.43 601.74 1091.74 601.71 1093.05 601.68 1094.35 601.64 1095.65 601.6 1096.95 601.56 1098.25 601.51 1099.54 601.47 1100.83 601.42 1102.12 601.37 1103.41 601.32 1104.7 601.26 1105.99 601.21 1107.27 601.15 1108.55 601.09 1109.83 601.02 1111.11 600.96 1112.38 600.89 1113.66 600.82 1114.93 600.75 1116.2 600.68 1117.47 600.61 1118.73 600.53 1120 600.45 1121.26 600.37 1122.52 600.29 1123.78 600.21 1125.04 600.12 1126.29 600.03 1127.54 599.94 1128.8 599.85 1130.04 599.76 1131.29 599.66 1132.54 599.57 1133.78 599.47 1135.02 599.37 1136.26 599.26 1137.5 599.16 1138.73 599.05 1139.97 598.95 1141.2 598.84 1142.43 598.73 1143.65 598.62 1144.88 598.5 1146.1 598.39 1147.32 598.27 1148.54 598.15 1149.76 598.03 1150.98 597.91 1152.19 597.78 1153.4 597.66 1154.61 597.53 1155.82 597.4 1157.03 597.27 1158.23 597.14 1159.43 597.01 1160.63 596.87 1161.83 596.74 1163.02 596.6 1164.22 596.46 1165.41 596.32 1166.6 596.18 1167.79 596.04 1168.97 595.89 1170.16 595.75 1171.34 595.6 1172.52 595.45 1173.69 595.3 1174.87 595.15 1176.04 595 1177.21 594.84 1178.38 594.69 1179.55 594.53 1180.71 594.37 1181.88 594.21 1183.04 594.05 1184.2 593.89 1185.35 593.73 1186.51 593.56 1187.66 593.4 1188.81 593.23 1189.95 593.07 1191.1 592.9 1192.24 592.73 1193.38 592.56 1194.52 592.39 1195.66 592.21 1196.79 592.04 1197.93 591.86 1199.06 591.69 1200.18 591.51 1201.31 591.33 1202.43 591.15 1203.55 590.97 1204.67 590.79 1205.79 590.61 1206.9 590.43 1208.01 590.24 1209.12 590.06 1210.23 589.87 1211.34 589.68 1212.44 589.5 1213.54 589.31 1214.64 589.12 1215.73 588.93 1216.83 588.74 1217.92 588.55 1219 588.35 1220.09 588.16 1221.17 587.97 1222.25 587.77 1223.33 587.58 1224.41 587.38 1225.48 587.18 1226.55 586.98 1227.62 586.79 1228.69 586.59 1229.75 586.39 1230.81 586.19 1231.87 585.99 1232.93 585.78 1233.98 585.58 1235.03 585.38 1236.08 585.18 1237.12 584.97 1238.17 584.77 1239.21 584.56 1240.25 584.36 1241.28 584.15 1242.31 583.94 1243.34 583.74 1244.37 583.53 1245.39 583.32 1246.41 583.11 1247.43 582.9 1248.45 582.69 1249.46 582.48 1250.47 582.27 1251.48 582.06 1252.49 581.85 1253.49 581.64 1254.49 581.43 1255.48 581.22 1256.48 581.01 1257.47 580.79 1258.45 580.58 1259.44 580.37 1260.42 580.15 1261.4 579.94 1262.38 579.73 1263.35 579.51 1264.32 579.3 1265.28 579.09 1266.25 578.87 1267.21 578.66 1268.17 578.44 1269.12 578.23 1270.07 578.01 1271.02 577.8 1271.97 577.58 1272.91 577.37 1273.85 577.15 1274.78 576.94 1275.72 576.72 1276.64 576.51 1277.57 576.29 1278.49 576.08 1279.41 575.86 1280.33 575.65 1281.24 575.43 1282.15 575.22 1283.06 575 1283.96 574.79 1284.86 574.58 1285.76 574.36 1286.65 574.15 1287.54 573.93 1288.42 573.72 1289.31 573.51 1290.19 573.29 1291.06 573.08 1291.93 572.87 1292.8 572.65 1293.67 572.44 1294.53 572.23 1295.38 572.02 1296.24 571.81 1297.09 571.6 1297.93 571.39 1298.78 571.17 1299.62 570.96 1300.45 570.76 1301.28 570.55 1302.11 570.34 1302.93 570.13 1303.75 569.92 1304.57 569.71 1305.38 569.51 1306.19 569.3 1307 569.09 1307.8 568.89 1308.59 568.68 1308.99 568.58 1309.39 568.48 1309.78 568.38 1310.17 568.28 1310.57 568.17 1310.96 568.07 1311.35 567.97 1311.74 567.87 1312.13 567.77 1312.52 567.67 1312.9 567.57 1313.29 567.47 1313.67 567.37 1314.06 567.27 1314.44 567.17 1314.82 567.07 1315.2 566.97 1315.58 566.87 1315.96 566.77 1316.34 566.67 1316.71 566.57 1317.09 566.47 1317.46 566.37 1317.84 566.27 1318.21 566.17 1318.58 566.08 1318.95 565.98 1319.32 565.88 1319.69 565.78 1320.05 565.68 1320.42 565.59 1320.78 565.49 1321.15 565.39 1321.51 565.3 1321.87 565.2 1322.23 565.1 1322.59 565.01 1322.95 564.91 1323.3 564.82 1323.66 564.72 1324.01 564.63 1324.37 564.53 1324.72 564.44 1325.07 564.34 1325.42 564.25 1325.77 564.15 1326.12 564.06 1326.47 563.97 1326.81 563.87 1327.16 563.78 1327.5 563.69 1327.84 563.59 1328.18 563.5 1328.52 563.41 1328.86 563.32 1329.2 563.22 1329.54 563.13 1329.87 563.04 1330.2 562.95 1330.54 562.86 1330.87 562.77 1331.2 562.68 1331.53 562.59 1331.86 562.5 1332.18 562.41 1332.51 562.32 1332.83 562.23 1333.16 562.14 1333.48 562.05 1333.8 561.96 1334.12 561.88 1334.44 561.79 1334.76 561.7 1335.07 561.61 1335.39 561.53 1335.7 561.44 1336.01 561.35 1336.33 561.27 1336.64 561.18 1336.94 561.1 1337.25 561.01 1337.56 560.93 1337.86 560.84 1338.17 560.76 1338.47 560.67 1338.77 560.59 1339.07 560.51 1339.37 560.42 1339.67 560.34 1339.96 560.26 1340.26 560.17 1340.55 560.09 1340.84 560.01 1341.14 559.93 1341.43 559.85 1341.71 559.77 1342 559.69 1342.29 559.61 1342.57 559.53 1342.86 559.45 1343.14 559.37 1343.42 559.29 1343.7 559.21 1343.98 559.13 1344.25 559.06 1344.53 558.98 1344.8 558.9 1345.07 558.82 1345.35 558.75 1345.62 558.67 1345.88 558.6 1346.15 558.52 1346.42 558.44 1346.68 558.37 1346.95 558.3 1347.21 558.22 1347.47 558.15 1347.73 558.07 1347.99 558 1348.24 557.93 1348.5 557.86 1348.75 557.78 1349 557.71 1349.25 557.64 1349.5 557.57 1349.75 557.5 1350 557.43 1350.24 557.36 1350.49 557.29 1350.73 557.22 1350.97 557.15 1351.21 557.09 1351.45 557.02 1351.68 556.95 1351.92 556.88 1352.15 556.82 1352.39 556.75 1352.62 556.68 1352.85 556.62 1353.07 556.55 1353.3 556.49 1353.53 556.42 1353.75 556.36 1353.97 556.3 1354.19 556.23 1354.41 556.17 1354.63 556.11 1354.85 556.05 1355.06 555.99 1355.27 555.93 1355.49 555.86 1355.7 555.8 1355.9 555.74 1356.11 555.69 1356.32 555.63 1356.52 555.57 1356.72 555.51 1356.93 555.45 1357.13 555.4 1357.32 555.34 1357.52 555.28 1357.71 555.23 1357.91 555.17 1358.1 555.12 1358.29 555.06 1358.48 555.01 1358.67 554.95 1358.85 554.9 1359.04 554.85 1359.22 554.8 1359.4 554.74 1359.58 554.69 1359.76 554.64 1359.93 554.59 1360.11 554.54 1360.28 554.49 1360.45 554.44 1360.62 554.39 1360.79 554.35 1360.96 554.3 1361.12 554.25 1361.29 554.2 1361.45 554.16 1361.61 554.11 1361.77 554.07 1361.92 554.02 1362.08 553.98 1362.23 553.93 1362.38 553.89 1362.53 553.85 1362.68 553.81 1362.83 553.76 1362.97 553.72 1363.12 553.68 1363.26 553.64 1363.4 553.6 1363.54 553.56 1363.68 553.52 1363.81 553.49 1363.94 553.45 1364.08 553.41 1364.21 553.37 1364.33 553.34 1364.46 553.3 1364.59 553.27 1364.71 553.23 1364.83 553.2 1364.95 553.16 1365.07 553.13 1365.18 553.1 1365.3 553.07 1365.41 553.03"/>
  </g>
  <g id="LINE-112" data-name="LINE">
    <line class="cls-1" x1="1365.41" y1="553.03" x2="1529.45" y2="490.77"/>
  </g>
  <g id="LINE-113" data-name="LINE">
    <line class="cls-1" x1="1529.45" y1="490.77" x2="1531.01" y2="345.47"/>
  </g>
  <g id="SPLINE-27" data-name="SPLINE">
    <path class="cls-1" d="M1501.99,256.7c1.89.31,3.76.86,5.58,1.63,3.86,1.64,7.43,4.27,10.52,7.75,3.09,3.49,5.63,7.76,7.47,12.57.98,2.55,1.75,5.23,2.31,8s.9,5.61,1.02,8.49"/>
  </g>
  <g id="ARC-27" data-name="ARC">
    <path class="cls-1" d="M1464.98,260.39c-37.66,5.39-74.93,13.09-111.57,23.04"/>
  </g>
  <g id="SPLINE-28" data-name="SPLINE">
    <path class="cls-1" d="M1353.41,283.44c-4.12,1.13-8.22,2.06-12.34,2.8-8.71,1.56-17.52,2.25-26.74,2.25-8.62,0-17.61-.61-27.16-1.64"/>
  </g>
  <g id="SPLINE-29" data-name="SPLINE">
    <path class="cls-1" d="M1282.4,286.29c-19.9-2.39-42.32-6.42-68.13-10.11-5.21-.75-10.57-1.48-16.05-2.17"/>
  </g>
  <g id="ARC-28" data-name="ARC">
    <path class="cls-1" d="M846.65,333.19c-77.9,40.46-145.85,96.63-199.23,164.68"/>
  </g>
  <g id="SPLINE-30" data-name="SPLINE">
    <path class="cls-1" d="M647.42,497.87c40.56,16.5,81.78,32.25,122.7,46.18"/>
  </g>
  <g id="SPLINE-31" data-name="SPLINE">
    <path class="cls-1" d="M1531.01,345.47c-.7-16.78-1.4-33.55-2.1-50.33"/>
  </g>
  <g id="ARC-29" data-name="ARC">
    <path class="cls-1" d="M1435.18,263.37c-18.3,3.3-36.5,7.16-54.55,11.57"/>
  </g>
  <g id="SPLINE-32" data-name="SPLINE">
    <path class="cls-1" d="M1363.65,279.21c-4.68,1.22-9.38,2.48-14.09,3.77"/>
  </g>
  <g id="ARC-30" data-name="ARC">
    <path class="cls-1" d="M825.49,342.03c-70.72,39.64-132.57,92.46-181.93,155.37"/>
  </g>
  <g id="SPLINE-33" data-name="SPLINE">
    <path class="cls-1" d="M1287.5,286.81c8.01.77,15.62,1.22,22.98,1.22,9.22,0,18.02-.69,26.74-2.25,4.12-.74,8.22-1.66,12.34-2.8"/>
  </g>
  <g id="LINE-114" data-name="LINE">
    <line class="cls-1" x1="643.57" y1="497.41" x2="647.42" y2="497.87"/>
  </g>
  <g id="SPLINE-34" data-name="SPLINE">
    <path class="cls-1" d="M750.86,541.74c-36.22-13.36-72.26-28.53-107.3-44.33"/>
  </g>
  <g id="ELLIPSE-106" data-name="ELLIPSE">
    <ellipse class="cls-1" cx="1473.48" cy="431.15" rx="14.73" ry="10.71" transform="translate(843.65 1831.28) rotate(-82.09)"/>
  </g>
  <g id="ELLIPSE-107" data-name="ELLIPSE">
    <path class="cls-1" d="M1465.56,442.03c5.31-4.31,7.42-13.36,4.7-20.22-.45-1.14-1.02-2.18-1.7-3.08"/>
  </g>
  <g id="SPLINE-35" data-name="SPLINE">
    <polyline class="cls-1" points="964.09 594.33 963.35 594.24 962.62 594.15 961.88 594.06 961.14 593.97 960.4 593.88 959.67 593.79 958.93 593.7 958.19 593.6 957.45 593.51 956.71 593.41 955.97 593.32 955.23 593.22 954.48 593.12 953.74 593.02 953 592.92 952.25 592.82 951.51 592.72 950.76 592.62 950.02 592.51 949.27 592.41 948.52 592.31 947.77 592.2 947.03 592.09 946.28 591.99 945.53 591.88 944.78 591.77 944.03 591.66 943.27 591.55 942.52 591.44 941.77 591.33 941.01 591.21 940.26 591.1 939.5 590.99 938.75 590.87 937.99 590.75 937.24 590.64 936.48 590.52 935.72 590.4 934.96 590.28 934.2 590.16 933.44 590.04 932.68 589.92 931.92 589.79 931.15 589.67 930.39 589.55 929.63 589.42 928.86 589.29 928.1 589.17 927.33 589.04 926.57 588.91 925.8 588.78 925.03 588.65 924.26 588.52 923.49 588.38 922.72 588.25 921.95 588.12 921.18 587.98 920.41 587.85 919.63 587.71 918.86 587.57 918.09 587.43 917.31 587.29 916.54 587.15 915.76 587.01 914.98 586.87 914.21 586.73 913.43 586.58 912.65 586.44 911.87 586.29 911.09 586.14 910.31 586 909.52 585.85 908.74 585.7 907.96 585.55 907.17 585.4 906.39 585.25 905.6 585.09 904.82 584.94 904.03 584.78 903.24 584.63 902.45 584.47 901.66 584.31 900.87 584.16 900.08 584 899.29 583.84 898.5 583.68 897.7 583.51 896.91 583.35 896.12 583.19 895.32 583.02 894.52 582.86 893.73 582.69 892.93 582.52 892.13 582.35 891.33 582.18 890.53 582.01 889.73 581.84 888.93 581.67 888.13 581.5 887.32 581.32 886.52 581.15 885.71 580.97 884.91 580.79 884.1 580.62 883.29 580.44 882.49 580.26 881.68 580.08 880.87 579.89 880.06 579.71 879.25 579.53 878.43 579.34 877.62 579.16 876.81 578.97 875.99 578.78 875.18 578.6 874.36 578.41 873.55 578.22 872.73 578.03 871.91 577.83 871.09 577.64 870.27 577.45 869.45 577.25 868.63 577.05 867.8 576.86 866.98 576.66 866.16 576.46 865.33 576.26 864.5 576.06 863.68 575.86 862.85 575.65 862.02 575.45 861.19 575.25 860.36 575.04 859.53 574.83 858.7 574.62 857.87 574.42 857.03 574.21 856.2 573.99 855.36 573.78 854.53 573.57 853.69 573.36 852.85 573.14 852.01 572.93 851.17 572.71 850.33 572.49 849.49 572.27 848.65 572.05 847.8 571.83 846.96 571.61 846.11 571.39 845.27 571.16 844.42 570.94 843.57 570.71 842.72 570.48 841.87 570.26 841.02 570.03 840.17 569.8 839.32 569.57 838.46 569.33 837.61 569.1 836.75 568.87 835.9 568.63 835.04 568.4 834.18 568.16 833.32 567.92 832.46 567.68 831.6 567.44 830.74 567.2 829.88 566.96 829.01 566.71 828.15 566.47 827.28 566.22 826.42 565.98 825.55 565.73 824.68 565.48 823.81 565.23 822.94 564.98 822.07 564.73 821.2 564.48 820.32 564.22 819.45 563.97 818.57 563.71 817.7 563.46 816.82 563.2 815.94 562.94 815.06 562.68 814.18 562.42 813.3 562.15 812.42 561.89 811.53 561.63 810.65 561.36 809.76 561.09 808.88 560.83 807.99 560.56 807.1 560.29 806.21 560.02 805.32 559.75 804.43 559.47 803.54 559.2 802.64 558.92 801.75 558.65 800.85 558.37 799.96 558.09 799.06 557.81 798.16 557.53 797.26 557.25 796.36 556.97 795.46 556.68 794.56 556.4 793.65 556.11 792.75 555.82 791.84 555.54 790.93 555.25 790.02 554.96 789.12 554.66 788.2 554.37 787.29 554.08 786.38 553.78 785.47 553.49 784.55 553.19 783.64 552.89 782.72 552.59 781.8 552.29 780.88 551.99 779.96 551.69 779.04 551.38 778.12 551.08 777.19 550.77 776.27 550.47 775.34 550.16 774.41 549.85 773.49 549.54 772.56 549.23 771.63 548.91 770.7 548.6 769.76 548.28 768.83 547.97 767.89 547.65 766.96 547.33 766.02 547.01 765.08 546.69 764.14 546.37 763.2 546.05 762.26 545.72 761.32 545.4 760.37 545.07 759.43 544.74 758.48 544.41 757.53 544.08 756.58 543.75 755.63 543.42 754.68 543.09 753.73 542.75 752.77 542.42 751.82 542.08 750.86 541.74"/>
  </g>
  <g id="LINE-115" data-name="LINE">
    <line class="cls-1" x1="964.09" y1="594.33" x2="983.34" y2="596.64"/>
  </g>
  <g id="LINE-116" data-name="LINE">
    <line class="cls-1" x1="424.15" y1="443.5" x2="408.29" y2="445.08"/>
  </g>
  <g id="LINE-117" data-name="LINE">
    <line class="cls-1" x1="406" y1="444.02" x2="398.47" y2="434.44"/>
  </g>
  <g id="LINE-118" data-name="LINE">
    <line class="cls-1" x1="393.32" y1="390.34" x2="397.39" y2="395.52"/>
  </g>
  <g id="ELLIPSE-108" data-name="ELLIPSE">
    <path class="cls-1" d="M397.39,395.52c3.02,3.84,7.15,5.76,11.48,5.32"/>
  </g>
  <g id="LINE-119" data-name="LINE">
    <line class="cls-1" x1="408.87" y1="400.85" x2="424.62" y2="399.27"/>
  </g>
  <g id="LINE-120" data-name="LINE">
    <line class="cls-1" x1="390.75" y1="433.91" x2="391.22" y2="389.91"/>
  </g>
  <g id="LINE-121" data-name="LINE">
    <line class="cls-1" x1="396.17" y1="433.37" x2="390.75" y2="433.91"/>
  </g>
  <g id="ELLIPSE-109" data-name="ELLIPSE">
    <path class="cls-1" d="M396.17,433.37c.87-.09,1.69.3,2.3,1.06"/>
  </g>
  <g id="ELLIPSE-110" data-name="ELLIPSE">
    <path class="cls-1" d="M406,444.02c.6.77,1.43,1.15,2.3,1.06"/>
  </g>
  <g id="ELLIPSE-111" data-name="ELLIPSE">
    <path class="cls-1" d="M393.32,390.34c-.3-.38-.71-.58-1.15-.53"/>
  </g>
  <g id="LINE-122" data-name="LINE">
    <line class="cls-1" x1="391.22" y1="389.91" x2="392.17" y2="389.81"/>
  </g>
  <g id="LINE-123" data-name="LINE">
    <line class="cls-1" x1="384.45" y1="388.89" x2="384.45" y2="388.96"/>
  </g>
  <g id="ELLIPSE-112" data-name="ELLIPSE">
    <path class="cls-1" d="M384.45,388.87c.09,0,.17.01.26.02"/>
  </g>
  <g id="ELLIPSE-113" data-name="ELLIPSE">
    <path class="cls-1" d="M44.42,452.16c-.87,1.07-1.01,2.82-.29,3.92"/>
  </g>
  <g id="ELLIPSE-114" data-name="ELLIPSE">
    <path class="cls-1" d="M37.36,455.27c-.71-1.1-.58-2.85.29-3.92"/>
  </g>
  <g id="ELLIPSE-115" data-name="ELLIPSE">
    <path class="cls-1" d="M64.58,456.98c-.92,3-.95,6.27-.07,9.09"/>
  </g>
  <g id="ARC-31" data-name="ARC">
    <path class="cls-1" d="M64.51,466.07c-2.91-2.52-5.95-4.9-9.09-7.14"/>
  </g>
  <g id="ELLIPSE-116" data-name="ELLIPSE">
    <path class="cls-1" d="M92.1,454.23c-.92,3-.95,6.27-.07,9.09"/>
  </g>
  <g id="ARC-32" data-name="ARC">
    <path class="cls-1" d="M92.03,463.32c-2.91-2.52-5.95-4.9-9.09-7.14"/>
  </g>
  <g id="ELLIPSE-117" data-name="ELLIPSE">
    <path class="cls-1" d="M119.62,451.49c-.92,3-.95,6.27-.07,9.09"/>
  </g>
  <g id="ARC-33" data-name="ARC">
    <path class="cls-1" d="M119.55,460.57c-2.91-2.52-5.95-4.9-9.09-7.14"/>
  </g>
  <g id="ELLIPSE-118" data-name="ELLIPSE">
    <path class="cls-1" d="M147.14,448.74c-.92,3-.95,6.27-.07,9.09"/>
  </g>
  <g id="ARC-34" data-name="ARC">
    <path class="cls-1" d="M137.98,450.69c3.15,2.24,6.18,4.62,9.09,7.14"/>
  </g>
  <g id="ELLIPSE-119" data-name="ELLIPSE">
    <path class="cls-1" d="M174.66,445.99c-.92,3-.95,6.27-.07,9.09"/>
  </g>
  <g id="ARC-35" data-name="ARC">
    <path class="cls-1" d="M165.5,447.94c3.15,2.24,6.18,4.62,9.09,7.14"/>
  </g>
  <g id="ELLIPSE-120" data-name="ELLIPSE">
    <path class="cls-1" d="M202.19,443.25c-.92,3-.95,6.27-.07,9.09"/>
  </g>
  <g id="ARC-36" data-name="ARC">
    <path class="cls-1" d="M202.11,452.33c-2.91-2.52-5.95-4.9-9.09-7.14"/>
  </g>
  <g id="ELLIPSE-121" data-name="ELLIPSE">
    <path class="cls-1" d="M229.71,440.5c-.92,3-.95,6.27-.07,9.09"/>
  </g>
  <g id="ARC-37" data-name="ARC">
    <path class="cls-1" d="M220.54,442.45c3.15,2.24,6.18,4.62,9.09,7.14"/>
  </g>
  <g id="ELLIPSE-122" data-name="ELLIPSE">
    <path class="cls-1" d="M257.23,437.75c-.92,3-.95,6.27-.07,9.09"/>
  </g>
  <g id="ARC-38" data-name="ARC">
    <path class="cls-1" d="M248.06,439.7c3.15,2.24,6.18,4.62,9.09,7.14"/>
  </g>
  <g id="ELLIPSE-123" data-name="ELLIPSE">
    <path class="cls-1" d="M284.75,435.01c-.92,3-.95,6.27-.07,9.09"/>
  </g>
  <g id="ARC-39" data-name="ARC">
    <path class="cls-1" d="M284.67,444.09c-2.91-2.52-5.95-4.9-9.09-7.14"/>
  </g>
  <g id="ELLIPSE-124" data-name="ELLIPSE">
    <path class="cls-1" d="M312.27,432.26c-.92,3-.95,6.27-.07,9.09"/>
  </g>
  <g id="ARC-40" data-name="ARC">
    <path class="cls-1" d="M312.19,441.35c-2.91-2.52-5.95-4.9-9.09-7.14"/>
  </g>
  <g id="ELLIPSE-125" data-name="ELLIPSE">
    <path class="cls-1" d="M339.79,429.51c-.92,3-.95,6.27-.07,9.09"/>
  </g>
  <g id="ARC-41" data-name="ARC">
    <path class="cls-1" d="M339.71,438.6c-2.91-2.52-5.95-4.9-9.09-7.14"/>
  </g>
  <g id="ELLIPSE-126" data-name="ELLIPSE">
    <path class="cls-1" d="M367.16,426.78c-.88,2.88-.94,6.02-.17,8.76"/>
  </g>
  <g id="ARC-42" data-name="ARC">
    <path class="cls-1" d="M366.99,435.54c-2.88-2.46-5.88-4.79-8.98-6.98"/>
  </g>
  <g id="ELLIPSE-127" data-name="ELLIPSE">
    <path class="cls-1" d="M384.45,388.96c0,.07-.24.13-.68.17"/>
  </g>
  <g id="ELLIPSE-128" data-name="ELLIPSE">
    <path class="cls-1" d="M390.75,433.91c-.33,0-.63.03-.87.05"/>
  </g>
  <g id="ELLIPSE-129" data-name="ELLIPSE">
    <path class="cls-1" d="M390.34,389.96c.25-.02.55-.04.87-.05"/>
  </g>
  <g id="LINE-124" data-name="LINE">
    <line class="cls-1" x1="381.11" y1="434.84" x2="389.87" y2="433.96"/>
  </g>
  <g id="SPLINE-36" data-name="SPLINE">
    <path class="cls-1" d="M381.11,434.84c-.74-.19-1.48-.38-2.23-.56"/>
  </g>
  <g id="ARC-43" data-name="ARC">
    <path class="cls-1" d="M378.05,434.17c.28.01.57.04.84.1"/>
  </g>
  <g id="SPLINE-37" data-name="SPLINE">
    <path class="cls-1" d="M378.05,434.17c-1-.06-2-.12-3-.18"/>
  </g>
  <g id="LINE-125" data-name="LINE">
    <line class="cls-1" x1="62.34" y1="421.21" x2="383.77" y2="389.13"/>
  </g>
  <g id="LINE-126" data-name="LINE">
    <line class="cls-1" x1="69.1" y1="422.02" x2="62.34" y2="421.21"/>
  </g>
  <g id="LINE-127" data-name="LINE">
    <line class="cls-1" x1="390.34" y1="389.96" x2="69.1" y2="422.02"/>
  </g>
  <g id="LINE-128" data-name="LINE">
    <line class="cls-1" x1="69.1" y1="422.02" x2="44.42" y2="452.16"/>
  </g>
  <g id="LINE-129" data-name="LINE">
    <line class="cls-1" x1="44.13" y1="456.08" x2="47.87" y2="461.85"/>
  </g>
  <g id="ELLIPSE-130" data-name="ELLIPSE">
    <path class="cls-1" d="M48.7,457.46c-.44,1.42-.71,2.9-.83,4.39"/>
  </g>
  <g id="ELLIPSE-131" data-name="ELLIPSE">
    <path class="cls-1" d="M48.72,457.39s-.01.04-.02.07"/>
  </g>
  <g id="SPLINE-38" data-name="SPLINE">
    <path class="cls-1" d="M48.72,457.39c.08-.24.18-.47.3-.67s.28-.41.44-.57c.21-.21.45-.36.7-.46.13-.05.26-.08.39-.09"/>
  </g>
  <g id="LINE-130" data-name="LINE">
    <line class="cls-1" x1="53.93" y1="455.26" x2="50.55" y2="455.6"/>
  </g>
  <g id="ELLIPSE-132" data-name="ELLIPSE">
    <path class="cls-1" d="M56.11,456.16c-.6-.66-1.37-.97-2.18-.89"/>
  </g>
  <g id="ELLIPSE-133" data-name="ELLIPSE">
    <path class="cls-1" d="M64.51,466.07c-2.71-3.44-5.51-6.74-8.4-9.91"/>
  </g>
  <g id="ELLIPSE-134" data-name="ELLIPSE">
    <path class="cls-1" d="M67.69,453.89c-1.35.13-2.57,1.35-3.11,3.09"/>
  </g>
  <g id="LINE-131" data-name="LINE">
    <line class="cls-1" x1="71.11" y1="453.55" x2="67.69" y2="453.89"/>
  </g>
  <g id="SPLINE-39" data-name="SPLINE">
    <path class="cls-1" d="M71.11,453.55c.3-.03.6.02.88.14s.54.3.76.55"/>
  </g>
  <g id="ELLIPSE-135" data-name="ELLIPSE">
    <path class="cls-1" d="M75.58,457.5c-.93-1.1-1.88-2.19-2.83-3.27"/>
  </g>
  <g id="ELLIPSE-136" data-name="ELLIPSE">
    <path class="cls-1" d="M76.22,454.71c-.28.91-.49,1.84-.64,2.79"/>
  </g>
  <g id="ELLIPSE-137" data-name="ELLIPSE">
    <path class="cls-1" d="M76.24,454.64s-.01.04-.02.07"/>
  </g>
  <g id="SPLINE-40" data-name="SPLINE">
    <path class="cls-1" d="M76.24,454.64c.08-.24.18-.47.3-.67s.28-.41.44-.57c.21-.21.45-.36.7-.46.13-.05.26-.08.39-.09"/>
  </g>
  <g id="LINE-132" data-name="LINE">
    <line class="cls-1" x1="81.45" y1="452.52" x2="78.07" y2="452.85"/>
  </g>
  <g id="ELLIPSE-138" data-name="ELLIPSE">
    <path class="cls-1" d="M83.63,453.41c-.6-.66-1.37-.97-2.18-.89"/>
  </g>
  <g id="ELLIPSE-139" data-name="ELLIPSE">
    <path class="cls-1" d="M92.03,463.32c-2.71-3.44-5.51-6.74-8.4-9.91"/>
  </g>
  <g id="ELLIPSE-140" data-name="ELLIPSE">
    <path class="cls-1" d="M95.21,451.14c-1.35.13-2.57,1.35-3.11,3.09"/>
  </g>
  <g id="LINE-133" data-name="LINE">
    <line class="cls-1" x1="98.63" y1="450.8" x2="95.21" y2="451.14"/>
  </g>
  <g id="SPLINE-41" data-name="SPLINE">
    <path class="cls-1" d="M98.63,450.8c.3-.03.6.02.88.14s.54.3.76.55"/>
  </g>
  <g id="ELLIPSE-141" data-name="ELLIPSE">
    <path class="cls-1" d="M103.1,454.76c-.93-1.1-1.88-2.19-2.83-3.27"/>
  </g>
  <g id="ELLIPSE-142" data-name="ELLIPSE">
    <path class="cls-1" d="M103.74,451.96c-.28.91-.49,1.84-.64,2.79"/>
  </g>
  <g id="ELLIPSE-143" data-name="ELLIPSE">
    <path class="cls-1" d="M103.76,451.9s-.01.04-.02.07"/>
  </g>
  <g id="SPLINE-42" data-name="SPLINE">
    <path class="cls-1" d="M103.76,451.9c.08-.24.18-.47.3-.67s.28-.41.44-.57c.21-.21.45-.36.7-.46.13-.05.26-.08.39-.09"/>
  </g>
  <g id="LINE-134" data-name="LINE">
    <line class="cls-1" x1="108.97" y1="449.77" x2="105.59" y2="450.11"/>
  </g>
  <g id="ELLIPSE-144" data-name="ELLIPSE">
    <path class="cls-1" d="M111.15,450.66c-.6-.66-1.37-.97-2.18-.89"/>
  </g>
  <g id="ELLIPSE-145" data-name="ELLIPSE">
    <path class="cls-1" d="M119.55,460.57c-2.71-3.44-5.51-6.74-8.4-9.91"/>
  </g>
  <g id="ELLIPSE-146" data-name="ELLIPSE">
    <path class="cls-1" d="M122.73,448.4c-1.35.13-2.57,1.35-3.11,3.09"/>
  </g>
  <g id="LINE-135" data-name="LINE">
    <line class="cls-1" x1="126.15" y1="448.05" x2="122.73" y2="448.4"/>
  </g>
  <g id="SPLINE-43" data-name="SPLINE">
    <path class="cls-1" d="M126.15,448.05c.3-.03.6.02.88.14s.54.3.76.55"/>
  </g>
  <g id="ELLIPSE-147" data-name="ELLIPSE">
    <path class="cls-1" d="M130.62,452.01c-.93-1.1-1.88-2.19-2.83-3.27"/>
  </g>
  <g id="ELLIPSE-148" data-name="ELLIPSE">
    <path class="cls-1" d="M131.26,449.22c-.28.91-.49,1.84-.64,2.79"/>
  </g>
  <g id="ELLIPSE-149" data-name="ELLIPSE">
    <path class="cls-1" d="M131.28,449.15s-.01.04-.02.07"/>
  </g>
  <g id="SPLINE-44" data-name="SPLINE">
    <path class="cls-1" d="M131.28,449.15c.08-.24.18-.47.3-.67s.28-.41.44-.57c.21-.21.45-.36.7-.46.13-.05.26-.08.39-.09"/>
  </g>
  <g id="LINE-136" data-name="LINE">
    <line class="cls-1" x1="136.49" y1="447.02" x2="133.11" y2="447.36"/>
  </g>
  <g id="ELLIPSE-150" data-name="ELLIPSE">
    <path class="cls-1" d="M138.67,447.92c-.6-.66-1.37-.97-2.18-.89"/>
  </g>
  <g id="ELLIPSE-151" data-name="ELLIPSE">
    <path class="cls-1" d="M147.07,457.83c-2.71-3.44-5.51-6.74-8.4-9.91"/>
  </g>
  <g id="ELLIPSE-152" data-name="ELLIPSE">
    <path class="cls-1" d="M150.25,445.65c-1.35.13-2.57,1.35-3.11,3.09"/>
  </g>
  <g id="LINE-137" data-name="LINE">
    <line class="cls-1" x1="153.67" y1="445.31" x2="150.25" y2="445.65"/>
  </g>
  <g id="SPLINE-45" data-name="SPLINE">
    <path class="cls-1" d="M153.67,445.31c.3-.03.6.02.88.14s.54.3.76.55"/>
  </g>
  <g id="ELLIPSE-153" data-name="ELLIPSE">
    <path class="cls-1" d="M158.14,449.26c-.93-1.1-1.88-2.19-2.83-3.27"/>
  </g>
  <g id="ELLIPSE-154" data-name="ELLIPSE">
    <path class="cls-1" d="M158.78,446.47c-.28.91-.49,1.84-.64,2.79"/>
  </g>
  <g id="ELLIPSE-155" data-name="ELLIPSE">
    <path class="cls-1" d="M158.8,446.4s-.01.04-.02.07"/>
  </g>
  <g id="SPLINE-46" data-name="SPLINE">
    <path class="cls-1" d="M158.8,446.4c.08-.24.18-.47.3-.67s.28-.41.44-.57c.21-.21.45-.36.7-.46.13-.05.26-.08.39-.09"/>
  </g>
  <g id="LINE-138" data-name="LINE">
    <line class="cls-1" x1="164.01" y1="444.28" x2="160.63" y2="444.61"/>
  </g>
  <g id="ELLIPSE-156" data-name="ELLIPSE">
    <path class="cls-1" d="M166.19,445.17c-.6-.66-1.37-.97-2.18-.89"/>
  </g>
  <g id="ELLIPSE-157" data-name="ELLIPSE">
    <path class="cls-1" d="M174.59,455.08c-2.71-3.44-5.51-6.74-8.4-9.91"/>
  </g>
  <g id="ELLIPSE-158" data-name="ELLIPSE">
    <path class="cls-1" d="M177.77,442.9c-1.35.13-2.57,1.35-3.11,3.09"/>
  </g>
  <g id="LINE-139" data-name="LINE">
    <line class="cls-1" x1="181.19" y1="442.56" x2="177.77" y2="442.9"/>
  </g>
  <g id="SPLINE-47" data-name="SPLINE">
    <path class="cls-1" d="M181.19,442.56c.3-.03.6.02.88.14s.54.3.76.55"/>
  </g>
  <g id="ELLIPSE-159" data-name="ELLIPSE">
    <path class="cls-1" d="M185.66,446.52c-.93-1.1-1.88-2.19-2.83-3.27"/>
  </g>
  <g id="ELLIPSE-160" data-name="ELLIPSE">
    <path class="cls-1" d="M186.3,443.72c-.28.91-.49,1.84-.64,2.79"/>
  </g>
  <g id="ELLIPSE-161" data-name="ELLIPSE">
    <path class="cls-1" d="M186.32,443.66s-.01.04-.02.07"/>
  </g>
  <g id="SPLINE-48" data-name="SPLINE">
    <path class="cls-1" d="M186.32,443.66c.08-.24.18-.47.3-.67s.28-.41.44-.57c.21-.21.45-.36.7-.46.13-.05.26-.08.39-.09"/>
  </g>
  <g id="LINE-140" data-name="LINE">
    <line class="cls-1" x1="191.53" y1="441.53" x2="188.15" y2="441.87"/>
  </g>
  <g id="ELLIPSE-162" data-name="ELLIPSE">
    <path class="cls-1" d="M193.71,442.42c-.6-.66-1.37-.97-2.18-.89"/>
  </g>
  <g id="ELLIPSE-163" data-name="ELLIPSE">
    <path class="cls-1" d="M202.11,452.33c-2.71-3.44-5.51-6.74-8.4-9.91"/>
  </g>
  <g id="ELLIPSE-164" data-name="ELLIPSE">
    <path class="cls-1" d="M205.29,440.16c-1.35.13-2.57,1.35-3.11,3.09"/>
  </g>
  <g id="LINE-141" data-name="LINE">
    <line class="cls-1" x1="208.71" y1="439.81" x2="205.29" y2="440.16"/>
  </g>
  <g id="SPLINE-49" data-name="SPLINE">
    <path class="cls-1" d="M208.71,439.81c.3-.03.6.02.88.14s.54.3.76.55"/>
  </g>
  <g id="ELLIPSE-165" data-name="ELLIPSE">
    <path class="cls-1" d="M213.18,443.77c-.93-1.1-1.88-2.19-2.83-3.27"/>
  </g>
  <g id="ELLIPSE-166" data-name="ELLIPSE">
    <path class="cls-1" d="M213.82,440.98c-.28.91-.49,1.84-.64,2.79"/>
  </g>
  <g id="ELLIPSE-167" data-name="ELLIPSE">
    <path class="cls-1" d="M213.84,440.91s-.01.04-.02.07"/>
  </g>
  <g id="SPLINE-50" data-name="SPLINE">
    <path class="cls-1" d="M213.84,440.91c.08-.24.18-.47.3-.67s.28-.41.44-.57c.21-.21.45-.36.7-.46.13-.05.26-.08.39-.09"/>
  </g>
  <g id="LINE-142" data-name="LINE">
    <line class="cls-1" x1="219.05" y1="438.78" x2="215.67" y2="439.12"/>
  </g>
  <g id="ELLIPSE-168" data-name="ELLIPSE">
    <path class="cls-1" d="M221.23,439.68c-.6-.66-1.37-.97-2.18-.89"/>
  </g>
  <g id="ELLIPSE-169" data-name="ELLIPSE">
    <path class="cls-1" d="M229.63,449.59c-2.71-3.44-5.51-6.74-8.4-9.91"/>
  </g>
  <g id="ELLIPSE-170" data-name="ELLIPSE">
    <path class="cls-1" d="M232.81,437.41c-1.35.13-2.57,1.35-3.11,3.09"/>
  </g>
  <g id="LINE-143" data-name="LINE">
    <line class="cls-1" x1="236.23" y1="437.07" x2="232.81" y2="437.41"/>
  </g>
  <g id="SPLINE-51" data-name="SPLINE">
    <path class="cls-1" d="M236.23,437.07c.3-.03.6.02.88.14s.54.3.76.55"/>
  </g>
  <g id="ELLIPSE-171" data-name="ELLIPSE">
    <path class="cls-1" d="M240.7,441.02c-.93-1.1-1.88-2.19-2.83-3.27"/>
  </g>
  <g id="ELLIPSE-172" data-name="ELLIPSE">
    <path class="cls-1" d="M241.34,438.23c-.28.91-.49,1.84-.64,2.79"/>
  </g>
  <g id="ELLIPSE-173" data-name="ELLIPSE">
    <path class="cls-1" d="M241.36,438.16s-.01.04-.02.07"/>
  </g>
  <g id="SPLINE-52" data-name="SPLINE">
    <path class="cls-1" d="M241.36,438.16c.08-.24.18-.47.3-.67s.28-.41.44-.57c.21-.21.45-.36.7-.46.13-.05.26-.08.39-.09"/>
  </g>
  <g id="LINE-144" data-name="LINE">
    <line class="cls-1" x1="246.57" y1="436.04" x2="243.19" y2="436.37"/>
  </g>
  <g id="ELLIPSE-174" data-name="ELLIPSE">
    <path class="cls-1" d="M248.75,436.93c-.6-.66-1.37-.97-2.18-.89"/>
  </g>
  <g id="ELLIPSE-175" data-name="ELLIPSE">
    <path class="cls-1" d="M257.15,446.84c-2.71-3.44-5.51-6.74-8.4-9.91"/>
  </g>
  <g id="ELLIPSE-176" data-name="ELLIPSE">
    <path class="cls-1" d="M260.33,434.66c-1.35.13-2.57,1.35-3.11,3.09"/>
  </g>
  <g id="LINE-145" data-name="LINE">
    <line class="cls-1" x1="263.75" y1="434.32" x2="260.33" y2="434.66"/>
  </g>
  <g id="SPLINE-53" data-name="SPLINE">
    <path class="cls-1" d="M263.75,434.32c.3-.03.6.02.88.14s.54.3.76.55"/>
  </g>
  <g id="ELLIPSE-177" data-name="ELLIPSE">
    <path class="cls-1" d="M268.22,438.28c-.93-1.1-1.88-2.19-2.83-3.27"/>
  </g>
  <g id="ELLIPSE-178" data-name="ELLIPSE">
    <path class="cls-1" d="M268.86,435.48c-.28.91-.49,1.84-.64,2.79"/>
  </g>
  <g id="ELLIPSE-179" data-name="ELLIPSE">
    <path class="cls-1" d="M268.88,435.41s-.01.04-.02.07"/>
  </g>
  <g id="SPLINE-54" data-name="SPLINE">
    <path class="cls-1" d="M268.88,435.41c.08-.24.18-.47.3-.67s.28-.41.44-.57c.21-.21.45-.36.7-.46.13-.05.26-.08.39-.09"/>
  </g>
  <g id="LINE-146" data-name="LINE">
    <line class="cls-1" x1="274.09" y1="433.29" x2="270.71" y2="433.63"/>
  </g>
  <g id="ELLIPSE-180" data-name="ELLIPSE">
    <path class="cls-1" d="M276.27,434.18c-.6-.66-1.37-.97-2.18-.89"/>
  </g>
  <g id="ELLIPSE-181" data-name="ELLIPSE">
    <path class="cls-1" d="M284.67,444.09c-2.71-3.44-5.51-6.74-8.4-9.91"/>
  </g>
  <g id="ELLIPSE-182" data-name="ELLIPSE">
    <path class="cls-1" d="M287.85,431.92c-1.35.13-2.57,1.35-3.11,3.09"/>
  </g>
  <g id="LINE-147" data-name="LINE">
    <line class="cls-1" x1="291.27" y1="431.57" x2="287.85" y2="431.92"/>
  </g>
  <g id="SPLINE-55" data-name="SPLINE">
    <path class="cls-1" d="M291.27,431.57c.3-.03.6.02.88.14s.54.3.76.55"/>
  </g>
  <g id="ELLIPSE-183" data-name="ELLIPSE">
    <path class="cls-1" d="M295.74,435.53c-.93-1.1-1.88-2.19-2.83-3.27"/>
  </g>
  <g id="ELLIPSE-184" data-name="ELLIPSE">
    <path class="cls-1" d="M296.38,432.74c-.28.91-.49,1.84-.64,2.79"/>
  </g>
  <g id="ELLIPSE-185" data-name="ELLIPSE">
    <path class="cls-1" d="M296.4,432.67s-.01.04-.02.07"/>
  </g>
  <g id="SPLINE-56" data-name="SPLINE">
    <path class="cls-1" d="M296.4,432.67c.08-.24.18-.47.3-.67s.28-.41.44-.57c.21-.21.45-.36.7-.46.13-.05.26-.08.39-.09"/>
  </g>
  <g id="LINE-148" data-name="LINE">
    <line class="cls-1" x1="301.61" y1="430.54" x2="298.23" y2="430.88"/>
  </g>
  <g id="ELLIPSE-186" data-name="ELLIPSE">
    <path class="cls-1" d="M303.79,431.44c-.6-.66-1.37-.97-2.18-.89"/>
  </g>
  <g id="ELLIPSE-187" data-name="ELLIPSE">
    <path class="cls-1" d="M312.19,441.35c-2.71-3.44-5.51-6.74-8.4-9.91"/>
  </g>
  <g id="ELLIPSE-188" data-name="ELLIPSE">
    <path class="cls-1" d="M315.37,429.17c-1.35.13-2.57,1.35-3.11,3.09"/>
  </g>
  <g id="LINE-149" data-name="LINE">
    <line class="cls-1" x1="318.79" y1="428.83" x2="315.37" y2="429.17"/>
  </g>
  <g id="SPLINE-57" data-name="SPLINE">
    <path class="cls-1" d="M318.79,428.83c.3-.03.6.02.88.14s.54.3.76.55"/>
  </g>
  <g id="ELLIPSE-189" data-name="ELLIPSE">
    <path class="cls-1" d="M323.26,432.78c-.93-1.1-1.88-2.19-2.83-3.27"/>
  </g>
  <g id="ELLIPSE-190" data-name="ELLIPSE">
    <path class="cls-1" d="M323.9,429.99c-.28.91-.49,1.84-.64,2.79"/>
  </g>
  <g id="ELLIPSE-191" data-name="ELLIPSE">
    <path class="cls-1" d="M323.92,429.92s-.01.04-.02.07"/>
  </g>
  <g id="SPLINE-58" data-name="SPLINE">
    <path class="cls-1" d="M323.92,429.92c.08-.24.18-.47.3-.67s.28-.41.44-.57c.21-.21.45-.36.7-.46.13-.05.26-.08.39-.09"/>
  </g>
  <g id="LINE-150" data-name="LINE">
    <line class="cls-1" x1="329.13" y1="427.79" x2="325.75" y2="428.13"/>
  </g>
  <g id="ELLIPSE-192" data-name="ELLIPSE">
    <path class="cls-1" d="M331.31,428.69c-.6-.66-1.37-.97-2.18-.89"/>
  </g>
  <g id="ELLIPSE-193" data-name="ELLIPSE">
    <path class="cls-1" d="M339.71,438.6c-2.71-3.44-5.51-6.74-8.4-9.91"/>
  </g>
  <g id="ELLIPSE-194" data-name="ELLIPSE">
    <path class="cls-1" d="M342.89,426.42c-1.35.13-2.57,1.35-3.11,3.09"/>
  </g>
  <g id="LINE-151" data-name="LINE">
    <line class="cls-1" x1="346.31" y1="426.08" x2="342.89" y2="426.42"/>
  </g>
  <g id="SPLINE-59" data-name="SPLINE">
    <path class="cls-1" d="M346.31,426.08c.3-.03.6.02.88.14s.54.3.76.55"/>
  </g>
  <g id="ELLIPSE-195" data-name="ELLIPSE">
    <path class="cls-1" d="M350.78,430.04c-.93-1.1-1.88-2.19-2.83-3.27"/>
  </g>
  <g id="ELLIPSE-196" data-name="ELLIPSE">
    <path class="cls-1" d="M351.42,427.24c-.28.91-.49,1.84-.64,2.79"/>
  </g>
  <g id="ELLIPSE-197" data-name="ELLIPSE">
    <path class="cls-1" d="M351.44,427.17s-.01.04-.02.07"/>
  </g>
  <g id="SPLINE-60" data-name="SPLINE">
    <path class="cls-1" d="M351.44,427.17c.08-.24.18-.47.3-.67s.28-.41.44-.57c.21-.21.45-.36.7-.46.13-.05.26-.08.39-.09"/>
  </g>
  <g id="LINE-152" data-name="LINE">
    <line class="cls-1" x1="356.65" y1="425.05" x2="353.27" y2="425.39"/>
  </g>
  <g id="ELLIPSE-198" data-name="ELLIPSE">
    <path class="cls-1" d="M358.83,425.94c-.6-.66-1.37-.97-2.18-.89"/>
  </g>
  <g id="ELLIPSE-199" data-name="ELLIPSE">
    <path class="cls-1" d="M366.99,435.54c-2.64-3.33-5.36-6.53-8.16-9.6"/>
  </g>
  <g id="ELLIPSE-200" data-name="ELLIPSE">
    <path class="cls-1" d="M372.44,424.58c-1.37-1.5-3.47-1.1-4.7.9-.24.39-.44.83-.58,1.3"/>
  </g>
  <g id="ELLIPSE-201" data-name="ELLIPSE">
    <path class="cls-1" d="M381.11,434.84c-2.8-3.56-5.69-6.98-8.67-10.26"/>
  </g>
  <g id="ELLIPSE-202" data-name="ELLIPSE">
    <path class="cls-1" d="M374.81,433.97c.08.01.16.02.23.02"/>
  </g>
  <g id="ELLIPSE-203" data-name="ELLIPSE">
    <path class="cls-1" d="M367.75,425.47c2.42,2.74,4.77,5.57,7.06,8.5"/>
  </g>
  <g id="ELLIPSE-204" data-name="ELLIPSE">
    <path class="cls-1" d="M355.11,425.2c.98,1.1,1.94,2.22,2.9,3.36"/>
  </g>
  <g id="ELLIPSE-205" data-name="ELLIPSE">
    <path class="cls-1" d="M340.31,428.31c1.88,2.13,3.71,4.31,5.51,6.55"/>
  </g>
  <g id="ELLIPSE-206" data-name="ELLIPSE">
    <path class="cls-1" d="M327.59,427.95c1.02,1.15,2.03,2.33,3.03,3.51"/>
  </g>
  <g id="ELLIPSE-207" data-name="ELLIPSE">
    <path class="cls-1" d="M312.79,431.06c1.88,2.13,3.71,4.31,5.51,6.55"/>
  </g>
  <g id="ELLIPSE-208" data-name="ELLIPSE">
    <path class="cls-1" d="M300.07,430.7c1.02,1.15,2.03,2.33,3.03,3.51"/>
  </g>
  <g id="ELLIPSE-209" data-name="ELLIPSE">
    <path class="cls-1" d="M285.27,433.81c1.88,2.13,3.71,4.31,5.51,6.55"/>
  </g>
  <g id="ELLIPSE-210" data-name="ELLIPSE">
    <path class="cls-1" d="M272.55,433.44c1.02,1.15,2.03,2.33,3.03,3.51"/>
  </g>
  <g id="ELLIPSE-211" data-name="ELLIPSE">
    <path class="cls-1" d="M257.75,436.55c1.88,2.13,3.71,4.31,5.51,6.55"/>
  </g>
  <g id="ELLIPSE-212" data-name="ELLIPSE">
    <path class="cls-1" d="M245.03,436.19c1.02,1.15,2.03,2.33,3.03,3.51"/>
  </g>
  <g id="ELLIPSE-213" data-name="ELLIPSE">
    <path class="cls-1" d="M230.23,439.3c1.88,2.13,3.71,4.31,5.51,6.55"/>
  </g>
  <g id="ELLIPSE-214" data-name="ELLIPSE">
    <path class="cls-1" d="M217.51,438.94c1.02,1.15,2.03,2.33,3.03,3.51"/>
  </g>
  <g id="ELLIPSE-215" data-name="ELLIPSE">
    <path class="cls-1" d="M202.71,442.05c1.88,2.13,3.71,4.31,5.51,6.55"/>
  </g>
  <g id="ELLIPSE-216" data-name="ELLIPSE">
    <path class="cls-1" d="M189.99,441.68c1.02,1.15,2.03,2.33,3.03,3.51"/>
  </g>
  <g id="ELLIPSE-217" data-name="ELLIPSE">
    <path class="cls-1" d="M175.19,444.79c1.88,2.13,3.71,4.31,5.51,6.55"/>
  </g>
  <g id="ELLIPSE-218" data-name="ELLIPSE">
    <path class="cls-1" d="M162.47,444.43c1.02,1.15,2.03,2.33,3.03,3.51"/>
  </g>
  <g id="ELLIPSE-219" data-name="ELLIPSE">
    <path class="cls-1" d="M147.67,447.54c1.88,2.13,3.71,4.31,5.51,6.55"/>
  </g>
  <g id="ELLIPSE-220" data-name="ELLIPSE">
    <path class="cls-1" d="M134.95,447.18c1.02,1.15,2.03,2.33,3.03,3.51"/>
  </g>
  <g id="ELLIPSE-221" data-name="ELLIPSE">
    <path class="cls-1" d="M120.15,450.29c1.88,2.13,3.71,4.31,5.51,6.55"/>
  </g>
  <g id="ELLIPSE-222" data-name="ELLIPSE">
    <path class="cls-1" d="M107.43,449.92c1.02,1.15,2.03,2.33,3.03,3.51"/>
  </g>
  <g id="ELLIPSE-223" data-name="ELLIPSE">
    <path class="cls-1" d="M92.63,453.03c1.88,2.13,3.71,4.31,5.51,6.55"/>
  </g>
  <g id="ELLIPSE-224" data-name="ELLIPSE">
    <path class="cls-1" d="M79.91,452.67c1.02,1.15,2.03,2.33,3.03,3.51"/>
  </g>
  <g id="ELLIPSE-225" data-name="ELLIPSE">
    <path class="cls-1" d="M65.11,455.78c1.88,2.13,3.71,4.31,5.51,6.55"/>
  </g>
  <g id="ELLIPSE-226" data-name="ELLIPSE">
    <path class="cls-1" d="M52.39,455.42c1.02,1.15,2.03,2.33,3.03,3.51"/>
  </g>
  <g id="LINE-153" data-name="LINE">
    <line class="cls-1" x1="42.94" y1="463.86" x2="37.36" y2="455.27"/>
  </g>
  <g id="LINE-154" data-name="LINE">
    <line class="cls-1" x1="37.65" y1="451.35" x2="62.34" y2="421.21"/>
  </g>
  <g id="SPLINE-61" data-name="SPLINE">
    <path class="cls-1" d="M42.94,463.86c1.16-.64,2.78-1.3,4.94-2.01"/>
  </g>
  <g id="SPLINE-62" data-name="SPLINE">
    <path class="cls-1" d="M70.62,462.33c.72-1.38,2.04-2.61,3.3-3.61.53-.42,1.08-.83,1.66-1.22"/>
  </g>
  <g id="SPLINE-63" data-name="SPLINE">
    <path class="cls-1" d="M98.14,459.59c.72-1.38,2.04-2.61,3.3-3.61.53-.42,1.08-.83,1.66-1.22"/>
  </g>
  <g id="SPLINE-64" data-name="SPLINE">
    <path class="cls-1" d="M125.66,456.84c.72-1.38,2.04-2.61,3.3-3.61.53-.42,1.08-.83,1.66-1.22"/>
  </g>
  <g id="SPLINE-65" data-name="SPLINE">
    <path class="cls-1" d="M153.18,454.09c.72-1.38,2.04-2.61,3.3-3.61.53-.42,1.08-.83,1.66-1.22"/>
  </g>
  <g id="SPLINE-66" data-name="SPLINE">
    <path class="cls-1" d="M180.7,451.35c.72-1.38,2.04-2.61,3.3-3.61.53-.42,1.08-.83,1.66-1.22"/>
  </g>
  <g id="SPLINE-67" data-name="SPLINE">
    <path class="cls-1" d="M208.22,448.6c.72-1.38,2.04-2.61,3.3-3.61.53-.42,1.08-.83,1.66-1.22"/>
  </g>
  <g id="SPLINE-68" data-name="SPLINE">
    <path class="cls-1" d="M235.74,445.85c.72-1.38,2.04-2.61,3.3-3.61.53-.42,1.08-.83,1.66-1.22"/>
  </g>
  <g id="SPLINE-69" data-name="SPLINE">
    <path class="cls-1" d="M263.26,443.11c.72-1.38,2.04-2.61,3.3-3.61.53-.42,1.08-.83,1.66-1.22"/>
  </g>
  <g id="SPLINE-70" data-name="SPLINE">
    <path class="cls-1" d="M290.78,440.36c.72-1.38,2.04-2.61,3.3-3.61.53-.42,1.08-.83,1.66-1.22"/>
  </g>
  <g id="SPLINE-71" data-name="SPLINE">
    <path class="cls-1" d="M318.3,437.61c.72-1.38,2.04-2.61,3.3-3.61.53-.42,1.08-.83,1.66-1.22"/>
  </g>
  <g id="SPLINE-72" data-name="SPLINE">
    <path class="cls-1" d="M345.82,434.87c.72-1.38,2.04-2.61,3.3-3.61.53-.42,1.08-.83,1.66-1.22"/>
  </g>
  <g id="LINE-155" data-name="LINE">
    <line class="cls-1" x1="401.01" y1="444.27" x2="407.77" y2="445.08"/>
  </g>
  <g id="LINE-156" data-name="LINE">
    <line class="cls-1" x1="384.72" y1="388.89" x2="392.43" y2="389.81"/>
  </g>
  <g id="LINE-157" data-name="LINE">
    <line class="cls-1" x1="417.59" y1="398.46" x2="402.94" y2="399.92"/>
  </g>
  <g id="ARC-44" data-name="ARC">
    <path class="cls-1" d="M398.56,442.87c.58.77,1.46,1.27,2.44,1.4"/>
  </g>
  <g id="LINE-158" data-name="LINE">
    <line class="cls-1" x1="391.47" y1="433.84" x2="398.56" y2="442.87"/>
  </g>
  <g id="ELLIPSE-227" data-name="ELLIPSE">
    <path class="cls-1" d="M1470.86,423.65c1.74,6.67-.52,14.5-5.3,18.38"/>
  </g>
  <g id="LINE-159" data-name="LINE">
    <line class="cls-1" x1="1465.08" y1="422.96" x2="1470.86" y2="423.65"/>
  </g>
  <g id="ELLIPSE-228" data-name="ELLIPSE">
    <path class="cls-1" d="M790.33,555.05c-1.98,21.28-10,41.38-22.32,55.97"/>
  </g>
  <g id="ELLIPSE-229" data-name="ELLIPSE">
    <path class="cls-1" d="M771.89,626.09c-1.94.19-3.76-.81-4.96-2.72-2.2-3.51-1.72-9.04,1.08-12.34"/>
  </g>
  <g id="LINE-160" data-name="LINE">
    <line class="cls-1" x1="771.89" y1="626.09" x2="1027.21" y2="600.61"/>
  </g>
  <g id="LINE-161" data-name="LINE">
    <line class="cls-1" x1="1282.58" y1="575.12" x2="1507.13" y2="552.7"/>
  </g>
  <g id="LINE-162" data-name="LINE">
    <line class="cls-1" x1="1507.13" y1="552.7" x2="1507.7" y2="499.03"/>
  </g>
  <g id="LINE-163" data-name="LINE">
    <line class="cls-1" x1="1469.15" y1="419.6" x2="1467.43" y2="419.77"/>
  </g>
  <g id="LINE-164" data-name="LINE">
    <line class="cls-1" x1="746.82" y1="623.2" x2="770.87" y2="626.08"/>
  </g>
  <g id="LINE-165" data-name="LINE">
    <line class="cls-2" x1="691.45" y1="616.75" x2="672.19" y2="614.45"/>
  </g>
  <g id="LINE-166" data-name="LINE">
    <line class="cls-2" x1="520.12" y1="521.2" x2="603.55" y2="531.2"/>
  </g>
  <g id="LINE-167" data-name="LINE">
    <line class="cls-2" x1="627.27" y1="609.06" x2="608.01" y2="606.75"/>
  </g>
  <g id="LINE-168" data-name="LINE">
    <line class="cls-2" x1="627.27" y1="609.06" x2="632.5" y2="605.82"/>
  </g>
  <g id="LINE-169" data-name="LINE">
    <line class="cls-2" x1="459.12" y1="461.61" x2="455.14" y2="465.65"/>
  </g>
  <g id="LINE-170" data-name="LINE">
    <line class="cls-2" x1="696.68" y1="613.52" x2="691.45" y2="616.75"/>
  </g>
  <g id="LINE-171" data-name="LINE">
    <line class="cls-2" x1="608.79" y1="527.96" x2="603.55" y2="531.2"/>
  </g>
  <g id="LINE-172" data-name="LINE">
    <line class="cls-2" x1="592.76" y1="516.86" x2="588.29" y2="520.63"/>
  </g>
  <g id="LINE-173" data-name="LINE">
    <line class="cls-2" x1="454.03" y1="465.22" x2="457.71" y2="461.06"/>
  </g>
  <g id="LINE-174" data-name="LINE">
    <line class="cls-2" x1="435.32" y1="455.39" x2="438.24" y2="461.09"/>
  </g>
  <g id="LINE-175" data-name="LINE">
    <line class="cls-2" x1="404.35" y1="451.68" x2="407.26" y2="457.38"/>
  </g>
  <g id="LINE-176" data-name="LINE">
    <line class="cls-2" x1="588.29" y1="520.63" x2="504.86" y2="510.63"/>
  </g>
  <g id="LINE-177" data-name="LINE">
    <line class="cls-2" x1="435.65" y1="424.92" x2="435.32" y2="455.39"/>
  </g>
  <g id="LINE-178" data-name="LINE">
    <line class="cls-2" x1="404.35" y1="451.68" x2="404.42" y2="444.68"/>
  </g>
  <g id="LINE-179" data-name="LINE">
    <line class="cls-2" x1="512.68" y1="452.02" x2="698.92" y2="433.43"/>
  </g>
  <g id="LINE-180" data-name="LINE">
    <line class="cls-2" x1="457.71" y1="461.06" x2="458.03" y2="430.7"/>
  </g>
  <g id="LINE-181" data-name="LINE">
    <line class="cls-2" x1="789.49" y1="326.62" x2="781.92" y2="327.47"/>
  </g>
  <g id="LINE-182" data-name="LINE">
    <line class="cls-2" x1="763.09" y1="326.86" x2="761.95" y2="327.78"/>
  </g>
  <g id="LINE-183" data-name="LINE">
    <line class="cls-2" x1="781.1" y1="325.86" x2="788.56" y2="324.32"/>
  </g>
  <g id="LINE-184" data-name="LINE">
    <line class="cls-2" x1="789.49" y1="326.62" x2="890.4" y2="316.55"/>
  </g>
  <g id="LINE-185" data-name="LINE">
    <line class="cls-2" x1="646.66" y1="340.88" x2="759.48" y2="329.62"/>
  </g>
  <g id="LINE-186" data-name="LINE">
    <line class="cls-2" x1="784.46" y1="216.33" x2="768.48" y2="212.14"/>
  </g>
  <g id="LINE-187" data-name="LINE">
    <line class="cls-2" x1="610.27" y1="273.92" x2="616.5" y2="283.65"/>
  </g>
  <g id="LINE-188" data-name="LINE">
    <line class="cls-2" x1="774.98" y1="207.25" x2="791.55" y2="210.5"/>
  </g>
  <g id="LINE-189" data-name="LINE">
    <line class="cls-2" x1="690.84" y1="198.43" x2="696.32" y2="197.82"/>
  </g>
  <g id="LINE-190" data-name="LINE">
    <line class="cls-2" x1="409.13" y1="364.92" x2="407.4" y2="367.19"/>
  </g>
  <g id="LINE-191" data-name="LINE">
    <line class="cls-2" x1="405.09" y1="382.03" x2="410.93" y2="368.71"/>
  </g>
  <g id="LINE-192" data-name="LINE">
    <line class="cls-2" x1="436.07" y1="385.74" x2="441.9" y2="372.43"/>
  </g>
  <g id="LINE-193" data-name="LINE">
    <line class="cls-2" x1="458.57" y1="380.21" x2="451.46" y2="370"/>
  </g>
  <g id="LINE-194" data-name="LINE">
    <line class="cls-2" x1="600.06" y1="291.22" x2="591.51" y2="281.98"/>
  </g>
  <g id="LINE-195" data-name="LINE">
    <line class="cls-2" x1="453.55" y1="368.81" x2="462.1" y2="378.05"/>
  </g>
  <g id="LINE-196" data-name="LINE">
    <line class="cls-2" x1="614.98" y1="284.09" x2="608.53" y2="274.4"/>
  </g>
  <g id="LINE-197" data-name="LINE">
    <line class="cls-2" x1="592.95" y1="281.1" x2="601.49" y2="290.32"/>
  </g>
  <g id="LINE-198" data-name="LINE">
    <line class="cls-2" x1="791.55" y1="210.5" x2="1521.12" y2="137.68"/>
  </g>
  <g id="LINE-199" data-name="LINE">
    <line class="cls-2" x1="1540.9" y1="183.91" x2="685.1" y2="269.33"/>
  </g>
  <g id="LINE-200" data-name="LINE">
    <line class="cls-2" x1="496.28" y1="270.57" x2="591.51" y2="281.98"/>
  </g>
  <g id="LINE-201" data-name="LINE">
    <line class="cls-2" x1="608.53" y1="274.4" x2="506.94" y2="262.22"/>
  </g>
  <g id="LINE-202" data-name="LINE">
    <line class="cls-2" x1="520.2" y1="395.21" x2="781.55" y2="369.12"/>
  </g>
  <g id="LINE-203" data-name="LINE">
    <line class="cls-2" x1="1247.16" y1="280.94" x2="1533.03" y2="252.41"/>
  </g>
  <g id="LINE-204" data-name="LINE">
    <line class="cls-2" x1="458.08" y1="426.35" x2="458.57" y2="380.21"/>
  </g>
  <g id="LINE-205" data-name="LINE">
    <line class="cls-2" x1="404.9" y1="399.73" x2="405.09" y2="382.03"/>
  </g>
  <g id="LINE-206" data-name="LINE">
    <line class="cls-2" x1="436.07" y1="385.74" x2="435.7" y2="420.57"/>
  </g>
  <g id="SPLINE-73" data-name="SPLINE">
    <path class="cls-2" d="M1349.56,282.98c.64.08,1.28.15,1.93.23.64.08,1.28.15,1.93.23"/>
  </g>
  <g id="LINE-207" data-name="LINE">
    <line class="cls-2" x1="398.47" y1="434.44" x2="392.58" y2="433.73"/>
  </g>
  <g id="LINE-208" data-name="LINE">
    <line class="cls-2" x1="391.84" y1="433.8" x2="399.23" y2="443.21"/>
  </g>
  <g id="LINE-209" data-name="LINE">
    <line class="cls-2" x1="399.23" y1="443.21" x2="406" y2="444.02"/>
  </g>
  <g id="LINE-210" data-name="LINE">
    <line class="cls-2" x1="403.72" y1="400.23" x2="408.87" y2="400.85"/>
  </g>
  <g id="LINE-211" data-name="LINE">
    <line class="cls-2" x1="417.85" y1="398.46" x2="403" y2="399.95"/>
  </g>
  <g id="ELLIPSE-230" data-name="ELLIPSE">
    <path class="cls-2" d="M399.23,443.21c.48.61,1.1.98,1.77,1.06"/>
  </g>
  <g id="LINE-212" data-name="LINE">
    <line class="cls-2" x1="392.17" y1="389.81" x2="384.45" y2="388.89"/>
  </g>
  <g id="ELLIPSE-231" data-name="ELLIPSE">
    <path class="cls-2" d="M398.56,442.87c.14.18.37.3.67.33"/>
  </g>
  <g id="LINE-213" data-name="LINE">
    <line class="cls-2" x1="44.42" y1="452.16" x2="37.65" y2="451.35"/>
  </g>
  <g id="LINE-214" data-name="LINE">
    <line class="cls-2" x1="44.13" y1="456.08" x2="37.36" y2="455.27"/>
  </g>
  <g id="LINE-215" data-name="LINE">
    <line class="cls-2" x1="389.87" y1="433.96" x2="390.34" y2="389.96"/>
  </g>
  <g id="ELLIPSE-232" data-name="ELLIPSE">
    <path class="cls-2" d="M378.05,434.17c-2.77-3.56-5.63-6.99-8.58-10.27"/>
  </g>
  <g id="LINE-216" data-name="LINE">
    <line class="cls-2" x1="370.64" y1="423.68" x2="372.44" y2="424.58"/>
  </g>
  <g id="ELLIPSE-233" data-name="ELLIPSE">
    <path class="cls-2" d="M370.05,423.72c3.04,3.37,5.99,6.89,8.83,10.55"/>
  </g>
  <g id="LINE-217" data-name="LINE">
    <line class="cls-2" x1="56.11" y1="456.16" x2="54.31" y2="455.25"/>
  </g>
  <g id="ELLIPSE-234" data-name="ELLIPSE">
    <path class="cls-2" d="M72.74,454.24c-.82-.2-1.64-.4-2.47-.6"/>
  </g>
  <g id="LINE-218" data-name="LINE">
    <line class="cls-2" x1="81.83" y1="452.51" x2="83.63" y2="453.41"/>
  </g>
  <g id="ELLIPSE-235" data-name="ELLIPSE">
    <path class="cls-2" d="M100.27,451.49c-.82-.2-1.64-.4-2.47-.6"/>
  </g>
  <g id="LINE-219" data-name="LINE">
    <line class="cls-2" x1="109.35" y1="449.76" x2="111.15" y2="450.66"/>
  </g>
  <g id="ELLIPSE-236" data-name="ELLIPSE">
    <path class="cls-2" d="M127.79,448.74c-.82-.2-1.64-.4-2.47-.6"/>
  </g>
  <g id="LINE-220" data-name="LINE">
    <line class="cls-2" x1="136.87" y1="447.01" x2="138.67" y2="447.92"/>
  </g>
  <g id="ELLIPSE-237" data-name="ELLIPSE">
    <path class="cls-2" d="M155.31,445.99c-.82-.2-1.64-.4-2.47-.6"/>
  </g>
  <g id="LINE-221" data-name="LINE">
    <line class="cls-2" x1="164.39" y1="444.27" x2="166.19" y2="445.17"/>
  </g>
  <g id="ELLIPSE-238" data-name="ELLIPSE">
    <path class="cls-2" d="M182.83,443.25c-.82-.2-1.64-.4-2.47-.6"/>
  </g>
  <g id="LINE-222" data-name="LINE">
    <line class="cls-2" x1="191.91" y1="441.52" x2="193.71" y2="442.42"/>
  </g>
  <g id="ELLIPSE-239" data-name="ELLIPSE">
    <path class="cls-2" d="M210.35,440.5c-.82-.2-1.64-.4-2.47-.6"/>
  </g>
  <g id="LINE-223" data-name="LINE">
    <line class="cls-2" x1="219.43" y1="438.77" x2="221.23" y2="439.68"/>
  </g>
  <g id="ELLIPSE-240" data-name="ELLIPSE">
    <path class="cls-2" d="M237.87,437.75c-.82-.2-1.64-.4-2.47-.6"/>
  </g>
  <g id="LINE-224" data-name="LINE">
    <line class="cls-2" x1="246.95" y1="436.03" x2="248.75" y2="436.93"/>
  </g>
  <g id="ELLIPSE-241" data-name="ELLIPSE">
    <path class="cls-2" d="M265.39,435.01c-.82-.2-1.64-.4-2.47-.6"/>
  </g>
  <g id="LINE-225" data-name="LINE">
    <line class="cls-2" x1="274.47" y1="433.28" x2="276.27" y2="434.18"/>
  </g>
  <g id="ELLIPSE-242" data-name="ELLIPSE">
    <path class="cls-2" d="M292.91,432.26c-.82-.2-1.64-.4-2.47-.6"/>
  </g>
  <g id="LINE-226" data-name="LINE">
    <line class="cls-2" x1="301.99" y1="430.53" x2="303.79" y2="431.44"/>
  </g>
  <g id="ELLIPSE-243" data-name="ELLIPSE">
    <path class="cls-2" d="M320.43,429.51c-.82-.2-1.64-.4-2.47-.6"/>
  </g>
  <g id="LINE-227" data-name="LINE">
    <line class="cls-2" x1="329.51" y1="427.79" x2="331.31" y2="428.69"/>
  </g>
  <g id="ELLIPSE-244" data-name="ELLIPSE">
    <path class="cls-2" d="M347.95,426.77c-.82-.2-1.64-.4-2.47-.6"/>
  </g>
  <g id="LINE-228" data-name="LINE">
    <line class="cls-2" x1="357.03" y1="425.04" x2="358.83" y2="425.94"/>
  </g>
  <g id="LINE-229" data-name="LINE">
    <line class="cls-2" x1="768.01" y1="611.03" x2="762.26" y2="610.34"/>
  </g>
</svg>