<?xml version="1.0" encoding="UTF-8"?>
<svg id="TEXT" xmlns="http://www.w3.org/2000/svg" viewBox="0 0 748.49 603.2">
  <defs>
    <style>
      .cls-1 {
        fill: #fff;
        stroke-width: 0px;
      }
    </style>
  </defs>
  <path class="cls-1" d="M298.99,314.56s0,.06,0,.08v-.03s0-.03,0-.05Z"/>
  <path class="cls-1" d="M348.56,253.36s-.09.07-.13.11c-.06.04-.12.08-.18.12.1-.07.21-.15.31-.23Z"/>
  <path class="cls-1" d="M349.04,253.12c-.06.03-.12.06-.18.09-.06.02-.12.04-.18.06l.36-.15Z"/>
  <path class="cls-1" d="M298.99,314.56s0,.06,0,.08v-.03s0-.03,0-.05Z"/>
  <path class="cls-1" d="M344.72,253.78c-.39.16-.8.27-1.23.31.06-.08.13-.16.2-.23l.23-.23c.27.05.54.09.8.15Z"/>
  <g>
    <path class="cls-1" d="M344.72,253.78c-.39.16-.8.27-1.23.31.06-.08.13-.16.2-.23l.23-.23c.27.05.54.09.8.15Z"/>
    <path class="cls-1" d="M348.56,253.36s-.09.07-.13.11c-.06.04-.12.08-.18.12.1-.07.21-.15.31-.23Z"/>
    <path class="cls-1" d="M508.07,487.99c-14.47-22.61-31.73-43.34-46.85-65.55-2.39-3.21-1.39-7.11.48-10.3,14.82-24.51,18.98-53.42,24.35-81.03.59-3.16,1.27-6.29,1.52-9.5.45-8.37,2.18-16.84.31-25.14-1.93-8.8-6.5-17.55-14.71-21.9-5.96-3.2-13.37-2.09-18.93-6.21-6.41-4.52-10.04-12.42-17.45-15.62-8.33-3.74-17.58-1.04-26.4.29-4.55.78-9.27-.2-13.08-2.83-9.87-7.46-22.57-16.13-35.23-9.74-5.67,2.26-10.55,5.46-14.77,9.92-1.09.98-2.28,2.45-3.65,2.82-3.01.37-6.08-.69-9.2-.7-27.32-3.33-31.59,16.52-34.35,39.42-.32,1.98-.53,3.99-.87,5.97-.12.57-.3.99-.54,1.12-.66.32-1.52-1.41-1.9-2.04-4.36-8.12-11.18-14.68-20.33-16.73-6.09-1.44-13.8-.24-17.35,5.37-6.28,10.61.27,29.65,2.25,41.35,3,12.12,5.68,24.34,7.96,36.61,1.25,5.77,2.01,11.84,4.41,17.25,3.57,6.12,8.15,11.64,12.51,17.2,10.72,13.31,22.39,26.75,37.66,34.96,5.4,2.9,10.71,6.01,15.76,9.48,7.13,4.88,13.86,10.54,18.89,17.61,7.39,10.96,14.75,21.81,21.86,32.96,1.95,3.08,4.49,5.97,7.88,7.41,2.19.98,4.85,1.12,7.27,1.08,33.97-.09,67.86.04,101.82,0,8.18.47,15.19-4.75,10.77-13.38l-.09-.16Z"/>
    <path class="cls-1" d="M348.43,253.47c-.06.04-.12.08-.18.12.1-.07.21-.15.31-.23-.04.03-.09.07-.13.11Z"/>
    <path class="cls-1" d="M348.86,253.21c-.06.02-.12.04-.18.06l.36-.15c-.06.03-.12.06-.18.09Z"/>
    <path class="cls-1" d="M348.56,253.36s-.09.07-.13.11c-.06.04-.12.08-.18.12.1-.07.21-.15.31-.23Z"/>
    <path class="cls-1" d="M349.04,253.12c-.06.03-.12.06-.18.09-.06.02-.12.04-.18.06l.36-.15Z"/>
    <path class="cls-1" d="M348.56,253.36s-.09.07-.13.11c-.06.04-.12.08-.18.12.1-.07.21-.15.31-.23Z"/>
    <path class="cls-1" d="M349.04,253.12c-.06.03-.12.06-.18.09-.06.02-.12.04-.18.06l.36-.15Z"/>
    <path class="cls-1" d="M349.04,253.12c-.06.03-.12.06-.18.09-.06.02-.12.04-.18.06l.36-.15Z"/>
  </g>
</svg>