<?xml version="1.0" encoding="UTF-8"?>
<svg id="GRAPHICS" xmlns="http://www.w3.org/2000/svg" viewBox="0 0 797.88 648">
  <defs>
    <style>
      .cls-1 {
        isolation: isolate;
      }

      .cls-2 {
        stroke-width: 0px;
      }
    </style>
  </defs>
  <g class="cls-1">
    <g class="cls-1">
      <path class="cls-2" d="M590.72,638.84h-8v-12.92h8v1.45h-6.39v4.14h6.06v1.43h-6.06v4.44h6.39v1.45Z"/>
      <path class="cls-2" d="M595.86,635.3l-2.25,3.54h-1.73l3.17-4.66-3.12-4.65h1.74l2.24,3.49h.04l2.21-3.49h1.74l-3.14,4.59,3.1,4.72h-1.73l-2.23-3.54h-.04Z"/>
      <path class="cls-2" d="M609.72,634.19c0,2.92-1.6,4.82-3.95,4.82-1.33,0-2.41-.65-2.96-1.67h-.04v4.62h-1.56v-12.42h1.48v1.58h.04c.57-1.05,1.66-1.74,3.01-1.74,2.37,0,3.98,1.9,3.98,4.82ZM608.13,634.19c0-2.1-1.04-3.45-2.69-3.45s-2.67,1.38-2.67,3.45,1.07,3.45,2.67,3.45,2.69-1.33,2.69-3.45Z"/>
      <path class="cls-2" d="M611.38,625.93h1.56v12.92h-1.56v-12.92Z"/>
      <path class="cls-2" d="M614.58,634.19c0-2.97,1.74-4.82,4.31-4.82s4.31,1.84,4.31,4.82-1.74,4.82-4.31,4.82-4.31-1.85-4.31-4.82ZM621.62,634.19c0-2.19-1.07-3.45-2.72-3.45s-2.73,1.25-2.73,3.45,1.08,3.45,2.73,3.45,2.72-1.25,2.72-3.45Z"/>
      <path class="cls-2" d="M624.32,634.19c0-2.92,1.6-4.82,3.95-4.82,1.33,0,2.41.65,2.96,1.67h.04v-5.12h1.56v12.92h-1.49v-1.58h-.03c-.6,1.07-1.66,1.74-3.01,1.74-2.37,0-3.98-1.9-3.98-4.82ZM625.92,634.19c0,2.11,1.04,3.45,2.69,3.45s2.68-1.36,2.68-3.45-1.07-3.45-2.68-3.45-2.69,1.34-2.69,3.45Z"/>
      <path class="cls-2" d="M642.65,636.18c-.27,1.63-1.84,2.83-3.88,2.83-2.67,0-4.29-1.85-4.29-4.78s1.65-4.85,4.22-4.85,4.06,1.83,4.06,4.65v.59h-6.68v.09c0,1.78,1.05,2.95,2.72,2.95,1.18,0,2.05-.6,2.31-1.48h1.53ZM636.09,633.39h5.06c-.04-1.56-1.01-2.67-2.48-2.67s-2.48,1.12-2.58,2.67Z"/>
      <path class="cls-2" d="M643.88,634.19c0-2.92,1.6-4.82,3.95-4.82,1.33,0,2.41.65,2.96,1.67h.04v-5.12h1.56v12.92h-1.49v-1.58h-.03c-.6,1.07-1.66,1.74-3.01,1.74-2.37,0-3.98-1.9-3.98-4.82ZM645.47,634.19c0,2.11,1.04,3.45,2.69,3.45s2.68-1.36,2.68-3.45-1.07-3.45-2.68-3.45-2.69,1.34-2.69,3.45Z"/>
    </g>
    <g class="cls-1">
      <path class="cls-2" d="M662.22,638.84l-4.76-12.92h1.69l3.84,10.96h.05l3.84-10.96h1.69l-4.76,12.92h-1.59Z"/>
    </g>
    <g class="cls-1">
      <path class="cls-2" d="M669.44,627c0-.54.44-.97.97-.97s.98.43.98.97-.44.97-.98.97-.97-.44-.97-.97ZM669.63,629.53h1.56v9.31h-1.56v-9.31Z"/>
      <path class="cls-2" d="M681,636.18c-.27,1.63-1.84,2.83-3.88,2.83-2.67,0-4.29-1.85-4.29-4.78s1.65-4.85,4.22-4.85,4.06,1.83,4.06,4.65v.59h-6.68v.09c0,1.78,1.05,2.95,2.72,2.95,1.18,0,2.05-.6,2.31-1.48h1.53ZM674.45,633.39h5.06c-.04-1.56-1.01-2.67-2.48-2.67s-2.48,1.12-2.58,2.67Z"/>
      <path class="cls-2" d="M691.94,638.84h-1.58l-2.1-7.21h-.04l-2.09,7.21h-1.58l-2.61-9.31h1.55l1.86,7.57h.04l2.1-7.57h1.5l2.11,7.57h.04l1.86-7.57h1.54l-2.6,9.31Z"/>
      <path class="cls-2" d="M699.13,634.19c0-2.97,1.74-4.82,4.31-4.82s4.31,1.84,4.31,4.82-1.74,4.82-4.31,4.82-4.31-1.85-4.31-4.82ZM706.16,634.19c0-2.19-1.07-3.45-2.72-3.45s-2.73,1.25-2.73,3.45,1.08,3.45,2.73,3.45,2.72-1.25,2.72-3.45Z"/>
      <path class="cls-2" d="M709.82,630.81h-1.3v-1.28h1.3v-1.04c0-1.79.83-2.64,2.55-2.64.35,0,.73.04.95.07v1.26c-.19-.03-.45-.05-.71-.05-.84,0-1.25.45-1.25,1.37v1.03h1.91v1.28h-1.9v8.03h-1.56v-8.03Z"/>
      <path class="cls-2" d="M719.9,635.29c.15,1.4,1.48,2.32,3.32,2.32,1.75,0,3.02-.92,3.02-2.19,0-1.09-.76-1.76-2.5-2.21l-1.66-.43c-2.38-.61-3.44-1.66-3.44-3.41,0-2.15,1.88-3.65,4.57-3.65s4.43,1.52,4.5,3.69h-1.61c-.14-1.39-1.26-2.24-2.95-2.24s-2.84.87-2.84,2.13c0,.98.72,1.56,2.47,2.01l1.35.36c2.68.67,3.76,1.7,3.76,3.55,0,2.36-1.86,3.84-4.83,3.84-2.74,0-4.64-1.49-4.79-3.77h1.62Z"/>
      <path class="cls-2" d="M738.06,634.19c0,2.92-1.6,4.82-3.95,4.82-1.33,0-2.41-.65-2.96-1.67h-.04v4.62h-1.56v-12.42h1.48v1.58h.04c.57-1.05,1.66-1.74,3.01-1.74,2.37,0,3.98,1.9,3.98,4.82ZM736.46,634.19c0-2.1-1.04-3.45-2.69-3.45s-2.67,1.38-2.67,3.45,1.07,3.45,2.67,3.45,2.69-1.33,2.69-3.45Z"/>
      <path class="cls-2" d="M747.34,636.18c-.27,1.63-1.84,2.83-3.88,2.83-2.67,0-4.29-1.85-4.29-4.78s1.65-4.85,4.22-4.85,4.06,1.83,4.06,4.65v.59h-6.68v.09c0,1.78,1.05,2.95,2.72,2.95,1.18,0,2.05-.6,2.31-1.48h1.53ZM740.79,633.39h5.06c-.04-1.56-1.01-2.67-2.48-2.67s-2.48,1.12-2.58,2.67Z"/>
      <path class="cls-2" d="M748.65,636.21c0-1.59,1.23-2.6,3.37-2.72l2.67-.15v-.78c0-1.14-.75-1.82-2.04-1.82-1.2,0-1.95.56-2.15,1.48h-1.5c.11-1.61,1.49-2.85,3.69-2.85s3.56,1.18,3.56,3.03v6.44h-1.48v-1.6h-.04c-.55,1.07-1.74,1.76-2.99,1.76-1.85,0-3.1-1.12-3.1-2.79ZM754.7,635.31v-.76l-2.49.15c-1.25.08-1.97.64-1.97,1.51s.74,1.47,1.86,1.47c1.47,0,2.6-1.03,2.6-2.37Z"/>
    </g>
    <g class="cls-1">
      <path class="cls-2" d="M763.99,629.53h1.89l-4.04,4.02,4.16,5.29h-1.81l-3.46-4.33-.87.82v3.51h-1.56v-12.92h1.56v7.74l4.12-4.14Z"/>
    </g>
    <g class="cls-1">
      <path class="cls-2" d="M774.39,636.18c-.27,1.63-1.84,2.83-3.88,2.83-2.67,0-4.29-1.85-4.29-4.78s1.65-4.85,4.22-4.85,4.06,1.83,4.06,4.65v.59h-6.68v.09c0,1.78,1.05,2.95,2.72,2.95,1.18,0,2.05-.6,2.31-1.48h1.53ZM767.83,633.39h5.06c-.04-1.56-1.01-2.67-2.48-2.67s-2.48,1.12-2.58,2.67Z"/>
      <path class="cls-2" d="M776.08,629.53h1.47v1.52h.04c.3-1.03,1.16-1.68,2.26-1.68.27,0,.5.05.63.06v1.51c-.13-.05-.46-.09-.83-.09-1.21,0-2,.87-2,2.18v5.8h-1.56v-9.31Z"/>
    </g>
  </g>
  <g>
    <g>
      <g id="LINE">
        <path class="cls-2" d="M200.09,460.84c-.09,0-.17-.08-.17-.17v-35.89c0-.09.08-.17.17-.17s.17.08.17.17v35.89c0,.09-.08.17-.17.17Z"/>
      </g>
      <g id="LINE-2">
        <path class="cls-2" d="M200.09,399.55c-.09,0-.17-.08-.17-.17v-78c0-.09.08-.17.17-.17s.17.08.17.17v78c0,.09-.08.17-.17.17Z"/>
      </g>
      <g id="LINE-3">
        <path class="cls-2" d="M200.09,321.55c-.06,0-.12-.03-.15-.08-.05-.08-.02-.18.06-.23l2.15-1.24c.08-.05.18-.02.23.06.05.08.02.18-.06.23l-2.15,1.24s-.06.02-.08.02Z"/>
      </g>
      <g id="LINE-4">
        <path class="cls-2" d="M325.53,533.27c-.06,0-.12-.03-.15-.09-.05-.08-.02-.18.06-.23l2.15-1.24c.08-.05.18-.02.23.06.05.08.02.18-.06.23l-2.15,1.24s-.06.02-.08.02Z"/>
      </g>
      <g id="LINE-5">
        <path class="cls-2" d="M325.53,533.27s-.06,0-.08-.02l-67.55-39c-.08-.05-.11-.15-.06-.23.05-.08.15-.11.23-.06l67.55,39c.08.05.11.15.06.23-.03.06-.09.09-.15.09Z"/>
      </g>
      <g id="LINE-6">
        <path class="cls-2" d="M233.12,479.91s-.06,0-.08-.02l-33.04-19.08c-.08-.05-.11-.15-.06-.23.05-.08.15-.11.23-.06l33.04,19.08c.08.05.11.15.06.23-.03.06-.09.09-.15.09Z"/>
      </g>
      <g id="ELLIPSE">
        <path class="cls-2" d="M284.23,477.45c-8.07,0-17.38-3.88-26.35-11.21-.07-.06-.08-.17-.02-.24.06-.07.17-.08.24-.02,12.35,10.1,25.35,13.6,34.76,9.37.08-.04.19,0,.22.09.04.09,0,.19-.09.22-2.67,1.2-5.62,1.79-8.76,1.79Z"/>
      </g>
      <g id="ELLIPSE-2">
        <path class="cls-2" d="M227.32,415.28c-.08,0-.15-.06-.17-.14-3.61-17.36-.31-31.65,8.82-38.24.08-.06.18-.04.24.04s.04.18-.04.24c-9.02,6.51-12.26,20.68-8.68,37.9.02.09-.04.18-.13.2-.01,0-.02,0-.03,0Z"/>
      </g>
      <g id="LINE-7">
        <path class="cls-2" d="M327.69,392.74s-.06,0-.08-.02l-125.45-72.43c-.08-.05-.11-.15-.06-.23.05-.08.15-.11.23-.06l125.45,72.43c.08.05.11.15.06.23-.03.06-.09.09-.15.09Z"/>
      </g>
      <g id="LINE-8">
        <path class="cls-2" d="M327.69,532.03c-.09,0-.17-.08-.17-.17v-139.28c0-.09.08-.17.17-.17s.17.08.17.17v139.28c0,.09-.08.17-.17.17Z"/>
      </g>
      <g id="ELLIPSE-3">
        <path class="cls-2" d="M280.83,479.39c-7.03,0-15.01-2.95-22.94-8.64-.08-.05-.09-.16-.04-.24.06-.08.16-.09.24-.04,11.37,8.15,22.81,10.64,31.37,6.82,7.32-3.26,12-10.87,13.17-21.43,2.65-23.87-13.09-56.11-35.09-71.88-11.37-8.15-22.81-10.64-31.37-6.82-7.32,3.26-12,10.87-13.17,21.43-.48,4.35-.36,9.1.37,14.1.01.09-.05.18-.14.19-.1.01-.18-.05-.19-.14-.73-5.03-.85-9.8-.37-14.19,1.19-10.69,5.94-18.39,13.37-21.7,8.68-3.86,20.23-1.37,31.71,6.86,22.08,15.83,37.89,48.21,35.23,72.19-1.19,10.69-5.94,18.39-13.37,21.7-2.68,1.19-5.63,1.78-8.76,1.78Z"/>
      </g>
      <g id="LINE-9">
        <path class="cls-2" d="M325.53,393.98c-.06,0-.12-.03-.15-.09-.05-.08-.02-.18.06-.23l2.15-1.24c.08-.05.18-.02.23.06.05.08.02.18-.06.23l-2.15,1.24s-.06.02-.08.02Z"/>
      </g>
      <g id="LINE-10">
        <path class="cls-2" d="M325.53,533.27c-.09,0-.17-.08-.17-.17v-139.28c0-.09.08-.17.17-.17s.17.08.17.17v139.28c0,.09-.08.17-.17.17Z"/>
      </g>
      <g id="LINE-11">
        <path class="cls-2" d="M325.53,393.98s-.06,0-.08-.02l-125.45-72.43c-.08-.05-.11-.15-.06-.23.05-.08.15-.11.23-.06l125.45,72.43c.08.05.11.15.06.23-.03.06-.09.09-.15.09Z"/>
      </g>
      <g id="LINE-12">
        <path class="cls-2" d="M365.69,573.19c-.09,0-.17-.08-.17-.17v-1.4c0-.09.08-.17.17-.17s.17.08.17.17v1.4c0,.09-.08.17-.17.17Z"/>
      </g>
      <g id="LINE-13">
        <path class="cls-2" d="M365.69,571.79c-.06,0-.12-.03-.15-.09-.05-.08-.02-.18.06-.23l125.45-72.43c.08-.05.18-.02.23.06.05.08.02.18-.06.23l-125.45,72.43s-.06.02-.08.02Z"/>
      </g>
      <g id="LINE-14">
        <path class="cls-2" d="M487.51,498.66c-.09,0-.17-.08-.17-.17v-1.39c0-.09.08-.17.17-.17s.17.08.17.17v1.39c0,.09-.08.17-.17.17Z"/>
      </g>
      <g id="LINE-15">
        <path class="cls-2" d="M362.07,569.7c-.06,0-.12-.03-.15-.09-.05-.08-.02-.18.06-.23l125.45-72.42c.08-.05.18-.02.23.06.05.08.02.18-.06.23l-125.45,72.42s-.06.02-.08.02Z"/>
      </g>
      <g id="LINE-16">
        <path class="cls-2" d="M362.07,571.09c-.09,0-.17-.08-.17-.17v-1.4c0-.09.08-.17.17-.17s.17.08.17.17v1.4c0,.09-.08.17-.17.17Z"/>
      </g>
      <g id="LINE-17">
        <path class="cls-2" d="M362.07,571.09c-.06,0-.12-.03-.15-.09-.05-.08-.02-.18.06-.23l125.45-72.43c.08-.05.18-.02.23.06.05.08.02.18-.06.23l-125.45,72.43s-.06.02-.08.02Z"/>
      </g>
      <g id="LINE-18">
        <path class="cls-2" d="M489.92,500.06s-.06,0-.09-.02l-2.41-1.39c-.08-.05-.11-.15-.06-.23.05-.08.15-.11.23-.06l2.41,1.39c.08.05.11.15.06.23-.03.05-.09.08-.15.08Z"/>
      </g>
      <g id="LINE-19">
        <path class="cls-2" d="M365.69,573.19s-.06,0-.08-.02l-3.62-2.09c-.08-.05-.11-.15-.06-.23.05-.08.15-.11.23-.06l3.62,2.09c.08.05.11.15.06.23-.03.05-.09.08-.15.08Z"/>
      </g>
      <g id="LINE-20">
        <path class="cls-2" d="M487.51,497.28s-.06,0-.08-.02l-34.13-19.71c-.08-.05-.11-.15-.06-.23.05-.08.15-.11.23-.06l34.13,19.71c.08.05.11.15.06.23-.03.06-.09.09-.15.09Z"/>
      </g>
      <g id="LINE-21">
        <path class="cls-2" d="M327.93,550c-.06,0-.12-.03-.15-.09-.05-.08-.02-.18.06-.23l125.45-72.43c.08-.05.18-.02.23.06.05.08.02.18-.06.23l-125.45,72.43s-.06.02-.08.02Z"/>
      </g>
      <g id="LINE-22">
        <path class="cls-2" d="M362.07,569.7s-.06,0-.08-.02l-34.13-19.7c-.08-.05-.11-.15-.06-.23.05-.08.15-.11.23-.06l34.13,19.7c.08.05.11.15.06.23-.03.06-.09.09-.15.09Z"/>
      </g>
      <g id="LINE-23">
        <path class="cls-2" d="M415.14,600.35s-.06,0-.08-.02l-49.46-28.55c-.08-.05-.11-.15-.06-.23.05-.08.15-.11.23-.06l49.46,28.55c.08.05.11.15.06.23-.03.06-.09.09-.15.09Z"/>
      </g>
      <g id="LINE-24">
        <path class="cls-2" d="M415.14,600.35c-.06,0-.12-.03-.15-.09-.05-.08-.02-.18.06-.23l125.45-72.43c.08-.05.18-.02.23.06.05.08.02.18-.06.23l-125.45,72.43s-.06.02-.08.02Z"/>
      </g>
      <g id="LINE-25">
        <path class="cls-2" d="M540.59,527.91s-.06,0-.08-.02l-49.46-28.55c-.08-.05-.11-.15-.06-.23.05-.08.15-.11.23-.06l49.46,28.55c.08.05.11.15.06.23-.03.06-.09.09-.15.09Z"/>
      </g>
      <g id="LINE-26">
        <path class="cls-2" d="M327.93,554.17c-.09,0-.17-.08-.17-.17v-4.17c0-.09.08-.17.17-.17s.17.08.17.17v4.17c0,.09-.08.17-.17.17Z"/>
      </g>
      <g id="LINE-27">
        <path class="cls-2" d="M452.9,626.32s-.06,0-.08-.02l-124.97-72.14c-.08-.05-.11-.15-.06-.23.05-.08.15-.11.23-.06l124.96,72.14c.08.05.11.15.06.23-.03.06-.09.09-.15.09Z"/>
      </g>
      <g id="LINE-28">
        <path class="cls-2" d="M452.9,626.32c-.09,0-.17-.08-.17-.17v-4.17c0-.09.08-.17.17-.17s.17.08.17.17v4.17c0,.09-.08.17-.17.17Z"/>
      </g>
      <g id="LINE-29">
        <path class="cls-2" d="M452.9,622.14s-.06,0-.08-.02l-34.13-19.71c-.08-.05-.11-.15-.06-.23.05-.08.15-.11.23-.06l34.13,19.71c.08.05.11.15.06.23-.03.06-.09.09-.15.09Z"/>
      </g>
      <g id="LINE-30">
        <path class="cls-2" d="M418.76,603.82c-.09,0-.17-.08-.17-.17v-1.4c0-.09.08-.17.17-.17s.17.08.17.17v1.4c0,.09-.08.17-.17.17Z"/>
      </g>
      <g id="LINE-31">
        <path class="cls-2" d="M418.76,603.82s-.06,0-.08-.02l-3.62-2.08c-.08-.05-.11-.15-.06-.23.05-.08.15-.11.23-.06l3.62,2.08c.08.05.11.15.06.23-.03.06-.09.09-.15.09Z"/>
      </g>
      <g id="LINE-32">
        <path class="cls-2" d="M415.14,601.74c-.09,0-.17-.08-.17-.17v-1.4c0-.09.08-.17.17-.17s.17.08.17.17v1.4c0,.09-.08.17-.17.17Z"/>
      </g>
      <g id="LINE-33">
        <path class="cls-2" d="M418.76,602.43c-.06,0-.12-.03-.15-.09-.05-.08-.02-.18.06-.23l125.45-72.42c.08-.05.18-.02.23.06.05.08.02.18-.06.23l-125.45,72.42s-.06.02-.08.02Z"/>
      </g>
      <g id="LINE-34">
        <path class="cls-2" d="M540.59,529.31c-.09,0-.17-.08-.17-.17v-1.4c0-.09.08-.17.17-.17s.17.08.17.17v1.4c0,.09-.08.17-.17.17Z"/>
      </g>
      <g id="LINE-35">
        <path class="cls-2" d="M415.14,601.74c-.06,0-.12-.03-.15-.09-.05-.08-.02-.18.06-.23l125.45-72.43c.08-.05.18-.02.23.06.05.08.02.18-.06.23l-125.45,72.43s-.06.02-.08.02Z"/>
      </g>
      <g id="LINE-36">
        <path class="cls-2" d="M543,530.7s-.06,0-.09-.02l-2.41-1.4c-.08-.05-.11-.15-.06-.23.05-.08.15-.11.23-.06l2.41,1.4c.08.05.11.15.06.23-.03.05-.09.08-.15.08Z"/>
      </g>
      <g id="LINE-37">
        <path class="cls-2" d="M452.9,622.14c-.06,0-.12-.03-.15-.09-.05-.08-.02-.18.06-.23l125.45-72.43c.08-.05.18-.02.23.06.05.08.02.18-.06.23l-125.45,72.43s-.06.02-.08.02Z"/>
      </g>
      <g id="LINE-38">
        <path class="cls-2" d="M578.35,549.71s-.06,0-.08-.02l-34.13-19.7c-.08-.05-.11-.15-.06-.23.05-.08.15-.11.23-.06l34.13,19.7c.08.05.11.15.06.23-.03.06-.09.09-.15.09Z"/>
      </g>
      <g id="LINE-39">
        <path class="cls-2" d="M452.9,626.32c-.06,0-.12-.03-.15-.09-.05-.08-.02-.18.06-.23l125.45-72.42c.08-.05.18-.02.23.06.05.08.02.18-.06.23l-125.45,72.42s-.06.02-.08.02Z"/>
      </g>
      <g id="LINE-40">
        <path class="cls-2" d="M578.35,553.89c-.09,0-.17-.08-.17-.17v-4.18c0-.09.08-.17.17-.17s.17.08.17.17v4.18c0,.09-.08.17-.17.17Z"/>
      </g>
      <g id="ELLIPSE-4">
        <path class="cls-2" d="M213.45,523.84c-16.1,0-36.12-14.34-49.82-37.14-17.65-29.36-18.48-62.06-1.84-72.88.08-.05.18-.03.23.05.05.08.03.18-.05.23-16.48,10.72-15.61,43.21,1.95,72.42,16.79,27.94,43.08,43.15,59.84,34.61.08-.04.19,0,.23.07.04.08,0,.19-.07.23-3.19,1.62-6.72,2.4-10.46,2.4Z"/>
      </g>
      <g id="ELLIPSE-5">
        <path class="cls-2" d="M211.49,524.97c-6.03,0-12.73-2.02-19.66-6.03-11.73-6.77-22.76-18.42-31.06-32.78-17.14-29.68-17.11-61.89.06-71.81h0c8.33-4.81,19.4-3.72,31.16,3.07,11.73,6.77,22.76,18.42,31.06,32.78,8.29,14.37,12.86,29.74,12.86,43.29,0,13.58-4.59,23.71-12.92,28.52-3.42,1.98-7.3,2.95-11.5,2.95ZM160.91,414.5l.08.15c-17.01,9.82-16.98,41.83.07,71.35,8.26,14.31,19.25,25.91,30.93,32.66,11.65,6.73,22.6,7.82,30.82,3.07,8.22-4.75,12.75-14.77,12.75-28.23,0-13.49-4.55-28.8-12.82-43.12-8.26-14.31-19.25-25.91-30.93-32.66-11.65-6.73-22.6-7.82-30.82-3.07l-.08-.15Z"/>
      </g>
      <g id="ELLIPSE-6">
        <path class="cls-2" d="M211.86,519.25c-15.15,0-34.08-13.82-46.67-35.64-7.62-13.2-11.82-27.33-11.82-39.78s4.22-21.8,11.88-26.22h0c7.66-4.42,17.83-3.42,28.65,2.82,10.78,6.23,20.92,16.92,28.54,30.12,15.75,27.28,15.72,56.88-.06,66-3.16,1.82-6.72,2.69-10.51,2.69ZM175.83,415.23c-3.8,0-7.32.89-10.41,2.67h0c-7.55,4.36-11.71,13.57-11.71,25.93s4.18,26.46,11.77,39.61c15.66,27.12,41.1,41.84,56.72,32.82,15.62-9.02,15.59-38.42-.06-65.54-7.59-13.15-17.68-23.8-28.42-30-6.32-3.65-12.41-5.49-17.9-5.49ZM165.33,417.76h0,0Z"/>
      </g>
      <g id="ELLIPSE-7">
        <path class="cls-2" d="M213.26,518.42c-14.85,0-33.27-13.26-45.89-34.39-16.15-27.03-16.78-57.01-1.4-66.81.08-.05.18-.03.23.05.05.08.03.18-.05.23-15.22,9.71-14.54,39.48,1.51,66.36,15.51,25.97,39.79,40.01,55.25,31.97.08-.04.19-.01.23.07s.01.19-.07.23c-2.99,1.55-6.3,2.3-9.81,2.3Z"/>
      </g>
      <g id="LINE-41">
        <path class="cls-2" d="M257.98,572.26c-.09,0-.17-.08-.17-.17v-139.28c0-.09.08-.17.17-.17s.17.08.17.17v139.28c0,.09-.08.17-.17.17Z"/>
      </g>
      <g id="LINE-42">
        <path class="cls-2" d="M254.63,434.92c-.06,0-.12-.03-.15-.08-.05-.08-.02-.19.06-.23l3.35-1.94c.08-.05.18-.02.23.06.05.08.02.19-.06.23l-3.35,1.94s-.06.02-.08.02Z"/>
      </g>
      <g id="LINE-43">
        <path class="cls-2" d="M254.63,574.2c-.09,0-.17-.08-.17-.17v-139.28c0-.09.08-.17.17-.17s.17.08.17.17v139.28c0,.09-.08.17-.17.17Z"/>
      </g>
      <g id="LINE-44">
        <path class="cls-2" d="M254.63,574.2c-.06,0-.12-.03-.15-.08-.05-.08-.02-.19.06-.23l3.35-1.94c.08-.05.18-.02.23.06.05.08.02.19-.06.23l-3.35,1.94s-.06.02-.08.02Z"/>
      </g>
      <g id="LINE-45">
        <path class="cls-2" d="M254.63,574.2s-.06,0-.08-.02l-125.45-72.42c-.08-.05-.11-.15-.06-.23.05-.08.15-.11.23-.06l125.45,72.42c.08.05.11.15.06.23-.03.06-.09.09-.15.09Z"/>
      </g>
      <g id="LINE-46">
        <path class="cls-2" d="M129.18,501.78c-.09,0-.17-.08-.17-.17v-139.28c0-.09.08-.17.17-.17s.17.08.17.17v139.28c0,.09-.08.17-.17.17Z"/>
      </g>
      <g id="LINE-47">
        <path class="cls-2" d="M129.18,362.5c-.06,0-.12-.03-.15-.08-.05-.08-.02-.19.06-.23l3.35-1.94c.08-.05.18-.02.23.06.05.08.02.19-.06.23l-3.35,1.94s-.06.02-.08.02Z"/>
      </g>
      <g id="LINE-48">
        <path class="cls-2" d="M257.98,432.98s-.06,0-.08-.02l-125.45-72.42c-.08-.05-.11-.15-.06-.23.05-.08.15-.11.23-.06l125.45,72.42c.08.05.11.15.06.23-.03.06-.09.09-.15.09Z"/>
      </g>
      <g id="LINE-49">
        <path class="cls-2" d="M254.63,434.92s-.06,0-.08-.02l-125.45-72.42c-.08-.05-.11-.15-.06-.23.05-.08.15-.11.23-.06l125.45,72.42c.08.05.11.15.06.23-.03.06-.09.09-.15.09Z"/>
      </g>
      <g id="ELLIPSE-8">
        <path class="cls-2" d="M77.62,581.1c-12.42,0-27.93-11.32-38.25-29.19-6.25-10.81-9.68-22.38-9.68-32.58s3.46-17.87,9.75-21.5c.08-.05.18-.02.23.06.05.08.02.18-.06.23-6.18,3.56-9.58,11.1-9.58,21.2s3.42,21.65,9.64,32.41c12.81,22.19,33.63,34.24,46.41,26.86.08-.05.18-.02.23.06.05.08.02.18-.06.23-2.59,1.5-5.51,2.21-8.62,2.21Z"/>
      </g>
      <g id="ELLIPSE-9">
        <path class="cls-2" d="M107.96,570.84s-.04,0-.05,0c-.09-.03-.14-.12-.11-.21,6.67-20.54-5.1-53.44-26.23-73.34-7.9-7.44-16.25-12.27-24.16-13.96-.09-.02-.15-.11-.13-.2.02-.09.11-.15.2-.13,7.97,1.7,16.39,6.56,24.33,14.04,21.22,19.99,33.03,53.05,26.32,73.69-.02.07-.09.12-.16.12Z"/>
      </g>
      <g id="ELLIPSE-10">
        <path class="cls-2" d="M120.73,539.24c-.06,0-.12-.03-.15-.09-.05-.08-.02-.18.06-.23,3.89-2.25,6.04-7,6.04-13.38s-2.17-13.7-6.1-20.51c-3.93-6.81-9.16-12.33-14.72-15.54-5.53-3.19-10.71-3.71-14.6-1.46-.08.05-.18.02-.23-.06-.05-.08-.02-.18.06-.23,4-2.31,9.3-1.79,14.94,1.46,5.61,3.24,10.88,8.8,14.84,15.66,3.96,6.86,6.15,14.21,6.15,20.68s-2.2,11.37-6.21,13.67c-.03.02-.06.02-.08.02Z"/>
      </g>
      <g id="ELLIPSE-11">
        <path class="cls-2" d="M115.09,562.06s-.07,0-.09-.03c-.08-.05-.1-.16-.05-.24,9.12-13.7,3.16-41.13-13.28-61.15-10.36-12.62-22.72-19.76-33.06-19.11-.08,0-.17-.07-.18-.16,0-.09.06-.17.16-.18,10.45-.66,22.91,6.53,33.34,19.23,16.53,20.13,22.5,47.74,13.3,61.56-.03.05-.09.08-.14.08Z"/>
      </g>
      <g id="ELLIPSE-12">
        <path class="cls-2" d="M91.27,587.79c-.06,0-.12-.03-.15-.09-.05-.08-.02-.18.06-.23,15.6-9.01,15.57-38.36-.06-65.44-7.58-13.13-17.66-23.77-28.37-29.95-10.69-6.17-20.73-7.17-28.27-2.82-.08.05-.18.02-.23-.06-.05-.08-.02-.18.06-.23,7.65-4.42,17.81-3.42,28.61,2.82,10.77,6.22,20.89,16.9,28.5,30.08,15.73,27.24,15.7,56.8-.06,65.9-.03.02-.06.02-.08.02Z"/>
      </g>
      <g id="ELLIPSE-13">
        <path class="cls-2" d="M82.42,595.16c-6.03,0-12.73-2.02-19.66-6.03-11.73-6.77-22.76-18.42-31.06-32.78-17.14-29.68-17.11-61.9.06-71.81,8.33-4.81,19.4-3.72,31.16,3.07,11.73,6.77,22.76,18.42,31.06,32.78,8.29,14.37,12.86,29.74,12.86,43.29,0,13.58-4.59,23.71-12.92,28.52-3.42,1.97-7.3,2.95-11.5,2.95ZM43.26,481.92c-4.14,0-7.96.96-11.33,2.91-17.01,9.82-16.98,41.83.07,71.35,8.26,14.31,19.25,25.91,30.93,32.66,11.65,6.73,22.6,7.82,30.82,3.07,8.22-4.75,12.75-14.77,12.75-28.23,0-13.49-4.55-28.8-12.82-43.12-8.26-14.31-19.25-25.91-30.93-32.66-6.88-3.97-13.52-5.98-19.49-5.98Z"/>
      </g>
      <g id="ELLIPSE-14">
        <path class="cls-2" d="M95.74,591.12c-.06,0-.12-.03-.15-.08-.05-.08-.02-.19.06-.23,17.01-9.82,16.98-41.83-.06-71.35-8.26-14.31-19.25-25.91-30.93-32.66-11.65-6.73-22.6-7.82-30.83-3.07-.08.05-.18.02-.23-.06-.05-.08-.02-.18.06-.23,8.33-4.81,19.4-3.72,31.16,3.06,11.73,6.77,22.76,18.42,31.06,32.78,17.13,29.68,17.11,61.89-.06,71.81-.03.02-.06.02-.08.02Z"/>
      </g>
      <g id="LINE-50">
        <path class="cls-2" d="M119.11,540.18c-.06,0-.11-.03-.15-.08-.05-.08-.02-.18.06-.23l1.62-.94c.08-.05.18-.02.23.06.05.08.02.18-.06.23l-1.62.94s-.06.02-.09.02Z"/>
      </g>
      <g id="LINE-51">
        <path class="cls-2" d="M89.55,488.99c-.06,0-.12-.03-.15-.09-.05-.08-.02-.18.06-.23l1.63-.93c.08-.05.18-.02.23.06.05.08.02.18-.06.23l-1.63.93s-.06.02-.08.02Z"/>
      </g>
      <g id="LINE-52">
        <path class="cls-2" d="M107.43,573.56s-.07,0-.09-.03c-.08-.05-.1-.16-.05-.24l7.66-11.5c.05-.08.16-.1.23-.05.08.05.1.16.05.24l-7.66,11.5s-.09.08-.14.08Z"/>
      </g>
      <g id="LINE-53">
        <path class="cls-2" d="M54.81,482.42c-.09,0-.16-.07-.17-.16,0-.09.06-.17.16-.18l13.77-.88c.11,0,.17.07.18.16,0,.09-.06.17-.16.18l-13.77.88h-.01Z"/>
      </g>
      <g id="SPLINE">
        <path class="cls-2" d="M79.2,590.9c-3.33,0-6.82-.6-10.41-1.78-4.54-1.5-9.12-3.92-13.64-7.18-4.37-3.17-8.58-7.06-12.5-11.55-3.86-4.42-7.36-9.35-10.41-14.66-3.05-5.32-5.55-10.85-7.42-16.44-1.89-5.63-3.14-11.41-3.62-16.7-.49-5.41-.25-10.46.72-15.01.91-4.29,2.47-8.09,4.63-11.28,2.07-3.05,4.75-5.58,7.76-7.31.08-.05.18-.02.23.06.05.08.02.18-.06.23-2.97,1.71-5.61,4.21-7.65,7.21-2.14,3.16-3.68,6.91-4.58,11.16-.97,4.52-1.21,9.54-.72,14.91.48,5.26,1.73,11.01,3.6,16.62,1.86,5.57,4.35,11.08,7.39,16.38,3.04,5.29,6.53,10.2,10.37,14.61,3.91,4.47,8.09,8.34,12.44,11.5,4.48,3.24,9.04,5.65,13.54,7.14,4.63,1.53,9.09,2.07,13.25,1.6,3.25-.36,6.3-1.34,9.04-2.92.08-.04.18-.02.23.06.05.08.02.18-.06.23-2.79,1.6-5.87,2.6-9.17,2.96-.98.11-1.97.16-2.98.16Z"/>
      </g>
      <g id="SPLINE-2">
        <path class="cls-2" d="M86.16,578.93c-.06,0-.12-.03-.15-.08-.05-.08-.02-.18.06-.23,2.59-1.5,4.61-3.95,6-7.28,1.15-2.75,1.85-6.15,2.03-9.85.18-3.72-.15-7.75-.97-11.99-.85-4.35-2.2-8.82-4.02-13.29-1.85-4.54-4.15-8.97-6.82-13.17-2.67-4.21-5.67-8.1-8.9-11.58-3.19-3.42-6.53-6.34-9.93-8.69-3.23-2.24-6.58-3.98-9.69-5.04-2.93-1-5.82-1.44-8.36-1.28-2.18.14-4.08.69-5.8,1.68-.08.05-.18.02-.23-.06-.05-.08-.02-.18.06-.23,1.77-1.02,3.72-1.58,5.95-1.73,2.58-.16,5.52.29,8.49,1.3,3.14,1.07,6.52,2.82,9.78,5.08,3.43,2.36,6.79,5.3,9.99,8.74,3.25,3.49,6.26,7.4,8.94,11.62,2.68,4.22,4.98,8.67,6.85,13.23,1.83,4.49,3.19,8.99,4.04,13.35.83,4.27,1.16,8.33.98,12.07-.18,3.74-.89,7.18-2.05,9.97-1.42,3.4-3.49,5.9-6.14,7.44-.03.02-.06.02-.08.02Z"/>
      </g>
      <g id="LINE-54">
        <path class="cls-2" d="M93.84,592.22c-.06,0-.12-.03-.15-.08-.05-.08-.02-.19.06-.23l1.9-1.1c.08-.05.18-.02.23.06.05.08.02.19-.06.23l-1.9,1.1s-.06.02-.08.02Z"/>
      </g>
      <g id="LINE-55">
        <path class="cls-2" d="M31.85,484.86c-.06,0-.12-.03-.15-.08-.05-.08-.02-.19.06-.23l1.9-1.1c.08-.05.18-.02.23.06.05.08.02.19-.06.23l-1.9,1.1s-.06.02-.08.02Z"/>
      </g>
      <g>
        <g id="LINE-56">
          <path class="cls-2" d="M426.61,146.32c-.09,0-.17-.08-.17-.17v-1.38c0-.09.08-.17.17-.17s.17.08.17.17v1.38c0,.09-.08.17-.17.17Z"/>
        </g>
        <g id="LINE-57">
          <path class="cls-2" d="M426.61,144.94s-.06,0-.09-.02l-3.62-2.09c-.08-.05-.11-.15-.06-.23.05-.08.15-.11.23-.06l3.62,2.09c.08.05.11.15.06.23-.03.05-.09.08-.15.08Z"/>
        </g>
        <g id="LINE-58">
          <path class="cls-2" d="M422.99,144.24c-.06,0-.12-.03-.15-.08-.05-.08-.02-.18.06-.23l1.21-.7c.08-.05.18-.02.23.06s.02.18-.06.23l-1.21.7s-.06.02-.08.02Z"/>
        </g>
        <g id="LINE-59">
          <path class="cls-2" d="M422.99,144.24c-.09,0-.17-.08-.17-.17v-1.4c0-.09.08-.17.17-.17s.17.08.17.17v1.4c0,.09-.08.17-.17.17Z"/>
        </g>
        <g id="LINE-60">
          <path class="cls-2" d="M586.19,89.43s-.06,0-.08-.02l-124.97-72.15c-.08-.05-.11-.15-.06-.23.05-.08.15-.11.23-.06l124.97,72.15c.08.05.11.15.06.23-.03.05-.09.08-.15.08Z"/>
        </g>
        <g id="LINE-61">
          <path class="cls-2" d="M586.19,93.6c-.09,0-.17-.08-.17-.17v-4.17c0-.09.08-.17.17-.17s.17.08.17.17v4.17c0,.09-.08.17-.17.17Z"/>
        </g>
        <g id="LINE-62">
          <path class="cls-2" d="M422.99,144.24s-.06,0-.08-.02l-49.46-28.55c-.08-.05-.11-.15-.06-.23.05-.08.15-.11.23-.06l49.46,28.55c.08.05.11.15.06.23-.03.05-.09.08-.15.08Z"/>
        </g>
        <g id="LINE-63">
          <path class="cls-2" d="M460.74,166.03c-.06,0-.12-.03-.15-.08-.05-.08-.02-.18.06-.23l125.45-72.43c.08-.05.18-.02.23.06s.02.18-.06.23l-125.45,72.43s-.06.02-.08.02Z"/>
        </g>
        <g id="LINE-64">
          <path class="cls-2" d="M460.74,166.03s-.06,0-.08-.02l-34.13-19.71c-.08-.05-.11-.15-.06-.23.05-.08.15-.11.23-.06l34.13,19.71c.08.05.11.15.06.23-.03.05-.09.08-.15.08Z"/>
        </g>
        <g id="LINE-65">
          <path class="cls-2" d="M373.53,114.29s-.06,0-.08-.02l-3.62-2.09c-.08-.05-.11-.15-.06-.23.05-.08.15-.11.23-.06l3.62,2.09c.08.05.11.15.06.23-.03.05-.09.08-.15.08Z"/>
        </g>
        <g id="LINE-66">
          <path class="cls-2" d="M369.91,113.59c-.09,0-.17-.08-.17-.17v-1.39c0-.09.08-.17.17-.17s.17.08.17.17v1.39c0,.09-.08.17-.17.17Z"/>
        </g>
        <g id="LINE-67">
          <path class="cls-2" d="M369.91,113.59c-.06,0-.12-.03-.15-.08-.05-.08-.02-.18.06-.23l1.21-.7c.08-.05.18-.02.23.06.05.08.02.18-.06.23l-1.21.7s-.06.02-.08.02Z"/>
        </g>
        <g id="LINE-68">
          <path class="cls-2" d="M373.53,115.68c-.09,0-.17-.08-.17-.17v-1.39c0-.09.08-.17.17-.17s.17.08.17.17v1.39c0,.09-.08.17-.17.17Z"/>
        </g>
        <g id="LINE-69">
          <path class="cls-2" d="M369.91,113.59s-.06,0-.08-.02l-34.13-19.7c-.08-.05-.11-.15-.06-.23.05-.08.15-.11.23-.06l34.13,19.7c.08.05.11.15.06.23-.03.05-.09.08-.15.08Z"/>
        </g>
        <g id="LINE-70">
          <path class="cls-2" d="M460.74,161.86s-.06,0-.08-.02l-124.97-72.15c-.08-.05-.11-.15-.06-.23.05-.08.15-.11.23-.06l124.96,72.15c.08.05.11.15.06.23-.03.05-.09.08-.15.08Z"/>
        </g>
        <g id="LINE-71">
          <path class="cls-2" d="M460.74,161.86c-.06,0-.12-.03-.15-.08-.05-.08-.02-.18.06-.23l125.45-72.43c.08-.05.18-.02.23.06.05.08.02.18-.06.23l-125.45,72.43s-.06.02-.08.02Z"/>
        </g>
        <g id="LINE-72">
          <path class="cls-2" d="M335.78,89.71c-.06,0-.12-.03-.15-.08-.05-.08-.02-.18.06-.23l125.45-72.43c.08-.05.18-.02.23.06s.02.18-.06.23l-125.45,72.43s-.06.02-.08.02Z"/>
        </g>
        <g id="LINE-73">
          <path class="cls-2" d="M335.78,93.89c-.09,0-.17-.08-.17-.17v-4.18c0-.09.08-.17.17-.17s.17.08.17.17v4.18c0,.09-.08.17-.17.17Z"/>
        </g>
        <g id="LINE-74">
          <path class="cls-2" d="M460.74,166.03c-.09,0-.17-.08-.17-.17v-4.17c0-.09.08-.17.17-.17s.17.08.17.17v4.17c0,.09-.08.17-.17.17Z"/>
        </g>
        <g id="LINE-75">
          <path class="cls-2" d="M651.33,510.48c-.09,0-.17-.08-.17-.17v-4.17c0-.09.08-.17.17-.17s.17.08.17.17v4.17c0,.09-.08.17-.17.17Z"/>
        </g>
        <g id="LINE-76">
          <path class="cls-2" d="M651.33,506.3s-.06,0-.08-.02l-1.21-.7c-.08-.05-.11-.15-.06-.23.05-.08.15-.11.23-.06l1.21.7c.08.05.11.15.06.23-.03.06-.09.09-.15.09Z"/>
        </g>
        <g id="LINE-77">
          <path class="cls-2" d="M650.12,509.79c-.06,0-.12-.03-.15-.09-.05-.08-.02-.18.06-.23l1.21-.7c.08-.05.18-.02.23.06.05.08.02.18-.06.23l-1.21.7s-.06.02-.08.02Z"/>
        </g>
        <g id="LINE-78">
          <path class="cls-2" d="M651.33,510.48s-.06,0-.08-.02l-1.21-.69c-.08-.05-.11-.15-.06-.23s.15-.11.23-.06l1.21.69c.08.05.11.15.06.23-.03.06-.09.09-.15.09Z"/>
        </g>
        <g id="LINE-79">
          <path class="cls-2" d="M779.19,372.17s-.06,0-.08-.02l-3.62-2.08c-.08-.05-.11-.15-.06-.23.05-.08.15-.11.23-.06l3.62,2.08c.08.05.11.15.06.23-.03.06-.09.09-.15.09Z"/>
        </g>
        <g id="LINE-80">
          <path class="cls-2" d="M779.19,502.54c-.09,0-.17-.08-.17-.17v-130.37c0-.09.08-.17.17-.17s.17.08.17.17v130.37c0,.09-.08.17-.17.17Z"/>
        </g>
        <g id="LINE-81">
          <path class="cls-2" d="M650.12,505.61c-.09,0-.17-.08-.17-.17v-63.1c0-.09.08-.17.17-.17s.17.08.17.17v63.1c0,.09-.08.17-.17.17Z"/>
        </g>
        <g id="LINE-82">
          <path class="cls-2" d="M650.12,442.51c-.06,0-.12-.03-.15-.09-.05-.08-.02-.18.06-.23l125.45-72.42c.08-.05.18-.02.23.06.05.08.02.18-.06.23l-125.45,72.42s-.06.02-.08.02Z"/>
        </g>
        <g id="LINE-83">
          <path class="cls-2" d="M653.74,574.97s-.06,0-.09-.02l-3.62-2.09c-.08-.05-.11-.15-.06-.23.05-.08.15-.11.23-.06l3.62,2.09c.08.05.11.15.06.23-.03.05-.09.08-.15.08Z"/>
        </g>
        <g id="LINE-84">
          <path class="cls-2" d="M653.74,574.97c-.06,0-.12-.03-.15-.09-.05-.08-.02-.18.06-.23l125.45-72.43c.08-.05.18-.02.23.06.05.08.02.18-.06.23l-125.45,72.43s-.06.02-.08.02Z"/>
        </g>
        <g id="LINE-85">
          <path class="cls-2" d="M653.74,574.97c-.09,0-.17-.08-.17-.17v-130.37c0-.09.08-.17.17-.17s.17.08.17.17v130.37c0,.09-.08.17-.17.17Z"/>
        </g>
        <g id="LINE-86">
          <path class="cls-2" d="M653.74,444.6c-.06,0-.12-.03-.15-.09-.05-.08-.02-.18.06-.23l125.45-72.43c.08-.05.18-.02.23.06.05.08.02.18-.06.23l-125.45,72.43s-.06.02-.08.02Z"/>
        </g>
        <g id="LINE-87">
          <path class="cls-2" d="M653.74,444.6s-.06,0-.09-.02l-3.62-2.09c-.08-.05-.11-.15-.06-.23.05-.08.15-.11.23-.06l3.62,2.09c.08.05.11.15.06.23-.03.05-.09.08-.15.08Z"/>
        </g>
        <g id="LINE-88">
          <path class="cls-2" d="M650.12,572.88c-.09,0-.17-.08-.17-.17v-63.09c0-.09.08-.17.17-.17s.17.08.17.17v63.09c0,.09-.08.17-.17.17Z"/>
        </g>
        <g id="LINE-89">
          <path class="cls-2" d="M271.85,146.54s-.06,0-.08-.02l-1.21-.7c-.08-.05-.11-.15-.06-.23.05-.08.15-.11.23-.06l1.21.7c.08.05.11.15.06.23-.03.05-.09.08-.15.08Z"/>
        </g>
        <g id="LINE-90">
          <path class="cls-2" d="M145.19,218.26c-.06,0-.12-.03-.15-.08-.05-.08-.02-.18.06-.23l125.45-72.42c.08-.05.18-.02.23.06.05.08.02.18-.06.23l-125.45,72.42s-.06.02-.08.02Z"/>
        </g>
        <g id="LINE-91">
          <path class="cls-2" d="M146.4,218.96s-.06,0-.08-.02l-1.21-.7c-.08-.05-.11-.15-.06-.23.05-.08.15-.11.23-.06l1.21.7c.08.05.11.15.06.23-.03.05-.09.08-.15.08Z"/>
        </g>
        <g id="LINE-92">
          <path class="cls-2" d="M146.4,218.96c-.06,0-.12-.03-.15-.08-.05-.08-.02-.18.06-.23l125.45-72.42c.08-.05.18-.02.23.06.05.08.02.18-.06.23l-125.45,72.42s-.06.02-.08.02Z"/>
        </g>
        <g id="LINE-93">
          <path class="cls-2" d="M146.4,214.78c-.06,0-.12-.03-.15-.08-.05-.08-.02-.18.06-.23l125.45-72.43c.08-.05.18-.02.23.06.05.08.02.18-.06.23l-125.45,72.43s-.06.02-.08.02Z"/>
        </g>
        <g id="LINE-94">
          <path class="cls-2" d="M146.4,214.78s-.06,0-.08-.02l-1.21-.7c-.08-.05-.11-.15-.06-.23.05-.08.15-.11.23-.06l1.21.7c.08.05.11.15.06.23-.03.05-.09.08-.15.08Z"/>
        </g>
        <g id="LINE-95">
          <path class="cls-2" d="M270.64,145.84c-.09,0-.17-.08-.17-.17v-2.79c0-.09.08-.17.17-.17s.17.08.17.17v2.79c0,.09-.08.17-.17.17Z"/>
        </g>
        <g id="LINE-96">
          <path class="cls-2" d="M145.19,218.26c-.09,0-.17-.08-.17-.17v-4.17c0-.09.08-.17.17-.17s.17.08.17.17v4.17c0,.09-.08.17-.17.17Z"/>
        </g>
        <g id="LINE-97">
          <path class="cls-2" d="M146.4,214.78c-.09,0-.17-.08-.17-.17v-63.1c0-.09.08-.17.17-.17s.17.08.17.17v63.1c0,.09-.08.17-.17.17Z"/>
        </g>
        <g id="LINE-98">
          <path class="cls-2" d="M146.4,151.68s-.06,0-.08-.02l-3.62-2.08c-.08-.05-.11-.15-.06-.23.05-.08.15-.11.23-.06l3.62,2.08c.08.05.11.15.06.23-.03.05-.09.09-.15.09Z"/>
        </g>
        <g id="LINE-99">
          <path class="cls-2" d="M142.78,279.96c-.09,0-.17-.08-.17-.17v-130.36c0-.09.08-.17.17-.17s.17.08.17.17v130.36c0,.09-.08.17-.17.17Z"/>
        </g>
        <g id="LINE-100">
          <path class="cls-2" d="M146.4,282.06s-.06,0-.08-.02l-3.62-2.09c-.08-.05-.11-.15-.06-.23.05-.08.15-.11.23-.06l3.62,2.09c.08.05.11.15.06.23-.03.05-.09.08-.15.08Z"/>
        </g>
        <g id="LINE-101">
          <path class="cls-2" d="M146.4,282.06c-.09,0-.17-.08-.17-.17v-63.1c0-.09.08-.17.17-.17s.17.08.17.17v63.1c0,.09-.08.17-.17.17Z"/>
        </g>
        <g id="LINE-102">
          <path class="cls-2" d="M271.85,142.35c-.09,0-.17-.08-.17-.17v-63.09c0-.09.08-.17.17-.17s.17.08.17.17v63.09c0,.09-.08.17-.17.17Z"/>
        </g>
        <g id="LINE-103">
          <path class="cls-2" d="M146.4,151.68c-.06,0-.12-.03-.15-.08-.05-.08-.02-.18.06-.23l125.45-72.42c.08-.05.18-.02.23.06.05.08.02.18-.06.23l-125.45,72.42s-.06.02-.08.02Z"/>
        </g>
        <g id="LINE-104">
          <path class="cls-2" d="M146.4,282.06c-.06,0-.12-.03-.15-.08-.05-.08-.02-.18.06-.23l125.45-72.42c.08-.05.18-.02.23.06.05.08.02.18-.06.23l-125.45,72.42s-.06.02-.08.02Z"/>
        </g>
        <g id="LINE-105">
          <path class="cls-2" d="M271.85,209.63c-.09,0-.17-.08-.17-.17v-63.1c0-.09.08-.17.17-.17s.17.08.17.17v63.1c0,.09-.08.17-.17.17Z"/>
        </g>
        <g id="LINE-106">
          <path class="cls-2" d="M142.78,149.6c-.06,0-.12-.03-.15-.08-.05-.08-.02-.18.06-.23l125.45-72.43c.08-.05.18-.02.23.06.05.08.02.18-.06.23l-125.45,72.43s-.06.02-.08.02Z"/>
        </g>
        <g id="LINE-107">
          <path class="cls-2" d="M271.85,79.26s-.06,0-.08-.02l-3.62-2.09c-.08-.05-.11-.15-.06-.23.05-.08.15-.11.23-.06l3.62,2.09c.08.05.11.15.06.23-.03.05-.09.08-.15.08Z"/>
        </g>
        <g id="LINE-108">
          <path class="cls-2" d="M392.76,147.68s-.06,0-.08-.02l-3.48-2c-.08-.05-.11-.15-.06-.23.05-.08.15-.11.23-.06l3.48,2c.08.05.11.15.06.23-.03.05-.09.08-.15.08Z"/>
        </g>
        <g id="LINE-109">
          <path class="cls-2" d="M392.76,280.83c-.09,0-.17-.08-.17-.17v-133.16c0-.09.08-.17.17-.17s.17.08.17.17v133.16c0,.09-.08.17-.17.17Z"/>
        </g>
        <g id="LINE-110">
          <path class="cls-2" d="M267.32,353.26c-.06,0-.12-.03-.15-.09-.05-.08-.02-.18.06-.23l125.45-72.42c.08-.05.18-.02.23.06.05.08.02.18-.06.23l-125.45,72.42s-.06.02-.08.02Z"/>
        </g>
        <g id="LINE-111">
          <path class="cls-2" d="M267.32,353.26s-.06,0-.08-.02l-3.48-2c-.08-.05-.11-.15-.06-.23.05-.08.15-.11.23-.06l3.48,2c.08.05.11.15.06.23-.03.06-.09.09-.15.09Z"/>
        </g>
        <g id="ELLIPSE-15">
          <path class="cls-2" d="M383.11,168.57c-.09,0-.17-.08-.17-.17,0-.68-.22-1.19-.62-1.42s-.95-.17-1.53.17c-.08.05-.18.02-.23-.06-.05-.08-.02-.18.06-.23.7-.4,1.36-.46,1.87-.17.51.29.79.9.79,1.71,0,.09-.08.17-.17.17Z"/>
        </g>
        <g id="LINE-112">
          <path class="cls-2" d="M383.11,200.32c-.09,0-.17-.08-.17-.17v-31.75c0-.09.08-.17.17-.17s.17.08.17.17v31.75c0,.09-.08.17-.17.17Z"/>
        </g>
        <g id="ELLIPSE-16">
          <path class="cls-2" d="M380.7,204.5c-.06,0-.12-.03-.15-.08-.05-.08-.02-.18.06-.23,1.28-.74,2.33-2.55,2.33-4.03,0-.09.08-.17.17-.17s.17.08.17.17c0,1.59-1.12,3.53-2.5,4.32-.03.02-.06.02-.08.02Z"/>
        </g>
        <g id="LINE-113">
          <path class="cls-2" d="M327.62,235.14c-.06,0-.12-.03-.15-.08-.05-.08-.02-.18.06-.23l53.08-30.64c.08-.05.18-.02.23.06.05.08.02.18-.06.23l-53.08,30.64s-.06.02-.08.02Z"/>
        </g>
        <g id="ELLIPSE-17">
          <path class="cls-2" d="M326.55,235.47c-.26,0-.5-.06-.71-.18-.51-.29-.79-.9-.79-1.71,0-.09.08-.17.17-.17s.17.08.17.17c0,.68.22,1.19.62,1.42.4.23.95.17,1.53-.17.08-.05.18-.02.23.06.05.08.02.18-.06.23-.41.23-.8.35-1.16.35Z"/>
        </g>
        <g id="LINE-114">
          <path class="cls-2" d="M325.22,233.76c-.09,0-.17-.08-.17-.17v-31.76c0-.09.08-.17.17-.17s.17.08.17.17v31.76c0,.09-.08.17-.17.17Z"/>
        </g>
        <g id="ELLIPSE-18">
          <path class="cls-2" d="M325.22,201.99c-.09,0-.17-.08-.17-.17,0-1.59,1.12-3.53,2.49-4.32.08-.05.18-.02.23.06.05.08.02.18-.06.23-1.28.74-2.33,2.55-2.33,4.03,0,.09-.08.17-.17.17Z"/>
        </g>
        <g id="LINE-115">
          <path class="cls-2" d="M327.62,197.82c-.06,0-.12-.03-.15-.08-.05-.08-.02-.18.06-.23l53.08-30.65c.08-.05.18-.02.23.06.05.08.02.18-.06.23l-53.08,30.65s-.06.02-.08.02Z"/>
        </g>
        <g id="ELLIPSE-19">
          <path class="cls-2" d="M380.7,275.26c-.06,0-.12-.03-.15-.08-.05-.08-.02-.18.06-.23,1.28-.74,2.33-2.55,2.33-4.03,0-.09.08-.17.17-.17s.17.08.17.17c0,1.59-1.12,3.53-2.5,4.32-.03.02-.06.02-.08.02Z"/>
        </g>
        <g id="LINE-116">
          <path class="cls-2" d="M327.62,305.9c-.06,0-.12-.03-.15-.08-.05-.08-.02-.18.06-.23l53.08-30.65c.08-.05.18-.02.23.06.05.08.02.18-.06.23l-53.08,30.65s-.06.02-.08.02Z"/>
        </g>
        <g id="ELLIPSE-20">
          <path class="cls-2" d="M326.55,306.23c-.26,0-.5-.06-.71-.18-.51-.29-.79-.9-.79-1.71,0-.09.08-.17.17-.17s.17.08.17.17c0,.68.22,1.19.62,1.42.4.23.95.17,1.53-.17.08-.05.18-.02.23.06.05.08.02.18-.06.23-.41.23-.8.35-1.16.35Z"/>
        </g>
        <g id="LINE-117">
          <path class="cls-2" d="M325.22,304.51c-.09,0-.17-.08-.17-.17v-31.75c0-.09.08-.17.17-.17s.17.08.17.17v31.75c0,.09-.08.17-.17.17Z"/>
        </g>
        <g id="ELLIPSE-21">
          <path class="cls-2" d="M325.22,272.75c-.09,0-.17-.08-.17-.17,0-1.59,1.12-3.53,2.49-4.32.08-.05.18-.02.23.06.05.08.02.18-.06.23-1.28.74-2.33,2.55-2.33,4.03,0,.09-.08.17-.17.17Z"/>
        </g>
        <g id="LINE-118">
          <path class="cls-2" d="M327.62,268.58c-.06,0-.12-.03-.15-.08-.05-.08-.02-.18.06-.23l53.08-30.65c.08-.05.18-.02.23.06.05.08.02.18-.06.23l-53.08,30.65s-.06.02-.08.02Z"/>
        </g>
        <g id="ELLIPSE-22">
          <path class="cls-2" d="M383.11,239.33c-.09,0-.17-.08-.17-.17,0-.68-.22-1.19-.62-1.42-.4-.23-.95-.17-1.53.17-.08.05-.18.02-.23-.06-.05-.08-.02-.18.06-.23.7-.4,1.36-.46,1.87-.17.51.29.79.9.79,1.71,0,.09-.08.17-.17.17Z"/>
        </g>
        <g id="LINE-119">
          <path class="cls-2" d="M383.11,271.08c-.09,0-.17-.08-.17-.17v-31.75c0-.09.08-.17.17-.17s.17.08.17.17v31.75c0,.09-.08.17-.17.17Z"/>
        </g>
        <g id="LINE-120">
          <path class="cls-2" d="M267.32,220.11c-.06,0-.12-.03-.15-.08-.05-.08-.02-.18.06-.23l125.45-72.43c.08-.05.18-.02.23.06.05.08.02.18-.06.23l-125.45,72.43s-.06.02-.08.02Z"/>
        </g>
        <g id="LINE-121">
          <path class="cls-2" d="M267.32,231.67c-.09,0-.17-.08-.17-.17v-11.56c0-.09.08-.17.17-.17s.17.08.17.17v11.56c0,.09-.08.17-.17.17Z"/>
        </g>
        <g id="LINE-122">
          <path class="cls-2" d="M267.32,231.67c-.06,0-.12-.03-.15-.08-.05-.08-.02-.18.06-.23l17.94-10.36c.08-.05.18-.02.23.06.05.08.02.18-.06.23l-17.94,10.36s-.06.02-.08.02Z"/>
        </g>
        <g id="ELLIPSE-23">
          <path class="cls-2" d="M285.26,221.31c-.06,0-.12-.03-.15-.08-.05-.08-.02-.18.06-.23,1.06-.61,2.12-1.02,3.13-1.21.09-.02.18.04.2.14.02.09-.04.18-.14.2-.98.18-1.99.57-3.02,1.17-.03.02-.06.02-.08.02Z"/>
        </g>
        <g id="LINE-123">
          <path class="cls-2" d="M288.32,220.12c-.08,0-.15-.06-.17-.14-.02-.09.04-.18.13-.2l20.67-3.92c.09-.02.18.04.2.13.02.09-.04.18-.13.2l-20.67,3.92s-.02,0-.03,0Z"/>
        </g>
        <g id="ELLIPSE-24">
          <path class="cls-2" d="M315.56,222.97c-.09,0-.17-.08-.17-.17,0-2.53-.76-4.55-2.14-5.69-1.11-.92-2.57-1.23-4.24-.92-.09.02-.18-.04-.2-.13s.04-.18.13-.2c1.77-.34,3.33,0,4.52.99,1.46,1.21,2.26,3.32,2.26,5.95,0,.09-.08.17-.17.17Z"/>
        </g>
        <g id="LINE-124">
          <path class="cls-2" d="M315.56,256.73c-.09,0-.17-.08-.17-.17v-33.76c0-.09.08-.17.17-.17s.17.08.17.17v33.76c0,.09-.08.17-.17.17Z"/>
        </g>
        <g id="LINE-125">
          <path class="cls-2" d="M315.56,256.73c-.06,0-.12-.03-.15-.08-.05-.08-.02-.18.06-.23l36.79-21.24c.08-.05.18-.02.23.06.05.08.02.18-.06.23l-36.79,21.24s-.06.02-.08.02Z"/>
        </g>
        <g id="ELLIPSE-25">
          <path class="cls-2" d="M352.35,235.49s0,0-.01,0c-.09,0-.16-.09-.16-.18.05-.63.47-1.32.99-1.61.3-.17.58-.19.81-.06.22.13.35.39.35.73,0,.09-.08.17-.17.17s-.17-.08-.17-.17c0-.21-.07-.37-.18-.44-.11-.07-.28-.04-.47.06-.42.24-.78.83-.82,1.34,0,.09-.08.16-.17.16Z"/>
        </g>
        <g id="LINE-126">
          <path class="cls-2" d="M354.16,238.55c-.09,0-.17-.08-.17-.17v-4.01c0-.09.08-.17.17-.17s.17.08.17.17v4.01c0,.09-.08.17-.17.17Z"/>
        </g>
        <g id="ELLIPSE-26">
          <path class="cls-2" d="M352.85,240.24c-.1,0-.19-.02-.28-.06-.23-.11-.36-.35-.39-.66,0-.09.06-.17.16-.18.11-.02.17.06.18.16.01.19.08.33.2.38.13.06.32.02.51-.11.43-.28.76-.88.76-1.38,0-.09.08-.17.17-.17s.17.08.17.17c0,.61-.39,1.32-.91,1.66-.19.13-.39.2-.57.2Z"/>
        </g>
        <g id="LINE-127">
          <path class="cls-2" d="M315.56,260.92c-.06,0-.12-.03-.15-.08-.05-.08-.02-.18.06-.23l36.79-21.24c.08-.05.18-.02.23.06.05.08.02.18-.06.23l-36.79,21.24s-.06.02-.08.02Z"/>
        </g>
        <g id="LINE-128">
          <path class="cls-2" d="M315.56,294.68c-.09,0-.17-.08-.17-.17v-33.76c0-.09.08-.17.17-.17s.17.08.17.17v33.76c0,.09-.08.17-.17.17Z"/>
        </g>
        <g id="ELLIPSE-27">
          <path class="cls-2" d="M308.99,309.04s-.09-.02-.12-.05c-.07-.07-.06-.17,0-.24,3.9-3.77,6.52-9.49,6.52-14.24,0-.09.08-.17.17-.17s.17.08.17.17c0,4.83-2.66,10.65-6.63,14.48-.03.03-.08.05-.12.05Z"/>
        </g>
        <g id="LINE-129">
          <path class="cls-2" d="M288.32,328.99s-.09-.02-.12-.05c-.07-.07-.06-.17,0-.24l20.67-19.94c.07-.06.17-.06.24,0,.07.07.06.17,0,.24l-20.67,19.94s-.08.05-.12.05Z"/>
        </g>
        <g id="ELLIPSE-28">
          <path class="cls-2" d="M285.25,331.34c-.06,0-.12-.03-.15-.09-.05-.08-.02-.18.06-.23,1.01-.57,2.03-1.36,3.04-2.32.07-.06.18-.06.24,0,.06.07.06.17,0,.24-1.03.99-2.08,1.79-3.11,2.37-.03.02-.06.02-.08.02Z"/>
        </g>
        <g id="LINE-130">
          <path class="cls-2" d="M267.32,341.7c-.06,0-.12-.03-.15-.09-.05-.08-.02-.18.06-.23l17.94-10.36c.08-.05.18-.02.23.06.05.08.02.18-.06.23l-17.94,10.36s-.06.02-.08.02Z"/>
        </g>
        <g id="LINE-131">
          <path class="cls-2" d="M267.32,353.26c-.09,0-.17-.08-.17-.17v-11.56c0-.09.08-.17.17-.17s.17.08.17.17v11.56c0,.09-.08.17-.17.17Z"/>
        </g>
        <g id="LINE-132">
          <path class="cls-2" d="M263.84,351.26c-.09,0-.17-.08-.17-.17v-11.57c0-.09.08-.17.17-.17s.17.08.17.17v11.57c0,.09-.08.17-.17.17Z"/>
        </g>
        <g id="LINE-133">
          <path class="cls-2" d="M263.84,339.69c-.06,0-.12-.03-.15-.09-.05-.08-.02-.18.06-.23l17.94-10.35c.08-.05.18-.02.23.06.05.08.02.18-.06.23l-17.94,10.35s-.06.02-.08.02Z"/>
        </g>
        <g id="ELLIPSE-29">
          <path class="cls-2" d="M281.78,329.34c-.06,0-.12-.03-.15-.08-.05-.08-.02-.18.06-.23,1.04-.6,2.06-1.38,3.04-2.32.07-.06.18-.06.24,0,.06.07.06.17,0,.24-1,.96-2.05,1.76-3.11,2.37-.03.02-.06.02-.08.02Z"/>
        </g>
        <g id="LINE-134">
          <path class="cls-2" d="M284.85,326.98s-.09-.02-.12-.05c-.07-.07-.06-.17,0-.24l20.67-19.94c.07-.06.17-.06.24,0,.07.07.06.17,0,.24l-20.67,19.94s-.08.05-.12.05Z"/>
        </g>
        <g id="ELLIPSE-30">
          <path class="cls-2" d="M305.51,307.04s-.09-.02-.12-.05c-.07-.07-.06-.17,0-.24,3.9-3.77,6.52-9.49,6.52-14.24,0-.09.08-.17.17-.17s.17.08.17.17c0,4.83-2.66,10.65-6.63,14.48-.03.03-.08.05-.12.05Z"/>
        </g>
        <g id="LINE-135">
          <path class="cls-2" d="M312.09,292.68c-.09,0-.17-.08-.17-.17v-33.77c0-.09.08-.17.17-.17s.17.08.17.17v33.77c0,.09-.08.17-.17.17Z"/>
        </g>
        <g id="LINE-136">
          <path class="cls-2" d="M312.09,258.91c-.06,0-.12-.03-.15-.08-.05-.08-.02-.18.06-.23l36.79-21.24c.08-.05.18-.02.23.06.05.08.02.18-.06.23l-36.79,21.24s-.06.02-.08.02Z"/>
        </g>
        <g id="ELLIPSE-31">
          <path class="cls-2" d="M349.71,238.15c-.06,0-.12-.04-.15-.09-.04-.08,0-.19.08-.23.45-.22.84-.84.88-1.38v-.07c0-.09.08-.17.17-.17s.17.08.17.17v.08c-.05.67-.52,1.4-1.07,1.67-.02.01-.05.02-.07.02Z"/>
        </g>
        <g id="LINE-137">
          <path class="cls-2" d="M350.69,236.54c-.09,0-.17-.08-.17-.17v-.08c0-.09.08-.17.17-.17s.17.08.17.17v.08c0,.09-.08.17-.17.17Z"/>
        </g>
        <g id="LINE-138">
          <path class="cls-2" d="M312.09,254.73c-.09,0-.17-.08-.17-.17v-33.77c0-.09.08-.17.17-.17s.17.08.17.17v33.77c0,.09-.08.17-.17.17Z"/>
        </g>
        <g id="ELLIPSE-32">
          <path class="cls-2" d="M312.09,220.96c-.09,0-.17-.08-.17-.17,0-1.94-.44-3.59-1.28-4.75-.05-.08-.04-.18.04-.24.08-.05.18-.04.24.04.88,1.22,1.34,2.94,1.34,4.95,0,.09-.08.17-.17.17Z"/>
        </g>
        <g id="LINE-139">
          <path class="cls-2" d="M263.84,229.65c-.09,0-.17-.08-.17-.17v-11.56c0-.09.08-.17.17-.17s.17.08.17.17v11.56c0,.09-.08.17-.17.17Z"/>
        </g>
        <g id="LINE-140">
          <path class="cls-2" d="M263.84,218.1c-.06,0-.12-.03-.15-.08-.05-.08-.02-.18.06-.23l125.45-72.42c.08-.05.18-.02.23.06s.02.18-.06.23l-125.45,72.42s-.06.02-.08.02Z"/>
        </g>
        <g id="ELLIPSE-33">
          <path class="cls-2" d="M377.23,273.26c-.06,0-.12-.03-.15-.08-.05-.08-.02-.18.06-.23,1.28-.74,2.33-2.55,2.33-4.03,0-.09.08-.17.17-.17s.17.08.17.17c0,1.59-1.12,3.53-2.49,4.32-.03.02-.06.02-.08.02Z"/>
        </g>
        <g id="LINE-141">
          <path class="cls-2" d="M379.64,269.07c-.09,0-.17-.08-.17-.17v-30.52c0-.09.08-.17.17-.17s.17.08.17.17v30.52c0,.09-.08.17-.17.17Z"/>
        </g>
        <g id="LINE-142">
          <path class="cls-2" d="M325.22,303.29c-.06,0-.12-.03-.15-.08-.05-.08-.02-.18.06-.23l52.01-30.03c.08-.05.18-.02.23.06.05.08.02.18-.06.23l-52.01,30.03s-.06.02-.08.02Z"/>
        </g>
        <g id="LINE-143">
          <path class="cls-2" d="M325.22,232.53c-.06,0-.12-.03-.15-.08-.05-.08-.02-.18.06-.23l52.01-30.03c.08-.05.18-.02.23.06.05.08.02.18-.06.23l-52.01,30.03s-.06.02-.08.02Z"/>
        </g>
        <g id="ELLIPSE-34">
          <path class="cls-2" d="M377.23,202.5c-.06,0-.12-.03-.15-.08-.05-.08-.02-.18.06-.23,1.28-.74,2.33-2.55,2.33-4.03,0-.09.08-.17.17-.17s.17.08.17.17c0,1.59-1.12,3.53-2.49,4.32-.03.02-.06.02-.08.02Z"/>
        </g>
        <g id="LINE-144">
          <path class="cls-2" d="M379.64,198.32c-.09,0-.17-.08-.17-.17v-30.53c0-.09.08-.17.17-.17s.17.08.17.17v30.53c0,.09-.08.17-.17.17Z"/>
        </g>
        <g id="LINE-145">
          <path class="cls-2" d="M352.35,239.68s-.06,0-.08-.02l-3.48-2.01c-.08-.05-.11-.15-.06-.23.05-.08.15-.11.23-.06l3.48,2.01c.08.05.11.15.06.23-.03.05-.09.08-.15.08Z"/>
        </g>
        <g id="LINE-146">
          <path class="cls-2" d="M315.56,256.73s-.06,0-.08-.02l-3.48-2c-.08-.05-.11-.15-.06-.23.05-.08.15-.11.23-.06l3.48,2c.08.05.11.15.06.23-.03.05-.09.09-.15.09Z"/>
        </g>
        <g id="LINE-147">
          <path class="cls-2" d="M267.32,231.67s-.06,0-.08-.02l-3.48-2.01c-.08-.05-.11-.15-.06-.23.05-.08.15-.11.23-.06l3.48,2.01c.08.05.11.15.06.23-.03.05-.09.08-.15.08Z"/>
        </g>
        <g id="LINE-148">
          <path class="cls-2" d="M267.32,220.11s-.06,0-.08-.02l-3.48-2.01c-.08-.05-.11-.15-.06-.23.05-.08.15-.11.23-.06l3.48,2.01c.08.05.11.15.06.23-.03.05-.09.08-.15.08Z"/>
        </g>
        <g id="LINE-149">
          <path class="cls-2" d="M267.32,341.7s-.06,0-.08-.02l-3.48-2.01c-.08-.05-.11-.15-.06-.23.05-.08.15-.11.23-.06l3.48,2.01c.08.05.11.15.06.23-.03.05-.09.08-.15.08Z"/>
        </g>
        <g id="LINE-150">
          <path class="cls-2" d="M315.56,260.92s-.06,0-.08-.02l-3.48-2.01c-.08-.05-.11-.15-.06-.23.05-.08.15-.11.23-.06l3.48,2.01c.08.05.11.15.06.23-.03.05-.09.08-.15.08Z"/>
        </g>
        <g id="LINE-151">
          <path class="cls-2" d="M658.13,434.05c-.09,0-.17-.08-.17-.17v-133.16c0-.09.08-.17.17-.17s.17.08.17.17v133.16c0,.09-.08.17-.17.17Z"/>
        </g>
        <g id="LINE-152">
          <path class="cls-2" d="M658.13,300.89s-.06,0-.08-.02l-3.48-2c-.08-.05-.11-.15-.06-.23.05-.08.15-.11.23-.06l3.48,2c.08.05.11.15.06.23-.03.05-.09.08-.15.08Z"/>
        </g>
        <g id="ELLIPSE-35">
          <path class="cls-2" d="M648.48,321.78c-.09,0-.17-.08-.17-.17,0-.68-.22-1.19-.62-1.42-.4-.23-.95-.17-1.53.17-.08.04-.18.02-.23-.06-.05-.08-.02-.18.06-.23.7-.4,1.36-.46,1.87-.17.51.29.79.9.79,1.71,0,.09-.08.17-.17.17Z"/>
        </g>
        <g id="LINE-153">
          <path class="cls-2" d="M648.48,353.53c-.09,0-.17-.08-.17-.17v-31.75c0-.09.08-.17.17-.17s.17.08.17.17v31.75c0,.09-.08.17-.17.17Z"/>
        </g>
        <g id="ELLIPSE-36">
          <path class="cls-2" d="M646.07,357.71c-.06,0-.12-.03-.15-.09-.05-.08-.02-.18.06-.23,1.28-.74,2.32-2.55,2.32-4.03,0-.09.08-.17.17-.17s.17.08.17.17c0,1.59-1.12,3.53-2.5,4.32-.03.02-.06.02-.08.02Z"/>
        </g>
        <g id="LINE-154">
          <path class="cls-2" d="M592.99,388.35c-.06,0-.12-.03-.15-.09-.05-.08-.02-.18.06-.23l53.08-30.64c.08-.05.18-.02.23.06.05.08.02.18-.06.23l-53.08,30.64s-.06.02-.08.02Z"/>
        </g>
        <g id="ELLIPSE-37">
          <path class="cls-2" d="M591.92,388.68c-.26,0-.5-.06-.71-.18-.51-.3-.79-.9-.79-1.71,0-.09.08-.17.17-.17s.17.08.17.17c0,.68.22,1.19.62,1.42.4.23.94.17,1.54-.17.08-.05.18-.02.23.06.05.08.02.18-.06.23-.41.23-.8.35-1.16.35Z"/>
        </g>
        <g id="LINE-155">
          <path class="cls-2" d="M590.58,386.97c-.09,0-.17-.08-.17-.17v-31.76c0-.09.08-.17.17-.17s.17.08.17.17v31.76c0,.09-.08.17-.17.17Z"/>
        </g>
        <g id="ELLIPSE-38">
          <path class="cls-2" d="M590.58,355.21c-.09,0-.17-.08-.17-.17,0-1.59,1.12-3.53,2.5-4.32.08-.05.18-.02.23.06.05.08.02.18-.06.23-1.28.74-2.33,2.55-2.33,4.03,0,.09-.08.17-.17.17Z"/>
        </g>
        <g id="LINE-156">
          <path class="cls-2" d="M592.99,351.03c-.06,0-.12-.03-.15-.09-.05-.08-.02-.18.06-.23l53.08-30.65c.08-.05.18-.02.23.06.05.08.02.18-.06.23l-53.08,30.65s-.06.02-.08.02Z"/>
        </g>
        <g id="ELLIPSE-39">
          <path class="cls-2" d="M646.07,428.47c-.06,0-.12-.03-.15-.09-.05-.08-.02-.18.06-.23,1.28-.74,2.32-2.55,2.32-4.03,0-.09.08-.17.17-.17s.17.08.17.17c0,1.59-1.12,3.53-2.5,4.32-.03.02-.06.02-.08.02Z"/>
        </g>
        <g id="LINE-157">
          <path class="cls-2" d="M592.99,459.11c-.06,0-.12-.03-.15-.09-.05-.08-.02-.18.06-.23l53.08-30.65c.08-.05.18-.02.23.06.05.08.02.18-.06.23l-53.08,30.65s-.06.02-.08.02Z"/>
        </g>
        <g id="ELLIPSE-40">
          <path class="cls-2" d="M591.91,459.44c-.26,0-.5-.06-.71-.18-.51-.29-.79-.9-.79-1.71,0-.09.08-.17.17-.17s.17.08.17.17c0,.68.22,1.18.62,1.42.4.23.95.17,1.54-.17.08-.05.18-.02.23.06.05.08.02.18-.06.23-.41.24-.8.35-1.16.35Z"/>
        </g>
        <g id="LINE-158">
          <path class="cls-2" d="M590.58,457.72c-.09,0-.17-.08-.17-.17v-31.75c0-.09.08-.17.17-.17s.17.08.17.17v31.75c0,.09-.08.17-.17.17Z"/>
        </g>
        <g id="ELLIPSE-41">
          <path class="cls-2" d="M590.58,425.96c-.09,0-.17-.08-.17-.17,0-1.59,1.12-3.53,2.5-4.32.08-.05.18-.02.23.06.05.08.02.18-.06.23-1.28.74-2.33,2.55-2.33,4.03,0,.09-.08.17-.17.17Z"/>
        </g>
        <g id="LINE-159">
          <path class="cls-2" d="M592.99,421.79c-.06,0-.12-.03-.15-.09-.05-.08-.02-.18.06-.23l53.08-30.65c.08-.05.18-.02.23.06.05.08.02.18-.06.23l-53.08,30.65s-.06.02-.08.02Z"/>
        </g>
        <g id="ELLIPSE-42">
          <path class="cls-2" d="M648.48,392.54c-.09,0-.17-.08-.17-.17,0-.68-.22-1.19-.62-1.42-.4-.23-.95-.17-1.53.17-.08.05-.18.02-.23-.06-.05-.08-.02-.18.06-.23.7-.4,1.36-.46,1.87-.17s.79.9.79,1.71c0,.09-.08.17-.17.17Z"/>
        </g>
        <g id="LINE-160">
          <path class="cls-2" d="M648.48,424.29c-.09,0-.17-.08-.17-.17v-31.75c0-.09.08-.17.17-.17s.17.08.17.17v31.75c0,.09-.08.17-.17.17Z"/>
        </g>
        <g id="LINE-161">
          <path class="cls-2" d="M532.68,373.32c-.06,0-.12-.03-.15-.09-.05-.08-.02-.18.06-.23l125.45-72.43c.08-.05.18-.02.23.06s.02.18-.06.23l-125.45,72.43s-.06.02-.08.02Z"/>
        </g>
        <g id="LINE-162">
          <path class="cls-2" d="M532.68,384.88c-.09,0-.17-.08-.17-.17v-11.56c0-.09.08-.17.17-.17s.17.08.17.17v11.56c0,.09-.08.17-.17.17Z"/>
        </g>
        <g id="LINE-163">
          <path class="cls-2" d="M532.68,384.88c-.06,0-.12-.03-.15-.09-.05-.08-.02-.18.06-.23l17.94-10.36c.08-.05.18-.02.23.06.05.08.02.18-.06.23l-17.94,10.36s-.06.02-.08.02Z"/>
        </g>
        <g id="ELLIPSE-43">
          <path class="cls-2" d="M550.62,374.52c-.06,0-.12-.03-.15-.08-.05-.08-.02-.19.06-.23,1.06-.61,2.12-1.02,3.13-1.21.1-.02.18.04.2.14.02.09-.04.18-.14.2-.98.18-1.99.57-3.02,1.17-.03.02-.06.02-.09.02Z"/>
        </g>
        <g id="LINE-164">
          <path class="cls-2" d="M553.7,373.33c-.08,0-.15-.06-.17-.14-.02-.09.04-.18.14-.2l20.66-3.92c.09-.02.18.04.2.14.02.09-.04.18-.14.2l-20.66,3.92s-.02,0-.03,0Z"/>
        </g>
        <g id="ELLIPSE-44">
          <path class="cls-2" d="M580.93,376.18c-.09,0-.17-.08-.17-.17,0-2.53-.76-4.55-2.14-5.69-1.11-.92-2.57-1.24-4.24-.92-.1.02-.18-.04-.2-.13-.02-.09.04-.18.13-.2,1.77-.34,3.33,0,4.52.99,1.46,1.2,2.26,3.32,2.26,5.95,0,.09-.08.17-.17.17Z"/>
        </g>
        <g id="LINE-165">
          <path class="cls-2" d="M580.93,409.94c-.09,0-.17-.08-.17-.17v-33.76c0-.09.08-.17.17-.17s.17.08.17.17v33.76c0,.09-.08.17-.17.17Z"/>
        </g>
        <g id="LINE-166">
          <path class="cls-2" d="M580.93,409.94c-.06,0-.12-.03-.15-.09-.05-.08-.02-.18.06-.23l36.8-21.24c.08-.05.18-.02.23.06.05.08.02.18-.06.23l-36.8,21.24s-.06.02-.08.02Z"/>
        </g>
        <g id="ELLIPSE-45">
          <path class="cls-2" d="M617.73,388.7h-.01c-.09,0-.16-.09-.16-.18.05-.63.47-1.32.99-1.61.3-.17.58-.19.81-.06.22.13.35.39.35.73,0,.09-.08.17-.17.17s-.17-.08-.17-.17c0-.21-.07-.37-.18-.44-.12-.07-.28-.05-.47.06-.42.24-.78.83-.82,1.34,0,.09-.08.16-.17.16Z"/>
        </g>
        <g id="LINE-167">
          <path class="cls-2" d="M619.54,391.76c-.09,0-.17-.08-.17-.17v-4.01c0-.09.08-.17.17-.17s.17.08.17.17v4.01c0,.09-.08.17-.17.17Z"/>
        </g>
        <g id="ELLIPSE-46">
          <path class="cls-2" d="M618.23,393.45c-.1,0-.2-.02-.28-.06-.23-.11-.36-.35-.39-.67,0-.09.06-.17.16-.18s.17.06.18.16c.01.19.08.33.2.38.13.06.32.02.51-.11.42-.27.76-.89.76-1.38,0-.09.08-.17.17-.17s.17.08.17.17c0,.61-.39,1.32-.91,1.66-.19.13-.39.2-.57.2Z"/>
        </g>
        <g id="LINE-168">
          <path class="cls-2" d="M580.93,414.13c-.06,0-.12-.03-.15-.09-.05-.08-.02-.18.06-.23l36.8-21.24c.08-.05.18-.02.23.06.05.08.02.18-.06.23l-36.8,21.24s-.06.02-.08.02Z"/>
        </g>
        <g id="LINE-169">
          <path class="cls-2" d="M580.93,447.89c-.09,0-.17-.08-.17-.17v-33.76c0-.09.08-.17.17-.17s.17.08.17.17v33.76c0,.09-.08.17-.17.17Z"/>
        </g>
        <g id="ELLIPSE-47">
          <path class="cls-2" d="M574.36,462.25s-.09-.02-.12-.05c-.07-.07-.06-.17,0-.24,3.9-3.77,6.52-9.49,6.52-14.24,0-.09.08-.17.17-.17s.17.08.17.17c0,4.83-2.66,10.65-6.63,14.48-.03.03-.08.05-.12.05Z"/>
        </g>
        <g id="LINE-170">
          <path class="cls-2" d="M553.7,482.2s-.09-.02-.12-.05c-.06-.07-.06-.17,0-.24l20.66-19.94c.07-.06.17-.06.24,0,.06.07.06.17,0,.24l-20.66,19.94s-.08.05-.12.05Z"/>
        </g>
        <g id="ELLIPSE-48">
          <path class="cls-2" d="M550.62,484.55c-.06,0-.12-.03-.15-.09-.05-.08-.02-.18.06-.23,1.01-.57,2.03-1.36,3.04-2.32.07-.06.17-.06.24,0,.07.07.06.17,0,.24-1.03.99-2.08,1.79-3.11,2.37-.03.02-.06.02-.08.02Z"/>
        </g>
        <g id="LINE-171">
          <path class="cls-2" d="M532.68,494.91c-.06,0-.12-.03-.15-.09-.05-.08-.02-.18.06-.23l17.94-10.36c.08-.05.18-.02.23.06.05.08.02.18-.06.23l-17.94,10.36s-.06.02-.08.02Z"/>
        </g>
        <g id="LINE-172">
          <path class="cls-2" d="M532.68,506.47c-.09,0-.17-.08-.17-.17v-11.56c0-.09.08-.17.17-.17s.17.08.17.17v11.56c0,.09-.08.17-.17.17Z"/>
        </g>
        <g id="LINE-173">
          <path class="cls-2" d="M532.68,506.47c-.06,0-.12-.03-.15-.09-.05-.08-.02-.18.06-.23l125.45-72.42c.08-.05.18-.02.23.06.05.08.02.18-.06.23l-125.45,72.42s-.06.02-.08.02Z"/>
        </g>
        <g id="LINE-174">
          <path class="cls-2" d="M529.21,371.31c-.06,0-.12-.03-.15-.09-.05-.08-.02-.18.06-.23l125.45-72.42c.08-.05.18-.02.23.06.05.08.02.18-.06.23l-125.45,72.42s-.06.02-.08.02Z"/>
        </g>
        <g id="LINE-175">
          <path class="cls-2" d="M532.68,373.32s-.06,0-.09-.02l-3.48-2.01c-.08-.05-.11-.15-.06-.23.05-.08.15-.11.23-.06l3.48,2.01c.08.05.11.15.06.23-.03.05-.09.08-.15.08Z"/>
        </g>
        <g id="LINE-176">
          <path class="cls-2" d="M529.21,504.47c-.09,0-.17-.08-.17-.17v-11.56c0-.09.08-.17.17-.17s.17.08.17.17v11.56c0,.09-.08.17-.17.17Z"/>
        </g>
        <g id="LINE-177">
          <path class="cls-2" d="M529.21,492.91c-.06,0-.12-.03-.15-.09-.05-.08-.02-.18.06-.23l17.94-10.36c.08-.05.18-.02.23.06.05.08.02.18-.06.23l-17.94,10.36s-.06.02-.08.02Z"/>
        </g>
        <g id="ELLIPSE-49">
          <path class="cls-2" d="M547.15,482.55c-.06,0-.12-.03-.15-.08-.05-.08-.02-.19.06-.23,1.04-.6,2.06-1.38,3.04-2.32.07-.06.18-.06.24,0,.07.07.06.17,0,.24-1,.96-2.05,1.76-3.11,2.37-.03.02-.06.02-.09.02Z"/>
        </g>
        <g id="LINE-178">
          <path class="cls-2" d="M550.22,480.19s-.09-.02-.12-.05c-.06-.07-.06-.17,0-.24l20.66-19.94c.07-.06.17-.06.24,0,.06.07.06.17,0,.24l-20.66,19.94s-.08.05-.12.05Z"/>
        </g>
        <g id="ELLIPSE-50">
          <path class="cls-2" d="M570.88,460.25s-.09-.02-.12-.05c-.06-.07-.06-.17,0-.24,3.9-3.77,6.52-9.49,6.52-14.24,0-.09.08-.17.17-.17s.17.08.17.17c0,4.83-2.66,10.65-6.63,14.48-.03.03-.08.05-.12.05Z"/>
        </g>
        <g id="LINE-179">
          <path class="cls-2" d="M577.46,445.89c-.09,0-.17-.08-.17-.17v-33.77c0-.09.08-.17.17-.17s.17.08.17.17v33.77c0,.09-.08.17-.17.17Z"/>
        </g>
        <g id="LINE-180">
          <path class="cls-2" d="M577.46,412.12c-.06,0-.12-.03-.15-.09-.05-.08-.02-.18.06-.23l36.79-21.24c.08-.05.18-.02.23.06.05.08.02.18-.06.23l-36.79,21.24s-.06.02-.08.02Z"/>
        </g>
        <g id="ELLIPSE-51">
          <path class="cls-2" d="M615.08,391.36c-.06,0-.12-.04-.15-.1-.04-.08,0-.19.08-.23.45-.22.84-.84.88-1.38v-.07c0-.09.08-.17.17-.17s.17.08.17.17v.08c-.05.67-.51,1.4-1.07,1.67-.02.01-.05.02-.07.02Z"/>
        </g>
        <g id="LINE-181">
          <path class="cls-2" d="M616.06,389.75c-.09,0-.17-.08-.17-.17v-.08c0-.09.08-.17.17-.17s.17.08.17.17v.08c0,.09-.08.17-.17.17Z"/>
        </g>
        <g id="LINE-182">
          <path class="cls-2" d="M577.46,407.94c-.09,0-.17-.08-.17-.17v-33.77c0-.09.08-.17.17-.17s.17.08.17.17v33.77c0,.09-.08.17-.17.17Z"/>
        </g>
        <g id="ELLIPSE-52">
          <path class="cls-2" d="M577.46,374.17c-.09,0-.17-.08-.17-.17,0-1.94-.44-3.59-1.28-4.75-.06-.08-.04-.18.04-.24.08-.06.18-.04.24.04.88,1.22,1.35,2.94,1.35,4.95,0,.09-.08.17-.17.17Z"/>
        </g>
        <g id="LINE-183">
          <path class="cls-2" d="M529.21,382.87c-.09,0-.17-.08-.17-.17v-11.56c0-.09.08-.17.17-.17s.17.08.17.17v11.56c0,.09-.08.17-.17.17Z"/>
        </g>
        <g id="ELLIPSE-53">
          <path class="cls-2" d="M642.59,426.47c-.06,0-.12-.03-.15-.09-.05-.08-.02-.18.06-.23,1.28-.74,2.33-2.55,2.33-4.03,0-.09.08-.17.17-.17s.17.08.17.17c0,1.59-1.12,3.53-2.5,4.32-.03.02-.06.02-.08.02Z"/>
        </g>
        <g id="LINE-184">
          <path class="cls-2" d="M645.01,422.29c-.09,0-.17-.08-.17-.17v-30.53c0-.09.08-.17.17-.17s.17.08.17.17v30.53c0,.09-.08.17-.17.17Z"/>
        </g>
        <g id="LINE-185">
          <path class="cls-2" d="M590.58,456.5c-.06,0-.12-.03-.15-.09-.05-.08-.02-.18.06-.23l52.01-30.03c.08-.05.18-.02.23.06.05.08.02.18-.06.23l-52.01,30.03s-.06.02-.08.02Z"/>
        </g>
        <g id="LINE-186">
          <path class="cls-2" d="M590.58,385.74c-.06,0-.12-.03-.15-.09-.05-.08-.02-.18.06-.23l52.01-30.03c.08-.05.18-.02.23.06.05.08.02.18-.06.23l-52.01,30.03s-.06.02-.08.02Z"/>
        </g>
        <g id="ELLIPSE-54">
          <path class="cls-2" d="M642.59,355.71c-.06,0-.12-.03-.15-.09-.05-.08-.02-.18.06-.23,1.28-.74,2.33-2.55,2.33-4.03,0-.09.08-.17.17-.17s.17.08.17.17c0,1.59-1.12,3.53-2.5,4.32-.03.02-.06.02-.08.02Z"/>
        </g>
        <g id="LINE-187">
          <path class="cls-2" d="M645.01,351.53c-.09,0-.17-.08-.17-.17v-30.53c0-.09.08-.17.17-.17s.17.08.17.17v30.53c0,.09-.08.17-.17.17Z"/>
        </g>
        <g id="LINE-188">
          <path class="cls-2" d="M617.73,392.89s-.06,0-.09-.02l-3.48-2.01c-.08-.05-.11-.15-.06-.23.05-.08.15-.11.23-.06l3.48,2.01c.08.05.11.15.06.23-.03.05-.09.08-.15.08Z"/>
        </g>
        <g id="LINE-189">
          <path class="cls-2" d="M580.93,409.94s-.06,0-.08-.02l-3.47-2c-.08-.05-.11-.15-.06-.23.05-.08.15-.11.23-.06l3.47,2c.08.05.11.15.06.23-.03.06-.09.09-.15.09Z"/>
        </g>
        <g id="LINE-190">
          <path class="cls-2" d="M532.68,384.88s-.06,0-.09-.02l-3.48-2.01c-.08-.05-.11-.15-.06-.23.05-.08.15-.11.23-.06l3.48,2.01c.08.05.11.15.06.23-.03.05-.09.08-.15.08Z"/>
        </g>
        <g id="LINE-191">
          <path class="cls-2" d="M532.68,506.47s-.06,0-.08-.02l-3.48-2c-.08-.05-.11-.15-.06-.23.05-.08.15-.11.23-.06l3.48,2c.08.05.11.15.06.23-.03.06-.09.09-.15.09Z"/>
        </g>
        <g id="LINE-192">
          <path class="cls-2" d="M532.68,494.91s-.06,0-.08-.02l-3.48-2c-.08-.05-.11-.15-.06-.23.05-.08.15-.11.23-.06l3.48,2c.08.05.11.15.06.23-.03.06-.09.09-.15.09Z"/>
        </g>
        <g id="LINE-193">
          <path class="cls-2" d="M580.93,414.13s-.06,0-.09-.02l-3.47-2.01c-.08-.05-.11-.15-.06-.23.05-.08.15-.11.23-.06l3.47,2.01c.08.05.11.15.06.23-.03.05-.09.08-.15.08Z"/>
        </g>
        <g id="LINE-194">
          <path class="cls-2" d="M548.44,302.13s-.06,0-.08-.02l-49.46-28.55c-.08-.05-.11-.15-.06-.23.05-.08.15-.11.23-.06l49.46,28.55c.08.05.11.15.06.23-.03.05-.09.08-.15.08Z"/>
        </g>
        <g id="LINE-195">
          <path class="cls-2" d="M548.44,306.14c-.09,0-.17-.08-.17-.17v-4.01c0-.09.08-.17.17-.17s.17.08.17.17v4.01c0,.09-.08.17-.17.17Z"/>
        </g>
        <g id="LINE-196">
          <path class="cls-2" d="M495.36,275.5c-.09,0-.17-.08-.17-.17v-4.02c0-.09.08-.17.17-.17s.17.08.17.17v4.02c0,.09-.08.17-.17.17Z"/>
        </g>
        <g id="LINE-197">
          <path class="cls-2" d="M495.36,271.48s-.06,0-.08-.02l-31.72-18.31c-.08-.05-.11-.15-.06-.23.05-.08.15-.11.23-.06l31.72,18.31c.08.05.11.15.06.23-.03.05-.09.08-.15.08Z"/>
        </g>
        <g id="LINE-198">
          <path class="cls-2" d="M583.78,322.54s-.06,0-.08-.02l-31.72-18.32c-.08-.05-.11-.15-.06-.23.05-.08.15-.11.23-.06l31.72,18.32c.08.05.11.15.06.23-.03.05-.09.08-.15.08Z"/>
        </g>
        <g id="LINE-199">
          <path class="cls-2" d="M583.78,326.55c-.09,0-.17-.08-.17-.17v-4.01c0-.09.08-.17.17-.17s.17.08.17.17v4.01c0,.09-.08.17-.17.17Z"/>
        </g>
        <g id="LINE-200">
          <path class="cls-2" d="M458.33,394.96c-.06,0-.12-.03-.15-.09-.05-.08-.02-.18.06-.23l125.45-72.42c.08-.05.18-.02.23.06s.02.18-.06.23l-125.45,72.42s-.06.02-.08.02Z"/>
        </g>
        <g id="LINE-201">
          <path class="cls-2" d="M458.33,398.97c-.09,0-.17-.08-.17-.17v-4.01c0-.09.08-.17.17-.17s.17.08.17.17v4.01c0,.09-.08.17-.17.17Z"/>
        </g>
        <g id="LINE-202">
          <path class="cls-2" d="M458.33,398.97c-.06,0-.12-.03-.15-.09-.05-.08-.02-.18.06-.23l125.45-72.42c.08-.05.18-.02.23.06.05.08.02.18-.06.23l-125.45,72.42s-.06.02-.08.02Z"/>
        </g>
        <g id="LINE-203">
          <path class="cls-2" d="M338.19,329.6c-.09,0-.17-.08-.17-.17v-4.01c0-.09.08-.17.17-.17s.17.08.17.17v4.01c0,.09-.08.17-.17.17Z"/>
        </g>
        <g id="LINE-204">
          <path class="cls-2" d="M338.19,325.59c-.06,0-.12-.03-.15-.08-.05-.08-.02-.18.06-.23l125.45-72.42c.08-.05.18-.02.23.06.05.08.02.18-.06.23l-125.45,72.42s-.06.02-.08.02Z"/>
        </g>
        <g id="LINE-205">
          <path class="cls-2" d="M511.65,323.37c-.06,0-.12-.03-.15-.08-.05-.08-.02-.18.06-.23l36.79-21.24c.08-.05.18-.02.23.06s.02.18-.06.23l-36.79,21.24s-.06.02-.08.02Z"/>
        </g>
        <g id="LINE-206">
          <path class="cls-2" d="M511.65,325.46c-.09,0-.17-.08-.17-.17v-2.09c0-.09.08-.17.17-.17s.17.08.17.17v2.09c0,.09-.08.17-.17.17Z"/>
        </g>
        <g id="LINE-207">
          <path class="cls-2" d="M513.31,326.41c-.06,0-.12-.03-.15-.08-.05-.08-.02-.18.06-.23l35.13-20.28c.08-.05.18-.02.23.06.05.08.02.18-.06.23l-35.13,20.28s-.06.02-.08.02Z"/>
        </g>
        <g id="LINE-208">
          <path class="cls-2" d="M515.27,325.46c-.06,0-.12-.03-.15-.08-.05-.08-.02-.18.06-.23l36.79-21.24c.08-.05.18-.02.23.06.05.08.02.18-.06.23l-36.79,21.24s-.06.02-.08.02Z"/>
        </g>
        <g id="ELLIPSE-55">
          <path class="cls-2" d="M514.29,326.68c-.36,0-.71-.08-.98-.24-.08-.05-.11-.15-.06-.23.05-.08.15-.11.23-.06.44.26,1.19.25,1.64,0,.18-.11.29-.24.29-.37,0-.12-.08-.24-.23-.35-.08-.05-.1-.16-.04-.24.05-.08.16-.1.24-.04.25.17.38.4.38.64-.01.25-.17.48-.46.65-.28.16-.64.24-.99.24Z"/>
        </g>
        <g id="LINE-209">
          <path class="cls-2" d="M513.38,326.46s-.06,0-.08-.02l-3.47-2c-.08-.05-.11-.15-.06-.23.05-.08.15-.11.23-.06l3.47,2c.08.05.11.15.06.23-.03.05-.09.08-.15.08Z"/>
        </g>
        <g id="ELLIPSE-56">
          <path class="cls-2" d="M509.91,324.46s-.06,0-.09-.02c-.29-.17-.45-.4-.46-.65,0-.24.13-.47.38-.64.52-.35,1.38-.39,1.98-.09.08.04.12.14.08.23-.04.08-.14.12-.23.08-.49-.24-1.22-.21-1.64.07-.15.1-.23.23-.23.35,0,.13.11.26.29.37.08.05.11.15.06.23-.03.05-.09.08-.15.08Z"/>
        </g>
        <g id="LINE-210">
          <path class="cls-2" d="M462.19,294.81c-.06,0-.12-.03-.15-.08-.05-.08-.02-.18.06-.23l36.79-21.24c.08-.05.18-.02.23.06.05.08.02.18-.06.23l-36.79,21.24s-.06.02-.08.02Z"/>
        </g>
        <g id="ELLIPSE-57">
          <path class="cls-2" d="M461.21,296.04c-.36,0-.71-.08-.98-.24-.08-.05-.11-.15-.06-.23.05-.08.15-.11.23-.06.44.26,1.19.25,1.64,0,.18-.11.29-.24.29-.37,0-.12-.08-.24-.23-.35-.08-.05-.1-.16-.04-.24.05-.08.16-.1.24-.04.25.17.38.4.38.64-.01.25-.17.48-.46.65-.28.16-.64.24-.99.24Z"/>
        </g>
        <g id="LINE-211">
          <path class="cls-2" d="M460.31,295.82s-.06,0-.09-.02l-3.48-2.01c-.08-.05-.11-.15-.06-.23.05-.08.15-.11.23-.06l3.48,2.01c.08.05.11.15.06.23-.03.05-.09.08-.15.08Z"/>
        </g>
        <g id="ELLIPSE-58">
          <path class="cls-2" d="M456.84,293.81s-.06,0-.09-.02c-.29-.17-.45-.4-.46-.65,0-.24.13-.47.38-.64.52-.35,1.39-.39,1.98-.09.08.04.12.14.08.23-.04.08-.14.12-.23.08-.49-.24-1.22-.21-1.64.07-.15.1-.23.23-.23.35,0,.13.11.26.29.37.08.05.11.15.06.23-.03.05-.09.08-.15.08Z"/>
        </g>
        <g id="LINE-212">
          <path class="cls-2" d="M458.57,292.73c-.06,0-.12-.03-.15-.08-.05-.08-.02-.18.06-.23l36.79-21.25c.08-.05.18-.02.23.06s.02.18-.06.23l-36.79,21.25s-.06.02-.09.02Z"/>
        </g>
        <g id="LINE-213">
          <path class="cls-2" d="M350.62,332.77s-.06,0-.08-.02l-12.43-7.18c-.08-.05-.11-.15-.06-.23.05-.08.15-.11.23-.06l12.43,7.18c.08.05.11.15.06.23-.03.05-.09.08-.15.08Z"/>
        </g>
        <g id="LINE-214">
          <path class="cls-2" d="M350.62,332.77c-.06,0-.12-.03-.15-.08-.05-.08-.02-.18.06-.23l17.94-10.36c.08-.05.18-.02.23.06.05.08.02.18-.06.23l-17.94,10.36s-.06.02-.08.02Z"/>
        </g>
        <g id="ELLIPSE-59">
          <path class="cls-2" d="M368.56,322.41c-.06,0-.12-.03-.15-.08-.05-.08-.02-.18.06-.23,1.06-.61,2.27-1.12,3.61-1.5.09-.03.18.03.21.12.03.09-.03.18-.12.21-1.31.38-2.5.87-3.53,1.47-.03.02-.06.02-.08.02Z"/>
        </g>
        <g id="LINE-215">
          <path class="cls-2" d="M372.13,320.93c-.07,0-.14-.05-.16-.12-.03-.09.03-.18.12-.21l27.6-7.92c.1-.03.18.03.21.12.03.09-.03.18-.12.21l-27.6,7.92s-.03,0-.05,0Z"/>
        </g>
        <g id="ELLIPSE-60">
          <path class="cls-2" d="M415.45,314.5s-.06,0-.09-.02c-4.11-2.38-10.37-2.97-15.59-1.47-.09.03-.18-.03-.21-.12-.03-.09.03-.18.12-.21,5.3-1.52,11.68-.92,15.86,1.5.08.05.11.15.06.23-.03.05-.09.08-.15.08Z"/>
        </g>
        <g id="LINE-216">
          <path class="cls-2" d="M477.57,350.35s-.06,0-.08-.02l-62.11-35.87c-.08-.05-.11-.15-.06-.23.05-.08.15-.11.23-.06l62.11,35.87c.08.05.11.15.06.23-.03.06-.09.09-.15.09Z"/>
        </g>
        <g id="ELLIPSE-61">
          <path class="cls-2" d="M480.14,359.43s-.08-.01-.11-.04c-.07-.06-.08-.17-.02-.24,1.1-1.28,1.56-2.71,1.32-4.13-.3-1.76-1.67-3.43-3.85-4.69-.08-.05-.11-.15-.06-.23.05-.08.15-.11.23-.06,2.27,1.31,3.7,3.06,4.01,4.92.26,1.52-.22,3.05-1.4,4.41-.03.04-.08.06-.13.06Z"/>
        </g>
        <g id="LINE-217">
          <path class="cls-2" d="M466.42,375.37s-.08-.01-.11-.04c-.07-.06-.08-.17-.02-.24l13.72-15.94c.06-.07.17-.08.24-.02.07.06.08.17.02.24l-13.72,15.94s-.08.06-.13.06Z"/>
        </g>
        <g id="ELLIPSE-62">
          <path class="cls-2" d="M463.84,377.43c-.06,0-.12-.03-.15-.08-.05-.08-.02-.19.06-.23,1.03-.6,1.89-1.28,2.53-2.03.06-.07.17-.08.24-.02.07.06.08.17.02.24-.67.77-1.55,1.48-2.62,2.1-.03.02-.06.02-.09.02Z"/>
        </g>
        <g id="LINE-218">
          <path class="cls-2" d="M445.9,387.79c-.06,0-.12-.03-.15-.09-.05-.08-.02-.18.06-.23l17.94-10.36c.08-.05.18-.02.23.06.05.08.02.18-.06.23l-17.94,10.36s-.06.02-.08.02Z"/>
        </g>
        <g id="LINE-219">
          <path class="cls-2" d="M458.33,394.96s-.06,0-.08-.02l-12.43-7.17c-.08-.05-.11-.15-.06-.23.05-.08.15-.11.23-.06l12.43,7.17c.08.05.11.15.06.23-.03.06-.09.09-.15.09Z"/>
        </g>
        <g id="LINE-220">
          <path class="cls-2" d="M445.9,391.8c-.09,0-.17-.08-.17-.17v-4.01c0-.09.08-.17.17-.17s.17.08.17.17v4.01c0,.09-.08.17-.17.17Z"/>
        </g>
        <g id="LINE-221">
          <path class="cls-2" d="M458.33,398.97s-.06,0-.08-.02l-12.43-7.17c-.08-.05-.11-.15-.06-.23.05-.08.15-.11.23-.06l12.43,7.17c.08.05.11.15.06.23-.03.06-.09.09-.15.09Z"/>
        </g>
        <g id="LINE-222">
          <path class="cls-2" d="M350.62,336.78s-.06,0-.08-.02l-12.43-7.18c-.08-.05-.11-.15-.06-.23.05-.08.15-.11.23-.06l12.43,7.18c.08.05.11.15.06.23-.03.05-.09.08-.15.08Z"/>
        </g>
        <g id="LINE-223">
          <path class="cls-2" d="M350.62,336.78c-.09,0-.17-.08-.17-.17v-4.01c0-.09.08-.17.17-.17s.17.08.17.17v4.01c0,.09-.08.17-.17.17Z"/>
        </g>
        <g id="ELLIPSE-63">
          <path class="cls-2" d="M481.11,357.93c-.06,0-.13-.04-.15-.1-.59-1.31-1.8-2.52-3.48-3.49-.08-.05-.11-.15-.06-.23.05-.08.15-.11.23-.06,1.74,1.01,2.99,2.27,3.62,3.65.04.09,0,.19-.08.22-.02.01-.05.02-.07.02Z"/>
        </g>
        <g id="LINE-224">
          <path class="cls-2" d="M477.57,354.36s-.06,0-.08-.02l-62.11-35.86c-.08-.05-.11-.15-.06-.23.05-.08.15-.11.23-.06l62.11,35.86c.08.05.11.15.06.23-.03.06-.09.09-.15.09Z"/>
        </g>
        <g id="ELLIPSE-64">
          <path class="cls-2" d="M415.45,318.51s-.06,0-.08-.02c-4.12-2.38-10.39-2.97-15.59-1.47-.09.03-.18-.03-.21-.12-.03-.09.03-.18.12-.21,5.29-1.52,11.66-.91,15.85,1.5.08.05.11.15.06.23-.03.05-.09.08-.15.08Z"/>
        </g>
        <g id="LINE-225">
          <path class="cls-2" d="M372.13,324.94c-.07,0-.14-.05-.16-.12-.03-.09.03-.18.12-.21l27.6-7.92c.1-.03.18.03.21.12.03.09-.03.18-.12.21l-27.6,7.92s-.03,0-.05,0Z"/>
        </g>
        <g id="ELLIPSE-65">
          <path class="cls-2" d="M368.56,326.43c-.06,0-.11-.03-.15-.08-.05-.08-.02-.18.06-.23,1.05-.61,2.26-1.12,3.61-1.5.09-.03.18.03.21.12.03.09-.03.18-.12.21-1.32.38-2.51.87-3.53,1.47-.03.02-.06.02-.09.02Z"/>
        </g>
        <g id="LINE-226">
          <path class="cls-2" d="M350.62,336.78c-.06,0-.12-.03-.15-.09-.05-.08-.02-.18.06-.23l17.94-10.36c.08-.05.18-.02.23.06.05.08.02.18-.06.23l-17.94,10.36s-.06.02-.08.02Z"/>
        </g>
        <g id="LINE-227">
          <path class="cls-2" d="M460.24,295.78c-.06,0-.12-.03-.15-.08-.05-.08-.02-.18.06-.23l35.12-20.28c.08-.05.18-.02.23.06s.02.18-.06.23l-35.12,20.28s-.06.02-.08.02Z"/>
        </g>
        <g id="LINE-228">
          <path class="cls-2" d="M458.57,294.81c-.09,0-.17-.08-.17-.17v-2.08c0-.09.08-.17.17-.17s.17.08.17.17v2.08c0,.09-.08.17-.17.17Z"/>
        </g>
        <g id="LINE-229">
          <path class="cls-2" d="M515.27,326.41c-.09,0-.17-.08-.17-.17v-.95c0-.09.08-.17.17-.17s.17.08.17.17v.95c0,.09-.08.17-.17.17Z"/>
        </g>
        <g id="LINE-230">
          <path class="cls-2" d="M462.19,295.78c-.09,0-.17-.08-.17-.17v-.96c0-.09.08-.17.17-.17s.17.08.17.17v.96c0,.09-.08.17-.17.17Z"/>
        </g>
        <g id="LINE-231">
          <path class="cls-2" d="M609.96,158.76c-.06,0-.12-.03-.15-.08-.05-.08-.02-.18.06-.23l1.21-.7c.08-.05.18-.02.23.06.05.08.02.18-.06.23l-1.21.7s-.06.02-.08.02Z"/>
        </g>
        <g id="LINE-232">
          <path class="cls-2" d="M609.96,221.78c-.09,0-.17-.08-.17-.17v-63.02c0-.09.08-.17.17-.17s.17.08.17.17v63.02c0,.09-.08.17-.17.17Z"/>
        </g>
        <g id="LINE-233">
          <path class="cls-2" d="M697.1,141.88c-.06,0-.12-.03-.15-.08-.05-.08-.02-.18.06-.23l1.21-.7c.08-.05.18-.02.23.06s.02.18-.06.23l-1.21.7s-.06.02-.08.02Z"/>
        </g>
        <g id="LINE-234">
          <path class="cls-2" d="M727.54,159.46s-.06,0-.08-.02l-30.44-17.58c-.08-.05-.11-.15-.06-.23.05-.08.15-.11.23-.06l30.44,17.58c.08.05.11.15.06.23-.03.05-.09.08-.15.08Z"/>
        </g>
        <g id="LINE-235">
          <path class="cls-2" d="M727.54,159.46c-.06,0-.12-.03-.15-.08-.05-.08-.02-.18.06-.23l1.21-.7c.08-.05.18-.02.23.06.05.08.02.18-.06.23l-1.21.7s-.06.02-.08.02Z"/>
        </g>
        <g id="LINE-236">
          <path class="cls-2" d="M728.75,158.76s-.06,0-.08-.02l-30.44-17.58c-.08-.05-.11-.15-.06-.23.05-.08.15-.11.23-.06l30.44,17.58c.08.05.11.15.06.23-.03.05-.09.08-.15.08Z"/>
        </g>
        <g id="LINE-237">
          <path class="cls-2" d="M644.02,111.23c-.06,0-.12-.03-.15-.09-.05-.08-.02-.18.06-.23l1.21-.69c.08-.05.18-.02.23.06.05.08.02.18-.06.23l-1.21.69s-.06.02-.08.02Z"/>
        </g>
        <g id="LINE-238">
          <path class="cls-2" d="M693.47,139.79s-.06,0-.08-.02l-49.46-28.55c-.08-.05-.11-.15-.06-.23.05-.08.15-.11.23-.06l49.46,28.55c.08.05.11.15.06.23-.03.05-.09.08-.15.08Z"/>
        </g>
        <g id="LINE-239">
          <path class="cls-2" d="M693.47,139.79c-.06,0-.12-.03-.15-.08-.05-.08-.02-.18.06-.23l1.21-.7c.08-.05.18-.02.23.06.05.08.02.18-.06.23l-1.21.7s-.06.02-.08.02Z"/>
        </g>
        <g id="LINE-240">
          <path class="cls-2" d="M694.68,139.09s-.06,0-.08-.02l-49.46-28.54c-.08-.05-.11-.15-.06-.23.05-.08.15-.11.23-.06l49.46,28.54c.08.05.11.15.06.23-.03.05-.09.08-.15.08Z"/>
        </g>
        <g id="LINE-241">
          <path class="cls-2" d="M727.54,289.66c-.06,0-.12-.03-.15-.09-.05-.08-.02-.18.06-.23l1.21-.69c.08-.05.19-.02.23.06.05.08.02.18-.06.23l-1.21.69s-.06.02-.08.02Z"/>
        </g>
        <g id="LINE-242">
          <path class="cls-2" d="M727.54,289.66s-.06,0-.08-.02l-30.44-17.57c-.08-.05-.11-.15-.06-.23.05-.08.15-.11.23-.06l30.44,17.57c.08.05.11.15.06.23-.03.05-.09.08-.15.08Z"/>
        </g>
        <g id="LINE-243">
          <path class="cls-2" d="M693.47,269.99c-.06,0-.12-.03-.15-.08-.05-.08-.02-.18.06-.23l1.21-.7c.08-.05.18-.02.23.06.05.08.02.18-.06.23l-1.21.7s-.06.02-.08.02Z"/>
        </g>
        <g id="LINE-244">
          <path class="cls-2" d="M693.47,269.99s-.06,0-.08-.02l-49.46-28.55c-.08-.05-.11-.15-.06-.23.05-.08.15-.11.23-.06l49.46,28.55c.08.05.11.15.06.23-.03.05-.09.08-.15.08Z"/>
        </g>
        <g id="LINE-245">
          <path class="cls-2" d="M640.4,239.35c-.06,0-.12-.03-.15-.08-.05-.08-.02-.18.06-.23l1.21-.7c.08-.05.18-.02.23.06.05.08.02.18-.06.23l-1.21.7s-.06.02-.08.02Z"/>
        </g>
        <g id="LINE-246">
          <path class="cls-2" d="M640.4,239.35s-.06,0-.08-.02l-30.44-17.57c-.08-.05-.11-.15-.06-.23.05-.08.15-.11.23-.06l30.44,17.57c.08.05.11.15.06.23-.03.05-.09.08-.15.08Z"/>
        </g>
        <g id="LINE-247">
          <path class="cls-2" d="M727.54,226.65c-.06,0-.12-.03-.15-.08-.05-.08-.02-.18.06-.23l1.21-.7c.08-.05.18-.02.23.06.05.08.02.18-.06.23l-1.21.7s-.06.02-.08.02Z"/>
        </g>
        <g id="LINE-248">
          <path class="cls-2" d="M727.54,289.66c-.09,0-.17-.08-.17-.17v-63.01c0-.09.08-.17.17-.17s.17.08.17.17v63.01c0,.09-.08.17-.17.17Z"/>
        </g>
        <g id="LINE-249">
          <path class="cls-2" d="M728.75,288.97c-.09,0-.17-.08-.17-.17v-63.02c0-.09.08-.17.17-.17s.17.08.17.17v63.02c0,.09-.08.17-.17.17Z"/>
        </g>
        <g id="LINE-250">
          <path class="cls-2" d="M640.4,109.15c-.06,0-.12-.03-.15-.08-.05-.08-.02-.18.06-.23l1.21-.7c.08-.05.18-.02.23.06s.02.18-.06.23l-1.21.7s-.06.02-.08.02Z"/>
        </g>
        <g id="LINE-251">
          <path class="cls-2" d="M641.61,108.45s-.06,0-.08-.02l-30.44-17.58c-.08-.05-.11-.15-.06-.23.05-.08.15-.11.23-.06l30.44,17.58c.08.05.11.15.06.23-.03.05-.09.08-.15.08Z"/>
        </g>
        <g id="LINE-252">
          <path class="cls-2" d="M609.96,91.57c-.06,0-.12-.03-.15-.08-.05-.08-.02-.18.06-.23l1.21-.7c.08-.05.18-.02.23.06s.02.18-.06.23l-1.21.7s-.06.02-.08.02Z"/>
        </g>
        <g id="LINE-253">
          <path class="cls-2" d="M640.4,109.15s-.06,0-.08-.02l-30.44-17.58c-.08-.05-.11-.15-.06-.23.05-.08.15-.11.23-.06l30.44,17.58c.08.05.11.15.06.23-.03.05-.09.08-.15.08Z"/>
        </g>
        <g id="LINE-254">
          <path class="cls-2" d="M727.54,222.47c-.06,0-.12-.03-.15-.09-.05-.08-.02-.18.06-.23l1.21-.69c.08-.05.19-.02.23.06.05.08.02.18-.06.23l-1.21.69s-.06.02-.08.02Z"/>
        </g>
        <g id="LINE-255">
          <path class="cls-2" d="M728.75,221.78c-.09,0-.17-.08-.17-.17v-63.02c0-.09.08-.17.17-.17s.17.08.17.17v63.02c0,.09-.08.17-.17.17Z"/>
        </g>
        <g id="LINE-256">
          <path class="cls-2" d="M727.54,222.47c-.09,0-.17-.08-.17-.17v-63.01c0-.09.08-.17.17-.17s.17.08.17.17v63.01c0,.09-.08.17-.17.17Z"/>
        </g>
        <g id="LINE-257">
          <path class="cls-2" d="M609.96,154.59c-.09,0-.17-.08-.17-.17v-63.02c0-.09.08-.17.17-.17s.17.08.17.17v63.02c0,.09-.08.17-.17.17Z"/>
        </g>
        <g id="LINE-258">
          <path class="cls-2" d="M732.67,295.78c-.09,0-.17-.08-.17-.17v-139.28c0-.09.08-.17.17-.17s.17.08.17.17v139.28c0,.09-.08.17-.17.17Z"/>
        </g>
        <g id="LINE-259">
          <path class="cls-2" d="M732.67,295.78c-.06,0-.12-.03-.15-.08-.05-.08-.02-.18.06-.23l2.27-1.31c.08-.05.18-.02.23.06.05.08.02.18-.06.23l-2.27,1.31s-.06.02-.09.02Z"/>
        </g>
        <g id="LINE-260">
          <path class="cls-2" d="M734.94,294.47c-.09,0-.17-.08-.17-.17v-139.28c0-.09.08-.17.17-.17s.17.08.17.17v139.28c0,.09-.08.17-.17.17Z"/>
        </g>
        <g id="LINE-261">
          <path class="cls-2" d="M732.67,156.5c-.06,0-.12-.03-.15-.08-.05-.08-.02-.18.06-.23l2.27-1.31c.08-.05.18-.02.23.06.05.08.02.18-.06.23l-2.27,1.31s-.06.02-.09.02Z"/>
        </g>
        <g id="LINE-262">
          <path class="cls-2" d="M732.67,295.78s-.06,0-.08-.02l-125.45-72.43c-.08-.05-.11-.15-.06-.23.05-.08.15-.11.23-.06l125.45,72.43c.08.05.11.15.06.23-.03.05-.09.08-.15.08Z"/>
        </g>
        <g id="LINE-263">
          <path class="cls-2" d="M640.4,176.34s-.06,0-.08-.02l-30.44-17.58c-.08-.05-.11-.15-.06-.23.05-.08.15-.11.23-.06l30.44,17.58c.08.05.11.15.06.23-.03.05-.09.08-.15.08Z"/>
        </g>
        <g id="LINE-264">
          <path class="cls-2" d="M640.4,176.34c-.06,0-.12-.03-.15-.08-.05-.08-.02-.18.06-.23l1.21-.7c.08-.05.18-.02.23.06.05.08.02.18-.06.23l-1.21.7s-.06.02-.08.02Z"/>
        </g>
        <g id="LINE-265">
          <path class="cls-2" d="M641.61,175.64s-.06,0-.08-.02l-30.44-17.58c-.08-.05-.11-.15-.06-.23.05-.08.15-.11.23-.06l30.44,17.58c.08.05.11.15.06.23-.03.05-.09.08-.15.08Z"/>
        </g>
        <g id="LINE-266">
          <path class="cls-2" d="M641.61,238.65c-.09,0-.17-.08-.17-.17v-63.01c0-.09.08-.17.17-.17s.17.08.17.17v63.01c0,.09-.08.17-.17.17Z"/>
        </g>
        <g id="LINE-267">
          <path class="cls-2" d="M640.4,239.35c-.09,0-.17-.08-.17-.17v-63.01c0-.09.08-.17.17-.17s.17.08.17.17v63.01c0,.09-.08.17-.17.17Z"/>
        </g>
        <g id="LINE-268">
          <path class="cls-2" d="M644.02,241.44c-.09,0-.17-.08-.17-.17v-63.02c0-.09.08-.17.17-.17s.17.08.17.17v63.02c0,.09-.08.17-.17.17Z"/>
        </g>
        <g id="LINE-269">
          <path class="cls-2" d="M644.02,178.42c-.06,0-.12-.03-.15-.09-.05-.08-.02-.18.06-.23l1.21-.69c.08-.05.18-.02.23.06s.02.18-.06.23l-1.21.69s-.06.02-.08.02Z"/>
        </g>
        <g id="LINE-270">
          <path class="cls-2" d="M694.68,269.3c-.09,0-.17-.08-.17-.17v-63.02c0-.09.08-.17.17-.17s.17.08.17.17v63.02c0,.09-.08.17-.17.17Z"/>
        </g>
        <g id="LINE-271">
          <path class="cls-2" d="M693.47,206.98c-.06,0-.12-.03-.15-.08-.05-.08-.02-.18.06-.23l1.21-.7c.08-.05.18-.02.23.06.05.08.02.18-.06.23l-1.21.7s-.06.02-.08.02Z"/>
        </g>
        <g id="LINE-272">
          <path class="cls-2" d="M693.47,269.99c-.09,0-.17-.08-.17-.17v-63.02c0-.09.08-.17.17-.17s.17.08.17.17v63.02c0,.09-.08.17-.17.17Z"/>
        </g>
        <g id="LINE-273">
          <path class="cls-2" d="M697.1,272.09c-.09,0-.17-.08-.17-.17v-63.02c0-.09.08-.17.17-.17s.17.08.17.17v63.02c0,.09-.08.17-.17.17Z"/>
        </g>
        <g id="LINE-274">
          <path class="cls-2" d="M697.1,209.07c-.06,0-.12-.03-.15-.08-.05-.08-.02-.18.06-.23l1.21-.7c.08-.05.18-.02.23.06.05.08.02.18-.06.23l-1.21.7s-.06.02-.08.02Z"/>
        </g>
        <g id="LINE-275">
          <path class="cls-2" d="M727.54,226.65s-.06,0-.08-.02l-30.44-17.58c-.08-.05-.11-.15-.06-.23.05-.08.15-.11.23-.06l30.44,17.58c.08.05.11.15.06.23-.03.05-.09.08-.15.08Z"/>
        </g>
        <g id="LINE-276">
          <path class="cls-2" d="M693.47,206.98s-.06,0-.08-.02l-49.46-28.55c-.08-.05-.11-.15-.06-.23.05-.08.15-.11.23-.06l49.46,28.55c.08.05.11.15.06.23-.03.05-.09.08-.15.08Z"/>
        </g>
        <g id="LINE-277">
          <path class="cls-2" d="M697.1,204.9c-.09,0-.17-.08-.17-.17v-63.02c0-.09.08-.17.17-.17s.17.08.17.17v63.02c0,.09-.08.17-.17.17Z"/>
        </g>
        <g id="LINE-278">
          <path class="cls-2" d="M727.54,222.47s-.06,0-.08-.02l-30.44-17.57c-.08-.05-.11-.15-.06-.23.05-.08.15-.11.23-.06l30.44,17.57c.08.05.11.15.06.23-.03.05-.09.08-.15.08Z"/>
        </g>
        <g id="LINE-279">
          <path class="cls-2" d="M644.02,174.25c-.09,0-.17-.08-.17-.17v-63.02c0-.09.08-.17.17-.17s.17.08.17.17v63.02c0,.09-.08.17-.17.17Z"/>
        </g>
        <g id="LINE-280">
          <path class="cls-2" d="M693.47,202.8s-.06,0-.08-.02l-49.46-28.55c-.08-.05-.11-.15-.06-.23.05-.08.15-.11.23-.06l49.46,28.55c.08.05.11.15.06.23-.03.05-.09.08-.15.08Z"/>
        </g>
        <g id="LINE-281">
          <path class="cls-2" d="M693.47,202.8c-.09,0-.17-.08-.17-.17v-63.02c0-.09.08-.17.17-.17s.17.08.17.17v63.02c0,.09-.08.17-.17.17Z"/>
        </g>
        <g id="LINE-282">
          <path class="cls-2" d="M728.75,225.95s-.06,0-.08-.02l-30.44-17.58c-.08-.05-.11-.15-.06-.23.05-.08.15-.11.23-.06l30.44,17.58c.08.05.11.15.06.23-.03.05-.09.08-.15.08Z"/>
        </g>
        <g id="LINE-283">
          <path class="cls-2" d="M641.61,171.46c-.09,0-.17-.08-.17-.17v-63.01c0-.09.08-.17.17-.17s.17.08.17.17v63.01c0,.09-.08.17-.17.17Z"/>
        </g>
        <g id="LINE-284">
          <path class="cls-2" d="M694.68,206.28s-.06,0-.08-.02l-49.46-28.54c-.08-.05-.11-.15-.06-.23.05-.08.15-.11.23-.06l49.46,28.54c.08.05.11.15.06.23-.03.05-.09.08-.15.08Z"/>
        </g>
        <g id="LINE-285">
          <path class="cls-2" d="M694.68,202.11c-.09,0-.17-.08-.17-.17v-63.02c0-.09.08-.17.17-.17s.17.08.17.17v63.02c0,.09-.08.17-.17.17Z"/>
        </g>
        <g id="LINE-286">
          <path class="cls-2" d="M607.23,223.35c-.09,0-.17-.08-.17-.17V83.89c0-.09.08-.17.17-.17s.17.08.17.17v139.28c0,.09-.08.17-.17.17Z"/>
        </g>
        <g id="LINE-287">
          <path class="cls-2" d="M732.67,156.5s-.06,0-.08-.02l-125.45-72.43c-.08-.05-.11-.15-.06-.23.05-.08.15-.11.23-.06l125.45,72.43c.08.05.11.15.06.23-.03.05-.09.08-.15.08Z"/>
        </g>
        <g id="LINE-288">
          <path class="cls-2" d="M640.4,172.16c-.06,0-.12-.03-.15-.08-.05-.08-.02-.18.06-.23l1.21-.7c.08-.05.18-.02.23.06.05.08.02.18-.06.23l-1.21.7s-.06.02-.08.02Z"/>
        </g>
        <g id="LINE-289">
          <path class="cls-2" d="M640.4,172.16s-.06,0-.08-.02l-30.44-17.57c-.08-.05-.11-.15-.06-.23.05-.08.15-.11.23-.06l30.44,17.57c.08.05.11.15.06.23-.03.05-.09.08-.15.08Z"/>
        </g>
        <g id="LINE-290">
          <path class="cls-2" d="M693.47,202.8c-.06,0-.12-.03-.15-.08-.05-.08-.02-.18.06-.23l1.21-.7c.08-.05.18-.02.23.06.05.08.02.18-.06.23l-1.21.7s-.06.02-.08.02Z"/>
        </g>
        <g id="LINE-291">
          <path class="cls-2" d="M640.4,172.16c-.09,0-.17-.08-.17-.17v-63.01c0-.09.08-.17.17-.17s.17.08.17.17v63.01c0,.09-.08.17-.17.17Z"/>
        </g>
        <g id="LINE-292">
          <path class="cls-2" d="M734.94,155.18s-.06,0-.08-.02l-125.45-72.43c-.08-.05-.11-.15-.06-.23.05-.08.15-.11.23-.06l125.45,72.43c.08.05.11.15.06.23-.03.05-.09.08-.15.08Z"/>
        </g>
        <g id="LINE-293">
          <path class="cls-2" d="M607.23,84.06c-.06,0-.12-.03-.15-.08-.05-.08-.02-.18.06-.23l2.27-1.31c.08-.05.18-.02.23.06.05.08.02.18-.06.23l-2.27,1.31s-.06.02-.09.02Z"/>
        </g>
        <g id="LINE-294">
          <path class="cls-2" d="M327.62,235.08s-.04,0-.05-.01l-2.41-1.38c-.05-.03-.07-.1-.04-.15.03-.05.09-.07.15-.04l2.41,1.38c.05.03.07.1.04.15-.02.03-.06.05-.09.05Z"/>
        </g>
        <g id="LINE-295">
          <path class="cls-2" d="M380.7,204.44s-.04,0-.05-.01l-3.48-2.01c-.05-.03-.07-.1-.04-.15.03-.05.1-.07.15-.04l3.48,2.01c.05.03.07.1.04.15-.02.03-.06.05-.09.05Z"/>
        </g>
        <g id="LINE-296">
          <path class="cls-2" d="M383.11,200.26s-.04,0-.05-.01l-3.48-2c-.05-.03-.07-.1-.04-.15.03-.05.09-.07.15-.04l3.48,2c.05.03.07.1.04.15-.02.03-.06.05-.09.05Z"/>
        </g>
        <g id="LINE-297">
          <path class="cls-2" d="M383.11,168.51s-.04,0-.05-.01l-2.41-1.39c-.05-.03-.07-.1-.04-.15.03-.05.1-.07.15-.04l2.41,1.39c.05.03.07.1.04.15-.02.03-.06.05-.09.05Z"/>
        </g>
        <g id="LINE-298">
          <path class="cls-2" d="M383.11,271.02s-.04,0-.05-.01l-3.48-2.01c-.05-.03-.07-.1-.04-.15.03-.05.1-.07.15-.04l3.48,2.01c.05.03.07.1.04.15-.02.03-.06.05-.09.05Z"/>
        </g>
        <g id="LINE-299">
          <path class="cls-2" d="M383.11,239.27s-.04,0-.05-.01l-2.41-1.39c-.05-.03-.07-.1-.04-.15s.1-.07.15-.04l2.41,1.39c.05.03.07.1.04.15-.02.03-.06.05-.09.05Z"/>
        </g>
        <g id="LINE-300">
          <path class="cls-2" d="M327.62,305.84s-.04,0-.05-.01l-2.41-1.39c-.05-.03-.07-.1-.04-.15.03-.05.1-.07.15-.04l2.41,1.39c.05.03.07.1.04.15-.02.03-.06.05-.09.05Z"/>
        </g>
        <g id="LINE-301">
          <path class="cls-2" d="M380.7,275.19s-.04,0-.05-.01l-3.48-2c-.05-.03-.07-.1-.04-.15.03-.05.09-.07.15-.04l3.48,2c.05.03.07.1.04.15-.02.03-.06.05-.09.05Z"/>
        </g>
        <g id="LINE-302">
          <path class="cls-2" d="M354.16,238.49s-.04,0-.05-.01l-3.47-2.01c-.05-.03-.07-.1-.04-.15.03-.05.1-.07.15-.04l3.47,2.01c.05.03.07.1.04.15-.02.03-.06.05-.09.05Z"/>
        </g>
        <g id="LINE-303">
          <path class="cls-2" d="M354.16,234.48s-.04,0-.05-.01l-.9-.52c-.05-.03-.07-.1-.04-.15s.1-.07.15-.04l.9.52c.05.03.07.1.04.15-.02.03-.06.05-.09.05Z"/>
        </g>
        <g id="LINE-304">
          <path class="cls-2" d="M315.56,222.91s-.04,0-.05-.01l-3.48-2.01c-.05-.03-.07-.1-.04-.15.03-.05.1-.07.15-.04l3.48,2.01c.05.03.07.1.04.15-.02.03-.06.05-.09.05Z"/>
        </g>
        <g id="LINE-305">
          <path class="cls-2" d="M285.26,331.28s-.04,0-.05-.01l-3.48-2c-.05-.03-.07-.1-.04-.15.03-.05.09-.07.15-.04l3.48,2c.05.03.07.1.04.15-.02.03-.06.05-.09.05Z"/>
        </g>
        <g id="LINE-306">
          <path class="cls-2" d="M288.32,328.93s-.04,0-.05-.01l-3.48-2.01c-.05-.03-.07-.1-.04-.15s.1-.07.15-.04l3.48,2.01c.05.03.07.1.04.15-.02.03-.06.05-.09.05Z"/>
        </g>
        <g id="LINE-307">
          <path class="cls-2" d="M308.99,308.99s-.04,0-.05-.01l-3.48-2.01c-.05-.03-.07-.1-.04-.15.03-.05.1-.07.15-.04l3.48,2.01c.05.03.07.1.04.15-.02.03-.06.05-.09.05Z"/>
        </g>
        <g id="LINE-308">
          <path class="cls-2" d="M315.56,294.62s-.04,0-.05-.01l-3.48-2c-.05-.03-.07-.1-.04-.15.03-.05.1-.07.15-.04l3.48,2c.05.03.07.1.04.15-.02.03-.06.05-.09.05Z"/>
        </g>
        <g id="LINE-309">
          <path class="cls-2" d="M592.99,388.29s-.04,0-.05-.02l-2.41-1.39c-.05-.03-.07-.1-.04-.15.03-.05.1-.07.15-.04l2.41,1.39c.05.03.07.1.04.15-.02.03-.06.05-.09.05Z"/>
        </g>
        <g id="LINE-310">
          <path class="cls-2" d="M646.07,357.66s-.04,0-.05-.02l-3.48-2.01c-.05-.03-.07-.1-.04-.15.03-.05.09-.07.15-.04l3.48,2.01c.05.03.07.1.04.15-.02.03-.06.05-.09.05Z"/>
        </g>
        <g id="LINE-311">
          <path class="cls-2" d="M648.48,353.47s-.04,0-.05-.02l-3.47-2c-.05-.03-.07-.1-.04-.15.03-.05.09-.07.15-.04l3.47,2c.05.03.07.1.04.15-.02.03-.06.05-.09.05Z"/>
        </g>
        <g id="LINE-312">
          <path class="cls-2" d="M648.48,321.72s-.04,0-.05-.01l-2.41-1.4c-.05-.03-.07-.1-.04-.15.03-.05.1-.07.15-.04l2.41,1.4c.05.03.07.1.04.15-.02.03-.06.05-.09.05Z"/>
        </g>
        <g id="LINE-313">
          <path class="cls-2" d="M648.48,424.23s-.04,0-.05-.02l-3.47-2c-.05-.03-.07-.1-.04-.15.03-.05.09-.07.15-.04l3.47,2c.05.03.07.1.04.15-.02.03-.06.05-.09.05Z"/>
        </g>
        <g id="LINE-314">
          <path class="cls-2" d="M648.48,392.48s-.04,0-.05-.02l-2.41-1.4c-.05-.03-.07-.1-.04-.15.03-.05.1-.07.15-.04l2.41,1.4c.05.03.07.1.04.15-.02.03-.06.05-.09.05Z"/>
        </g>
        <g id="LINE-315">
          <path class="cls-2" d="M592.99,459.05s-.04,0-.05-.02l-2.41-1.39c-.05-.03-.07-.1-.04-.15.03-.05.1-.07.15-.04l2.41,1.39c.05.03.07.1.04.15-.02.03-.06.05-.09.05Z"/>
        </g>
        <g id="LINE-316">
          <path class="cls-2" d="M646.07,428.41s-.04,0-.05-.02l-3.48-2c-.05-.03-.07-.1-.04-.15.03-.05.09-.07.15-.04l3.48,2c.05.03.07.1.04.15-.02.03-.06.05-.09.05Z"/>
        </g>
        <g id="LINE-317">
          <path class="cls-2" d="M619.54,391.7s-.04,0-.05-.02l-3.48-2.01c-.05-.03-.07-.1-.04-.15.03-.05.1-.07.15-.04l3.48,2.01c.05.03.07.1.04.15-.02.03-.06.05-.09.05Z"/>
        </g>
        <g id="LINE-318">
          <path class="cls-2" d="M619.54,387.69s-.04,0-.05-.02l-.9-.52c-.05-.03-.07-.1-.04-.15s.09-.07.15-.04l.9.52c.05.03.07.1.04.15-.02.03-.06.05-.09.05Z"/>
        </g>
        <g id="LINE-319">
          <path class="cls-2" d="M580.93,376.12s-.04,0-.05-.02l-3.47-2.01c-.05-.03-.07-.1-.04-.15s.09-.07.15-.04l3.47,2.01c.05.03.07.1.04.15-.02.03-.06.05-.09.05Z"/>
        </g>
        <g id="LINE-320">
          <path class="cls-2" d="M550.62,484.49s-.04,0-.05-.02l-3.48-2c-.05-.03-.07-.1-.04-.15.03-.05.1-.07.15-.04l3.48,2c.05.03.07.1.04.15-.02.03-.06.05-.09.05Z"/>
        </g>
        <g id="LINE-321">
          <path class="cls-2" d="M553.7,482.14s-.04,0-.05-.02l-3.48-2.01c-.05-.03-.07-.1-.04-.15.03-.05.09-.07.15-.04l3.48,2.01c.05.03.07.1.04.15-.02.03-.06.05-.09.05Z"/>
        </g>
        <g id="LINE-322">
          <path class="cls-2" d="M574.36,462.2s-.04,0-.05-.02l-3.48-2.01c-.05-.03-.07-.1-.04-.15.03-.05.09-.07.15-.04l3.48,2.01c.05.03.07.1.04.15-.02.03-.06.05-.09.05Z"/>
        </g>
        <g id="LINE-323">
          <path class="cls-2" d="M580.93,447.83s-.04,0-.05-.02l-3.47-2c-.05-.03-.07-.1-.04-.15.03-.05.09-.07.15-.04l3.47,2c.05.03.07.1.04.15-.02.03-.06.05-.09.05Z"/>
        </g>
        <g id="LINE-324">
          <path class="cls-2" d="M415.45,318.45c-.06,0-.11-.05-.11-.11v-4.02c0-.06.05-.11.11-.11s.11.05.11.11v4.02c0,.06-.05.11-.11.11Z"/>
        </g>
        <g id="LINE-325">
          <path class="cls-2" d="M399.73,316.96c-.06,0-.11-.05-.11-.11v-4.01c0-.06.05-.11.11-.11s.11.05.11.11v4.01c0,.06-.05.11-.11.11Z"/>
        </g>
        <g id="LINE-326">
          <path class="cls-2" d="M372.13,324.88c-.06,0-.11-.05-.11-.11v-4.01c0-.06.05-.11.11-.11s.11.05.11.11v4.01c0,.06-.05.11-.11.11Z"/>
        </g>
        <g id="LINE-327">
          <path class="cls-2" d="M368.56,326.36c-.06,0-.11-.05-.11-.11v-4.01c0-.06.05-.11.11-.11s.11.05.11.11v4.01c0,.06-.05.11-.11.11Z"/>
        </g>
        <g id="LINE-328">
          <path class="cls-2" d="M477.57,354.3c-.06,0-.11-.05-.11-.11v-4.01c0-.06.05-.11.11-.11s.11.05.11.11v4.01c0,.06-.05.11-.11.11Z"/>
        </g>
      </g>
    </g>
    <g>
      <g>
        <path class="cls-2" d="M327.69,398c-.06,0-.12-.03-.15-.09-.05-.08-.02-.19.06-.23l270.59-152.18c.08-.04.19-.02.23.06.05.08.02.18-.06.23l-270.59,152.17s-.06.02-.08.02Z"/>
        <polygon class="cls-2" points="598.67 247.4 600.42 244.46 597 244.42 598.67 247.4"/>
      </g>
      <path class="cls-2" d="M257.98,437.21c-.06,0-.12-.03-.15-.09-.05-.08-.02-.19.06-.23l36.39-20.46c.08-.05.19-.02.23.06.05.08.02.19-.06.23l-36.39,20.46s-.06.02-.08.02Z"/>
      <g>
        <path class="cls-2" d="M191.14,474.81c-.06,0-.12-.03-.15-.09-.05-.08-.02-.19.06-.23l33.78-19.01c.08-.05.19-.02.23.06s.02.19-.06.23l-33.78,19.01s-.06.02-.08.02Z"/>
        <polygon class="cls-2" points="192.41 475.88 189 475.84 190.74 472.89 192.41 475.88"/>
      </g>
    </g>
    <g>
      <path class="cls-2" d="M423.6,415.35c-.09,0-.17-.08-.17-.17v-201.02c0-.09.08-.17.17-.17s.17.08.17.17v201.02c0,.09-.08.17-.17.17Z"/>
      <polygon class="cls-2" points="422.22 214.56 423.6 212.18 424.96 214.56 422.22 214.56"/>
      <polygon class="cls-2" points="422.22 414.78 423.6 417.15 424.96 414.78 422.22 414.78"/>
    </g>
    <g>
      <path class="cls-2" d="M529.23,444.94s-.06,0-.08-.02l-281.19-155.03c-.08-.05-.11-.15-.07-.23.05-.08.15-.11.23-.07l281.19,155.03c.08.05.11.15.07.23-.03.06-.09.09-.15.09Z"/>
      <polygon class="cls-2" points="247.73 291.14 246.31 288.8 249.05 288.74 247.73 291.14"/>
      <polygon class="cls-2" points="528.21 445.78 530.95 445.72 529.53 443.38 528.21 445.78"/>
    </g>
  </g>
</svg>