<?xml version="1.0" encoding="UTF-8"?>
<svg id="GRAPHICS" xmlns="http://www.w3.org/2000/svg" viewBox="0 0 798.73 648">
  <defs>
    <style>
      .cls-1 {
        stroke-width: 0px;
      }

      .cls-2 {
        stroke-miterlimit: 10;
      }

      .cls-2, .cls-3, .cls-4, .cls-5, .cls-6 {
        fill: none;
        stroke: #000;
      }

      .cls-2, .cls-6 {
        stroke-width: .2px;
      }

      .cls-3 {
        stroke-width: .4px;
      }

      .cls-3, .cls-4, .cls-5, .cls-6 {
        stroke-linecap: round;
        stroke-linejoin: round;
      }

      .cls-4 {
        stroke-width: .2px;
      }

      .cls-4, .cls-6 {
        stroke-dasharray: 0 0 0 0 0 0 6.53 3.27;
      }

      .cls-5 {
        stroke-width: .4px;
      }
    </style>
  </defs>
  <g>
    <path class="cls-1" d="M139.22,602.53v-.06l-4.26-6.27h1.91l3.38,5.1h.06l3.43-5.1h1.8l-4.38,6.35v.05l4.28,6.28h-1.9l-3.37-5.05h-.06l-3.42,5.05h-1.79l4.32-6.35Z"/>
    <path class="cls-1" d="M146.12,604.45v-1.42h5.77v1.42h-5.77Z"/>
    <path class="cls-1" d="M155.67,608.88h-1.58v-12.68h4.75c2.44,0,4.04,1.49,4.04,3.78,0,1.77-.96,3.14-2.55,3.64l2.94,5.26h-1.85l-2.72-5.02h-3.03v5.02ZM155.67,602.47h3.03c1.63,0,2.55-.88,2.55-2.43s-.98-2.43-2.62-2.43h-2.96v4.86Z"/>
    <path class="cls-1" d="M164.27,606.3c0-1.56,1.2-2.55,3.31-2.67l2.62-.15v-.76c0-1.12-.74-1.78-2-1.78-1.18,0-1.92.55-2.11,1.45h-1.48c.11-1.58,1.46-2.79,3.62-2.79s3.5,1.16,3.5,2.98v6.32h-1.45v-1.57h-.04c-.54,1.05-1.71,1.73-2.94,1.73-1.82,0-3.04-1.1-3.04-2.74ZM170.2,605.41v-.75l-2.44.15c-1.23.08-1.93.62-1.93,1.49s.73,1.44,1.83,1.44c1.44,0,2.55-1.01,2.55-2.33Z"/>
    <path class="cls-1" d="M173.77,612.25v-1.28c.17.04.4.04.6.04.85,0,1.33-.41,1.68-1.48l.21-.64-3.38-9.15h1.63l2.53,7.61h.03l2.53-7.61h1.61l-3.59,9.78c-.78,2.14-1.54,2.78-3.19,2.78-.18,0-.49-.02-.66-.05Z"/>
    <path class="cls-1" d="M185.66,604.31c0-2.92,1.71-4.73,4.24-4.73s4.23,1.81,4.23,4.73-1.71,4.73-4.23,4.73-4.24-1.82-4.24-4.73ZM192.57,604.31c0-2.15-1.05-3.38-2.67-3.38s-2.68,1.23-2.68,3.38,1.06,3.38,2.68,3.38,2.67-1.23,2.67-3.38Z"/>
    <path class="cls-1" d="M196.16,601h-1.27v-1.26h1.27v-1.02c0-1.76.82-2.59,2.5-2.59.34,0,.71.04.93.07v1.24c-.18-.03-.44-.05-.69-.05-.83,0-1.22.44-1.22,1.34v1.01h1.87v1.26h-1.86v7.88h-1.53v-7.88Z"/>
    <path class="cls-1" d="M206.04,605.39c.15,1.37,1.45,2.28,3.26,2.28,1.71,0,2.96-.91,2.96-2.15,0-1.07-.75-1.73-2.45-2.17l-1.63-.42c-2.34-.6-3.38-1.63-3.38-3.35,0-2.11,1.85-3.59,4.48-3.59s4.35,1.49,4.42,3.62h-1.58c-.14-1.36-1.24-2.2-2.89-2.2s-2.79.85-2.79,2.09c0,.96.7,1.53,2.43,1.98l1.33.35c2.63.66,3.69,1.67,3.69,3.49,0,2.32-1.83,3.77-4.75,3.77-2.69,0-4.55-1.46-4.7-3.7h1.59Z"/>
    <path class="cls-1" d="M223.86,604.31c0,2.87-1.57,4.73-3.88,4.73-1.31,0-2.36-.64-2.91-1.64h-.04v4.54h-1.53v-12.19h1.45v1.55h.04c.56-1.03,1.63-1.71,2.95-1.71,2.33,0,3.91,1.86,3.91,4.73ZM222.29,604.31c0-2.07-1.02-3.38-2.65-3.38s-2.62,1.35-2.62,3.38,1.05,3.38,2.62,3.38,2.65-1.31,2.65-3.38Z"/>
    <path class="cls-1" d="M232.96,606.26c-.26,1.6-1.81,2.78-3.81,2.78-2.62,0-4.21-1.82-4.21-4.69s1.62-4.76,4.14-4.76,3.99,1.79,3.99,4.56v.58h-6.56v.09c0,1.75,1.03,2.9,2.67,2.9,1.16,0,2.01-.59,2.27-1.45h1.5ZM226.53,603.53h4.97c-.04-1.53-.99-2.62-2.43-2.62s-2.43,1.1-2.53,2.62Z"/>
    <path class="cls-1" d="M234.25,606.3c0-1.56,1.2-2.55,3.31-2.67l2.62-.15v-.76c0-1.12-.74-1.78-2-1.78-1.18,0-1.92.55-2.11,1.45h-1.48c.11-1.58,1.46-2.79,3.62-2.79s3.5,1.16,3.5,2.98v6.32h-1.45v-1.57h-.04c-.54,1.05-1.71,1.73-2.94,1.73-1.82,0-3.04-1.1-3.04-2.74ZM240.18,605.41v-.75l-2.44.15c-1.23.08-1.93.62-1.93,1.49s.73,1.44,1.83,1.44c1.44,0,2.55-1.01,2.55-2.33Z"/>
    <path class="cls-1" d="M249.3,599.74h1.85l-3.96,3.95,4.09,5.19h-1.78l-3.39-4.25-.85.81v3.45h-1.53v-12.68h1.53v7.6l4.04-4.06Z"/>
    <path class="cls-1" d="M259.52,606.26c-.26,1.6-1.81,2.78-3.81,2.78-2.62,0-4.21-1.82-4.21-4.69s1.62-4.76,4.14-4.76,3.99,1.79,3.99,4.56v.58h-6.56v.09c0,1.75,1.03,2.9,2.67,2.9,1.16,0,2.01-.59,2.27-1.45h1.5ZM253.08,603.53h4.97c-.04-1.53-.99-2.62-2.43-2.62s-2.43,1.1-2.53,2.62Z"/>
    <path class="cls-1" d="M261.17,599.74h1.44v1.49h.04c.3-1.01,1.14-1.65,2.21-1.65.26,0,.49.04.62.06v1.49c-.12-.04-.45-.09-.82-.09-1.19,0-1.96.85-1.96,2.14v5.7h-1.53v-9.14Z"/>
  </g>
  <g>
    <g id="ELLIPSE">
      <path class="cls-2" d="M139.73,468.62c-1.39-.8-2.17-2.52-2.17-4.79"/>
    </g>
    <g id="ELLIPSE-2">
      <path class="cls-2" d="M137.57,463.84c-1.96-1.13-3.06-2.67-3.06-4.27"/>
    </g>
    <g id="ELLIPSE-3">
      <path class="cls-2" d="M144.96,184.71c-1.96-1.13-3.84-1.32-5.23-.52"/>
    </g>
    <g id="ELLIPSE-4">
      <path class="cls-2" d="M134.51,193.24c0,1.6,1.1,3.14,3.06,4.27"/>
    </g>
    <g id="ELLIPSE-5">
      <path class="cls-2" d="M137.57,197.51c0-4.71,3.31-10.45,7.39-12.8"/>
    </g>
    <g id="LINE">
      <line class="cls-2" x1="137.57" y1="463.84" x2="137.57" y2="197.51"/>
    </g>
    <g id="ELLIPSE-6">
      <path class="cls-2" d="M392.86,602.69c-4.08,2.36-10.7,2.36-14.78,0"/>
    </g>
    <g id="ELLIPSE-7">
      <path class="cls-2" d="M378.07,602.69c0,2.26.78,3.99,2.17,4.79"/>
    </g>
    <g id="ELLIPSE-8">
      <path class="cls-2" d="M390.69,607.48c1.39-.8,2.17-2.52,2.17-4.79"/>
    </g>
    <g id="LINE-2">
      <line class="cls-2" x1="378.07" y1="602.69" x2="137.57" y2="463.84"/>
    </g>
    <g id="ELLIPSE-9">
      <path class="cls-2" d="M402.34,36.11c1.96-1.13,3.84-1.32,5.23-.52"/>
    </g>
    <g id="ELLIPSE-10">
      <path class="cls-2" d="M397.11,35.59c1.39-.8,3.27-.61,5.23.52"/>
    </g>
    <g id="LINE-3">
      <line class="cls-2" x1="144.96" y1="184.71" x2="402.34" y2="36.11"/>
    </g>
    <g id="ELLIPSE-11">
      <path class="cls-2" d="M650.23,454.09c0,2.26-.78,3.99-2.17,4.79"/>
    </g>
    <g id="ELLIPSE-12">
      <path class="cls-2" d="M653.29,449.83c0,1.6-1.1,3.14-3.06,4.27"/>
    </g>
    <g id="ELLIPSE-13">
      <path class="cls-2" d="M385.46,323.56c-4.08,2.36-7.39,8.09-7.39,12.8"/>
    </g>
    <g id="ELLIPSE-14">
      <path class="cls-2" d="M378.07,336.36c4.08,2.36,10.7,2.36,14.78,0"/>
    </g>
    <g id="ELLIPSE-15">
      <path class="cls-2" d="M392.86,336.36c0-4.71-3.31-10.45-7.39-12.8"/>
    </g>
    <g id="LINE-4">
      <line class="cls-2" x1="378.07" y1="336.36" x2="378.07" y2="602.69"/>
    </g>
    <g id="LINE-5">
      <line class="cls-2" x1="392.86" y1="602.69" x2="392.86" y2="336.36"/>
    </g>
    <g id="ELLIPSE-16">
      <path class="cls-2" d="M642.84,174.96c4.08,2.36,7.39,8.09,7.39,12.8"/>
    </g>
    <g id="ELLIPSE-17">
      <path class="cls-2" d="M650.23,187.77c1.96-1.13,3.06-2.67,3.06-4.27"/>
    </g>
    <g id="ELLIPSE-18">
      <path class="cls-2" d="M648.07,174.45c-1.39-.8-3.27-.61-5.23.52"/>
    </g>
    <g id="LINE-6">
      <line class="cls-2" x1="650.23" y1="187.77" x2="650.23" y2="454.09"/>
    </g>
    <g id="LINE-7">
      <line class="cls-2" x1="402.34" y1="36.11" x2="642.84" y2="174.96"/>
    </g>
    <g id="LINE-8">
      <line class="cls-2" x1="392.86" y1="336.36" x2="650.23" y2="187.77"/>
    </g>
    <g id="LINE-9">
      <line class="cls-2" x1="642.84" y1="174.96" x2="385.46" y2="323.56"/>
    </g>
    <g id="LINE-10">
      <line class="cls-2" x1="137.57" y1="197.51" x2="378.07" y2="336.36"/>
    </g>
    <g id="LINE-11">
      <line class="cls-2" x1="385.46" y1="323.56" x2="144.96" y2="184.71"/>
    </g>
    <g id="LINE-12">
      <line class="cls-2" x1="650.23" y1="454.09" x2="392.86" y2="602.69"/>
    </g>
    <g id="ELLIPSE-19">
      <ellipse class="cls-3" cx="257.82" cy="400.1" rx="73.11" ry="126.63" transform="translate(-165.51 182.51) rotate(-30)"/>
    </g>
    <g id="ARC">
      <path class="cls-5" d="M139.73,468.62c-3.23-1.87-5.23-5.32-5.23-9.05"/>
    </g>
    <g id="ARC-2">
      <path class="cls-5" d="M134.51,193.24c0-3.74,1.99-7.19,5.23-9.05"/>
    </g>
    <g id="LINE-13">
      <line class="cls-5" x1="134.51" y1="193.24" x2="134.51" y2="459.57"/>
    </g>
    <g id="ARC-3">
      <path class="cls-5" d="M390.69,607.48c-3.23,1.87-7.22,1.87-10.45,0"/>
    </g>
    <g id="LINE-14">
      <line class="cls-5" x1="139.73" y1="468.62" x2="380.24" y2="607.48"/>
    </g>
    <g id="ARC-4">
      <path class="cls-5" d="M397.11,35.59c3.23-1.87,7.22-1.87,10.45,0"/>
    </g>
    <g id="LINE-15">
      <line class="cls-5" x1="139.73" y1="184.19" x2="397.11" y2="35.59"/>
    </g>
    <g id="ARC-5">
      <path class="cls-5" d="M653.29,449.83c0,3.74-1.99,7.19-5.23,9.05"/>
    </g>
    <g id="ARC-6">
      <path class="cls-5" d="M648.07,174.45c3.23,1.87,5.23,5.32,5.23,9.05"/>
    </g>
    <g id="LINE-16">
      <line class="cls-5" x1="653.29" y1="183.5" x2="653.29" y2="449.83"/>
    </g>
    <g id="LINE-17">
      <line class="cls-5" x1="407.56" y1="35.59" x2="648.07" y2="174.45"/>
    </g>
    <g id="LINE-18">
      <line class="cls-5" x1="648.07" y1="458.88" x2="390.69" y2="607.48"/>
    </g>
    <g id="ELLIPSE-20">
      <path class="cls-5" d="M200.27,300.42c31.79-18.35,83.32,11.4,115.11,66.46,31.79,55.05,31.79,114.56,0,132.91"/>
    </g>
    <g id="ELLIPSE-21">
      <path class="cls-5" d="M210.12,317.48c-26.35,15.21-26.35,64.53,0,110.16s69.06,70.29,95.4,55.08"/>
    </g>
    <g id="ELLIPSE-22">
      <ellipse class="cls-3" cx="257.82" cy="400.1" rx="73.11" ry="126.63" transform="translate(-165.51 182.51) rotate(-30)"/>
    </g>
    <g id="SPLINE">
      <path class="cls-5" d="M200.27,300.42c-6.18,3.57-11.47,8.63-15.57,14.72-4.42,6.57-7.49,14.31-9.26,22.78-1.96,9.34-2.37,19.59-1.35,30.3,1.03,10.92,3.55,22.33,7.38,33.69,3.8,11.29,8.9,22.53,15.02,33.19,6.1,10.62,13.23,20.65,21.05,29.61,7.84,8.99,16.37,16.88,25.24,23.29,8.92,6.45,18.18,11.38,27.43,14.46,9.08,3.01,18.19,4.23,26.84,3.27,6.53-.73,12.78-2.71,18.35-5.93"/>
    </g>
    <g id="SPLINE-2">
      <path class="cls-5" d="M305.52,482.72c5.14-2.97,9.39-7.78,12.42-14.86,2.37-5.53,3.92-12.41,4.33-20.28.4-7.48-.22-15.84-1.9-24.61-1.69-8.83-4.45-18.08-8.16-27.25s-8.46-18.42-13.91-27.03c-5.46-8.63-11.64-16.68-18.22-23.76-6.55-7.04-13.48-13.11-20.39-17.9-6.84-4.75-13.66-8.25-20.01-10.42-6.39-2.18-12.29-2.99-17.4-2.66-4.66.3-8.66,1.51-12.17,3.54"/>
    </g>
    <g id="ELLIPSE-23">
      <path class="cls-6" d="M144.96,468.11c-1.96,1.13-3.84,1.32-5.23.52"/>
    </g>
    <g id="ELLIPSE-24">
      <path class="cls-6" d="M134.51,459.57c0-1.6,1.1-3.14,3.06-4.27"/>
    </g>
    <g id="ELLIPSE-25">
      <path class="cls-6" d="M137.57,455.3c0,4.71,3.31,10.45,7.39,12.8"/>
    </g>
    <g id="ELLIPSE-26">
      <path class="cls-6" d="M402.34,319.51c-4.08-2.36-7.39-8.09-7.39-12.8"/>
    </g>
    <g id="ELLIPSE-27">
      <path class="cls-6" d="M394.94,306.7c4.08-2.36,10.7-2.36,14.78,0"/>
    </g>
    <g id="ELLIPSE-28">
      <path class="cls-6" d="M409.73,306.7c0,4.71-3.31,10.45-7.39,12.8"/>
    </g>
    <g id="ELLIPSE-29">
      <path class="cls-6" d="M139.73,184.19c-1.39.8-2.17,2.52-2.17,4.79"/>
    </g>
    <g id="ELLIPSE-30">
      <path class="cls-6" d="M137.57,188.97c-1.96,1.13-3.06,2.67-3.06,4.27"/>
    </g>
    <g id="LINE-19">
      <line class="cls-6" x1="137.57" y1="188.97" x2="137.57" y2="197.51"/>
    </g>
    <g id="ELLIPSE-31">
      <path class="cls-6" d="M380.24,607.48c1.39.8,3.27.61,5.23-.52"/>
    </g>
    <g id="ELLIPSE-32">
      <path class="cls-6" d="M385.46,606.96c1.96,1.13,3.84,1.32,5.23.52"/>
    </g>
    <g id="LINE-20">
      <line class="cls-6" x1="378.07" y1="602.69" x2="385.46" y2="606.96"/>
    </g>
    <g id="ELLIPSE-33">
      <path class="cls-6" d="M407.56,35.59c1.39.8,2.17,2.52,2.17,4.79"/>
    </g>
    <g id="ELLIPSE-34">
      <path class="cls-6" d="M409.73,40.38c-4.08-2.36-10.7-2.36-14.78,0"/>
    </g>
    <g id="ELLIPSE-35">
      <path class="cls-6" d="M394.94,40.38c0-2.26.78-3.99,2.17-4.79"/>
    </g>
    <g id="LINE-21">
      <line class="cls-6" x1="409.73" y1="40.38" x2="409.73" y2="306.7"/>
    </g>
    <g id="LINE-22">
      <line class="cls-6" x1="394.94" y1="306.7" x2="394.94" y2="40.38"/>
    </g>
    <g id="LINE-23">
      <line class="cls-6" x1="144.96" y1="184.71" x2="137.57" y2="188.97"/>
    </g>
    <g id="ELLIPSE-36">
      <path class="cls-6" d="M648.07,458.88c-1.39.8-3.27.61-5.23-.52"/>
    </g>
    <g id="ELLIPSE-37">
      <path class="cls-6" d="M642.84,458.36c4.08-2.36,7.39-8.09,7.39-12.8"/>
    </g>
    <g id="ELLIPSE-38">
      <path class="cls-6" d="M650.23,445.56c1.96,1.13,3.06,2.67,3.06,4.27"/>
    </g>
    <g id="LINE-24">
      <line class="cls-6" x1="409.73" y1="306.7" x2="650.23" y2="445.56"/>
    </g>
    <g id="LINE-25">
      <line class="cls-6" x1="642.84" y1="458.36" x2="402.34" y2="319.51"/>
    </g>
    <g id="ELLIPSE-39">
      <path class="cls-6" d="M653.29,183.5c0-1.6-1.1-3.14-3.06-4.27"/>
    </g>
    <g id="ELLIPSE-40">
      <path class="cls-6" d="M650.23,179.23c0-2.26-.78-3.99-2.17-4.79"/>
    </g>
    <g id="LINE-26">
      <line class="cls-6" x1="650.23" y1="187.77" x2="650.23" y2="179.23"/>
    </g>
    <g id="LINE-27">
      <line class="cls-6" x1="650.23" y1="179.23" x2="642.84" y2="174.96"/>
    </g>
    <g id="LINE-28">
      <line class="cls-6" x1="385.46" y1="606.96" x2="392.86" y2="602.69"/>
    </g>
    <g id="LINE-29">
      <line class="cls-6" x1="137.57" y1="455.3" x2="394.94" y2="306.7"/>
    </g>
    <g id="LINE-30">
      <line class="cls-6" x1="402.34" y1="319.51" x2="144.96" y2="468.11"/>
    </g>
    <g id="LINE-31">
      <line class="cls-6" x1="218.41" y1="251.96" x2="220.88" y2="250.54"/>
    </g>
    <g id="LINE-32">
      <line class="cls-6" x1="211.32" y1="472.64" x2="213.78" y2="471.22"/>
    </g>
    <g id="LINE-33">
      <line class="cls-6" x1="368.87" y1="444.28" x2="366.41" y2="445.7"/>
    </g>
    <g id="LINE-34">
      <line class="cls-6" x1="329.3" y1="537.92" x2="326.84" y2="539.34"/>
    </g>
    <g id="LINE-35">
      <line class="cls-6" x1="174.21" y1="340.08" x2="171.74" y2="341.5"/>
    </g>
    <g id="LINE-36">
      <line class="cls-6" x1="322.2" y1="309.04" x2="319.74" y2="310.46"/>
    </g>
    <g id="LINE-37">
      <line class="cls-6" x1="213.78" y1="246.44" x2="211.32" y2="247.86"/>
    </g>
    <g id="LINE-38">
      <line class="cls-6" x1="220.88" y1="475.32" x2="218.41" y2="476.74"/>
    </g>
    <g id="LINE-39">
      <line class="cls-6" x1="366.41" y1="453.89" x2="368.87" y2="452.47"/>
    </g>
    <g id="LINE-40">
      <line class="cls-6" x1="319.74" y1="535.24" x2="322.2" y2="533.82"/>
    </g>
    <g id="LINE-41">
      <line class="cls-6" x1="171.74" y1="333.31" x2="174.21" y2="331.89"/>
    </g>
    <g id="LINE-42">
      <line class="cls-6" x1="326.84" y1="314.56" x2="329.3" y2="313.14"/>
    </g>
    <g id="ELLIPSE-41">
      <ellipse class="cls-6" cx="385.46" cy="595.58" rx="10.45" ry="6.04"/>
    </g>
    <g id="ELLIPSE-42">
      <ellipse class="cls-6" cx="385.46" cy="598.42" rx="6.97" ry="4.02"/>
    </g>
    <g id="ELLIPSE-43">
      <ellipse class="cls-6" cx="402.34" cy="359.34" rx="10.45" ry="6.04"/>
    </g>
    <g id="ELLIPSE-44">
      <path class="cls-6" d="M395.37,362.19c0,2.22,3.12,4.02,6.97,4.02s6.97-1.8,6.97-4.02-3.12-4.02-6.97-4.02-6.97,1.8-6.97,4.02Z"/>
    </g>
    <g id="ELLIPSE-45">
      <ellipse class="cls-6" cx="189.32" cy="482.33" rx="10.45" ry="6.04"/>
    </g>
    <g id="ELLIPSE-46">
      <ellipse class="cls-6" cx="189.32" cy="485.18" rx="6.97" ry="4.02"/>
    </g>
    <g id="ELLIPSE-47">
      <ellipse class="cls-6" cx="598.48" cy="472.59" rx="10.45" ry="6.04"/>
    </g>
    <g id="ELLIPSE-48">
      <ellipse class="cls-6" cx="598.48" cy="475.44" rx="6.97" ry="4.02"/>
    </g>
    <g id="LINE-43">
      <line class="cls-6" x1="151.29" y1="455.92" x2="151.29" y2="326.85"/>
    </g>
    <g id="LINE-44">
      <line class="cls-6" x1="402.63" y1="310.8" x2="151.29" y2="455.92"/>
    </g>
    <g id="LINE-45">
      <line class="cls-6" x1="402.63" y1="181.74" x2="402.63" y2="310.8"/>
    </g>
    <g id="LINE-46">
      <line class="cls-6" x1="402.63" y1="181.74" x2="151.29" y2="326.85"/>
    </g>
    <g id="LINE-47">
      <line class="cls-6" x1="402.63" y1="173.54" x2="402.63" y2="178.89"/>
    </g>
    <g id="LINE-48">
      <line class="cls-6" x1="402.63" y1="170.7" x2="146.36" y2="318.66"/>
    </g>
    <g id="LINE-49">
      <line class="cls-6" x1="146.36" y1="326.85" x2="146.36" y2="318.66"/>
    </g>
    <g id="LINE-50">
      <line class="cls-6" x1="146.36" y1="326.85" x2="402.63" y2="178.89"/>
    </g>
    <g id="LINE-51">
      <line class="cls-6" x1="151.29" y1="318.66" x2="151.29" y2="189.59"/>
    </g>
    <g id="LINE-52">
      <line class="cls-6" x1="151.29" y1="318.66" x2="402.63" y2="173.54"/>
    </g>
    <g id="LINE-53">
      <line class="cls-6" x1="402.63" y1="44.48" x2="402.63" y2="173.54"/>
    </g>
    <g id="LINE-54">
      <line class="cls-6" x1="151.29" y1="189.59" x2="402.63" y2="44.48"/>
    </g>
    <g id="LINE-55">
      <line class="cls-6" x1="168.05" y1="339.37" x2="146.36" y2="326.85"/>
    </g>
    <g id="LINE-56">
      <line class="cls-6" x1="146.36" y1="318.66" x2="168.05" y2="331.18"/>
    </g>
    <g id="ELLIPSE-49">
      <path class="cls-6" d="M171.74,333.31c0-1.18-.83-2.61-1.85-3.2s-1.85-.11-1.85,1.07"/>
    </g>
    <g id="LINE-57">
      <line class="cls-6" x1="171.74" y1="341.5" x2="171.74" y2="333.31"/>
    </g>
    <g id="ELLIPSE-50">
      <path class="cls-6" d="M168.05,339.37c0,1.18.83,2.61,1.85,3.2,1.02.59,1.85.11,1.85-1.07"/>
    </g>
    <g id="LINE-58">
      <line class="cls-6" x1="402.63" y1="44.48" x2="465.12" y2="80.55"/>
    </g>
    <g id="LINE-59">
      <line class="cls-6" x1="465.12" y1="80.55" x2="213.78" y2="225.67"/>
    </g>
    <g id="LINE-60">
      <line class="cls-6" x1="211.32" y1="224.25" x2="151.29" y2="189.59"/>
    </g>
    <g id="LINE-61">
      <line class="cls-6" x1="467.59" y1="208.2" x2="402.63" y2="170.7"/>
    </g>
    <g id="LINE-62">
      <line class="cls-6" x1="402.63" y1="178.89" x2="467.59" y2="216.39"/>
    </g>
    <g id="LINE-63">
      <line class="cls-6" x1="467.59" y1="216.39" x2="467.59" y2="348.3"/>
    </g>
    <g id="LINE-64">
      <line class="cls-6" x1="467.59" y1="348.3" x2="472.22" y2="350.98"/>
    </g>
    <g id="LINE-65">
      <line class="cls-6" x1="474.69" y1="352.4" x2="474.69" y2="220.49"/>
    </g>
    <g id="LINE-66">
      <line class="cls-6" x1="474.69" y1="220.49" x2="576.01" y2="278.99"/>
    </g>
    <g id="LINE-67">
      <line class="cls-6" x1="576.01" y1="278.99" x2="576.01" y2="410.9"/>
    </g>
    <g id="LINE-68">
      <line class="cls-6" x1="576.01" y1="410.9" x2="580.64" y2="413.58"/>
    </g>
    <g id="LINE-69">
      <line class="cls-6" x1="583.11" y1="415" x2="583.11" y2="283.09"/>
    </g>
    <g id="LINE-70">
      <line class="cls-6" x1="583.11" y1="283.09" x2="648.06" y2="320.59"/>
    </g>
    <g id="LINE-71">
      <line class="cls-6" x1="648.06" y1="320.59" x2="648.06" y2="312.4"/>
    </g>
    <g id="LINE-72">
      <line class="cls-6" x1="648.06" y1="312.4" x2="583.11" y2="274.89"/>
    </g>
    <g id="LINE-73">
      <line class="cls-6" x1="583.11" y1="274.89" x2="583.11" y2="142.98"/>
    </g>
    <g id="LINE-74">
      <line class="cls-6" x1="583.11" y1="142.98" x2="576.01" y2="138.88"/>
    </g>
    <g id="LINE-75">
      <line class="cls-6" x1="576.01" y1="138.88" x2="576.01" y2="270.8"/>
    </g>
    <g id="LINE-76">
      <line class="cls-6" x1="576.01" y1="270.8" x2="474.69" y2="212.3"/>
    </g>
    <g id="LINE-77">
      <line class="cls-6" x1="474.69" y1="212.3" x2="474.69" y2="80.38"/>
    </g>
    <g id="LINE-78">
      <line class="cls-6" x1="474.69" y1="80.38" x2="467.59" y2="76.29"/>
    </g>
    <g id="LINE-79">
      <line class="cls-6" x1="467.59" y1="76.29" x2="467.59" y2="208.2"/>
    </g>
    <g id="LINE-80">
      <line class="cls-6" x1="218.41" y1="481.01" x2="218.41" y2="500.36"/>
    </g>
    <g id="LINE-81">
      <line class="cls-6" x1="218.41" y1="500.36" x2="211.32" y2="496.26"/>
    </g>
    <g id="LINE-82">
      <line class="cls-6" x1="211.32" y1="496.26" x2="211.32" y2="476.91"/>
    </g>
    <g id="ELLIPSE-51">
      <path class="cls-6" d="M211.32,472.64c-1.02-.59-1.85-.11-1.85,1.07s.83,2.61,1.85,3.2"/>
    </g>
    <g id="LINE-83">
      <line class="cls-6" x1="211.32" y1="472.64" x2="218.41" y2="476.74"/>
    </g>
    <g id="ELLIPSE-52">
      <path class="cls-6" d="M218.41,481.01c1.02.59,1.85.11,1.85-1.07s-.83-2.61-1.85-3.2"/>
    </g>
    <g id="LINE-84">
      <line class="cls-6" x1="218.41" y1="228.34" x2="218.41" y2="247.69"/>
    </g>
    <g id="ELLIPSE-53">
      <path class="cls-6" d="M218.41,251.96c1.02.59,1.85.11,1.85-1.07s-.83-2.61-1.85-3.2"/>
    </g>
    <g id="LINE-85">
      <line class="cls-6" x1="211.32" y1="247.86" x2="218.41" y2="251.96"/>
    </g>
    <g id="ELLIPSE-54">
      <path class="cls-6" d="M211.32,243.6c-1.02-.59-1.85-.11-1.85,1.07s.83,2.61,1.85,3.2"/>
    </g>
    <g id="LINE-86">
      <line class="cls-6" x1="211.32" y1="243.6" x2="211.32" y2="224.25"/>
    </g>
    <g id="LINE-87">
      <line class="cls-6" x1="211.32" y1="224.25" x2="218.41" y2="228.34"/>
    </g>
    <g id="LINE-88">
      <line class="cls-6" x1="326.84" y1="290.94" x2="326.84" y2="310.29"/>
    </g>
    <g id="ELLIPSE-55">
      <path class="cls-6" d="M326.84,314.56c1.02.59,1.85.11,1.85-1.07s-.83-2.61-1.85-3.2"/>
    </g>
    <g id="LINE-89">
      <line class="cls-6" x1="319.74" y1="310.46" x2="326.84" y2="314.56"/>
    </g>
    <g id="ELLIPSE-56">
      <path class="cls-6" d="M319.74,306.19c-1.02-.59-1.85-.11-1.85,1.07s.83,2.61,1.85,3.2"/>
    </g>
    <g id="LINE-90">
      <line class="cls-6" x1="319.74" y1="306.19" x2="319.74" y2="286.84"/>
    </g>
    <g id="LINE-91">
      <line class="cls-6" x1="319.74" y1="286.84" x2="326.84" y2="290.94"/>
    </g>
    <g id="LINE-92">
      <line class="cls-6" x1="391.79" y1="468.55" x2="370.1" y2="456.03"/>
    </g>
    <g id="ELLIPSE-57">
      <path class="cls-6" d="M366.41,453.89c0,1.18.83,2.61,1.85,3.2,1.02.59,1.85.11,1.85-1.07"/>
    </g>
    <g id="LINE-93">
      <line class="cls-6" x1="366.41" y1="453.89" x2="366.41" y2="445.7"/>
    </g>
    <g id="ELLIPSE-58">
      <path class="cls-6" d="M370.1,447.83c0-1.18-.83-2.61-1.85-3.2s-1.85-.11-1.85,1.07"/>
    </g>
    <g id="LINE-94">
      <line class="cls-6" x1="370.1" y1="447.83" x2="391.79" y2="460.35"/>
    </g>
    <g id="LINE-95">
      <line class="cls-6" x1="391.79" y1="460.35" x2="391.79" y2="468.55"/>
    </g>
    <g id="LINE-96">
      <line class="cls-6" x1="220.88" y1="246.27" x2="218.41" y2="247.69"/>
    </g>
    <g id="ELLIPSE-59">
      <path class="cls-6" d="M220.88,250.54c1.02.59,1.85.11,1.85-1.07s-.83-2.61-1.85-3.2"/>
    </g>
    <g id="LINE-97">
      <line class="cls-6" x1="213.78" y1="475.49" x2="211.32" y2="476.91"/>
    </g>
    <g id="ELLIPSE-60">
      <path class="cls-6" d="M213.78,471.22c-1.02-.59-1.85-.11-1.85,1.07s.83,2.61,1.85,3.2"/>
    </g>
    <g id="ELLIPSE-61">
      <path class="cls-6" d="M372.57,446.41c0-1.18-.83-2.61-1.85-3.2s-1.85-.11-1.85,1.07"/>
    </g>
    <g id="LINE-98">
      <line class="cls-6" x1="370.1" y1="447.83" x2="372.57" y2="446.41"/>
    </g>
    <g id="LINE-99">
      <line class="cls-6" x1="326.84" y1="543.61" x2="329.3" y2="542.19"/>
    </g>
    <g id="ELLIPSE-62">
      <path class="cls-6" d="M326.84,543.61c1.02.59,1.85.11,1.85-1.07s-.83-2.61-1.85-3.2"/>
    </g>
    <g id="ELLIPSE-63">
      <path class="cls-6" d="M329.3,542.19c1.02.59,1.85.11,1.85-1.07s-.83-2.61-1.85-3.2"/>
    </g>
    <g id="ELLIPSE-64">
      <path class="cls-6" d="M170.51,337.95c0,1.18.83,2.61,1.85,3.2s1.85.11,1.85-1.07"/>
    </g>
    <g id="LINE-100">
      <line class="cls-6" x1="168.05" y1="339.37" x2="170.51" y2="337.95"/>
    </g>
    <g id="ELLIPSE-65">
      <path class="cls-6" d="M322.2,304.77c-1.02-.59-1.85-.11-1.85,1.07s.83,2.61,1.85,3.2"/>
    </g>
    <g id="LINE-101">
      <line class="cls-6" x1="319.74" y1="306.19" x2="322.2" y2="304.77"/>
    </g>
    <g id="ELLIPSE-66">
      <path class="cls-6" d="M213.78,242.17c-1.02-.59-1.85-.11-1.85,1.07s.83,2.61,1.85,3.2"/>
    </g>
    <g id="LINE-102">
      <line class="cls-6" x1="211.32" y1="243.6" x2="213.78" y2="242.17"/>
    </g>
    <g id="LINE-103">
      <line class="cls-6" x1="218.41" y1="481.01" x2="220.88" y2="479.59"/>
    </g>
    <g id="ELLIPSE-67">
      <path class="cls-6" d="M220.88,479.59c1.02.59,1.85.11,1.85-1.07s-.83-2.61-1.85-3.2"/>
    </g>
    <g id="LINE-104">
      <line class="cls-6" x1="372.57" y1="454.61" x2="370.1" y2="456.03"/>
    </g>
    <g id="ELLIPSE-68">
      <path class="cls-6" d="M368.87,452.47c0,1.18.83,2.61,1.85,3.2s1.85.11,1.85-1.07"/>
    </g>
    <g id="LINE-105">
      <line class="cls-6" x1="322.2" y1="538.09" x2="319.74" y2="539.51"/>
    </g>
    <g id="ELLIPSE-69">
      <path class="cls-6" d="M322.2,533.82c-1.02-.59-1.85-.11-1.85,1.07s.83,2.61,1.85,3.2"/>
    </g>
    <g id="ELLIPSE-70">
      <path class="cls-6" d="M319.74,535.24c-1.02-.59-1.85-.11-1.85,1.07s.83,2.61,1.85,3.2"/>
    </g>
    <g id="LINE-106">
      <line class="cls-6" x1="170.51" y1="329.75" x2="168.05" y2="331.18"/>
    </g>
    <g id="ELLIPSE-71">
      <path class="cls-6" d="M174.21,331.89c0-1.18-.83-2.61-1.85-3.2-1.02-.59-1.85-.11-1.85,1.07"/>
    </g>
    <g id="LINE-107">
      <line class="cls-6" x1="329.3" y1="308.87" x2="326.84" y2="310.29"/>
    </g>
    <g id="ELLIPSE-72">
      <path class="cls-6" d="M329.3,313.14c1.02.59,1.85.11,1.85-1.07s-.83-2.61-1.85-3.2"/>
    </g>
    <g id="LINE-108">
      <line class="cls-6" x1="151.29" y1="326.85" x2="170.51" y2="337.95"/>
    </g>
    <g id="LINE-109">
      <line class="cls-6" x1="465.12" y1="217.82" x2="402.63" y2="181.74"/>
    </g>
    <g id="LINE-110">
      <line class="cls-6" x1="467.59" y1="216.39" x2="465.12" y2="217.82"/>
    </g>
    <g id="ELLIPSE-73">
      <ellipse class="cls-4" cx="271.54" cy="392.18" rx="67.17" ry="116.34" transform="translate(-159.71 188.31) rotate(-30)"/>
    </g>
    <g id="LINE-111">
      <line class="cls-6" x1="220.88" y1="246.27" x2="220.88" y2="229.77"/>
    </g>
    <g id="LINE-112">
      <line class="cls-6" x1="319.74" y1="286.84" x2="220.88" y2="229.77"/>
    </g>
    <g id="LINE-113">
      <line class="cls-6" x1="322.2" y1="288.27" x2="322.2" y2="304.77"/>
    </g>
    <g id="LINE-114">
      <line class="cls-6" x1="322.2" y1="309.04" x2="329.3" y2="313.14"/>
    </g>
    <g id="LINE-115">
      <line class="cls-6" x1="329.3" y1="308.87" x2="329.3" y2="292.36"/>
    </g>
    <g id="LINE-116">
      <line class="cls-6" x1="391.79" y1="328.44" x2="329.3" y2="292.36"/>
    </g>
    <g id="LINE-117">
      <line class="cls-6" x1="391.79" y1="457.51" x2="391.79" y2="328.44"/>
    </g>
    <g id="LINE-118">
      <line class="cls-6" x1="391.79" y1="457.51" x2="372.57" y2="446.41"/>
    </g>
    <g id="LINE-119">
      <line class="cls-6" x1="368.87" y1="444.28" x2="368.87" y2="452.47"/>
    </g>
    <g id="LINE-120">
      <line class="cls-6" x1="372.57" y1="454.61" x2="391.79" y2="465.7"/>
    </g>
    <g id="LINE-121">
      <line class="cls-6" x1="391.79" y1="594.77" x2="391.79" y2="468.55"/>
    </g>
    <g id="LINE-122">
      <line class="cls-6" x1="329.3" y1="558.69" x2="391.79" y2="594.77"/>
    </g>
    <g id="LINE-123">
      <line class="cls-6" x1="329.3" y1="558.69" x2="329.3" y2="542.19"/>
    </g>
    <g id="LINE-124">
      <line class="cls-6" x1="329.3" y1="537.92" x2="322.2" y2="533.82"/>
    </g>
    <g id="LINE-125">
      <line class="cls-6" x1="322.2" y1="538.09" x2="322.2" y2="554.59"/>
    </g>
    <g id="LINE-126">
      <line class="cls-6" x1="220.88" y1="496.09" x2="322.2" y2="554.59"/>
    </g>
    <g id="LINE-127">
      <line class="cls-6" x1="220.88" y1="496.09" x2="220.88" y2="479.59"/>
    </g>
    <g id="LINE-128">
      <line class="cls-6" x1="220.88" y1="475.32" x2="213.78" y2="471.22"/>
    </g>
    <g id="LINE-129">
      <line class="cls-6" x1="213.78" y1="475.49" x2="213.78" y2="492"/>
    </g>
    <g id="LINE-130">
      <line class="cls-6" x1="151.29" y1="455.92" x2="213.78" y2="492"/>
    </g>
    <g id="LINE-131">
      <line class="cls-6" x1="174.21" y1="340.08" x2="174.21" y2="331.89"/>
    </g>
    <g id="LINE-132">
      <line class="cls-6" x1="170.51" y1="329.75" x2="151.29" y2="318.66"/>
    </g>
    <g id="LINE-133">
      <line class="cls-6" x1="213.78" y1="225.67" x2="213.78" y2="242.17"/>
    </g>
    <g id="LINE-134">
      <line class="cls-6" x1="213.78" y1="246.44" x2="220.88" y2="250.54"/>
    </g>
    <g id="LINE-135">
      <line class="cls-6" x1="319.74" y1="535.24" x2="326.84" y2="539.34"/>
    </g>
    <g id="LINE-136">
      <line class="cls-6" x1="319.74" y1="558.86" x2="319.74" y2="539.51"/>
    </g>
    <g id="LINE-137">
      <line class="cls-6" x1="326.84" y1="543.61" x2="326.84" y2="562.96"/>
    </g>
    <g id="LINE-138">
      <line class="cls-6" x1="326.84" y1="562.96" x2="319.74" y2="558.86"/>
    </g>
    <g id="LINE-139">
      <line class="cls-6" x1="465.12" y1="209.62" x2="467.59" y2="208.2"/>
    </g>
    <g id="LINE-140">
      <line class="cls-6" x1="402.63" y1="173.54" x2="465.12" y2="209.62"/>
    </g>
    <g id="LINE-141">
      <line class="cls-6" x1="391.79" y1="594.77" x2="643.14" y2="449.66"/>
    </g>
    <g id="LINE-142">
      <line class="cls-6" x1="643.14" y1="449.66" x2="580.64" y2="413.58"/>
    </g>
    <g id="LINE-143">
      <line class="cls-6" x1="580.64" y1="413.58" x2="329.3" y2="558.69"/>
    </g>
    <g id="LINE-144">
      <line class="cls-6" x1="391.79" y1="465.7" x2="643.14" y2="320.59"/>
    </g>
    <g id="LINE-145">
      <line class="cls-6" x1="643.14" y1="320.59" x2="643.14" y2="449.66"/>
    </g>
    <g id="LINE-146">
      <line class="cls-6" x1="643.14" y1="183.33" x2="391.79" y2="328.44"/>
    </g>
    <g id="LINE-147">
      <line class="cls-6" x1="643.14" y1="183.33" x2="643.14" y2="312.4"/>
    </g>
    <g id="LINE-148">
      <line class="cls-6" x1="643.14" y1="312.4" x2="391.79" y2="457.51"/>
    </g>
    <g id="LINE-149">
      <line class="cls-6" x1="329.3" y1="292.36" x2="580.64" y2="147.25"/>
    </g>
    <g id="LINE-150">
      <line class="cls-6" x1="580.64" y1="147.25" x2="643.14" y2="183.33"/>
    </g>
    <g id="LINE-151">
      <line class="cls-6" x1="220.88" y1="229.77" x2="472.22" y2="84.65"/>
    </g>
    <g id="LINE-152">
      <line class="cls-6" x1="472.22" y1="84.65" x2="573.55" y2="143.15"/>
    </g>
    <g id="LINE-153">
      <line class="cls-6" x1="573.55" y1="143.15" x2="322.2" y2="288.27"/>
    </g>
    <g id="LINE-154">
      <line class="cls-6" x1="643.14" y1="320.59" x2="580.64" y2="284.51"/>
    </g>
    <g id="LINE-155">
      <line class="cls-6" x1="580.64" y1="284.51" x2="580.64" y2="413.58"/>
    </g>
    <g id="LINE-156">
      <line class="cls-6" x1="573.55" y1="409.48" x2="472.22" y2="350.98"/>
    </g>
    <g id="LINE-157">
      <line class="cls-6" x1="573.55" y1="409.48" x2="573.55" y2="280.41"/>
    </g>
    <g id="LINE-158">
      <line class="cls-6" x1="573.55" y1="280.41" x2="472.22" y2="221.91"/>
    </g>
    <g id="LINE-159">
      <line class="cls-6" x1="472.22" y1="221.91" x2="472.22" y2="350.98"/>
    </g>
    <g id="LINE-160">
      <line class="cls-6" x1="580.64" y1="147.25" x2="580.64" y2="276.32"/>
    </g>
    <g id="LINE-161">
      <line class="cls-6" x1="580.64" y1="276.32" x2="643.14" y2="312.4"/>
    </g>
    <g id="LINE-162">
      <line class="cls-6" x1="465.12" y1="346.88" x2="402.63" y2="310.8"/>
    </g>
    <g id="LINE-163">
      <line class="cls-6" x1="465.12" y1="346.88" x2="465.12" y2="217.82"/>
    </g>
    <g id="LINE-164">
      <line class="cls-6" x1="472.22" y1="84.65" x2="472.22" y2="213.72"/>
    </g>
    <g id="LINE-165">
      <line class="cls-6" x1="472.22" y1="213.72" x2="573.55" y2="272.22"/>
    </g>
    <g id="LINE-166">
      <line class="cls-6" x1="573.55" y1="272.22" x2="573.55" y2="143.15"/>
    </g>
    <g id="LINE-167">
      <line class="cls-6" x1="474.69" y1="212.3" x2="472.22" y2="213.72"/>
    </g>
    <g id="LINE-168">
      <line class="cls-6" x1="573.55" y1="272.22" x2="576.01" y2="270.8"/>
    </g>
    <g id="LINE-169">
      <line class="cls-6" x1="576.01" y1="278.99" x2="573.55" y2="280.41"/>
    </g>
    <g id="LINE-170">
      <line class="cls-6" x1="472.22" y1="221.91" x2="474.69" y2="220.49"/>
    </g>
    <g id="LINE-171">
      <line class="cls-6" x1="465.12" y1="209.62" x2="465.12" y2="80.55"/>
    </g>
    <g id="LINE-172">
      <line class="cls-6" x1="322.2" y1="554.59" x2="573.55" y2="409.48"/>
    </g>
    <g id="LINE-173">
      <line class="cls-6" x1="472.22" y1="350.98" x2="220.88" y2="496.09"/>
    </g>
    <g id="LINE-174">
      <line class="cls-6" x1="213.78" y1="492" x2="465.12" y2="346.88"/>
    </g>
    <g id="LINE-175">
      <line class="cls-6" x1="218.41" y1="500.36" x2="474.69" y2="352.4"/>
    </g>
    <g id="LINE-176">
      <line class="cls-6" x1="467.59" y1="348.3" x2="211.32" y2="496.26"/>
    </g>
    <g id="LINE-177">
      <line class="cls-6" x1="326.84" y1="562.96" x2="583.11" y2="415"/>
    </g>
    <g id="LINE-178">
      <line class="cls-6" x1="580.64" y1="284.51" x2="583.11" y2="283.09"/>
    </g>
    <g id="LINE-179">
      <line class="cls-6" x1="576.01" y1="410.9" x2="319.74" y2="558.86"/>
    </g>
    <g id="LINE-180">
      <line class="cls-6" x1="648.06" y1="320.59" x2="391.79" y2="468.55"/>
    </g>
    <g id="LINE-181">
      <line class="cls-6" x1="391.79" y1="460.35" x2="648.06" y2="312.4"/>
    </g>
    <g id="LINE-182">
      <line class="cls-6" x1="583.11" y1="274.89" x2="580.64" y2="276.32"/>
    </g>
    <g id="LINE-183">
      <line class="cls-6" x1="583.11" y1="142.98" x2="326.84" y2="290.94"/>
    </g>
    <g id="LINE-184">
      <line class="cls-6" x1="319.74" y1="286.84" x2="576.01" y2="138.88"/>
    </g>
    <g id="LINE-185">
      <line class="cls-6" x1="474.69" y1="80.38" x2="218.41" y2="228.34"/>
    </g>
    <g id="LINE-186">
      <line class="cls-6" x1="211.32" y1="224.25" x2="467.59" y2="76.29"/>
    </g>
    <g id="ELLIPSE-74">
      <ellipse class="cls-4" cx="261.7" cy="397.86" rx="73.11" ry="126.63" transform="translate(-163.87 184.15) rotate(-30)"/>
    </g>
    <g id="ELLIPSE-75">
      <ellipse class="cls-4" cx="261.7" cy="397.86" rx="67.17" ry="116.34" transform="translate(-163.87 184.15) rotate(-30)"/>
    </g>
    <g id="LINE-187">
      <line class="cls-6" x1="222.18" y1="250.67" x2="219.72" y2="252.09"/>
    </g>
    <g id="LINE-188">
      <line class="cls-6" x1="212.47" y1="471.09" x2="210.01" y2="472.51"/>
    </g>
    <g id="LINE-189">
      <line class="cls-6" x1="369.41" y1="443.08" x2="366.95" y2="444.5"/>
    </g>
    <g id="LINE-190">
      <line class="cls-6" x1="330.61" y1="542.31" x2="328.14" y2="543.74"/>
    </g>
    <g id="LINE-191">
      <line class="cls-6" x1="173.67" y1="341.28" x2="171.2" y2="342.7"/>
    </g>
    <g id="LINE-192">
      <line class="cls-6" x1="320.9" y1="304.64" x2="318.43" y2="306.07"/>
    </g>
    <g id="LINE-193">
      <line class="cls-6" x1="212.47" y1="242.04" x2="210.01" y2="243.47"/>
    </g>
    <g id="LINE-194">
      <line class="cls-6" x1="222.18" y1="479.72" x2="219.72" y2="481.14"/>
    </g>
    <g id="LINE-195">
      <line class="cls-6" x1="372.03" y1="455.8" x2="369.56" y2="457.22"/>
    </g>
    <g id="LINE-196">
      <line class="cls-6" x1="320.9" y1="533.69" x2="318.43" y2="535.11"/>
    </g>
    <g id="LINE-197">
      <line class="cls-6" x1="171.05" y1="328.56" x2="168.59" y2="329.98"/>
    </g>
    <g id="LINE-198">
      <line class="cls-6" x1="330.61" y1="313.27" x2="328.14" y2="314.69"/>
    </g>
    <g id="LINE-199">
      <line class="cls-6" x1="194.5" y1="290.43" x2="198.38" y2="288.19"/>
    </g>
    <g id="LINE-200">
      <line class="cls-6" x1="321.14" y1="509.77" x2="325.02" y2="507.53"/>
    </g>
    <g id="LINE-201">
      <line class="cls-6" x1="329.71" y1="492.94" x2="319.87" y2="498.62"/>
    </g>
    <g id="LINE-202">
      <line class="cls-6" x1="213.37" y1="291.42" x2="203.53" y2="297.1"/>
    </g>
    <g id="ELLIPSE-76">
      <ellipse class="cls-4" cx="266.63" cy="395.02" rx="73.11" ry="126.63" transform="translate(-161.79 186.24) rotate(-30)"/>
    </g>
    <g id="ELLIPSE-77">
      <ellipse class="cls-4" cx="266.63" cy="395.02" rx="67.17" ry="116.34" transform="translate(-161.79 186.24) rotate(-30)"/>
    </g>
    <g id="ELLIPSE-78">
      <path class="cls-6" d="M315.37,499.79c-31.79,18.35-83.32-11.4-115.11-66.46-31.79-55.05-31.79-114.56,0-132.91"/>
    </g>
    <g id="ELLIPSE-79">
      <path class="cls-6" d="M305.52,482.72c26.35-15.21,26.35-64.53,0-110.16s-69.06-70.29-95.4-55.08"/>
    </g>
    <g id="ELLIPSE-80">
      <ellipse class="cls-4" cx="345.91" cy="349.24" rx="34.85" ry="60.37" transform="translate(-128.28 219.74) rotate(-30)"/>
    </g>
    <g id="ELLIPSE-81">
      <ellipse class="cls-4" cx="318.74" cy="364.93" rx="34.85" ry="60.37" transform="translate(-139.76 208.26) rotate(-30)"/>
    </g>
    <g id="ELLIPSE-82">
      <ellipse class="cls-4" cx="303.48" cy="373.74" rx="57.03" ry="98.78" transform="translate(-146.21 201.81) rotate(-30)"/>
    </g>
    <g id="ELLIPSE-83">
      <ellipse class="cls-4" cx="271.54" cy="392.18" rx="67.17" ry="116.34" transform="translate(-159.71 188.31) rotate(-30)"/>
    </g>
    <g id="LINE-203">
      <line class="cls-6" x1="329.95" y1="504.68" x2="321.14" y2="509.77"/>
    </g>
    <g id="LINE-204">
      <line class="cls-6" x1="203.31" y1="285.35" x2="194.5" y2="290.43"/>
    </g>
    <g id="LINE-205">
      <line class="cls-6" x1="376.09" y1="401.52" x2="348.93" y2="417.21"/>
    </g>
    <g id="LINE-206">
      <line class="cls-6" x1="315.72" y1="296.96" x2="288.56" y2="312.65"/>
    </g>
    <g id="LINE-207">
      <line class="cls-6" x1="364.55" y1="448.15" x2="343.46" y2="479.82"/>
    </g>
    <g id="LINE-208">
      <line class="cls-6" x1="269.57" y1="283.64" x2="231.6" y2="286.07"/>
    </g>
    <g id="LINE-209">
      <line class="cls-6" x1="329.71" y1="492.94" x2="324.8" y2="495.77"/>
    </g>
    <g id="LINE-210">
      <line class="cls-6" x1="213.37" y1="291.42" x2="208.46" y2="294.26"/>
    </g>
    <g id="ELLIPSE-84">
      <ellipse class="cls-6" cx="385.46" cy="581.35" rx="10.45" ry="6.04"/>
    </g>
    <g id="SPLINE-3">
      <path class="cls-6" d="M395.92,595.58c0,.71-.14,1.42-.38,2.07-.26.7-.65,1.33-1.09,1.88-.56.68-1.22,1.23-1.92,1.68-.88.57-1.85.98-2.86,1.29-1.07.32-2.19.51-3.32.57-1.12.06-2.24,0-3.34-.17s-2.17-.48-3.17-.92-1.94-1.02-2.75-1.8c-.68-.65-1.27-1.46-1.65-2.42-.27-.67-.42-1.42-.42-2.17"/>
    </g>
    <g id="LINE-211">
      <line class="cls-6" x1="395.92" y1="581.35" x2="395.92" y2="595.58"/>
    </g>
    <g id="LINE-212">
      <line class="cls-6" x1="375.01" y1="581.35" x2="375.01" y2="595.58"/>
    </g>
    <g id="ELLIPSE-85">
      <ellipse class="cls-6" cx="402.34" cy="345.12" rx="10.45" ry="6.04"/>
    </g>
    <g id="SPLINE-4">
      <path class="cls-6" d="M412.79,359.34c0,.71-.14,1.42-.38,2.07-.26.7-.65,1.33-1.09,1.88-.56.68-1.22,1.23-1.92,1.68-.88.57-1.85.98-2.86,1.29-1.07.32-2.19.51-3.32.57s-2.24,0-3.34-.17c-1.1-.18-2.17-.48-3.17-.92s-1.94-1.02-2.75-1.8c-.68-.65-1.27-1.46-1.65-2.42-.27-.67-.42-1.42-.42-2.17"/>
    </g>
    <g id="LINE-213">
      <line class="cls-6" x1="412.79" y1="345.12" x2="412.79" y2="359.34"/>
    </g>
    <g id="LINE-214">
      <line class="cls-6" x1="391.88" y1="345.12" x2="391.88" y2="359.34"/>
    </g>
    <g id="ELLIPSE-86">
      <ellipse class="cls-6" cx="189.32" cy="468.11" rx="10.45" ry="6.04"/>
    </g>
    <g id="SPLINE-5">
      <path class="cls-6" d="M199.77,482.33c0,.71-.14,1.42-.38,2.07-.26.7-.65,1.33-1.09,1.88-.56.68-1.22,1.23-1.92,1.68-.88.57-1.85.98-2.86,1.29-1.07.32-2.19.51-3.32.57s-2.24,0-3.34-.17-2.17-.48-3.17-.92-1.94-1.02-2.75-1.8c-.68-.65-1.27-1.46-1.65-2.42-.27-.67-.42-1.42-.42-2.17"/>
    </g>
    <g id="LINE-215">
      <line class="cls-6" x1="199.77" y1="468.11" x2="199.77" y2="482.33"/>
    </g>
    <g id="LINE-216">
      <line class="cls-6" x1="178.86" y1="468.11" x2="178.86" y2="482.33"/>
    </g>
    <g id="ELLIPSE-87">
      <ellipse class="cls-6" cx="598.48" cy="458.36" rx="10.45" ry="6.04"/>
    </g>
    <g id="SPLINE-6">
      <path class="cls-6" d="M608.94,472.59c0,.71-.14,1.42-.38,2.07-.26.7-.65,1.33-1.09,1.88-.56.68-1.22,1.23-1.92,1.68-.88.57-1.85.98-2.86,1.29-1.07.32-2.19.51-3.32.57s-2.24,0-3.34-.17c-1.1-.18-2.17-.48-3.17-.92s-1.94-1.02-2.75-1.8c-.68-.65-1.27-1.46-1.65-2.42-.27-.67-.42-1.42-.42-2.17"/>
    </g>
    <g id="LINE-217">
      <line class="cls-6" x1="608.94" y1="458.36" x2="608.94" y2="472.59"/>
    </g>
    <g id="LINE-218">
      <line class="cls-6" x1="588.03" y1="458.36" x2="588.03" y2="472.59"/>
    </g>
  </g>
</svg>