<?xml version="1.0" encoding="UTF-8"?>
<svg id="GRAPHIC" xmlns="http://www.w3.org/2000/svg" viewBox="0 0 1584 720">
  <defs>
    <style>
      .cls-1 {
        stroke-width: .18px;
      }

      .cls-1, .cls-2 {
        fill: none;
        stroke: #000;
        stroke-linecap: round;
        stroke-linejoin: round;
      }

      .cls-2 {
        stroke-width: .36px;
      }
    </style>
  </defs>
  <g id="ELLIPSE">
    <path class="cls-2" d="M812.85,421.98c-2.07,1.61-4.97.66-6.48-2.12-1.5-2.78-1.04-6.35,1.03-7.96"/>
  </g>
  <g id="SPLINE">
    <path class="cls-2" d="M800.45,428.18c.42-.08.97-.04,1.59.1s1.31.35,1.98.58,1.42.48,2.14.7,1.42.4,2.01.51c.59.11,1.13.16,1.54.14.18,0,.33-.02.46-.04"/>
  </g>
  <g id="SPLINE-2" data-name="SPLINE">
    <path class="cls-2" d="M799.35,429.22c.02-.17.07-.34.16-.48.18-.28.51-.48.94-.56"/>
  </g>
  <g id="ELLIPSE-2" data-name="ELLIPSE">
    <path class="cls-2" d="M811.18,408.97c-4.72-.57-8.64,3.62-8.75,9.36-.11,5.74,3.62,10.85,8.35,11.41,4.72.57,8.64-3.62,8.75-9.36.02-1.1-.1-2.22-.37-3.3"/>
  </g>
  <g id="ELLIPSE-3" data-name="ELLIPSE">
    <path class="cls-2" d="M798.82,410.88c-4.61.83-7.51,6.13-6.48,11.83.75,4.15,3.43,7.53,6.82,8.59"/>
  </g>
  <g id="LINE">
    <line class="cls-2" x1="798.82" y1="410.88" x2="809.11" y2="409.02"/>
  </g>
  <g id="LINE-2" data-name="LINE">
    <line class="cls-2" x1="810.17" y1="430.16" x2="812.84" y2="429.68"/>
  </g>
  <g id="SPLINE-3" data-name="SPLINE">
    <path class="cls-2" d="M743.14,410.44c.71.5,1.41.99,2.12,1.47"/>
  </g>
  <g id="SPLINE-4" data-name="SPLINE">
    <path class="cls-2" d="M748.8,414.2c1.47.91,2.94,1.78,4.42,2.6,7.46,4.14,14.98,7.07,22.35,8.64,6.18,1.32,12.26,1.68,18.07,1.03"/>
  </g>
  <g id="SPLINE-5" data-name="SPLINE">
    <path class="cls-2" d="M753.45,407.58c.61.38,1.23.75,1.84,1.11"/>
  </g>
  <g id="SPLINE-6" data-name="SPLINE">
    <path class="cls-2" d="M759.11,410.8c6.19,3.24,12.3,5.49,18.14,6.74,5.26,1.12,10.3,1.43,15.03.96"/>
  </g>
  <g id="LINE-3" data-name="LINE">
    <line class="cls-2" x1="607.03" y1="400.42" x2="502.68" y2="473.98"/>
  </g>
  <g id="LINE-4" data-name="LINE">
    <line class="cls-2" x1="598.63" y1="392.51" x2="496.17" y2="464.74"/>
  </g>
  <g id="LINE-5" data-name="LINE">
    <line class="cls-2" x1="595.51" y1="54.65" x2="645.98" y2="197.35"/>
  </g>
  <g id="LINE-6" data-name="LINE">
    <line class="cls-2" x1="584.86" y1="58.42" x2="637.02" y2="205.91"/>
  </g>
  <g id="LINE-7" data-name="LINE">
    <line class="cls-2" x1="777.18" y1="672.94" x2="799.35" y2="429.22"/>
  </g>
  <g id="LINE-8" data-name="LINE">
    <line class="cls-2" x1="788.44" y1="673.97" x2="810.62" y2="430.08"/>
  </g>
  <g id="LINE-9" data-name="LINE">
    <line class="cls-2" x1="819.52" y1="420.64" x2="1024.59" y2="520.15"/>
  </g>
  <g id="LINE-10" data-name="LINE">
    <line class="cls-2" x1="812.42" y1="429.76" x2="1019.66" y2="530.32"/>
  </g>
  <g id="LINE-11" data-name="LINE">
    <line class="cls-2" x1="807.41" y1="411.9" x2="893.11" y2="345.28"/>
  </g>
  <g id="LINE-12" data-name="LINE">
    <line class="cls-2" x1="916.54" y1="327.07" x2="937.75" y2="310.59"/>
  </g>
  <g id="LINE-13" data-name="LINE">
    <line class="cls-2" x1="812.85" y1="421.98" x2="944.68" y2="319.51"/>
  </g>
  <g id="SPLINE-7" data-name="SPLINE">
    <path class="cls-2" d="M737.43,403.61c4.81-1.42,9.64-2.85,14.54-4.29,0,0,.02,0,.03,0"/>
  </g>
  <g id="SPLINE-8" data-name="SPLINE">
    <path class="cls-2" d="M738.52,407.38c4.86-1.44,9.72-2.89,14.66-4.34,0,0,.02,0,.03,0"/>
  </g>
  <g id="SPLINE-9" data-name="SPLINE">
    <path class="cls-2" d="M611.82,399.04c6.85,4.93,14.23,8.91,22.02,11.85,7.7,2.91,15.75,4.8,24.08,5.68,9.57,1.02,19.44.69,29.62-.72,6.31-.88,12.72-2.17,19.28-3.74,6.14-1.48,12.34-3.19,18.7-5.01,3.98-1.14,7.93-2.31,11.9-3.48"/>
  </g>
  <g id="LINE-14" data-name="LINE">
    <line class="cls-2" x1="610.42" y1="402.58" x2="611.82" y2="399.04"/>
  </g>
  <g id="SPLINE-10" data-name="SPLINE">
    <path class="cls-2" d="M610.42,402.58c7.04,5.07,14.62,9.15,22.61,12.17,7.89,2.99,16.15,4.93,24.68,5.84,9.8,1.04,19.88.71,30.24-.74,6.42-.9,12.95-2.22,19.6-3.83,6.23-1.51,12.52-3.25,18.94-5.11,4.02-1.16,8.02-2.35,12.02-3.54"/>
  </g>
  <g id="SPLINE-11" data-name="SPLINE">
    <path class="cls-2" d="M928.33,292.71c1.39-2.32,2.72-4.68,3.99-7.08"/>
  </g>
  <g id="SPLINE-12" data-name="SPLINE">
    <path class="cls-2" d="M931.02,294.88c1.4-2.38,2.75-4.8,4.03-7.26"/>
  </g>
  <g id="SPLINE-13" data-name="SPLINE">
    <path class="cls-2" d="M781.71,390.52c14.64-4.45,29.13-9.54,43.06-15.43,14.09-5.95,27.85-12.83,40.81-20.88,14.38-8.93,27.78-19.32,39.53-31.44,8.88-9.16,16.69-19.17,23.23-30.07"/>
  </g>
  <g id="ARC">
    <path class="cls-2" d="M880.91,348.76c20.24-14.31,37.3-32.66,50.12-53.88"/>
  </g>
  <g id="SPLINE-14" data-name="SPLINE">
    <path class="cls-2" d="M783.12,394.19c13.44-4.07,26.75-8.67,39.63-13.93"/>
  </g>
  <g id="ARC-2" data-name="ARC">
    <path class="cls-2" d="M579.21,273.29c-2.25,3.93-4.17,8.04-5.72,12.29"/>
  </g>
  <g id="ARC-3" data-name="ARC">
    <path class="cls-2" d="M576.24,274c-2.27,3.97-4.19,8.13-5.73,12.43"/>
  </g>
  <g id="SPLINE-15" data-name="SPLINE">
    <path class="cls-2" d="M588.19,260.34c-3.29,4.04-6.33,8.33-8.98,12.95"/>
  </g>
  <g id="SPLINE-16" data-name="SPLINE">
    <path class="cls-2" d="M585.29,260.97c-3.33,4.05-6.39,8.37-9.05,13.03"/>
  </g>
  <g id="ARC-4" data-name="ARC">
    <path class="cls-2" d="M588.03,260.2c40.74-46.69,84.93-90.26,132.19-130.34"/>
  </g>
  <g id="SPLINE-17" data-name="SPLINE">
    <path class="cls-2" d="M573.49,285.58c-.16.43-.31.87-.46,1.31-2.94,8.54-4.38,17.65-4.37,27.17.02,10.21,1.73,20.93,5.15,31.5.7,2.16,1.47,4.32,2.31,6.46,3.82,9.74,8.95,18.79,15.12,26.84,5.99,7.8,12.91,14.6,20.58,20.19"/>
  </g>
  <g id="ARC-5" data-name="ARC">
    <path class="cls-2" d="M816.72,251.66c-41.77-32.01-74.93-73.9-96.5-121.9"/>
  </g>
  <g id="ARC-6" data-name="ARC">
    <path class="cls-2" d="M863.8,87.79c-8.6-6.26-16.91-12.9-24.91-19.9"/>
  </g>
  <g id="SPLINE-18" data-name="SPLINE">
    <path class="cls-2" d="M838.89,67.89c-.52-.4-1.03-.78-1.55-1.15-3.31-2.35-6.6-4.09-10.03-5.3-1.33-.47-2.68-.85-4.03-1.15-4.2-.92-8.62-1.06-13.26-.36-4.74.71-9.71,2.29-14.79,4.81-3.36,1.66-6.75,3.72-10.13,6.2"/>
  </g>
  <g id="ARC-7" data-name="ARC">
    <path class="cls-2" d="M720.16,129.79c19.99-21.37,41.7-41.06,64.92-58.87"/>
  </g>
  <g id="ARC-8" data-name="ARC">
    <path class="cls-2" d="M942.1,180.98c7.51,35.06,4.1,71.59-9.77,104.65"/>
  </g>
  <g id="SPLINE-19" data-name="SPLINE">
    <path class="cls-2" d="M942.1,180.98c-1.72-7.53-4.23-14.87-7.44-21.91-3.48-7.65-7.77-14.93-12.63-21.69-4.8-6.68-10.22-12.91-15.82-18.42-.66-.65-1.33-1.29-2-1.93-3.41-3.22-6.9-6.21-10.33-8.85-1.55-1.2-3.09-2.32-4.59-3.36"/>
  </g>
  <g id="ARC-9" data-name="ARC">
    <path class="cls-2" d="M889.29,104.83c-8.67-5.41-17.17-11.09-25.49-17.04"/>
  </g>
  <g id="SPLINE-20" data-name="SPLINE">
    <path class="cls-2" d="M816.78,251.59c10.12,7.32,20.51,13.57,31.02,18.67,15.45,7.5,31.17,12.5,46.73,14.87,12.8,1.95,25.48,2.12,37.8.51"/>
  </g>
  <g id="SPLINE-21" data-name="SPLINE">
    <path class="cls-2" d="M751.99,399.31c9.54-2.81,19.04-5.56,28.26-8.34.49-.15.97-.29,1.46-.44"/>
  </g>
  <g id="ARC-10" data-name="ARC">
    <path class="cls-2" d="M585.2,260.89c27.72-32.26,57.77-62.44,89.9-90.31"/>
  </g>
  <g id="SPLINE-22" data-name="SPLINE">
    <path class="cls-2" d="M570.51,286.43c-.16.44-.31.88-.46,1.33-2.93,8.66-4.34,17.94-4.25,27.67.09,10.33,1.86,21.2,5.36,31.94.75,2.32,1.59,4.63,2.5,6.93,3.96,9.99,9.25,19.29,15.61,27.55,6.17,8.01,13.29,14.99,21.16,20.74"/>
  </g>
  <g id="ARC-11" data-name="ARC">
    <path class="cls-2" d="M866.79,85.63c-8.42-6.12-16.6-12.57-24.51-19.34"/>
  </g>
  <g id="SPLINE-23" data-name="SPLINE">
    <path class="cls-2" d="M842.28,66.29c-.51-.38-1.03-.75-1.54-1.11-3.27-2.25-6.54-3.89-9.96-5.02-1.35-.45-2.73-.81-4.12-1.08-4.23-.83-8.71-.9-13.42-.14-1.83.29-3.69.71-5.58,1.26"/>
  </g>
  <g id="ARC-12" data-name="ARC">
    <path class="cls-2" d="M945.02,180.3c7.55,35.09,4.39,71.64-9.06,104.92"/>
  </g>
  <g id="SPLINE-24" data-name="SPLINE">
    <path class="cls-2" d="M935.96,285.22c-.25.71-.51,1.41-.76,2.1"/>
  </g>
  <g id="ARC-13" data-name="ARC">
    <path class="cls-2" d="M891.92,102.61c-8.52-5.43-16.9-11.09-25.12-16.97"/>
  </g>
  <g id="SPLINE-25" data-name="SPLINE">
    <path class="cls-2" d="M945.02,180.3c-1.75-7.68-4.31-15.17-7.56-22.36-3.53-7.81-7.87-15.24-12.77-22.15-4.83-6.8-10.26-13.15-15.86-18.76-.68-.68-1.36-1.35-2.05-2.01-3.41-3.29-6.89-6.32-10.3-9.01-1.54-1.21-3.07-2.35-4.56-3.4"/>
  </g>
  <g id="SPLINE-26" data-name="SPLINE">
    <path class="cls-2" d="M753.2,403.02c9.62-2.83,19.18-5.6,28.45-8.39.49-.15.98-.29,1.47-.44"/>
  </g>
  <g id="SPLINE-27" data-name="SPLINE">
    <path class="cls-2" d="M935.05,287.62c.05-.1.1-.19.15-.29"/>
  </g>
  <g id="LINE-15" data-name="LINE">
    <line class="cls-2" x1="842.28" y1="66.29" x2="838.89" y2="67.89"/>
  </g>
  <g id="LINE-16" data-name="LINE">
    <line class="cls-2" x1="945.02" y1="180.3" x2="942.1" y2="180.98"/>
  </g>
  <g id="LINE-17" data-name="LINE">
    <line class="cls-2" x1="891.92" y1="102.61" x2="889.29" y2="104.83"/>
  </g>
  <g id="ARC-14" data-name="ARC">
    <path class="cls-2" d="M672.42,421.2c42.11-2.13,83.53-11.6,122.39-27.96"/>
  </g>
  <g id="SPLINE-28" data-name="SPLINE">
    <path class="cls-2" d="M675.04,170.52c.56-.51,1.11-1.01,1.65-1.52"/>
  </g>
  <g id="SPLINE-29" data-name="SPLINE">
    <path class="cls-2" d="M804.22,61.19c1.14-.33,2.28-.66,3.43-.99"/>
  </g>
  <g id="SPLINE-30" data-name="SPLINE">
    <path class="cls-2" d="M942.27,314.33c-5.4,3.55-10.82,7.07-16.25,10.54-17.97,11.5-36.12,22.56-54.46,33.02-24.25,13.83-48.88,26.65-73.88,37.67-20.54,9.05-41.43,16.94-62.46,22.6-16.14,4.35-32.5,7.4-48.61,8.18-12.31.59-24.61-.17-36.28-2.87-9.3-2.16-18.31-5.6-26.52-10.39-7.01-4.09-13.51-9.21-19.29-15.14"/>
  </g>
  <g id="SPLINE-31" data-name="SPLINE">
    <path class="cls-2" d="M565.91,309.79c-1.33-7.47-2.4-15.04-3.26-22.67-1.66-14.62-2.56-29.49-2.94-44.45-.45-17.84-.14-35.84.69-53.89.99-21.56,2.74-43.22,5.02-64.88,2.69-25.59,6.13-51.22,10.11-76.83"/>
  </g>
  <g id="ARC-15" data-name="ARC">
    <path class="cls-2" d="M578.98,47.66c-15.65,82.54-19.65,166.86-11.88,250.51"/>
  </g>
  <g id="SPLINE-32" data-name="SPLINE">
    <path class="cls-2" d="M640.49,417.24c.86.3,1.72.6,2.58.87,7.59,2.44,15.55,3.94,23.64,4.66,4.36.39,8.77.55,13.2.52,9.9-.07,19.94-1.1,29.97-2.82,11.26-1.92,22.54-4.71,33.74-8.07,13.3-4,26.54-8.83,39.65-14.22,15.66-6.43,31.19-13.68,46.55-21.45,18.37-9.3,36.55-19.39,54.53-30,18.98-11.2,37.77-23.01,56.37-35.25"/>
  </g>
  <g id="SPLINE-33" data-name="SPLINE">
    <path class="cls-2" d="M968.23,298.82c.45-.16.89-.33,1.34-.5,5.68-2.17,10.92-4.74,15.36-7.8,5.13-3.53,9.22-7.77,11.7-12.58,2.1-4.08,3.09-8.64,2.98-13.44-.1-4.61-1.2-9.49-3.01-14.39-1.98-5.35-4.82-10.78-8.17-16.13-4.04-6.44-8.85-12.82-14.07-19.05-6.64-7.92-13.98-15.65-21.69-23.18-2.19-2.14-4.4-4.26-6.65-6.37"/>
  </g>
  <g id="SPLINE-34" data-name="SPLINE">
    <path class="cls-2" d="M785.17,70.86c-11.2-5.95-22.79-11.59-34.92-16.8-16.17-6.95-33.65-13.26-52.52-17.66-11.3-2.64-23.37-4.58-35.19-5.48-8.45-.64-16.91-.77-24.91-.45-7.61.3-14.92.98-21.79,1.93-6.48.89-12.63,2-18.47,3.27"/>
  </g>
  <g id="SPLINE-35" data-name="SPLINE">
    <path class="cls-2" d="M597.57,32.32c1.8-.38,3.63-.75,5.48-1.1,7.98-1.51,16.58-2.74,25.69-3.46,9.01-.71,18.71-.9,28.51-.4,8.3.42,16.81,1.34,25.07,2.69,8.11,1.33,16.09,3.07,23.76,5.11,8.64,2.29,16.98,4.95,24.99,7.84,9.76,3.52,19.11,7.4,28.13,11.49,9.97,4.52,19.58,9.33,28.93,14.33"/>
  </g>
  <g id="SPLINE-36" data-name="SPLINE">
    <path class="cls-2" d="M944.94,179.96c14.38,13.23,27.89,27.07,38.8,41.57,8.22,10.92,15.07,22.46,17.84,33.77,1.34,5.5,1.68,11.02.68,16.14-.95,4.87-3.13,9.44-6.3,13.39-2.99,3.72-6.88,6.96-11.31,9.73-4.68,2.93-10.01,5.36-15.7,7.43"/>
  </g>
  <g id="ELLIPSE-4" data-name="ELLIPSE">
    <path class="cls-2" d="M498.21,463.31c-2.94-1.82-4.78-.59-4.1,2.75.67,3.34,3.6,7.53,6.54,9.36,2.94,1.82,4.78.59,4.1-2.75,0-.04-.02-.08-.03-.12"/>
  </g>
  <g id="ELLIPSE-5" data-name="ELLIPSE">
    <path class="cls-2" d="M502.68,473.98c-1.1.78-3.46-.66-5.25-3.21-1.8-2.55-2.36-5.25-1.26-6.03"/>
  </g>
  <g id="ARC-16" data-name="ARC">
    <path class="cls-2" d="M479.37,469.67c1.48-1.03,3.3-1.44,5.08-1.16"/>
  </g>
  <g id="ARC-17" data-name="ARC">
    <path class="cls-2" d="M495.19,483.75c-.33,1.77-1.33,3.35-2.8,4.4"/>
  </g>
  <g id="LINE-18" data-name="LINE">
    <line class="cls-2" x1="492.39" y1="488.15" x2="490.77" y2="489.29"/>
  </g>
  <g id="LINE-19" data-name="LINE">
    <line class="cls-2" x1="479.37" y1="469.67" x2="477.74" y2="470.82"/>
  </g>
  <g id="SPLINE-37" data-name="SPLINE">
    <path class="cls-2" d="M488.06,467.49c-.3.21-.61.39-.93.54s-.62.26-.91.33-.56.13-.79.15-.43.03-.6.03-.29-.02-.38-.03"/>
  </g>
  <g id="SPLINE-38" data-name="SPLINE">
    <path class="cls-2" d="M495.19,483.75c.02-.09.05-.22.1-.37s.12-.34.23-.55.24-.45.41-.69.38-.5.62-.75.52-.48.82-.69"/>
  </g>
  <g id="LINE-20" data-name="LINE">
    <line class="cls-2" x1="488.06" y1="467.49" x2="494.77" y2="462.76"/>
  </g>
  <g id="LINE-21" data-name="LINE">
    <line class="cls-2" x1="497.36" y1="480.69" x2="504.07" y2="475.96"/>
  </g>
  <g id="SPLINE-39" data-name="SPLINE">
    <path class="cls-2" d="M490.77,489.29c-.9.63-1.9,1.11-2.88,1.42-1.05.33-2.07.46-2.96.47-1.11.01-2.05-.14-2.83-.35-1.1-.29-1.92-.68-2.59-1.06-1.05-.59-1.76-1.19-2.38-1.78-.92-.89-1.59-1.77-2.19-2.8s-1.14-2.16-1.45-3.98c-.1-.59-.17-1.27-.15-2.08.01-.58.07-1.22.22-1.94.23-1.1.69-2.42,1.59-3.74.62-.91,1.46-1.81,2.45-2.53.05-.03.09-.07.14-.1"/>
  </g>
  <g id="ELLIPSE-6" data-name="ELLIPSE">
    <path class="cls-2" d="M790.78,674.94c.05-.58-3.5-1.39-7.94-1.79s-8.08-.26-8.14.33"/>
  </g>
  <g id="ARC-18" data-name="ARC">
    <path class="cls-2" d="M771.44,687.85c-.92.95-1.48,2.18-1.6,3.49"/>
  </g>
  <g id="ARC-19" data-name="ARC">
    <path class="cls-2" d="M791.4,689.66c.73,1.1,1.06,2.41.95,3.72"/>
  </g>
  <g id="LINE-22" data-name="LINE">
    <line class="cls-2" x1="769.64" y1="693.51" x2="769.84" y2="691.34"/>
  </g>
  <g id="LINE-23" data-name="LINE">
    <line class="cls-2" x1="792.15" y1="695.56" x2="792.35" y2="693.38"/>
  </g>
  <g id="ARC-20" data-name="ARC">
    <path class="cls-2" d="M773.89,682.47c-.18,2.02-1.04,3.91-2.45,5.38"/>
  </g>
  <g id="ARC-21" data-name="ARC">
    <path class="cls-2" d="M789.97,683.93c-.19,2.02.32,4.04,1.44,5.73"/>
  </g>
  <g id="LINE-24" data-name="LINE">
    <line class="cls-2" x1="790.78" y1="674.94" x2="789.96" y2="683.93"/>
  </g>
  <g id="LINE-25" data-name="LINE">
    <line class="cls-2" x1="774.7" y1="673.48" x2="773.89" y2="682.47"/>
  </g>
  <g id="SPLINE-40" data-name="SPLINE">
    <path class="cls-2" d="M769.64,693.51c-.1,1.07-.01,2.16.2,3.12.23,1.05.61,1.95,1.01,2.67.52.95,1.07,1.61,1.55,2.11.75.78,1.34,1.2,1.82,1.51.9.59,1.44.79,1.87.96.92.36,1.37.45,1.79.54.7.15,1.21.22,1.74.28.53.06,1.05.1,1.63.11s1.03.08,2.48-.17c.48-.08,1.08-.17,2.25-.66.5-.21,1.11-.49,1.91-1.05.44-.31.94-.71,1.48-1.27.75-.78,1.59-1.9,2.17-3.43.31-.82.53-1.74.62-2.68"/>
  </g>
  <g id="SPLINE-41" data-name="SPLINE">
    <path class="cls-2" d="M816.85,387.08c-.14-.04-.29-.09-.43-.14"/>
  </g>
  <g id="LINE-26" data-name="LINE">
    <line class="cls-2" x1="816.85" y1="387.08" x2="817.7" y2="387.35"/>
  </g>
  <g id="ARC-22" data-name="ARC">
    <path class="cls-2" d="M817.7,387.35c5.95,1.8,12.23-1.56,14.04-7.5.05-.17.1-.35.15-.53"/>
  </g>
  <g id="ELLIPSE-7" data-name="ELLIPSE">
    <path class="cls-2" d="M1021.14,518.48s.08-.05.12-.07c3.27-1.88,6.31-.35,6.78,3.42.48,3.77-1.78,8.35-5.05,10.24-3.27,1.88-6.31.35-6.78-3.42"/>
  </g>
  <g id="ELLIPSE-8" data-name="ELLIPSE">
    <path class="cls-2" d="M1019.66,530.32c1.87.91,4.49-.63,5.85-3.44s.95-5.82-.92-6.73"/>
  </g>
  <g id="SPLINE-42" data-name="SPLINE">
    <path class="cls-2" d="M1029.54,541.39c-.58-.28-1.12-.63-1.61-1.03s-.92-.85-1.29-1.32c-.37-.48-.69-.98-.94-1.49s-.46-1.03-.62-1.56c-.04-.13-.07-.25-.11-.38"/>
  </g>
  <g id="SPLINE-43" data-name="SPLINE">
    <path class="cls-2" d="M1032.04,521.04c.12-.05.24-.1.36-.15.51-.2,1.04-.36,1.6-.48s1.15-.18,1.75-.18,1.22.06,1.84.2,1.22.35,1.8.63"/>
  </g>
  <g id="LINE-27" data-name="LINE">
    <line class="cls-2" x1="1031.02" y1="542.11" x2="1029.54" y2="541.39"/>
  </g>
  <g id="LINE-28" data-name="LINE">
    <line class="cls-2" x1="1040.88" y1="521.77" x2="1039.4" y2="521.06"/>
  </g>
  <g id="SPLINE-44" data-name="SPLINE">
    <path class="cls-2" d="M1024.72,535.46c.11.05.22.12.29.18s.11.11.12.12c0,0,0,0,0,0"/>
  </g>
  <g id="SPLINE-45" data-name="SPLINE">
    <path class="cls-2" d="M1032.26,521.08s0,0,0,0c-.01,0-.08,0-.17-.02s-.21-.06-.33-.12"/>
  </g>
  <g id="LINE-29" data-name="LINE">
    <line class="cls-2" x1="1025.65" y1="517.97" x2="1031.76" y2="520.94"/>
  </g>
  <g id="LINE-30" data-name="LINE">
    <line class="cls-2" x1="1018.6" y1="532.5" x2="1024.72" y2="535.46"/>
  </g>
  <g id="SPLINE-46" data-name="SPLINE">
    <path class="cls-2" d="M1040.88,521.77c1.02.5,1.96,1.16,2.73,1.91.82.79,1.47,1.67,1.95,2.54.56,1.01.9,2.01,1.11,2.94.25,1.16.3,2.22.24,3.19-.08,1.22-.34,2.32-.73,3.33-.44,1.17-1.04,2.24-1.86,3.26s-1.75,1.89-3.08,2.68c-1.03.61-2.29,1.14-3.8,1.4-1.14.19-2.43.21-3.75-.04-.9-.17-1.82-.47-2.67-.88"/>
  </g>
  <g id="ELLIPSE-9" data-name="ELLIPSE">
    <path class="cls-2" d="M597.41,52.75c.17.48-3.1,2.07-7.3,3.56-4.2,1.49-7.75,2.3-7.92,1.82"/>
  </g>
  <g id="ELLIPSE-10" data-name="ELLIPSE">
    <path class="cls-2" d="M583.04,58.58c.6.28,4.21-.64,8.05-2.05,3.23-1.19,5.69-2.39,5.94-2.89"/>
  </g>
  <g id="SPLINE-47" data-name="SPLINE">
    <path class="cls-2" d="M594.14,43.51s-.03-.02-.05,0c-.02.03-.05.11-.07.23"/>
  </g>
  <g id="ELLIPSE-11" data-name="ELLIPSE">
    <path class="cls-1" d="M580.22,32.99c3.81-1.25,7.46-2.83,8.5-3.66"/>
  </g>
  <g id="SPLINE-48" data-name="SPLINE">
    <path class="cls-1" d="M585.45,47.79s-.06,0-.1-.01c-.06,0-.13-.02-.19-.02-.11,0-.21-.01-.32-.01-.21,0-.41.02-.6.06-.32.07-.62.19-.88.35"/>
  </g>
  <g id="ELLIPSE-12" data-name="ELLIPSE">
    <path class="cls-1" d="M583.36,48.15c-2.97-.26-4.71-.02-4.49.61"/>
  </g>
  <g id="SPLINE-49" data-name="SPLINE">
    <path class="cls-2" d="M579.02,49.17s-.06-.02-.1-.03"/>
  </g>
  <g id="LINE-31" data-name="LINE">
    <line class="cls-2" x1="575.38" y1="48.05" x2="571.01" y2="46.7"/>
  </g>
  <g id="SPLINE-50" data-name="SPLINE">
    <path class="cls-2" d="M570.95,46.68c-.79-.24-1.56-.74-2.19-1.44-.59-.65-1.07-1.46-1.39-2.35-.2-.56-.33-1.14-.39-1.73-.06-.59-.06-1.18.02-1.75.12-.91.42-1.76.86-2.46.47-.75,1.11-1.32,1.83-1.65"/>
  </g>
  <g id="SPLINE-51" data-name="SPLINE">
    <path class="cls-2" d="M571.01,46.7s-.02,0-.03,0-.02,0-.03,0"/>
  </g>
  <g id="LINE-32" data-name="LINE">
    <line class="cls-2" x1="569.74" y1="35.26" x2="573.44" y2="33.56"/>
  </g>
  <g id="ELLIPSE-13" data-name="ELLIPSE">
    <path class="cls-2" d="M573.44,33.56c.66-.3,1.22-.58,1.66-.83"/>
  </g>
  <g id="ELLIPSE-14" data-name="ELLIPSE">
    <path class="cls-2" d="M575.09,32.72c1.13-.64,3.12-1.5,5.35-2.31"/>
  </g>
  <g id="ELLIPSE-15" data-name="ELLIPSE">
    <path class="cls-2" d="M580.44,30.42c.87-.31,1.72-.64,2.52-.96"/>
  </g>
  <g id="LINE-33" data-name="LINE">
    <line class="cls-2" x1="582.96" y1="29.45" x2="587.45" y2="27.63"/>
  </g>
  <g id="SPLINE-52" data-name="SPLINE">
    <path class="cls-2" d="M569.68,35.29s.02,0,.03-.01.02,0,.03-.01"/>
  </g>
  <g id="SPLINE-53" data-name="SPLINE">
    <path class="cls-2" d="M587.52,27.6c.39-.16.79-.27,1.2-.33"/>
  </g>
  <g id="SPLINE-54" data-name="SPLINE">
    <path class="cls-2" d="M587.45,27.63s.03-.01.04-.02.03-.01.04-.02"/>
  </g>
  <g id="ARC-23" data-name="ARC">
    <path class="cls-2" d="M594.53,42.46c-.15.34-.28.69-.4,1.05"/>
  </g>
  <g id="ARC-24" data-name="ARC">
    <path class="cls-2" d="M594.56,41.89c-.3.72-.5,1.47-.62,2.23"/>
  </g>
  <g id="LINE-34" data-name="LINE">
    <line class="cls-2" x1="594.65" y1="42.17" x2="597.11" y2="36.39"/>
  </g>
  <g id="LINE-35" data-name="LINE">
    <line class="cls-2" x1="597.13" y1="35.82" x2="594.68" y2="41.61"/>
  </g>
  <g id="ARC-25" data-name="ARC">
    <path class="cls-2" d="M594.68,41.61c-.04.09-.08.19-.12.28"/>
  </g>
  <g id="SPLINE-55" data-name="SPLINE">
    <path class="cls-2" d="M594.53,42.46l.06-.14.06-.14"/>
  </g>
  <g id="SPLINE-56" data-name="SPLINE">
    <path class="cls-1" d="M592.12,27.47c.28-.13.57-.2.88-.22.34-.02.7.02,1.05.14.56.18,1.11.54,1.6,1.03.3.31.58.67.83,1.07s.46.84.62,1.3c.27.74.43,1.54.47,2.32.04.8-.06,1.57-.27,2.26-.04.12-.08.23-.12.34"/>
  </g>
  <g id="SPLINE-57" data-name="SPLINE">
    <path class="cls-2" d="M597.16,36.26c.05-.12.1-.25.14-.37.26-.76.39-1.64.36-2.56-.03-.9-.21-1.83-.52-2.68-.2-.54-.44-1.04-.73-1.5s-.62-.87-.97-1.21c-.57-.55-1.2-.93-1.83-1.11-.4-.11-.79-.15-1.17-.1-.33.04-.66.14-.96.29"/>
  </g>
  <g id="ARC-26" data-name="ARC">
    <path class="cls-2" d="M597.18,35.71s-.03.08-.05.12"/>
  </g>
  <g id="SPLINE-58" data-name="SPLINE">
    <path class="cls-2" d="M597.11,36.39s.02-.04.03-.07.02-.04.03-.07"/>
  </g>
  <g id="LINE-36" data-name="LINE">
    <line class="cls-1" x1="591.36" y1="27.07" x2="589.4" y2="28.07"/>
  </g>
  <g id="LINE-37" data-name="LINE">
    <line class="cls-1" x1="590.05" y1="28.53" x2="592.01" y2="27.52"/>
  </g>
  <g id="ELLIPSE-16" data-name="ELLIPSE">
    <path class="cls-1" d="M588.71,29.33c.27-.22.72-.49,1.33-.8"/>
  </g>
  <g id="ELLIPSE-17" data-name="ELLIPSE">
    <path class="cls-1" d="M589.4,28.07c-.66.34-1.15.63-1.44.86"/>
  </g>
  <g id="ELLIPSE-18" data-name="ELLIPSE">
    <path class="cls-1" d="M587.96,28.94c-.96.77-4.33,2.23-7.86,3.39"/>
  </g>
  <g id="ELLIPSE-19" data-name="ELLIPSE">
    <path class="cls-1" d="M577.26,34.04c.97-.37,1.97-.72,2.96-1.05"/>
  </g>
  <g id="ELLIPSE-20" data-name="ELLIPSE">
    <path class="cls-1" d="M580.11,32.32c-1.06.35-2.14.73-3.18,1.13"/>
  </g>
  <g id="LINE-38" data-name="LINE">
    <line class="cls-1" x1="574.17" y1="35.22" x2="577.26" y2="34.04"/>
  </g>
  <g id="LINE-39" data-name="LINE">
    <line class="cls-1" x1="576.92" y1="33.45" x2="573.83" y2="34.63"/>
  </g>
  <g id="ARC-27" data-name="ARC">
    <path class="cls-1" d="M592.01,27.52s.07-.04.11-.05"/>
  </g>
  <g id="SPLINE-59" data-name="SPLINE">
    <path class="cls-1" d="M591.48,27s-.04.02-.06.03-.04.02-.06.03"/>
  </g>
  <g id="SPLINE-60" data-name="SPLINE">
    <path class="cls-1" d="M573.64,34.7c-.48.18-.93.42-1.36.71-.48.33-.92.72-1.3,1.17-.6.71-1.05,1.56-1.29,2.46-.15.56-.22,1.14-.2,1.72s.12,1.15.3,1.69c.29.87.79,1.66,1.45,2.28s1.49,1.11,2.38,1.38c.15.04.3.08.46.12"/>
  </g>
  <g id="SPLINE-61" data-name="SPLINE">
    <path class="cls-1" d="M574.37,45.54c-.14-.03-.27-.07-.4-.11-.78-.25-1.5-.68-2.07-1.25-.56-.56-.99-1.24-1.24-1.99-.16-.47-.25-.96-.27-1.46-.02-.5.03-1,.16-1.5.2-.79.57-1.54,1.09-2.19.33-.41.71-.77,1.14-1.08.37-.27.78-.5,1.21-.68"/>
  </g>
  <g id="ARC-28" data-name="ARC">
    <path class="cls-1" d="M573.99,35.29c.06-.02.12-.05.17-.07"/>
  </g>
  <g id="SPLINE-62" data-name="SPLINE">
    <path class="cls-1" d="M573.83,34.63s-.06.02-.1.04-.06.02-.1.04"/>
  </g>
  <g id="LINE-40" data-name="LINE">
    <line class="cls-1" x1="581.89" y1="47.12" x2="574.52" y2="45.57"/>
  </g>
  <g id="LINE-41" data-name="LINE">
    <line class="cls-1" x1="574.24" y1="46.25" x2="581.61" y2="47.8"/>
  </g>
  <g id="ARC-29" data-name="ARC">
    <path class="cls-1" d="M574.52,45.57s-.1-.02-.15-.03"/>
  </g>
  <g id="SPLINE-63" data-name="SPLINE">
    <path class="cls-1" d="M574.08,46.21s.06.01.08.02.06.01.08.02"/>
  </g>
  <g id="ARC-30" data-name="ARC">
    <path class="cls-1" d="M585.45,47.79c-1.07-.17-2.14-.36-3.2-.59"/>
  </g>
  <g id="ARC-31" data-name="ARC">
    <path class="cls-1" d="M583.36,48.15c-.46-.09-.93-.18-1.39-.28"/>
  </g>
  <g id="SPLINE-64" data-name="SPLINE">
    <path class="cls-1" d="M582.25,47.2c-.06-.01-.12-.03-.18-.04s-.12-.03-.18-.04"/>
  </g>
  <g id="SPLINE-65" data-name="SPLINE">
    <path class="cls-1" d="M581.61,47.8l.18.04.18.04"/>
  </g>
  <g id="LINE-42" data-name="LINE">
    <line class="cls-2" x1="583.04" y1="58.58" x2="582.28" y2="58.22"/>
  </g>
  <g id="LINE-43" data-name="LINE">
    <line class="cls-2" x1="597.03" y1="53.63" x2="597.4" y2="52.87"/>
  </g>
  <g id="LINE-44" data-name="LINE">
    <line class="cls-2" x1="594.14" y1="43.5" x2="597.41" y2="52.75"/>
  </g>
  <g id="LINE-45" data-name="LINE">
    <line class="cls-2" x1="578.87" y1="48.76" x2="582.19" y2="58.13"/>
  </g>
  <g id="LINE-46" data-name="LINE">
    <line class="cls-2" x1="592.34" y1="26.73" x2="588.72" y2="27.27"/>
  </g>
  <g id="ELLIPSE-21" data-name="ELLIPSE">
    <path class="cls-2" d="M939.94,305.81c-2.01,1.57-2.72,4.44-1.79,7.36"/>
  </g>
  <g id="ELLIPSE-22" data-name="ELLIPSE">
    <path class="cls-2" d="M939.64,316.06c2.67,3.57,7.2,4.73,10.1,2.59.04-.03.07-.06.11-.08"/>
  </g>
  <g id="ELLIPSE-23" data-name="ELLIPSE">
    <path class="cls-2" d="M961.4,309.57l.26-.2c.61-.47,1.12-1.09,1.5-1.82"/>
  </g>
  <g id="ELLIPSE-24" data-name="ELLIPSE">
    <path class="cls-2" d="M951.88,296.54c1.4-1.02,3.3-1.36,5.32-.78"/>
  </g>
  <g id="ARC-32" data-name="ARC">
    <path class="cls-1" d="M950.2,316.63c-.39-.16-.8-.25-1.22-.26"/>
  </g>
  <g id="LINE-47" data-name="LINE">
    <line class="cls-1" x1="944.96" y1="316.74" x2="948.82" y2="316.39"/>
  </g>
  <g id="ARC-33" data-name="ARC">
    <path class="cls-1" d="M948.82,316.39c.05,0,.11,0,.16,0"/>
  </g>
  <g id="SPLINE-66" data-name="SPLINE">
    <path class="cls-1" d="M951.82,312.36c-.71.26-1.53.6-2.35.99-.77.36-1.54.75-2.23,1.13-.43.24-.83.48-1.18.7s-.66.44-.9.63c-.39.3-.62.55-.67.71-.05.18.1.25.45.23"/>
  </g>
  <g id="SPLINE-67" data-name="SPLINE">
    <path class="cls-1" d="M943.75,316.49c-.13-.04-.18-.11-.15-.22.05-.18.31-.46.75-.8.28-.21.62-.45,1.02-.71s.85-.52,1.34-.8c.78-.43,1.65-.88,2.5-1.27.92-.43,1.82-.8,2.61-1.09"/>
  </g>
  <g id="ARC-34" data-name="ARC">
    <path class="cls-1" d="M944.93,316.74s.02,0,.03,0"/>
  </g>
  <g id="LINE-48" data-name="LINE">
    <line class="cls-1" x1="955.91" y1="310.88" x2="951.88" y2="312.33"/>
  </g>
  <g id="LINE-49" data-name="LINE">
    <line class="cls-1" x1="951.9" y1="311.58" x2="955.93" y2="310.12"/>
  </g>
  <g id="ELLIPSE-25" data-name="ELLIPSE">
    <path class="cls-1" d="M955.93,310.12c.72-.26,1.49-.38,2.3-.37"/>
  </g>
  <g id="ELLIPSE-26" data-name="ELLIPSE">
    <path class="cls-1" d="M958.05,310.53c-.75-.01-1.47.1-2.14.34"/>
  </g>
  <g id="ELLIPSE-27" data-name="ELLIPSE">
    <path class="cls-1" d="M958.23,309.75c2.07.03,3.82-.99,4.73-2.76"/>
  </g>
  <g id="ELLIPSE-28" data-name="ELLIPSE">
    <path class="cls-1" d="M962.96,306.99c.35-.69.82-1.29,1.39-1.78"/>
  </g>
  <g id="ELLIPSE-29" data-name="ELLIPSE">
    <path class="cls-2" d="M964.45,305.9c-.53.46-.96,1.01-1.29,1.65"/>
  </g>
  <g id="LINE-50" data-name="LINE">
    <line class="cls-1" x1="964.35" y1="305.21" x2="967.54" y2="302.46"/>
  </g>
  <g id="LINE-51" data-name="LINE">
    <line class="cls-2" x1="967.65" y1="303.14" x2="964.45" y2="305.9"/>
  </g>
  <g id="SPLINE-68" data-name="SPLINE">
    <path class="cls-1" d="M951.83,311.6s.02,0,.04-.01.02,0,.04-.01"/>
  </g>
  <g id="SPLINE-69" data-name="SPLINE">
    <path class="cls-1" d="M951.88,312.33s-.02,0-.03.01-.02,0-.03.01"/>
  </g>
  <g id="SPLINE-70" data-name="SPLINE">
    <path class="cls-1" d="M967.6,302.41c.62-.54,1.12-.98,1.45-1.28.28-.26.42-.4.41-.42"/>
  </g>
  <g id="SPLINE-71" data-name="SPLINE">
    <path class="cls-2" d="M969.32,301.61s-.12.15-.35.36c-.28.26-.72.65-1.27,1.13"/>
  </g>
  <g id="SPLINE-72" data-name="SPLINE">
    <path class="cls-1" d="M967.54,302.46s.02-.02.03-.02.02-.02.03-.02"/>
  </g>
  <g id="SPLINE-73" data-name="SPLINE">
    <path class="cls-2" d="M967.7,303.1s-.02.01-.02.02-.02.01-.03.02"/>
  </g>
  <g id="SPLINE-74" data-name="SPLINE">
    <path class="cls-1" d="M966.56,296.23c-.12-.18-.41-.31-.85-.37-.3-.04-.67-.06-1.09-.04-.37.01-.78.05-1.21.11"/>
    <g id="SPLINE-75" data-name="SPLINE">
      <path class="cls-2" d="M966.56,296.23c-.12-.18-.72-.42-1.15-.54"/>
    </g>
  </g>
  <g id="SPLINE-76" data-name="SPLINE">
    <path class="cls-2" d="M962.94,295.58c.39-.05.75-.07,1.07-.08.37,0,.68.01.94.06.12.02.23.05.33.08"/>
  </g>
  <g id="LINE-52" data-name="LINE">
    <line class="cls-2" x1="959.95" y1="295.98" x2="962.78" y2="295.6"/>
  </g>
  <g id="LINE-53" data-name="LINE">
    <line class="cls-1" x1="963.23" y1="295.95" x2="960.4" y2="296.32"/>
  </g>
  <g id="ELLIPSE-30" data-name="ELLIPSE">
    <path class="cls-1" d="M960.4,296.32c-.95.13-1.96.04-2.96-.24"/>
  </g>
  <g id="ELLIPSE-31" data-name="ELLIPSE">
    <path class="cls-2" d="M957.19,295.75c.93.27,1.87.34,2.76.22"/>
  </g>
  <g id="ELLIPSE-32" data-name="ELLIPSE">
    <path class="cls-1" d="M957.44,296.08c-3.34-.95-6.32.79-6.94,4.05"/>
  </g>
  <g id="ELLIPSE-33" data-name="ELLIPSE">
    <path class="cls-1" d="M950.49,300.13c-.19.98-.57,1.87-1.12,2.62"/>
  </g>
  <g id="ELLIPSE-34" data-name="ELLIPSE">
    <path class="cls-1" d="M948.65,302.57c.51-.7.86-1.53,1.04-2.44"/>
  </g>
  <g id="LINE-54" data-name="LINE">
    <line class="cls-1" x1="949.38" y1="302.75" x2="947.74" y2="304.98"/>
  </g>
  <g id="LINE-55" data-name="LINE">
    <line class="cls-1" x1="947.01" y1="304.8" x2="948.65" y2="302.57"/>
  </g>
  <g id="SPLINE-77" data-name="SPLINE">
    <path class="cls-1" d="M963.41,295.92s-.06,0-.09.01-.06,0-.09.01"/>
  </g>
  <g id="ARC-35" data-name="ARC">
    <path class="cls-2" d="M962.78,295.6c.05,0,.11-.01.16-.02"/>
  </g>
  <g id="SPLINE-78" data-name="SPLINE">
    <path class="cls-1" d="M940.86,310.52c-.02.05-.04.1-.05.14-.08.25-.04.37.13.34s.45-.2.82-.49c.23-.18.5-.42.8-.69s.61-.58.95-.92c.53-.54,1.1-1.16,1.65-1.79.34-.39.68-.8.99-1.18.28-.34.54-.68.77-1"/>
  </g>
  <g id="SPLINE-79" data-name="SPLINE">
    <path class="cls-1" d="M947.64,305.12c-.25.34-.53.71-.83,1.08-.34.43-.71.87-1.1,1.31-.61.71-1.26,1.41-1.88,2.03-.38.39-.76.75-1.1,1.07s-.66.59-.93.8c-.43.34-.76.53-.94.56-.12.02-.18-.04-.17-.17"/>
  </g>
  <g id="SPLINE-80" data-name="SPLINE">
    <path class="cls-1" d="M947.74,304.98s-.03.05-.05.07-.03.05-.05.07"/>
  </g>
  <g id="SPLINE-81" data-name="SPLINE">
    <path class="cls-1" d="M946.92,304.93s.03-.04.05-.06.03-.04.05-.06"/>
  </g>
  <g id="LINE-56" data-name="LINE">
    <line class="cls-1" x1="942.16" y1="307.61" x2="940.89" y2="310.47"/>
  </g>
  <g id="ARC-36" data-name="ARC">
    <path class="cls-1" d="M940.89,310.47s-.02.04-.02.06"/>
  </g>
  <g id="SPLINE-82" data-name="SPLINE">
    <path class="cls-1" d="M942.35,305.83c.01.11.02.23.03.33,0,.17,0,.33,0,.48-.01.18-.03.36-.07.52-.02.11-.05.21-.09.3"/>
  </g>
  <g id="ARC-37" data-name="ARC">
    <path class="cls-1" d="M942.21,307.47s-.04.1-.06.14"/>
  </g>
  <g id="LINE-57" data-name="LINE">
    <line class="cls-2" x1="939.94" y1="305.81" x2="951.84" y2="296.56"/>
  </g>
  <g id="LINE-58" data-name="LINE">
    <line class="cls-2" x1="949.85" y1="318.56" x2="961.66" y2="309.38"/>
  </g>
  <g id="SPLINE-83" data-name="SPLINE">
    <path class="cls-1" d="M944.61,316.73c-.29-.08-.57-.16-.86-.24"/>
  </g>
  <g id="SPLINE-84" data-name="SPLINE">
    <path class="cls-2" d="M969.46,300.72c-.05.3-.09.6-.14.9"/>
  </g>
  <g id="SPLINE-85" data-name="SPLINE">
    <path class="cls-2" d="M965.28,295.65c.29.11.59.21.88.31"/>
  </g>
  <g id="SPLINE-86" data-name="SPLINE">
    <path class="cls-1" d="M940.7,311.8c.02-.32.05-.64.07-.96"/>
  </g>
  <g id="LINE-59" data-name="LINE">
    <line class="cls-2" x1="969.46" y1="300.71" x2="966.56" y2="296.23"/>
  </g>
  <g id="LINE-60" data-name="LINE">
    <line class="cls-1" x1="940.72" y1="311.93" x2="943.62" y2="316.41"/>
  </g>
  <g id="ELLIPSE-35" data-name="ELLIPSE">
    <path class="cls-1" d="M963.16,307.55c-.98,1.91-2.88,3.02-5.11,2.98"/>
  </g>
  <path class="cls-1" d="M949.68,300.13c.3-1.55,1.09-2.79,2.19-3.59"/>
  <g id="LINE-61" data-name="LINE">
    <line class="cls-1" x1="751.99" y1="399.31" x2="753.2" y2="403.02"/>
  </g>
  <g id="LINE-62" data-name="LINE">
    <line class="cls-1" x1="737.43" y1="403.61" x2="738.52" y2="407.38"/>
  </g>
  <g id="LINE-63" data-name="LINE">
    <line class="cls-1" x1="932.32" y1="285.63" x2="935.05" y2="287.62"/>
  </g>
  <g id="LINE-64" data-name="LINE">
    <line class="cls-1" x1="928.33" y1="292.71" x2="931.02" y2="294.88"/>
  </g>
  <g id="LINE-65" data-name="LINE">
    <line class="cls-1" x1="783.12" y1="394.19" x2="781.71" y2="390.52"/>
  </g>
  <g id="LINE-66" data-name="LINE">
    <line class="cls-1" x1="573.49" y1="285.58" x2="570.51" y2="286.43"/>
  </g>
  <g id="LINE-67" data-name="LINE">
    <line class="cls-1" x1="579.21" y1="273.29" x2="576.24" y2="274"/>
  </g>
  <g id="LINE-68" data-name="LINE">
    <line class="cls-1" x1="585.29" y1="260.97" x2="588.19" y2="260.34"/>
  </g>
  <g id="SPLINE-87" data-name="SPLINE">
    <path class="cls-1" d="M816.78,251.59c-15.39,22.53-32.78,43.81-51.48,62.89-18.48,18.86-38.15,35.47-58.26,48.92-21.48,14.37-43.18,24.93-63.96,30.7-5.99,1.66-11.86,2.91-17.58,3.75-4.67.68-9.23,1.08-13.69,1.2"/>
  </g>
  <g id="ELLIPSE-36" data-name="ELLIPSE">
    <path class="cls-1" d="M816.78,251.59c37.05-55.68,54.69-117.14,47.02-163.79"/>
  </g>
  <g id="LINE-69" data-name="LINE">
    <line class="cls-1" x1="866.79" y1="85.63" x2="863.8" y2="87.79"/>
  </g>
  <g id="ARC-38" data-name="ARC">
    <path class="cls-1" d="M679.92,423.29c-13.57.2-27.08-1.9-39.96-6.21"/>
  </g>
  <g id="SPLINE-88" data-name="SPLINE">
    <path class="cls-1" d="M969.37,301.29c6.3-2.27,11.69-4.84,16.2-7.71,6.67-4.25,11.38-9.17,14.17-14.73,1.18-2.35,2.02-4.82,2.52-7.4"/>
  </g>
  <g id="ELLIPSE-37" data-name="ELLIPSE">
    <path class="cls-1" d="M495.19,483.75c-.29,1.44-1.26,2.13-2.71,1.91-3.04-.45-7.3-4.65-9.52-9.38-2.22-4.74-1.55-8.21,1.49-7.77"/>
  </g>
  <g id="ELLIPSE-38" data-name="ELLIPSE">
    <path class="cls-1" d="M479.37,469.67c-2.21,1.56-1.08,6.95,2.51,12.06,3.6,5.1,8.3,7.97,10.51,6.42"/>
  </g>
  <g id="ELLIPSE-39" data-name="ELLIPSE">
    <path class="cls-1" d="M490.77,489.29c-2.21,1.56-6.91-1.32-10.51-6.42-3.6-5.1-4.72-10.5-2.51-12.06"/>
  </g>
  <g id="ELLIPSE-40" data-name="ELLIPSE">
    <path class="cls-1" d="M497.36,480.69c-1.58,1.11-4.94-.94-7.51-4.58-2.57-3.64-3.37-7.5-1.8-8.61"/>
  </g>
  <g id="ELLIPSE-41" data-name="ELLIPSE">
    <path class="cls-1" d="M771.44,687.85c.55-.57,4.32-.73,9.03-.36,5.52.42,10.41,1.4,10.93,2.18"/>
  </g>
  <g id="ELLIPSE-42" data-name="ELLIPSE">
    <path class="cls-1" d="M792.35,693.38c.07-.82-4.9-1.94-11.12-2.51s-11.32-.36-11.39.46"/>
  </g>
  <g id="ELLIPSE-43" data-name="ELLIPSE">
    <path class="cls-1" d="M769.64,693.51c.07-.82,5.17-1.02,11.39-.46,6.22.57,11.19,1.69,11.12,2.51"/>
  </g>
  <g id="ELLIPSE-44" data-name="ELLIPSE">
    <path class="cls-1" d="M773.89,682.47c.05-.58,3.7-.73,8.14-.33s8,1.21,7.94,1.79"/>
  </g>
  <g id="ELLIPSE-45" data-name="ELLIPSE">
    <ellipse class="cls-1" cx="779.99" cy="704.5" rx=".16" ry="1.21" transform="translate(7.75 1417.48) rotate(-84.8)"/>
  </g>
  <g id="ELLIPSE-46" data-name="ELLIPSE">
    <path class="cls-1" d="M825.43,382.55c-1.79,2.03-4.24,3.23-6.78,3.32"/>
  </g>
  <g id="ELLIPSE-47" data-name="ELLIPSE">
    <path class="cls-1" d="M816.85,387.08c5.06,1.56,10.59-1.31,12.82-6.64"/>
  </g>
  <g id="ELLIPSE-48" data-name="ELLIPSE">
    <path class="cls-1" d="M830.83,379.85c-1.94,5.82-7.77,9.15-13.13,7.49"/>
  </g>
  <g id="ELLIPSE-49" data-name="ELLIPSE">
    <path class="cls-1" d="M1024.99,535.63c1.23,4.28,5.43,5.26,9.36,2.19s6.12-9.02,4.89-13.3c-.98-3.4-3.89-4.81-7.17-3.48"/>
  </g>
  <g id="ELLIPSE-50" data-name="ELLIPSE">
    <path class="cls-1" d="M1039.4,521.06c3.74,1.81,4.56,7.83,1.83,13.45-2.72,5.62-7.96,8.7-11.7,6.89"/>
  </g>
  <g id="ELLIPSE-51" data-name="ELLIPSE">
    <path class="cls-1" d="M1031.02,542.11c3.74,1.81,8.97-1.27,11.7-6.89,2.72-5.62,1.91-11.64-1.83-13.45"/>
  </g>
  <g id="ELLIPSE-52" data-name="ELLIPSE">
    <path class="cls-1" d="M1024.72,535.46c2.67,1.29,6.41-.91,8.36-4.92,1.95-4.01,1.36-8.31-1.31-9.61"/>
  </g>
  <g id="LINE-70" data-name="LINE">
    <line class="cls-1" x1="588.71" y1="29.33" x2="593.95" y2="44.12"/>
  </g>
  <g id="LINE-71" data-name="LINE">
    <line class="cls-1" x1="585.45" y1="47.79" x2="580.22" y2="32.99"/>
  </g>
  <g id="LINE-72" data-name="LINE">
    <line class="cls-1" x1="594.53" y1="42.46" x2="594.56" y2="41.89"/>
  </g>
  <g id="LINE-73" data-name="LINE">
    <line class="cls-1" x1="594.68" y1="41.61" x2="594.65" y2="42.17"/>
  </g>
  <g id="LINE-74" data-name="LINE">
    <line class="cls-1" x1="597.11" y1="36.39" x2="597.13" y2="35.82"/>
  </g>
  <g id="LINE-75" data-name="LINE">
    <line class="cls-1" x1="591.48" y1="27" x2="592.12" y2="27.47"/>
  </g>
  <g id="LINE-76" data-name="LINE">
    <line class="cls-1" x1="597.18" y1="35.71" x2="597.16" y2="36.26"/>
  </g>
  <g id="LINE-77" data-name="LINE">
    <line class="cls-1" x1="592.01" y1="27.52" x2="591.36" y2="27.07"/>
  </g>
  <g id="LINE-78" data-name="LINE">
    <line class="cls-1" x1="589.4" y1="28.07" x2="590.05" y2="28.53"/>
  </g>
  <g id="LINE-79" data-name="LINE">
    <line class="cls-1" x1="587.96" y1="28.94" x2="588.71" y2="29.33"/>
  </g>
  <g id="LINE-80" data-name="LINE">
    <line class="cls-1" x1="580.11" y1="32.32" x2="580.22" y2="32.99"/>
  </g>
  <g id="LINE-81" data-name="LINE">
    <line class="cls-1" x1="576.92" y1="33.45" x2="577.26" y2="34.04"/>
  </g>
  <g id="LINE-82" data-name="LINE">
    <line class="cls-1" x1="573.83" y1="34.63" x2="574.17" y2="35.22"/>
  </g>
  <g id="LINE-83" data-name="LINE">
    <line class="cls-1" x1="573.99" y1="35.29" x2="573.64" y2="34.7"/>
  </g>
  <g id="LINE-84" data-name="LINE">
    <line class="cls-1" x1="574.08" y1="46.21" x2="574.37" y2="45.54"/>
  </g>
  <g id="LINE-85" data-name="LINE">
    <line class="cls-1" x1="582.25" y1="47.2" x2="581.97" y2="47.88"/>
  </g>
  <g id="LINE-86" data-name="LINE">
    <line class="cls-1" x1="594.68" y1="41.61" x2="590.05" y2="28.53"/>
  </g>
  <g id="LINE-87" data-name="LINE">
    <line class="cls-1" x1="577.26" y1="34.04" x2="581.89" y2="47.12"/>
  </g>
  <g id="LINE-88" data-name="LINE">
    <line class="cls-1" x1="591.48" y1="27" x2="587.52" y2="27.6"/>
  </g>
  <g id="LINE-89" data-name="LINE">
    <line class="cls-1" x1="570.95" y1="46.68" x2="574.08" y2="46.21"/>
  </g>
  <g id="LINE-90" data-name="LINE">
    <line class="cls-1" x1="573.64" y1="34.7" x2="569.68" y2="35.29"/>
  </g>
  <g id="LINE-91" data-name="LINE">
    <line class="cls-1" x1="958.05" y1="310.53" x2="950.2" y2="316.63"/>
  </g>
  <g id="LINE-92" data-name="LINE">
    <line class="cls-1" x1="942.35" y1="305.83" x2="949.68" y2="300.13"/>
  </g>
  <g id="LINE-93" data-name="LINE">
    <line class="cls-1" x1="951.83" y1="311.6" x2="951.82" y2="312.36"/>
  </g>
  <g id="LINE-94" data-name="LINE">
    <line class="cls-1" x1="951.88" y1="312.33" x2="951.9" y2="311.58"/>
  </g>
  <g id="LINE-95" data-name="LINE">
    <line class="cls-1" x1="955.93" y1="310.12" x2="955.91" y2="310.88"/>
  </g>
  <g id="LINE-96" data-name="LINE">
    <line class="cls-1" x1="958.23" y1="309.75" x2="958.05" y2="310.53"/>
  </g>
  <g id="LINE-97" data-name="LINE">
    <line class="cls-1" x1="962.96" y1="306.99" x2="963.16" y2="307.55"/>
  </g>
  <g id="LINE-98" data-name="LINE">
    <line class="cls-1" x1="964.35" y1="305.21" x2="964.45" y2="305.9"/>
  </g>
  <g id="LINE-99" data-name="LINE">
    <line class="cls-1" x1="967.54" y1="302.46" x2="967.65" y2="303.14"/>
  </g>
  <g id="LINE-100" data-name="LINE">
    <line class="cls-1" x1="967.7" y1="303.1" x2="967.6" y2="302.41"/>
  </g>
  <g id="LINE-101" data-name="LINE">
    <line class="cls-1" x1="948.82" y1="316.39" x2="955.91" y2="310.88"/>
  </g>
  <g id="LINE-102" data-name="LINE">
    <line class="cls-1" x1="963.41" y1="295.92" x2="962.94" y2="295.58"/>
  </g>
  <g id="LINE-103" data-name="LINE">
    <line class="cls-1" x1="962.78" y1="295.6" x2="963.23" y2="295.95"/>
  </g>
  <g id="LINE-104" data-name="LINE">
    <line class="cls-1" x1="960.4" y1="296.32" x2="959.95" y2="295.98"/>
  </g>
  <g id="LINE-105" data-name="LINE">
    <line class="cls-1" x1="957.44" y1="296.08" x2="957.19" y2="295.75"/>
  </g>
  <g id="LINE-106" data-name="LINE">
    <line class="cls-1" x1="950.49" y1="300.13" x2="949.68" y2="300.13"/>
  </g>
  <g id="LINE-107" data-name="LINE">
    <line class="cls-1" x1="949.38" y1="302.75" x2="948.65" y2="302.57"/>
  </g>
  <g id="LINE-108" data-name="LINE">
    <line class="cls-1" x1="946.92" y1="304.93" x2="947.64" y2="305.12"/>
  </g>
  <g id="LINE-109" data-name="LINE">
    <line class="cls-1" x1="948.65" y1="302.57" x2="942.16" y2="307.61"/>
  </g>
  <g id="LINE-110" data-name="LINE">
    <line class="cls-1" x1="963.41" y1="295.92" x2="967.6" y2="302.41"/>
  </g>
  <g id="LINE-111" data-name="LINE">
    <line class="cls-1" x1="947.64" y1="305.12" x2="951.83" y2="311.6"/>
  </g>
  <g>
    <g id="SPLINE-89" data-name="SPLINE">
      <path class="cls-2" d="M578.38,47.62c-.09-.03-.2-.06-.31-.09s-.23-.06-.35-.08c-.21-.05-.44-.09-.67-.12s-.44-.06-.64-.07-.38-.02-.53-.01-.26.02-.33.05c-.05.02-.08.04-.09.07"/>
    </g>
    <g id="SPLINE-90" data-name="SPLINE">
      <path class="cls-2" d="M578.93,47.94s0-.01,0-.02c0-.04-.06-.09-.16-.14s-.23-.1-.39-.16"/>
    </g>
  </g>
</svg>