<?xml version="1.0" encoding="UTF-8"?>
<svg id="GRAPHIC" xmlns="http://www.w3.org/2000/svg" viewBox="0 0 1584 720">
  <defs>
    <style>
      .cls-1 {
        stroke-width: .58px;
      }

      .cls-1, .cls-2 {
        fill: none;
        stroke: #000;
        stroke-linecap: round;
        stroke-linejoin: round;
      }

      .cls-2 {
        stroke-width: .72px;
      }
    </style>
  </defs>
  <g id="LINE">
    <line class="cls-1" x1="791.02" y1="18.53" x2="793.18" y2="32.77"/>
  </g>
  <g id="LINE-2" data-name="LINE">
    <line class="cls-1" x1="1109.26" y1="192.98" x2="1131.85" y2="188.23"/>
  </g>
  <g id="ELLIPSE">
    <path class="cls-1" d="M284.69,194.31c-31.7,75.45,6.98,154.98,102.07,209.88"/>
  </g>
  <g id="LINE-3" data-name="LINE">
    <line class="cls-1" x1="394.09" y1="374.57" x2="386.76" y2="404.19"/>
  </g>
  <g id="ELLIPSE-2" data-name="ELLIPSE">
    <path class="cls-1" d="M270.25,264.78c0,59.59,41,116.74,113.98,158.87"/>
  </g>
  <g id="ARC">
    <path class="cls-1" d="M386.76,404.19c-1.82,6.32-2.67,12.89-2.53,19.46"/>
  </g>
  <g id="ELLIPSE-3" data-name="ELLIPSE">
    <path class="cls-1" d="M270.25,326.01c0,59.59,41,116.74,113.98,158.87"/>
  </g>
  <g id="LINE-4" data-name="LINE">
    <line class="cls-1" x1="384.23" y1="423.65" x2="384.23" y2="484.88"/>
  </g>
  <g id="ELLIPSE-4" data-name="ELLIPSE">
    <path class="cls-1" d="M284.69,396.48c16.69,39.73,52,76.03,102.07,104.94"/>
  </g>
  <g id="SPLINE">
    <path class="cls-1" d="M384.23,484.88c0,2.79,0,5.72.48,8.87s1.28,5.46,2.05,7.67"/>
  </g>
  <g id="LINE-5" data-name="LINE">
    <line class="cls-1" x1="386.76" y1="501.42" x2="394.09" y2="522.58"/>
  </g>
  <g id="LINE-6" data-name="LINE">
    <line class="cls-1" x1="792.92" y1="195.15" x2="773.71" y2="206.24"/>
  </g>
  <g id="SPLINE-2" data-name="SPLINE">
    <path class="cls-1" d="M773.71,206.24c-.81-.82-1.61-1.64-2.42-2.46"/>
  </g>
  <g id="ELLIPSE-5" data-name="ELLIPSE">
    <path class="cls-1" d="M771.29,203.77c-1.55,2.19-4.14,3.44-6.45,3.11"/>
  </g>
  <g id="ELLIPSE-6" data-name="ELLIPSE">
    <path class="cls-1" d="M764.83,206.88c1.82,1.86,3.63,3.72,5.44,5.59"/>
  </g>
  <g id="ELLIPSE-7" data-name="ELLIPSE">
    <path class="cls-1" d="M768.5,195.62c-1.79,1.03-4.47,1.35-6.82.81"/>
  </g>
  <g id="SPLINE-3" data-name="SPLINE">
    <path class="cls-1" d="M761.68,196.44c0,4.51,1.14,8.18,3.15,10.45"/>
  </g>
  <g id="ELLIPSE-8" data-name="ELLIPSE">
    <path class="cls-1" d="M771.29,203.77c-1.8-1.83-2.79-4.72-2.78-8.15"/>
  </g>
  <g id="ELLIPSE-9" data-name="ELLIPSE">
    <path class="cls-1" d="M768.5,95.55c-1.79,1.03-4.47,1.35-6.82.81"/>
  </g>
  <g id="LINE-7" data-name="LINE">
    <line class="cls-1" x1="761.68" y1="96.37" x2="761.68" y2="196.44"/>
  </g>
  <g id="LINE-8" data-name="LINE">
    <line class="cls-1" x1="768.5" y1="195.62" x2="768.5" y2="95.55"/>
  </g>
  <g id="ELLIPSE-10" data-name="ELLIPSE">
    <path class="cls-1" d="M771.29,84.19c-1.55-.4-4.14-1.46-6.45-2.63"/>
  </g>
  <g id="SPLINE-4" data-name="SPLINE">
    <path class="cls-1" d="M764.83,81.55c-2.01,5.04-3.15,10.31-3.15,14.82"/>
  </g>
  <g id="ELLIPSE-11" data-name="ELLIPSE">
    <path class="cls-1" d="M768.5,95.55c0-3.43.99-7.47,2.78-11.37"/>
  </g>
  <g id="ELLIPSE-12" data-name="ELLIPSE">
    <path class="cls-1" d="M770.28,69.59c-1.81,3.99-3.63,7.97-5.44,11.96"/>
  </g>
  <g id="SPLINE-5" data-name="SPLINE">
    <path class="cls-1" d="M771.29,84.19c.81-1.75,1.61-3.51,2.42-5.26"/>
  </g>
  <g id="LINE-9" data-name="LINE">
    <line class="cls-1" x1="773.71" y1="78.93" x2="792.92" y2="67.83"/>
  </g>
  <g id="LINE-10" data-name="LINE">
    <line class="cls-1" x1="780.51" y1="54.3" x2="763.44" y2="64.15"/>
  </g>
  <g id="ELLIPSE-13" data-name="ELLIPSE">
    <path class="cls-1" d="M764.83,206.88c-133.68-31.08-286.45.97-354.38,74.35"/>
  </g>
  <g id="ELLIPSE-14" data-name="ELLIPSE">
    <path class="cls-1" d="M761.68,196.44c-142.52-32.61-303.86,7.65-360.35,89.94-1.46,2.12-2.83,4.26-4.13,6.41"/>
  </g>
  <g id="ELLIPSE-15" data-name="ELLIPSE">
    <path class="cls-1" d="M761.68,96.37c-142.52-32.61-303.86,7.65-360.35,89.94-12.9,18.8-19.53,38.83-19.53,59.05"/>
  </g>
  <g id="ELLIPSE-16" data-name="ELLIPSE">
    <path class="cls-1" d="M764.83,81.55c-144.62-33.62-309.05,6.81-367.28,90.31-30.08,43.13-26.82,91.63,8.97,133.29"/>
  </g>
  <g id="LINE-11" data-name="LINE">
    <line class="cls-1" x1="1071.04" y1="221.43" x2="1081.19" y2="208.87"/>
  </g>
  <g id="ELLIPSE-17" data-name="ELLIPSE">
    <path class="cls-1" d="M1058.46,233.4c-.02.07.81.35,2.26.76"/>
  </g>
  <g id="ELLIPSE-18" data-name="ELLIPSE">
    <path class="cls-1" d="M1060.72,234.15c1.11-4.29,2.21-8.57,3.32-12.86"/>
  </g>
  <g id="ELLIPSE-19" data-name="ELLIPSE">
    <path class="cls-1" d="M1056.6,246.78c0,.91.59,1.79,1.65,2.46"/>
  </g>
  <g id="SPLINE-6" data-name="SPLINE">
    <path class="cls-1" d="M1058.25,249.24c0-4.5.9-9.87,2.46-15.08"/>
  </g>
  <g id="ELLIPSE-20" data-name="ELLIPSE">
    <path class="cls-1" d="M1056.6,346.84s0,0,0,0"/>
  </g>
  <g id="ELLIPSE-21" data-name="ELLIPSE">
    <path class="cls-1" d="M1056.6,346.85c0,.91.59,1.79,1.65,2.46"/>
  </g>
  <g id="LINE-12" data-name="LINE">
    <line class="cls-1" x1="1058.25" y1="349.3" x2="1058.25" y2="249.24"/>
  </g>
  <g id="ELLIPSE-22" data-name="ELLIPSE">
    <path class="cls-1" d="M1059.39,358.17c.36.51.8.96,1.32,1.32"/>
  </g>
  <g id="SPLINE-7" data-name="SPLINE">
    <path class="cls-1" d="M1060.72,359.48c-1.56-2.09-2.46-5.67-2.46-10.18"/>
  </g>
  <g id="ELLIPSE-23" data-name="ELLIPSE">
    <path class="cls-1" d="M1064.04,364.26c-1.1-1.59-2.21-3.19-3.32-4.77"/>
  </g>
  <g id="LINE-13" data-name="LINE">
    <line class="cls-1" x1="631.1" y1="461.2" x2="631.1" y2="491.67"/>
  </g>
  <g id="ELLIPSE-24" data-name="ELLIPSE">
    <path class="cls-1" d="M1101.88,392.97c-11.22-12.12-25.05-23.37-41.16-33.49"/>
  </g>
  <g id="ELLIPSE-25" data-name="ELLIPSE">
    <path class="cls-1" d="M580.29,515.93c150.58,86.93,394.71,86.93,545.28,0,95.09-54.9,133.76-134.43,102.07-209.88"/>
  </g>
  <g id="ARC-2" data-name="ARC">
    <path class="cls-1" d="M580.29,515.93c-1.82,6.32-2.67,12.89-2.53,19.46"/>
  </g>
  <g id="ELLIPSE-26" data-name="ELLIPSE">
    <path class="cls-1" d="M577.76,535.39c151.97,87.74,398.37,87.74,550.34,0,72.98-42.14,113.98-99.28,113.98-158.87"/>
  </g>
  <g id="LINE-14" data-name="LINE">
    <line class="cls-1" x1="587.62" y1="486.3" x2="580.29" y2="515.93"/>
  </g>
  <g id="LINE-15" data-name="LINE">
    <line class="cls-1" x1="1102.56" y1="223.16" x2="1102.56" y2="191.87"/>
  </g>
  <g id="LINE-16" data-name="LINE">
    <line class="cls-1" x1="437.56" y1="349.47" x2="437.56" y2="381.55"/>
  </g>
  <g id="ELLIPSE-27" data-name="ELLIPSE">
    <path class="cls-1" d="M580.29,613.15c150.58,86.93,394.71,86.93,545.28,0,50.07-28.91,85.38-65.21,102.07-104.94"/>
  </g>
  <g id="LINE-17" data-name="LINE">
    <line class="cls-1" x1="580.29" y1="613.15" x2="587.62" y2="634.31"/>
  </g>
  <g id="ELLIPSE-28" data-name="ELLIPSE">
    <path class="cls-1" d="M577.76,596.61c151.97,87.74,398.37,87.74,550.34,0,72.98-42.14,113.98-99.28,113.98-158.87"/>
  </g>
  <g id="SPLINE-8" data-name="SPLINE">
    <path class="cls-1" d="M577.76,596.61c0,2.79,0,5.72.48,8.87.48,3.15,1.28,5.46,2.05,7.67"/>
  </g>
  <g id="LINE-18" data-name="LINE">
    <line class="cls-1" x1="577.76" y1="535.39" x2="577.76" y2="596.61"/>
  </g>
  <g id="ELLIPSE-29" data-name="ELLIPSE">
    <path class="cls-1" d="M1105.81,416.88c51.91-60.43,33.98-133.08-45.1-182.73"/>
  </g>
  <g id="ELLIPSE-30" data-name="ELLIPSE">
    <path class="cls-1" d="M1130.53,357.1c0-39.89-25.77-78.35-72.27-107.86"/>
  </g>
  <g id="ELLIPSE-31" data-name="ELLIPSE">
    <path class="cls-1" d="M1115.12,404.52c-12.31-20.43-31.65-39.22-56.87-55.22"/>
  </g>
  <g id="LINE-19" data-name="LINE">
    <line class="cls-1" x1="386.76" y1="501.42" x2="580.29" y2="613.15"/>
  </g>
  <g id="LINE-20" data-name="LINE">
    <line class="cls-1" x1="384.23" y1="484.88" x2="577.76" y2="596.61"/>
  </g>
  <g id="LINE-21" data-name="LINE">
    <line class="cls-1" x1="384.23" y1="423.65" x2="577.76" y2="535.39"/>
  </g>
  <g id="LINE-22" data-name="LINE">
    <line class="cls-1" x1="386.76" y1="404.19" x2="580.29" y2="515.93"/>
  </g>
  <g id="SPLINE-9" data-name="SPLINE">
    <path class="cls-2" d="M793.18,32.77c1.68.4,3.48,1.1,5.15,2.06s3.21,2.2,4.43,3.51c1.07,1.15,2.02,2.52,2.67,3.93.65,1.41.98,2.86.98,4.16"/>
  </g>
  <g id="SPLINE-10" data-name="SPLINE">
    <path class="cls-2" d="M804.02,30.01c-.17-1.11-.47-2.19-.91-3.2-.33-.77-.74-1.49-1.22-2.16s-.98-1.21-1.56-1.71"/>
  </g>
  <g id="ARC-3" data-name="ARC">
    <path class="cls-2" d="M800.33,22.94c-2.7-2.19-5.89-3.71-9.3-4.41"/>
  </g>
  <g id="SPLINE-11" data-name="SPLINE">
    <path class="cls-2" d="M806.41,173.75c0,1.29-.33,2.57-.98,3.64s-1.6,1.94-2.67,2.54c-1.22.69-2.76,1.14-4.43,1.28-1.67.14-3.47-.03-5.15-.43"/>
  </g>
  <g id="ELLIPSE-32" data-name="ELLIPSE">
    <path class="cls-2" d="M791.02,18.53c-194.05-41.97-410.29,14.83-482.99,126.87-51.6,79.52-17.96,169.12,86.05,229.17"/>
  </g>
  <g id="LINE-23" data-name="LINE">
    <line class="cls-2" x1="394.09" y1="374.57" x2="587.62" y2="486.3"/>
  </g>
  <g id="ELLIPSE-33" data-name="ELLIPSE">
    <path class="cls-2" d="M587.62,486.3c146.53,84.6,384.09,84.6,530.62,0,141.09-81.46,147.08-212.43,13.61-298.07"/>
  </g>
  <g id="ELLIPSE-34" data-name="ELLIPSE">
    <path class="cls-2" d="M603.31,477.24c137.86,79.6,361.38,79.6,499.25,0,135.22-78.07,138.19-204.1,6.7-284.27"/>
  </g>
  <g id="LINE-24" data-name="LINE">
    <line class="cls-2" x1="409.78" y1="365.51" x2="603.31" y2="477.24"/>
  </g>
  <g id="ELLIPSE-35" data-name="ELLIPSE">
    <path class="cls-2" d="M793.18,32.77c-180.43-42.66-386.59,7.21-460.47,111.38-53.91,76.01-23.53,163.28,77.07,221.36"/>
  </g>
  <g id="ELLIPSE-36" data-name="ELLIPSE">
    <path class="cls-2" d="M294.77,420.46c16.24,38.66,50.6,73.99,99.32,102.12"/>
  </g>
  <g id="ELLIPSE-37" data-name="ELLIPSE">
    <path class="cls-2" d="M793.18,180.79c-.09-.02-.18-.04-.26-.06"/>
  </g>
  <g id="ELLIPSE-38" data-name="ELLIPSE">
    <path class="cls-2" d="M587.62,634.31c146.53,84.6,384.09,84.6,530.62,0,48.72-28.13,83.08-63.46,99.32-102.12"/>
  </g>
  <g id="LINE-25" data-name="LINE">
    <line class="cls-2" x1="394.09" y1="522.58" x2="587.62" y2="634.31"/>
  </g>
  <g id="SPLINE-12" data-name="SPLINE">
    <path class="cls-2" d="M789.33,201.51s.08-.05.12-.07c1.04-.62,1.95-1.52,2.56-2.61.61-1.09.91-2.38.91-3.68"/>
  </g>
  <g id="SPLINE-13" data-name="SPLINE">
    <path class="cls-1" d="M773.71,206.24s0,.03,0,.04c-.09.78-.25,1.52-.47,2.21s-.49,1.3-.8,1.84-.72.97-1.09,1.33-.75.62-1.12.76"/>
  </g>
  <g id="SPLINE-14" data-name="SPLINE">
    <path class="cls-2" d="M770.28,212.47c-.34.13-.77.23-1.26.27-.54.05-1.17.05-1.88,0s-1.49-.16-2.32-.3c-.45-.08-.91-.17-1.38-.28"/>
  </g>
  <g id="SPLINE-15" data-name="SPLINE">
    <path class="cls-2" d="M773.71,78.93s0-.02,0-.03c-.09-.68-.25-1.4-.47-2.14-.22-.74-.49-1.5-.8-2.28s-.67-1.62-1.04-2.45-.75-1.62-1.12-2.43"/>
  </g>
  <g id="SPLINE-16" data-name="SPLINE">
    <path class="cls-2" d="M792.92,67.83c0-1.29-.3-2.75-.91-4.17s-1.52-2.81-2.56-3.98c-1.13-1.27-2.55-2.46-4.11-3.39-1.56-.93-3.25-1.61-4.83-1.99"/>
  </g>
  <g id="SPLINE-17" data-name="SPLINE">
    <path class="cls-2" d="M763.44,64.15c.47.11.93.24,1.38.4.82.3,1.61.71,2.32,1.21s1.34,1.1,1.88,1.77c.49.62.92,1.31,1.26,2.06"/>
  </g>
  <g id="ELLIPSE-39" data-name="ELLIPSE">
    <path class="cls-2" d="M763.44,212.17c-134.01-29.56-285.35,1.56-356.82,73.38"/>
  </g>
  <g id="ELLIPSE-40" data-name="ELLIPSE">
    <path class="cls-2" d="M1105.71,397.28c-9.89-9.93-21.5-19.26-34.67-27.83"/>
  </g>
  <g id="ELLIPSE-41" data-name="ELLIPSE">
    <path class="cls-2" d="M763.44,64.15c-150.41-33.17-318.92,10.33-376.38,97.17-41.03,62.01-15.11,132.15,66.19,179.09"/>
  </g>
  <g id="ELLIPSE-42" data-name="ELLIPSE">
    <path class="cls-2" d="M780.51,54.3c-159.83-38.62-343.63,4.89-410.51,97.17-49.14,67.8-22.45,146.03,67.57,198"/>
  </g>
  <g id="LINE-26" data-name="LINE">
    <line class="cls-2" x1="437.56" y1="349.47" x2="631.1" y2="461.2"/>
  </g>
  <g id="ELLIPSE-43" data-name="ELLIPSE">
    <path class="cls-2" d="M631.1,461.2c122.52,70.74,321.16,70.74,443.67,0,119.98-69.27,122.82-181.06,6.42-252.33"/>
  </g>
  <g id="ELLIPSE-44" data-name="ELLIPSE">
    <path class="cls-2" d="M646.78,452.14c113.85,65.73,298.45,65.73,412.3,0,109.06-62.97,114.31-164.09,11.96-230.71"/>
  </g>
  <g id="LINE-27" data-name="LINE">
    <line class="cls-2" x1="453.25" y1="340.41" x2="646.78" y2="452.14"/>
  </g>
  <g id="ELLIPSE-45" data-name="ELLIPSE">
    <path class="cls-2" d="M1099.5,197.59c0-2.82,1.1-4.89,3.05-5.72"/>
  </g>
  <g id="SPLINE-18" data-name="SPLINE">
    <path class="cls-2" d="M1102.56,191.87c.85-.36,1.88-.48,2.97-.32,1.22.17,2.52.69,3.73,1.43"/>
  </g>
  <g id="SPLINE-19" data-name="SPLINE">
    <path class="cls-2" d="M1131.85,188.23c-.78-.5-1.56-.92-2.26-1.2-.99-.4-1.84-.54-2.46-.41"/>
  </g>
  <g id="LINE-28" data-name="LINE">
    <line class="cls-2" x1="1099.5" y1="197.59" x2="1099.5" y2="221.13"/>
  </g>
  <g id="ARC-4" data-name="ARC">
    <path class="cls-2" d="M1071.04,369.45c-2.43-1.59-4.77-3.33-7-5.19"/>
  </g>
  <g id="ARC-5" data-name="ARC">
    <path class="cls-2" d="M1064.04,364.26c-.69-.58-1.3-1.26-1.81-2"/>
  </g>
  <g id="SPLINE-20" data-name="SPLINE">
    <path class="cls-2" d="M1081.19,208.87c-1.17-.72-2.44-1.22-3.62-1.38-1.03-.14-1.99-.02-2.8.32"/>
  </g>
  <g id="ELLIPSE-46" data-name="ELLIPSE">
    <path class="cls-2" d="M1074.77,207.81c-.66.28-1.24.72-1.7,1.3"/>
  </g>
  <g id="SPLINE-21" data-name="SPLINE">
    <path class="cls-2" d="M1060.47,225.54c.13-.5.32-.98.58-1.43.31-.55.73-1.07,1.24-1.54.5-.47,1.09-.89,1.76-1.28"/>
  </g>
  <g id="SPLINE-22" data-name="SPLINE">
    <path class="cls-2" d="M1064.04,221.29c.58-.33,1.17-.59,1.77-.75.69-.19,1.39-.26,2.09-.21s1.39.22,2.04.5c.38.16.75.36,1.11.59"/>
  </g>
  <g id="ELLIPSE-47" data-name="ELLIPSE">
    <path class="cls-2" d="M1101.15,478.05c42.47-31.72,65.51-70.68,65.51-110.77"/>
  </g>
  <g id="LINE-29" data-name="LINE">
    <line class="cls-2" x1="806.41" y1="70.24" x2="806.41" y2="46.43"/>
  </g>
  <g id="LINE-30" data-name="LINE">
    <line class="cls-2" x1="806.41" y1="149.94" x2="806.41" y2="70.24"/>
  </g>
  <g id="LINE-31" data-name="LINE">
    <line class="cls-2" x1="806.41" y1="173.75" x2="806.41" y2="149.94"/>
  </g>
  <g id="LINE-32" data-name="LINE">
    <line class="cls-2" x1="792.92" y1="171.34" x2="792.92" y2="195.15"/>
  </g>
  <g id="LINE-33" data-name="LINE">
    <line class="cls-2" x1="792.92" y1="91.64" x2="792.92" y2="171.34"/>
  </g>
  <g id="LINE-34" data-name="LINE">
    <line class="cls-2" x1="792.92" y1="67.83" x2="792.92" y2="91.64"/>
  </g>
  <g id="LINE-35" data-name="LINE">
    <line class="cls-2" x1="792.92" y1="91.64" x2="806.41" y2="70.24"/>
  </g>
  <g id="LINE-36" data-name="LINE">
    <line class="cls-2" x1="806.41" y1="149.94" x2="792.92" y2="171.34"/>
  </g>
  <g id="LINE-37" data-name="LINE">
    <line class="cls-2" x1="1102.56" y1="223.16" x2="1101.12" y2="222.33"/>
  </g>
  <g id="ELLIPSE-48" data-name="ELLIPSE">
    <path class="cls-2" d="M345.68,255.55c0,40.1,23.05,79.07,65.53,110.79"/>
  </g>
  <g id="ELLIPSE-49" data-name="ELLIPSE">
    <path class="cls-2" d="M806.41,70.24c-4.47-1.18-8.99-2.31-13.54-3.39"/>
  </g>
  <g id="ELLIPSE-50" data-name="ELLIPSE">
    <path class="cls-2" d="M411.18,110.62c-59.79,34.14-96.52,79.47-103.56,127.85"/>
  </g>
  <g id="ELLIPSE-51" data-name="ELLIPSE">
    <path class="cls-2" d="M1204.71,350.2c-6.99-47.99-43.18-92.99-102.16-127.04"/>
  </g>
  <g id="LINE-38" data-name="LINE">
    <line class="cls-2" x1="806.31" y1="45.14" x2="804.02" y2="30.01"/>
  </g>
  <g id="LINE-39" data-name="LINE">
    <line class="cls-2" x1="294.77" y1="170.33" x2="284.69" y2="194.31"/>
  </g>
  <g id="ARC-6" data-name="ARC">
    <path class="cls-2" d="M284.71,194.32c-9.73,22.21-14.66,46.22-14.46,70.46"/>
  </g>
  <g id="LINE-40" data-name="LINE">
    <line class="cls-2" x1="270.25" y1="326.01" x2="270.25" y2="264.78"/>
  </g>
  <g id="ARC-7" data-name="ARC">
    <path class="cls-2" d="M270.25,326.01c-.17,24.24,4.75,48.25,14.45,70.47"/>
  </g>
  <g id="LINE-41" data-name="LINE">
    <line class="cls-2" x1="294.77" y1="420.46" x2="284.69" y2="396.48"/>
  </g>
  <g id="LINE-42" data-name="LINE">
    <polyline class="cls-2" points="789.33 201.51 770.63 212.3 770.32 212.45"/>
  </g>
  <g id="ARC-8" data-name="ARC">
    <path class="cls-2" d="M410.45,281.23c-4.15,4.44-7.99,9.18-11.48,14.16"/>
  </g>
  <g id="SPLINE-23" data-name="SPLINE">
    <path class="cls-2" d="M381.81,245.36c0,4.19.35,8.38,1.07,12.6s1.8,8.45,3.28,12.73,3.33,8.58,5.61,12.9c2.27,4.33,4.96,8.67,8.07,13.01,2.07,2.89,4.34,5.78,6.79,8.65"/>
  </g>
  <g id="LINE-43" data-name="LINE">
    <line class="cls-2" x1="1127.13" y1="186.62" x2="1103.44" y2="191.6"/>
  </g>
  <g id="LINE-44" data-name="LINE">
    <line class="cls-2" x1="1073.06" y1="209.1" x2="1061.6" y2="223.3"/>
  </g>
  <g id="SPLINE-24" data-name="SPLINE">
    <path class="cls-2" d="M1058.46,233.4c.67-2.62,1.34-5.24,2-7.86"/>
  </g>
  <g id="ARC-9" data-name="ARC">
    <path class="cls-2" d="M1058.46,233.4c-1.14,4.37-1.77,8.86-1.85,13.38"/>
  </g>
  <g id="LINE-45" data-name="LINE">
    <line class="cls-2" x1="1056.6" y1="246.77" x2="1056.6" y2="346.84"/>
  </g>
  <g id="SPLINE-25" data-name="SPLINE">
    <path class="cls-2" d="M1059.4,358.16c-.89-1.29-1.49-2.7-1.91-4.19-.54-1.91-.81-4.01-.87-6.29,0-.25,0-.5,0-.75"/>
  </g>
  <g id="SPLINE-26" data-name="SPLINE">
    <path class="cls-2" d="M1062.22,362.26c-.94-1.37-1.89-2.73-2.83-4.09"/>
  </g>
  <g id="LINE-46" data-name="LINE">
    <line class="cls-2" x1="1166.66" y1="367.28" x2="1166.66" y2="333.12"/>
  </g>
  <g id="ARC-10" data-name="ARC">
    <path class="cls-2" d="M1227.63,306.05c9.7,22.22,14.63,46.22,14.45,70.47"/>
  </g>
  <g id="LINE-47" data-name="LINE">
    <line class="cls-2" x1="1217.57" y1="282.06" x2="1227.64" y2="306.05"/>
  </g>
  <g id="LINE-48" data-name="LINE">
    <line class="cls-2" x1="345.68" y1="255.55" x2="345.68" y2="221.39"/>
  </g>
  <g id="LINE-49" data-name="LINE">
    <line class="cls-2" x1="1217.57" y1="532.2" x2="1227.64" y2="508.21"/>
  </g>
  <g id="ARC-11" data-name="ARC">
    <path class="cls-2" d="M1242.08,437.74c.2,24.24-4.72,48.26-14.46,70.46"/>
  </g>
  <g id="LINE-50" data-name="LINE">
    <line class="cls-2" x1="1242.08" y1="437.74" x2="1242.08" y2="376.52"/>
  </g>
  <g id="SPLINE-27" data-name="SPLINE">
    <path class="cls-2" d="M1105.71,416.99c2.45-2.87,4.72-5.76,6.79-8.65,3.11-4.34,5.8-8.69,8.07-13.01,2.27-4.33,4.13-8.63,5.61-12.9,1.47-4.27,2.56-8.51,3.28-12.73.72-4.22,1.07-8.41,1.07-12.6"/>
  </g>
  <g id="ARC-12" data-name="ARC">
    <path class="cls-2" d="M1113.35,407.13c-3.49-4.98-7.32-9.72-11.48-14.16"/>
  </g>
</svg>