<?xml version="1.0" encoding="UTF-8"?>
<svg id="GRAPHIC" xmlns="http://www.w3.org/2000/svg" viewBox="0 0 1584 720">
  <defs>
    <style>
      .cls-1 {
        stroke-width: .4px;
      }

      .cls-1, .cls-2 {
        fill: none;
        stroke: #000;
        stroke-linecap: round;
        stroke-linejoin: round;
      }

      .cls-2 {
        stroke-width: .8px;
      }
    </style>
  </defs>
  <g id="ARC">
    <path class="cls-1" d="M529.31,467.47c-.85,21.15-1.08,42.33-.68,63.49"/>
  </g>
  <g id="ARC-2" data-name="ARC">
    <path class="cls-1" d="M547.98,468.76c-.58,21.08-.72,42.17-.42,63.25"/>
  </g>
  <g id="ARC-3" data-name="ARC">
    <path class="cls-1" d="M529.28,238.58c-.02-5.54-.3-11.07-.83-16.58"/>
  </g>
  <g id="ARC-4" data-name="ARC">
    <path class="cls-1" d="M547.97,237.33c-.01-5.47-.2-10.95-.55-16.41"/>
  </g>
  <g id="ARC-5" data-name="ARC">
    <path class="cls-1" d="M1040.32,220.92c-.36,5.46-.54,10.94-.55,16.41"/>
  </g>
  <g id="ELLIPSE">
    <path class="cls-1" d="M668.48,637.74c4.7,2.26,9.84,3.43,15.05,3.43"/>
  </g>
  <g id="ELLIPSE-2" data-name="ELLIPSE">
    <path class="cls-1" d="M904.21,641.17c5.21,0,10.35-1.17,15.05-3.43"/>
  </g>
  <g id="ARC-6" data-name="ARC">
    <path class="cls-1" d="M919.26,637.73c-83.59-1.48-167.19-1.47-250.78,0"/>
  </g>
  <g id="ELLIPSE-3" data-name="ELLIPSE">
    <path class="cls-1" d="M588.84,582.67c23.1,22.61,50.04,41.24,79.64,55.07"/>
  </g>
  <g id="ELLIPSE-4" data-name="ELLIPSE">
    <path class="cls-1" d="M998.9,582.67c-23.1,22.61-50.04,41.24-79.64,55.07"/>
  </g>
  <g id="ARC-7" data-name="ARC">
    <path class="cls-1" d="M1040.17,532.01c.3-21.09.16-42.17-.42-63.25"/>
  </g>
  <g id="LINE">
    <line class="cls-1" x1="667.61" y1="637.74" x2="668.48" y2="637.74"/>
  </g>
  <g id="LINE-2" data-name="LINE">
    <line class="cls-1" x1="919.26" y1="637.74" x2="920.13" y2="637.74"/>
  </g>
  <g id="ARC-8" data-name="ARC">
    <path class="cls-1" d="M1059.11,530.96c.4-21.17.18-42.34-.68-63.49"/>
  </g>
  <g id="ARC-9" data-name="ARC">
    <path class="cls-1" d="M1059.28,222c-.53,5.51-.8,11.04-.83,16.58"/>
  </g>
  <g id="ELLIPSE-5" data-name="ELLIPSE">
    <ellipse class="cls-1" cx="1251.09" cy="333.65" rx="166.13" ry="160.47"/>
  </g>
  <g id="ELLIPSE-6" data-name="ELLIPSE">
    <ellipse class="cls-1" cx="336.65" cy="333.65" rx="166.13" ry="160.47"/>
  </g>
  <g id="ARC-10" data-name="ARC">
    <path class="cls-1" d="M1058.14,247.15c-1.72,68.65-1.7,137.34.07,205.99"/>
  </g>
  <g id="ARC-11" data-name="ARC">
    <path class="cls-1" d="M1039.56,246.04c-1.09,69.37-1.07,138.76.05,208.13"/>
  </g>
  <g id="ARC-12" data-name="ARC">
    <path class="cls-1" d="M529.53,453.14c1.77-68.65,1.79-137.34.07-205.99"/>
  </g>
  <g id="ARC-13" data-name="ARC">
    <path class="cls-1" d="M548.14,454.17c1.12-69.37,1.13-138.76.04-208.13"/>
  </g>
  <g id="ELLIPSE-7" data-name="ELLIPSE">
    <ellipse class="cls-1" cx="793.87" cy="336.23" rx="231.45" ry="223.56"/>
  </g>
  <g id="SPLINE">
    <path class="cls-2" d="M546.15,240.26c-.38.51-.79.99-1.21,1.43-.82.85-1.7,1.56-2.59,2.09-.66.39-1.33.68-1.97.87-.49.15-.97.23-1.45.27-.29.02-.58.03-.87.01-.46-.02-.94-.1-1.43-.23-.61-.16-1.25-.41-1.89-.75-.84-.45-1.73-1.07-2.59-1.88-.29-.27-.58-.56-.86-.87"/>
  </g>
  <g id="ARC-14" data-name="ARC">
    <path class="cls-2" d="M531.94,249.77c4.26,2.43,9.52,2.28,13.63-.39"/>
  </g>
  <g id="ELLIPSE-8" data-name="ELLIPSE">
    <path class="cls-2" d="M529.28,238.58c-65.43-102.76-204.72-134.83-311.11-71.62-106.39,63.2-139.59,197.75-74.15,300.51,65.43,102.76,204.72,134.83,311.11,71.62,30.19-17.93,55.59-42.47,74.15-71.62"/>
  </g>
  <g id="ELLIPSE-9" data-name="ELLIPSE">
    <path class="cls-2" d="M523.89,463.24c-34.85,54.73-93.48,91.27-159.46,99.39-120.43,14.81-230.49-67.48-245.82-183.8"/>
  </g>
  <g id="ARC-15" data-name="ARC">
    <path class="cls-2" d="M529.28,238.58c.59.93,1.27,1.81,2.01,2.63"/>
  </g>
  <g id="SPLINE-2" data-name="SPLINE">
    <path class="cls-2" d="M531.3,464.76c.39-.46.8-.89,1.22-1.29.83-.79,1.71-1.44,2.57-1.91.76-.41,1.5-.68,2.21-.82.49-.09.96-.13,1.44-.1s.96.11,1.46.26c.82.25,1.67.68,2.51,1.28,1.16.83,2.36,2.04,3.45,3.57"/>
  </g>
  <g id="SPLINE-3" data-name="SPLINE">
    <path class="cls-2" d="M552.01,462.08c-1.1-2.26-2.56-4.28-4.4-5.92-1.33-1.19-2.93-2.22-4.81-2.89-1.15-.41-2.36-.67-3.61-.74s-2.49.04-3.66.31c-1.71.4-3.27,1.12-4.61,2.02-1.54,1.02-2.81,2.26-3.87,3.58-.54.67-1.02,1.36-1.45,2.06"/>
  </g>
  <g id="SPLINE-4" data-name="SPLINE">
    <path class="cls-2" d="M525.6,460.5c-.56.92-1.13,1.83-1.71,2.74"/>
  </g>
  <g id="SPLINE-5" data-name="SPLINE">
    <path class="cls-2" d="M529.28,467.47c.59-.93,1.27-1.83,2.01-2.71"/>
  </g>
  <g id="ELLIPSE-10" data-name="ELLIPSE">
    <path class="cls-2" d="M547.97,468.76c66.16,131.18,229.89,185.71,365.7,121.81,54.94-25.85,99.34-68.74,126.1-121.81"/>
  </g>
  <g id="ELLIPSE-11" data-name="ELLIPSE">
    <path class="cls-2" d="M1034.23,465.11c-26.16,51.87-69.56,93.79-123.26,119.06-132.75,62.47-292.78,9.16-357.45-119.06"/>
  </g>
  <g id="ARC-16" data-name="ARC">
    <path class="cls-2" d="M552.01,462.08c.49,1.01.99,2.02,1.5,3.03"/>
  </g>
  <g id="ARC-17" data-name="ARC">
    <path class="cls-2" d="M547.97,468.76c-.53-1.05-1.14-2.05-1.82-3.01"/>
  </g>
  <g id="SPLINE-6" data-name="SPLINE">
    <path class="cls-2" d="M1041.59,465.75c.38-.54.79-1.05,1.21-1.53.82-.92,1.7-1.7,2.59-2.29.66-.44,1.33-.76,1.97-.98.49-.17.97-.27,1.45-.31.29-.03.58-.03.87-.01.46.03.94.12,1.43.26.61.19,1.25.47,1.89.85.84.5,1.73,1.19,2.59,2.06.29.29.58.61.86.94"/>
  </g>
  <g id="SPLINE-7" data-name="SPLINE">
    <path class="cls-2" d="M1062.14,460.5c-.32-.51-.65-1.01-1.01-1.49-1.06-1.43-2.3-2.7-3.73-3.74-1.08-.79-2.31-1.48-3.67-1.97-1.09-.39-2.26-.66-3.46-.75-.74-.06-1.5-.05-2.25.02-1.23.12-2.42.42-3.52.86-1.43.56-2.7,1.35-3.81,2.24-1.49,1.21-2.68,2.6-3.64,4.07-.5.76-.94,1.55-1.33,2.34"/>
  </g>
  <g id="ARC-18" data-name="ARC">
    <path class="cls-2" d="M1034.23,465.11c.51-1.01,1.01-2.01,1.5-3.03"/>
  </g>
  <g id="ARC-19" data-name="ARC">
    <path class="cls-2" d="M1041.59,465.75c-.68.96-1.29,1.96-1.82,3.01"/>
  </g>
  <g id="ELLIPSE-12" data-name="ELLIPSE">
    <path class="cls-2" d="M1058.45,467.47c65.43,102.76,204.72,134.83,311.11,71.62,106.39-63.2,139.59-197.75,74.15-300.51-65.43-102.76-204.72-134.83-311.11-71.62-30.19,17.93-55.59,42.47-74.15,71.62"/>
  </g>
  <g id="ELLIPSE-13" data-name="ELLIPSE">
    <path class="cls-2" d="M1469.14,378.83c-8.4,63.74-46.23,120.37-102.89,154.03-103.41,61.43-238.79,30.26-302.39-69.62"/>
  </g>
  <g id="SPLINE-8" data-name="SPLINE">
    <path class="cls-2" d="M1063.85,463.24c-.1-.16-.2-.31-.3-.47-.48-.75-.95-1.51-1.42-2.27"/>
  </g>
  <g id="ARC-20" data-name="ARC">
    <path class="cls-2" d="M1058.45,467.47c-.61-.95-1.28-1.86-2.01-2.71"/>
  </g>
  <g id="SPLINE-9" data-name="SPLINE">
    <path class="cls-2" d="M1056.44,241.21c-.39.43-.8.83-1.22,1.19-.83.72-1.71,1.31-2.57,1.73-.76.36-1.5.6-2.21.72-.49.08-.96.11-1.44.09s-.96-.1-1.46-.23c-.82-.22-1.67-.6-2.51-1.15-1.16-.75-2.36-1.85-3.45-3.3"/>
  </g>
  <g id="ARC-21" data-name="ARC">
    <path class="cls-2" d="M1042.16,249.38c4.11,2.67,9.37,2.82,13.63.39"/>
  </g>
  <g id="SPLINE-10" data-name="SPLINE">
    <path class="cls-2" d="M1058.45,238.58c-.59.93-1.27,1.81-2.01,2.63"/>
  </g>
  <g id="ELLIPSE-14" data-name="ELLIPSE">
    <path class="cls-2" d="M1039.77,237.33c-66.16-131.18-229.89-185.71-365.7-121.81-54.94,25.85-99.34,68.74-126.1,121.81"/>
  </g>
  <g id="ARC-22" data-name="ARC">
    <path class="cls-2" d="M1039.77,237.33c.52,1.03,1.13,2.01,1.82,2.93"/>
  </g>
  <g id="SPLINE-11" data-name="SPLINE">
    <path class="cls-2" d="M547.97,237.33c-.52,1.03-1.13,2-1.82,2.93"/>
  </g>
  <g id="ELLIPSE-15" data-name="ELLIPSE">
    <path class="cls-2" d="M757.95,582.52c23.81,3.46,48.03,3.46,71.84,0"/>
  </g>
  <g id="ELLIPSE-16" data-name="ELLIPSE">
    <path class="cls-2" d="M822.38,580.34c-18.94,2.22-38.08,2.22-57.02,0"/>
  </g>
  <g id="LINE-3" data-name="LINE">
    <line class="cls-2" x1="683.53" y1="641.17" x2="904.21" y2="641.17"/>
  </g>
  <g id="LINE-4" data-name="LINE">
    <line class="cls-2" x1="904.97" y1="641.17" x2="904.21" y2="641.17"/>
  </g>
  <g id="LINE-5" data-name="LINE">
    <line class="cls-2" x1="683.53" y1="641.17" x2="682.76" y2="641.17"/>
  </g>
  <g id="ARC-23" data-name="ARC">
    <path class="cls-2" d="M547.59,532.02c-3.49-5.44-10.73-7.01-16.17-3.52-1.04.67-1.97,1.5-2.76,2.46"/>
  </g>
  <g id="SPLINE-12" data-name="SPLINE">
    <path class="cls-2" d="M528.66,530.96c-16.53,20.36-36.19,37.87-57.86,51.83-22.14,14.26-46.38,24.84-71.54,31.4-25.56,6.67-52.08,9.2-78.36,7.53-26.39-1.68-52.54-7.6-77.24-17.59-24.46-9.9-47.5-23.8-67.87-41.22-19.98-17.08-37.39-37.55-51.14-60.49-13.46-22.46-23.39-47.27-29.09-73.14-5.62-25.49-7.14-51.99-4.43-78,2.7-25.95,9.6-51.41,20.22-75.01,10.72-23.85,25.22-45.79,42.58-64.8,17.69-19.39,38.34-35.74,60.81-48.44,22.94-12.97,47.78-22.14,73.34-27.24,25.92-5.18,52.57-6.17,78.77-2.96,26.24,3.22,52.03,10.66,76.13,22.11,23.82,11.31,46,26.55,65.32,45.15,7.13,6.87,13.87,14.18,20.16,21.91"/>
  </g>
  <g id="ARC-24" data-name="ARC">
    <path class="cls-2" d="M528.46,222c4.09,5.02,11.47,5.77,16.49,1.69.97-.79,1.8-1.72,2.47-2.77"/>
  </g>
  <g id="ARC-25" data-name="ARC">
    <path class="cls-2" d="M1040.34,220.91c-87.63-136.12-269.02-175.43-405.14-87.8-35.2,22.66-65.14,52.6-87.8,87.8"/>
  </g>
  <g id="ARC-26" data-name="ARC">
    <path class="cls-2" d="M547.59,532.02c11.8,18.38,25.63,35.38,41.24,50.66"/>
  </g>
  <g id="ARC-27" data-name="ARC">
    <path class="cls-2" d="M998.9,582.67c15.61-15.28,29.45-32.27,41.24-50.66"/>
  </g>
  <g id="ARC-28" data-name="ARC">
    <path class="cls-2" d="M682.76,641.17c-5.24,0-10.42-1.17-15.15-3.43"/>
  </g>
  <g id="ARC-29" data-name="ARC">
    <path class="cls-2" d="M920.13,637.74c-4.73,2.26-9.91,3.43-15.15,3.43"/>
  </g>
  <g id="ARC-30" data-name="ARC">
    <path class="cls-2" d="M1059.07,530.96c-4.08-5.02-11.45-5.78-16.46-1.7-.96.78-1.79,1.71-2.46,2.76"/>
  </g>
  <g id="ARC-31" data-name="ARC">
    <path class="cls-2" d="M1040.32,220.92c3.49,5.45,10.74,7.04,16.19,3.55,1.05-.67,1.98-1.51,2.77-2.47"/>
  </g>
  <g id="ARC-32" data-name="ARC">
    <path class="cls-2" d="M667.61,637.74c-29.11-13.9-55.73-32.5-78.78-55.07"/>
  </g>
  <g id="ARC-33" data-name="ARC">
    <path class="cls-2" d="M998.9,582.67c-23.05,22.57-49.67,41.17-78.78,55.07"/>
  </g>
  <g id="SPLINE-13" data-name="SPLINE">
    <path class="cls-2" d="M1059.28,222c16.56-20.34,36.24-37.82,57.93-51.75,22.16-14.23,46.41-24.78,71.59-31.31,25.57-6.63,52.09-9.13,78.37-7.42,26.39,1.71,52.53,7.67,77.22,17.7,24.45,9.93,47.47,23.87,67.81,41.31,19.96,17.11,37.34,37.6,51.05,60.56,13.43,22.47,23.32,47.3,28.99,73.17,5.59,25.5,7.07,52,4.32,78.01-2.74,25.95-9.67,51.4-20.32,74.98-10.76,23.83-25.28,45.75-42.67,64.75-17.72,19.36-38.39,35.68-60.88,48.36-22.96,12.94-47.81,22.08-73.38,27.15-25.92,5.14-52.58,6.1-78.78,2.85-26.24-3.25-52.01-10.73-76.11-22.21-23.81-11.35-45.97-26.61-65.25-45.23-7.12-6.87-13.85-14.2-20.13-21.93"/>
  </g>
  <g id="SPLINE-14" data-name="SPLINE">
    <path class="cls-2" d="M1165.59,377.03c-.03-1.74-.3-3.47-.79-5.12-.92-3.16-2.6-6.05-4.87-8.29-2.77-2.73-6.38-4.39-10.11-4.72-3.52-.31-7.11.56-10.23,2.37-3.07,1.78-5.7,4.48-7.49,7.74-1.69,3.08-2.64,6.63-2.55,10.22.07,2.55.66,5.04,1.62,7.32,1.21,2.85,3.05,5.42,5.41,7.27,1.65,1.29,3.52,2.24,5.48,2.83,3.79,1.14,7.94.86,11.59-.72,2.58-1.12,4.94-2.85,6.86-5.06,3.22-3.72,5.15-8.75,5.06-13.83Z"/>
  </g>
  <g id="SPLINE-15" data-name="SPLINE">
    <path class="cls-2" d="M1162.77,387.69s0,0,0,.01c-.45.68-.93,1.33-1.46,1.94-2.87,3.32-6.89,5.44-11.05,5.76-4.15.32-8.44-1.17-11.48-4.15-1.52-1.49-2.73-3.36-3.59-5.4s-1.39-4.26-1.45-6.5c-.12-4.47,1.63-8.98,4.52-12.3s6.92-5.46,11.07-5.8c2.08-.17,4.18.1,6.15.82s3.78,1.87,5.31,3.38c1.65,1.63,2.96,3.66,3.83,5.88"/>
  </g>
  <g id="SPLINE-16" data-name="SPLINE">
    <path class="cls-2" d="M1165.29,324.72c0-1.72-.25-3.41-.71-5.01-.85-2.94-2.41-5.59-4.52-7.62-2.61-2.51-6.09-4.03-9.78-4.22-3.05-.15-6.19.57-9.04,2.01-3.48,1.76-6.57,4.61-8.71,8.1-1.93,3.16-3.11,6.81-3.13,10.42-.04,4.93,2.06,9.52,5.43,12.54s7.94,4.4,12.57,4.01c2.31-.2,4.64-.84,6.81-1.95,3.28-1.68,6.12-4.43,8.07-7.7s3.02-6.94,3.02-10.58Z"/>
  </g>
  <g id="SPLINE-17" data-name="SPLINE">
    <path class="cls-2" d="M1217.65,296.06c0-1.71-.26-3.4-.75-5.01-.9-2.92-2.58-5.57-4.86-7.63-1.77-1.6-3.9-2.81-6.2-3.6-3.69-1.26-7.88-1.39-11.82-.29-3.49.98-6.77,2.89-9.3,5.51-1.77,1.82-3.14,3.96-4.09,6.22-1.79,4.31-1.89,9.13-.3,13.27,1.21,3.15,3.36,5.93,6.18,7.88,3.6,2.49,8.23,3.63,12.83,3.1,4.66-.54,9.21-2.72,12.56-6.08,3.61-3.63,5.73-8.53,5.75-13.36Z"/>
  </g>
  <g id="SPLINE-18" data-name="SPLINE">
    <path class="cls-2" d="M1218.22,413.69c-.04-1.81-.35-3.6-.89-5.33-.98-3.12-2.71-6.01-5.06-8.31-1.82-1.79-3.98-3.2-6.31-4.16-3.72-1.53-7.91-1.83-11.73-.78-3.34.92-6.42,2.78-8.81,5.33-3.42,3.64-5.37,8.61-5.28,13.68.1,5.77,2.84,11.56,7.42,15.08,3.46,2.66,7.81,4.04,12.09,3.95,3.24-.07,6.41-.98,9.19-2.59,2.77-1.61,5.14-3.98,6.76-6.79,1.75-3.02,2.69-6.54,2.61-10.08Z"/>
  </g>
  <g id="SPLINE-19" data-name="SPLINE">
    <path class="cls-2" d="M1271.36,374.6c0-1.87-.27-3.74-.79-5.53-.91-3.13-2.59-6.04-4.9-8.37-1.82-1.84-4.01-3.28-6.39-4.27-3.81-1.59-8.14-1.96-12.15-.98-3.51.85-6.79,2.65-9.34,5.21-3.65,3.66-5.71,8.75-5.72,13.89s2.03,10.24,5.66,13.91,8.75,5.79,13.93,5.79c5.18,0,10.28-2.13,13.93-5.78s5.76-8.72,5.78-13.86Z"/>
  </g>
  <g id="SPLINE-20" data-name="SPLINE">
    <path class="cls-2" d="M1271.42,321.44c0-1.82-.28-3.64-.82-5.38-.93-3.05-2.63-5.89-4.97-8.15-1.83-1.78-4.03-3.18-6.42-4.14-3.82-1.54-8.16-1.89-12.17-.93-3.51.83-6.79,2.59-9.36,5.08-3.66,3.56-5.77,8.52-5.76,13.54s2.13,9.98,5.8,13.53,8.78,5.6,13.97,5.6c5.19,0,10.3-2.05,13.96-5.61s5.77-8.51,5.77-13.53Z"/>
  </g>
  <g id="SPLINE-21" data-name="SPLINE">
    <path class="cls-2" d="M1271.25,270.99c0-1.71-.3-3.41-.85-5.04-.93-2.79-2.6-5.37-4.9-7.43-1.82-1.64-4.01-2.93-6.39-3.81-3.8-1.41-8.13-1.72-12.12-.82-3.49.78-6.74,2.41-9.28,4.71-3.63,3.28-5.71,7.85-5.71,12.48s2.11,9.21,5.76,12.5,8.77,5.18,13.94,5.17c5.17,0,10.27-1.92,13.9-5.22,3.63-3.3,5.67-7.89,5.65-12.53Z"/>
  </g>
  <g id="SPLINE-22" data-name="SPLINE">
    <path class="cls-2" d="M1270.73,225.62c-.02-1.54-.32-3.07-.89-4.53-.91-2.35-2.5-4.54-4.68-6.32-1.77-1.44-3.91-2.6-6.24-3.39-3.72-1.26-7.99-1.53-11.89-.69-3.41.74-6.56,2.23-9.02,4.27-3.51,2.91-5.56,6.85-5.54,10.86s2.08,7.96,5.65,10.82c3.58,2.86,8.58,4.54,13.66,4.52s10.08-1.73,13.58-4.64c3.5-2.9,5.41-6.89,5.36-10.9Z"/>
  </g>
  <g id="SPLINE-23" data-name="SPLINE">
    <path class="cls-2" d="M1373.45,280.28c-.04-1.5-.3-3.04-.76-4.55s-1.14-3.06-1.99-4.5c-1.34-2.29-3.14-4.39-5.22-6.09-1.57-1.28-3.3-2.35-5.1-3.16-2.99-1.35-6.21-1.96-9.21-1.76-3.29.23-6.34,1.39-8.68,3.36-3.19,2.68-5.06,6.79-4.96,11.36s2.17,9.42,5.63,13.15c3.46,3.73,8.21,6.2,12.87,6.82,4.66.61,9.1-.67,12.32-3.34s5.21-6.72,5.09-11.28Z"/>
  </g>
  <g id="SPLINE-24" data-name="SPLINE">
    <path class="cls-2" d="M1373.63,378.85c.05-1.78-.14-3.57-.55-5.3-.76-3.2-2.26-6.2-4.36-8.63-1.61-1.87-3.56-3.38-5.68-4.46-3.4-1.73-7.29-2.3-10.96-1.56-3.2.64-6.23,2.21-8.65,4.58-3.45,3.39-5.57,8.3-5.68,13.39s1.78,10.14,5.01,13.86c3.23,3.71,7.73,6.01,12.41,6.32,3.02.2,6.07-.42,8.78-1.81s5.06-3.61,6.7-6.32c1.8-2.98,2.88-6.46,2.98-10.07Z"/>
  </g>
  <g id="SPLINE-25" data-name="SPLINE">
    <path class="cls-2" d="M1323.21,414.44c.06-1.91-.16-3.82-.63-5.65-.78-3.02-2.25-5.84-4.31-8.16-1.65-1.86-3.67-3.37-5.89-4.46-3.55-1.74-7.69-2.32-11.62-1.54-3.44.68-6.73,2.3-9.35,4.74-3.74,3.48-5.94,8.47-6.18,13.53-.24,5.07,1.49,10.14,4.83,13.85s8.15,5.94,13.11,6.15,9.98-1.59,13.76-4.98c3.78-3.39,6.11-8.42,6.28-13.48Z"/>
  </g>
  <g id="SPLINE-26" data-name="SPLINE">
    <path class="cls-2" d="M1373.81,327.92c-.01-1.62-.25-3.25-.69-4.84s-1.09-3.2-1.91-4.68c-1.3-2.36-3.06-4.48-5.1-6.17-1.54-1.27-3.25-2.31-5.03-3.06s-3.65-1.24-5.51-1.4c-1.23-.11-2.46-.07-3.66.1-1.66.23-3.25.71-4.74,1.42-2.28,1.09-4.29,2.74-5.81,4.82-1.08,1.48-1.93,3.16-2.5,4.97-.98,3.09-1.11,6.58-.33,9.93.8,3.47,2.5,6.8,4.91,9.47,3.37,3.74,8.01,6.09,12.64,6.46s9.13-1.27,12.43-4.4c3.29-3.13,5.35-7.7,5.31-12.62Z"/>
  </g>
  <g id="SPLINE-27" data-name="SPLINE">
    <path class="cls-2" d="M1323.15,245.38c-.08-1.53-.42-3.06-1-4.56-1.04-2.71-2.85-5.29-5.27-7.38-1.87-1.62-4.08-2.93-6.44-3.86-3.77-1.5-7.95-2.01-11.75-1.43-3.32.51-6.37,1.8-8.69,3.78-3.31,2.82-5.03,6.93-4.79,11.23s2.43,8.71,6.16,12c3.73,3.29,8.83,5.34,13.82,5.58s9.69-1.36,13-4.19c3.31-2.83,5.19-6.87,4.97-11.16Z"/>
  </g>
  <g id="SPLINE-28" data-name="SPLINE">
    <path class="cls-2" d="M1218.28,242.85c.04-1.56-.2-3.09-.68-4.54-.83-2.53-2.4-4.8-4.57-6.55-1.71-1.37-3.76-2.41-6.02-3.06-3.6-1.04-7.75-1.05-11.67.02-3.43.94-6.69,2.64-9.25,4.96-3.66,3.32-5.77,7.76-5.87,12.05-.1,4.29,1.8,8.33,5.2,11.1s8.2,4.21,13.2,3.87c5-.34,10.07-2.46,13.74-5.79s5.82-7.76,5.92-12.06Z"/>
  </g>
  <g id="SPLINE-29" data-name="SPLINE">
    <path class="cls-2" d="M1324.08,298.21c0-1.78-.29-3.57-.82-5.31-.91-2.97-2.56-5.79-4.85-8.08-1.81-1.82-3.99-3.26-6.34-4.29-3.76-1.65-7.97-2.17-11.85-1.46-3.39.62-6.54,2.12-9.01,4.37-3.53,3.21-5.59,7.83-5.56,12.65.04,4.82,2.17,9.71,5.8,13.33,3.63,3.63,8.66,5.89,13.69,6.15s9.93-1.51,13.42-4.72,5.51-7.81,5.5-12.63Z"/>
  </g>
  <g id="SPLINE-30" data-name="SPLINE">
    <path class="cls-2" d="M1324.28,355.4c0-1.82-.28-3.63-.78-5.37-.92-3.16-2.6-6.11-4.88-8.51-2.82-2.97-6.52-5.04-10.48-5.85-4.5-.92-9.28-.12-13.2,2.16-3.62,2.1-6.45,5.51-7.95,9.47-1.37,3.65-1.61,7.77-.62,11.61.86,3.37,2.59,6.54,5.01,9.07,3.56,3.72,8.5,5.96,13.53,6.16,5.03.2,10.05-1.63,13.66-5.11,3.62-3.48,5.71-8.5,5.7-13.62Z"/>
  </g>
  <g id="SPLINE-31" data-name="SPLINE">
    <path class="cls-2" d="M1271.05,427.99c0-1.86-.27-3.71-.79-5.49-.9-3.04-2.52-5.87-4.77-8.14-1.78-1.8-3.93-3.22-6.28-4.2-3.75-1.57-8.03-1.93-11.99-.96-3.46.85-6.68,2.63-9.18,5.14-3.57,3.59-5.6,8.56-5.61,13.59-.01,5.04,1.99,10.02,5.54,13.66,3.56,3.63,8.57,5.83,13.7,5.83s10.13-2.21,13.71-5.83,5.64-8.56,5.67-13.6Z"/>
  </g>
  <g id="SPLINE-32" data-name="SPLINE">
    <path class="cls-2" d="M1217.61,354.14c0-1.87-.29-3.73-.81-5.5-.92-3.08-2.58-5.91-4.87-8.13-1.8-1.75-3.97-3.08-6.31-3.96-3.75-1.41-7.98-1.6-11.87-.48-3.35.96-6.44,2.83-8.89,5.38-3.4,3.54-5.51,8.31-5.74,13.21-.28,5.84,2.2,11.74,6.63,15.38,4.03,3.31,9.42,4.79,14.62,4.06,5.46-.77,10.62-3.95,13.74-8.6,2.24-3.34,3.5-7.33,3.49-11.34Z"/>
  </g>
  <g id="SPLINE-33" data-name="SPLINE">
    <path class="cls-2" d="M1165.7,275.07c.05-1.63-.15-3.21-.58-4.69-.76-2.68-2.24-5.04-4.3-6.78-1.6-1.35-3.53-2.32-5.64-2.88-3.38-.89-7.27-.66-10.95.69-3.22,1.18-6.27,3.16-8.71,5.76-3.48,3.71-5.61,8.55-5.76,13.14s1.68,8.76,4.89,11.49,7.73,3.96,12.42,3.28c2.35-.34,4.69-1.15,6.88-2.32,3.36-1.78,6.41-4.49,8.49-7.72s3.16-6.61,3.26-9.98Z"/>
  </g>
  <g id="SPLINE-34" data-name="SPLINE">
    <path class="cls-2" d="M1153.01,343.56c-1.11.34-2.24.55-3.37.65-4.14.35-8.24-.89-11.23-3.57-2.99-2.68-4.85-6.8-4.82-11.1s1.96-8.8,4.95-12.15c3-3.35,7.06-5.55,11.19-6.03,2.06-.24,4.14-.05,6.04.57s3.64,1.69,5.09,3.08c2.18,2.1,3.72,4.96,4.35,8.08"/>
  </g>
  <g id="SPLINE-35" data-name="SPLINE">
    <path class="cls-2" d="M1143.49,295.23c-1.95-.5-3.73-1.39-5.2-2.64-2.85-2.43-4.49-6.17-4.36-10.22s2.04-8.39,5.12-11.67c3.07-3.27,7.32-5.49,11.48-6.06s8.22.49,11.05,2.89c.06.05.12.1.17.15,2.04,1.8,3.42,4.31,3.95,7.11"/>
  </g>
  <g id="SPLINE-36" data-name="SPLINE">
    <path class="cls-2" d="M1216.67,298.14c-.01,2.95-.92,5.97-2.54,8.61"/>
  </g>
  <g id="SPLINE-37" data-name="SPLINE">
    <path class="cls-2" d="M1198.79,315.56c-2.04.05-4.07-.27-5.94-.91-.46-.16-.91-.34-1.36-.53-1.53-.68-2.94-1.59-4.15-2.7-3.13-2.86-4.94-7.01-4.94-11.29s1.84-8.69,5.02-11.93c1.59-1.62,3.51-2.94,5.6-3.87s4.34-1.47,6.58-1.58c4.48-.22,8.91,1.29,12.06,4.13s5.03,6.99,5.01,11.26"/>
  </g>
  <g id="SPLINE-38" data-name="SPLINE">
    <path class="cls-2" d="M1216.63,354.92c0,4.55-1.83,9.15-4.99,12.45-3.15,3.3-7.62,5.31-12.1,5.48-2.24.08-4.49-.29-6.58-1.07s-4.03-1.95-5.63-3.49c-3.2-3.08-5.04-7.62-5.02-12.15s1.9-9.08,5.04-12.4c1.57-1.66,3.45-3.02,5.5-3.97.21-.1.42-.19.63-.28,1.87-.78,3.88-1.23,5.89-1.31,4.49-.17,9.01,1.51,12.19,4.6,3.18,3.09,5.04,7.59,5.05,12.14Z"/>
  </g>
  <g id="SPLINE-39" data-name="SPLINE">
    <path class="cls-2" d="M1217.23,413.15c.1,4.48-1.66,8.97-4.71,12.16-3.05,3.19-7.39,5.07-11.82,5.16s-8.98-1.6-12.18-4.74c-1.37-1.35-2.5-2.96-3.35-4.71-.14-.29-.27-.59-.4-.88-.88-2.09-1.37-4.33-1.41-6.57-.08-4.49,1.67-8.95,4.71-12.19,3.04-3.24,7.36-5.25,11.76-5.32s8.88,1.79,12.12,4.97c3.23,3.18,5.19,7.66,5.29,12.13Z"/>
  </g>
  <g id="SPLINE-40" data-name="SPLINE">
    <path class="cls-2" d="M1268.9,427.14c-.02,4.47-1.87,8.91-5.05,12.12-3.18,3.21-7.68,5.18-12.18,5.19-4.5,0-9.01-1.96-12.16-5.18-3.15-3.22-4.95-7.7-4.94-12.18s1.83-8.93,4.99-12.11c3.16-3.17,7.68-5.06,12.2-5.06,4.53,0,9.04,1.9,12.19,5.08,1.09,1.1,2.03,2.37,2.78,3.73,1.41,2.56,2.18,5.49,2.17,8.4Z"/>
  </g>
  <g id="SPLINE-41" data-name="SPLINE">
    <path class="cls-2" d="M1269.2,374.89c-.02,4.56-1.91,9.11-5.15,12.35s-7.82,5.15-12.41,5.15-9.19-1.9-12.41-5.15c-3.22-3.25-5.06-7.83-5.05-12.4,0-4.57,1.87-9.14,5.1-12.38,3.23-3.24,7.83-5.14,12.43-5.14s9.19,1.92,12.41,5.18c3.23,3.25,5.09,7.83,5.07,12.39Z"/>
  </g>
  <g id="SPLINE-42" data-name="SPLINE">
    <path class="cls-2" d="M1321.03,356.06c.01,4.53-1.87,9.04-5.07,12.12-3.2,3.08-7.7,4.73-12.17,4.55-4.47-.18-8.91-2.19-12.07-5.49-3.16-3.3-5.03-7.89-5.02-12.42,0-4.54,1.89-9.02,5.09-12.09,3.19-3.08,7.7-4.76,12.18-4.57,2.24.09,4.46.65,6.51,1.6.13.06.25.12.37.18,1.9.94,3.65,2.22,5.12,3.77,3.14,3.31,5.04,7.84,5.05,12.37Z"/>
  </g>
  <g id="SPLINE-43" data-name="SPLINE">
    <path class="cls-2" d="M1269.26,322.87c0,4.36-1.82,8.73-4.94,11.86-.07.07-.13.13-.2.19-3.25,3.15-7.84,5-12.44,5s-9.2-1.84-12.45-4.99c-3.25-3.15-5.16-7.6-5.17-12.06s1.89-8.91,5.14-12.07,7.85-5.01,12.45-5.01,9.2,1.85,12.46,5.01c3.25,3.15,5.16,7.61,5.16,12.07Z"/>
  </g>
  <g id="SPLINE-44" data-name="SPLINE">
    <path class="cls-2" d="M1320.83,300.01c0,1.4-.19,2.78-.55,4.11-.76,2.74-2.26,5.24-4.35,7.17-2.99,2.75-7.17,4.31-11.44,4.23"/>
  </g>
  <g id="SPLINE-45" data-name="SPLINE">
    <path class="cls-2" d="M1288.95,306.36c-1.48-2.54-2.32-5.4-2.34-8.2-.03-4.26,1.82-8.42,4.96-11.27,3.14-2.85,7.54-4.38,12.01-4.16,4.47.22,9.02,2.18,12.21,5.38,3.19,3.2,5.03,7.63,5.04,11.91"/>
  </g>
  <g id="SPLINE-46" data-name="SPLINE">
    <path class="cls-2" d="M1269.1,273.51c.02,4.11-1.82,8.24-5.03,11.16-.21.19-.42.37-.63.55"/>
  </g>
  <g id="SPLINE-47" data-name="SPLINE">
    <path class="cls-2" d="M1239.71,285.09c-.15-.12-.3-.25-.44-.38-3.24-2.91-5.13-7.03-5.13-11.13,0-4.11,1.87-8.21,5.09-11.12,3.21-2.91,7.78-4.64,12.36-4.65,4.58-.01,9.17,1.68,12.39,4.58,1.64,1.48,2.94,3.27,3.81,5.22.84,1.87,1.3,3.88,1.31,5.9"/>
  </g>
  <g id="SPLINE-48" data-name="SPLINE">
    <path class="cls-2" d="M1217.29,246.11c-.02.79-.12,1.58-.29,2.37"/>
  </g>
  <g id="SPLINE-49" data-name="SPLINE">
    <path class="cls-2" d="M1188.22,258.66c-.05-.04-.1-.08-.16-.13-3.02-2.46-4.73-6.09-4.64-9.9.09-3.81,1.99-7.79,5.21-10.71,2.83-2.56,6.67-4.31,10.57-4.9.54-.08,1.09-.14,1.63-.18,4.43-.3,8.74.95,11.78,3.39s4.77,6.08,4.68,9.88"/>
  </g>
  <g id="ARC-34" data-name="ARC">
    <path class="cls-2" d="M1267.12,234.83c.97-1.75,1.48-3.72,1.47-5.72"/>
  </g>
  <g id="SPLINE-50" data-name="SPLINE">
    <path class="cls-2" d="M1235.98,234.6c-.9-1.68-1.39-3.5-1.4-5.31-.01-3.54,1.81-7.08,4.94-9.67,3.13-2.59,7.56-4.21,12.01-4.25s8.94,1.51,12.08,4.07c3.14,2.56,4.93,6.11,4.96,9.68"/>
  </g>
  <g id="SPLINE-51" data-name="SPLINE">
    <path class="cls-2" d="M1319.92,248.31c.19,3.79-1.48,7.42-4.44,9.95-.17.14-.33.28-.51.41"/>
  </g>
  <g id="SPLINE-52" data-name="SPLINE">
    <path class="cls-2" d="M1286.43,248.32c-.14-.65-.22-1.3-.26-1.95-.21-3.82,1.34-7.52,4.26-10.01,2.93-2.49,7.23-3.79,11.65-3.55.18,0,.36.02.54.04,4.25.35,8.56,2.1,11.73,4.85,3.31,2.86,5.37,6.81,5.56,10.6"/>
  </g>
  <g id="SPLINE-53" data-name="SPLINE">
    <path class="cls-2" d="M1369.25,282.32c.1,3.99-1.67,7.64-4.55,10.03-1.51,1.25-3.32,2.16-5.3,2.67"/>
  </g>
  <g id="SPLINE-54" data-name="SPLINE">
    <path class="cls-2" d="M1337.53,274.68c.49-2.47,1.65-4.69,3.33-6.39.26-.27.54-.53.83-.77,2.84-2.38,6.87-3.46,11-2.88s8.35,2.79,11.43,6.07,5.04,7.62,5.13,11.62"/>
  </g>
  <g id="SPLINE-55" data-name="SPLINE">
    <path class="cls-2" d="M1369.6,329.06c.03,4.3-1.8,8.42-4.74,11.21s-6.98,4.25-11.08,3.93c-1.05-.08-2.1-.28-3.14-.59"/>
  </g>
  <g id="SPLINE-56" data-name="SPLINE">
    <path class="cls-2" d="M1338.11,322.69c.64-2.97,2.1-5.68,4.17-7.68,2.89-2.78,6.97-4.2,11.09-3.85,4.12.35,8.27,2.48,11.3,5.79,3.02,3.31,4.91,7.8,4.94,12.11"/>
  </g>
  <g id="SPLINE-57" data-name="SPLINE">
    <path class="cls-2" d="M1369.43,378.97c-.07,2.24-.57,4.46-1.42,6.51-.85,2.05-2.04,3.92-3.55,5.43-3.01,3.01-7.28,4.52-11.44,4.23-4.16-.28-8.21-2.34-11.07-5.64-.29-.34-.57-.69-.84-1.05-.12-.17-.25-.34-.36-.51"/>
  </g>
  <g id="SPLINE-58" data-name="SPLINE">
    <path class="cls-2" d="M1338.86,370.79c.87-2.08,2.12-3.97,3.68-5.49,3.05-3,7.27-4.58,11.43-4.34s8.24,2.31,11.1,5.63,4.5,7.9,4.37,12.38"/>
  </g>
  <g id="SPLINE-59" data-name="SPLINE">
    <path class="cls-2" d="M1319.98,413.86c-.07,2.21-.57,4.41-1.48,6.42-.02.04-.04.08-.06.13-.95,2.05-2.34,3.89-4.02,5.39-3.36,3.01-7.85,4.63-12.26,4.44s-8.73-2.2-11.68-5.48-4.51-7.83-4.3-12.33c.21-4.5,2.2-8.97,5.49-12.04,3.29-3.07,7.87-4.72,12.28-4.49,4.41.23,8.67,2.33,11.61,5.64,2.94,3.31,4.56,7.82,4.41,12.32Z"/>
  </g>
  <g id="SPLINE-60" data-name="SPLINE">
    <path class="cls-2" d="M318.84,427.14c.02,4.47,1.87,8.91,5.05,12.12,3.18,3.21,7.68,5.18,12.18,5.19,4.5,0,9.01-1.96,12.16-5.18,3.15-3.22,4.95-7.7,4.94-12.18-.01-4.47-1.83-8.93-4.99-12.11-3.16-3.17-7.68-5.06-12.2-5.06-4.53,0-9.04,1.9-12.19,5.08-1.09,1.1-2.03,2.37-2.78,3.73-1.41,2.56-2.18,5.49-2.17,8.4Z"/>
  </g>
  <g id="SPLINE-61" data-name="SPLINE">
    <path class="cls-2" d="M316.69,427.99c.02,5.04,2.09,9.99,5.67,13.6s8.58,5.82,13.71,5.83,10.14-2.19,13.7-5.83,5.56-8.62,5.54-13.66-2.04-10-5.61-13.59c-2.5-2.51-5.72-4.29-9.18-5.14-3.95-.97-8.24-.61-11.99.96-2.34.98-4.49,2.4-6.28,4.2-2.25,2.27-3.88,5.1-4.77,8.14-.52,1.78-.8,3.63-.79,5.49Z"/>
  </g>
  <g id="SPLINE-62" data-name="SPLINE">
    <path class="cls-2" d="M264.53,414.44c.17,5.07,2.5,10.09,6.28,13.48s8.8,5.2,13.76,4.98,9.78-2.44,13.11-6.15,5.07-8.78,4.83-13.85-2.45-10.05-6.18-13.53c-2.61-2.44-5.9-4.06-9.35-4.74-3.94-.77-8.07-.19-11.62,1.54-2.22,1.09-4.23,2.6-5.89,4.46-2.06,2.32-3.53,5.14-4.31,8.16-.47,1.83-.69,3.74-.63,5.65Z"/>
  </g>
  <g id="SPLINE-63" data-name="SPLINE">
    <path class="cls-2" d="M213.93,327.92c-.03,4.91,2.02,9.49,5.31,12.62,3.29,3.13,7.79,4.77,12.43,4.4s9.28-2.72,12.64-6.46c2.4-2.67,4.1-6,4.91-9.47.77-3.35.64-6.84-.33-9.93-.57-1.81-1.42-3.49-2.5-4.97-1.52-2.08-3.53-3.73-5.81-4.82-1.49-.71-3.09-1.19-4.74-1.42-1.2-.17-2.42-.2-3.66-.1-1.87.16-3.73.64-5.51,1.4s-3.48,1.79-5.03,3.06c-2.04,1.69-3.8,3.81-5.1,6.17-.82,1.49-1.47,3.06-1.91,4.68s-.68,3.22-.69,4.84Z"/>
  </g>
  <g id="SPLINE-64" data-name="SPLINE">
    <path class="cls-2" d="M316.38,374.6c.02,5.14,2.13,10.21,5.78,13.86s8.75,5.78,13.93,5.78c5.18,0,10.3-2.11,13.93-5.79,3.63-3.67,5.68-8.77,5.66-13.91s-2.08-10.23-5.72-13.89c-2.55-2.56-5.83-4.36-9.34-5.21-4.01-.97-8.34-.61-12.15.98-2.38.99-4.57,2.44-6.39,4.27-2.32,2.33-3.99,5.25-4.9,8.37-.52,1.79-.8,3.66-.79,5.53Z"/>
  </g>
  <g id="SPLINE-65" data-name="SPLINE">
    <path class="cls-2" d="M422.15,377.03c-.09,5.08,1.84,10.1,5.06,13.83,1.92,2.21,4.28,3.94,6.86,5.06,3.66,1.58,7.81,1.86,11.59.72,1.97-.59,3.83-1.54,5.48-2.83,2.36-1.85,4.2-4.42,5.41-7.27.96-2.28,1.56-4.77,1.62-7.32.09-3.58-.86-7.13-2.55-10.22-1.78-3.25-4.42-5.96-7.49-7.74s-6.71-2.68-10.23-2.37c-3.73.33-7.34,2-10.11,4.72-2.27,2.24-3.95,5.13-4.87,8.29-.48,1.65-.75,3.38-.79,5.12Z"/>
  </g>
  <g id="SPLINE-66" data-name="SPLINE">
    <path class="cls-2" d="M316.32,321.44c0,5.02,2.11,9.98,5.77,13.53,3.66,3.55,8.77,5.6,13.96,5.61,5.19,0,10.3-2.05,13.97-5.6s5.79-8.5,5.8-13.53c0-5.02-2.1-9.98-5.76-13.54-2.56-2.49-5.84-4.24-9.36-5.08-4.02-.95-8.35-.6-12.17.93-2.39.96-4.59,2.36-6.42,4.14-2.34,2.27-4.04,5.1-4.97,8.15-.53,1.74-.82,3.56-.82,5.38Z"/>
  </g>
  <g id="SPLINE-67" data-name="SPLINE">
    <path class="cls-2" d="M214.29,280.28c-.11,4.56,1.88,8.61,5.09,11.28,3.22,2.67,7.66,3.95,12.32,3.34,4.66-.61,9.41-3.09,12.87-6.82,3.46-3.73,5.53-8.58,5.63-13.15.1-4.57-1.76-8.69-4.96-11.36-2.34-1.97-5.39-3.13-8.68-3.36-2.99-.21-6.21.41-9.21,1.76-1.8.81-3.53,1.88-5.1,3.16-2.08,1.7-3.88,3.8-5.22,6.09-.84,1.44-1.52,2.96-1.99,4.5s-.73,3.05-.76,4.55Z"/>
  </g>
  <g id="SPLINE-68" data-name="SPLINE">
    <path class="cls-2" d="M316.48,270.99c-.02,4.63,2.02,9.22,5.65,12.53s8.73,5.21,13.9,5.22c5.17,0,10.28-1.88,13.94-5.17,3.66-3.29,5.76-7.87,5.76-12.5,0-4.63-2.08-9.19-5.71-12.48-2.54-2.3-5.79-3.93-9.28-4.71-3.99-.89-8.32-.58-12.12.82-2.38.88-4.57,2.17-6.39,3.81-2.3,2.07-3.97,4.65-4.9,7.43-.55,1.63-.84,3.33-.85,5.04Z"/>
  </g>
  <g id="SPLINE-69" data-name="SPLINE">
    <path class="cls-2" d="M370.09,296.06c.02,4.83,2.14,9.73,5.75,13.36,3.35,3.36,7.89,5.54,12.56,6.08s9.23-.61,12.83-3.1c2.82-1.95,4.96-4.73,6.18-7.88,1.59-4.14,1.49-8.96-.3-13.27-.94-2.27-2.32-4.4-4.09-6.22-2.53-2.62-5.81-4.53-9.3-5.51-3.93-1.1-8.13-.97-11.82.29-2.31.79-4.43,2.01-6.2,3.6-2.29,2.06-3.96,4.71-4.86,7.63-.5,1.61-.76,3.29-.75,5.01Z"/>
  </g>
  <g id="SPLINE-70" data-name="SPLINE">
    <path class="cls-2" d="M369.46,242.85c.1,4.29,2.25,8.73,5.92,12.06,3.67,3.33,8.73,5.44,13.74,5.79s9.81-1.1,13.2-3.87c3.4-2.77,5.3-6.8,5.2-11.1s-2.21-8.73-5.87-12.05c-2.56-2.32-5.82-4.03-9.25-4.96-3.92-1.07-8.07-1.06-11.67-.02-2.25.65-4.31,1.68-6.02,3.06-2.17,1.75-3.74,4.02-4.57,6.55-.48,1.44-.71,2.97-.68,4.54Z"/>
  </g>
  <g id="SPLINE-71" data-name="SPLINE">
    <path class="cls-2" d="M317.01,225.62c-.04,4.01,1.86,8,5.36,10.9s8.49,4.62,13.58,4.64,10.09-1.66,13.66-4.52,5.64-6.82,5.65-10.82c.01-4-2.03-7.95-5.54-10.86-2.46-2.04-5.61-3.53-9.02-4.27-3.9-.84-8.16-.57-11.89.69-2.33.79-4.46,1.94-6.24,3.39-2.18,1.78-3.77,3.97-4.68,6.32-.57,1.46-.87,2.99-.89,4.53Z"/>
  </g>
  <g id="SPLINE-72" data-name="SPLINE">
    <path class="cls-2" d="M422.04,275.07c.1,3.37,1.26,6.88,3.26,9.98,2.08,3.23,5.13,5.93,8.49,7.72,2.19,1.17,4.54,1.98,6.88,2.32,4.69.68,9.22-.56,12.42-3.28s5.04-6.9,4.89-11.49c-.15-4.59-2.28-9.43-5.76-13.14-2.44-2.6-5.49-4.58-8.71-5.76-3.68-1.35-7.57-1.58-10.95-.69-2.11.55-4.05,1.52-5.64,2.88-2.06,1.75-3.54,4.1-4.3,6.78-.42,1.48-.62,3.06-.58,4.69Z"/>
  </g>
  <g id="SPLINE-73" data-name="SPLINE">
    <path class="cls-2" d="M422.44,324.72c0,3.64,1.09,7.36,3.02,10.58s4.79,6.02,8.07,7.7c2.17,1.11,4.5,1.76,6.81,1.95,4.63.39,9.2-.98,12.57-4.01,3.37-3.02,5.46-7.61,5.43-12.54-.03-3.61-1.2-7.25-3.13-10.42-2.13-3.49-5.22-6.34-8.71-8.1-2.85-1.44-5.99-2.17-9.04-2.01-3.68.19-7.16,1.7-9.78,4.22-2.12,2.04-3.68,4.68-4.52,7.62-.46,1.6-.71,3.28-.71,5.01Z"/>
  </g>
  <g id="SPLINE-74" data-name="SPLINE">
    <path class="cls-2" d="M264.59,245.38c-.22,4.29,1.66,8.33,4.97,11.16,3.31,2.83,8.01,4.43,13,4.19s10.09-2.29,13.82-5.58c3.73-3.29,5.92-7.7,6.16-12s-1.48-8.41-4.79-11.23c-2.32-1.97-5.36-3.27-8.69-3.78-3.8-.58-7.98-.07-11.75,1.43-2.36.94-4.57,2.24-6.44,3.86-2.42,2.09-4.22,4.67-5.27,7.38-.58,1.5-.92,3.03-1,4.56Z"/>
  </g>
  <g id="SPLINE-75" data-name="SPLINE">
    <path class="cls-2" d="M263.66,298.21c-.01,4.82,2,9.42,5.5,12.63,3.49,3.21,8.39,4.98,13.42,4.72s10.06-2.52,13.69-6.15c3.63-3.63,5.77-8.51,5.8-13.33.04-4.82-2.03-9.45-5.56-12.65-2.47-2.24-5.62-3.75-9.01-4.37-3.87-.71-8.09-.18-11.85,1.46-2.35,1.03-4.52,2.48-6.34,4.29-2.29,2.29-3.94,5.11-4.85,8.08-.53,1.74-.82,3.53-.82,5.31Z"/>
  </g>
  <g id="SPLINE-76" data-name="SPLINE">
    <path class="cls-2" d="M370.13,354.14c0,4.01,1.25,8.01,3.49,11.34,3.13,4.65,8.29,7.83,13.74,8.6s10.6-.75,14.62-4.06c4.43-3.64,6.91-9.54,6.63-15.38-.24-4.9-2.34-9.67-5.74-13.21-2.44-2.54-5.54-4.42-8.89-5.38-3.89-1.11-8.13-.92-11.87.48-2.34.88-4.5,2.22-6.31,3.96-2.29,2.22-3.95,5.05-4.87,8.13-.53,1.77-.81,3.63-.81,5.5Z"/>
  </g>
  <g id="SPLINE-77" data-name="SPLINE">
    <path class="cls-2" d="M369.52,413.69c-.08,3.55.87,7.06,2.61,10.08,1.62,2.81,3.98,5.18,6.76,6.79s5.95,2.52,9.19,2.59c4.29.09,8.63-1.29,12.09-3.95,4.59-3.53,7.32-9.31,7.42-15.08.09-5.07-1.86-10.04-5.28-13.68-2.39-2.55-5.46-4.4-8.81-5.33-3.82-1.06-8.01-.76-11.73.78-2.33.96-4.49,2.37-6.31,4.16-2.34,2.31-4.08,5.2-5.06,8.31-.54,1.72-.85,3.52-.89,5.33Z"/>
  </g>
  <g id="SPLINE-78" data-name="SPLINE">
    <path class="cls-2" d="M263.45,355.4c-.01,5.12,2.08,10.14,5.7,13.62,3.62,3.48,8.63,5.32,13.66,5.11,5.03-.2,9.97-2.44,13.53-6.16,2.42-2.53,4.15-5.69,5.01-9.07.98-3.84.75-7.97-.62-11.61-1.49-3.96-4.33-7.37-7.95-9.47-3.92-2.27-8.71-3.08-13.2-2.16-3.96.81-7.66,2.88-10.48,5.85-2.27,2.39-3.96,5.34-4.88,8.51-.51,1.74-.78,3.55-.78,5.37Z"/>
  </g>
  <g id="SPLINE-79" data-name="SPLINE">
    <path class="cls-2" d="M214.11,378.85c.11,3.61,1.18,7.09,2.98,10.07,1.64,2.71,3.99,4.93,6.7,6.32,2.71,1.39,5.76,2.01,8.78,1.81,4.68-.32,9.19-2.61,12.41-6.32,3.23-3.71,5.12-8.77,5.01-13.86s-2.23-10-5.68-13.39c-2.42-2.37-5.45-3.94-8.65-4.58-3.66-.73-7.56-.16-10.96,1.56-2.12,1.08-4.07,2.59-5.68,4.46-2.1,2.43-3.6,5.43-4.36,8.63-.41,1.73-.61,3.52-.55,5.3Z"/>
  </g>
  <g id="SPLINE-80" data-name="SPLINE">
    <path class="cls-2" d="M267.76,413.86c.07,2.21.57,4.41,1.48,6.42.02.04.04.08.06.13.95,2.05,2.34,3.89,4.02,5.39,3.36,3.01,7.85,4.63,12.26,4.44s8.73-2.2,11.68-5.48c2.95-3.28,4.51-7.83,4.3-12.33-.21-4.5-2.2-8.97-5.49-12.04-3.29-3.07-7.87-4.72-12.28-4.49-4.41.23-8.67,2.33-11.61,5.64-2.94,3.31-4.56,7.82-4.41,12.32Z"/>
  </g>
  <g id="SPLINE-81" data-name="SPLINE">
    <path class="cls-2" d="M218.31,378.97c.07,2.24.57,4.46,1.42,6.51s2.04,3.92,3.55,5.43c3.01,3.01,7.28,4.52,11.44,4.23,4.16-.28,8.21-2.34,11.07-5.64.29-.34.57-.69.84-1.05.12-.17.25-.34.36-.51"/>
  </g>
  <g id="SPLINE-82" data-name="SPLINE">
    <path class="cls-2" d="M248.88,370.79c-.87-2.08-2.12-3.97-3.68-5.49-3.05-3-7.27-4.58-11.43-4.34s-8.24,2.31-11.1,5.63-4.5,7.9-4.37,12.38"/>
  </g>
  <g id="SPLINE-83" data-name="SPLINE">
    <path class="cls-2" d="M218.14,329.06c-.03,4.3,1.8,8.42,4.74,11.21,2.94,2.79,6.98,4.25,11.08,3.93,1.05-.08,2.1-.28,3.14-.59"/>
  </g>
  <g id="SPLINE-84" data-name="SPLINE">
    <path class="cls-2" d="M249.63,322.69c-.64-2.97-2.1-5.68-4.17-7.68-2.89-2.78-6.97-4.2-11.09-3.85-4.12.35-8.27,2.48-11.3,5.79-3.02,3.31-4.91,7.8-4.94,12.11"/>
  </g>
  <g id="SPLINE-85" data-name="SPLINE">
    <path class="cls-2" d="M266.71,356.06c-.01,4.53,1.87,9.04,5.07,12.12,3.2,3.08,7.7,4.73,12.17,4.55,4.47-.18,8.91-2.19,12.07-5.49,3.16-3.3,5.03-7.89,5.02-12.42,0-4.54-1.89-9.02-5.09-12.09-3.19-3.08-7.7-4.76-12.18-4.57-2.24.09-4.46.65-6.51,1.6-.13.06-.25.12-.37.18-1.9.94-3.65,2.22-5.12,3.77-3.14,3.31-5.04,7.84-5.05,12.37Z"/>
  </g>
  <g id="SPLINE-86" data-name="SPLINE">
    <path class="cls-2" d="M318.54,374.89c.02,4.56,1.91,9.11,5.15,12.35,3.24,3.24,7.82,5.15,12.41,5.15s9.19-1.9,12.41-5.15c3.22-3.25,5.06-7.83,5.05-12.4,0-4.57-1.87-9.14-5.1-12.38-3.23-3.24-7.83-5.14-12.43-5.14s-9.19,1.92-12.41,5.18c-3.23,3.25-5.09,7.83-5.07,12.39Z"/>
  </g>
  <g id="SPLINE-87" data-name="SPLINE">
    <path class="cls-2" d="M370.51,413.15c-.1,4.48,1.66,8.97,4.71,12.16,3.05,3.19,7.39,5.07,11.82,5.16s8.98-1.6,12.18-4.74c1.37-1.35,2.5-2.96,3.35-4.71.14-.29.27-.59.4-.88.88-2.09,1.37-4.33,1.41-6.57.08-4.49-1.67-8.95-4.71-12.19-3.04-3.24-7.36-5.25-11.76-5.32s-8.88,1.79-12.12,4.97c-3.23,3.18-5.19,7.66-5.29,12.13Z"/>
  </g>
  <g id="SPLINE-88" data-name="SPLINE">
    <path class="cls-2" d="M424.96,387.69s0,0,0,.01c.45.68.93,1.33,1.46,1.94,2.87,3.32,6.89,5.44,11.05,5.76,4.15.32,8.44-1.17,11.48-4.15,1.52-1.49,2.73-3.36,3.59-5.4s1.39-4.26,1.45-6.5c.12-4.47-1.63-8.98-4.52-12.3-2.89-3.32-6.92-5.46-11.07-5.8-2.08-.17-4.18.1-6.15.82-1.96.71-3.78,1.87-5.31,3.38-1.65,1.63-2.96,3.66-3.83,5.88"/>
  </g>
  <g id="SPLINE-89" data-name="SPLINE">
    <path class="cls-2" d="M371.11,354.92c0,4.55,1.83,9.15,4.99,12.45,3.15,3.3,7.62,5.31,12.1,5.48,2.24.08,4.49-.29,6.58-1.07s4.03-1.95,5.63-3.49c3.2-3.08,5.04-7.62,5.02-12.15s-1.9-9.08-5.04-12.4c-1.57-1.66-3.45-3.02-5.5-3.97-.21-.1-.42-.19-.63-.28-1.87-.78-3.88-1.23-5.89-1.31-4.49-.17-9.01,1.51-12.19,4.6-3.18,3.09-5.04,7.59-5.05,12.14Z"/>
  </g>
  <g id="SPLINE-90" data-name="SPLINE">
    <path class="cls-2" d="M318.48,322.87c0,4.36,1.82,8.73,4.94,11.86.07.07.13.13.2.19,3.25,3.15,7.84,5,12.44,5s9.2-1.84,12.45-4.99c3.25-3.15,5.16-7.6,5.17-12.06s-1.89-8.91-5.14-12.07c-3.25-3.16-7.85-5.01-12.45-5.01s-9.2,1.85-12.46,5.01c-3.25,3.15-5.16,7.61-5.16,12.07Z"/>
  </g>
  <g id="SPLINE-91" data-name="SPLINE">
    <path class="cls-2" d="M266.91,300.01c0,1.4.19,2.78.55,4.11.76,2.74,2.26,5.24,4.35,7.17,2.99,2.75,7.17,4.31,11.44,4.23"/>
  </g>
  <g id="SPLINE-92" data-name="SPLINE">
    <path class="cls-2" d="M298.78,306.36c1.48-2.54,2.32-5.4,2.34-8.2.03-4.26-1.82-8.42-4.96-11.27-3.14-2.85-7.54-4.38-12.01-4.16-4.47.22-9.02,2.18-12.21,5.38-3.19,3.2-5.03,7.63-5.04,11.91"/>
  </g>
  <g id="SPLINE-93" data-name="SPLINE">
    <path class="cls-2" d="M218.49,282.32c-.1,3.99,1.67,7.64,4.55,10.03,1.51,1.25,3.32,2.16,5.3,2.67"/>
  </g>
  <g id="SPLINE-94" data-name="SPLINE">
    <path class="cls-2" d="M250.21,274.68c-.49-2.47-1.65-4.69-3.33-6.39-.26-.27-.54-.53-.83-.77-2.84-2.38-6.87-3.46-11-2.88s-8.35,2.79-11.43,6.07-5.04,7.62-5.13,11.62"/>
  </g>
  <g id="SPLINE-95" data-name="SPLINE">
    <path class="cls-2" d="M267.82,248.31c-.19,3.79,1.48,7.42,4.44,9.95.17.14.33.28.51.41"/>
  </g>
  <g id="SPLINE-96" data-name="SPLINE">
    <path class="cls-2" d="M301.31,248.32c.14-.65.22-1.3.26-1.95.21-3.82-1.34-7.52-4.26-10.01-2.93-2.49-7.23-3.79-11.65-3.55-.18,0-.36.02-.54.04-4.25.35-8.56,2.1-11.73,4.85s-5.37,6.81-5.56,10.6"/>
  </g>
  <g id="SPLINE-97" data-name="SPLINE">
    <path class="cls-2" d="M318.64,273.51c-.02,4.11,1.82,8.24,5.03,11.16.21.19.42.37.63.55"/>
  </g>
  <g id="SPLINE-98" data-name="SPLINE">
    <path class="cls-2" d="M348.02,285.09c.15-.12.3-.25.44-.38,3.24-2.91,5.13-7.03,5.13-11.13,0-4.11-1.87-8.21-5.09-11.12-3.21-2.91-7.78-4.64-12.36-4.65-4.58-.01-9.17,1.68-12.39,4.58-1.64,1.48-2.94,3.27-3.81,5.22-.84,1.87-1.3,3.88-1.31,5.9"/>
  </g>
  <g id="SPLINE-99" data-name="SPLINE">
    <path class="cls-2" d="M434.73,343.56c1.11.34,2.24.55,3.37.65,4.14.35,8.24-.89,11.23-3.57s4.85-6.8,4.82-11.1-1.96-8.8-4.95-12.15c-3-3.35-7.06-5.55-11.19-6.03-2.06-.24-4.14-.05-6.04.57s-3.64,1.69-5.09,3.08c-2.18,2.1-3.72,4.96-4.35,8.08"/>
  </g>
  <g id="SPLINE-100" data-name="SPLINE">
    <path class="cls-2" d="M371.07,298.14c.01,2.95.92,5.97,2.54,8.61"/>
  </g>
  <g id="SPLINE-101" data-name="SPLINE">
    <path class="cls-2" d="M388.95,315.56c2.04.05,4.07-.27,5.94-.91.46-.16.91-.34,1.36-.53,1.53-.68,2.94-1.59,4.15-2.7,3.13-2.86,4.94-7.01,4.94-11.29s-1.84-8.69-5.02-11.93c-1.59-1.62-3.51-2.94-5.6-3.87s-4.34-1.47-6.58-1.58c-4.48-.22-8.91,1.29-12.06,4.13s-5.03,6.99-5.01,11.26"/>
  </g>
  <g id="SPLINE-102" data-name="SPLINE">
    <path class="cls-2" d="M444.25,295.23c1.95-.5,3.73-1.39,5.2-2.64,2.85-2.43,4.49-6.17,4.36-10.22s-2.04-8.39-5.12-11.67c-3.07-3.27-7.32-5.49-11.48-6.06s-8.22.49-11.05,2.89c-.06.05-.12.1-.17.15-2.04,1.8-3.42,4.31-3.95,7.11"/>
  </g>
  <g id="SPLINE-103" data-name="SPLINE">
    <path class="cls-2" d="M370.45,246.11c.02.79.12,1.58.29,2.37"/>
  </g>
  <g id="SPLINE-104" data-name="SPLINE">
    <path class="cls-2" d="M399.52,258.66c.05-.04.1-.08.16-.13,3.02-2.46,4.73-6.09,4.64-9.9-.09-3.81-1.99-7.79-5.21-10.71-2.83-2.56-6.67-4.31-10.57-4.9-.54-.08-1.09-.14-1.63-.18-4.43-.3-8.74.95-11.78,3.39s-4.77,6.08-4.68,9.88"/>
  </g>
  <g id="ARC-35" data-name="ARC">
    <path class="cls-2" d="M319.16,229.11c-.01,2,.49,3.97,1.47,5.72"/>
  </g>
  <g id="SPLINE-105" data-name="SPLINE">
    <path class="cls-2" d="M351.75,234.6c.9-1.68,1.39-3.5,1.4-5.31.01-3.54-1.81-7.08-4.94-9.67s-7.56-4.21-12.01-4.25-8.94,1.51-12.08,4.07c-3.14,2.56-4.93,6.11-4.96,9.68"/>
  </g>
  <g id="SPLINE-106" data-name="SPLINE">
    <path class="cls-2" d="M548.16,454.17c-.49-.81-1.11-1.59-1.87-2.31-.95-.9-2.15-1.69-3.54-2.23-.87-.34-1.82-.59-2.81-.7s-1.98-.11-2.95.01c-1.55.2-3.02.72-4.24,1.43s-2.14,1.53-2.91,2.44c-.09.11-.18.22-.27.33"/>
  </g>
  <g id="ELLIPSE-17" data-name="ELLIPSE">
    <path class="cls-2" d="M705.81,594.43c-68.03-22.86-123.66-71.21-154.37-134.15"/>
  </g>
  <g id="ARC-36" data-name="ARC">
    <path class="cls-2" d="M551.44,460.29c-1-2.09-2.1-4.13-3.28-6.12"/>
  </g>
  <g id="SPLINE-107" data-name="SPLINE">
    <path class="cls-2" d="M739.66,591.01c.25-.15.5-.3.75-.45"/>
  </g>
  <g id="SPLINE-108" data-name="SPLINE">
    <path class="cls-2" d="M735.56,593.36c-1.57,1.06-3.31,1.94-5.22,2.6-2.14.74-4.44,1.21-6.87,1.39-2.3.18-4.73.1-7.22-.23s-5.04-.92-7.59-1.74"/>
  </g>
  <g id="ARC-37" data-name="ARC">
    <path class="cls-2" d="M705.81,594.43c.95.32,1.9.63,2.85.94"/>
  </g>
  <g id="SPLINE-109" data-name="SPLINE">
    <path class="cls-2" d="M742.02,589.52c.3-.2.6-.4.91-.59"/>
  </g>
  <g id="ARC-38" data-name="ARC">
    <path class="cls-2" d="M766.42,580.08c-10.3,2.45-20.14,6.55-29.13,12.13"/>
  </g>
  <g id="ARC-39" data-name="ARC">
    <path class="cls-2" d="M821.31,580.08c-18.03-4.38-36.86-4.38-54.89,0"/>
  </g>
  <g id="SPLINE-110" data-name="SPLINE">
    <path class="cls-2" d="M844.81,588.92c.31.2.61.39.91.59"/>
  </g>
  <g id="ARC-40" data-name="ARC">
    <path class="cls-2" d="M850.44,592.21c-8.99-5.59-18.83-9.69-29.13-12.13"/>
  </g>
  <g id="ARC-41" data-name="ARC">
    <path class="cls-2" d="M737.3,592.21c-.59.37-1.17.76-1.74,1.14"/>
  </g>
  <g id="ARC-42" data-name="ARC">
    <path class="cls-2" d="M740.41,590.56c.54-.34,1.08-.69,1.61-1.04"/>
  </g>
  <g id="SPLINE-111" data-name="SPLINE">
    <path class="cls-2" d="M847.32,590.56c.25.16.5.31.75.45"/>
  </g>
  <g id="SPLINE-112" data-name="SPLINE">
    <path class="cls-2" d="M879.08,595.37c-2.61.85-5.19,1.43-7.7,1.76s-4.93.39-7.22.21c-2.29-.18-4.48-.62-6.49-1.29s-3.84-1.57-5.49-2.69"/>
  </g>
  <g id="ARC-43" data-name="ARC">
    <path class="cls-2" d="M852.18,593.36c-.58-.39-1.16-.77-1.74-1.14"/>
  </g>
  <g id="ARC-44" data-name="ARC">
    <path class="cls-2" d="M845.72,589.52c.53.35,1.07.7,1.61,1.04"/>
  </g>
  <g id="ELLIPSE-18" data-name="ELLIPSE">
    <path class="cls-2" d="M1036.3,460.29c-30.7,62.94-86.34,111.29-154.37,134.15"/>
  </g>
  <g id="ARC-45" data-name="ARC">
    <path class="cls-2" d="M879.08,595.37c.95-.31,1.9-.62,2.85-.94"/>
  </g>
  <g id="SPLINE-113" data-name="SPLINE">
    <path class="cls-2" d="M1058.17,453.14c-.78-1-1.78-1.94-3.05-2.7-1.1-.66-2.38-1.16-3.76-1.41-.96-.18-1.97-.23-2.95-.17-.74.05-1.46.17-2.16.35-1.11.29-2.15.75-3.05,1.3-.75.46-1.41,1-1.98,1.57-.65.65-1.19,1.35-1.63,2.08"/>
  </g>
  <g id="ARC-46" data-name="ARC">
    <path class="cls-2" d="M1039.58,454.17c-1.19,1.99-2.28,4.03-3.28,6.12"/>
  </g>
  <g id="ELLIPSE-19" data-name="ELLIPSE">
    <path class="cls-2" d="M1061.9,241.36c18.77-30.5,45.14-55.97,76.71-74.1,104.48-60,239.53-26.82,301.65,74.1,62.11,100.92,27.77,231.37-76.71,291.37-104.48,60-239.53,26.82-301.65-74.1"/>
  </g>
  <g id="ARC-47" data-name="ARC">
    <path class="cls-2" d="M1061.9,458.63c-1.15-1.89-2.39-3.72-3.73-5.49"/>
  </g>
  <g id="SPLINE-114" data-name="SPLINE">
    <path class="cls-2" d="M1039.58,246.04c.49.91,1.11,1.8,1.87,2.63.95,1.03,2.15,1.96,3.54,2.6.87.4,1.82.69,2.81.83s1.98.13,2.95-.02c1.55-.25,3.02-.87,4.24-1.7s2.14-1.79,2.91-2.84c.09-.13.18-.25.27-.38"/>
  </g>
  <g id="ARC-48" data-name="ARC">
    <path class="cls-2" d="M1058.17,247.15c1.29-1.9,2.53-3.83,3.73-5.8"/>
  </g>
  <g id="ELLIPSE-20" data-name="ELLIPSE">
    <path class="cls-2" d="M551.44,239.61c26.54-54.41,71.87-98.19,128.2-123.83,133.89-60.94,293.57-5.5,356.66,123.83"/>
  </g>
  <g id="ARC-49" data-name="ARC">
    <path class="cls-2" d="M1036.3,239.61c1.05,2.17,2.14,4.31,3.28,6.43"/>
  </g>
  <g id="SPLINE-115" data-name="SPLINE">
    <path class="cls-2" d="M529.57,247.15c.78,1.14,1.78,2.23,3.05,3.12,1.1.77,2.38,1.37,3.76,1.68.96.21,1.97.29,2.95.21.74-.06,1.46-.2,2.16-.42,1.11-.34,2.15-.88,3.05-1.53.75-.54,1.41-1.16,1.98-1.82.65-.75,1.19-1.55,1.63-2.36"/>
  </g>
  <g id="ARC-50" data-name="ARC">
    <path class="cls-2" d="M548.16,246.04c1.14-2.12,2.24-4.26,3.28-6.43"/>
  </g>
  <g id="ELLIPSE-21" data-name="ELLIPSE">
    <path class="cls-2" d="M525.83,458.63c-18.77,30.5-45.14,55.97-76.71,74.1-104.48,60-239.53,26.82-301.65-74.1-62.11-100.92-27.77-231.37,76.71-291.37,104.48-60,239.53-26.82,301.65,74.1"/>
  </g>
  <g id="ARC-51" data-name="ARC">
    <path class="cls-2" d="M525.83,241.36c1.2,1.96,2.44,3.89,3.73,5.8"/>
  </g>
  <g id="ARC-52" data-name="ARC">
    <path class="cls-2" d="M529.57,453.14c-1.34,1.76-2.59,3.59-3.73,5.49"/>
  </g>
  <g id="SPLINE-116" data-name="SPLINE">
    <path class="cls-2" d="M737.78,386.33c-.75,0-1.49.14-2.19.42s-1.33.7-1.87,1.24-.97,1.16-1.27,1.86c-.15.36-.27.73-.35,1.12s-.12.77-.13,1.17"/>
  </g>
  <g id="SPLINE-117" data-name="SPLINE">
    <path class="cls-2" d="M735.39,386.13c-.75,0-1.49.14-2.19.42s-1.33.7-1.87,1.24-.97,1.17-1.27,1.86c-.15.36-.27.73-.35,1.12s-.12.77-.13,1.17"/>
  </g>
  <g id="ARC-53" data-name="ARC">
    <path class="cls-2" d="M737.78,386.31c18.69.31,37.39.41,56.08.28"/>
  </g>
  <g id="ARC-54" data-name="ARC">
    <path class="cls-2" d="M735.39,386.11c19.49.33,38.98.42,58.48.3"/>
  </g>
  <g id="SPLINE-118" data-name="SPLINE">
    <path class="cls-2" d="M731.95,414.34c0,.76.16,1.52.44,2.22s.71,1.35,1.24,1.9,1.16.98,1.85,1.29,1.46.47,2.22.49"/>
  </g>
  <g id="SPLINE-119" data-name="SPLINE">
    <path class="cls-2" d="M729.56,415.45c0,.76.16,1.52.45,2.22s.71,1.35,1.24,1.9,1.16.98,1.85,1.29,1.46.47,2.22.49"/>
  </g>
  <g id="SPLINE-120" data-name="SPLINE">
    <path class="cls-2" d="M731.98,392.13c-.07,7.4-.08,14.83-.03,22.21"/>
  </g>
  <g id="ARC-55" data-name="ARC">
    <path class="cls-2" d="M737.71,420.23c18.72.31,37.44.43,56.16.34"/>
  </g>
  <g id="ARC-56" data-name="ARC">
    <path class="cls-2" d="M793.87,420.58c18.72.09,37.44-.03,56.16-.34"/>
  </g>
  <g id="SPLINE-121" data-name="SPLINE">
    <path class="cls-2" d="M850.03,420.23c.75-.01,1.49-.17,2.19-.47s1.32-.73,1.86-1.27.96-1.18,1.25-1.89.45-1.48.46-2.26"/>
  </g>
  <g id="SPLINE-122" data-name="SPLINE">
    <path class="cls-2" d="M855.76,392.13c.07,7.4.08,14.83.03,22.21"/>
  </g>
  <g id="SPLINE-123" data-name="SPLINE">
    <path class="cls-2" d="M855.76,392.13c0-.76-.16-1.52-.45-2.22s-.71-1.34-1.25-1.88-1.16-.96-1.85-1.26c-.36-.15-.73-.26-1.1-.34s-.76-.11-1.15-.11"/>
  </g>
  <g id="ARC-57" data-name="ARC">
    <path class="cls-2" d="M793.87,386.59c18.7.12,37.39.03,56.08-.28"/>
  </g>
  <g id="ARC-58" data-name="ARC">
    <path class="cls-2" d="M735.31,421.34c19.52.33,39.04.45,58.56.36"/>
  </g>
  <g id="SPLINE-124" data-name="SPLINE">
    <path class="cls-2" d="M858.15,391.93c0-.76-.16-1.52-.45-2.22s-.71-1.34-1.25-1.88-1.16-.96-1.85-1.26c-.36-.15-.73-.26-1.1-.34s-.76-.11-1.15-.11"/>
  </g>
  <g id="ARC-59" data-name="ARC">
    <path class="cls-2" d="M793.87,386.4c19.49.13,38.99.03,58.48-.3"/>
  </g>
  <g id="SPLINE-125" data-name="SPLINE">
    <path class="cls-2" d="M852.43,421.35c.75-.01,1.49-.17,2.19-.47s1.32-.73,1.86-1.27.96-1.18,1.25-1.89.45-1.48.46-2.26"/>
  </g>
  <g id="ELLIPSE-22" data-name="ELLIPSE">
    <path class="cls-2" d="M858.18,415.45c.05-7.83.04-15.67-.03-23.52"/>
  </g>
  <g id="SPLINE-126" data-name="SPLINE">
    <path class="cls-2" d="M605.61,355.47c.61-.15,1.2-.44,1.74-.86s1.02-.96,1.41-1.59c.33-.53.6-1.12.78-1.75s.29-1.27.3-1.91"/>
  </g>
  <g id="ARC-60" data-name="ARC">
    <path class="cls-2" d="M605.61,355.47c-7.62,1.85-15.18,3.91-22.69,6.17"/>
  </g>
  <g id="SPLINE-127" data-name="SPLINE">
    <path class="cls-2" d="M582.08,357.36c.03.75.16,1.47.4,2.12s.58,1.22.99,1.67c.08.09.16.17.24.25"/>
  </g>
  <g id="SPLINE-128" data-name="SPLINE">
    <path class="cls-2" d="M578.07,356.83c.03.75.16,1.47.4,2.12s.58,1.22.99,1.67.9.78,1.43.97c.32.11.66.18,1,.18s.69-.04,1.03-.14"/>
  </g>
  <g id="SPLINE-129" data-name="SPLINE">
    <path class="cls-2" d="M739.7,294.35c-2.55-4.44-5.48-8.61-8.73-12.42-6.11-7.16-13.41-13.11-21.49-17.59-4.04-2.24-8.26-4.11-12.62-5.55-4.36-1.44-8.85-2.44-13.39-3.07-1.36-.19-2.72-.35-4.08-.47-5.13-.46-10.35-.43-15.57.16-6.61.75-13.18,2.42-19.54,4.82-6.35,2.4-12.54,5.54-18.34,9.44-5.8,3.9-11.21,8.56-16.13,13.8s-9.32,11.08-13.05,17.3c-3.73,6.21-6.81,12.82-9.24,19.78-2.43,6.95-4.21,14.23-5,21.41-.56,5.14-.62,10.23-.44,15.39"/>
  </g>
  <g id="SPLINE-130" data-name="SPLINE">
    <path class="cls-2" d="M578.07,356.83c-.19-5.31-.13-10.53.45-15.81.8-7.31,2.61-14.73,5.09-21.82s5.62-13.82,9.42-20.15c3.8-6.33,8.3-12.28,13.3-17.62,5.01-5.35,10.52-10.09,16.43-14.07,5.91-3.98,12.21-7.18,18.69-9.62s13.17-4.14,19.91-4.91c6.74-.77,13.46-.6,20.03.31,4.63.65,9.2,1.67,13.65,3.13s8.74,3.37,12.86,5.65c8.23,4.57,15.67,10.63,21.89,17.92,6.22,7.29,11.29,15.89,14.82,25.2,1.76,4.65,3.14,9.47,4,14.67.5,3.01.84,6.15,1.1,9.12"/>
  </g>
  <g id="ARC-61" data-name="ARC">
    <path class="cls-2" d="M710.66,333.9c.19,1.2.78,2.31,1.67,3.13"/>
  </g>
  <g id="ARC-62" data-name="ARC">
    <path class="cls-2" d="M709.09,332.9c.43,2.82,3,4.81,5.85,4.52"/>
  </g>
  <g id="SPLINE-131" data-name="SPLINE">
    <path class="cls-2" d="M695.64,303.74c4.59,4.1,8.5,9.19,11.01,15,2.04,4.72,3.15,9.9,4,15.16"/>
  </g>
  <g id="ARC-63" data-name="ARC">
    <path class="cls-2" d="M744.06,335.25c-9.72.5-19.43,1.22-29.12,2.16"/>
  </g>
  <g id="SPLINE-132" data-name="SPLINE">
    <path class="cls-2" d="M744.06,335.25c.75-.04,1.5-.23,2.19-.55s1.32-.77,1.84-1.32.94-1.2,1.22-1.9c.17-.42.29-.86.35-1.3s.08-.89.04-1.34"/>
  </g>
  <g id="SPLINE-133" data-name="SPLINE">
    <path class="cls-2" d="M838.04,328.84c-.06.74.02,1.5.24,2.22s.59,1.4,1.07,1.99,1.07,1.09,1.74,1.46c.4.22.82.4,1.26.53s.88.2,1.34.23"/>
  </g>
  <g id="ARC-64" data-name="ARC">
    <path class="cls-2" d="M872.8,337.42c-9.69-.94-19.4-1.67-29.12-2.16"/>
  </g>
  <g id="SPLINE-134" data-name="SPLINE">
    <path class="cls-2" d="M977.9,349.36c.02.75.16,1.51.4,2.23s.6,1.38,1.05,1.96c.38.49.81.9,1.28,1.23s.98.56,1.49.68"/>
  </g>
  <g id="ARC-65" data-name="ARC">
    <path class="cls-2" d="M1004.82,361.64c-7.51-2.26-15.07-4.31-22.69-6.17"/>
  </g>
  <g id="SPLINE-135" data-name="SPLINE">
    <path class="cls-2" d="M1004.02,361.4c.43-.39.79-.9,1.06-1.5.17-.37.31-.78.4-1.21s.15-.87.17-1.33"/>
  </g>
  <g id="SPLINE-136" data-name="SPLINE">
    <path class="cls-2" d="M1004.82,361.64c.56.17,1.13.19,1.68.07s1.06-.4,1.5-.79.82-.92,1.1-1.54c.17-.37.31-.78.4-1.21s.15-.87.17-1.33"/>
  </g>
  <g id="SPLINE-137" data-name="SPLINE">
    <path class="cls-2" d="M848.04,294.35c2.55-4.44,5.48-8.61,8.73-12.42,6.11-7.16,13.41-13.11,21.49-17.59,4.04-2.24,8.26-4.11,12.62-5.55,4.36-1.44,8.85-2.44,13.39-3.07,1.36-.19,2.72-.35,4.08-.47,5.13-.46,10.35-.43,15.57.16,6.61.75,13.18,2.42,19.54,4.82,6.35,2.4,12.54,5.54,18.34,9.44,5.8,3.9,11.21,8.56,16.13,13.8,4.91,5.25,9.32,11.08,13.05,17.3s6.81,12.82,9.24,19.78c2.43,6.95,4.21,14.23,5,21.41.56,5.14.62,10.23.44,15.39"/>
  </g>
  <g id="SPLINE-138" data-name="SPLINE">
    <path class="cls-2" d="M1009.67,356.83c.19-5.31.13-10.53-.45-15.81-.8-7.31-2.61-14.73-5.09-21.82-2.48-7.09-5.62-13.82-9.42-20.15-3.8-6.33-8.3-12.28-13.3-17.62-5.01-5.35-10.52-10.09-16.43-14.07s-12.21-7.18-18.69-9.62c-6.48-2.44-13.17-4.14-19.91-4.91-6.74-.77-13.46-.6-20.03.31-4.63.65-9.2,1.67-13.65,3.13s-8.74,3.37-12.86,5.65c-8.23,4.57-15.67,10.63-21.89,17.92-6.22,7.29-11.29,15.89-14.82,25.2-1.76,4.65-3.14,9.47-4,14.67-.5,3.01-.84,6.15-1.1,9.12"/>
  </g>
  <g id="ARC-66" data-name="ARC">
    <path class="cls-2" d="M875.41,337.03c.89-.83,1.48-1.93,1.67-3.13"/>
  </g>
  <g id="ARC-67" data-name="ARC">
    <path class="cls-2" d="M872.8,337.42c2.84.29,5.41-1.69,5.84-4.52"/>
  </g>
  <g id="SPLINE-139" data-name="SPLINE">
    <path class="cls-2" d="M892.09,303.74c-4.59,4.1-8.5,9.19-11.01,15-2.04,4.72-3.15,9.9-4,15.16"/>
  </g>
  <g id="SPLINE-140" data-name="SPLINE">
    <path class="cls-2" d="M878.65,332.9c.88-5.39,2.01-10.7,4.09-15.54,2.74-6.33,7.11-11.84,12.21-16.15,5.1-4.31,10.92-7.43,17.17-9.17s13-2.08,19.65-.99c6.65,1.1,13.16,3.64,19.02,7.39s11.09,8.72,15.45,14.6c4.36,5.88,7.81,12.66,9.65,19.73,1.41,5.42,1.88,11.01,2.01,16.59"/>
  </g>
  <g id="ARC-68" data-name="ARC">
    <path class="cls-2" d="M793.87,421.7c19.52.09,39.04-.03,58.56-.36"/>
  </g>
  <g id="ELLIPSE-23" data-name="ELLIPSE">
    <path class="cls-2" d="M729.56,415.45c-.05-7.83-.04-15.67.03-23.52"/>
  </g>
  <g id="SPLINE-141" data-name="SPLINE">
    <path class="cls-2" d="M709.09,332.9c-.88-5.39-2.01-10.7-4.09-15.54-2.74-6.33-7.11-11.84-12.21-16.15-5.1-4.31-10.92-7.43-17.17-9.17s-13-2.08-19.65-.99c-6.65,1.1-13.16,3.64-19.02,7.39-5.86,3.75-11.09,8.72-15.45,14.6-4.36,5.88-7.81,12.66-9.65,19.73-1.41,5.42-1.88,11.01-2.01,16.59"/>
  </g>
  <g id="SPLINE-142" data-name="SPLINE">
    <path class="cls-2" d="M739.66,591.01c-1.77,1.03-3.53,2.06-5.27,3.08"/>
  </g>
  <g id="SPLINE-143" data-name="SPLINE">
    <path class="cls-2" d="M853.35,594.09c-1.74-1.02-3.5-2.05-5.27-3.08"/>
  </g>
  <g id="LINE-6" data-name="LINE">
    <line class="cls-2" x1="892.09" y1="303.74" x2="893.96" y2="302.08"/>
  </g>
  <g id="LINE-7" data-name="LINE">
    <line class="cls-2" x1="693.78" y1="302.08" x2="695.64" y2="303.74"/>
  </g>
</svg>